<svg xmlns="http://www.w3.org/2000/svg" width="156" height="26" viewBox="0 0 156 26">
  <defs>
    <style>
      .cls-1 {
        fill: #f02ea6;
        fill-rule: evenodd;
      }
    </style>
  </defs>
  <path id="logo" class="cls-1" d="M222.053,31.559a0.847,0.847,0,0,0-.691-0.25h-2.929a1.3,1.3,0,0,0-1.043.508l-6.167,7.96-3.335-7.927a0.911,0.911,0,0,0-.98-0.542h-2.766a0.933,0.933,0,0,0-1.014.887l-3.09,17.6a0.8,0.8,0,0,0,.1.681,0.849,0.849,0,0,0,.691.25h2.929a0.977,0.977,0,0,0,1.013-.887L206.6,39.4l2.851,6.691,0,0.007a0.75,0.75,0,0,0,.7.446,0.872,0.872,0,0,0,.772-0.426l5.211-6.684L214.33,49.793a0.789,0.789,0,0,0,.1.682,0.85,0.85,0,0,0,.691.25h2.929a0.978,0.978,0,0,0,1.013-.887l3.09-17.6A0.791,0.791,0,0,0,222.053,31.559Zm13.364,0.577a0.959,0.959,0,0,0-1.012-.827h-3.8a1.2,1.2,0,0,0-.723.187,1.592,1.592,0,0,0-.441.611l-9.111,17.519a0.82,0.82,0,0,0-.082.778,0.668,0.668,0,0,0,.649.322h3.308a1.228,1.228,0,0,0,1.138-.8l1.458-2.868h6.116l0.444,2.827a0.881,0.881,0,0,0,.987.84H237.5a0.809,0.809,0,0,0,.693-0.307,1.007,1.007,0,0,0,.156-0.756Zm-6.947,10.8,3.308-6.6,0.89,6.6h-4.2Zm21.244-2.547,8.128-7.872a0.848,0.848,0,0,0,.272-0.789,0.563,0.563,0,0,0-.631-0.417h-3.635a1.907,1.907,0,0,0-1.332.743l-6,5.772,0.993-5.582a0.79,0.79,0,0,0-.1-0.682,0.848,0.848,0,0,0-.691-0.25h-3.064a0.931,0.931,0,0,0-1.013.887l-3.091,17.6a0.789,0.789,0,0,0,.1.682,0.847,0.847,0,0,0,.691.25h3.064a0.932,0.932,0,0,0,1.013-.887l1.272-7.175,4.224,7.261a1.245,1.245,0,0,0,1.166.8h3.227a0.722,0.722,0,0,0,.7-0.392,0.776,0.776,0,0,0-.057-0.793Zm20.575-1.3a0.812,0.812,0,0,0-.631-0.229h-6.611l0.583-3.372h7.086a0.942,0.942,0,0,0,1.013-.913l0.434-2.342a0.828,0.828,0,0,0-.146-0.681,0.857,0.857,0,0,0-.678-0.243H260.383a0.919,0.919,0,0,0-.986.887l-3.091,17.6a0.792,0.792,0,0,0,.105.681,0.846,0.846,0,0,0,.691.25h11.064a1.024,1.024,0,0,0,1.04-.914l0.408-2.314a0.828,0.828,0,0,0-.147-0.68,0.853,0.853,0,0,0-.677-0.243h-7.125l0.663-3.726h6.706a0.953,0.953,0,0,0,1.013-.886l0.408-2.183A0.863,0.863,0,0,0,270.289,39.088Zm16.077-6.982A11.547,11.547,0,0,0,280.83,31a9.843,9.843,0,0,0-5.847,1.585,5.625,5.625,0,0,0-2.219,4.867,4.267,4.267,0,0,0,1.313,3.3,10.974,10.974,0,0,0,3.538,2.035,11.591,11.591,0,0,1,2.227,1.047,1.3,1.3,0,0,1,.678,1.1,1.517,1.517,0,0,1-1.1,1.478,6.923,6.923,0,0,1-2.6.467,9.209,9.209,0,0,1-3.942-.806,0.914,0.914,0,0,0-1.234.515l-1.141,2.07a0.76,0.76,0,0,0,.345,1.135,8.954,8.954,0,0,0,2.626.87,18.646,18.646,0,0,0,3.645.342,10.056,10.056,0,0,0,5.981-1.694,5.787,5.787,0,0,0,2.382-5,4.538,4.538,0,0,0-.39-1.926,4.009,4.009,0,0,0-1.2-1.471,11.048,11.048,0,0,0-1.508-1c-0.476-.257-1.109-0.551-1.881-0.874a14.38,14.38,0,0,1-2.177-1.076,1.2,1.2,0,0,1-.6-1.041c0-1.181,1.017-1.755,3.108-1.755a10.145,10.145,0,0,1,3.5.561A0.911,0.911,0,0,0,285.6,35.2l1.086-1.959A0.773,0.773,0,0,0,286.366,32.106Zm27.467-.8h-3.227a1.132,1.132,0,0,0-1.142.807l-3.39,8.1-1.716,4.372-0.251-4.364-0.623-8.095a0.876,0.876,0,0,0-1.042-.817H299.7a1.18,1.18,0,0,0-1.167.779l-3.5,8.1-1.764,4.393L293.1,40.248l-0.542-8.1a0.894,0.894,0,0,0-1.014-.84h-3.119a0.789,0.789,0,0,0-.6.225,1.124,1.124,0,0,0-.223.857l1.736,17.494a0.879,0.879,0,0,0,.986.84h3.39a1.208,1.208,0,0,0,1.166-.8l3.527-7.745,1.526-3.667,0.252,3.633,0.813,7.737a0.859,0.859,0,0,0,.987.844h3.364a1.3,1.3,0,0,0,1.193-.8l7.893-17.5a0.923,0.923,0,0,0,.048-0.81A0.671,0.671,0,0,0,313.833,31.309Zm25.741,0H328.726a0.933,0.933,0,0,0-1.013.887l-3.091,17.6a0.8,0.8,0,0,0,.1.681,0.848,0.848,0,0,0,.69.25h3.038a0.977,0.977,0,0,0,1.013-.887l1.122-6.474h6.679a0.945,0.945,0,0,0,1.013-.859l0.407-2.283a0.819,0.819,0,0,0-.125-0.684,0.835,0.835,0,0,0-.671-0.243H331.31L332,35.46h6.978a0.931,0.931,0,0,0,1.013-.887l0.407-2.34a0.829,0.829,0,0,0-.145-0.681A0.858,0.858,0,0,0,339.574,31.309Zm16.283,0.25a0.847,0.847,0,0,0-.691-0.25H342.475a0.92,0.92,0,0,0-.987.889l-0.46,2.552a0.856,0.856,0,0,0,.13.711,0.832,0.832,0,0,0,.666.243h3.844L343.2,49.793a0.792,0.792,0,0,0,.105.681,0.846,0.846,0,0,0,.69.25h3.065a0.977,0.977,0,0,0,1.013-.887L350.548,35.7h3.941a1,1,0,0,0,1.04-.914l0.433-2.549A0.8,0.8,0,0,0,355.857,31.559Zm-39.121,4.118h1.955l-1.776,6.67a0.485,0.485,0,0,0,.468.611h0.9a0.728,0.728,0,0,0,.623-0.352l6.146-10.193a0.728,0.728,0,0,0-.622-1.1h-2.239l3.488-5.174a0.728,0.728,0,0,0-.6-1.136h-5.643a0.969,0.969,0,0,0-.935.715l-2.462,9.044A0.728,0.728,0,0,0,316.736,35.677Zm2.477,10.194h-3.164a0.97,0.97,0,0,0-.938.726l-0.836,3.216a0.728,0.728,0,0,0,.7.912h3.157A0.969,0.969,0,0,0,319.072,50l0.844-3.217A0.728,0.728,0,0,0,319.213,45.871Z" transform="translate(-200 -25)"/>
</svg>
