<svg width="16" height="16" xmlns="http://www.w3.org/2000/svg"><path fill-rule="evenodd" clip-rule="evenodd" d="M13.191 7.659c-.273-.432-.74-.71-1.403-.835.5-1.384.874-2.505 1.122-3.363.246-.857.37-1.446.37-1.769 0-.424-.113-.764-.337-1.016-.225-.253-.525-.38-.9-.38-.767 0-1.679 1.524-2.74 4.572-.147.418-.26.74-.342.968-.096-.287-.236-.693-.42-1.22C7.48 1.538 6.604 0 5.912 0c-.405 0-.725.134-.96.401-.237.267-.354.628-.354 1.083 0 .33.129.928.387 1.796s.67 2.101 1.237 3.698a2.823 2.823 0 00-.508-.237 1.381 1.381 0 00-.42-.07c-.309 0-.639.171-.988.516-.35.345-.526.681-.526 1.011 0 .095.027.23.078.406.052.176.133.393.243.65-.59.123-1.02.358-1.292.702-.273.345-.409.832-.409 1.462 0 .564.132 1.115.398 1.654.265.538.662 1.049 1.193 1.533.464.439 1.017.782 1.662 1.027A5.55 5.55 0 007.647 16c1.737 0 3.163-.588 4.28-1.764C13.043 13.06 13.6 11.55 13.6 9.704c0-.93-.137-1.612-.409-2.045zM8.276 6.264L7.083 2.835c-.31-.871-.548-1.44-.718-1.709-.17-.267-.354-.4-.552-.4A.46.46 0 005.438.9c-.096.117-.144.275-.144.472 0 .338.129.924.386 1.759.259.835.645 1.93 1.16 3.285a.371.371 0 01.188-.17.904.904 0 01.331-.049c.044 0 .133.004.266.01.132.009.35.027.651.056zm3.871-2.929a77.47 77.47 0 01-1.154 3.302l-1.391-.241 1.104-3.176c.258-.755.493-1.303.707-1.643.213-.34.424-.51.63-.51.162 0 .288.058.38.174.092.118.139.283.139.496 0 .197-.139.73-.415 1.598zm-3.523 6.16c.283.051.584.084.9.098a4.76 4.76 0 00-.613.478c-.195.18-.381.38-.557.6a5.976 5.976 0 00-.227-.693 8.466 8.466 0 00-.315-.703c.258.095.529.169.812.22zM7.536 11.4a.456.456 0 01-.342.17c-.17 0-.398-.12-.685-.362-.287-.242-.593-.579-.917-1.01a7.458 7.458 0 01-.74-1.122c-.184-.352-.276-.616-.276-.79 0-.17.094-.351.282-.546.187-.193.358-.29.513-.29.192 0 .394.093.608.28.213.187.43.463.652.83.301.49.553.99.756 1.5.203.51.304.833.304.972a.537.537 0 01-.155.368zm-3.656-.093c.103.125.247.308.43.55.487.666.936 1 1.349 1 .139 0 .264-.045.375-.133.11-.088.165-.179.165-.274 0-.11-.073-.294-.22-.55a7.037 7.037 0 00-.608-.868c-.295-.373-.54-.646-.734-.819-.195-.172-.352-.258-.47-.258-.257 0-.495.137-.712.413a1.521 1.521 0 00-.326.972c0 .3.075.636.226 1.005.152.37.37.742.657 1.115.435.58.975 1.024 1.619 1.336a4.84 4.84 0 002.137.467c1.436 0 2.638-.533 3.606-1.599.968-1.066 1.452-2.401 1.452-4.006 0-.49-.036-.88-.11-1.17-.073-.29-.195-.5-.365-.632-.301-.25-.889-.472-1.761-.67a12.292 12.292 0 00-2.734-.297c-.265 0-.453.044-.563.132-.11.088-.166.238-.166.45 0 .499.28.86.84 1.083.56.224 1.465.335 2.717.335h.453c.103 0 .185.039.248.115a.704.704 0 01.127.347c-.126.117-.382.25-.773.401-.39.15-.689.299-.895.445-.44.323-.797.705-1.065 1.148-.27.443-.404.863-.404 1.259 0 .241.057.532.172.873.114.341.17.551.17.632v.077l-.022.1c-.323-.023-.579-.212-.767-.567-.188-.355-.281-.83-.281-1.423v-.099a.606.606 0 01-.172.11.48.48 0 01-.182.033.931.931 0 01-.187-.017 1.83 1.83 0 01-.2-.049 2.073 2.073 0 01.067.418.91.91 0 01-.32.697 1.093 1.093 0 01-.762.291c-.464 0-.936-.225-1.415-.676-.478-.45-.717-.89-.717-1.324 0-.08.01-.152.028-.214a.36.36 0 01.093-.16z"/></svg>