<svg width="16" height="16" xmlns="http://www.w3.org/2000/svg"><path d="M12.38 8.447c0 2.385 2.12 3.18 2.12 3.18 0 .1-.303 1.093-1.11 2.286-.708.994-1.414 1.888-2.424 1.988-1.11 0-1.414-.597-2.626-.597-1.211 0-1.615.597-2.625.696-1.11 0-1.818-1.093-2.524-1.988-1.414-1.987-2.424-5.565-1.01-8.05.707-1.192 1.918-1.987 3.332-1.987 1.01 0 2.02.696 2.625.696.606 0 1.818-.895 3.13-.696.506 0 2.02.199 2.93 1.59-.203-.1-1.92.895-1.819 2.882zm-2.121-5.863c.606-.696 1.01-1.69.909-2.584-.808 0-1.818.497-2.424 1.193-.505.596-1.01 1.59-.807 2.484.908.1 1.817-.497 2.322-1.093z"/></svg>