<svg width="16" height="16" viewBox="0 0 16 16" xmlns="http://www.w3.org/2000/svg">
<path fill-rule="evenodd" clip-rule="evenodd" d="M4 1.25C4.10169 1.25 4.19866 1.27024 4.28709 1.30691C4.37555 1.34351 4.45842 1.39776 4.53033 1.46967L7.53033 4.46967C7.82322 4.76256 7.82322 5.23744 7.53033 5.53033C7.23744 5.82322 6.76256 5.82322 6.46967 5.53033L4.75 3.81066V13C4.75 13.4142 4.41421 13.75 4 13.75C3.58579 13.75 3.25 13.4142 3.25 13V3.81066L1.53033 5.53033C1.23744 5.82322 0.762563 5.82322 0.46967 5.53033C0.176777 5.23744 0.176777 4.76256 0.46967 4.46967L3.46967 1.46967C3.54158 1.39776 3.62445 1.34351 3.71291 1.30691C3.80134 1.27024 3.89831 1.25 4 1.25ZM12 2.25C12.4142 2.25 12.75 2.58579 12.75 3V12.1893L14.4697 10.4697C14.7626 10.1768 15.2374 10.1768 15.5303 10.4697C15.8232 10.7626 15.8232 11.2374 15.5303 11.5303L12.5303 14.5303C12.4584 14.6022 12.3755 14.6565 12.2871 14.6931C12.1987 14.7298 12.1017 14.75 12 14.75C11.8983 14.75 11.8013 14.7298 11.7129 14.6931C11.6245 14.6565 11.5416 14.6022 11.4697 14.5303L8.46967 11.5303C8.17678 11.2374 8.17678 10.7626 8.46967 10.4697C8.76256 10.1768 9.23744 10.1768 9.53033 10.4697L11.25 12.1893V3C11.25 2.58579 11.5858 2.25 12 2.25Z" />
</svg>
