<svg width="16" height="17" viewBox="0 0 16 17" xmlns="http://www.w3.org/2000/svg">
<path fill-rule="evenodd" clip-rule="evenodd" d="M9 2.5C8.44772 2.5 8 2.94772 8 3.5C8 4.05228 8.44772 4.5 9 4.5H11C11.5523 4.5 12 4.94772 12 5.5V8.5C12 9.05228 11.5523 9.5 11 9.5H5.41421L6.70711 8.20711C7.09763 7.81658 7.09763 7.18342 6.70711 6.79289C6.31658 6.40237 5.68342 6.40237 5.29289 6.79289L2.29289 9.79289C1.90237 10.1834 1.90237 10.8166 2.29289 11.2071L5.29289 14.2071C5.68342 14.5976 6.31658 14.5976 6.70711 14.2071C7.09763 13.8166 7.09763 13.1834 6.70711 12.7929L5.41421 11.5H11C12.6569 11.5 14 10.1569 14 8.5V5.5C14 3.84315 12.6569 2.5 11 2.5H9Z" />
</svg>
