<svg width="16" height="16" viewBox="0 0 16 16" fill="none" xmlns="http://www.w3.org/2000/svg">
<path fill-rule="evenodd" clip-rule="evenodd" d="M4 1C4 0.447715 4.44772 0 5 0C5.55228 0 6 0.447715 6 1L6 15C6 15.5523 5.55228 16 5 16C4.44772 16 4 15.5523 4 15L4 1ZM7 6C7 5.44772 7.44772 5 8 5C8.55228 5 9 5.44772 9 6L9 10C9 10.5523 8.55228 11 8 11C7.44772 11 7 10.5523 7 10L7 6ZM2 4C1.44772 4 1 4.44772 1 5L1 11C1 11.5523 1.44772 12 2 12C2.55228 12 3 11.5523 3 11L3 5C3 4.44772 2.55228 4 2 4ZM10 3C10 2.44772 10.4477 2 11 2C11.5523 2 12 2.44772 12 3L12 13C12 13.5523 11.5523 14 11 14C10.4477 14 10 13.5523 10 13L10 3ZM14 6C13.4477 6 13 6.44772 13 7V9C13 9.55229 13.4477 10 14 10C14.5523 10 15 9.55229 15 9V7C15 6.44772 14.5523 6 14 6Z" />
</svg>
