<svg width="40" height="40" viewBox="0 0 40 40" fill="none" xmlns="http://www.w3.org/2000/svg">
<path fill-rule="evenodd" clip-rule="evenodd" d="M14 7C14 6.44771 14.4477 6 15 6C15.5523 6 16 6.44772 16 7V33C16 33.5523 15.5523 34 15 34C14.4477 34 14 33.5523 14 33V7ZM19 14C19 13.4477 19.4477 13 20 13C20.5523 13 21 13.4477 21 14V26C21 26.5523 20.5523 27 20 27C19.4477 27 19 26.5523 19 26V14ZM10 11C9.44772 11 9 11.4477 9 12V28C9 28.5523 9.44772 29 10 29C10.5523 29 11 28.5523 11 28V12C11 11.4477 10.5523 11 10 11ZM4 17C4 16.4477 4.44772 16 5 16C5.55228 16 6 16.4477 6 17V23C6 23.5523 5.55228 24 5 24C4.44772 24 4 23.5523 4 23V17ZM25 9C24.4477 9 24 9.44772 24 10V30C24 30.5523 24.4477 31 25 31C25.5523 31 26 30.5523 26 30V10C26 9.44772 25.5523 9 25 9ZM29 13C29 12.4477 29.4477 12 30 12C30.5523 12 31 12.4477 31 13V27C31 27.5523 30.5523 28 30 28C29.4477 28 29 27.5523 29 27V13ZM35 16C34.4477 16 34 16.4477 34 17V23C34 23.5523 34.4477 24 35 24C35.5523 24 36 23.5523 36 23V17C36 16.4477 35.5523 16 35 16Z" />
</svg>
