<svg width="16" height="16" viewBox="0 0 16 16" xmlns="http://www.w3.org/2000/svg">
<path d="M2 3C0.895431 3 0 3.89543 0 5L16 5C16 3.89543 15.1046 3 14 3H2Z"/>
<path fill-rule="evenodd" clip-rule="evenodd" d="M16 7H0V11C0 12.1046 0.895431 13 2 13H14C15.1046 13 16 12.1046 16 11V7ZM6 10.5C6 10.2239 6.22386 10 6.5 10H9.5C9.77614 10 10 10.2239 10 10.5C10 10.7761 9.77614 11 9.5 11H6.5C6.22386 11 6 10.7761 6 10.5ZM1.5 10C1.22386 10 1 10.2239 1 10.5C1 10.7761 1.22386 11 1.5 11H4.5C4.77614 11 5 10.7761 5 10.5C5 10.2239 4.77614 10 4.5 10H1.5ZM12 10.5C12 9.67157 12.6716 9 13.5 9C14.3284 9 15 9.67157 15 10.5C15 11.3284 14.3284 12 13.5 12C12.6716 12 12 11.3284 12 10.5Z"/>
<path opacity="0.25" fill-rule="evenodd" clip-rule="evenodd" d="M16 5H0V7H16V5ZM6.5 10C6.22386 10 6 10.2239 6 10.5C6 10.7761 6.22386 11 6.5 11H9.5C9.77614 11 10 10.7761 10 10.5C10 10.2239 9.77614 10 9.5 10H6.5ZM1 10.5C1 10.2239 1.22386 10 1.5 10H4.5C4.77614 10 5 10.2239 5 10.5C5 10.7761 4.77614 11 4.5 11H1.5C1.22386 11 1 10.7761 1 10.5ZM13.5 9C12.6716 9 12 9.67157 12 10.5C12 11.3284 12.6716 12 13.5 12C14.3284 12 15 11.3284 15 10.5C15 9.67157 14.3284 9 13.5 9Z"/>
</svg>
