<svg width="20" height="20" viewBox="0 0 20 20" xmlns="http://www.w3.org/2000/svg">
<path fill-rule="evenodd" clip-rule="evenodd" d="M2 4C0.895431 4 0 4.89543 0 6L20 6C20 4.89543 19.1046 4 18 4H2ZM20 8H0V14C0 15.1046 0.895431 16 2 16H18C19.1046 16 20 15.1046 20 14V8ZM18 12C18 13.3807 16.8807 14.5 15.5 14.5C14.1193 14.5 13 13.3807 13 12C13 10.6193 14.1193 9.5 15.5 9.5C16.8807 9.5 18 10.6193 18 12ZM10 13C10.5523 13 11 12.5523 11 12C11 11.4477 10.5523 11 10 11H8C7.44772 11 7 11.4477 7 12C7 12.5523 7.44772 13 8 13H10ZM6 12C6 12.5523 5.55228 13 5 13H3C2.44772 13 2 12.5523 2 12C2 11.4477 2.44772 11 3 11H5C5.55228 11 6 11.4477 6 12Z"/>
<path opacity="0.25" d="M0 6H20V8H0V6Z"/>
<path opacity="0.25" d="M18 12C18 13.3807 16.8807 14.5 15.5 14.5C14.1193 14.5 13 13.3807 13 12C13 10.6193 14.1193 9.5 15.5 9.5C16.8807 9.5 18 10.6193 18 12Z"/>
<path opacity="0.25" fill-rule="evenodd" clip-rule="evenodd" d="M11 12C11 12.5523 10.5523 13 10 13H8C7.44772 13 7 12.5523 7 12C7 11.4477 7.44772 11 8 11H10C10.5523 11 11 11.4477 11 12Z"/>
<path opacity="0.25" fill-rule="evenodd" clip-rule="evenodd" d="M6 12C6 12.5523 5.55228 13 5 13H3C2.44772 13 2 12.5523 2 12C2 11.4477 2.44772 11 3 11H5C5.55228 11 6 11.4477 6 12Z"/>
</svg>
