<svg width="12" height="12" viewBox="0 0 12 12" xmlns="http://www.w3.org/2000/svg">
<path fill-rule="evenodd" clip-rule="evenodd" d="M1 2C0.447715 2 0 2.44772 0 3V3.5H12V3C12 2.44772 11.5523 2 11 2H1ZM12 5H0V9C0 9.55228 0.447715 10 1 10H11C11.5523 10 12 9.55228 12 9V5ZM11 7.5C11 8.32843 10.3284 9 9.5 9C8.67157 9 8 8.32843 8 7.5C8 6.67157 8.67157 6 9.5 6C10.3284 6 11 6.67157 11 7.5ZM1 7.5C1 7.22386 1.22386 7 1.5 7H2.5C2.77614 7 3 7.22386 3 7.5C3 7.77614 2.77614 8 2.5 8H1.5C1.22386 8 1 7.77614 1 7.5ZM4.5 7C4.22386 7 4 7.22386 4 7.5C4 7.77614 4.22386 8 4.5 8H6.5C6.77614 8 7 7.77614 7 7.5C7 7.22386 6.77614 7 6.5 7H4.5Z" />
<path opacity="0.25" fill-rule="evenodd" clip-rule="evenodd" d="M12 3.5H0V5H12V3.5ZM9.5 9C10.3284 9 11 8.32843 11 7.5C11 6.67157 10.3284 6 9.5 6C8.67157 6 8 6.67157 8 7.5C8 8.32843 8.67157 9 9.5 9ZM1 7.5C1 7.22386 1.22386 7 1.5 7H2.5C2.77614 7 3 7.22386 3 7.5C3 7.77614 2.77614 8 2.5 8H1.5C1.22386 8 1 7.77614 1 7.5ZM4.5 7C4.22386 7 4 7.22386 4 7.5C4 7.77614 4.22386 8 4.5 8H6.5C6.77614 8 7 7.77614 7 7.5C7 7.22386 6.77614 7 6.5 7H4.5Z" />
</svg>
