<svg width="20" height="20" xmlns="http://www.w3.org/2000/svg"><path fill-rule="evenodd" clip-rule="evenodd" d="M5 2c-.22 0-.434.024-.639.068A1 1 0 113.938.113 5.015 5.015 0 015 0h.682a1 1 0 010 2H5zm3.318-1a1 1 0 011-1h1.364a1 1 0 110 2H9.318a1 1 0 01-1-1zm5 0a1 1 0 011-1H15c.364 0 .719.039 1.062.113a1 1 0 01-.423 1.955A3.017 3.017 0 0015 2h-.682a1 1 0 01-1-1zM1.302 3.172a1 1 0 01.766 1.189A3.016 3.016 0 002 5v.682a1 1 0 01-2 0V5c0-.364.039-.719.113-1.062a1 1 0 011.19-.766zm17.396 0a1 1 0 011.189.766C19.96 4.28 20 4.636 20 5v.682a1 1 0 11-2 0V5c0-.22-.024-.434-.068-.639a1 1 0 01.766-1.189zM1 8.318a1 1 0 011 1v1.364a1 1 0 11-2 0V9.318a1 1 0 011-1zm18 0a1 1 0 011 1v1.364a1 1 0 11-2 0V9.318a1 1 0 011-1zm-18 5a1 1 0 011 1V15c0 .22.024.434.068.639a1 1 0 11-1.955.423A5.016 5.016 0 010 15v-.682a1 1 0 011-1zm18 0a1 1 0 011 1V15c0 .364-.039.719-.113 1.062a1 1 0 01-1.955-.423c.044-.205.068-.419.068-.639v-.682a1 1 0 011-1zm-15.828 5.38a1 1 0 011.189-.766c.205.044.419.068.639.068h.682a1 1 0 110 2H5c-.364 0-.719-.039-1.062-.113a1 1 0 01-.766-1.19zm13.656 0a1 1 0 01-.766 1.189A5.018 5.018 0 0115 20h-.682a1 1 0 110-2H15c.22 0 .434-.024.639-.068a1 1 0 011.189.766zM8.318 19a1 1 0 011-1h1.364a1 1 0 110 2H9.318a1 1 0 01-1-1z"/></svg>