<svg width="12" height="12" xmlns="http://www.w3.org/2000/svg">
<path fill-rule="evenodd" clip-rule="evenodd" d="M1.75 2.5C1.75 2.08579 2.08579 1.75 2.5 1.75H3L3 0.25L2.5 0.25C1.25736 0.25 0.25 1.25736 0.25 2.5L0.25 3L1.75 3V2.5ZM1.75 9.5C1.75 9.91421 2.08579 10.25 2.5 10.25H3V11.75H2.5C1.25736 11.75 0.25 10.7426 0.25 9.5L0.25 9H1.75L1.75 9.5ZM10.25 2.5C10.25 2.08579 9.91421 1.75 9.5 1.75L9 1.75V0.25L9.5 0.25C10.7426 0.25 11.75 1.25736 11.75 2.5V3L10.25 3V2.5ZM9.5 10.25C9.91421 10.25 10.25 9.91421 10.25 9.5V9H11.75V9.5C11.75 10.7426 10.7426 11.75 9.5 11.75H9V10.25H9.5ZM7.5 1.75L4.5 1.75V0.25L7.5 0.25V1.75ZM10.25 4.5L10.25 7.5H11.75L11.75 4.5H10.25ZM7.5 11.75L4.5 11.75V10.25L7.5 10.25V11.75ZM0.25 4.5L0.25 7.5H1.75L1.75 4.5H0.25Z" />
</svg>

