<svg width="40" height="40" viewBox="0 0 40 40" fill="none" xmlns="http://www.w3.org/2000/svg">
<g clip-path="url(#clip0_10377_161809)">
<path d="M8.00002 33H5.08002C4.8148 33 4.56045 33.1054 4.37291 33.2929C4.18537 33.4804 4.08002 33.7348 4.08002 34C4.08002 34.2652 4.18537 34.5196 4.37291 34.7071C4.56045 34.8946 4.8148 35 5.08002 35H8.00002C8.26523 35 8.51959 34.8946 8.70712 34.7071C8.89466 34.5196 9.00002 34.2652 9.00002 34C9.00002 33.7348 8.89466 33.4804 8.70712 33.2929C8.51959 33.1054 8.26523 33 8.00002 33Z" fill="#6937D9"/>
<path d="M2.00001 30V29.55C2.00001 29.2848 1.89465 29.0305 1.70712 28.8429C1.51958 28.6554 1.26523 28.55 1.00001 28.55C0.734793 28.55 0.480439 28.6554 0.292903 28.8429C0.105366 29.0305 9.46695e-06 29.2848 9.46695e-06 29.55V30C-0.00201138 31.0388 0.319546 32.0524 0.920009 32.9001C1.01301 33.0307 1.13605 33.137 1.27876 33.2101C1.42147 33.2832 1.57967 33.3209 1.74001 33.32C1.94842 33.3187 2.1512 33.2523 2.32001 33.1301C2.53401 32.9756 2.67828 32.7428 2.72136 32.4824C2.76445 32.2221 2.70285 31.9552 2.55001 31.74C2.19044 31.2312 1.99821 30.6231 2.00001 30Z" fill="#6937D9"/>
<path d="M1 26.66C1.26522 26.66 1.51957 26.5546 1.70711 26.3671C1.89464 26.1796 2 25.9252 2 25.66V22.74C2 22.4748 1.89464 22.2204 1.70711 22.0329C1.51957 21.8453 1.26522 21.74 1 21.74C0.734784 21.74 0.48043 21.8453 0.292893 22.0329C0.105357 22.2204 0 22.4748 0 22.74L0 25.66C0 25.9252 0.105357 26.1796 0.292893 26.3671C0.48043 26.5546 0.734784 26.66 1 26.66Z" fill="#6937D9"/>
<path d="M1 13.05C1.26522 13.05 1.51957 12.9446 1.70711 12.7571C1.89464 12.5695 2 12.3152 2 12.05V11C1.99972 10.5312 2.10931 10.0688 2.32 9.64998C2.38029 9.53255 2.41674 9.40435 2.42724 9.27277C2.43774 9.14119 2.42209 9.00883 2.38119 8.88333C2.34028 8.75783 2.27494 8.64167 2.18892 8.54155C2.1029 8.44142 1.99791 8.35932 1.88 8.29998C1.64383 8.18137 1.37031 8.16106 1.11922 8.24351C0.868129 8.32596 0.659885 8.50445 0.54 8.73998C0.187814 9.44147 0.00297958 10.215 0 11L0 12.05C0 12.3152 0.105357 12.5695 0.292893 12.7571C0.48043 12.9446 0.734784 13.05 1 13.05Z" fill="#6937D9"/>
<path d="M1 19.8499C1.26522 19.8499 1.51957 19.7446 1.70711 19.557C1.89464 19.3695 2 19.1152 2 18.8499V15.9399C2 15.6747 1.89464 15.4204 1.70711 15.2328C1.51957 15.0453 1.26522 14.9399 1 14.9399C0.734784 14.9399 0.48043 15.0453 0.292893 15.2328C0.105357 15.4204 0 15.6747 0 15.9399L0 18.8499C0 19.1152 0.105357 19.3695 0.292893 19.557C0.48043 19.7446 0.734784 19.8499 1 19.8499Z" fill="#6937D9"/>
<path d="M14.8 33H11.88C11.6148 33 11.3604 33.1054 11.1729 33.2929C10.9854 33.4804 10.88 33.7348 10.88 34C10.88 34.2652 10.9854 34.5196 11.1729 34.7071C11.3604 34.8946 11.6148 35 11.88 35H14.8C15.0652 35 15.3196 34.8946 15.5071 34.7071C15.6946 34.5196 15.8 34.2652 15.8 34C15.8 33.7348 15.6946 33.4804 15.5071 33.2929C15.3196 33.1054 15.0652 33 14.8 33Z" fill="#6937D9"/>
<path d="M20.75 34.36C20.4558 33.9519 20.2451 33.4897 20.13 33H18.69C18.4248 33 18.1704 33.1054 17.9829 33.2929C17.7954 33.4804 17.69 33.7348 17.69 34C17.69 34.2652 17.7954 34.5196 17.9829 34.7071C18.1704 34.8946 18.4248 35 18.69 35H21.2L20.75 34.36Z" fill="#6937D9"/>
<path d="M15 13C17.2091 13 19 11.2091 19 9C19 6.79086 17.2091 5 15 5C12.7909 5 11 6.79086 11 9C11 11.2091 12.7909 13 15 13Z" fill="#6937D9"/>
<path d="M20 28C20 27.2044 20.316 26.4413 20.8787 25.8787C21.4413 25.3161 22.2043 25 23 25V23C23.0004 22.351 23.2114 21.7197 23.6011 21.2007C23.9908 20.6818 24.5383 20.3032 25.1614 20.1218C25.7845 19.9403 26.4496 19.9659 27.057 20.1946C27.6644 20.4232 28.1812 20.8427 28.53 21.39C28.9771 21.1329 29.4842 20.9983 30 21C30.5045 21.0002 31.0009 21.1277 31.4431 21.3707C31.8854 21.6137 32.2592 21.9642 32.53 22.39C32.9771 22.1329 33.4842 21.9983 34 22C34.3416 22.0071 34.6796 22.0713 35 22.19V5C35 3.67392 34.4732 2.40215 33.5355 1.46447C32.5978 0.526784 31.3261 0 30 0L9.99997 0C8.67389 0 7.40212 0.526784 6.46444 1.46447C5.52676 2.40215 4.99997 3.67392 4.99997 5V6C4.79359 5.98476 4.58636 5.98476 4.37997 6C4.11475 6.01591 3.86672 6.13653 3.69044 6.33532C3.51415 6.53411 3.42406 6.79478 3.43997 7.06C3.45588 7.32522 3.5765 7.57325 3.77529 7.74953C3.97408 7.92582 4.23475 8.01591 4.49997 8H4.62997H4.99997V25C4.99997 26.3261 5.52676 27.5979 6.46444 28.5355C7.40212 29.4732 8.67389 30 9.99997 30H20V28ZM14.59 18.59L12.41 16.41C12.0352 16.0375 11.5283 15.8284 11 15.8284C10.4716 15.8284 9.9647 16.0375 9.58997 16.41L6.99997 19V5C6.99997 4.20435 7.31604 3.44129 7.87865 2.87868C8.44126 2.31607 9.20432 2 9.99997 2H30C30.7956 2 31.5587 2.31607 32.1213 2.87868C32.6839 3.44129 33 4.20435 33 5V15L28.41 10.41C28.0352 10.0375 27.5283 9.82841 27 9.82841C26.4716 9.82841 25.9647 10.0375 25.59 10.41L17.41 18.59C17.0352 18.9625 16.5283 19.1716 16 19.1716C15.4716 19.1716 14.9647 18.9625 14.59 18.59Z" fill="#6937D9"/>
<path d="M38 24C37.4696 24 36.9609 24.2107 36.5858 24.5858C36.2107 24.9609 36 25.4696 36 26V25C36 24.4696 35.7893 23.9609 35.4142 23.5858C35.0391 23.2107 34.5304 23 34 23C33.4696 23 32.9609 23.2107 32.5858 23.5858C32.2107 23.9609 32 24.4696 32 25V24C32 23.4696 31.7893 22.9609 31.4142 22.5858C31.0391 22.2107 30.5304 22 30 22C29.4696 22 28.9609 22.2107 28.5858 22.5858C28.2107 22.9609 28 23.4696 28 24V23C28 22.4696 27.7893 21.9609 27.4142 21.5858C27.0391 21.2107 26.5304 21 26 21C25.4696 21 24.9609 21.2107 24.5858 21.5858C24.2107 21.9609 24 22.4696 24 23V31C24 31.1326 23.9473 31.2598 23.8536 31.3536C23.7598 31.4473 23.6326 31.5 23.5 31.5C23.3674 31.5 23.2402 31.4473 23.1464 31.3536C23.0527 31.2598 23 31.1326 23 31V26C22.4696 26 21.9609 26.2107 21.5858 26.5858C21.2107 26.9609 21 27.4696 21 28V32C21.0011 32.6241 21.1969 33.2324 21.56 33.74L25.1 38.74C25.377 39.1291 25.743 39.4464 26.1674 39.6656C26.5918 39.8847 27.0624 39.9994 27.54 40H35.54C36.0057 40 36.4651 39.8916 36.8816 39.6833C37.2982 39.475 37.6606 39.1726 37.94 38.8L38.04 38.67C39.3382 36.939 40.04 34.8337 40.04 32.67V26C40.0401 25.734 39.987 25.4706 39.884 25.2253C39.781 24.98 39.6301 24.7577 39.4401 24.5715C39.2502 24.3852 39.0249 24.2387 38.7777 24.1406C38.5304 24.0425 38.266 23.9947 38 24Z" fill="#EA3BA7"/>
</g>
<defs>
<clipPath id="clip0_10377_161809">
<rect width="40" height="40" fill="white"/>
</clipPath>
</defs>
</svg>
