<svg width="12" height="12" viewBox="0 0 12 12" xmlns="http://www.w3.org/2000/svg">
<path fill-rule="evenodd" clip-rule="evenodd" d="M3 2C1.34315 2 0 3.34315 0 5C0 6.65685 1.34315 8 3 8H5V5.65754C5 4.50815 6.42064 3.96802 7.18426 4.82709L9.88633 7.86692C11.1105 7.48888 12 6.34832 12 5C12 3.34315 10.6569 2 9 2H3Z" />
<path opacity="0.5" fill-rule="evenodd" clip-rule="evenodd" d="M6 5.65755V10.3964C6 10.6192 6.26929 10.7307 6.42678 10.5732L7.24161 9.75839L7.92956 11.6694C8.02309 11.9292 8.30954 12.064 8.56936 11.9704C8.82918 11.8769 8.96398 11.5905 8.87044 11.3306L8.21141 9.5H9.44329C9.659 9.5 9.77345 9.24513 9.63014 9.08391L6.43685 5.49145C6.28413 5.31964 6 5.42767 6 5.65755Z" />
</svg>
