<svg width="24" height="18" viewBox="0 0 24 18" fill="none" xmlns="http://www.w3.org/2000/svg">
<path d="M24 5.68369C24 7.12329 23.4549 8.46575 22.5897 9.44458L15.4632 16.5504C14.578 17.4496 13.3628 18 12.01 18H12.0075C10.6547 18 9.41946 17.4446 8.53428 16.5455L8.03917 16.0598L10.4572 13.6563L10.9698 14.1644C11.2298 14.4359 11.5899 14.6052 11.9975 14.6077C12.4026 14.6052 12.7827 14.4533 13.0402 14.1793L19.8791 7.37733C20.2567 6.95392 20.4543 6.43836 20.4543 5.86052C20.4593 4.58032 19.434 3.55168 18.1488 3.5467C17.5612 3.5467 17.0486 3.74595 16.6185 4.12453L6.32882 14.3587L1.40529 9.4396C0.542613 8.46077 0 7.1208 0 5.68369C0 2.54296 2.56553 0.00249066 5.72119 0.00249066C7.23401 0.00249066 8.6193 0.570361 9.63701 1.52677L10.3372 2.22416L7.90915 4.6401C7.90915 4.6401 7.51907 4.24159 7.38404 4.11955C6.95645 3.74346 6.44384 3.54919 5.86122 3.5467C4.57595 3.5467 3.54324 4.56538 3.54074 5.84309C3.54074 6.4259 3.73828 6.94645 4.11836 7.37484L6.31382 9.55666L13.9829 1.93773C15.0306 0.752179 16.5685 0 18.2813 0C21.4395 0 24 2.54296 24 5.68369Z" fill="#00AAFF"/>
</svg>
