<svg width="16" height="16" viewBox="0 0 16 16" xmlns="http://www.w3.org/2000/svg">
<path d="M16 5.78912C16 6.74886 15.6366 7.64384 15.0598 8.29639L10.3088 13.0336C9.71869 13.633 8.90852 14 8.00667 14H8.005C7.10315 14 6.27964 13.6297 5.68952 13.0303L5.35945 12.7065L6.97145 11.1042L7.31319 11.4429C7.48656 11.6239 7.72661 11.7368 7.99833 11.7385C8.26839 11.7368 8.52178 11.6355 8.69348 11.4529L13.2528 6.91822C13.5045 6.63595 13.6362 6.29224 13.6362 5.90701C13.6395 5.05355 12.956 4.36779 12.0992 4.36447C11.7074 4.36447 11.3657 4.4973 11.079 4.74969L4.21921 11.5724L0.936862 8.29307C0.361742 7.64051 0 6.7472 0 5.78912C0 3.69531 1.71036 2.00166 3.81413 2.00166C4.82267 2.00166 5.7462 2.38024 6.42467 3.01785L6.89144 3.48277L5.27277 5.0934C5.27277 5.0934 5.01271 4.82773 4.92269 4.74637C4.63763 4.49564 4.29589 4.36613 3.90748 4.36447C3.05064 4.36447 2.36216 5.04359 2.36049 5.89539C2.36049 6.28394 2.49219 6.63097 2.74557 6.91656L4.20921 8.37111L9.32194 3.29182C10.0204 2.50145 11.0456 2 12.1875 2C14.293 2 16 3.69531 16 5.78912Z" />
</svg>
