<svg width="16" height="16" viewBox="0 0 16 16" xmlns="http://www.w3.org/2000/svg">
<path opacity="0.5" fill-rule="evenodd" clip-rule="evenodd" d="M4.53552 12.9458L7.31522 11H11C12.6569 11 14 9.65685 14 8V3C15.1046 3 16 3.89543 16 5V11C16 12.1046 15.1046 13 14 13V15.3476C14 15.833 13.4536 16.1175 13.0559 15.8391L9 13H5C4.84009 13 4.68458 12.9812 4.53552 12.9458Z" />
<path d="M2 0C0.895431 0 0 0.89543 0 2V8C0 9.10457 0.89543 10 2 10L2 12.3476C2 12.833 2.54641 13.1175 2.94408 12.8391L7 10H11C12.1046 10 13 9.10457 13 8V2C13 0.895431 12.1046 0 11 0H2Z" />
</svg>
