<svg width="20" height="20" viewBox="0 0 20 20" xmlns="http://www.w3.org/2000/svg">
<path opacity="0.5" fill-rule="evenodd" clip-rule="evenodd" d="M6.96204 16H11L15.7698 19.9749C16.2583 20.382 17 20.0346 17 19.3987V16C18.6568 16 20 14.6569 20 13V6.00001C20 4.69379 19.1652 3.58255 18 3.17072V10C18 12.2091 16.2091 14 14 14H9.36204L6.96204 16Z"/>
<path d="M0 10V3C0 1.34315 1.34315 0 3 0H14C15.6569 0 17 1.34315 17 3V10C17 11.6569 15.6569 13 14 13H9L4.23014 16.9749C3.74164 17.382 3 17.0346 3 16.3987V13C1.34315 13 0 11.6569 0 10Z"/>
</svg>
