<svg width="12" height="12" viewBox="0 0 12 12" xmlns="http://www.w3.org/2000/svg">
<path opacity="0.5" fill-rule="evenodd" clip-rule="evenodd" d="M3.40165 9.70934L5.48642 8.25H8.25C9.49264 8.25 10.5 7.24264 10.5 6V2.25C11.3284 2.25 12 2.92157 12 3.75V8.25C12 9.07843 11.3284 9.75 10.5 9.75V11.5107C10.5 11.8748 10.0902 12.0881 9.79194 11.8794L6.75 9.75H3.75C3.63007 9.75 3.51344 9.73593 3.40165 9.70934Z" />
<path d="M1.5 0C0.671573 0 0 0.671573 0 1.5V6C0 6.82843 0.671573 7.5 1.5 7.5L1.5 9.2607C1.5 9.62477 1.90981 9.83813 2.20806 9.62936L5.25 7.5H8.25C9.07843 7.5 9.75 6.82843 9.75 6V1.5C9.75 0.671573 9.07843 0 8.25 0H1.5Z" />
</svg>
