<svg width="16" height="16" viewBox="0 0 16 16" xmlns="http://www.w3.org/2000/svg">
<path fill-rule="evenodd" clip-rule="evenodd" d="M8 14C11.3137 14 14 11.3137 14 8C14 4.68629 11.3137 2 8 2C4.68629 2 2 4.68629 2 8C2 11.3137 4.68629 14 8 14ZM8 16C12.4183 16 16 12.4183 16 8C16 3.58172 12.4183 0 8 0C3.58172 0 0 3.58172 0 8C0 12.4183 3.58172 16 8 16Z"/>
<path opacity="0.5" fill-rule="evenodd" clip-rule="evenodd" d="M8 4.5C8.55228 4.5 9 4.94772 9 5.5V7.58579L11.2071 9.79289C11.5976 10.1834 11.5976 10.8166 11.2071 11.2071C10.8166 11.5976 10.1834 11.5976 9.79289 11.2071L7.29289 8.70711C7.10536 8.51957 7 8.26522 7 8V5.5C7 4.94772 7.44772 4.5 8 4.5Z"/>
</svg>
