<svg width="40" height="40" viewBox="0 0 40 40" xmlns="http://www.w3.org/2000/svg">
<path fill-rule="evenodd" clip-rule="evenodd" d="M15 6C18.1035 6 20.8401 7.57088 22.4581 9.96089C23.4971 9.35021 24.7077 9 26 9C29.866 9 33 12.134 33 16L32.9997 16.0619C36.9462 16.5538 40 19.9203 40 24C40 28.4183 36.4183 32 32 32H9C4.02944 32 0 27.9706 0 23C0 19.0764 2.51075 15.7392 6.01325 14.5074C6.26898 9.76595 10.1947 6 15 6ZM25.7071 17.7071C26.0976 17.3166 26.0976 16.6834 25.7071 16.2929C25.3166 15.9024 24.6834 15.9024 24.2929 16.2929L17 23.5858L13.7071 20.2929C13.3166 19.9024 12.6834 19.9024 12.2929 20.2929C11.9024 20.6834 11.9024 21.3166 12.2929 21.7071L16.2929 25.7071C16.6834 26.0976 17.3166 26.0976 17.7071 25.7071L25.7071 17.7071Z"/>
</svg>
