<svg width="12" height="12" viewBox="0 0 12 12" xmlns="http://www.w3.org/2000/svg">
<path fill-rule="evenodd" clip-rule="evenodd" d="M3.09 7.33224L2.20185 6.00001L3.83205 3.55471C4.1384 3.09519 4.01423 2.47432 3.5547 2.16796C3.09517 1.86161 2.4743 1.98579 2.16795 2.44531L0.16795 5.44531C-0.0559832 5.78121 -0.0559832 6.21882 0.16795 6.55471L2.16795 9.55472C2.24757 9.67415 2.34845 9.77093 2.46221 9.84339L3.09 7.33224ZM8.91 4.66778L9.79815 6.00002L8.16795 8.44532C7.8616 8.90484 7.98577 9.52571 8.4453 9.83207C8.90483 10.1384 9.5257 10.0142 9.83205 9.55472L11.8321 6.55472C12.056 6.21882 12.056 5.78121 11.8321 5.44532L9.83205 2.44532C9.75242 2.32588 9.65155 2.22909 9.53778 2.15663L8.91 4.66778Z"/>
<path d="M5 10L7 2" stroke="currentColor" stroke-width="2" stroke-linecap="round"/>
</svg>
