<svg width="16" height="16" xmlns="http://www.w3.org/2000/svg"><path fill-rule="evenodd" clip-rule="evenodd" d="M15.694 4.99a.686.686 0 01.306.573v4.874a.69.69 0 01-.306.572l-7.312 4.875a.681.681 0 01-.764 0L.306 11.01A.697.697 0 010 10.437V5.563c0-.226.118-.447.306-.572L7.618.116a.69.69 0 01.764 0l7.312 4.875zm-8.381.19V1.971L1.926 5.563l2.406 1.61 2.98-1.994zM8 9.626L5.569 8 8 6.373 10.432 8 8 9.627zM12.906 8l1.719 1.15v-2.3L12.905 8zm-4.219 2.821v3.206l5.388-3.59-2.406-1.61-2.982 1.994zm-6.761-.385l5.387 3.591v-3.206L4.332 8.827l-2.406 1.61zm-.55-3.586L3.095 8l-1.72 1.15v-2.3zm7.311-4.878l5.388 3.591-2.406 1.61L8.687 5.18V1.972z"/></svg>