<svg width="16" height="16" viewBox="0 0 16 16" xmlns="http://www.w3.org/2000/svg">
<path fill-rule="evenodd" clip-rule="evenodd" d="M8.55861 0C8.81077 0 9.02347 0.187768 9.05475 0.437983L9.22272 1.78173C9.24908 1.99268 9.40657 2.16188 9.61138 2.21885C10.0829 2.34999 10.531 2.53726 10.9481 2.77301C11.1331 2.87761 11.3641 2.8693 11.5319 2.73879L12.6013 1.90702C12.8004 1.75221 13.0836 1.76984 13.2619 1.94814L14.0519 2.73813C14.2302 2.91644 14.2478 3.19961 14.093 3.39866L13.2612 4.46808C13.1307 4.63587 13.1224 4.86685 13.227 5.05191C13.4627 5.469 13.65 5.91712 13.7812 6.38862C13.8381 6.59343 14.0073 6.75092 14.2183 6.77728L15.562 6.94525C15.8122 6.97653 16 7.18923 16 7.44139V8.55861C16 8.81077 15.8122 9.02347 15.562 9.05475L14.2183 9.22272C14.0073 9.24908 13.8381 9.40657 13.7812 9.61138C13.65 10.0829 13.4627 10.531 13.227 10.9481C13.1224 11.1331 13.1307 11.3641 13.2612 11.5319L14.093 12.6013C14.2478 12.8004 14.2302 13.0836 14.0519 13.2619L13.2619 14.0519C13.0836 14.2302 12.8004 14.2478 12.6013 14.093L11.5319 13.2612C11.3641 13.1307 11.1332 13.1224 10.9481 13.227C10.531 13.4627 10.0829 13.65 9.61138 13.7812C9.40657 13.8381 9.24908 14.0073 9.22272 14.2183L9.05475 15.562C9.02347 15.8122 8.81077 16 8.55861 16H7.44139C7.18923 16 6.97653 15.8122 6.94525 15.562L6.77728 14.2183C6.75092 14.0073 6.59343 13.8381 6.38862 13.7812C5.91712 13.65 5.469 13.4627 5.0519 13.227C4.86685 13.1224 4.63587 13.1307 4.46807 13.2612L3.39867 14.093C3.19963 14.2478 2.91645 14.2301 2.73815 14.0518L1.94815 13.2619C1.76985 13.0835 1.75222 12.8004 1.90703 12.6013L2.73879 11.5319C2.8693 11.3641 2.87761 11.1332 2.77301 10.9481C2.53726 10.531 2.34999 10.0829 2.21885 9.61138C2.16188 9.40657 1.99268 9.24908 1.78173 9.22272L0.437983 9.05475C0.187768 9.02347 0 8.81077 0 8.55861V7.44139C0 7.18923 0.187768 6.97653 0.437983 6.94525L1.78173 6.77728C1.99268 6.75091 2.16188 6.59343 2.21885 6.38862C2.34999 5.91712 2.53726 5.469 2.77301 5.0519C2.87761 4.86685 2.8693 4.63587 2.73879 4.46807L1.90704 3.39867C1.75222 3.19963 1.76985 2.91645 1.94816 2.73815L2.73815 1.94815C2.91646 1.76985 3.19963 1.75222 3.39867 1.90703L4.46808 2.73879C4.63587 2.8693 4.86685 2.87761 5.05191 2.77301C5.469 2.53726 5.91712 2.34999 6.38862 2.21885C6.59343 2.16188 6.75092 1.99268 6.77728 1.78173L6.94525 0.437983C6.97653 0.187768 7.18923 0 7.44139 0H8.55861ZM8 11C9.65685 11 11 9.65685 11 8C11 6.34315 9.65685 5 8 5C6.34315 5 5 6.34315 5 8C5 9.65685 6.34315 11 8 11Z"/>
</svg>
