<svg width="12" height="12" viewBox="0 0 12 12" xmlns="http://www.w3.org/2000/svg">
<g clip-path="url(#clip0)">
<path fill-rule="evenodd" clip-rule="evenodd" d="M5.70711 2.70711C6.09763 2.31658 6.09763 1.68342 5.70711 1.29289C5.31658 0.902369 4.68342 0.902369 4.29289 1.29289L0.292893 5.29289C-0.0976311 5.68342 -0.0976311 6.31658 0.292893 6.70711L4.29289 10.7071C4.68342 11.0976 5.31658 11.0976 5.70711 10.7071C6.09763 10.3166 6.09763 9.68342 5.70711 9.29289L2.41421 6L5.70711 2.70711ZM10.7071 2.70711C11.0976 2.31658 11.0976 1.68342 10.7071 1.29289C10.3166 0.902369 9.68342 0.902369 9.29289 1.29289L5.29289 5.29289C4.90237 5.68342 4.90237 6.31658 5.29289 6.70711L9.29289 10.7071C9.68342 11.0976 10.3166 11.0976 10.7071 10.7071C11.0976 10.3166 11.0976 9.68342 10.7071 9.29289L7.41421 6L10.7071 2.70711Z"/>
</g>
<defs>
<clipPath id="clip0">
<rect width="12" height="12"/>
</clipPath>
</defs>
</svg>
