<svg width="12" height="12" viewBox="0 0 12 12" xmlns="http://www.w3.org/2000/svg">
<path fill-rule="evenodd" clip-rule="evenodd" d="M3 0C1.34315 0 0 1.34315 0 3V9C0 10.6569 1.34315 12 3 12H9C10.6569 12 12 10.6569 12 9V3C12 1.34315 10.6569 0 9 0H3ZM1.75 3.75C1.75 2.64543 2.64543 1.75 3.75 1.75C4.85457 1.75 5.75 2.64543 5.75 3.75V8.25C5.75 9.35457 4.85457 10.25 3.75 10.25C2.64543 10.25 1.75 9.35457 1.75 8.25V3.75ZM3.75 3.25C3.47386 3.25 3.25 3.47386 3.25 3.75V8.25C3.25 8.52614 3.47386 8.75 3.75 8.75C4.02614 8.75 4.25 8.52614 4.25 8.25V3.75C4.25 3.47386 4.02614 3.25 3.75 3.25ZM9.86358 2.09402C10.102 2.22619 10.25 2.47736 10.25 2.75V9.25C10.25 9.66421 9.91421 10 9.5 10C9.08579 10 8.75 9.66421 8.75 9.25V4.10319L7.8975 4.636C7.54625 4.85553 7.08353 4.74875 6.864 4.3975C6.64447 4.04625 6.75125 3.58353 7.1025 3.364L9.1025 2.114C9.3337 1.9695 9.62511 1.96185 9.86358 2.09402Z" />
</svg>
