<svg width="12" height="12" viewBox="0 0 12 12" xmlns="http://www.w3.org/2000/svg">
<path opacity="0.5" d="M6 10L6 5L10 3.5V8.5L6 10Z" />
<path fill-rule="evenodd" clip-rule="evenodd" d="M6.70225 0.127342C6.24948 -0.0424472 5.75052 -0.0424472 5.29775 0.127342L1.29775 1.62734C0.517146 1.92007 0 2.66631 0 3.5L0 8.5C0 9.33369 0.517146 10.0799 1.29775 10.3727L5.29775 11.8727C5.75052 12.0424 6.24948 12.0424 6.70225 11.8727L10.7022 10.3727C11.4829 10.0799 12 9.33369 12 8.5L12 3.5C12 2.66631 11.4829 1.92007 10.7022 1.62734L6.70225 0.127342ZM2 3.5L6 2L10 3.5L10 8.5L6 10L6 5L2 3.5Z" />
</svg>

