<svg width="40" height="40" viewBox="0 0 40 40" xmlns="http://www.w3.org/2000/svg">
<path opacity="0.5" d="M20 18L38 10V30L20 38V18Z"/>
<path fill-rule="evenodd" clip-rule="evenodd" d="M22.0307 1.80822C20.7379 1.23363 19.2621 1.23363 17.9693 1.80822L3.96931 8.03044C2.16367 8.83294 1 10.6236 1 12.5995V27.4005C1 29.3765 2.16367 31.1671 3.96931 31.9696L17.9693 38.1918C19.2621 38.7664 20.7379 38.7664 22.0307 38.1918L36.0307 31.9696C37.8363 31.1671 39 29.3765 39 27.4005V12.5995C39 10.6236 37.8363 8.83294 36.0307 8.03044L22.0307 1.80822ZM18.7816 3.63584C19.5573 3.29109 20.4427 3.29109 21.2184 3.63584L35.2184 9.85806C36.3018 10.3396 37 11.4139 37 12.5995V27.4005C37 28.5861 36.3018 29.6604 35.2184 30.1419L21.2184 36.3642C20.8306 36.5365 20.4153 36.6227 20 36.6227V18L3.65077 10.7337C3.94578 10.3621 4.33026 10.0587 4.78158 9.85806L18.7816 3.63584Z"/>
</svg>
