<svg width="20" height="20" viewBox="0 0 20 20" xmlns="http://www.w3.org/2000/svg">
<path opacity="0.5" d="M10 9L19 5V15L10 19V9Z"/>
<path fill-rule="evenodd" clip-rule="evenodd" d="M11.6246 0.354792C10.5903 -0.118265 9.40971 -0.118264 8.37544 0.354793L1.78158 3.37073C0.6982 3.86626 0 4.97191 0 6.192V13.808C0 15.0281 0.698203 16.1337 1.78159 16.6293L8.37545 19.6452C9.40971 20.1183 10.5903 20.1183 11.6246 19.6452L18.2184 16.6293C19.3018 16.1337 20 15.0281 20 13.808V6.192C20 4.97191 19.3018 3.86626 18.2184 3.37073L11.6246 0.354792ZM9.18772 2.23563C9.70485 1.99911 10.2951 1.99911 10.8123 2.23563L17.4061 5.25158C17.7673 5.41675 18 5.7853 18 6.192V13.808C18 14.2147 17.7673 14.5832 17.4061 14.7484L10.8123 17.7644C10.5537 17.8826 10.2769 17.9418 10 17.9418V9L2.22335 5.54371C2.32081 5.42001 2.44667 5.3189 2.59386 5.25158L9.18772 2.23563Z"/>
</svg>
