<svg width="16" height="16" viewBox="0 0 16 16" xmlns="http://www.w3.org/2000/svg">
<path opacity="0.5" d="M8 7.14286L15 4V11.8571L8 15V7.14286Z"/>
<path fill-rule="evenodd" clip-rule="evenodd" d="M8.81228 0.174433C8.29515 -0.058145 7.70485 -0.058144 7.18772 0.174434L1.18772 2.87291C0.465466 3.19775 0 3.92254 0 4.72234V11.2777C0 12.0775 0.465468 12.8023 1.18772 13.1271L7.18772 15.8256C7.70485 16.0581 8.29515 16.0581 8.81228 15.8256L14.8123 13.1271C15.5345 12.8023 16 12.0775 16 11.2777V4.72234C16 3.92253 15.5345 3.19775 14.8123 2.87291L8.81228 0.174433ZM8 2.02386L14 4.72234V11.2777L8 13.9761V7.14286L2.30417 4.58554L8 2.02386Z"/>
</svg>
