<svg width="20" height="20" viewBox="0 0 20 20" xmlns="http://www.w3.org/2000/svg">
<path fill-rule="evenodd" clip-rule="evenodd" d="M18 5.5C18 7.433 14.4183 9 10 9C5.58172 9 2 7.433 2 5.5V8.5C2 10.433 5.58172 12 10 12C14.4183 12 18 10.433 18 8.5V5.5ZM10 13C14.4183 13 18 11.433 18 9.5V12.5C18 14.433 14.4183 16 10 16C5.58172 16 2 14.433 2 12.5V9.5C2 11.433 5.58172 13 10 13ZM10 17C14.4183 17 18 15.433 18 13.5V16.5C18 18.433 14.4183 20 10 20C5.58172 20 2 18.433 2 16.5V13.5C2 15.433 5.58172 17 10 17Z"/>
<ellipse opacity="0.4" cx="10" cy="4.5" rx="8" ry="3.5"/>
</svg>
