<svg width="16" height="16" viewBox="0 0 16 16" xmlns="http://www.w3.org/2000/svg">
<g clip-path="url(#clip0_462:174)">
<path d="M13.534 2.9937C12.498 2.52442 11.4041 2.19068 10.28 2.00099C10.2699 1.9989 10.2593 2.00015 10.2499 2.00455C10.2406 2.00896 10.2329 2.01627 10.2282 2.02536C10.0791 2.29099 9.94383 2.56389 9.82288 2.84302C8.6116 2.66133 7.37934 2.66133 6.16807 2.84302C6.04662 2.56298 5.90903 2.28998 5.75598 2.02536C5.75126 2.01627 5.74363 2.00896 5.73427 2.00455C5.72491 2.00015 5.71434 1.9989 5.70419 2.00099C4.58027 2.19124 3.48639 2.52497 2.45022 2.9937C2.44543 2.99497 2.44095 2.9972 2.43708 3.00025C2.4332 3.0033 2.43001 3.00711 2.4277 3.01143C0.355968 6.05826 -0.211506 9.02976 0.0654755 11.9658C0.0678857 11.9807 0.0759291 11.9942 0.0879943 12.0035C1.29393 12.8855 2.64318 13.5598 4.07833 13.9978C4.08843 14.0008 4.09924 14.0007 4.1093 13.9976C4.11936 13.9944 4.1282 13.9883 4.13462 13.98C4.44483 13.5647 4.71903 13.1244 4.95431 12.6638C4.95763 12.6576 4.95957 12.6508 4.95998 12.6439C4.9604 12.6369 4.95929 12.6299 4.95673 12.6234C4.95417 12.6169 4.95021 12.611 4.94513 12.6061C4.94005 12.6012 4.93397 12.5975 4.92729 12.5951C4.4969 12.4317 4.07984 12.2361 3.67974 12.0101C3.67278 12.0054 3.66708 11.9992 3.66314 11.9918C3.6592 11.9845 3.65714 11.9763 3.65714 11.968C3.65714 11.9597 3.6592 11.9515 3.66314 11.9442C3.66708 11.9369 3.67278 11.9306 3.67974 11.9259L3.92745 11.7353C3.93503 11.7301 3.94408 11.7273 3.95335 11.7273C3.96262 11.7273 3.97166 11.7301 3.97924 11.7353C5.23638 12.3158 6.60797 12.6166 7.9966 12.6166C9.38523 12.6166 10.7568 12.3158 12.014 11.7353C12.0217 11.7304 12.0307 11.7277 12.0399 11.7277C12.0491 11.7277 12.0581 11.7304 12.0657 11.7353C12.1468 11.8018 12.2301 11.8661 12.3135 11.9281C12.3204 11.9328 12.3261 11.9391 12.3301 11.9464C12.334 11.9538 12.3361 11.9619 12.3361 11.9702C12.3361 11.9785 12.334 11.9867 12.3301 11.994C12.3261 12.0014 12.3204 12.0077 12.3135 12.0123C11.9149 12.2407 11.4976 12.4356 11.0659 12.5951C11.0594 12.598 11.0535 12.6021 11.0486 12.6072C11.0437 12.6124 11.0398 12.6184 11.0373 12.625C11.0348 12.6316 11.0337 12.6386 11.0339 12.6457C11.0342 12.6527 11.0359 12.6596 11.0389 12.666C11.2794 13.1204 11.5526 13.5573 11.8563 13.9734C11.8628 13.9816 11.8716 13.9878 11.8816 13.9909C11.8917 13.9941 11.9025 13.9942 11.9126 13.9911C13.3505 13.5549 14.7023 12.8804 15.9097 11.9968C15.916 11.9927 15.9212 11.9871 15.9247 11.9805C15.9283 11.974 15.9301 11.9666 15.93 11.9592C16.2598 8.79402 15.417 5.61813 13.5565 3.01586C13.5547 3.01071 13.5518 3.00604 13.5479 3.0022C13.544 2.99836 13.5392 2.99545 13.534 2.9937ZM5.34388 10.1798C4.55573 10.1798 3.90718 9.46629 3.90718 8.59323C3.90718 7.72017 4.54221 7.00444 5.34388 7.00444C6.14555 7.00444 6.79184 7.72239 6.78058 8.59101C6.76932 9.45964 6.1433 10.1798 5.34388 10.1798ZM10.6561 10.1798C9.86791 10.1798 9.21937 9.46629 9.21937 8.59323C9.21937 7.72017 9.8544 7.00444 10.6561 7.00444C11.4577 7.00444 12.104 7.72239 12.0928 8.59101C12.0815 9.45964 11.4622 10.1798 10.6561 10.1798Z" />
</g>
<defs>
<clipPath id="clip0_462:174">
<rect width="16" height="16" fill="white"/>
</clipPath>
</defs>
</svg>
