<svg width="40" height="40" viewBox="0 0 40 40" xmlns="http://www.w3.org/2000/svg">
<path opacity="0.5" fill-rule="evenodd" clip-rule="evenodd" d="M18.7071 17.2929C19.0976 17.6834 19.0976 18.3166 18.7071 18.7071L14.7071 22.7071C14.3166 23.0976 13.6834 23.0976 13.2929 22.7071C12.9024 22.3166 12.9024 21.6834 13.2929 21.2929L17.2929 17.2929C17.6834 16.9024 18.3166 16.9024 18.7071 17.2929Z"/>
<path opacity="0.5" fill-rule="evenodd" clip-rule="evenodd" d="M22.7071 21.2929C23.0976 21.6834 23.0976 22.3166 22.7071 22.7071L18.7071 26.7071C18.3166 27.0976 17.6834 27.0976 17.2929 26.7071C16.9024 26.3166 16.9024 25.6834 17.2929 25.2929L21.2929 21.2929C21.6834 20.9024 22.3166 20.9024 22.7071 21.2929Z"/>
<path fill-rule="evenodd" clip-rule="evenodd" d="M16.5 32.5L20.2929 28.7071C20.6834 28.3166 20.6834 27.6834 20.2929 27.2929L12.7071 19.7071C12.3166 19.3166 11.6834 19.3166 11.2929 19.7071L7.5 23.5C5.38007 25.6199 5.06843 28.8634 6.56506 31.3136L0.93934 36.9393C0.353553 37.5251 0.353553 38.4749 0.93934 39.0607C1.52513 39.6464 2.47487 39.6464 3.06066 39.0607L8.68638 33.4349C11.1366 34.9316 14.3801 34.6199 16.5 32.5Z"/>
<path fill-rule="evenodd" clip-rule="evenodd" d="M33.4349 8.68638C34.9316 11.1366 34.6199 14.3801 32.5 16.5L28.7071 20.2929C28.3166 20.6834 27.6834 20.6834 27.2929 20.2929L19.7071 12.7071C19.3166 12.3166 19.3166 11.6834 19.7071 11.2929L23.5 7.5C25.6199 5.38008 28.8634 5.06843 31.3136 6.56506L36.9393 0.939339C37.5251 0.353554 38.4749 0.353554 39.0607 0.93934C39.6465 1.52513 39.6465 2.47487 39.0607 3.06066L33.4349 8.68638Z"/>
<path opacity="0.3" fill-rule="evenodd" clip-rule="evenodd" d="M15.7149 4.0078C16.2484 3.86486 16.7967 4.18144 16.9397 4.71491L18.0377 8.81299C18.1807 9.34645 17.8641 9.89479 17.3306 10.0377C16.7972 10.1807 16.2488 9.86409 16.1059 9.33062L15.0078 5.23255C14.8649 4.69908 15.1814 4.15074 15.7149 4.0078ZM8.70711 7.2929C8.31659 6.90238 7.68342 6.90238 7.2929 7.2929C6.90238 7.68342 6.90238 8.31659 7.2929 8.70711L11.2929 12.7071C11.6834 13.0976 12.3166 13.0976 12.7071 12.7071C13.0976 12.3166 13.0976 11.6834 12.7071 11.2929L8.70711 7.2929ZM28.7071 27.2929C28.3166 26.9024 27.6834 26.9024 27.2929 27.2929C26.9024 27.6834 26.9024 28.3166 27.2929 28.7071L31.2929 32.7071C31.6834 33.0976 32.3166 33.0976 32.7071 32.7071C33.0976 32.3166 33.0976 31.6834 32.7071 31.2929L28.7071 27.2929ZM4.0078 15.7149C4.15074 15.1814 4.69908 14.8649 5.23255 15.0078L9.33062 16.1059C9.86409 16.2488 10.1807 16.7972 10.0377 17.3306C9.89479 17.8641 9.34645 18.1807 8.81299 18.0377L4.71491 16.9397C4.18144 16.7967 3.86486 16.2484 4.0078 15.7149ZM31.187 21.9623C30.6535 21.8193 30.1052 22.1359 29.9623 22.6694C29.8193 23.2029 30.1359 23.7512 30.6694 23.8941L34.7675 24.9922C35.3009 25.1352 35.8493 24.8186 35.9922 24.2851C36.1351 23.7516 35.8186 23.2033 35.2851 23.0604L31.187 21.9623ZM23.8941 30.6694C23.7512 30.1359 23.2028 29.8193 22.6694 29.9623C22.1359 30.1052 21.8193 30.6536 21.9623 31.187L23.0603 35.2851C23.2033 35.8186 23.7516 36.1352 24.2851 35.9922C24.8186 35.8493 25.1351 35.3009 24.9922 34.7675L23.8941 30.6694Z"/>
</svg>
