<svg width="40" height="40" viewBox="0 0 40 40" fill="none" xmlns="http://www.w3.org/2000/svg">
<path fill-rule="evenodd" clip-rule="evenodd" d="M8 0H22V9C22 11.2091 23.7909 13 26 13H35V37C35 38.6569 33.6569 40 32 40H8C6.34315 40 5 38.6569 5 37V3C5 1.34315 6.34315 0 8 0ZM10 19C10 18.4477 10.4477 18 11 18H29C29.5523 18 30 18.4477 30 19C30 19.5523 29.5523 20 29 20H11C10.4477 20 10 19.5523 10 19ZM10 23C10 22.4477 10.4477 22 11 22H29C29.5523 22 30 22.4477 30 23C30 23.5523 29.5523 24 29 24H11C10.4477 24 10 23.5523 10 23ZM11 26C10.4477 26 10 26.4477 10 27C10 27.5523 10.4477 28 11 28H29C29.5523 28 30 27.5523 30 27C30 26.4477 29.5523 26 29 26H11ZM10 31C10 30.4477 10.4477 30 11 30H21C21.5523 30 22 30.4477 22 31C22 31.5523 21.5523 32 21 32H11C10.4477 32 10 31.5523 10 31Z" />
<path opacity="0.5" d="M23 9V0L35 12H26C24.3431 12 23 10.6569 23 9Z" />
</svg>
