<svg width="16" height="16" xmlns="http://www.w3.org/2000/svg"><path fill-rule="evenodd" clip-rule="evenodd" d="M15.838 6.39a8.05 8.05 0 00-1.206-2.862 8 8 0 10-9.746 11.843 8.034 8.034 0 006.228 0 8.002 8.002 0 004.723-8.98zM14.83 7.933a15.8 15.8 0 00-4.758-.224 14.465 14.465 0 01-.146-.351 24.256 24.256 0 00-.454-.992 8.783 8.783 0 003.806-2.703 6.802 6.802 0 011.554 4.27h-.002zM8.943 5.347a7.438 7.438 0 003.57-2.472v-.001A6.819 6.819 0 006.39 1.362a34.69 34.69 0 012.553 3.985zM5.086 1.823A40.942 40.942 0 017.622 5.76a25.25 25.25 0 01-6.308.834 6.833 6.833 0 013.772-4.77zM1.173 7.826c-.002.058-.004.116-.004.174h.003a6.806 6.806 0 001.745 4.562 10.81 10.81 0 015.557-4.509c.088-.03.179-.058.268-.082a22.02 22.02 0 00-.554-1.163c-2.28.655-4.642.983-7.014.974l-.001.044zm6.831 7.01a6.807 6.807 0 01-4.2-1.446s1.31-2.856 5.362-4.269l.042-.012.005-.002a28.454 28.454 0 011.458 5.188 6.82 6.82 0 01-2.667.541zm2.488-6.05a29.379 29.379 0 011.33 4.88 6.836 6.836 0 002.928-4.581 9.902 9.902 0 00-4.258-.298z"/></svg>