<svg width="16" height="16" xmlns="http://www.w3.org/2000/svg"><path fill-rule="evenodd" clip-rule="evenodd" d="M0 8c0-4.411 3.589-8 8-8s8 3.589 8 8v1c0 1.654-1.346 3-3 3a2.98 2.98 0 0 1-2.285-1.08A3.978 3.978 0 0 1 8 12c-2.206 0-4-1.794-4-4s1.794-4 4-4c.766 0 1.476.228 2.084.602A1 1 0 0 1 12 5v4a1.001 1.001 0 0 0 2 0V8c0-3.309-2.691-6-6-6S2 4.691 2 8a6.006 6.006 0 0 0 8.571 5.423 1 1 0 0 1 .858 1.806A7.925 7.925 0 0 1 8 16c-4.411 0-8-3.589-8-8zm6 0c0 1.103.897 2 2 2s2-.897 2-2-.897-2-2-2-2 .897-2 2z"/></svg>