<svg width="16" height="16" viewBox="0 0 16 16"  xmlns="http://www.w3.org/2000/svg">
<path fill-rule="evenodd" clip-rule="evenodd" d="M7 4.5V0H3.5C2.67157 0 2 0.671573 2 1.5V14.5C2 15.3284 2.67157 16 3.5 16H12.5C13.3284 16 14 15.3284 14 14.5V7H9.5C8.11929 7 7 5.88071 7 4.5ZM4.5 9C4.22386 9 4 9.22386 4 9.5C4 9.77614 4.22386 10 4.5 10H11.5C11.7761 10 12 9.77614 12 9.5C12 9.22386 11.7761 9 11.5 9H4.5ZM4.5 11C4.22386 11 4 11.2239 4 11.5C4 11.7761 4.22386 12 4.5 12H11.5C11.7761 12 12 11.7761 12 11.5C12 11.2239 11.7761 11 11.5 11H4.5ZM4 13.5C4 13.2239 4.22386 13 4.5 13H7.5C7.77614 13 8 13.2239 8 13.5C8 13.7761 7.77614 14 7.5 14H4.5C4.22386 14 4 13.7761 4 13.5Z" />
<path opacity="0.25" fill-rule="evenodd" clip-rule="evenodd" d="M4 9.5C4 9.22386 4.22386 9 4.5 9H11.5C11.7761 9 12 9.22386 12 9.5C12 9.77614 11.7761 10 11.5 10H4.5C4.22386 10 4 9.77614 4 9.5ZM4 11.5C4 11.2239 4.22386 11 4.5 11H11.5C11.7761 11 12 11.2239 12 11.5C12 11.7761 11.7761 12 11.5 12H4.5C4.22386 12 4 11.7761 4 11.5ZM4.5 13C4.22386 13 4 13.2239 4 13.5C4 13.7761 4.22386 14 4.5 14H7.5C7.77614 14 8 13.7761 8 13.5C8 13.2239 7.77614 13 7.5 13H4.5Z" />
<path opacity="0.5" d="M8 4.5V0L14 6H9.5C8.67157 6 8 5.32843 8 4.5Z" />
</svg>
