<svg width="40" height="40" viewBox="0 0 40 40" fill="none" xmlns="http://www.w3.org/2000/svg">
<path fill-rule="evenodd" clip-rule="evenodd" d="M8 0H22V9C22 11.2091 23.7909 13 26 13H35V37C35 38.6569 33.6569 40 32 40H8C6.34315 40 5 38.6569 5 37V3C5 1.34315 6.34315 0 8 0ZM25.7071 19.2929C26.0976 19.6834 26.0976 20.3166 25.7071 20.7071L21.4142 25L25.7071 29.2929C26.0976 29.6834 26.0976 30.3166 25.7071 30.7071C25.3166 31.0976 24.6834 31.0976 24.2929 30.7071L20 26.4142L15.7071 30.7071C15.3166 31.0976 14.6834 31.0976 14.2929 30.7071C13.9024 30.3166 13.9024 29.6834 14.2929 29.2929L18.5858 25L14.2929 20.7071C13.9024 20.3166 13.9024 19.6834 14.2929 19.2929C14.6834 18.9024 15.3166 18.9024 15.7071 19.2929L20 23.5858L24.2929 19.2929C24.6834 18.9024 25.3166 18.9024 25.7071 19.2929Z" fill="#E54E7F"/>
<path opacity="0.5" d="M23 9V0L35 12H26C24.3431 12 23 10.6569 23 9Z" fill="#E54E7F"/>
</svg>
