<svg width="263" height="238" viewBox="0 0 263 238" fill="none" xmlns="http://www.w3.org/2000/svg">
<g filter="url(#filter2_d)">
<path d="M126.625 49.4983L126.417 50.5058L126.613 49.4752C126.627 49.3439 126.645 49.2002 126.663 49.045C126.737 48.4336 126.833 47.6427 126.833 46.7192C127.018 44.3916 127.087 41.2303 127.018 37.8375C126.948 34.4446 126.902 30.8201 127.018 27.5893C127.075 24.9602 127.303 22.3377 127.7 19.7382C127.923 18.3082 128.232 16.893 128.625 15.5C128.834 14.6816 129.124 13.8864 129.492 13.1262C130.024 12.0492 130.417 11.8987 130.891 12.0492C131.365 12.1998 131.596 12.5472 131.481 13.7052C131.411 14.2726 131.284 15.0484 131.064 16.0906C130.865 17.0354 130.657 18.2182 130.395 19.6994C130.368 19.852 130.341 20.0077 130.313 20.1667C130.012 21.8689 129.608 24.5554 129.249 27.7514C129.059 29.449 128.901 31.2479 128.741 33.07C128.6 34.6783 128.458 36.3046 128.29 37.8954C127.931 41.2882 127.538 44.4495 127.133 46.7655C126.96 47.9119 126.763 48.8498 126.625 49.4983Z" fill="#F5C370"/>
<path d="M157.818 54.5124L158.557 53.3544L159.413 51.9995L160.639 50.2857C162.961 47.103 165.528 44.1063 168.315 41.323C173.995 35.7676 180.189 30.7657 186.814 26.385C188.306 25.3706 189.562 24.5336 190.612 23.8343C192.269 22.7299 193.412 21.9685 194.155 21.3941C195.369 20.4562 195.531 19.9814 195.311 19.5529C195.092 19.1245 194.594 19.0087 193.138 19.5529C190.402 20.8511 187.794 22.4018 185.345 24.1849C182.474 26.1799 179.722 28.3413 177.102 30.658C173.637 33.6726 170.392 36.931 167.39 40.4082C164.784 43.4239 162.426 46.6459 160.338 50.0426L159.251 51.8606L158.511 53.2849L157.818 54.5124Z" fill="#F5C370"/>
<path d="M112.462 65.2584L112.242 64.0078C112.221 63.8876 112.199 63.7589 112.175 63.6219C112.044 62.8616 111.869 61.8504 111.595 60.6728C110.832 57.0925 109.804 53.5741 108.52 50.1468C105.874 43.189 102.275 36.6338 97.8252 30.6695C96.2065 28.4212 94.3878 26.3244 92.3913 24.4049C91.3045 23.4553 90.8421 23.4206 90.4605 23.7448C90.079 24.0691 90.0674 24.5438 90.8189 25.7481C91.3366 26.5777 92.2383 27.7479 93.5919 29.5048C94.2034 30.2985 94.9072 31.2118 95.7094 32.2676C97.0043 33.9582 99.0507 36.6563 101.201 39.8871C103.492 43.3231 105.528 46.9225 107.294 50.6563C108.83 53.9334 110.132 57.3155 111.19 60.777C111.54 61.8548 111.794 62.7861 111.994 63.5183C112.045 63.7063 112.093 63.8817 112.138 64.0425L112.462 65.2584Z" fill="#F5C370"/>
<path d="M147.169 54.6629L147.389 53.8523C147.478 53.4523 147.655 52.9363 147.869 52.3148C147.933 52.1267 148.001 51.9288 148.071 51.7216C148.938 49.4959 149.942 47.3263 151.077 45.2254C153.26 41.0716 156.107 36.7131 157.835 34.0673C158.121 33.63 158.376 33.2395 158.592 32.9045C161.667 28.1915 162.061 27.3693 161.205 26.7556C160.349 26.1418 159.517 26.6282 156.372 31.4801C153.816 35.6724 151.641 40.0867 149.875 44.6695C148.986 46.9328 148.252 49.2541 147.678 51.6174C147.652 51.7482 147.626 51.8758 147.601 51.9999L147.6 52.0042L147.6 52.006C147.449 52.7584 147.323 53.3845 147.273 53.8407L147.169 54.6629Z" fill="#F5C370"/>
<path d="M125.237 84.6778C125.237 84.6778 121.769 58.6232 120.301 50.9226C118.832 43.2221 118.312 42.0988 117.341 42.2841C116.37 42.4694 116.266 43.72 117.699 51.409C119.133 59.098 125.237 84.6778 125.237 84.6778Z" fill="#F5C370"/>
<path d="M91.4433 85.8589L92.1022 86.5305L91.3739 85.94C90.8999 85.5462 90.2177 85.0136 89.3622 84.3883C87.1877 82.7768 84.9301 81.2809 82.5988 79.9069C78.1745 77.2423 73.0188 74.8353 69.7516 73.3099C69.1 73.0057 68.5235 72.7365 68.0429 72.5074C62.2506 69.7514 61.4644 69.0566 61.8575 68.1765C62.2506 67.2965 63.3259 67.3312 69.1875 70.1103C74.1468 72.5894 78.8817 75.4952 83.3387 78.7952C85.53 80.4389 87.6296 82.2017 89.6282 84.0756C90.4028 84.7935 91.0155 85.4189 91.4433 85.8589Z" fill="#F5C370"/>
<path d="M107.953 111.126L114.254 113.952C114.254 113.952 111.156 113.187 107.537 112.307C106.758 112.118 105.963 111.925 105.177 111.735L105.175 111.734C102.306 111.04 99.5527 110.373 98.1374 109.991C94.5186 109.042 94.033 108.625 94.218 107.675C94.403 106.726 95.0851 106.448 98.8426 107.467C101.953 108.494 104.996 109.716 107.953 111.126Z" fill="#F5C370"/>
<path d="M159.633 96.4312L158.546 96.9986L159.529 96.2923C160.199 95.8638 161.193 95.2385 162.35 94.5206C164.754 93.0499 168.026 91.1161 171.691 89.2865C175.368 87.4343 179.151 85.8026 183.021 84.3998C185.976 83.3282 188.991 82.4311 192.051 81.7133C194.702 81.0535 197.414 80.6655 200.144 80.5553C201.554 80.5553 201.913 80.8448 201.982 81.3312C202.052 81.8175 201.774 82.1881 200.445 82.5934C199.556 82.8643 198.202 83.1507 196.187 83.5772L196.186 83.5774C195.186 83.7889 194.024 84.0348 192.675 84.3303L192.44 84.3841C190.443 84.8398 187.273 85.5634 183.761 86.5652C179.868 87.6847 176.036 89.0066 172.281 90.5255C168.523 92.0425 165.09 93.6637 162.592 94.9143C161.443 95.4791 160.5 95.9753 159.807 96.3396L159.633 96.4312Z" fill="#F5C370"/>
<path d="M161.818 122.706L162.569 122.775C163.055 122.775 163.725 122.868 164.604 122.995C166.746 123.323 168.855 123.842 170.905 124.547C174.988 126.053 178.927 127.925 182.675 130.14C187.137 132.63 187.947 132.884 188.455 132.016C188.964 131.147 188.525 130.383 183.9 127.801C179.889 125.711 175.61 124.183 171.183 123.262C169.009 122.823 166.798 122.598 164.581 122.59C163.89 122.577 163.2 122.601 162.511 122.66L161.818 122.706Z" fill="#F5C370"/>
<path d="M149.727 124.698L148.996 124.651V124.698H149.727Z" fill="#F5C370"/>
<path d="M149.727 124.698L150.823 124.767L152.939 124.894C153.49 124.964 154.089 125.066 154.728 125.174C155.039 125.227 155.36 125.281 155.69 125.334C160.828 126.315 165.79 128.064 170.408 130.522C175.697 133.333 180.674 136.698 185.253 140.562C188.738 143.481 192.05 146.601 195.173 149.907C197.997 152.874 199.94 155.089 201.333 156.678C202.044 157.489 202.612 158.137 203.081 158.638C204.468 160.12 205.035 160.329 205.393 160.039C205.751 159.75 205.774 159.159 204.688 157.387C202.457 154.05 199.897 150.947 197.046 148.123C193.819 144.773 190.341 141.676 186.64 138.86C181.792 135.123 176.541 131.942 170.986 129.376C166.163 127.141 161.029 125.653 155.76 124.964C155.343 124.927 154.944 124.884 154.562 124.843C153.989 124.782 153.454 124.725 152.962 124.698H149.727Z" fill="#F5C370"/>
<path d="M146.106 127.905L146.534 128.079C146.927 128.224 147.313 128.39 147.69 128.577C148.891 129.145 150.05 129.799 151.158 130.534C152.716 131.553 154.305 132.778 155.602 133.778C156.411 134.402 157.107 134.939 157.609 135.281C160.199 137.088 160.8 137.111 161.367 136.3C161.933 135.49 161.737 134.934 159.055 133.104C156.734 131.612 154.271 130.355 151.702 129.353C150.427 128.866 149.117 128.478 147.782 128.195C147.37 128.1 146.953 128.027 146.534 127.975L146.106 127.905Z" fill="#F5C370"/>
<path d="M141.493 131.321L141.042 130.962L141.539 131.217C142.009 131.452 142.464 131.715 142.903 132.004C144.315 132.934 145.631 134.001 146.834 135.189C149.227 137.595 151.408 140.202 153.355 142.982C155.552 146.213 155.644 146.838 154.869 147.44C154.095 148.042 153.39 147.741 151.158 144.464C150.721 143.833 150.148 142.879 149.482 141.769C148.437 140.03 147.162 137.91 145.828 136.057C144.888 134.717 143.824 133.468 142.649 132.329C142.287 131.967 141.901 131.63 141.493 131.321Z" fill="#F5C370"/>
<path d="M133.828 134.135C133.828 134.135 134.198 136.532 134.741 139.277C135.284 142.021 135.897 145.066 136.255 146.433C137.007 149.154 137.412 149.513 138.371 149.293C139.331 149.073 139.527 148.529 138.811 145.715C138.019 143.377 137.08 141.091 136.001 138.871L133.828 134.135Z" fill="#F5C370"/>
<path d="M129.319 145.205C129.709 142.669 130.254 140.16 130.949 137.69C131.44 140.207 131.78 142.752 131.966 145.31C131.897 147.047 131.538 147.313 130.556 147.267C129.573 147.22 129.249 146.942 129.319 145.205Z" fill="#F5C370"/>
<path d="M129.469 160.873C129.469 160.873 128.683 165.713 128.012 171.295C127.379 176.25 127.024 181.237 126.948 186.233C127.041 192.115 127.527 193.007 128.486 192.949C129.446 192.891 129.642 191.988 129.642 186.198C129.642 185.048 129.598 183.351 129.547 181.37L129.546 181.367L129.546 181.359L129.546 181.358V181.357L129.546 181.355L129.546 181.354L129.546 181.353V181.352L129.546 181.351L129.546 181.349V181.348C129.468 178.366 129.374 174.744 129.388 171.376C129.411 165.76 129.469 160.873 129.469 160.873Z" fill="#F5C370"/>
<path d="M113.583 135.513C114.417 134.703 115.305 133.952 116.243 133.267C116.243 133.267 115.41 134.656 114.659 136.277C114.035 137.671 113.499 139.102 113.052 140.562C112.485 142.171 112.138 142.403 111.202 142.171C110.265 141.94 109.895 141.569 110.578 139.624C111.305 138.072 112.326 136.676 113.583 135.513Z" fill="#F5C370"/>
<path d="M85.8359 156.565L85.0382 157.457C84.5064 158.024 83.7665 158.858 82.9109 159.912C80.7252 162.628 78.728 165.491 76.9336 168.481C73.2827 174.544 70.3531 181.015 68.2047 187.761C67.3662 190.279 66.8003 192.88 66.5167 195.52C66.4358 196.898 66.7017 197.268 67.1873 197.361C67.6729 197.453 68.066 197.21 68.5285 195.948C68.834 195.114 69.2001 193.84 69.7435 191.95L69.7441 191.948C70.023 190.977 70.3486 189.845 70.7367 188.525C72.6281 181.857 75.0881 175.364 78.0898 169.118C79.6142 166.026 81.3366 163.036 83.2462 160.166C83.9977 159.008 84.6451 158.14 85.1191 157.526L85.8359 156.565Z" fill="#F5C370"/>
<path d="M83.3156 177.316L82.8069 178.544C82.7147 178.771 82.6093 179.026 82.4932 179.307L82.491 179.312L82.4903 179.314C82.1994 180.018 81.8415 180.883 81.4542 181.89C80.3443 184.669 78.9107 188.572 77.6852 192.775C76.4368 196.987 75.4674 201.277 74.7833 205.617C74.1589 209.716 73.893 213.26 73.7658 215.506C73.667 217.253 73.624 218.712 73.5881 219.934C73.5778 220.284 73.568 220.614 73.5577 220.926C73.5372 221.549 73.5097 222.097 73.4856 222.579L73.4855 222.58C73.4555 223.179 73.4306 223.676 73.4306 224.087C73.3034 225.581 73.0144 225.963 72.4941 225.998C71.9739 226.032 71.627 225.697 71.338 224.191C71.1473 223.121 71.0429 222.036 71.0258 220.949C70.9489 219.081 70.972 217.21 71.0952 215.344C71.3326 211.93 71.8273 208.539 72.575 205.2C73.5438 200.822 74.8344 196.522 76.4365 192.335C77.9858 188.178 79.72 184.415 81.0611 181.693C81.7029 180.363 82.2678 179.296 82.6707 178.535L83.3156 177.316Z" fill="#F5C370"/>
<path d="M103.987 123.157H99.7444C96.4418 123.243 93.1498 123.568 89.894 124.13C83.2995 125.33 76.8614 127.273 70.7021 129.92C63.5455 133.162 62.609 134.1 63.083 134.957C63.5571 135.814 64.7248 135.536 71.7657 132.352C77.7082 129.543 83.8673 127.22 90.1831 125.404C93.3363 124.567 96.5423 123.945 99.7791 123.54C100.753 123.407 101.591 123.335 102.263 123.277L102.264 123.277C102.469 123.259 102.658 123.243 102.831 123.227L103.987 123.157Z" fill="#F5C370"/>
<path d="M55.2443 145.46L58.0307 143.283L55.5103 145.773C53.9726 147.301 51.8916 149.386 49.7296 151.667C47.5676 153.948 45.3478 156.426 43.4633 158.696C41.5788 160.965 40.018 162.992 39.0352 164.277C38.6699 164.751 38.3341 165.188 38.0246 165.591C36.6695 167.355 35.8202 168.461 35.2084 169.083C34.4569 169.847 34.0407 169.893 33.6245 169.616C33.2083 169.338 33.0695 168.956 33.4973 167.937C34.438 166.04 35.6024 164.263 36.9657 162.645C38.4842 160.74 40.1093 158.923 41.8331 157.202C43.9373 155.048 46.4345 152.767 48.8393 150.706C51.2441 148.645 53.5448 146.803 55.2443 145.46Z" fill="#F5C370"/>
<path d="M66.2163 80.2658L65.6497 79.7679C65.1364 79.3073 64.5959 78.8781 64.0311 78.4826C62.2084 77.211 60.2454 76.1541 58.181 75.3328C53.9896 73.7125 49.6124 72.6233 45.1513 72.0905C39.937 71.5578 39.1278 71.8705 39.0353 72.8432C38.9428 73.8159 39.7405 74.198 44.816 74.7191C49.1583 75.0144 53.4717 75.6415 57.7185 76.595C59.8117 77.1149 61.84 77.8684 63.7652 78.8415C64.3767 79.1417 64.9676 79.4821 65.5341 79.8605L66.2163 80.2658Z" fill="#F5C370"/>
<path d="M90.0906 62.1319L90.4837 62.8846L90.0212 62.1782L90.0133 62.1671C89.7015 61.7275 89.2529 61.0952 88.6338 60.3717C87.1041 58.5101 85.3575 56.8384 83.4312 55.3924C81.241 53.7561 78.8803 52.3622 76.3903 51.2353C74.2789 50.1779 72.3218 49.5067 70.9766 49.0454C70.8487 49.0016 70.726 48.9595 70.6096 48.9193C69.9743 48.698 69.4037 48.5018 68.8909 48.3255C67.2575 47.7638 66.2116 47.4042 65.5341 47.0781C64.6438 46.6497 64.5282 46.2791 64.6438 45.7928C64.7594 45.3064 65.0601 45.0748 66.0428 45.0748C67.9154 45.2654 69.7523 45.7176 71.4998 46.4181C76.2574 48.1758 80.6136 50.8732 84.3099 54.3502C86.0872 56.0788 87.6409 58.0239 88.9344 60.1401C89.4419 60.9188 89.788 61.5661 90.0387 62.035L90.0906 62.1319Z" fill="#F5C370"/>
<path d="M135.342 111.543C136.442 109.061 137.697 106.652 139.1 104.329C140.521 101.936 142.211 99.4369 143.553 97.4538C144.295 96.3566 144.93 95.417 145.354 94.7406C147.771 90.9308 147.886 90.1666 147.054 89.6339C146.221 89.1012 145.551 89.4834 143.123 93.3279C141.122 96.6634 139.379 100.147 137.909 103.75C136.864 106.281 136.006 108.886 135.342 111.543Z" fill="#F5C370"/>
<path d="M127.423 130.511C128.323 128.421 129.362 126.394 130.533 124.443C130.499 126.719 130.31 128.99 129.966 131.24C129.55 132.711 129.157 132.861 128.209 132.583C127.261 132.305 127.006 131.993 127.423 130.511Z" fill="#F5C370"/>
<path d="M129.642 119.568C129.067 118.741 128.421 117.966 127.712 117.252C126.701 116.191 125.531 115.297 124.243 114.6C122.682 113.917 122.312 114.171 121.931 115.086C121.549 116.001 121.7 116.395 123.087 117.009C123.43 117.161 123.987 117.346 124.639 117.562C125.326 117.791 126.119 118.055 126.879 118.352C127.822 118.706 128.744 119.112 129.642 119.568Z" fill="#F5C370"/>
<path d="M187.796 76.8845L186.999 77.5446L187.727 76.8035L188.571 75.935C188.772 75.7536 189.001 75.5684 189.245 75.3702C189.422 75.2267 189.607 75.0764 189.796 74.916C192.182 73.055 194.853 71.5925 197.705 70.5851C203.508 68.6631 209.571 67.6438 215.683 67.5628C222.793 67.5049 223.857 67.887 223.857 68.9061C223.857 69.9251 222.758 70.1567 215.764 70.2146C215.386 70.2208 214.959 70.2249 214.491 70.2295C210.637 70.2665 203.925 70.331 198.132 71.8589C195.272 72.5529 192.54 73.6981 190.039 75.2518C189.889 75.352 189.743 75.4477 189.6 75.5404L189.6 75.541C189.282 75.7481 188.988 75.94 188.733 76.1319L187.796 76.8845Z" fill="#F5C370"/>
<path d="M34.3066 88.198L36.6189 88.3833L34.3529 88.5801L28.9074 89.1359C24.7568 89.5528 20.19 90.3866 18.1205 90.7803C13.9584 91.533 13.2994 91.394 13.0104 90.5024C12.7214 89.6107 13.2763 88.9854 17.635 88.1864C21.3412 87.7044 25.0854 87.5842 28.8149 87.8275C30.9191 87.9317 32.873 88.0822 34.3066 88.198Z" fill="#F5C370"/>
<path d="M123.653 104.085L121.029 97.3229C119.399 93.1889 117.121 87.5727 114.404 81.667C111.701 75.7243 108.691 69.9266 105.386 64.2973C102.87 60.0046 100.11 55.86 97.1199 51.8838C95.062 49.1972 93.374 47.1244 91.9635 45.5612C90.9307 44.3425 89.8307 43.1827 88.6685 42.0872C87.0384 40.5934 86.4372 40.4313 86.0788 40.7671C85.7204 41.1029 85.8244 41.7167 87.1424 43.4768C87.545 44.0074 88.0599 44.6505 88.6923 45.4402L88.6928 45.4409C89.0953 45.9436 89.5453 46.5057 90.0443 47.136C90.4248 47.6167 90.8388 48.133 91.2858 48.6903L91.2878 48.6928C92.3479 50.0147 93.5933 51.5676 95.0157 53.4239C97.039 56.064 100.184 60.3717 103.49 65.4205C106.797 70.4693 110.242 76.4561 113.225 82.1881C116.208 87.9201 118.786 93.3858 120.647 97.4155L123.653 104.085Z" fill="#F5C370"/>
<path d="M119.723 109.91C119.654 109.833 119.595 109.748 119.549 109.655C119.595 109.741 119.654 109.819 119.723 109.887L120.463 110.628C120.472 110.637 120.481 110.646 120.492 110.656C120.558 110.717 120.632 110.785 120.532 110.906C120.425 110.929 120.315 110.929 120.208 110.906C120.058 110.77 119.756 110.474 119.333 110.058C118.098 108.844 115.829 106.615 113.271 104.398C110.006 101.568 106.207 98.8527 104.172 97.3983L103.872 97.1839C99.5132 94.1037 99.016 93.4321 99.5132 92.6215C100.01 91.8109 100.981 91.8572 105.433 95.0416C108.651 97.5132 111.632 100.281 114.335 103.31C116.493 105.672 118.468 108.196 120.243 110.86C120.335 110.875 120.428 110.875 120.52 110.86C120.538 110.854 120.514 110.822 120.487 110.784C120.459 110.746 120.428 110.703 120.428 110.674L120.116 110.35C119.931 110.153 119.803 110.014 119.723 109.91Z" fill="#F5C370"/>
<path d="M130.012 93.0499C130.012 93.0499 130.914 84.1451 132.163 73.9548C133.411 63.7646 135.122 52.3122 135.932 47.0665C137.527 36.5752 137.631 34.9193 136.614 34.734C135.596 34.5488 134.926 36.112 133.307 46.6844C132.498 51.9764 131.388 63.5678 130.845 73.839C130.301 84.1103 130.012 93.0499 130.012 93.0499Z" fill="#F5C370"/>
<path d="M150.534 83.3345L147.586 88.059L150.187 83.1376L150.44 82.6565C151.998 79.6953 154.059 75.7769 156.338 71.6505C158.742 67.2965 161.425 62.734 163.991 58.7621C166.558 54.7903 168.997 51.4553 170.616 49.4288C172.622 46.7992 174.855 44.3503 177.287 42.1104C178.593 41.0103 179.102 40.9524 179.461 41.2882C179.819 41.624 179.796 42.1683 178.802 43.5231C178.221 44.3149 177.324 45.4071 176.039 46.9709L176.039 46.972L176.038 46.973L176.037 46.9745L176.036 46.9755L176.034 46.9779L176.033 46.979C175.121 48.0897 174.013 49.438 172.686 51.0847C171.09 53.0765 168.593 56.2609 165.841 60.0244C163.09 63.7878 160.165 68.1649 157.471 72.3337C154.853 76.3842 152.465 80.227 150.688 83.0866L150.687 83.0876L150.534 83.3345Z" fill="#F5C370"/>
<path d="M153.135 93.9184L153.736 93.1541C154.106 92.6562 154.661 91.9962 155.39 91.1393C157.217 89.0735 159.188 87.1388 161.286 85.3494C165.563 81.7713 170.061 78.4683 174.755 75.4602C180.201 71.8242 180.964 71.1178 180.443 70.2377C179.923 69.3577 178.825 69.5545 173.264 73.2601C168.606 76.5291 164.288 80.2571 160.373 84.3883C158.446 86.4347 156.668 88.6173 155.054 90.9193C154.43 91.8225 153.956 92.5867 153.644 93.1194L153.135 93.9184Z" fill="#F5C370"/>
<path d="M146.557 114.009L148.083 113.234L149.933 112.249C150.447 111.955 151.03 111.707 151.659 111.44C151.92 111.328 152.189 111.214 152.465 111.091C157.296 109.109 162.377 107.803 167.564 107.212C173.53 106.537 179.55 106.467 185.53 107.004C190.076 107.37 194.596 108 199.069 108.891C202.93 109.607 206.738 110.582 210.468 111.809C212.376 112.516 212.758 112.944 212.63 113.43C212.503 113.917 211.96 114.114 209.96 113.824C208.657 113.636 206.746 113.231 203.92 112.632L203.919 112.632C202.406 112.312 200.632 111.936 198.549 111.508C195.554 110.837 190.802 109.899 185.299 109.192C179.465 108.405 173.569 108.172 167.691 108.497C162.573 108.806 157.519 109.795 152.661 111.439C152.278 111.585 151.903 111.717 151.543 111.843C151.022 112.025 150.532 112.197 150.095 112.388L146.557 114.009Z" fill="#F5C370"/>
<path d="M162.407 133.463L163.702 134.39C164.535 134.98 165.726 135.837 167.171 136.961C170.764 139.769 174.174 142.805 177.38 146.051C181.047 149.772 184.494 153.704 187.704 157.827C190.721 161.695 193.196 165.192 194.745 167.415C195.565 168.591 196.291 169.637 196.935 170.566L196.939 170.571L196.939 170.572L196.94 170.573C198.717 173.135 199.873 174.803 200.687 175.822C201.797 177.212 202.318 177.397 202.734 177.142C203.15 176.888 203.208 176.343 202.433 174.722C200.814 171.643 198.966 168.69 196.907 165.887C195.346 163.64 192.687 160.178 189.427 156.403C185.962 152.393 182.243 148.61 178.293 145.078C174.856 142.024 171.221 139.2 167.414 136.625C165.934 135.594 164.685 134.83 163.806 134.309L162.407 133.463Z" fill="#F5C370"/>
<path d="M201.161 142.588L200.433 142.137L201.208 142.484C201.915 142.792 202.606 143.136 203.277 143.515C205.449 144.724 207.497 146.144 209.393 147.753C213.17 151.063 216.606 154.745 219.648 158.742C223.14 163.432 223.417 164.37 222.631 164.937C221.845 165.505 221.001 164.937 217.532 160.305C214.742 156.273 211.719 152.406 208.48 148.726C206.83 146.936 205.014 145.308 203.057 143.862C202.449 143.403 201.816 142.978 201.161 142.588Z" fill="#F5C370"/>
<path d="M157.367 142.368L158.199 143.237C158.731 143.781 159.494 144.568 160.373 145.553C162.615 148.138 164.715 150.844 166.662 153.659C168.21 155.861 169.77 158.206 171.269 160.461L171.269 160.462L171.27 160.463L171.275 160.47L171.28 160.478L171.281 160.48C171.96 161.501 172.627 162.504 173.275 163.467C175.356 166.559 177.229 169.257 178.524 170.843C180.088 172.966 181.884 174.908 183.877 176.633C184.964 177.478 185.415 177.478 185.762 177.119C186.108 176.76 186.132 176.309 185.38 175.22C184.891 174.512 184.085 173.516 182.888 172.036C182.244 171.24 181.487 170.305 180.605 169.199C179.333 167.635 177.356 165.099 175.079 162.17C174.692 161.672 174.298 161.163 173.897 160.645C171.938 158.114 169.826 155.386 167.714 152.906C165.521 150.235 163.17 147.698 160.673 145.31C159.773 144.44 158.982 143.76 158.411 143.269L157.367 142.368Z" fill="#F5C370"/>
<path d="M143.042 146.954L141.724 143.248L143.435 146.792L147.482 155.048C149.031 158.198 150.649 161.591 152.002 164.636C153.355 167.682 154.43 170.403 155.008 172.152C155.829 174.352 156.411 176.635 156.742 178.96C156.846 180.176 156.58 180.524 156.106 180.651C155.632 180.778 155.228 180.582 154.742 179.493C154.405 178.737 154.012 177.552 153.417 175.754L153.416 175.753L153.415 175.751C153.153 174.96 152.852 174.051 152.499 173.008C151.933 171.26 151.031 168.573 149.933 165.47C148.834 162.367 147.516 158.858 146.268 155.581C146.116 155.182 145.965 154.787 145.816 154.396L145.811 154.382C144.737 151.568 143.752 148.985 143.042 146.954Z" fill="#F5C370"/>
<path d="M121.017 158.267C121.017 158.267 120.59 160.039 119.861 162.818C119.133 165.597 118.277 169.407 117.457 173.518C116.636 177.629 115.919 182.064 115.526 186.036C115.193 189.247 115.066 192.477 115.144 195.705C115.197 197.475 115.344 199.242 115.584 200.997C115.696 202.024 115.897 203.039 116.185 204.031C116.601 205.432 116.971 205.698 117.457 205.617C117.942 205.536 118.22 205.154 118.231 203.73C118.231 203.149 118.183 202.373 118.119 201.363C118.107 201.165 118.094 200.958 118.081 200.742C118.062 200.443 118.042 200.124 118.02 199.787L118.018 199.767L118.018 199.766L118.018 199.765C117.943 198.619 117.854 197.249 117.792 195.612C117.711 193.482 117.63 190.089 117.792 186.186C117.954 182.284 118.301 177.872 118.798 173.738C119.295 169.604 119.873 165.725 120.301 162.899L121.017 158.267Z" fill="#F5C370"/>
<path d="M123.642 133.417L123.931 133.139L123.734 133.487L123.703 133.542C123.577 133.758 123.407 134.051 123.237 134.413C122.73 135.407 122.305 136.441 121.965 137.505C121.339 139.631 120.838 141.793 120.463 143.978C119.884 146.525 119.491 146.884 118.532 146.699C117.572 146.514 117.272 146.039 117.884 143.364C118.521 141.088 119.492 138.918 120.763 136.926C121.391 135.951 122.103 135.033 122.89 134.181C123.191 133.846 123.457 133.591 123.642 133.417Z" fill="#F5C370"/>
<path d="M106.242 152.616L105.409 153.879C104.866 154.678 104.091 155.836 103.178 157.271C101.34 160.132 98.9003 164.104 96.5765 168.516C94.2283 172.959 92.2074 177.568 90.5299 182.307C89.2505 185.929 88.2419 189.641 87.5124 193.412C87.111 195.468 86.8139 197.544 86.6221 199.63C86.4872 200.845 86.4369 202.068 86.4718 203.29C86.5412 205.003 86.8302 205.42 87.3273 205.455C87.8245 205.49 88.1829 205.108 88.4835 203.463C88.6036 202.853 88.73 202.065 88.8912 201.06C88.9472 200.711 89.0075 200.335 89.0731 199.932C89.1446 199.492 89.2178 199.021 89.2965 198.515L89.2968 198.514C89.4982 197.219 89.735 195.696 90.0675 193.898C91.5882 185.346 94.1589 177.015 97.7211 169.094C99.7213 164.578 101.872 160.468 103.502 157.515C104.311 156.021 104.993 154.805 105.467 153.971L106.242 152.616Z" fill="#F5C370"/>
<path d="M102.357 126.018L104.126 125.3L102.438 126.214L100.45 127.164C99.9445 127.413 99.405 127.702 98.8278 128.011C98.5199 128.175 98.2013 128.346 97.8715 128.519C93.0698 131.112 88.4568 134.041 84.0671 137.285C79.0351 140.991 74.2786 145.059 69.835 149.455C66.4648 152.76 63.2694 156.238 60.2621 159.877C59.5628 160.685 58.9453 161.468 58.3721 162.194L58.371 162.195L58.367 162.2L58.3634 162.205C58.0773 162.568 57.8023 162.916 57.5336 163.247C56.7243 164.243 56.0306 165.146 55.4409 165.956L52.6893 169.535C51.3598 171.167 50.7932 171.434 50.377 171.167C49.9608 170.901 49.9493 170.31 50.9551 168.388C51.6825 167.032 52.4974 165.724 53.3946 164.474C53.953 163.629 54.635 162.729 55.4184 161.694L55.4525 161.649C56.2503 160.595 57.1404 159.425 58.2157 158.175C61.3249 154.469 64.6899 150.987 68.2857 147.753C72.9875 143.49 78.0125 139.599 83.3156 136.115C87.8917 133.069 92.6832 130.36 97.6518 128.009C98.2333 127.776 98.7785 127.531 99.2919 127.3C99.646 127.141 99.9853 126.988 100.311 126.851L102.357 126.018Z" fill="#F5C370"/>
<path d="M67.5342 164.949L66.8983 165.262C66.3131 165.551 65.7591 165.901 65.245 166.304C63.6033 167.596 62.1 169.055 60.7592 170.658C58.0153 173.846 55.5477 177.263 53.383 180.871C50.9551 185.156 50.9551 186.024 51.8106 186.476C52.6662 186.927 53.2905 186.406 55.6722 182.191C55.8829 181.807 56.1363 181.336 56.4252 180.8C57.7212 178.392 59.7316 174.657 61.8113 171.457C62.8836 169.723 64.1269 168.101 65.5225 166.616C65.9589 166.151 66.439 165.728 66.9561 165.354L67.5342 164.949Z" fill="#F5C370"/>
<path d="M107.097 119.22L108.751 119.811L107.074 119.336L105.12 118.769L102.484 118.271C97.5115 117.509 92.4642 117.357 87.4546 117.819C77.1336 118.621 65.9063 121.528 59.5436 123.176C58.8287 123.361 58.1752 123.53 57.5913 123.679C46.0068 126.689 44.0991 126.84 43.8563 125.902C43.6135 124.964 45.29 124.13 56.9439 121.108C62.7593 119.626 75.6966 116.719 87.3968 116.476C92.4866 116.306 97.5777 116.769 102.554 117.854L105.167 118.526L107.097 119.22Z" fill="#F5C370"/>
<path d="M135.157 119.267C136.851 119.002 138.565 118.893 140.279 118.942C141.787 118.975 143.403 119.103 144.785 119.213C145.892 119.301 146.849 119.377 147.482 119.382C150.326 119.382 150.788 119.07 150.788 118.085C150.788 117.101 150.36 116.765 147.505 116.731C145.027 116.793 142.56 117.095 140.14 117.634C138.426 117.999 136.755 118.546 135.157 119.267Z" fill="#F5C370"/>
<path d="M199.496 95.8523L198.687 95.7943L199.496 95.7364C200.017 95.667 200.78 95.667 201.705 95.667C204.079 95.6456 206.452 95.8005 208.803 96.1301C213.54 96.8116 218.219 97.8411 222.804 99.2104C228.134 100.855 228.851 101.411 228.585 102.349C228.319 103.286 227.36 103.402 222.03 101.746C221.245 101.498 220.203 101.138 218.992 100.719C216.081 99.7124 212.191 98.3675 208.549 97.4271C206.291 96.8288 203.997 96.3763 201.682 96.0723C200.768 95.9449 200.017 95.8523 199.496 95.8523Z" fill="#F5C370"/>
<path d="M66.0197 64.2047L66.9099 64.9226L65.9966 64.4131L64.8404 63.6836C64.5455 63.497 64.214 63.3156 63.8601 63.1219C63.6869 63.0271 63.5083 62.9294 63.3259 62.8267C60.4492 61.286 57.4035 60.0853 54.2501 59.2485C47.0589 57.1873 38.6653 57.002 34.7691 56.9325C33.8167 56.9156 32.9666 56.9034 32.2069 56.8926C29.8589 56.859 28.374 56.8378 27.4045 56.7241C26.1211 56.5736 25.7974 56.3188 25.7743 55.763C25.7511 55.2071 26.0286 54.8713 27.312 54.605C29.7978 54.2251 32.3155 54.0971 34.8269 54.2229C41.5839 54.413 48.2714 55.6433 54.6548 57.8705C57.7847 59.0038 60.7661 60.5124 63.534 62.3635C63.7409 62.5076 63.9426 62.6431 64.1363 62.7731C64.4404 62.9773 64.7249 63.1683 64.9792 63.3593L66.0197 64.2047Z" fill="#F5C370"/>
<path d="M81.142 101.92L79.2691 101.434L77.0839 100.878L74.182 100.287C68.6854 99.2312 63.1067 98.6616 57.5104 98.5851C51.0359 98.4846 44.5696 99.0903 38.2259 100.392C33.365 101.356 28.6399 102.911 24.1557 105.023C23.8668 105.168 23.5812 105.303 23.3021 105.435C22.844 105.651 22.4031 105.859 21.9937 106.089L20.1322 107.189L18.4905 108.173C18.1542 108.393 17.8442 108.628 17.5465 108.854C17.4042 108.962 17.2646 109.068 17.1263 109.169C16.2785 109.794 15.5501 110.35 14.9412 110.837C14.4348 111.282 13.9524 111.753 13.496 112.249C11.9583 113.87 11.808 114.438 12.1549 114.797C12.5017 115.156 13.1145 115.052 14.8372 113.813C15.0669 113.655 15.306 113.469 15.5712 113.263C15.8132 113.075 16.0769 112.87 16.3748 112.655C16.7301 112.398 17.1191 112.148 17.5397 111.878L17.5413 111.877L17.5421 111.877L17.5429 111.876L17.5438 111.876C17.861 111.672 18.1962 111.457 18.5483 111.219C18.6887 111.125 18.8304 111.026 18.9752 110.925C19.2597 110.726 19.5561 110.519 19.8779 110.327L21.4618 109.424L23.2308 108.405C23.6337 108.177 24.0644 107.978 24.5112 107.771C24.7695 107.651 25.0335 107.529 25.3002 107.397C29.5879 105.3 34.0879 103.669 38.7231 102.534C44.8673 100.989 51.1566 100.097 57.4873 99.8705C63.0295 99.6559 68.5799 99.9155 74.078 100.646L77.003 101.063L79.2113 101.503L81.142 101.92Z" fill="#F5C370"/>
<path d="M49.8221 132.109L50.5273 131.993L49.8451 132.224C49.4174 132.363 48.7931 132.583 48.0416 132.861C46.527 133.417 44.4922 134.228 42.3996 135.235C38.7415 137.047 35.2212 139.125 31.8671 141.454C27.9015 144.117 27.15 144.36 26.5604 143.607C25.9707 142.855 26.2945 142.009 30.4219 139.23C34.018 137.012 37.8792 135.257 41.914 134.008C43.8886 133.386 45.8956 132.871 47.926 132.468C48.5598 132.33 49.0988 132.235 49.5196 132.162L49.6886 132.132L49.8221 132.109Z" fill="#F5C370"/>
<path d="M171.992 176.587L172.57 177.548L172.677 177.726C173.039 178.325 173.528 179.133 174.073 180.142C175.628 182.931 177.014 185.812 178.224 188.769C179.598 192.146 180.757 195.608 181.692 199.133C182.571 202.444 183.172 205.362 183.507 207.238C183.772 208.621 183.983 209.782 184.16 210.758L184.161 210.759L184.161 210.762L184.161 210.763C184.456 212.383 184.658 213.494 184.86 214.267C185.183 215.506 185.553 215.738 186.016 215.692C186.478 215.645 186.802 215.333 186.883 214.047C186.895 211.581 186.624 209.121 186.074 206.717C185.488 203.928 184.715 201.181 183.761 198.496C182.537 194.972 181.057 191.543 179.333 188.236C177.85 185.367 176.181 182.597 174.339 179.945C173.747 179.07 173.212 178.35 172.802 177.799C172.724 177.693 172.65 177.594 172.582 177.501L171.992 176.587Z" fill="#F5C370"/>
<path d="M107.768 91.5098L107.19 90.4561L106.519 89.2402C106.32 88.9069 106.084 88.5498 105.83 88.1643L105.829 88.1633L105.829 88.1624C105.73 88.0127 105.629 87.8586 105.525 87.7001C103.614 84.8558 101.392 82.2341 98.9004 79.8837C94.0951 75.2289 87.9256 71.0717 84.1291 68.5135C83.4772 68.0743 82.8953 67.6822 82.4023 67.3428C75.6504 62.7572 74.7948 61.7729 75.3035 60.9623C75.8122 60.1517 77.0956 60.5223 83.9053 65.1542C89.7292 69.1384 95.0818 73.7731 99.86 78.9689C102.186 81.5703 104.207 84.4299 105.884 87.4916C106.001 87.7189 106.119 87.9363 106.233 88.1457C106.42 88.4909 106.595 88.8145 106.739 89.1244L107.768 91.5098Z" fill="#F5C370"/>
<path d="M97.2586 101.654L96.0331 100.866C95.9224 100.799 95.8052 100.728 95.6817 100.653L95.6722 100.647C94.8806 100.165 93.8299 99.5251 92.5647 98.8167C84.4573 94.2216 75.8286 90.6176 66.8636 88.0822C63.209 87.0437 59.4998 86.2087 55.753 85.581C52.5218 84.9897 49.2451 84.6836 45.9605 84.6662C44.261 84.7356 43.8448 85.0251 43.8101 85.5231C43.7754 86.021 44.1453 86.38 45.787 86.681C46.8654 86.8788 48.4874 87.1215 50.8923 87.4814L50.8944 87.4817C52.1504 87.6697 53.6198 87.8896 55.3368 88.1517C57.8341 88.5338 61.8112 89.2055 66.3086 90.2129C71.1049 91.2795 75.834 92.629 80.4714 94.2542C84.5242 95.6715 88.4992 97.3026 92.3797 99.1409C93.9058 99.8473 95.1429 100.484 95.9869 100.924L97.2586 101.654Z" fill="#F5C370"/>
<path d="M137.805 91.5446L136.857 94.509C136.857 94.509 137.076 93.3278 137.365 91.4519C137.654 89.576 138.198 87.0169 138.81 84.3072C139.85 79.4666 141.293 74.7216 143.123 70.1219C143.791 68.3865 144.673 66.741 145.747 65.2237C146.36 64.471 146.799 64.4247 147.193 64.6563C147.586 64.8879 147.817 65.2352 147.586 66.1616C147.01 67.8713 146.334 69.5455 145.562 71.1757C144.406 73.758 141.932 79.4437 140.117 84.6662C139.204 87.2716 138.394 89.7381 137.805 91.5446Z" fill="#F5C370"/>
<path d="M154.176 107.108L155.077 106.645L155.122 106.621C155.687 106.321 156.492 105.893 157.505 105.487C160.112 104.296 162.821 103.343 165.598 102.638C171.226 101.335 176.97 100.605 182.744 100.461C189.554 100.16 190.629 99.9399 190.617 98.9093C190.606 97.8787 189.542 97.5082 182.605 97.8208C176.67 98.1734 170.811 99.3423 165.194 101.295C162.441 102.295 159.789 103.555 157.274 105.058C156.496 105.493 155.86 105.914 155.354 106.248C155.213 106.341 155.083 106.427 154.962 106.506L154.176 107.108Z" fill="#F5C370"/>
<path d="M153.216 117.483L151.389 117.738L153.193 117.356L155.309 116.927C155.817 116.827 156.374 116.749 156.969 116.665C157.335 116.614 157.715 116.561 158.107 116.499C163.408 115.732 168.775 115.526 174.119 115.885C180.297 116.315 186.403 117.482 192.305 119.359C196.81 120.787 201.159 122.665 205.289 124.964C206.296 125.502 207.218 126.089 208.064 126.627L208.065 126.628C208.384 126.831 208.691 127.027 208.988 127.21C209.957 127.811 210.895 128.461 211.798 129.156L213.867 130.742C214.422 131.229 214.885 131.657 215.266 132.028C216.781 133.498 216.966 134.066 216.631 134.436C216.295 134.807 215.706 134.807 213.983 133.649C213.555 133.371 213.047 133.023 212.469 132.607L210.353 131.217C209.555 130.673 208.642 130.059 207.578 129.422C207.241 129.22 206.895 129.003 206.537 128.778C205.765 128.293 204.934 127.77 203.994 127.28C200.023 125.007 195.87 123.071 191.577 121.49C180.906 117.528 169.494 115.966 158.153 116.916C157.75 116.956 157.362 116.988 156.989 117.018C156.398 117.066 155.847 117.111 155.343 117.182L153.216 117.483Z" fill="#F5C370"/>
<path d="M148.73 147.475C148.73 147.475 149.008 148.019 149.516 148.98C149.611 149.158 149.713 149.35 149.822 149.554L149.822 149.555C150.303 150.456 150.921 151.616 151.609 153.022C153.332 156.438 155.54 161.128 157.633 166.315C159.725 171.503 161.714 177.061 163.274 182.064C164.835 187.066 166.038 191.478 166.743 194.269L167.307 196.407L167.308 196.41C168.435 200.68 169.128 203.304 169.587 204.865C170.119 206.671 170.604 207.042 171.09 206.949C171.576 206.856 171.807 206.347 171.61 204.436C171.104 200.764 170.331 197.134 169.298 193.574C168.558 190.76 167.182 186.325 165.367 181.346C163.552 176.367 161.24 170.843 158.823 165.783C156.407 160.722 153.887 156.137 151.956 152.825C151.394 151.855 150.88 150.997 150.443 150.268L150.442 150.267C150.134 149.752 149.864 149.301 149.644 148.922C149.112 148.008 148.73 147.475 148.73 147.475Z" fill="#F5C370"/>
<path d="M140.117 162.679L139.967 161.521L140.233 162.668C140.394 163.42 140.637 164.52 140.961 165.841C141.608 168.504 142.568 172.094 143.724 175.915C144.277 177.735 144.857 179.617 145.432 181.484L145.436 181.495L145.437 181.499C147.254 187.396 149.022 193.132 149.724 196.226C150.431 198.787 150.903 201.407 151.135 204.054C151.193 205.432 150.927 205.802 150.441 205.895C149.956 205.988 149.563 205.733 149.112 204.448C148.661 203.162 148.083 200.858 147.158 196.851C146.932 195.874 146.636 194.614 146.292 193.153C145.227 188.624 143.708 182.167 142.441 176.239C141.608 172.325 140.949 168.631 140.556 165.922C140.348 164.567 140.209 163.455 140.117 162.679Z" fill="#F5C370"/>
<path d="M113.26 157.156L112.612 158.777C112.339 159.455 111.99 160.333 111.576 161.376L111.57 161.39C111.356 161.928 111.125 162.511 110.878 163.131C109.456 166.802 107.572 171.839 105.884 177.351C104.153 182.895 102.843 188.562 101.964 194.304C101.294 198.694 101.015 203.135 101.132 207.574C101.201 210.01 101.425 212.439 101.802 214.846C101.852 215.13 101.898 215.402 101.943 215.663L101.943 215.664C102.043 216.254 102.134 216.785 102.23 217.266C102.346 217.848 102.503 218.332 102.639 218.752C102.665 218.835 102.691 218.914 102.716 218.992C103.305 220.891 103.722 221.308 104.207 221.157C104.693 221.007 104.912 220.509 104.739 218.587C104.739 218.186 104.665 217.72 104.579 217.181C104.563 217.081 104.547 216.978 104.531 216.873C104.468 216.468 104.431 216.02 104.39 215.541C104.364 215.226 104.336 214.897 104.3 214.557C104.068 212.762 103.895 210.458 103.768 207.539C103.616 203.227 103.755 198.91 104.184 194.616C104.783 188.934 105.776 183.3 107.155 177.756C108.508 172.198 110.08 167.068 111.271 163.316L113.26 157.156Z" fill="#F5C370"/>
<path d="M100.97 148.286C101.074 148.193 101.074 148.286 101.074 148.286C101.051 148.077 100.635 148.795 100.08 149.849C99.5247 150.903 98.8079 152.362 98.0449 153.925C97.6325 154.776 97.2098 155.659 96.7955 156.523L96.7943 156.526L96.7934 156.528L96.7928 156.529C95.6866 158.838 94.6404 161.021 94.0099 162.158C92.2757 165.285 91.8364 165.563 90.9346 165.192C90.0328 164.822 89.9403 164.034 91.6976 160.861C93.3041 158.231 95.0484 155.687 96.9234 153.242C97.964 151.841 98.9698 150.544 99.7329 149.629C100.114 149.166 100.438 148.795 100.669 148.552C100.759 148.452 100.86 148.363 100.97 148.286Z" fill="#F5C370"/>
<path d="M115.965 128.345L115.063 128.403C114.786 128.403 114.416 128.403 114.011 128.484L112.647 128.75C110.088 129.402 107.63 130.4 105.34 131.715C100.743 134.39 96.4315 137.529 92.4722 141.083C87.9055 145.252 87.4315 146.097 88.0789 146.873C88.7263 147.649 89.6975 147.22 94.2527 143.075C97.9642 139.429 101.899 136.017 106.034 132.861C108.108 131.344 110.369 130.102 112.763 129.167L114.058 128.75C114.331 128.678 114.581 128.634 114.806 128.594C114.905 128.576 114.998 128.56 115.086 128.542L115.965 128.345Z" fill="#F5C370"/>
<path d="M77.292 108.798C79.4656 108.949 80.9107 109.157 80.7604 109.354C80.8876 109.146 79.4309 109.088 77.292 109.181C75.1531 109.273 72.2281 109.47 69.118 109.713C66.1151 109.942 62.9302 110.213 60.0743 110.456C56.9927 110.719 54.294 110.948 52.6199 111.057C46.1571 111.45 45.2784 111.346 45.0818 110.385C44.8853 109.424 45.9721 108.798 52.458 108.405C55.7184 108.219 62.8055 108.219 69.0834 108.405C72.2166 108.497 75.1184 108.648 77.292 108.798Z" fill="#F5C370"/>
<path d="M174.096 66.8564C174.096 66.8564 177.564 64.2857 181.831 61.8192C184.613 60.2104 187.701 58.5966 190.128 57.3282C191.422 56.652 192.528 56.074 193.3 55.6472C197.774 53.1923 198.34 52.5438 197.924 51.6637C197.508 50.7837 196.595 50.8416 192.074 53.3312C188.265 55.5364 184.614 58.005 181.149 60.7191C179.183 62.2477 177.426 63.7762 176.166 64.9342C174.905 66.0922 174.096 66.8564 174.096 66.8564Z" fill="#F5C370"/>
<path d="M142.926 112.678C141.256 113.796 139.523 114.817 137.735 115.735C137.735 115.735 139.863 113.905 142.094 111.647C143.347 110.379 144.651 108.979 145.759 107.791L145.76 107.789L145.762 107.787L145.763 107.787C146.625 106.861 147.369 106.063 147.875 105.556C150.245 103.275 150.858 103.159 151.54 103.865C152.222 104.572 152.095 105.162 149.701 107.478C147.573 109.375 145.309 111.113 142.926 112.678Z" fill="#F5C370"/>
<path d="M129.561 112.794C129.561 112.794 129.769 110.385 129.897 107.606C130.058 105.135 129.996 102.654 129.712 100.195C129.203 97.3113 128.706 96.9523 127.769 97.1723C126.833 97.3924 126.613 97.8903 127.11 100.646C127.225 101.292 127.443 102.299 127.696 103.467C127.978 104.773 128.304 106.28 128.579 107.71C129.099 110.42 129.561 112.794 129.561 112.794Z" fill="#F5C370"/>
<path d="M120.983 121.305C122.255 121.536 123.295 121.826 123.295 121.826L121.098 122.625C120.592 122.807 120.078 123.012 119.617 123.197C119.025 123.433 118.518 123.635 118.22 123.713C117.144 123.968 116.867 123.725 116.543 122.81C116.219 121.895 116.3 121.455 117.618 121.131C118.741 120.992 119.88 121.051 120.983 121.305Z" fill="#F5C370"/>
<path d="M134.117 122.706L135.516 124.339C136.151 125.134 136.899 125.832 137.735 126.411C138.811 126.967 139.146 126.701 139.527 125.798C139.909 124.894 139.897 124.535 138.961 124.061C138.063 123.72 137.144 123.438 136.209 123.215C135.111 122.914 134.117 122.706 134.117 122.706Z" fill="#F5C370"/>
<path d="M214.445 123.111L213.289 122.509L214.492 123.007L214.536 123.025C215.308 123.349 216.402 123.806 217.706 124.42C221.117 126.008 224.423 127.814 227.602 129.827C231.272 132.151 234.776 134.728 238.089 137.54C240.62 139.672 243.006 141.969 245.234 144.418C247.214 146.498 248.966 148.785 250.459 151.238C251.165 152.547 251.107 152.964 250.702 153.3C250.298 153.635 249.824 153.52 248.806 152.477C248.239 151.897 247.489 151.032 246.432 149.813L246.431 149.812L246.429 149.809C245.589 148.841 244.556 147.65 243.268 146.201C241.823 144.545 239.465 141.986 236.586 139.195C233.516 136.239 230.269 133.474 226.862 130.916C223.874 128.688 220.755 126.643 217.521 124.79C216.249 124.049 215.185 123.493 214.445 123.111Z" fill="#F5C370"/>
</g>
<defs>
<filter id="filter2_d" x="0" y="0" width="263" height="238" filterUnits="userSpaceOnUse" color-interpolation-filters="sRGB">
<feFlood flood-opacity="0" result="BackgroundImageFix"/>
<feColorMatrix in="SourceAlpha" type="matrix" values="0 0 0 0 0 0 0 0 0 0 0 0 0 0 0 0 0 0 127 0" result="hardAlpha"/>
<feOffset/>
<feGaussianBlur stdDeviation="6"/>
<feComposite in2="hardAlpha" operator="out"/>
<feColorMatrix type="matrix" values="0 0 0 0 0.952941 0 0 0 0 0.694118 0 0 0 0 0.27451 0 0 0 1 0"/>
<feBlend mode="normal" in2="BackgroundImageFix" result="effect1_dropShadow"/>
<feBlend mode="normal" in="SourceGraphic" in2="effect1_dropShadow" result="shape"/>
</filter>
</defs>
</svg>
