<svg width="348" height="323" viewBox="0 0 348 323" fill="none" xmlns="http://www.w3.org/2000/svg">
<g filter="url(#filter0_d)">
<path d="M113.729 57.6428L114.652 59.1407L113.589 57.9362L112.38 56.3621C112.044 55.9436 111.642 55.5099 111.212 55.0455C111.025 54.8437 110.833 54.6354 110.638 54.4208C107.319 50.8278 103.59 47.6369 99.5264 44.9137C90.3125 38.5415 78.428 34.1522 72.9936 32.1907C71.4436 31.6312 70.0757 31.1454 68.8721 30.718C65.8557 29.6468 63.8712 28.942 62.6388 28.3624C60.9148 27.5515 60.5654 26.9821 60.7549 26.3262C60.9445 25.6704 61.5022 25.3549 63.4442 25.6033C67.1397 26.3065 70.7608 27.3569 74.259 28.7404C78.3485 30.2619 82.3336 32.0506 86.1885 34.0949C91.2891 36.7355 96.1202 39.8669 100.613 43.4449C104.519 46.5375 108.032 50.0956 111.074 54.0402C111.24 54.2616 111.405 54.4754 111.564 54.6831C111.967 55.2086 112.341 55.6951 112.646 56.1657L113.729 57.6428Z" fill="#89EEC1"/>
<path d="M179.096 81.7434L179.415 79.695C179.599 78.5137 179.858 76.8468 180.072 74.8352C180.694 69.3977 180.915 63.9219 180.735 58.4519C180.505 52.1388 179.772 45.854 178.543 39.6575C177.619 34.9388 176.406 30.2814 174.911 25.7115C173.717 21.7472 172.169 17.8977 170.288 14.2093C169.235 12.3399 168.614 12.0486 167.985 12.3087C167.355 12.5688 167.114 13.1991 167.626 15.2685C168.006 16.8015 168.798 19.1069 170.016 22.6564C170.442 23.8981 170.921 25.2921 171.452 26.8586C171.558 27.1795 171.669 27.5181 171.787 27.8736L171.789 27.8812L171.799 27.9108L171.8 27.9118L171.8 27.9136C172.818 30.9928 174.249 35.3224 175.525 40.3424C177.101 46.3288 178.237 52.4227 178.922 58.5751C179.494 63.956 179.692 69.3701 179.515 74.7785C179.477 76.6082 179.365 78.1405 179.28 79.3018L179.279 79.305C179.265 79.502 179.251 79.6884 179.239 79.8636L179.096 81.7434Z" fill="#89EEC1"/>
<path d="M148.899 66.4881L149.063 67.7452L148.732 66.5746C148.437 65.4809 148.086 64.4032 147.68 63.3457C146.425 59.9557 144.77 56.7271 142.752 53.728C140.433 50.3392 137.762 47.2049 134.784 44.3774C131.995 41.731 129.359 39.6311 127.684 38.3283C126.599 37.4799 125.654 36.7571 124.838 36.133L124.836 36.1318L124.835 36.1307C123.145 34.838 122.008 33.9686 121.329 33.2825C120.323 32.2647 120.288 31.7514 120.643 31.1225C120.998 30.4936 121.52 30.2798 122.903 30.8278C125.449 32.039 127.827 33.5789 129.973 35.408C132.519 37.4613 134.883 39.7303 137.04 42.1897C139.882 45.4069 142.332 48.9498 144.339 52.7442C146.064 56.0302 147.372 59.5182 148.234 63.1277C148.516 64.2352 148.738 65.3569 148.899 66.4881Z" fill="#89EEC1"/>
<path d="M106.238 80.6132L105.655 79.6211C105.146 78.729 104.585 77.8673 103.975 77.0404C101.999 74.3807 99.7177 71.9624 97.1774 69.8352C91.9998 65.5413 86.3126 61.902 80.2446 58.9997C73.1193 55.7375 71.8255 55.7444 71.2686 56.9337C70.7116 58.123 71.6761 59.0653 78.6817 62.2784C84.6867 64.8196 90.488 67.8178 96.0344 71.2466C98.7377 73.0281 101.242 75.0941 103.506 77.4092C104.198 78.1386 104.84 78.9146 105.427 79.7318L106.238 80.6132Z" fill="#89EEC1"/>
<path d="M139.303 100.738L139.923 102.016L139.144 100.759C138.72 99.9886 138.009 98.8837 137.11 97.5767C134.821 94.2327 132.359 91.0102 129.734 87.9224C124.351 81.7878 118.661 75.9294 112.686 70.3696C105.793 63.6785 104.988 62.3432 105.896 61.367C106.804 60.3908 108.288 60.974 115.257 67.7523C121.094 73.6515 126.416 80.0393 131.163 86.8459C133.492 90.221 135.629 93.7244 137.565 97.3394C138.217 98.5103 138.715 99.5323 139.092 100.307L139.21 100.549C139.242 100.614 139.273 100.677 139.303 100.738Z" fill="#89EEC1"/>
<path d="M150.474 144.579L158.071 151.582C158.071 151.582 153.894 149.085 149.336 146.022L137.181 138.075C132.531 134.927 132.007 134.137 132.682 132.981C133.356 131.825 134.453 131.795 139.263 135.052C143.187 138.001 146.931 141.182 150.474 144.579Z" fill="#89EEC1"/>
<path d="M187.813 115.45C187.813 115.45 195.299 76.8142 196.977 65.2345C198.655 53.6548 198.458 51.7709 197.121 51.573C195.785 51.3751 195.04 53.1068 193.348 64.7045C191.656 76.3021 187.813 115.45 187.813 115.45Z" fill="#89EEC1"/>
<path d="M229.089 149.02L230.876 148.706L231.207 148.626C232.331 148.351 233.872 147.975 235.729 147.571C239.848 146.646 245.463 145.525 251.542 144.732C257.652 143.902 263.806 143.44 269.972 143.348C274.676 143.273 279.381 143.47 284.063 143.938C288.119 144.274 292.132 145.002 296.047 146.113C298.043 146.775 298.447 147.386 298.299 147.988C298.151 148.59 297.596 149.051 295.525 148.933C294.273 148.861 292.47 148.643 289.868 148.327L289.866 148.327C288.164 148.121 286.121 147.873 283.667 147.599C280.562 147.243 275.623 146.722 269.923 146.446C263.856 146.169 257.778 146.205 251.715 146.555C245.653 146.86 240.005 147.596 235.867 148.136L229.089 149.02Z" fill="#89EEC1"/>
<path d="M221.308 187.014L222.353 187.461C222.435 187.494 222.522 187.53 222.612 187.567C223.282 187.842 224.188 188.213 225.123 188.718C228.017 190.197 230.769 191.94 233.343 193.925C238.438 198.009 243.148 202.552 247.412 207.497C252.54 213.188 253.532 213.965 254.607 213.032C255.683 212.098 255.392 210.858 250.094 204.978C245.444 200.08 240.149 195.838 234.354 192.369C231.489 190.673 228.465 189.263 225.325 188.157C224.118 187.716 223.093 187.429 222.39 187.245L221.308 187.014Z" fill="#89EEC1"/>
<path d="M204.728 184.597L202.181 183.553L204.782 184.509L207.813 185.538C208.526 185.837 209.283 186.193 210.094 186.573C210.587 186.805 211.1 187.046 211.634 187.289C218.769 190.823 225.323 195.425 231.07 200.937C237.692 207.295 243.586 214.37 248.644 222.031C252.524 227.789 255.963 233.832 258.932 240.109C261.595 245.509 263.724 251.155 265.29 256.968C265.995 260.016 265.778 260.837 265.124 261.036C264.471 261.234 263.799 260.675 262.578 257.889C262.212 257.053 261.787 256.015 261.267 254.745L261.265 254.739L261.264 254.736C260.051 251.772 258.32 247.542 255.606 241.659C252.766 235.464 249.565 229.44 246.019 223.619C241.384 215.931 235.935 208.763 229.767 202.24C224.389 196.531 218.19 191.656 211.374 187.776C210.797 187.477 210.246 187.182 209.719 186.901L209.718 186.9L209.717 186.9L209.715 186.899L209.712 186.897L209.709 186.895C208.988 186.51 208.311 186.149 207.673 185.831L204.728 184.597Z" fill="#89EEC1"/>
<path d="M196.514 186.752L197.041 187.201C197.385 187.48 197.877 187.902 198.433 188.444C199.87 189.822 201.204 191.304 202.426 192.875C204.246 195.152 206.004 197.78 207.402 199.87L207.403 199.871C208.173 201.022 208.835 202.011 209.337 202.688C212.146 206.48 212.954 206.844 214.061 206.02C215.167 205.196 215.11 204.265 212.287 200.49C209.739 197.245 206.873 194.263 203.731 191.589C202.178 190.268 200.528 189.066 198.795 187.992C198.11 187.58 197.535 187.266 197.059 187.086L196.514 186.752Z" fill="#89EEC1"/>
<path d="M188.325 189.358L187.857 188.626L188.404 189.218C188.948 189.772 189.457 190.359 189.928 190.978C191.466 192.986 192.799 195.143 193.907 197.417C196.105 201.991 197.915 206.741 199.319 211.617C200.896 217.253 200.676 218.172 199.458 218.638C198.241 219.105 197.365 218.345 195.78 212.645C195.516 211.654 195.214 210.251 194.863 208.618L194.863 208.617L194.862 208.615C194.199 205.533 193.36 201.634 192.271 198.149C191.557 195.8 190.632 193.521 189.506 191.34C189.156 190.654 188.761 189.992 188.325 189.358Z" fill="#89EEC1"/>
<path d="M176.093 189.626C176.093 189.626 175.493 193.216 174.966 197.363C174.439 201.51 173.876 206.131 173.73 208.238C173.488 212.461 173.812 213.082 175.198 213.29C176.585 213.497 177.14 212.794 177.398 208.439C177.429 204.75 177.235 201.062 176.815 197.397L176.093 189.626Z" fill="#89EEC1"/>
<path d="M164.477 203.182C166.228 199.77 168.168 196.459 170.288 193.264C169.706 197.051 168.91 200.802 167.902 204.499C166.974 206.934 166.386 207.14 165.107 206.644C163.828 206.147 163.547 205.601 164.477 203.182Z" fill="#89EEC1"/>
<path d="M156.985 225.392C156.985 225.392 153.542 231.877 149.926 239.518C146.677 246.243 143.795 253.14 141.293 260.177C138.596 268.54 138.807 270.034 140.083 270.385C141.359 270.737 142.129 269.568 144.792 261.323C145.095 260.381 145.473 259.18 145.91 257.794C147.383 253.119 149.52 246.335 151.668 240.213C154.452 232.276 156.985 225.392 156.985 225.392Z" fill="#89EEC1"/>
<path d="M146.74 181.835C148.304 181.076 149.916 180.423 151.566 179.878C151.566 179.878 149.696 181.417 147.809 183.33C146.225 184.983 144.751 186.737 143.396 188.582C141.799 190.603 141.266 190.737 140.11 190.063C138.954 189.388 138.679 188.647 140.567 186.249C142.329 184.402 144.423 182.904 146.74 181.835Z" fill="#89EEC1"/>
<path d="M97.1756 198.122L95.6695 198.982C94.6573 199.535 93.2107 200.355 91.4928 201.453C87.0856 204.239 82.8817 207.334 78.9129 210.716C74.3395 214.602 70.0191 218.776 65.9781 223.214C62.8793 226.579 59.9805 230.124 57.2967 233.829C54.8995 236.986 52.8314 240.379 51.1247 243.956C50.3387 245.871 50.4854 246.499 51.0963 246.84C51.7072 247.182 52.3312 247.003 53.5828 245.432C54.3318 244.492 55.3241 243.062 56.7531 241.003L56.7538 241.002C57.7124 239.62 58.868 237.955 60.2779 235.965C62.0262 233.488 64.8635 229.557 68.3414 225.203C72.0238 220.589 75.9734 216.194 80.17 212.041C83.8145 208.405 87.6978 205.017 91.7937 201.899C93.4134 200.668 94.7459 199.718 95.7318 199.087L97.1756 198.122Z" fill="#89EEC1"/>
<path d="M82.1166 227.712L83.5543 226.327L82.2128 227.829C82.013 228.05 81.7896 228.289 81.5471 228.549C80.7424 229.413 79.7267 230.502 78.6636 231.884C75.7121 235.312 71.8067 240.11 68.0056 245.46C61.2811 254.851 55.7011 265.01 51.3838 275.723C50.4855 277.926 49.7803 279.824 49.1804 281.437C48.9287 282.114 48.6956 282.741 48.4745 283.32C48.1905 284.064 47.9389 284.734 47.7131 285.334C47.3443 286.315 47.0447 287.112 46.7864 287.748C45.9119 289.853 45.2927 290.192 44.6389 290.019C43.9851 289.845 43.6772 289.222 44.0294 286.959C44.2764 285.337 44.658 283.739 45.1703 282.181C45.9724 279.503 46.9144 276.868 47.9924 274.288C49.9719 269.579 52.2988 265.024 54.9538 260.66C58.4186 254.933 62.2978 249.467 66.5604 244.306C70.7765 239.16 75.0459 234.67 78.2513 231.452C79.8411 229.87 81.1799 228.594 82.1166 227.712Z" fill="#89EEC1"/>
<path d="M139.088 159.642L137.397 159.085C137.232 159.027 137.055 158.963 136.867 158.896C135.879 158.542 134.586 158.079 133.03 157.616C128.295 156.159 123.461 155.048 118.566 154.291C108.628 152.853 98.5608 152.537 88.5529 153.35C76.8531 154.472 75.1359 155.327 75.3144 156.695C75.4929 158.064 77.3366 158.179 88.8773 157.079C98.67 155.971 108.538 155.68 118.379 156.209C123.259 156.559 128.108 157.252 132.89 158.281C134.604 158.615 136.016 158.974 137.05 159.237L137.362 159.316L139.088 159.642Z" fill="#89EEC1"/>
<path d="M59.1528 167.656L64.1493 165.887L59.3569 168.228L58.6262 168.583L58.6241 168.584C55.7982 169.959 52.1217 171.747 48.2935 173.733C44.1252 175.895 39.7333 178.329 35.9856 180.614C32.2378 182.899 29.0346 185.016 27.0234 186.346C26.0098 187.017 25.1076 187.619 24.302 188.157C21.9104 189.755 20.3692 190.784 19.2913 191.336C17.8502 192.074 17.2746 192.004 16.8415 191.413C16.4084 190.822 16.4333 190.268 17.5375 189.056C19.8071 186.843 22.3146 184.888 25.0143 183.226C28.0769 181.258 31.2463 179.462 34.5078 177.845C38.5316 175.815 43.1587 173.82 47.5519 172.017C51.9451 170.214 56.0575 168.739 59.1528 167.656Z" fill="#89EEC1"/>
<path d="M189.093 158.396C191.83 155.396 194.753 152.571 197.846 149.939C201.165 147.081 204.955 144.205 207.874 141.991L207.875 141.99L207.876 141.989L207.878 141.987C209.281 140.923 210.483 140.011 211.334 139.328C216.592 135.098 217.126 134.106 216.288 133.017C215.45 131.929 214.321 132.206 209.018 136.458C204.574 140.208 200.41 144.278 196.559 148.634C194.652 150.789 192.855 153.038 191.175 155.373C190.515 156.268 189.999 157.031 189.648 157.563L189.093 158.396Z" fill="#89EEC1"/>
<path d="M168.93 181.481C171.164 178.942 173.553 176.544 176.085 174.301C174.92 177.479 173.557 180.581 172.004 183.589C170.633 185.483 170.038 185.512 168.915 184.72C167.792 183.928 167.558 183.376 168.93 181.481Z" fill="#89EEC1"/>
<path d="M177.266 166.978C176.828 165.529 176.271 164.118 175.599 162.761C174.671 160.802 173.447 158.997 171.972 157.408C170.13 155.69 169.47 155.841 168.667 156.884C167.864 157.928 167.796 158.519 169.496 160.013C169.86 160.341 170.442 160.792 171.124 161.319C172.057 162.04 173.177 162.907 174.182 163.804C175.271 164.801 176.3 165.861 177.266 166.978Z" fill="#89EEC1"/>
<path d="M280.318 134.7L278.868 135.245L280.249 134.547L281.877 133.752C282.307 133.562 282.76 133.395 283.244 133.216L283.245 133.216C283.518 133.115 283.802 133.011 284.096 132.896C288.38 131.438 292.872 130.683 297.398 130.66C307.837 130.415 319.26 133.505 324.327 135.126C334.444 138.5 335.759 139.526 335.303 140.864C334.846 142.202 333.147 141.954 323.197 138.624C322.701 138.464 322.147 138.282 321.542 138.082L321.537 138.081C316.074 136.283 306.413 133.104 297.362 132.493C292.973 132.121 288.553 132.446 284.266 133.457C283.976 133.534 283.69 133.605 283.414 133.674C282.902 133.801 282.421 133.921 281.998 134.06L280.318 134.7Z" fill="#89EEC1"/>
<path d="M233.405 83.5936L234.112 82.5628C234.453 81.9958 235.008 81.2791 235.675 80.4165L235.679 80.4124C235.817 80.2341 235.959 80.0496 236.106 79.859C238.399 77.1131 240.859 74.5114 243.473 72.0687C248.677 67.1203 254.983 62.1783 258.683 59.2784L258.687 59.2758C259.193 58.8793 259.65 58.521 260.049 58.2062C266.701 53.0014 267.613 52.057 266.809 50.8511C266.004 49.6451 264.559 49.9793 257.756 55.2685C252.105 59.9686 246.874 65.1506 242.12 70.7562C239.755 73.5077 237.583 76.419 235.618 79.4695C235.455 79.7495 235.297 80.0171 235.147 80.2721L235.144 80.2762C234.637 81.1355 234.214 81.8516 233.964 82.4202L233.405 83.5936Z" fill="#89EEC1"/>
<path d="M57.0213 76.3672L60.329 77.7807L56.8594 76.9871C56.3312 76.8595 55.7548 76.7186 55.1391 76.5682L55.1359 76.5674C53.3177 76.1229 51.1575 75.5949 48.8914 75.0809C42.797 73.6424 35.9242 72.5644 32.7909 72.1153C26.5179 71.1694 25.5805 70.8062 25.6566 69.4045C25.7327 68.0028 26.7746 67.4299 33.3741 68.398C38.8625 69.5011 44.2332 71.1254 49.4131 73.2488C52.3451 74.3877 55.0502 75.5238 57.0213 76.3672Z" fill="#89EEC1"/>
<path d="M176.18 142.148C176.18 142.148 176.002 137.932 175.704 131.303C175.406 124.674 174.854 115.602 173.837 105.944C172.851 96.2279 171.364 86.569 169.383 77.0061C167.881 69.7132 165.964 62.5121 163.641 55.4379C162.029 50.6474 160.634 46.8968 159.382 44.0014C158.51 41.8007 157.517 39.6503 156.406 37.5601C154.828 34.6425 154.094 34.107 153.469 34.3989C152.843 34.6909 152.733 35.5792 153.771 38.6968C154.13 39.7555 154.614 41.0773 155.223 42.7396L155.223 42.7407C155.505 43.5116 155.814 44.3556 156.15 45.2806C156.393 45.948 156.654 46.6544 156.931 47.4036L156.931 47.4049C157.865 49.9337 158.98 52.9506 160.168 56.603C161.708 61.3381 164.149 68.8849 166.367 77.7069C168.586 86.5289 170.56 96.5803 172.007 106.183C173.454 115.785 174.429 124.753 175.143 131.344C175.857 137.934 176.18 142.148 176.18 142.148Z" fill="#89EEC1"/>
<path d="M167.721 148.511C167.678 148.361 167.658 148.206 167.66 148.05C167.641 148.185 167.632 148.322 167.633 148.458C167.684 148.587 167.804 148.827 167.902 149.021L167.903 149.022L167.904 149.024C167.945 149.106 167.983 149.18 168.009 149.234C168.03 149.277 168.061 149.327 168.096 149.381L168.32 149.851C168.319 149.853 168.318 149.856 168.317 149.858C168.291 149.906 168.317 149.959 168.343 150.016C168.373 150.08 168.405 150.147 168.364 150.213C168.338 150.199 168.298 150.181 168.253 150.159C168.216 150.142 168.176 150.124 168.137 150.104C168.095 150.084 168.053 150.062 168.017 150.042C166.762 145.417 165.16 140.892 163.226 136.507C160.828 130.932 157.921 125.59 154.542 120.55C153.128 118.359 151.458 116.344 149.568 114.547C148.516 113.681 147.973 113.735 147.43 114.162C146.318 115.068 146.901 116.189 151.532 122.658C151.71 122.909 151.903 123.181 152.111 123.472C154.353 126.622 158.207 132.037 161.344 137.464C164.771 143.394 167.385 149.041 167.844 150.081C167.98 150.174 168.132 150.242 168.291 150.282L168.299 150.277C168.306 150.272 168.313 150.267 168.319 150.262C168.326 150.257 168.333 150.251 168.338 150.245C168.349 150.235 168.358 150.224 168.364 150.213C168.385 150.224 168.398 150.232 168.399 150.236L168.359 149.933L168.32 149.851C168.355 149.766 168.243 149.599 168.139 149.444L168.118 149.413L168.096 149.381L168.069 149.324C168.013 149.195 167.956 149.08 167.906 148.978C167.811 148.786 167.737 148.636 167.721 148.511Z" fill="#89EEC1"/>
<path d="M190.532 129.596C190.532 129.596 196.096 117.412 202.755 103.58C209.415 89.7487 217.34 74.328 221.035 67.2918C228.374 53.2097 229.355 50.9294 228.093 50.1877C226.831 49.446 225.16 51.3956 217.753 65.5835C214.049 72.6695 206.845 88.5303 201.067 102.797C195.29 117.064 190.532 129.596 190.532 129.596Z" fill="#89EEC1"/>
<path d="M224.323 125.755L217.892 131.044L223.928 125.208C225.033 124.187 226.256 123.039 227.575 121.8C230.687 118.878 234.335 115.454 238.228 112.014C243.771 107.116 249.81 101.797 255.368 97.5114C260.926 93.2261 265.995 89.6521 269.288 87.6042C273.397 84.8501 277.736 82.4542 282.255 80.4429C284.623 79.4868 285.352 79.6183 285.674 80.2237C285.995 80.829 285.669 81.5513 283.604 82.9696C282.479 83.743 280.831 84.7576 278.518 86.1818L278.516 86.183L278.515 86.1841L278.512 86.1855L278.511 86.1864C276.584 87.3732 274.194 88.8445 271.261 90.6968C268.032 92.7364 262.93 96.0559 257.223 100.069C251.516 104.083 245.236 108.915 239.424 113.493C234.527 117.35 229.952 121.119 226.281 124.143C225.595 124.708 224.941 125.246 224.323 125.755Z" fill="#89EEC1"/>
<path d="M222.917 142.025L224.125 141.236C224.896 140.698 226.017 139.986 227.434 139.186C231.029 137.121 234.761 135.305 238.603 133.748C246.419 130.702 254.424 128.166 262.567 126.156C272.046 123.641 273.498 123.112 273.18 121.665C272.862 120.217 271.255 120.055 261.587 122.61C253.374 124.969 245.417 128.143 237.836 132.084C234.107 134.022 230.528 136.236 227.129 138.708C225.782 139.677 224.742 140.508 224.044 141.117L222.917 142.025Z" fill="#89EEC1"/>
<path d="M206.549 166.913L203.876 167.262L206.519 166.933L206.818 166.885L209.646 166.59C210.441 166.487 211.313 166.492 212.247 166.497C212.735 166.5 213.24 166.503 213.76 166.491C221.476 166.485 229.156 167.525 236.593 169.582C245.115 171.991 253.387 175.209 261.296 179.193C268.761 182.832 275.063 186.477 278.99 188.797C282.118 190.631 284.712 192.179 286.87 193.468C290.165 195.435 292.445 196.796 294.061 197.642C296.736 199.041 297.58 199.06 297.959 198.493C298.338 197.925 297.994 197.145 295.627 195.253C290.918 191.72 285.978 188.504 280.842 185.626C274.957 182.182 268.879 179.079 262.638 176.332C254.423 172.663 245.856 169.839 237.07 167.901C229.434 166.233 221.606 165.621 213.803 166.081C212.986 166.187 212.241 166.229 211.546 166.268C210.889 166.304 210.276 166.339 209.689 166.423L206.818 166.885L206.549 166.913Z" fill="#89EEC1"/>
<path d="M216.954 202.52L218.34 204.459C218.471 204.642 218.611 204.836 218.758 205.04C219.61 206.221 220.72 207.758 221.959 209.748C225.717 215.454 229.102 221.397 232.095 227.539C235.522 234.575 238.53 241.808 241.102 249.199C243.53 256.149 245.352 262.304 246.46 266.205C247.21 268.791 247.844 271.014 248.388 272.921L248.389 272.925L248.391 272.93L248.391 272.932C249.485 276.768 250.215 279.329 250.802 281.013C251.682 283.536 252.299 284.055 252.957 283.888C253.615 283.721 253.928 283.017 253.595 280.341C252.758 275.202 251.555 270.13 249.997 265.161C248.867 261.214 246.782 255.029 244.007 248.141C241.043 240.786 237.612 233.628 233.735 226.71C230.346 220.716 226.572 214.949 222.437 209.443C220.843 207.272 219.44 205.578 218.461 204.395L216.954 202.52Z" fill="#89EEC1"/>
<path d="M267.499 234.201L266.692 233.222L267.684 234.129C267.857 234.306 268.062 234.506 268.292 234.729L268.294 234.731L268.295 234.732C268.808 235.23 269.442 235.846 270.109 236.596C272.587 239.373 274.785 242.388 276.672 245.596C280.407 252.117 283.474 258.999 285.824 266.137C288.534 274.506 288.458 275.908 287.151 276.305C285.843 276.702 284.977 275.52 282.277 267.23C280.269 260.151 277.833 253.199 274.983 246.415C273.485 243.089 271.678 239.911 269.586 236.923C268.938 235.98 268.241 235.072 267.499 234.201Z" fill="#89EEC1"/>
<path d="M205.498 212.704L206.259 214.32C206.764 215.339 207.46 216.834 208.223 218.709C210.173 223.452 211.859 228.3 213.272 233.231C214.201 236.385 215.076 239.679 215.935 242.91L215.936 242.913C216.609 245.444 217.271 247.936 217.941 250.294C219.467 255.662 220.873 260.366 221.852 263.281C223.058 267.006 224.649 270.595 226.599 273.99C227.715 275.722 228.327 275.95 228.935 275.644C229.542 275.338 229.768 274.71 229.212 272.808C228.872 271.642 228.253 269.978 227.353 267.555L227.352 267.552C226.784 266.022 226.103 264.189 225.309 261.989C224.543 259.885 223.496 256.843 222.266 253.269L222.257 253.243C221.827 251.996 221.376 250.684 220.906 249.325C220.499 248.147 220.085 246.936 219.662 245.702L219.662 245.7L219.661 245.696C218.195 241.413 216.639 236.864 214.998 232.568C213.19 227.732 211.099 223.006 208.735 218.416C207.819 216.609 206.986 215.18 206.387 214.19L205.498 212.704Z" fill="#89EEC1"/>
<path d="M182.977 212.259C182.912 208.659 182.888 206.364 182.888 206.364C182.888 206.364 183.137 208.645 183.523 212.22C183.814 214.927 184.258 218.376 184.746 222.158L184.747 222.17C184.903 223.378 185.063 224.621 185.224 225.884C185.888 231.105 186.533 236.669 186.956 241.647C187.379 246.625 187.593 250.999 187.548 253.756C187.645 257.261 187.381 260.766 186.76 264.217C186.345 266.002 185.86 266.373 185.173 266.317C184.486 266.261 184.035 265.786 183.901 264.007C183.787 262.51 183.815 260.079 183.861 256.132C183.866 255.623 183.873 255.088 183.879 254.528L183.887 253.732C183.909 251.043 183.916 246.753 183.87 241.807C183.823 236.861 183.632 231.303 183.431 226.037C183.23 220.771 183.042 215.86 182.977 212.259Z" fill="#89EEC1"/>
<path d="M146.242 217.6L142.482 223.512C140.189 227.145 137.128 232.092 133.943 237.573C130.757 243.054 127.656 248.928 125.209 254.361C123.189 258.749 121.454 263.262 120.012 267.873C119.234 270.404 118.586 272.973 118.071 275.57C117.73 277.071 117.518 278.599 117.436 280.136C117.317 282.32 117.682 282.887 118.359 282.993C119.036 283.099 119.58 282.672 120.242 280.676C120.563 279.663 120.947 278.27 121.475 276.356C121.624 275.814 121.781 275.229 121.95 274.599L121.951 274.596C122.377 273.005 122.881 271.129 123.533 268.935C124.444 265.871 125.981 261.025 128.067 255.558C130.154 250.091 132.845 244.044 135.539 238.4C137.8 233.666 140.095 229.28 141.945 225.745C142.3 225.066 142.639 224.418 142.958 223.806L146.242 217.6Z" fill="#89EEC1"/>
<path d="M162.001 183.696L162.533 183.432L162.169 183.868C161.878 184.117 161.472 184.477 160.998 184.943C159.787 186.075 158.67 187.303 157.658 188.616C155.699 191.312 153.904 194.124 152.283 197.036C150.225 200.363 149.542 200.711 148.368 200.023C147.194 199.335 147.031 198.579 149.177 195.062C151.15 192.149 153.535 189.538 156.258 187.309C157.608 186.22 159.053 185.252 160.574 184.416C161.161 184.081 161.649 183.855 162.001 183.696Z" fill="#89EEC1"/>
<path d="M128.019 202.45L126.241 203.831L126.121 203.923L126.12 203.924C124.978 204.797 123.361 206.033 121.454 207.579C117.466 210.753 112.09 215.193 106.677 220.349C101.213 225.488 96.1305 231.019 91.471 236.898C87.9262 241.394 84.7107 246.14 81.8494 251.099C79.9572 254.583 78.5423 257.26 77.5848 259.472C76.7991 261.129 76.1299 262.839 75.5819 264.588C74.8187 267.051 75.0097 267.77 75.642 268.028C76.2744 268.285 76.9309 267.86 78.2095 265.751C78.705 264.867 79.3108 263.709 80.1005 262.198C80.2943 261.828 80.4991 261.436 80.7161 261.022C80.8534 260.76 80.9948 260.489 81.1409 260.21C82.1666 258.248 83.4192 255.852 85.0519 252.947C87.7769 248.063 90.7505 243.321 93.9609 238.741C98.2342 232.697 102.919 226.954 107.983 221.554C112.994 216.046 117.985 211.381 121.808 207.937C123.422 206.447 124.797 205.227 125.842 204.299C126.012 204.148 126.174 204.004 126.326 203.869L128.019 202.45Z" fill="#89EEC1"/>
<path d="M135.355 162.912L138.199 162.751L135.431 162.999L132.138 163.429C131.537 163.507 130.9 163.612 130.227 163.722C129.475 163.846 128.678 163.977 127.838 164.087C119.768 165.418 111.801 167.312 103.995 169.753C95.0392 172.569 86.2955 176.019 77.8297 180.076C71.4349 183.15 65.2021 186.55 59.1561 190.264C57.5936 191.187 56.1939 192.089 54.902 192.921L54.9 192.923C54.4784 193.194 54.0675 193.459 53.6669 193.715C52.0383 194.752 50.6062 195.683 49.3927 196.554L43.7659 200.314C41.1078 202.02 40.1987 202.122 39.776 201.611C39.3533 201.1 39.6515 200.284 42.0183 198.082C42.1941 197.929 42.3779 197.765 42.5715 197.592L42.5724 197.591L42.5741 197.59L42.5752 197.589C43.0528 197.163 43.5901 196.684 44.2136 196.177L47.3871 193.708C48.4808 192.813 49.7686 191.959 51.23 190.99L51.934 190.523L51.9353 190.522C53.5021 189.482 55.2457 188.324 57.2604 187.145C63.4505 183.412 69.8937 180.117 76.5429 177.282C85.2535 173.508 94.2418 170.409 103.428 168.015C111.4 165.938 119.514 164.447 127.704 163.554C128.235 163.501 128.751 163.453 129.25 163.407L129.251 163.407L129.256 163.407L129.26 163.406L129.263 163.406L129.266 163.406C130.262 163.314 131.193 163.228 132.048 163.117L135.355 162.912Z" fill="#89EEC1"/>
<path d="M67.1641 201.163L66.0979 201.302C65.1372 201.442 64.192 201.674 63.2752 201.993C60.3322 203.046 57.5043 204.397 54.8353 206.023C49.4255 209.246 44.2903 212.909 39.4818 216.975C33.9706 221.87 33.5271 223.06 34.4562 224.104C35.3854 225.148 36.4972 224.615 41.9849 219.789C42.7261 219.138 43.6857 218.259 44.8009 217.237L44.8023 217.236C47.7944 214.494 51.9067 210.726 55.9305 207.596C58.308 205.685 60.864 204.008 63.563 202.587C64.4082 202.147 65.2934 201.787 66.2065 201.514L67.1641 201.163Z" fill="#89EEC1"/>
<path d="M145.352 155.556L147.411 157.197L145.335 155.671L142.839 153.909L139.345 151.937C132.678 148.43 125.606 145.754 118.288 143.97C103.251 140.065 85.9161 138.724 76.0839 137.964L76.0784 137.963C74.9822 137.879 73.9793 137.801 73.0834 137.728C55.186 136.372 52.382 135.718 52.4982 134.376C52.6145 133.034 55.4033 132.703 73.3823 134.064C82.3451 134.788 102.074 136.909 118.784 142.19C126.095 144.389 133.101 147.499 139.637 151.446L142.951 153.652L145.352 155.556Z" fill="#89EEC1"/>
<path d="M185.164 169.217C187.693 169.647 190.177 170.303 192.589 171.178C194.763 171.945 197.04 172.91 198.973 173.73L198.976 173.731C200.467 174.363 201.753 174.908 202.63 175.209C206.653 176.642 207.465 176.423 207.894 175.121C208.323 173.819 207.884 173.18 203.846 171.749C200.313 170.626 196.683 169.837 193.003 169.392C190.404 169.052 187.776 168.993 185.164 169.217Z" fill="#89EEC1"/>
<path d="M287.731 167.217L286.601 166.749L287.793 167.079C288.547 167.272 289.639 167.583 290.946 168.044C294.308 169.189 297.586 170.567 300.757 172.17C307.127 175.464 313.252 179.214 319.083 183.39C325.841 188.302 326.613 189.383 325.852 190.502C325.092 191.62 323.705 191.283 316.929 186.357C315.842 185.576 314.386 184.451 312.688 183.139L312.685 183.136C309.086 180.354 304.402 176.734 299.85 173.777C296.926 171.843 293.877 170.105 290.723 168.574C289.446 167.964 288.451 167.528 287.731 167.217Z" fill="#89EEC1"/>
<path d="M116.94 118.495L114.517 116.917L111.686 115.069L107.851 112.835C100.554 108.698 92.9083 105.211 85.0007 102.415C75.8831 99.1501 66.434 96.8982 56.824 95.6999C49.4717 94.7159 42.0265 94.638 34.6552 95.4678L31.0749 95.9347L27.9235 96.5885L25.1202 97.1807C24.5318 97.3224 23.9847 97.5023 23.4631 97.6739C23.2058 97.7585 22.9546 97.8411 22.7077 97.9161L18.7995 99.2188C17.9993 99.5243 17.3164 99.8664 16.7153 100.168C16.4941 100.278 16.2841 100.384 16.0833 100.479C13.0482 102.024 12.6061 102.729 12.898 103.355C13.19 103.98 14.0942 104.089 17.1445 103.157C17.4611 103.062 17.7971 102.945 18.1588 102.819L18.16 102.818C18.6698 102.641 19.2311 102.445 19.8607 102.269L23.6472 101.273C23.8972 101.207 24.1519 101.132 24.4129 101.055C24.9032 100.911 25.4158 100.761 25.9607 100.648L28.6451 100.136L31.6754 99.5462L35.0807 99.1021C42.1895 98.2166 49.3727 98.0935 56.5078 98.7351C65.9757 99.5536 75.3329 101.354 84.4285 104.108C92.389 106.508 100.131 109.58 107.571 113.292L111.509 115.319L114.414 116.996L116.94 118.495Z" fill="#89EEC1"/>
<path d="M57.9111 146.099L58.9689 146.269L57.8876 146.167C57.6462 146.17 57.3655 146.169 57.0502 146.169C56.4792 146.168 55.7946 146.167 55.0254 146.184C52.6033 146.225 49.3295 146.312 45.8605 146.765C39.7854 147.519 33.7766 148.736 27.8864 150.404C20.9596 152.262 19.8098 152.379 19.3407 151.016C19.1366 150.444 19.2632 149.926 20.3266 149.269C22.4372 148.199 24.6796 147.411 26.996 146.927C33.1591 145.517 39.4726 144.873 45.7934 145.009C48.8915 145.079 51.984 145.308 55.0586 145.694C56.086 145.81 56.9498 145.947 57.6022 146.051L57.9111 146.099Z" fill="#89EEC1"/>
<path d="M159.73 116.652L159.577 114.86L159.403 112.779L159.046 110.042C158.123 104.899 156.621 99.8778 154.569 95.0732C150.276 85.4331 144.911 76.3069 138.576 67.8668C131.143 58.0257 129.598 56.8516 128.522 57.6555C127.445 58.4594 128.249 60.2804 135.624 70.0482C136.104 70.6922 136.664 71.4321 137.288 72.2553L137.29 72.2582L137.295 72.2652L137.298 72.2689L137.299 72.2707C141.418 77.7088 148.282 86.7706 152.907 95.8563C155.286 100.406 157.155 105.204 158.479 110.164C158.561 110.495 158.645 110.816 158.727 111.127C158.885 111.73 159.032 112.293 159.132 112.814L159.498 114.87L159.73 116.652Z" fill="#89EEC1"/>
<path d="M138.479 124.198L139.917 125.92L138.358 124.263L138.228 124.126C137.242 123.083 135.875 121.637 134.107 119.962C129.504 115.485 124.668 111.254 119.62 107.286C113.828 102.733 107.778 98.5189 101.5 94.6635C95.6226 91.0442 90.2968 88.1784 86.9275 86.4169C84.0796 84.9236 81.7141 83.7216 79.7743 82.736C77.1352 81.3951 75.2844 80.4547 74.0794 79.7257C71.9886 78.461 71.5631 77.8044 71.8205 77.172C72.0779 76.5397 72.7995 76.3646 75.2278 77.116C79.8695 78.7423 84.3622 80.7662 88.6558 83.1652C93.6634 85.8617 98.5188 88.8321 103.2 92.0628C114.709 99.9658 125.229 109.221 134.533 119.631C136.085 121.347 137.323 122.822 138.226 123.898L138.479 124.198Z" fill="#89EEC1"/>
<path d="M199.553 134.989L202.302 131.249C203.994 128.956 206.326 125.869 208.876 122.591C213.944 116.039 220.184 109.156 223.065 106.062C224.946 104.119 226.727 102.083 228.403 99.9602C229.189 98.7896 229.118 98.2485 228.646 97.7276C228.173 97.2066 227.627 97.116 226.403 97.9067C224.169 99.5442 222.134 101.439 220.343 103.552C215.531 109.147 211.185 115.126 207.349 121.43C205.154 124.953 203.218 128.346 201.81 130.827L199.553 134.989Z" fill="#89EEC1"/>
<path d="M218.023 161.209L219.49 160.791C219.698 160.739 219.925 160.68 220.172 160.615C221.04 160.388 222.142 160.1 223.446 159.855C227.743 158.978 232.112 158.501 236.497 158.428C245.401 158.401 254.266 159.586 262.85 161.949C272.828 164.872 274.148 165.816 273.718 167.232C273.288 168.648 271.654 168.407 261.862 165.542L261.661 165.483C256.679 164.041 246.118 160.982 236.454 160.327C232.149 159.999 227.824 160.054 223.529 160.491L218.023 161.209Z" fill="#89EEC1"/>
<path d="M208.905 174.925L214.794 176.034C215.637 176.19 216.55 176.422 217.532 176.671C217.98 176.784 218.443 176.902 218.92 177.017C226.625 178.912 234.113 181.602 241.263 185.043C249.445 188.977 257.14 193.849 264.195 199.563C269.516 203.896 274.468 208.663 279 213.815C280.12 214.985 281.068 216.154 281.947 217.238L281.948 217.24L281.95 217.241C282.334 217.716 282.706 218.174 283.073 218.608C284.279 220.037 285.257 221.334 286.121 222.5L288.429 225.435C289.06 226.302 289.61 227.04 290.077 227.648C292.011 230.066 292.768 230.534 293.345 230.118C293.922 229.703 293.932 228.909 292.482 226.104C292.114 225.392 291.669 224.592 291.121 223.611C290.755 222.958 290.28 222.291 289.755 221.553C289.492 221.183 289.216 220.796 288.936 220.385C288.095 219.151 287.121 217.757 285.891 216.267C285.539 215.841 285.185 215.396 284.82 214.937C283.907 213.788 282.923 212.55 281.732 211.307C277 206.05 271.748 201.285 266.057 197.086C252.145 186.716 236.061 179.639 219.016 176.389C218.424 176.286 217.853 176.176 217.305 176.069C216.424 175.899 215.6 175.739 214.84 175.639L211.629 175.217L208.905 174.925Z" fill="#89EEC1"/>
<path d="M191.17 218.247L190.763 215.743C190.763 215.743 191.026 216.647 191.393 218.218C191.76 219.788 192.285 222.082 192.83 224.892C193.966 230.505 195.329 238.225 196.256 246.568C197.182 254.911 197.781 263.847 197.925 271.775C198.069 279.702 197.873 286.638 197.566 290.983C197.295 296.501 196.644 301.993 195.615 307.421C194.993 310.221 194.441 310.827 193.766 310.737C193.091 310.647 192.712 309.855 192.771 307.08C192.811 305.169 193.031 302.221 193.364 297.765C193.514 295.75 193.688 293.427 193.878 290.752C194.185 286.407 194.609 279.603 194.8 271.761C194.991 263.92 194.79 255.061 194.368 246.733C193.945 238.405 192.936 230.672 192.195 224.991C191.984 223.372 191.747 221.92 191.544 220.676L191.544 220.675C191.392 219.743 191.259 218.928 191.17 218.247Z" fill="#89EEC1"/>
<path d="M171.551 231.357L171.182 233.121C170.994 234.026 170.745 235.241 170.445 236.709L170.441 236.729L170.44 236.731L170.192 237.943C169.456 241.972 168.625 247.518 167.929 253.467C166.996 261.54 166.148 270.316 165.499 277.039L165.499 277.041C165.19 280.237 164.926 282.97 164.719 284.942C164.077 291.062 163.795 294.61 163.786 296.651C163.777 298.691 164.122 299.229 164.863 299.326C165.604 299.424 166.054 299.025 166.637 297.04C167.531 293.174 168.1 289.24 168.339 285.279C168.815 280.697 169.099 272.152 169.396 263.203L169.396 263.201C169.502 260.005 169.61 256.757 169.729 253.62C169.972 247.666 170.346 242.098 170.736 238.018C170.9 236.095 171.075 234.49 171.206 233.293L171.206 233.292L171.228 233.098L171.551 231.357Z" fill="#89EEC1"/>
<path d="M134.089 214.249L135.79 212.28L134.227 214.442L130.005 220.042C126.494 224.756 121.757 231.248 117.146 238.453C112.49 245.605 108.337 253.074 104.72 260.804C102.022 266.676 99.7346 272.728 97.8736 278.917C96.6241 283.109 95.7503 286.46 95.2252 289.134L94.4295 292.588C94.2379 293.6 94.0711 294.431 93.9037 295.132C93.236 297.954 92.704 298.59 92.0149 298.518C91.3259 298.446 90.9557 297.718 91.0692 294.741C91.072 294.628 91.0742 294.511 91.0765 294.39L91.0766 294.388C91.0892 293.726 91.1041 292.944 91.2221 292.067C91.3619 291.03 91.5625 289.838 91.8019 288.448C92.4249 284.861 93.2762 281.317 94.3508 277.839C96.3378 271.5 98.8765 265.347 101.938 259.452C105.957 251.747 110.549 244.353 115.673 237.334C120.652 230.341 125.764 224.123 129.543 219.6L134.089 214.249Z" fill="#89EEC1"/>
<path d="M122.797 193.81C122.797 193.81 122.793 193.776 122.77 193.752C122.813 193.765 122.809 193.819 122.797 193.81Z" fill="#89EEC1"/>
<path d="M122.77 193.752C122.748 193.73 122.71 193.717 122.644 193.749C122.456 193.804 122.276 193.882 122.108 193.981C121.653 194.218 121.022 194.591 120.258 195.063C118.762 196.003 116.708 197.371 114.554 198.85C110.736 201.437 107.053 204.218 103.52 207.183C99.4945 210.815 99.2856 211.943 100.244 212.838C101.202 213.732 101.949 213.505 105.978 209.905C107.405 208.616 109.95 206.061 112.644 203.355C113.667 202.327 114.712 201.277 115.726 200.267C117.571 198.408 119.31 196.724 120.609 195.519C121.259 194.917 121.793 194.426 122.19 194.115C122.338 193.99 122.496 193.877 122.664 193.779C122.715 193.75 122.748 193.746 122.77 193.752Z" fill="#89EEC1"/>
<path d="M152.247 172.442L153.555 172.789L152.266 172.585C152.138 172.568 152.002 172.546 151.858 172.523L151.855 172.522L151.854 172.522C151.518 172.468 151.139 172.407 150.718 172.382L148.658 172.344C144.811 172.485 141 173.134 137.323 174.275C130.726 176.182 123.813 179.289 119.072 181.42C117.728 182.024 116.558 182.55 115.62 182.948C107.166 186.624 105.6 186.779 105.092 185.486C104.583 184.193 105.677 183.274 114.176 179.576C121.479 176.452 129.081 174.078 136.863 172.49C140.735 171.711 144.696 171.472 148.633 171.78L150.709 172.06C151.228 172.16 151.741 172.288 152.247 172.442Z" fill="#89EEC1"/>
<path d="M108.214 126.414C105.269 125.179 101.145 123.581 96.739 121.939C87.9139 118.672 77.8579 115.274 73.1437 113.995C63.743 111.402 61.9255 111.736 61.6979 113.093C61.4702 114.449 62.7508 114.962 72.1177 117.544L96.1274 123.702C100.668 124.889 104.896 126.037 107.984 127.01L108.102 127.047C111.124 127.999 113.077 128.614 112.803 128.842C113.098 128.625 111.158 127.648 108.214 126.414Z" fill="#89EEC1"/>
<path d="M266.893 113.535L265.82 113.869L266.826 113.398C267.481 113.086 268.426 112.639 269.608 112.145C271.936 111.13 275.181 109.832 278.714 108.627C284.952 106.504 291.326 104.803 297.793 103.533C305.403 102.201 306.668 102.473 306.881 103.853C307.093 105.233 305.974 105.833 298.443 107.155C297.308 107.351 295.767 107.586 293.968 107.861C289.797 108.497 284.245 109.344 279.205 110.408C275.596 111.154 272.243 111.996 269.792 112.688C268.872 112.942 268.078 113.18 267.45 113.369L267.446 113.37C267.244 113.431 267.059 113.486 266.893 113.535Z" fill="#89EEC1"/>
<path d="M190.516 165.46C193.489 165.002 196.433 164.375 199.334 163.582C203.46 162.488 207.503 161.101 211.431 159.431C215.932 157.339 216.416 156.58 215.834 155.345C215.252 154.11 214.352 154.033 209.883 156.121C208.803 156.62 207.163 157.489 205.274 158.49C203.239 159.568 200.916 160.798 198.692 161.886C194.401 163.983 190.516 165.46 190.516 165.46Z" fill="#89EEC1"/>
<path d="M183.297 150.186C181.797 154.071 180.367 157.381 180.367 157.381C180.367 157.381 180.85 153.887 181.505 149.724C181.901 147.202 182.222 144.553 182.483 142.398L182.483 142.395C182.653 140.994 182.797 139.801 182.92 138.987C183.549 134.876 184.036 134.262 185.38 134.394C186.724 134.526 187.208 135.256 186.542 139.583C185.764 143.203 184.678 146.75 183.297 150.186Z" fill="#89EEC1"/>
<path d="M167.127 167.038C167.127 167.038 165.767 166.164 164.128 165.261C162.678 164.402 161.094 163.794 159.443 163.46C157.429 163.286 157.103 163.765 157.127 165.186C157.15 166.608 157.361 166.985 159.078 167.117C159.539 167.155 160.338 167.129 161.27 167.1C162.023 167.075 162.864 167.049 163.682 167.05L167.127 167.038Z" fill="#89EEC1"/>
<path d="M183.27 176.536L182.029 173.591C182.029 173.591 183.297 174.38 184.624 175.372C185.821 176.17 186.971 177.036 188.069 177.966C189.172 179.1 189.103 179.562 188.137 180.595C187.171 181.627 186.658 181.791 185.405 180.498C184.513 179.283 183.795 177.949 183.27 176.536Z" fill="#89EEC1"/>
<path d="M248.608 88.4888L250.222 87.2102L252.081 85.7055L254.622 83.8527C259.454 80.4565 264.542 77.4393 269.839 74.8283C275.907 71.8467 282.157 69.2531 288.553 67.0631C294.561 64.9849 299.898 63.4635 303.259 62.5558C306.152 61.7612 308.527 61.1387 310.469 60.6299C313.046 59.9547 314.859 59.4796 316.106 59.0677C318.294 58.3454 318.739 57.7857 318.62 57.1215C318.501 56.4573 317.888 56.1003 315.546 56.2601C311.075 56.75 306.658 57.6457 302.35 58.936C297.316 60.3726 292.371 62.0984 287.536 64.1047C281.167 66.6867 274.986 69.71 269.038 73.1526C263.878 76.1534 258.965 79.5594 254.345 83.3386L251.941 85.3837L250.181 87.0213L248.608 88.4888Z" fill="#89EEC1"/>
<path d="M206.776 66.287L206.011 67.6167L206.662 66.1562C207.079 65.2603 207.671 63.9693 208.319 62.3634C209.664 59.1456 211.302 54.708 212.94 49.8982C213.246 49.0022 213.553 48.0946 213.862 47.1816C215.211 43.1942 216.595 39.1037 218.01 35.4163C219.377 31.7349 220.973 28.1431 222.79 24.662C223.799 22.7478 224.919 20.8942 226.144 19.1106C226.834 18.0535 227.62 17.0625 228.493 16.1502C229.752 14.8854 230.375 14.8204 230.914 15.2355C231.454 15.6507 231.582 16.265 230.844 17.8017C230.681 18.0891 230.513 18.4095 230.325 18.7672C230 19.3885 229.615 20.1225 229.092 20.9918C228.267 22.3617 227.251 24.1287 226.026 26.3924C224.8 28.6562 222.962 32.3106 220.887 36.6271C218.934 40.6909 216.921 45.2932 214.976 49.7422L214.614 50.5701C212.557 55.2726 210.482 59.5891 208.811 62.6554C208.074 64.0743 207.398 65.2259 206.903 66.0695C206.86 66.1444 206.817 66.2169 206.776 66.287Z" fill="#89EEC1"/>
</g>
<defs>
<filter id="filter0_d" x="0.821777" y="0.22699" width="346.558" height="322.518" filterUnits="userSpaceOnUse" color-interpolation-filters="sRGB">
<feFlood flood-opacity="0" result="BackgroundImageFix"/>
<feColorMatrix in="SourceAlpha" type="matrix" values="0 0 0 0 0 0 0 0 0 0 0 0 0 0 0 0 0 0 127 0" result="hardAlpha"/>
<feOffset/>
<feGaussianBlur stdDeviation="6"/>
<feComposite in2="hardAlpha" operator="out"/>
<feColorMatrix type="matrix" values="0 0 0 0 0.156863 0 0 0 0 0.882353 0 0 0 0 0.560784 0 0 0 0.8 0"/>
<feBlend mode="normal" in2="BackgroundImageFix" result="effect1_dropShadow"/>
<feBlend mode="normal" in="SourceGraphic" in2="effect1_dropShadow" result="shape"/>
</filter>
</defs>
</svg>
