<svg width="403" height="380" viewBox="0 0 403 380" fill="none" xmlns="http://www.w3.org/2000/svg">
<g filter="url(#filter1_d)">
<path d="M166.087 83.7321L166.156 85.3121L166.061 83.702C166.033 83.501 166.004 83.2804 165.974 83.0419C165.854 82.1028 165.698 80.8879 165.351 79.5113C164.75 75.9723 163.664 71.234 162.284 66.2026C160.904 61.1712 159.471 55.7858 158.427 50.9265C157.523 46.9861 156.876 42.9912 156.489 38.9672C156.283 36.7516 156.21 34.5259 156.271 32.302C156.274 31.0036 156.407 29.7089 156.668 28.4376C157.055 26.6324 157.584 26.2602 158.346 26.3064C159.108 26.3527 159.583 26.7836 159.847 28.5532C159.957 29.4251 160.06 30.6293 160.125 32.2654C160.184 33.7487 160.319 35.5902 160.487 37.8962C160.504 38.1337 160.522 38.3762 160.54 38.6237C160.733 41.2741 161.142 45.4307 161.811 50.3295C162.166 52.9315 162.608 55.6722 163.056 58.4483C163.451 60.8986 163.851 63.3765 164.199 65.8108C164.942 71.003 165.547 75.863 165.816 79.4673C165.989 81.2414 166.049 82.7134 166.087 83.7321Z" fill="#EF6CBD"/>
<path d="M214.415 79.4818L215.081 77.4775L215.845 75.1364L217.025 72.1212C219.285 66.5039 221.979 61.0723 225.082 55.8756C231.447 45.46 238.786 35.676 247.002 26.656C248.842 24.5829 250.397 22.8632 251.696 21.4263C253.748 19.1569 255.163 17.5925 256.054 16.457C257.508 14.6026 257.571 13.834 257.082 13.2779C256.594 12.7218 255.81 12.7361 253.846 14.0949C250.262 17.0582 246.961 20.3502 243.987 23.9282C240.463 27.9814 237.179 32.2377 234.15 36.6756C230.127 42.4715 226.521 48.5483 223.36 54.8597C220.615 60.3347 218.316 66.0238 216.486 71.8717L215.552 74.9901L214.986 77.3914L214.415 79.4818Z" fill="#EF6CBD"/>
<path d="M150.931 112.548L150.134 110.766C150.057 110.595 149.975 110.411 149.889 110.216C149.407 109.132 148.766 107.69 147.915 106.038C145.432 100.988 142.577 96.1299 139.375 91.504C132.818 82.1271 124.992 73.7086 116.123 66.4906C112.867 63.7476 109.37 61.3057 105.675 59.1948C103.7 58.1879 102.998 58.3099 102.552 58.9366C102.106 59.5633 102.268 60.2754 103.84 61.7881C104.923 62.8301 106.706 64.2355 109.382 66.3456C110.591 67.2987 111.983 68.3957 113.574 69.6679C116.138 71.7013 120.201 74.9539 124.618 78.9615C129.321 83.2224 133.708 87.8222 137.742 92.7241C141.262 97.0317 144.473 101.584 147.352 106.346C148.277 107.821 149.007 109.113 149.58 110.13C149.727 110.391 149.865 110.634 149.992 110.857L150.931 112.548Z" fill="#EF6CBD"/>
<path d="M198.618 83.7085L198.64 82.4176C198.622 81.788 198.692 80.9522 198.776 79.9455C198.801 79.6407 198.828 79.3203 198.854 78.9852C199.307 75.3417 199.985 71.7303 200.885 68.1719C202.572 61.1598 205.17 53.5929 206.747 48.9995C207.008 48.2403 207.241 47.5623 207.437 46.9815C210.242 38.8004 210.518 37.4271 209.013 36.8338C207.509 36.2405 206.452 37.2784 203.596 45.6928C201.367 52.9028 199.791 60.3002 198.886 67.7953C198.414 71.5031 198.194 75.2392 198.23 78.9776C198.24 79.1824 198.25 79.3822 198.259 79.5767L198.26 79.5833L198.26 79.5862C198.318 80.7645 198.366 81.7451 198.464 82.4438L198.618 83.7085Z" fill="#EF6CBD"/>
<path d="M177.26 136.693C177.26 136.693 162.291 99.159 157.207 88.2323C152.123 77.3056 150.926 75.8268 149.55 76.468C148.174 77.1092 148.489 79.0126 153.517 89.935C158.545 100.857 177.26 136.693 177.26 136.693Z" fill="#EF6CBD"/>
<path d="M127.39 151.155L128.624 151.909L127.317 151.302C126.463 150.894 125.247 150.356 123.738 149.746C119.894 148.161 115.97 146.78 111.982 145.608C104.392 143.299 95.8103 141.649 90.3719 140.603C89.2873 140.394 88.3276 140.21 87.5258 140.049C77.8649 138.118 76.4329 137.378 76.687 135.918C76.9411 134.459 78.555 134.106 88.328 136.046C96.6445 137.877 104.788 140.429 112.665 143.672C116.546 145.299 120.336 147.137 124.016 149.179C125.44 149.958 126.587 150.66 127.39 151.155Z" fill="#EF6CBD"/>
<path d="M161.479 182.614L171.923 184.457C171.923 184.457 167.023 184.482 161.304 184.531C160.073 184.541 158.817 184.553 157.575 184.565L157.572 184.565C153.039 184.607 148.689 184.648 146.438 184.611C140.693 184.556 139.813 184.117 139.731 182.632C139.649 181.147 140.56 180.477 146.538 180.583C151.555 180.945 156.546 181.623 161.479 182.614Z" fill="#EF6CBD"/>
<path d="M232.892 141.284L231.488 142.539L232.685 141.116C233.522 140.226 234.767 138.92 236.218 137.415C239.245 134.319 243.389 130.207 248.157 126.102C252.934 121.959 257.953 118.105 263.187 114.559C267.183 111.851 271.335 109.381 275.62 107.161C279.319 105.18 283.21 103.583 287.233 102.393C289.333 101.862 289.976 102.159 290.262 102.858C290.549 103.557 290.275 104.214 288.448 105.318C287.227 106.055 285.319 106.991 282.479 108.384L282.478 108.385C281.069 109.076 279.431 109.879 277.534 110.827L277.204 110.996C274.403 112.425 269.956 114.695 265.104 117.509C259.729 120.641 254.521 124.051 249.501 127.727C244.478 131.401 239.976 135.108 236.728 137.911C235.23 139.185 234.012 140.279 233.117 141.082L232.892 141.284Z" fill="#EF6CBD"/>
<path d="M246.033 179.628L247.178 179.45C247.901 179.267 248.934 179.153 250.291 179.013C253.604 178.696 256.939 178.678 260.256 178.957C266.902 179.668 273.471 180.978 279.884 182.871C287.465 184.904 288.766 184.98 289.196 183.494C289.627 182.008 288.685 181.034 280.828 178.923C274.069 177.315 267.123 176.647 260.185 176.937C256.784 177.101 253.408 177.596 250.104 178.417C249.071 178.658 248.051 178.952 247.049 179.299L246.033 179.628Z" fill="#EF6CBD"/>
<path d="M228.781 187.142L227.676 187.348L227.693 187.417L228.781 187.142Z" fill="#EF6CBD"/>
<path d="M228.781 187.142L230.439 186.834L233.637 186.228C234.485 186.125 235.415 186.051 236.406 185.973C236.89 185.934 237.388 185.895 237.899 185.85C245.918 185.38 253.963 186.122 261.764 188.051C270.697 190.252 279.372 193.398 287.644 197.436C293.931 200.478 300.037 203.884 305.93 207.637C311.251 210.998 314.978 213.571 317.65 215.416C319.013 216.357 320.103 217.11 320.989 217.68C323.613 219.368 324.535 219.466 324.959 218.899C325.384 218.333 325.196 217.444 322.911 215.212C318.335 211.076 313.355 207.412 308.047 204.275C301.983 200.494 295.638 197.185 289.069 194.378C280.445 190.63 271.43 187.862 262.193 186.125C254.172 184.606 245.968 184.318 237.863 185.271C237.23 185.373 236.619 185.459 236.035 185.542C235.158 185.666 234.341 185.782 233.597 185.926L228.781 187.142Z" fill="#EF6CBD"/>
<path d="M224.597 193.284L225.299 193.382C225.94 193.451 226.577 193.554 227.208 193.69C229.211 194.086 231.182 194.625 233.108 195.303C235.812 196.237 238.639 197.466 240.945 198.469C242.385 199.095 243.623 199.633 244.5 199.956C249.036 201.675 249.939 201.484 250.478 200.062C251.016 198.641 250.514 197.886 245.832 196.167C241.816 194.814 237.676 193.867 233.473 193.339C231.392 193.092 229.295 193.007 227.202 193.086C226.553 193.1 225.904 193.147 225.26 193.227L224.597 193.284Z" fill="#EF6CBD"/>
<path d="M219.014 200.11L218.208 199.745L219.044 199.937C219.832 200.112 220.609 200.333 221.372 200.598C223.823 201.454 226.185 202.549 228.422 203.868C232.89 206.554 237.119 209.621 241.063 213.033C245.55 217.024 245.923 217.921 244.996 219.11C244.069 220.298 242.906 220.115 238.351 216.068C237.463 215.292 236.25 214.085 234.84 212.682C232.63 210.482 229.935 207.8 227.252 205.54C225.348 203.896 223.293 202.435 221.115 201.177C220.44 200.774 219.738 200.417 219.014 200.11Z" fill="#EF6CBD"/>
<path d="M208.661 207.186C208.661 207.186 210.114 210.62 211.956 214.506C213.797 218.393 215.856 222.702 216.903 224.604C219.046 228.378 219.784 228.761 221.13 228.073C222.476 227.384 222.564 226.499 220.437 222.574C218.379 219.386 216.121 216.332 213.679 213.428L208.661 207.186Z" fill="#EF6CBD"/>
<path d="M206.114 225.382C205.741 221.455 205.607 217.509 205.713 213.567C207.391 217.134 208.854 220.799 210.095 224.542C210.645 227.157 210.212 227.689 208.731 227.99C207.25 228.29 206.664 227.997 206.114 225.382Z" fill="#EF6CBD"/>
<path d="M212.233 248.68C212.233 248.68 212.884 256.19 213.986 264.762C214.908 272.387 216.256 279.954 218.024 287.429C220.375 296.163 221.434 297.309 222.841 296.862C224.248 296.415 224.2 294.995 222.022 286.364C221.589 284.65 220.885 282.138 220.062 279.204L220.061 279.2L220.058 279.188L220.057 279.186L220.057 279.184L220.056 279.182L220.056 279.18L220.055 279.179L220.055 279.177L220.054 279.175L220.054 279.173L220.053 279.171C218.815 274.755 217.312 269.392 216.065 264.366C213.986 255.986 212.233 248.68 212.233 248.68Z" fill="#EF6CBD"/>
<path d="M179.039 216.849C179.975 215.328 181.015 213.876 182.153 212.501C182.153 212.501 181.436 214.885 180.927 217.584C180.524 219.896 180.263 222.23 180.147 224.575C179.909 227.187 179.48 227.662 177.999 227.669C176.517 227.676 175.827 227.263 176.111 224.106C176.611 221.52 177.605 219.056 179.039 216.849Z" fill="#EF6CBD"/>
<path d="M145.649 258.659L144.797 260.288C144.219 261.333 143.431 262.854 142.554 264.747C140.322 269.617 138.426 274.635 136.879 279.767C133.725 290.177 131.798 300.924 131.138 311.787C130.838 315.856 130.974 319.946 131.545 323.987C131.943 326.071 132.478 326.523 133.236 326.479C133.994 326.435 134.488 325.924 134.701 323.869C134.842 322.511 134.908 320.475 135.006 317.452L135.006 317.449C135.056 315.898 135.114 314.087 135.196 311.975C135.502 301.324 136.722 290.72 138.84 280.281C139.946 275.1 141.385 269.995 143.149 265C143.832 262.992 144.469 261.454 144.944 260.361L145.649 258.659Z" fill="#EF6CBD"/>
<path d="M149.706 290.538L149.41 292.559C149.359 292.933 149.298 293.352 149.23 293.815L149.229 293.824L149.229 293.826C149.06 294.984 148.853 296.409 148.656 298.056C148.049 302.616 147.383 308.971 147.14 315.698C146.867 322.445 147.038 329.205 147.652 335.931C148.266 342.276 149.203 347.658 149.859 351.054C150.369 353.695 150.854 355.887 151.261 357.721C151.377 358.246 151.487 358.742 151.589 359.211C151.793 360.148 151.958 360.975 152.103 361.702L152.104 361.703C152.284 362.608 152.434 363.358 152.589 363.971C152.962 366.245 152.675 366.924 151.914 367.171C151.152 367.418 150.509 367.048 149.513 364.913C148.826 363.388 148.262 361.811 147.828 360.197C147.01 357.441 146.341 354.644 145.822 351.817C144.891 346.639 144.351 341.398 144.208 336.14C144.003 329.25 144.306 322.355 145.116 315.511C145.858 308.732 147.024 302.47 147.996 297.91C148.451 295.685 148.891 293.882 149.204 292.597L149.706 290.538Z" fill="#EF6CBD"/>
<path d="M160.102 202.038L153.785 203.633C148.9 205.002 144.121 206.724 139.485 208.785C130.119 213.053 121.264 218.368 113.09 224.63C103.655 232.153 102.614 233.903 103.642 235.002C104.67 236.101 106.304 235.248 115.589 227.855C123.38 221.435 131.675 215.656 140.395 210.576C144.775 208.144 149.314 206.01 153.98 204.19C155.38 203.625 156.602 203.203 157.58 202.865L157.581 202.864C157.88 202.761 158.156 202.666 158.407 202.576L160.102 202.038Z" fill="#EF6CBD"/>
<path d="M95.9239 253.604L99.2531 249.312L96.4375 253.97C94.7233 256.827 92.4093 260.716 90.0489 264.929C87.6885 269.142 85.3161 273.67 83.3644 277.762C81.4127 281.853 79.8515 285.46 78.8721 287.746C78.5063 288.589 78.1709 289.367 77.8618 290.084C76.5081 293.223 75.6596 295.19 74.9829 296.347C74.1516 297.769 73.5494 297.995 72.8251 297.737C72.1009 297.479 71.7504 296.961 72.0039 295.282C72.6908 292.101 73.7559 289.015 75.1764 286.09C76.7204 282.68 78.4561 279.36 80.3751 276.148C82.6974 272.146 85.557 267.807 88.3617 263.831C91.1664 259.854 93.899 256.245 95.9239 253.604Z" fill="#EF6CBD"/>
<path d="M87.7259 152.3L86.6949 151.771C85.7574 151.277 84.7912 150.841 83.8015 150.464C80.6092 149.253 77.2889 148.416 73.9062 147.967C67.0561 147.128 60.1292 147.149 53.2867 148.032C45.323 149.198 44.2358 149.968 44.4641 151.453C44.6925 152.937 46.024 153.207 53.7767 152.076C60.3529 150.884 67.0109 150.198 73.6927 150.023C77.0046 150.011 80.3081 150.372 83.5407 151.099C84.564 151.316 85.5718 151.602 86.5577 151.953L87.7259 152.3Z" fill="#EF6CBD"/>
<path d="M116.447 116.296L117.316 117.27L116.361 116.391L116.345 116.378C115.716 115.839 114.81 115.066 113.616 114.22C110.638 112.02 107.408 110.185 103.996 108.753C100.119 107.137 96.0802 105.947 91.9489 105.203C88.4074 104.42 85.241 104.156 83.0646 103.974C82.8577 103.956 82.6591 103.94 82.4707 103.923C81.4416 103.832 80.5182 103.754 79.6885 103.684C77.0452 103.461 75.3527 103.318 74.2212 103.087C72.7345 102.783 72.4229 102.274 72.412 101.505C72.4011 100.737 72.7616 100.279 74.2247 99.9093C77.0845 99.4896 79.9895 99.4731 82.8549 99.8605C90.5996 100.692 98.1005 103.076 104.912 106.869C108.209 108.778 111.254 111.093 113.976 113.762C115.025 114.732 115.784 115.566 116.333 116.171L116.447 116.296Z" fill="#EF6CBD"/>
<path d="M202.414 172.94C203.117 168.828 204.079 164.764 205.294 160.774C206.51 156.673 208.085 152.313 209.336 148.853C210.028 146.938 210.621 145.299 210.998 144.131C213.162 137.544 213.046 136.361 211.606 135.88C210.167 135.399 209.312 136.221 207.144 142.864C205.42 148.588 204.135 154.437 203.303 160.359C202.699 164.525 202.402 168.73 202.414 172.94Z" fill="#EF6CBD"/>
<path d="M197.761 204.19C198.315 200.737 199.099 197.325 200.108 193.977C200.915 197.382 201.488 200.839 201.822 204.322C201.756 206.671 201.227 207.043 199.711 206.985C198.195 206.927 197.699 206.556 197.761 204.19Z" fill="#EF6CBD"/>
<path d="M196.948 187.044C195.78 186.029 194.526 185.117 193.202 184.318C191.298 183.117 189.219 182.223 187.04 181.669C184.459 181.237 184.004 181.756 183.78 183.263C183.556 184.77 183.928 185.3 186.225 185.694C186.793 185.791 187.692 185.858 188.743 185.936C189.853 186.018 191.133 186.113 192.376 186.271C193.913 186.445 195.439 186.703 196.948 187.044Z" fill="#EF6CBD"/>
<path d="M267.468 101.562L266.529 102.846L267.335 101.467L268.264 99.8554C268.496 99.5094 268.766 99.1474 269.055 98.7601C269.265 98.4798 269.484 98.1861 269.705 97.8758C272.557 94.205 275.983 91.0213 279.85 88.4477C287.766 83.4015 296.41 79.6032 305.479 77.1852C316.043 74.4264 317.771 74.5962 318.154 76.1152C318.538 77.6341 316.99 78.3922 306.597 81.1076C306.038 81.2588 305.404 81.4253 304.708 81.6082C298.984 83.112 289.015 85.7309 280.966 90.1857C276.968 92.2952 273.332 95.0291 270.193 98.2851C270.008 98.4908 269.825 98.6887 269.649 98.8803L269.647 98.8815C269.253 99.3095 268.887 99.706 268.579 100.088L267.468 101.562Z" fill="#EF6CBD"/>
<path d="M43.202 176.118L46.7144 175.525L43.4148 176.67L35.5164 179.546C29.4937 181.727 23.0082 184.686 20.0752 186.051C14.1617 188.738 13.1283 188.778 12.3624 187.558C11.5965 186.337 12.1874 185.196 18.3762 182.367C23.7128 180.256 29.2422 178.669 34.8863 177.63C38.0583 176.994 41.024 176.484 43.202 176.118Z" fill="#EF6CBD"/>
<path d="M182.205 166.217L175.753 157.123C171.77 151.574 166.266 144.058 159.998 136.277C153.737 128.434 147.074 120.923 140.035 113.775C134.673 108.322 129.004 103.181 123.056 98.3779C118.981 95.1468 115.688 92.6916 113 90.8915C111.004 89.4632 108.929 88.1478 106.787 86.9517C103.798 85.3377 102.842 85.322 102.434 85.9573C102.027 86.5926 102.413 87.4683 105.038 89.5966C105.837 90.2362 106.845 91.0012 108.084 91.9408L108.085 91.9416C108.873 92.5396 109.755 93.2083 110.735 93.9604C111.482 94.5338 112.293 95.1478 113.168 95.8105L113.172 95.8135C115.248 97.3856 117.687 99.2322 120.503 101.464C124.509 104.64 130.812 109.879 137.635 116.162C144.458 122.445 151.84 130.074 158.438 137.497C165.036 144.92 170.932 152.098 175.22 157.405L182.205 166.217Z" fill="#EF6CBD"/>
<path d="M178.544 176.377C178.413 176.289 178.294 176.183 178.19 176.063C178.291 176.173 178.407 176.267 178.536 176.343L179.916 177.169C179.933 177.179 179.951 177.189 179.97 177.199C180.092 177.266 180.228 177.34 180.124 177.557C179.974 177.632 179.81 177.673 179.642 177.679C179.367 177.533 178.806 177.205 178.02 176.744C175.724 175.399 171.507 172.929 166.865 170.586C160.938 167.594 154.26 164.975 150.683 163.572L150.156 163.365C142.507 160.412 141.515 159.598 141.95 158.203C142.385 156.807 143.848 156.512 151.674 159.585C157.396 162.059 162.875 165.065 168.039 168.564C172.142 171.274 176.032 174.294 179.676 177.597C179.819 177.585 179.958 177.55 180.089 177.493C180.113 177.478 180.066 177.438 180.011 177.392C179.956 177.347 179.893 177.294 179.882 177.251L179.295 176.885C178.946 176.661 178.704 176.502 178.544 176.377Z" fill="#EF6CBD"/>
<path d="M187.52 147.378C187.52 147.378 185.511 133.765 183.535 118.106C181.56 102.447 179.798 84.7325 179.029 76.6091C177.456 60.3709 176.988 57.8635 175.403 57.9697C173.819 58.076 173.409 60.6582 174.977 77.026C175.764 85.2184 178.473 102.914 181.53 118.429C184.586 133.943 187.52 147.378 187.52 147.378Z" fill="#EF6CBD"/>
<path d="M214.417 125.182L211.806 133.333L213.827 125.019L214.022 124.207C215.227 119.207 216.821 112.592 218.661 105.584C220.603 98.1903 222.88 90.3812 225.206 83.496C227.533 76.6107 229.91 70.7226 231.557 67.0936C233.555 62.4196 235.957 57.9304 238.735 53.6772C240.267 51.5463 241.002 51.2689 241.662 51.6347C242.322 52.0006 242.493 52.8205 241.522 55.2138C240.955 56.6123 240.03 58.5776 238.707 61.3913L238.706 61.3933L238.705 61.395L238.704 61.3977L238.703 61.3995L238.701 61.4038L238.7 61.4059C237.76 63.4043 236.619 65.8304 235.262 68.7841C233.636 72.3527 231.116 78.0381 228.436 84.6822C225.755 91.3263 223.047 98.9503 220.605 106.177C218.233 113.198 216.123 119.824 214.553 124.755L214.553 124.757L214.417 125.182Z" fill="#EF6CBD"/>
<path d="M222.273 139.981L222.88 138.616C223.244 137.735 223.822 136.542 224.584 134.991C226.528 131.225 228.733 127.6 231.184 124.144C236.204 117.203 241.659 110.589 247.516 104.341C254.255 96.8739 255.125 95.5342 254.019 94.4179C252.914 93.3016 251.352 94.0079 244.467 101.622C238.764 108.245 233.737 115.425 229.462 123.055C227.363 126.83 225.539 130.751 224.002 134.789C223.412 136.37 222.994 137.687 222.73 138.599L222.273 139.981Z" fill="#EF6CBD"/>
<path d="M220.039 172.402L222.019 170.671L224.403 168.509C225.058 167.877 225.833 167.288 226.668 166.653C227.015 166.389 227.373 166.117 227.737 165.831C234.183 161.06 241.257 157.204 248.758 154.373C257.387 151.124 266.323 148.757 275.429 147.31C282.334 146.147 289.301 145.387 296.296 145.034C302.313 144.65 308.35 144.672 314.366 145.1C317.472 145.435 318.201 145.931 318.195 146.703C318.189 147.476 317.454 147.974 314.367 148.294C312.357 148.503 309.359 148.618 304.927 148.788L304.924 148.788C302.552 148.879 299.769 148.986 296.506 149.131C291.795 149.255 284.367 149.643 275.908 150.659C266.925 151.678 258.06 153.547 249.431 156.242C241.927 158.625 234.774 161.999 228.16 166.275C227.645 166.638 227.136 166.975 226.647 167.298C225.94 167.766 225.275 168.205 224.696 168.655L220.039 172.402Z" fill="#EF6CBD"/>
<path d="M250.959 195.442L253.236 196.336C254.698 196.904 256.793 197.734 259.367 198.865C265.774 201.701 271.993 204.945 277.987 208.577C284.848 212.746 291.46 217.311 297.791 222.251C303.739 226.882 308.738 231.165 311.882 233.897C313.545 235.341 315.019 236.628 316.328 237.77L316.335 237.777L316.336 237.778L316.338 237.779C319.948 240.93 322.297 242.981 323.893 244.195C326.068 245.849 326.913 245.93 327.436 245.393C327.96 244.857 327.842 244.024 326.078 241.899C322.508 237.918 318.646 234.21 314.525 230.806C311.356 228.044 306.094 223.882 299.819 219.481C293.152 214.805 286.191 210.564 278.981 206.784C272.714 203.524 266.241 200.681 259.602 198.273C257.011 197.293 254.865 196.623 253.36 196.176L250.959 195.442Z" fill="#EF6CBD"/>
<path d="M312.092 194.478L310.838 194.078L312.122 194.305C313.29 194.497 314.448 194.75 315.591 195.063C319.28 196.05 322.864 197.396 326.292 199.082C333.16 202.596 339.661 206.793 345.695 211.608C352.658 217.286 353.424 218.58 352.467 219.722C351.511 220.863 350.04 220.334 343.133 214.734C337.461 209.771 331.506 205.144 325.298 200.875C322.168 198.828 318.852 197.083 315.395 195.664C314.316 195.208 313.214 194.812 312.092 194.478Z" fill="#EF6CBD"/>
<path d="M246.805 210.611L248.372 211.592C249.368 212.204 250.801 213.091 252.479 214.228C256.791 217.238 260.935 220.482 264.894 223.946C268.028 226.648 271.232 229.557 274.312 232.354L274.314 232.356L274.315 232.357L274.325 232.366L274.335 232.375L274.338 232.378C275.734 233.645 277.104 234.889 278.431 236.081C282.692 239.907 286.496 243.225 289.021 245.103C292.149 247.679 295.553 249.899 299.17 251.722C301.106 252.573 301.777 252.404 302.159 251.738C302.54 251.073 302.404 250.391 300.876 249.051C299.882 248.179 298.307 246.997 295.968 245.242C294.709 244.297 293.23 243.187 291.501 241.87C289.019 240.018 285.121 236.981 280.628 233.47C279.865 232.874 279.086 232.262 278.295 231.642C274.425 228.605 270.254 225.332 266.177 222.429C261.907 219.271 257.452 216.374 252.835 213.752C251.168 212.795 249.734 212.078 248.699 211.56L246.805 210.611Z" fill="#EF6CBD"/>
<path d="M227.204 222.83L223.847 217.802L227.728 222.441L236.86 233.227C240.352 237.34 244.038 241.789 247.198 245.82C250.358 249.851 252.983 253.503 254.502 255.892C256.552 258.864 258.277 262.048 259.646 265.39C260.259 267.163 259.993 267.781 259.336 268.149C258.678 268.517 258.001 268.376 256.869 266.936C256.082 265.936 255.051 264.317 253.488 261.861L253.487 261.859L253.485 261.856C252.797 260.776 252.007 259.534 251.089 258.113C249.588 255.719 247.234 252.054 244.431 247.841C241.628 243.628 238.345 238.893 235.253 234.477C234.877 233.94 234.504 233.408 234.135 232.881L234.121 232.862C231.463 229.07 229.024 225.59 227.204 222.83Z" fill="#EF6CBD"/>
<path d="M198.67 247.973C198.67 247.973 198.7 250.774 198.661 255.191C198.623 259.607 198.782 265.608 199.107 272.044C199.432 278.48 200.034 285.36 200.943 291.429C201.656 296.341 202.682 301.203 204.014 305.985C204.759 308.604 205.642 311.182 206.659 313.708C207.214 315.196 207.895 316.634 208.696 318.005C209.843 319.937 210.494 320.195 211.187 319.891C211.879 319.588 212.148 318.914 211.63 316.787C211.411 315.921 211.047 314.783 210.573 313.301C210.48 313.011 210.383 312.707 210.282 312.39C210.142 311.95 209.991 311.484 209.831 310.989L209.822 310.96L209.821 310.959L209.821 310.956C209.278 309.277 208.629 307.268 207.921 304.852C206.999 301.706 205.601 296.679 204.374 290.801C203.146 284.924 202.002 278.217 201.187 271.868C200.371 265.519 199.772 259.519 199.346 255.146L198.67 247.973Z" fill="#EF6CBD"/>
<path d="M193.226 209.944L193.552 209.421L193.39 210.013L193.363 210.107C193.258 210.476 193.115 210.977 192.998 211.581C192.617 213.253 192.373 214.954 192.268 216.667C192.136 220.073 192.203 223.483 192.466 226.881C192.564 230.896 192.114 231.579 190.616 231.663C189.117 231.748 188.491 231.153 188.397 226.935C188.489 223.302 189.117 219.704 190.26 216.256C190.829 214.567 191.543 212.931 192.395 211.366C192.716 210.752 193.016 210.272 193.226 209.944Z" fill="#EF6CBD"/>
<path d="M174.545 245.103L173.78 247.297C173.272 248.692 172.554 250.71 171.735 253.193C170.074 258.148 167.937 264.985 166.137 272.435C164.313 279.941 163.039 287.572 162.325 295.266C161.783 301.145 161.678 307.057 162.011 312.953C162.188 316.17 162.526 319.375 163.026 322.557C163.282 324.419 163.667 326.26 164.179 328.068C164.927 330.597 165.514 331.109 166.268 330.974C167.021 330.839 167.411 330.135 167.24 327.571C167.189 326.617 167.08 325.394 166.942 323.836C166.894 323.294 166.842 322.711 166.788 322.085C166.729 321.403 166.661 320.674 166.588 319.89L166.588 319.887C166.4 317.882 166.18 315.523 165.998 312.718C165.044 299.398 165.736 286.013 168.06 272.868C169.338 265.384 170.993 258.449 172.309 253.434C172.951 250.903 173.509 248.835 173.901 247.414L174.545 245.103Z" fill="#EF6CBD"/>
<path d="M158.752 206.914L161.115 205.179L158.946 207.177L156.343 209.34C155.685 209.902 154.99 210.535 154.247 211.212C153.85 211.573 153.44 211.947 153.014 212.329C146.841 217.999 141.075 224.099 135.76 230.584C129.663 238 124.112 245.851 119.151 254.075C115.376 260.267 111.928 266.654 108.82 273.208C108.083 274.675 107.458 276.074 106.878 277.372L106.877 277.375L106.873 277.384L106.869 277.392C106.58 278.04 106.301 278.663 106.026 279.256C105.195 281.045 104.502 282.652 103.93 284.082L101.179 290.45C99.8143 293.384 99.071 293.994 98.3511 293.753C97.6312 293.512 97.3918 292.636 98.166 289.393C98.7385 287.098 99.4597 284.843 100.325 282.642C100.839 281.173 101.515 279.574 102.292 277.737L102.326 277.657C103.117 275.786 104.002 273.708 105.132 271.44C108.367 264.748 112.067 258.292 116.203 252.12C121.599 243.998 127.617 236.31 134.201 229.123C139.868 222.862 145.982 217.023 152.495 211.652C153.274 211.086 153.993 210.516 154.67 209.979C155.138 209.608 155.585 209.253 156.019 208.926L158.752 206.914Z" fill="#EF6CBD"/>
<path d="M121.556 278.035L120.726 278.74C119.964 279.392 119.271 280.121 118.657 280.915C116.699 283.458 115.01 286.198 113.617 289.091C110.732 294.875 108.343 300.896 106.478 307.088C104.476 314.387 104.803 315.682 106.246 316.033C107.69 316.385 108.424 315.373 110.383 308.195C110.553 307.543 110.753 306.746 110.981 305.838C112.004 301.762 113.592 295.439 115.484 289.887C116.428 286.899 117.669 284.015 119.188 281.277C119.663 280.418 120.218 279.608 120.847 278.856L121.556 278.035Z" fill="#EF6CBD"/>
<path d="M163.251 195.001L165.935 195.259L163.26 195.182L160.138 195.07L156.026 195.319C148.335 196.052 140.763 197.723 133.478 200.295C118.414 205.369 102.792 213.923 93.9388 218.771C92.9441 219.315 92.0349 219.813 91.2215 220.254C75.1067 229.096 72.3232 230.037 71.6087 228.731C70.8943 227.424 73.0765 225.551 89.2901 216.665C97.3906 212.27 115.559 203.075 132.887 198.315C140.401 196.148 148.155 194.925 155.972 194.672L160.115 194.691L163.251 195.001Z" fill="#EF6CBD"/>
<path d="M205.045 184.523C207.467 183.492 209.979 182.685 212.549 182.114C214.807 181.595 217.26 181.18 219.359 180.824C221.041 180.539 222.494 180.293 223.438 180.063C227.673 178.994 228.243 178.354 227.873 176.887C227.503 175.42 226.739 175.08 222.475 176.102C218.808 177.126 215.25 178.504 211.85 180.216C209.435 181.404 207.153 182.848 205.045 184.523Z" fill="#EF6CBD"/>
<path d="M292.026 125.438L290.799 125.656L291.982 125.265C292.731 124.966 293.867 124.679 295.244 124.332C298.771 123.407 302.362 122.746 305.987 122.354C313.295 121.589 320.65 121.365 327.992 121.683C336.546 122.13 337.822 122.69 337.779 124.188C337.736 125.686 336.351 126.219 327.793 125.754C326.531 125.679 324.844 125.533 322.884 125.365C318.17 124.958 311.872 124.416 306.097 124.383C302.51 124.339 298.924 124.527 295.362 124.944C293.954 125.098 292.8 125.242 292.026 125.438Z" fill="#EF6CBD"/>
<path d="M81.3891 128.433L82.9847 129.169L81.4332 128.753L79.4373 128.1C78.928 127.932 78.3662 127.787 77.7664 127.631C77.4728 127.555 77.1701 127.476 76.8599 127.392C71.9971 126.176 67.0107 125.531 62.0009 125.469C50.5186 125.1 37.9521 127.979 32.125 129.339C30.7007 129.672 29.4304 129.974 28.2952 130.243C24.7868 131.075 22.5681 131.602 21.0817 131.797C19.1144 132.055 18.5365 131.797 18.2929 130.977C18.0493 130.157 18.3361 129.552 20.1466 128.673C23.7046 127.172 27.4049 126.035 31.1914 125.279C41.3231 123.022 51.7428 122.343 62.0849 123.263C67.1713 123.776 72.1779 124.904 76.9955 126.623C77.3578 126.76 77.709 126.886 78.0464 127.007C78.576 127.197 79.0714 127.375 79.5219 127.564L81.3891 128.433Z" fill="#EF6CBD"/>
<path d="M118.097 178.968L115.125 178.947L111.663 178.94L107.12 179.151C98.5391 179.642 90.0188 180.89 81.658 182.88C71.9805 185.163 62.5812 188.497 53.626 192.821C46.7517 196.085 40.3021 200.18 34.4205 205.014C34.0449 205.338 33.6704 205.646 33.3044 205.947C32.7037 206.442 32.1255 206.917 31.6026 207.414L29.2451 209.754L27.1713 211.838C26.753 212.292 26.3801 212.759 26.0218 213.208C25.8507 213.422 25.6827 213.633 25.5149 213.835C24.4879 215.086 23.6126 216.188 22.889 217.142C22.3026 217.996 21.7619 218.88 21.269 219.791C19.5897 222.786 19.5795 223.688 20.231 224.093C20.8825 224.498 21.7556 224.112 23.8541 221.617C24.1368 221.296 24.423 220.929 24.7402 220.523C25.0297 220.151 25.3452 219.747 25.7076 219.313C26.1399 218.797 26.6252 218.279 27.1499 217.718L27.1518 217.716L27.1528 217.715L27.1539 217.714L27.155 217.713C27.5507 217.29 27.9688 216.844 28.4034 216.356C28.5771 216.164 28.7508 215.963 28.9283 215.758C29.2771 215.354 29.6405 214.934 30.0474 214.527L32.0657 212.586L34.3159 210.402C34.8302 209.911 35.3964 209.452 35.9837 208.975C36.3233 208.7 36.6703 208.418 37.018 208.122C42.6122 203.384 48.6986 199.262 55.1723 195.827C63.7389 191.216 72.7669 187.521 82.1072 184.804C90.278 182.401 98.6394 180.702 107.1 179.725L111.612 179.247L115.066 179.073L118.097 178.968Z" fill="#EF6CBD"/>
<path d="M82.8265 235.74L83.833 235.302L82.9045 235.904C82.3199 236.272 81.4732 236.835 80.4589 237.531C78.4131 238.929 75.6886 240.902 72.9521 243.19C68.1875 247.266 63.7284 251.687 59.6109 256.419C54.709 261.879 53.6816 262.524 52.5205 261.624C51.3593 260.723 51.5232 259.342 56.6225 253.648C61.1419 248.99 66.2304 244.923 71.7673 241.543C74.4731 239.874 77.2677 238.353 80.1386 236.988C81.0304 236.544 81.7974 236.201 82.3963 235.933L82.6367 235.826L82.8265 235.74Z" fill="#EF6CBD"/>
<path d="M281.457 256.12L282.679 257.335L282.906 257.56C283.671 258.318 284.702 259.339 285.893 260.637C289.259 264.21 292.407 267.983 295.319 271.936C298.637 276.454 301.664 281.178 304.383 286.081C306.938 290.688 308.931 294.811 310.136 297.482C311.051 299.444 311.802 301.095 312.434 302.483L312.434 302.484L312.436 302.488L312.436 302.489C313.485 304.794 314.204 306.374 314.795 307.451C315.743 309.176 316.381 309.382 317.053 309.139C317.724 308.896 318.088 308.309 317.725 306.362C316.815 302.681 315.485 299.117 313.761 295.74C311.84 291.802 309.656 287.998 307.225 284.354C304.076 279.562 300.583 275.007 296.771 270.725C293.482 267.006 289.956 263.505 286.215 260.243C285.004 259.162 283.936 258.289 283.119 257.622C282.963 257.494 282.816 257.374 282.679 257.262L281.457 256.12Z" fill="#EF6CBD"/>
<path d="M153.822 153.443L152.564 152.089L151.109 150.529C150.686 150.107 150.201 149.663 149.677 149.184L149.676 149.183L149.675 149.182C149.471 148.996 149.262 148.804 149.049 148.607C145.133 145.086 140.838 142.013 136.244 139.446C127.338 134.313 116.588 130.436 109.973 128.049C108.837 127.64 107.823 127.274 106.961 126.953C95.1832 122.656 93.5389 121.51 93.9913 120.111C94.4436 118.711 96.4938 118.781 108.375 123.126C118.546 126.876 128.259 131.773 137.328 137.721C141.77 140.725 145.855 144.228 149.504 148.162C149.765 148.456 150.022 148.736 150.27 149.005C150.678 149.45 151.061 149.866 151.392 150.274L153.822 153.443Z" fill="#EF6CBD"/>
<path d="M141.992 172.514L139.871 171.801C139.681 171.742 139.48 171.68 139.267 171.614L139.251 171.609C137.891 171.188 136.086 170.63 133.936 170.049C120.136 166.247 105.933 164.118 91.6311 163.708C85.7992 163.534 79.9624 163.683 74.1478 164.156C69.1146 164.489 64.1208 165.265 59.2239 166.473C56.7197 167.216 56.209 167.803 56.3448 168.559C56.4805 169.314 57.1663 169.71 59.7239 169.542C61.4038 169.431 63.9101 169.183 67.626 168.816L67.6293 168.816C69.57 168.624 71.8406 168.399 74.4956 168.144C78.3574 167.775 84.5315 167.282 91.6066 167.093C99.1489 166.88 106.698 167.114 114.214 167.794C120.781 168.383 127.313 169.32 133.782 170.602C136.32 171.081 138.402 171.566 139.824 171.904L141.992 172.514Z" fill="#EF6CBD"/>
<path d="M198.555 142.205L198.259 146.98C198.259 146.98 198.141 145.137 197.866 142.232C197.59 139.327 197.436 135.308 197.329 131.039C197.056 123.432 197.418 115.817 198.411 108.273C198.753 105.435 199.447 102.651 200.475 99.985C201.104 98.6327 201.741 98.3986 202.414 98.596C203.086 98.7935 203.561 99.2244 203.565 100.692C203.352 103.457 202.976 106.207 202.44 108.927C201.69 113.21 200.146 122.616 199.409 131.083C199.03 135.31 198.753 139.29 198.555 142.205Z" fill="#EF6CBD"/>
<path d="M228.785 159.25L229.954 158.221L230.012 158.168C230.739 157.509 231.777 156.568 233.133 155.582C236.566 152.828 240.24 150.388 244.11 148.294C251.998 144.236 260.276 140.99 268.818 138.604C278.844 135.596 280.362 134.864 279.957 133.332C279.552 131.8 277.828 131.648 267.618 134.721C258.914 137.478 250.631 141.422 243.002 146.444C239.279 148.969 235.805 151.844 232.627 155.03C231.633 155.971 230.844 156.837 230.217 157.525C230.042 157.717 229.88 157.895 229.729 158.057L228.785 159.25Z" fill="#EF6CBD"/>
<path d="M231.261 175.077L228.637 176.143L231.179 174.896L234.168 173.462C234.887 173.121 235.687 172.795 236.542 172.447C237.067 172.233 237.612 172.011 238.172 171.771C245.776 168.636 253.69 166.312 261.781 164.838C271.142 163.157 280.671 162.6 290.165 163.181C297.409 163.616 304.592 164.78 311.605 166.655C313.307 167.078 314.901 167.607 316.363 168.091L316.365 168.092C316.915 168.274 317.447 168.451 317.959 168.613C319.627 169.145 321.267 169.76 322.873 170.457L326.552 172.044C327.561 172.56 328.411 173.025 329.118 173.434C331.927 175.057 332.415 175.833 332.056 176.511C331.696 177.19 330.818 177.411 327.818 176.333C327.076 176.079 326.188 175.753 325.17 175.348L321.497 174.072C320.105 173.561 318.514 172.989 316.691 172.44C316.113 172.266 315.517 172.072 314.899 171.871C313.567 171.438 312.132 170.971 310.549 170.594C303.781 168.699 296.869 167.373 289.883 166.63C272.503 164.735 254.926 166.697 238.398 172.375C237.814 172.587 237.247 172.78 236.703 172.966C235.841 173.259 235.038 173.533 234.315 173.828L231.261 175.077Z" fill="#EF6CBD"/>
<path d="M235.869 221.469C235.869 221.469 236.487 222.176 237.606 223.417C237.813 223.647 238.037 223.894 238.276 224.158L238.277 224.159C239.332 225.322 240.689 226.818 242.242 228.655C246.093 233.099 251.145 239.26 256.213 246.207C261.281 253.153 266.333 260.691 270.539 267.561C274.746 274.431 278.196 280.556 280.296 284.45L281.941 287.425L281.943 287.429C285.228 293.37 287.247 297.021 288.518 299.175C289.99 301.668 290.852 302.038 291.54 301.717C292.228 301.397 292.381 300.55 291.369 297.776C289.234 292.493 286.717 287.372 283.839 282.454C281.678 278.538 277.961 272.444 273.385 265.704C268.808 258.964 263.287 251.6 257.785 244.965C252.284 238.33 246.805 232.442 242.685 228.231C241.483 226.997 240.394 225.911 239.47 224.989L239.469 224.987C238.815 224.335 238.244 223.765 237.773 223.283C236.637 222.12 235.869 221.469 235.869 221.469Z" fill="#EF6CBD"/>
<path d="M228.766 247.37L228.107 245.701L228.934 247.309C229.458 248.371 230.234 249.919 231.213 251.765C233.179 255.492 235.958 260.482 239.118 265.744C240.626 268.248 242.198 270.836 243.757 273.403L243.766 273.418L243.769 273.423C248.694 281.53 253.485 289.416 255.695 293.764C257.711 297.316 259.399 301.044 260.741 304.902C261.345 306.935 261.089 307.587 260.401 307.908C259.713 308.228 259.031 307.996 257.876 306.25C256.721 304.503 254.994 301.286 252.109 295.661C251.405 294.289 250.49 292.522 249.429 290.474C246.138 284.123 241.447 275.069 237.329 266.709C234.617 261.188 232.246 255.929 230.641 252.038C229.821 250.097 229.196 248.492 228.766 247.37Z" fill="#EF6CBD"/>
<path d="M186.702 249.231L186.348 251.891C186.195 253.005 186.006 254.445 185.782 256.155L185.779 256.178C185.664 257.061 185.538 258.016 185.404 259.033C184.668 265.04 183.758 273.256 183.319 282.107C182.829 291.022 183.011 299.962 183.863 308.85C184.518 315.646 185.774 322.371 187.618 328.944C188.638 332.549 189.886 336.086 191.353 339.532C191.534 339.937 191.705 340.325 191.869 340.697L191.87 340.699C192.241 341.539 192.576 342.298 192.901 342.979C193.292 343.802 193.707 344.465 194.068 345.041C194.139 345.153 194.207 345.262 194.273 345.368C195.865 347.978 196.642 348.443 197.308 348.036C197.975 347.629 198.114 346.804 197.133 344.004C196.982 343.407 196.696 342.74 196.366 341.969C196.305 341.825 196.242 341.678 196.178 341.527C195.932 340.947 195.708 340.294 195.467 339.595C195.31 339.135 195.145 338.655 194.962 338.162C193.942 335.574 192.817 332.204 191.529 327.902C189.681 321.531 188.263 315.043 187.286 308.482C186.039 299.787 185.397 291.016 185.365 282.233C185.287 273.44 185.698 265.202 186.059 259.162L186.702 249.231Z" fill="#EF6CBD"/>
<path d="M165.066 240.629C165.186 240.452 165.221 240.59 165.221 240.59C165.108 240.288 164.758 241.514 164.329 243.294C163.899 245.073 163.381 247.517 162.833 250.134C162.539 251.558 162.242 253.032 161.951 254.477L161.95 254.481L161.949 254.484L161.949 254.486C161.171 258.344 160.435 261.992 159.924 263.924C158.518 269.236 157.969 269.815 156.487 269.602C155.005 269.389 154.571 268.25 155.993 262.86C157.395 258.335 159.035 253.888 160.906 249.538C161.928 247.058 162.938 244.747 163.729 243.096C164.123 242.262 164.466 241.588 164.718 241.139C164.814 240.956 164.931 240.785 165.066 240.629Z" fill="#EF6CBD"/>
<path d="M179.888 205.269L178.567 205.694C178.154 205.799 177.603 205.938 177.031 206.211L175.1 207.12C171.536 209.054 168.251 211.464 165.337 214.286C159.499 220.001 154.261 226.301 149.704 233.087C144.473 241.017 144.085 242.455 145.341 243.368C146.597 244.282 147.882 243.278 153.104 235.386C157.258 228.556 161.832 221.993 166.801 215.734C169.317 212.692 172.218 209.991 175.429 207.698L177.2 206.59C177.579 206.38 177.936 206.219 178.255 206.075C178.396 206.012 178.529 205.952 178.653 205.893L179.888 205.269Z" fill="#EF6CBD"/>
<path d="M114.953 190.669C118.246 190.076 120.476 189.844 120.326 190.193C120.437 189.835 118.247 190.296 115.097 191.238C111.947 192.18 107.667 193.573 103.128 195.105C98.7427 196.574 94.103 198.175 89.9424 199.611C85.4531 201.161 81.5217 202.517 79.0699 203.308C69.5959 206.324 68.2484 206.499 67.5941 205.14C66.9398 203.781 68.3225 202.441 77.831 199.416C82.6154 197.914 93.1672 195.251 102.584 193.167C107.283 192.127 111.661 191.261 114.953 190.669Z" fill="#EF6CBD"/>
<path d="M243.297 91.7634C243.297 91.7634 247.493 86.6278 252.917 81.3476C256.455 77.9036 260.444 74.3375 263.58 71.5346C265.252 70.0404 266.681 68.7631 267.67 67.8367C273.408 62.4956 274.007 61.3161 273.056 60.1607C272.105 59.0053 270.767 59.4349 264.974 64.8451C260.133 69.5638 255.626 74.6158 251.487 79.9642C249.136 82.9815 247.095 85.9204 245.655 88.1202C244.214 90.32 243.297 91.7634 243.297 91.7634Z" fill="#EF6CBD"/>
<path d="M214.133 171.781C212.068 174.076 209.871 176.249 207.555 178.289C207.555 178.289 210.033 174.762 212.506 170.558C213.894 168.196 215.309 165.62 216.511 163.432L216.512 163.429L216.514 163.426L216.515 163.424C217.451 161.72 218.258 160.251 218.82 159.306C221.491 155.014 222.359 154.611 223.641 155.408C224.922 156.204 224.955 157.133 222.263 161.484C219.808 165.112 217.091 168.553 214.133 171.781Z" fill="#EF6CBD"/>
<path d="M194.278 176.977C194.278 176.977 193.681 173.309 192.825 169.118C192.135 165.374 191.11 161.7 189.761 158.141C187.918 154.034 187.043 153.686 185.731 154.366C184.42 155.046 184.28 155.87 186.058 159.792C186.471 160.711 187.175 162.13 187.991 163.777C188.902 165.617 189.955 167.741 190.902 169.769C192.696 173.612 194.278 176.977 194.278 176.977Z" fill="#EF6CBD"/>
<path d="M184.709 192.888C186.689 192.756 188.347 192.796 188.347 192.796L185.378 194.813C184.692 195.276 184.005 195.774 183.387 196.222C182.595 196.797 181.916 197.289 181.501 197.517C179.996 198.301 179.491 198.043 178.665 196.801C177.839 195.559 177.794 194.873 179.634 193.894C181.254 193.265 182.971 192.924 184.709 192.888Z" fill="#EF6CBD"/>
<path d="M204.79 190.04L207.488 191.948C208.733 192.894 210.109 193.654 211.572 194.204C213.382 194.628 213.781 194.105 214.009 192.615C214.238 191.126 214.085 190.595 212.512 190.239C211.047 190.069 209.572 189.994 208.098 190.013C206.349 189.977 204.79 190.04 204.79 190.04Z" fill="#EF6CBD"/>
<path d="M324.541 160.451L322.593 159.988L324.57 160.279L324.643 160.29C325.914 160.481 327.714 160.752 329.887 161.176C335.564 162.262 341.165 163.712 346.657 165.517C352.995 167.602 359.182 170.126 365.171 173.072C369.742 175.299 374.16 177.827 378.398 180.639C382.128 182.996 385.597 185.746 388.745 188.842C390.287 190.527 390.358 191.17 389.882 191.823C389.406 192.476 388.657 192.481 386.75 191.31C385.687 190.658 384.245 189.65 382.212 188.23L382.21 188.229L382.205 188.226C380.592 187.099 378.606 185.712 376.143 184.036C373.368 182.111 368.893 179.183 363.557 176.105C357.875 172.853 352 169.952 345.965 167.418C340.677 165.221 335.263 163.344 329.751 161.798C327.579 161.172 325.786 160.743 324.541 160.451Z" fill="#EF6CBD"/>
</g>
<defs>
<filter id="filter1_d" x="0.0986328" y="0.933441" width="402.043" height="378.304" filterUnits="userSpaceOnUse" color-interpolation-filters="sRGB">
<feFlood flood-opacity="0" result="BackgroundImageFix"/>
<feColorMatrix in="SourceAlpha" type="matrix" values="0 0 0 0 0 0 0 0 0 0 0 0 0 0 0 0 0 0 127 0" result="hardAlpha"/>
<feOffset/>
<feGaussianBlur stdDeviation="6"/>
<feComposite in2="hardAlpha" operator="out"/>
<feColorMatrix type="matrix" values="0 0 0 0 0.917647 0 0 0 0 0.231373 0 0 0 0 0.654902 0 0 0 1 0"/>
<feBlend mode="normal" in2="BackgroundImageFix" result="effect1_dropShadow"/>
<feBlend mode="normal" in="SourceGraphic" in2="effect1_dropShadow" result="shape"/>
</filter>
</defs>
</svg>
