<svg width="17" height="16" xmlns="http://www.w3.org/2000/svg">
<path opacity="0.5" d="M0.375 2C0.375 1.44772 0.822715 1 1.375 1H5.75697C6.13574 1 6.482 1.214 6.65139 1.55279L7.375 3H0.375V2Z" />
<path fill-rule="evenodd" clip-rule="evenodd" d="M14.375 4H0.375V13C0.375 14.1046 1.27043 15 2.375 15H14.375C15.4796 15 16.375 14.1046 16.375 13V6C16.375 4.89543 15.4796 4 14.375 4ZM10.3447 6.46967C10.6376 6.17678 11.1124 6.17678 11.4053 6.46967L13.9053 8.96967C14.1982 9.26256 14.1982 9.73744 13.9053 10.0303L11.4053 12.5303C11.1124 12.8232 10.6376 12.8232 10.3447 12.5303C10.0518 12.2374 10.0518 11.7626 10.3447 11.4697L11.5643 10.25L7.375 10.25C6.96079 10.25 6.625 9.91421 6.625 9.5C6.625 9.08579 6.96079 8.75 7.375 8.75L11.5643 8.75L10.3447 7.53033C10.0518 7.23744 10.0518 6.76256 10.3447 6.46967Z" />
</svg>

