<svg width="12" height="12" viewBox="0 0 12 12" xmlns="http://www.w3.org/2000/svg">
<path opacity="0.5" fill-rule="evenodd" clip-rule="evenodd" d="M3 0C2.44772 0 2 0.447715 2 1V1.5H10V1C10 0.447715 9.55229 0 9 0H3ZM2 2.5C1.44772 2.5 1 2.94772 1 3.5V4H11V3.5C11 2.94772 10.5523 2.5 10 2.5H2Z" />
<path fill-rule="evenodd" clip-rule="evenodd" d="M2 6.5H10C10.2761 6.5 10.5 6.72386 10.5 7V9.58836C10.452 9.48363 10.3836 9.38363 10.2929 9.2929L8.70711 7.70712C8.31658 7.31659 7.68342 7.31659 7.29289 7.70712L6.01968 8.98033C5.64528 9.35473 5.04394 9.3724 4.64821 9.02064L4.16436 8.59055C3.78548 8.25377 3.21452 8.25377 2.83564 8.59055L1.5 9.77779V7C1.5 6.72386 1.72386 6.5 2 6.5ZM0.865851 11.6476C0.342806 11.2868 0 10.6834 0 10V7C0 5.89543 0.895431 5 2 5H10C11.1046 5 12 5.89543 12 7V10C12 11.1046 11.1046 12 10 12H7.24961C7.24887 12 7.24814 12 7.2474 12H1.99721C1.57715 11.9994 1.18745 11.8694 0.86587 11.6476C0.865864 11.6476 0.865857 11.6476 0.865851 11.6476Z" />
</svg>
