<svg width="20" height="20" viewBox="0 0 20 20" xmlns="http://www.w3.org/2000/svg">
<path fill-rule="evenodd" clip-rule="evenodd" d="M3 6C1.34315 6 0 7.34315 0 9V17C0 18.6569 1.34315 20 3 20H17C18.6569 20 20 18.6569 20 17V9C20 7.34315 18.6569 6 17 6H3ZM2 9C2 8.44772 2.44772 8 3 8H17C17.5523 8 18 8.44772 18 9V14.4L15.4799 11.6279C14.6864 10.755 13.3136 10.755 12.5201 11.6279L9.10991 15.3791C8.51477 16.0337 7.48523 16.0337 6.89009 15.3791L6.47988 14.9279C5.68636 14.055 4.31364 14.055 3.52012 14.9279L2 16.6V9Z"/>
<circle opacity="0.4" cx="7" cy="11" r="2"/>
<path opacity="0.4" fill-rule="evenodd" clip-rule="evenodd" d="M5 0C3.89543 0 3 0.895431 3 2H17C17 0.895431 16.1046 0 15 0H5ZM3 3C1.89543 3 1 3.89543 1 5H19C19 3.89543 18.1046 3 17 3H3Z"/>
</svg>
