<svg width="16" height="16" xmlns="http://www.w3.org/2000/svg"><path d="M7.997.002A7.81 7.81 0 005.469 15.26a.4.4 0 00.546-.376c0-.187-.007-.68-.01-1.332-2.226.472-2.696-1.05-2.696-1.05a2.086 2.086 0 00-.888-1.145c-.727-.486.056-.475.056-.475.51.066.961.364 1.224.805a1.724 1.724 0 002.328.651c.037-.399.218-.77.508-1.047-1.776-.197-3.643-.872-3.643-3.87a2.988 2.988 0 01.823-2.1 2.759 2.759 0 01.078-2.07s.672-.212 2.2.799a7.763 7.763 0 014.006 0c1.527-1.013 2.197-.8 2.197-.8.295.653.323 1.397.08 2.072.538.565.834 1.32.822 2.1 0 3.008-1.87 3.67-3.653 3.864.386.38.584.91.544 1.45 0 1.047-.01 1.89-.01 2.148a.398.398 0 00.55.375A7.808 7.808 0 007.997.002z"/></svg>