<svg width="16" height="16" xmlns="http://www.w3.org/2000/svg"><path fill-rule="evenodd" clip-rule="evenodd" d="M16 8A8 8 0 1 1 0 8a8 8 0 0 1 16 0ZM7.535 2.262C7.768 2.032 7.924 2 8 2c.076 0 .232.032.465.262.238.234.497.623.737 1.182.389.907.673 2.142.766 3.556H6.032c.093-1.414.377-2.649.766-3.556.24-.56.5-.948.737-1.182ZM4.029 7c.089-1.546.383-2.97.837-4.118A6.004 6.004 0 0 0 2.083 7h1.946ZM2.083 9h1.946c.089 1.546.383 2.97.837 4.118A6.004 6.004 0 0 1 2.083 9Zm3.95 0h3.935c-.093 1.414-.377 2.649-.766 3.556-.24.56-.5.948-.737 1.182-.233.23-.389.262-.465.262-.076 0-.232-.032-.465-.262-.238-.234-.497-.623-.737-1.182-.389-.907-.673-2.142-.766-3.556Zm5.938 0c-.089 1.546-.383 2.97-.837 4.118A6.004 6.004 0 0 0 13.917 9h-1.946Zm1.946-2a6.004 6.004 0 0 0-2.783-4.118c.454 1.147.748 2.572.837 4.118h1.946Z"/></svg>