<svg width="16" height="16" xmlns="http://www.w3.org/2000/svg"><path d="M8.163 6.542v2.969h4.499c-.09.738-.581 1.849-1.67 2.595-.688.472-1.614.8-2.829.8A4.905 4.905 0 013.52 9.582 4.824 4.824 0 013.247 8c0-.552.1-1.084.263-1.583a4.926 4.926 0 014.653-3.324c1.533 0 2.567.65 3.156 1.191l2.304-2.204C12.21.79 10.367 0 8.163 0 4.97 0 2.213 1.796.87 4.408A7.885 7.885 0 000 8c0 1.29.318 2.506.87 3.592C2.214 14.204 4.97 16 8.163 16c2.204 0 4.055-.71 5.407-1.938C15.11 12.666 16 10.613 16 8.177c0-.657-.054-1.137-.173-1.635H8.163z"/></svg>