<svg width="16" height="16" xmlns="http://www.w3.org/2000/svg">
  <rect x="1" y="1" width="14" height="14" rx="2"/>
  <rect x="1" y="1" width="14" height="14" rx="2" fill="url(#paint0_linear)"/>
  <path fill-rule="evenodd" clip-rule="evenodd" d="M12 1H4a3 3 0 00-3 3v8a3 3 0 003 3h8a3 3 0 003-3V4a3 3 0 00-3-3zM4 0a4 4 0 00-4 4v8a4 4 0 004 4h8a4 4 0 004-4V4a4 4 0 00-4-4H4z"/>
  <defs>
    <linearGradient id="paint0_linear" x1="8" y1="1" x2="8" y2="15" gradientUnits="userSpaceOnUse">
      <stop stop-color="#fff" stop-opacity=".2"/>
      <stop offset="1" stop-color="#fff"/>
    </linearGradient>
  </defs>
</svg>