<svg width="16" height="16" viewBox="0 0 16 16" xmlns="http://www.w3.org/2000/svg">
<path fill-rule="evenodd" clip-rule="evenodd" d="M8 16C12.4183 16 16 12.4183 16 8C16 3.58172 12.4183 0 8 0C3.58172 0 0 3.58172 0 8C0 12.4183 3.58172 16 8 16ZM8 4.5C7.17157 4.5 6.5 5.17157 6.5 6V6.5H4.5V6C4.5 4.067 6.067 2.5 8 2.5H8.13613C9.99395 2.5 11.5 4.00605 11.5 5.86387C11.5 6.88575 11.0355 7.85224 10.2375 8.49061L9.40556 9.15617C9.14922 9.36125 9 9.67172 9 10H7C7 9.06416 7.4254 8.17905 8.15617 7.59444L8.98813 6.92887C9.31166 6.67004 9.5 6.27819 9.5 5.86387C9.5 5.11062 8.88938 4.5 8.13613 4.5H8ZM9.25 12.25C9.25 12.9404 8.69036 13.5 8 13.5C7.30964 13.5 6.75 12.9404 6.75 12.25C6.75 11.5596 7.30964 11 8 11C8.69036 11 9.25 11.5596 9.25 12.25Z" />
</svg>
