<svg width="20" height="20" viewBox="0 0 20 20" xmlns="http://www.w3.org/2000/svg">
<path fill-rule="evenodd" clip-rule="evenodd" d="M10 20C15.5228 20 20 15.5228 20 10C20 4.47715 15.5228 0 10 0C4.47715 0 0 4.47715 0 10C0 15.5228 4.47715 20 10 20ZM8 7C8 5.89543 8.89543 5 10 5H10.2188C11.2026 5 12 5.79745 12 6.78115C12 7.4558 11.6188 8.07255 11.0154 8.37426L10.6584 8.55279C9.64201 9.06096 9 10.0998 9 11.2361V12C9 12.5523 9.44772 13 10 13C10.5523 13 11 12.5523 11 12V11.2361C11 10.8573 11.214 10.511 11.5528 10.3416L11.9098 10.1631C13.1908 9.52262 14 8.21335 14 6.78115C14 4.69288 12.3071 3 10.2188 3H10C7.79086 3 6 4.79086 6 7C6 7.55228 6.44772 8 7 8C7.55228 8 8 7.55228 8 7ZM8.75 15.75C8.75 15.06 9.30917 14.5 10 14.5C10.69 14.5 11.25 15.06 11.25 15.75C11.25 16.44 10.69 17 10 17C9.30917 17 8.75 16.44 8.75 15.75Z" />
</svg>
