<svg width="12" height="12" viewBox="0 0 12 12" xmlns="http://www.w3.org/2000/svg">
<g clip-path="url(#clip0_13823_6994)">
<path fill-rule="evenodd" clip-rule="evenodd" d="M6 12C9.31371 12 12 9.31371 12 6C12 2.68629 9.31371 0 6 0C2.68629 0 0 2.68629 0 6C0 9.31371 2.68629 12 6 12ZM6 3.15001C5.4201 3.15001 4.95 3.62011 4.95 4.20001C4.95 4.61423 4.61422 4.95001 4.2 4.95001C3.78579 4.95001 3.45 4.61423 3.45 4.20001C3.45 2.79169 4.59168 1.65001 6 1.65001H6.13131C7.46712 1.65001 8.55 2.7329 8.55 4.0687C8.55 4.98484 8.0324 5.82234 7.21298 6.23205L6.99876 6.33916C6.8463 6.41539 6.75 6.57121 6.75 6.74165V7.20001C6.75 7.61423 6.41422 7.95001 6 7.95001C5.58579 7.95001 5.25 7.61423 5.25 7.20001V6.74165C5.25 6.00305 5.66731 5.32784 6.32794 4.99752L6.54216 4.89041C6.8534 4.73479 7.05 4.41668 7.05 4.0687C7.05 3.56133 6.63869 3.15001 6.13131 3.15001H6ZM6 8.7C5.44733 8.7 5 9.148 5 9.7C5 10.252 5.44733 10.7 6 10.7C6.552 10.7 7 10.252 7 9.7C7 9.148 6.552 8.7 6 8.7Z" />
</g>
<defs>
<clipPath id="clip0_13823_6994">
<rect width="12" height="12" rx="6" fill="white"/>
</clipPath>
</defs>
</svg>
