<svg width="12" height="12" xmlns="http://www.w3.org/2000/svg">
<path fill-rule="evenodd" clip-rule="evenodd" d="M11.5303 1.53033C11.8232 1.23744 11.8232 0.762563 11.5303 0.46967C11.2374 0.176777 10.7626 0.176777 10.4697 0.46967L8.75884 2.1805C7.93289 1.75207 6.99472 1.51001 6 1.51001C3.3872 1.51001 1.16447 3.18009 0.341072 5.51098C0.228208 5.83048 0.228208 6.17955 0.341073 6.49905C0.677555 7.45156 1.24772 8.29372 1.98268 8.95666L0.46967 10.4697C0.176777 10.7626 0.176777 11.2374 0.46967 11.5303C0.762563 11.8232 1.23744 11.8232 1.53033 11.5303L11.5303 1.53033ZM3.41536 7.52398L7.52397 3.41537C7.07734 3.15146 6.55635 3.00001 6 3.00001C4.34315 3.00001 3 4.34316 3 6.00001C3 6.55636 3.15145 7.07735 3.41536 7.52398ZM8.93982 5.3992L10.637 3.70205C11.0758 4.23573 11.4242 4.8465 11.6589 5.51097C11.7718 5.83047 11.7718 6.17954 11.6589 6.49904C10.8355 8.82993 8.6128 10.5 6 10.5C5.34877 10.5 4.72178 10.3963 4.13464 10.2044L5.39919 8.93983C5.59331 8.97929 5.79423 9.00001 6 9.00001C7.65685 9.00001 9 7.65686 9 6.00001C9 5.79424 8.97928 5.59332 8.93982 5.3992Z" />
</svg>
