<svg width="40" height="40" viewBox="0 0 40 40" fill="none" xmlns="http://www.w3.org/2000/svg">
<path fill-rule="evenodd" clip-rule="evenodd" d="M11 2C6.02944 2 2 6.02944 2 11V29C2 33.9706 6.02944 38 11 38H29C33.9706 38 38 33.9706 38 29V11C38 6.02944 33.9706 2 29 2H11ZM4 11C4 7.13401 7.13401 4 11 4H29C32.866 4 36 7.13401 36 11V19.7175L34.8151 18.2035C31.7098 14.2356 25.7538 14.0917 22.4605 17.905L17.9637 23.1118C14.8263 26.7445 9.21844 26.8159 5.9896 23.2642L4 21.0756V11Z" fill="#B6B9C2"/>
<path opacity="0.5" d="M18 13C18 15.7614 15.7614 18 13 18C10.2386 18 8 15.7614 8 13C8 10.2386 10.2386 8 13 8C15.7614 8 18 10.2386 18 13Z" fill="#B6B9C2"/>
</svg>
