<svg width="12" height="12" viewBox="0 0 12 12" xmlns="http://www.w3.org/2000/svg">
<path fill-rule="evenodd" clip-rule="evenodd" d="M3 1.5L9 1.5C9.82843 1.5 10.5 2.17157 10.5 3L10.5 7.5L8.25926 4.8858C7.86016 4.42019 7.13984 4.42019 6.74074 4.8858L2.15301 10.2382C1.75869 9.96789 1.5 9.51416 1.5 9L1.5 3C1.5 2.17157 2.17157 1.5 3 1.5ZM0 3C0 1.34315 1.34315 0 3 0L9 0C10.6569 0 12 1.34315 12 3L12 9C12 10.6569 10.6569 12 9 12L3 12C1.34315 12 0 10.6569 0 9L0 3Z" />
<circle opacity="0.5" cx="4.25" cy="4.25" r="1.25" />
</svg>

