<svg width="16" height="16" xmlns="http://www.w3.org/2000/svg"><path fill-rule="evenodd" clip-rule="evenodd" d="M8 0C5.827 0 5.554.01 4.702.048 3.85.088 3.269.222 2.76.42a3.935 3.935 0 00-1.418.922A3.924 3.924 0 00.42 2.76C.222 3.269.087 3.85.048 4.702.008 5.555 0 5.827 0 8s.009 2.445.048 3.298c.04.852.174 1.433.372 1.943.204.525.478.972.922 1.416.445.445.892.719 1.418.923.509.198 1.09.334 1.942.372C5.554 15.99 5.827 16 8 16s2.445-.01 3.298-.048c.852-.038 1.433-.174 1.942-.372a3.896 3.896 0 001.417-.923 3.91 3.91 0 00.923-1.416c.198-.51.333-1.09.372-1.943C15.99 10.445 16 10.173 16 8s-.01-2.445-.048-3.298c-.04-.852-.174-1.433-.372-1.942a3.916 3.916 0 00-.923-1.418A3.925 3.925 0 0013.24.42c-.509-.198-1.09-.333-1.942-.372C10.445.01 10.173 0 8 0zm4.27 2.77a.96.96 0 100 1.919.96.96 0 000-1.92zM8 10.666a2.666 2.666 0 110-5.332 2.666 2.666 0 010 5.332zM3.892 8a4.108 4.108 0 118.216 0 4.108 4.108 0 01-8.216 0zm7.34-6.512C10.39 1.45 10.137 1.442 8 1.442s-2.389.008-3.233.046c-.78.036-1.203.166-1.485.276-.374.145-.64.318-.92.598a2.49 2.49 0 00-.599.92c-.11.282-.24.705-.275 1.485-.038.844-.046 1.097-.046 3.233s.008 2.389.046 3.233c.035.78.166 1.203.275 1.485.146.373.32.64.599.92.28.28.546.453.92.599.282.11.705.24 1.485.275.843.04 1.097.046 3.233.046 2.137 0 2.389-.007 3.233-.046.78-.035 1.204-.166 1.485-.275.373-.146.64-.319.92-.599.28-.28.453-.547.599-.92.11-.282.239-.705.275-1.485.038-.844.046-1.097.046-3.233s-.008-2.389-.046-3.233c-.036-.78-.166-1.203-.275-1.485a2.472 2.472 0 00-.6-.92 2.477 2.477 0 00-.919-.598c-.281-.11-.705-.24-1.485-.276z"/></svg>