<svg width="204" height="44" viewBox="0 0 204 44" fill="none" xmlns="http://www.w3.org/2000/svg">
<rect width="204" height="44" fill="white"/>
<path d="M6 40.0075C5.83666 40.0075 5.6875 39.9683 5.5525 39.89C5.41916 39.8116 5.31333 39.705 5.235 39.57C5.15833 39.435 5.12 39.2866 5.12 39.125C5.12 38.9633 5.15833 38.815 5.235 38.68C5.31333 38.545 5.42 38.4383 5.555 38.36C5.69 38.2816 5.84 38.2425 6.005 38.2425C6.17 38.2425 6.31916 38.2808 6.4525 38.3575C6.5875 38.4341 6.69333 38.54 6.77 38.675C6.84666 38.8083 6.885 38.9566 6.885 39.12C6.885 39.2833 6.84583 39.4333 6.7675 39.57C6.68916 39.705 6.5825 39.8116 6.4475 39.89C6.3125 39.9683 6.16333 40.0075 6 40.0075ZM6 39.895C6.14333 39.895 6.27333 39.8608 6.39 39.7925C6.50666 39.7241 6.59833 39.6308 6.665 39.5125C6.73333 39.3941 6.7675 39.2633 6.7675 39.12C6.7675 38.9766 6.73416 38.8466 6.6675 38.73C6.6025 38.6133 6.51166 38.5216 6.395 38.455C6.28 38.3883 6.15 38.355 6.005 38.355C5.86166 38.355 5.73083 38.3891 5.6125 38.4575C5.49583 38.5258 5.40416 38.6191 5.3375 38.7375C5.27083 38.8541 5.2375 38.9833 5.2375 39.125C5.2375 39.2666 5.27083 39.3966 5.3375 39.515C5.40416 39.6316 5.49583 39.7241 5.6125 39.7925C5.72916 39.8608 5.85833 39.895 6 39.895ZM6.0275 39.64C5.92583 39.64 5.835 39.6183 5.755 39.575C5.675 39.5316 5.6125 39.4708 5.5675 39.3925C5.5225 39.3141 5.5 39.225 5.5 39.125C5.5 39.025 5.5225 38.9358 5.5675 38.8575C5.6125 38.7791 5.675 38.7183 5.755 38.675C5.835 38.6316 5.92583 38.61 6.0275 38.61C6.11416 38.61 6.19333 38.6283 6.265 38.665C6.33666 38.7016 6.3925 38.7508 6.4325 38.8125L6.29 38.915C6.23 38.825 6.14166 38.78 6.025 38.78C5.92833 38.78 5.84833 38.8116 5.785 38.875C5.72166 38.9383 5.69 39.0216 5.69 39.125C5.69 39.2283 5.72166 39.3116 5.785 39.375C5.84833 39.4383 5.92833 39.47 6.025 39.47C6.14166 39.47 6.23 39.425 6.29 39.335L6.4325 39.435C6.3925 39.4983 6.33666 39.5483 6.265 39.585C6.19333 39.6216 6.11416 39.64 6.0275 39.64Z" fill="black"/>
<path d="M8.72078 40.02C8.54578 40.02 8.38744 39.9816 8.24578 39.905C8.10578 39.8266 7.99578 39.72 7.91578 39.585C7.83578 39.4483 7.79578 39.295 7.79578 39.125C7.79578 38.955 7.83578 38.8025 7.91578 38.6675C7.99578 38.5308 8.10661 38.4241 8.24828 38.3475C8.38994 38.2691 8.54828 38.23 8.72328 38.23C8.85994 38.23 8.98494 38.2533 9.09828 38.3C9.21161 38.345 9.30828 38.4125 9.38828 38.5025L9.22578 38.66C9.09411 38.5216 8.92994 38.4525 8.73328 38.4525C8.60328 38.4525 8.48578 38.4816 8.38078 38.54C8.27578 38.5983 8.19328 38.6791 8.13328 38.7825C8.07494 38.8841 8.04578 38.9983 8.04578 39.125C8.04578 39.2516 8.07494 39.3666 8.13328 39.47C8.19328 39.5716 8.27578 39.6516 8.38078 39.71C8.48578 39.7683 8.60328 39.7975 8.73328 39.7975C8.92828 39.7975 9.09244 39.7275 9.22578 39.5875L9.38828 39.745C9.30828 39.835 9.21078 39.9033 9.09578 39.95C8.98244 39.9966 8.85744 40.02 8.72078 40.02Z" fill="black"/>
<path d="M10.2213 40.015C10.0896 40.015 9.97126 39.9858 9.86626 39.9275C9.76126 39.8691 9.67876 39.7891 9.61876 39.6875C9.56043 39.5841 9.53126 39.4675 9.53126 39.3375C9.53126 39.2075 9.56043 39.0916 9.61876 38.99C9.67876 38.8866 9.76126 38.8066 9.86626 38.75C9.97126 38.6916 10.0896 38.6625 10.2213 38.6625C10.3529 38.6625 10.4704 38.6916 10.5738 38.75C10.6788 38.8066 10.7604 38.8866 10.8188 38.99C10.8788 39.0916 10.9088 39.2075 10.9088 39.3375C10.9088 39.4675 10.8788 39.5841 10.8188 39.6875C10.7604 39.7891 10.6788 39.8691 10.5738 39.9275C10.4704 39.9858 10.3529 40.015 10.2213 40.015ZM10.2213 39.805C10.3063 39.805 10.3821 39.7858 10.4488 39.7475C10.5171 39.7075 10.5704 39.6525 10.6088 39.5825C10.6471 39.5108 10.6663 39.4291 10.6663 39.3375C10.6663 39.2458 10.6471 39.165 10.6088 39.095C10.5704 39.0233 10.5171 38.9683 10.4488 38.93C10.3821 38.8916 10.3063 38.8725 10.2213 38.8725C10.1363 38.8725 10.0596 38.8916 9.99126 38.93C9.9246 38.9683 9.87126 39.0233 9.83126 39.095C9.79293 39.165 9.77376 39.2458 9.77376 39.3375C9.77376 39.4291 9.79293 39.5108 9.83126 39.5825C9.87126 39.6525 9.9246 39.7075 9.99126 39.7475C10.0596 39.7858 10.1363 39.805 10.2213 39.805Z" fill="black"/>
<path d="M11.9432 38.6625C12.0715 38.6625 12.1865 38.6908 12.2882 38.7475C12.3898 38.8041 12.469 38.8833 12.5257 38.985C12.584 39.0866 12.6132 39.2041 12.6132 39.3375C12.6132 39.4708 12.584 39.5891 12.5257 39.6925C12.469 39.7941 12.3898 39.8733 12.2882 39.93C12.1865 39.9866 12.0715 40.015 11.9432 40.015C11.8482 40.015 11.7607 39.9966 11.6807 39.96C11.6023 39.9233 11.5357 39.87 11.4807 39.8V40.485H11.2407V38.675H11.4707V38.885C11.524 38.8116 11.5915 38.7566 11.6732 38.72C11.7548 38.6816 11.8448 38.6625 11.9432 38.6625ZM11.9232 39.805C12.0082 39.805 12.084 39.7858 12.1507 39.7475C12.219 39.7075 12.2723 39.6525 12.3107 39.5825C12.3507 39.5108 12.3707 39.4291 12.3707 39.3375C12.3707 39.2458 12.3507 39.165 12.3107 39.095C12.2723 39.0233 12.219 38.9683 12.1507 38.93C12.084 38.8916 12.0082 38.8725 11.9232 38.8725C11.8398 38.8725 11.764 38.8925 11.6957 38.9325C11.629 38.9708 11.5757 39.025 11.5357 39.095C11.4973 39.165 11.4782 39.2458 11.4782 39.3375C11.4782 39.4291 11.4973 39.5108 11.5357 39.5825C11.574 39.6525 11.6273 39.7075 11.6957 39.7475C11.764 39.7858 11.8398 39.805 11.9232 39.805Z" fill="black"/>
<path d="M14.0807 38.675L13.4382 40.1325C13.3815 40.2675 13.3148 40.3625 13.2382 40.4175C13.1632 40.4725 13.0723 40.5 12.9657 40.5C12.9007 40.5 12.8373 40.4891 12.7757 40.4675C12.7157 40.4475 12.6657 40.4175 12.6257 40.3775L12.7282 40.1975C12.7965 40.2625 12.8757 40.295 12.9657 40.295C13.024 40.295 13.0723 40.2791 13.1107 40.2475C13.1507 40.2175 13.1865 40.165 13.2182 40.09L13.2607 39.9975L12.6757 38.675H12.9257L13.3882 39.735L13.8457 38.675H14.0807Z" fill="black"/>
<path d="M14.5346 38.8975C14.5763 38.8208 14.638 38.7625 14.7196 38.7225C14.8013 38.6825 14.9005 38.6625 15.0171 38.6625V38.895C15.0038 38.8933 14.9855 38.8925 14.9621 38.8925C14.8321 38.8925 14.7296 38.9316 14.6546 39.01C14.5813 39.0866 14.5446 39.1966 14.5446 39.34V40H14.3046V38.675H14.5346V38.8975Z" fill="black"/>
<path d="M15.3129 38.675H15.5529V40H15.3129V38.675ZM15.4329 38.42C15.3863 38.42 15.3471 38.405 15.3154 38.375C15.2854 38.345 15.2704 38.3083 15.2704 38.265C15.2704 38.2216 15.2854 38.185 15.3154 38.155C15.3471 38.1233 15.3863 38.1075 15.4329 38.1075C15.4796 38.1075 15.5179 38.1225 15.5479 38.1525C15.5796 38.1808 15.5954 38.2166 15.5954 38.26C15.5954 38.305 15.5796 38.3433 15.5479 38.375C15.5179 38.405 15.4796 38.42 15.4329 38.42Z" fill="black"/>
<path d="M17.2787 38.675V39.82C17.2787 40.0516 17.2212 40.2225 17.1062 40.3325C16.9912 40.4441 16.8195 40.5 16.5912 40.5C16.4662 40.5 16.347 40.4825 16.2337 40.4475C16.1204 40.4141 16.0287 40.3658 15.9587 40.3025L16.0737 40.1175C16.1354 40.1708 16.2112 40.2125 16.3012 40.2425C16.3929 40.2741 16.487 40.29 16.5837 40.29C16.7387 40.29 16.8529 40.2533 16.9262 40.18C17.0012 40.1066 17.0387 39.995 17.0387 39.845V39.74C16.982 39.8083 16.912 39.86 16.8287 39.895C16.747 39.9283 16.6579 39.945 16.5612 39.945C16.4345 39.945 16.3195 39.9183 16.2162 39.865C16.1145 39.81 16.0345 39.7341 15.9762 39.6375C15.9179 39.5391 15.8887 39.4275 15.8887 39.3025C15.8887 39.1775 15.9179 39.0666 15.9762 38.97C16.0345 38.8716 16.1145 38.7958 16.2162 38.7425C16.3195 38.6891 16.4345 38.6625 16.5612 38.6625C16.6612 38.6625 16.7537 38.6808 16.8387 38.7175C16.9254 38.7541 16.9962 38.8083 17.0512 38.88V38.675H17.2787ZM16.5887 39.735C16.6754 39.735 16.7529 39.7166 16.8212 39.68C16.8912 39.6433 16.9454 39.5925 16.9837 39.5275C17.0237 39.4608 17.0437 39.3858 17.0437 39.3025C17.0437 39.1741 17.0012 39.0708 16.9162 38.9925C16.8312 38.9125 16.722 38.8725 16.5887 38.8725C16.4537 38.8725 16.3437 38.9125 16.2587 38.9925C16.1737 39.0708 16.1312 39.1741 16.1312 39.3025C16.1312 39.3858 16.1504 39.4608 16.1887 39.5275C16.2287 39.5925 16.2829 39.6433 16.3512 39.68C16.4212 39.7166 16.5004 39.735 16.5887 39.735Z" fill="black"/>
<path d="M18.4448 38.6625C18.6131 38.6625 18.7464 38.7116 18.8448 38.81C18.9448 38.9066 18.9948 39.0491 18.9948 39.2375V40H18.7548V39.265C18.7548 39.1366 18.7239 39.04 18.6623 38.975C18.6006 38.91 18.5123 38.8775 18.3973 38.8775C18.2673 38.8775 18.1648 38.9158 18.0898 38.9925C18.0148 39.0675 17.9773 39.1758 17.9773 39.3175V40H17.7373V38.145H17.9773V38.8625C18.0273 38.7991 18.0923 38.75 18.1723 38.715C18.2539 38.68 18.3448 38.6625 18.4448 38.6625Z" fill="black"/>
<path d="M20.1839 39.9225C20.1489 39.9525 20.1056 39.9758 20.0539 39.9925C20.0023 40.0075 19.9489 40.015 19.8939 40.015C19.7606 40.015 19.6573 39.9791 19.5839 39.9075C19.5106 39.8358 19.4739 39.7333 19.4739 39.6V38.8725H19.2489V38.675H19.4739V38.385H19.7139V38.675H20.0939V38.8725H19.7139V39.59C19.7139 39.6616 19.7314 39.7166 19.7664 39.755C19.8031 39.7933 19.8548 39.8125 19.9214 39.8125C19.9948 39.8125 20.0573 39.7916 20.1089 39.75L20.1839 39.9225Z" fill="black"/>
<path d="M21.723 40.015C21.588 40.015 21.4671 39.9858 21.3605 39.9275C21.2555 39.8691 21.173 39.7891 21.113 39.6875C21.053 39.5841 21.023 39.4675 21.023 39.3375C21.023 39.2075 21.053 39.0916 21.113 38.99C21.173 38.8866 21.2555 38.8066 21.3605 38.75C21.4671 38.6916 21.588 38.6625 21.723 38.6625C21.843 38.6625 21.9496 38.6866 22.043 38.735C22.138 38.7833 22.2113 38.8533 22.263 38.945L22.0805 39.0625C22.0388 38.9991 21.9871 38.9516 21.9255 38.92C21.8638 38.8883 21.7955 38.8725 21.7205 38.8725C21.6338 38.8725 21.5555 38.8916 21.4855 38.93C21.4171 38.9683 21.363 39.0233 21.323 39.095C21.2846 39.165 21.2655 39.2458 21.2655 39.3375C21.2655 39.4308 21.2846 39.5133 21.323 39.585C21.363 39.655 21.4171 39.7091 21.4855 39.7475C21.5555 39.7858 21.6338 39.805 21.7205 39.805C21.7955 39.805 21.8638 39.7891 21.9255 39.7575C21.9871 39.7258 22.0388 39.6783 22.0805 39.615L22.263 39.73C22.2113 39.8216 22.138 39.8925 22.043 39.9425C21.9496 39.9908 21.843 40.015 21.723 40.015Z" fill="black"/>
<path d="M23.1217 40.015C22.99 40.015 22.8717 39.9858 22.7667 39.9275C22.6617 39.8691 22.5792 39.7891 22.5192 39.6875C22.4608 39.5841 22.4317 39.4675 22.4317 39.3375C22.4317 39.2075 22.4608 39.0916 22.5192 38.99C22.5792 38.8866 22.6617 38.8066 22.7667 38.75C22.8717 38.6916 22.99 38.6625 23.1217 38.6625C23.2533 38.6625 23.3708 38.6916 23.4742 38.75C23.5792 38.8066 23.6608 38.8866 23.7192 38.99C23.7792 39.0916 23.8092 39.2075 23.8092 39.3375C23.8092 39.4675 23.7792 39.5841 23.7192 39.6875C23.6608 39.7891 23.5792 39.8691 23.4742 39.9275C23.3708 39.9858 23.2533 40.015 23.1217 40.015ZM23.1217 39.805C23.2067 39.805 23.2825 39.7858 23.3492 39.7475C23.4175 39.7075 23.4708 39.6525 23.5092 39.5825C23.5475 39.5108 23.5667 39.4291 23.5667 39.3375C23.5667 39.2458 23.5475 39.165 23.5092 39.095C23.4708 39.0233 23.4175 38.9683 23.3492 38.93C23.2825 38.8916 23.2067 38.8725 23.1217 38.8725C23.0367 38.8725 22.96 38.8916 22.8917 38.93C22.825 38.9683 22.7717 39.0233 22.7317 39.095C22.6933 39.165 22.6742 39.2458 22.6742 39.3375C22.6742 39.4291 22.6933 39.5108 22.7317 39.5825C22.7717 39.6525 22.825 39.7075 22.8917 39.7475C22.96 39.7858 23.0367 39.805 23.1217 39.805Z" fill="black"/>
<path d="M25.7986 38.6625C25.9652 38.6625 26.0969 38.7108 26.1936 38.8075C26.2919 38.9041 26.3411 39.0475 26.3411 39.2375V40H26.1011V39.265C26.1011 39.1366 26.0711 39.04 26.0111 38.975C25.9527 38.91 25.8686 38.8775 25.7586 38.8775C25.6369 38.8775 25.5402 38.9158 25.4686 38.9925C25.3969 39.0675 25.3611 39.1758 25.3611 39.3175V40H25.1211V39.265C25.1211 39.1366 25.0911 39.04 25.0311 38.975C24.9727 38.91 24.8886 38.8775 24.7786 38.8775C24.6569 38.8775 24.5602 38.9158 24.4886 38.9925C24.4169 39.0675 24.3811 39.1758 24.3811 39.3175V40H24.1411V38.675H24.3711V38.8725C24.4194 38.8041 24.4827 38.7525 24.5611 38.7175C24.6394 38.6808 24.7286 38.6625 24.8286 38.6625C24.9319 38.6625 25.0236 38.6833 25.1036 38.725C25.1836 38.7666 25.2452 38.8275 25.2886 38.9075C25.3386 38.8308 25.4077 38.7708 25.4961 38.7275C25.5861 38.6841 25.6869 38.6625 25.7986 38.6625Z" fill="black"/>
<path d="M27.4852 38.6625C27.6135 38.6625 27.7285 38.6908 27.8302 38.7475C27.9318 38.8041 28.011 38.8833 28.0677 38.985C28.126 39.0866 28.1552 39.2041 28.1552 39.3375C28.1552 39.4708 28.126 39.5891 28.0677 39.6925C28.011 39.7941 27.9318 39.8733 27.8302 39.93C27.7285 39.9866 27.6135 40.015 27.4852 40.015C27.3902 40.015 27.3027 39.9966 27.2227 39.96C27.1443 39.9233 27.0777 39.87 27.0227 39.8V40.485H26.7827V38.675H27.0127V38.885C27.066 38.8116 27.1335 38.7566 27.2152 38.72C27.2968 38.6816 27.3868 38.6625 27.4852 38.6625ZM27.4652 39.805C27.5502 39.805 27.626 39.7858 27.6927 39.7475C27.761 39.7075 27.8143 39.6525 27.8527 39.5825C27.8927 39.5108 27.9127 39.4291 27.9127 39.3375C27.9127 39.2458 27.8927 39.165 27.8527 39.095C27.8143 39.0233 27.761 38.9683 27.6927 38.93C27.626 38.8916 27.5502 38.8725 27.4652 38.8725C27.3818 38.8725 27.306 38.8925 27.2377 38.9325C27.171 38.9708 27.1177 39.025 27.0777 39.095C27.0393 39.165 27.0202 39.2458 27.0202 39.3375C27.0202 39.4291 27.0393 39.5108 27.0777 39.5825C27.116 39.6525 27.1693 39.7075 27.2377 39.7475C27.306 39.7858 27.3818 39.805 27.4652 39.805Z" fill="black"/>
<path d="M28.9571 38.6625C29.1404 38.6625 29.2804 38.7075 29.3771 38.7975C29.4754 38.8875 29.5246 39.0216 29.5246 39.2V40H29.2971V39.825C29.2571 39.8866 29.1996 39.9341 29.1246 39.9675C29.0512 39.9991 28.9637 40.015 28.8621 40.015C28.7137 40.015 28.5946 39.9791 28.5046 39.9075C28.4162 39.8358 28.3721 39.7416 28.3721 39.625C28.3721 39.5083 28.4146 39.415 28.4996 39.345C28.5846 39.2733 28.7196 39.2375 28.9046 39.2375H29.2846V39.19C29.2846 39.0866 29.2546 39.0075 29.1946 38.9525C29.1346 38.8975 29.0462 38.87 28.9296 38.87C28.8512 38.87 28.7746 38.8833 28.6996 38.91C28.6246 38.935 28.5612 38.9691 28.5096 39.0125L28.4096 38.8325C28.4779 38.7775 28.5596 38.7358 28.6546 38.7075C28.7496 38.6775 28.8504 38.6625 28.9571 38.6625ZM28.9021 39.83C28.9937 39.83 29.0729 39.81 29.1396 39.77C29.2062 39.7283 29.2546 39.67 29.2846 39.595V39.41H28.9146C28.7112 39.41 28.6096 39.4783 28.6096 39.615C28.6096 39.6816 28.6354 39.7341 28.6871 39.7725C28.7387 39.8108 28.8104 39.83 28.9021 39.83Z" fill="black"/>
<path d="M30.6762 38.6625C30.8445 38.6625 30.9779 38.7116 31.0762 38.81C31.1762 38.9066 31.2262 39.0491 31.2262 39.2375V40H30.9862V39.265C30.9862 39.1366 30.9554 39.04 30.8937 38.975C30.832 38.91 30.7437 38.8775 30.6287 38.8775C30.4987 38.8775 30.3962 38.9158 30.3212 38.9925C30.2462 39.0675 30.2087 39.1758 30.2087 39.3175V40H29.9687V38.675H30.1987V38.875C30.247 38.8066 30.312 38.7541 30.3937 38.7175C30.477 38.6808 30.5712 38.6625 30.6762 38.6625Z" fill="black"/>
<path d="M32.8185 38.675L32.176 40.1325C32.1193 40.2675 32.0526 40.3625 31.976 40.4175C31.901 40.4725 31.8101 40.5 31.7035 40.5C31.6385 40.5 31.5751 40.4891 31.5135 40.4675C31.4535 40.4475 31.4035 40.4175 31.3635 40.3775L31.466 40.1975C31.5343 40.2625 31.6135 40.295 31.7035 40.295C31.7618 40.295 31.8101 40.2791 31.8485 40.2475C31.8885 40.2175 31.9243 40.165 31.956 40.09L31.9985 39.9975L31.4135 38.675H31.6635L32.126 39.735L32.5835 38.675H32.8185Z" fill="black"/>
<path d="M34.4213 38.6625C34.5897 38.6625 34.723 38.7116 34.8213 38.81C34.9213 38.9066 34.9713 39.0491 34.9713 39.2375V40H34.7313V39.265C34.7313 39.1366 34.7005 39.04 34.6388 38.975C34.5772 38.91 34.4888 38.8775 34.3738 38.8775C34.2438 38.8775 34.1413 38.9158 34.0663 38.9925C33.9913 39.0675 33.9538 39.1758 33.9538 39.3175V40H33.7138V38.675H33.9438V38.875C33.9922 38.8066 34.0572 38.7541 34.1388 38.7175C34.2222 38.6808 34.3163 38.6625 34.4213 38.6625Z" fill="black"/>
<path d="M35.898 38.6625C36.0813 38.6625 36.2213 38.7075 36.318 38.7975C36.4163 38.8875 36.4655 39.0216 36.4655 39.2V40H36.238V39.825C36.198 39.8866 36.1405 39.9341 36.0655 39.9675C35.9921 39.9991 35.9046 40.015 35.803 40.015C35.6546 40.015 35.5355 39.9791 35.4455 39.9075C35.3571 39.8358 35.313 39.7416 35.313 39.625C35.313 39.5083 35.3555 39.415 35.4405 39.345C35.5255 39.2733 35.6605 39.2375 35.8455 39.2375H36.2255V39.19C36.2255 39.0866 36.1955 39.0075 36.1355 38.9525C36.0755 38.8975 35.9872 38.87 35.8705 38.87C35.7922 38.87 35.7155 38.8833 35.6405 38.91C35.5655 38.935 35.5021 38.9691 35.4505 39.0125L35.3505 38.8325C35.4188 38.7775 35.5005 38.7358 35.5955 38.7075C35.6905 38.6775 35.7913 38.6625 35.898 38.6625ZM35.843 39.83C35.9346 39.83 36.0138 39.81 36.0805 39.77C36.1471 39.7283 36.1955 39.67 36.2255 39.595V39.41H35.8555C35.6521 39.41 35.5505 39.4783 35.5505 39.615C35.5505 39.6816 35.5763 39.7341 35.628 39.7725C35.6796 39.8108 35.7513 39.83 35.843 39.83Z" fill="black"/>
<path d="M38.5671 38.6625C38.7338 38.6625 38.8655 38.7108 38.9621 38.8075C39.0605 38.9041 39.1096 39.0475 39.1096 39.2375V40H38.8696V39.265C38.8696 39.1366 38.8396 39.04 38.7796 38.975C38.7213 38.91 38.6371 38.8775 38.5271 38.8775C38.4055 38.8775 38.3088 38.9158 38.2371 38.9925C38.1655 39.0675 38.1296 39.1758 38.1296 39.3175V40H37.8896V39.265C37.8896 39.1366 37.8596 39.04 37.7996 38.975C37.7413 38.91 37.6571 38.8775 37.5471 38.8775C37.4255 38.8775 37.3288 38.9158 37.2571 38.9925C37.1855 39.0675 37.1496 39.1758 37.1496 39.3175V40H36.9096V38.675H37.1396V38.8725C37.188 38.8041 37.2513 38.7525 37.3296 38.7175C37.408 38.6808 37.4971 38.6625 37.5971 38.6625C37.7005 38.6625 37.7921 38.6833 37.8721 38.725C37.9521 38.7666 38.0138 38.8275 38.0571 38.9075C38.1071 38.8308 38.1763 38.7708 38.2646 38.7275C38.3546 38.6841 38.4555 38.6625 38.5671 38.6625Z" fill="black"/>
<path d="M40.7561 39.345C40.7561 39.3633 40.7544 39.3875 40.751 39.4175H39.6761C39.6911 39.5341 39.7419 39.6283 39.8286 39.7C39.9169 39.77 40.0261 39.805 40.1561 39.805C40.3144 39.805 40.4419 39.7516 40.5386 39.645L40.6711 39.8C40.6111 39.87 40.5361 39.9233 40.4461 39.96C40.3577 39.9966 40.2586 40.015 40.1486 40.015C40.0086 40.015 39.8844 39.9866 39.7761 39.93C39.6677 39.8716 39.5836 39.7908 39.5236 39.6875C39.4652 39.5841 39.4361 39.4675 39.4361 39.3375C39.4361 39.2091 39.4644 39.0933 39.521 38.99C39.5794 38.8866 39.6586 38.8066 39.7586 38.75C39.8602 38.6916 39.9744 38.6625 40.1011 38.6625C40.2277 38.6625 40.3402 38.6916 40.4385 38.75C40.5385 38.8066 40.6161 38.8866 40.6711 38.99C40.7277 39.0933 40.7561 39.2116 40.7561 39.345ZM40.1011 38.865C39.9861 38.865 39.8894 38.9 39.8111 38.97C39.7344 39.04 39.6894 39.1316 39.6761 39.245H40.5261C40.5127 39.1333 40.4669 39.0425 40.3885 38.9725C40.3119 38.9008 40.2161 38.865 40.1011 38.865Z" fill="black"/>
<path d="M41.1468 40.015C41.1001 40.015 41.0601 39.9991 41.0268 39.9675C40.9935 39.9341 40.9768 39.8925 40.9768 39.8425C40.9768 39.7941 40.9935 39.7541 41.0268 39.7225C41.0601 39.6891 41.1001 39.6725 41.1468 39.6725C41.1935 39.6725 41.2326 39.6883 41.2643 39.72C41.296 39.7516 41.3118 39.7925 41.3118 39.8425C41.3118 39.8925 41.2951 39.9341 41.2618 39.9675C41.2301 39.9991 41.1918 40.015 41.1468 40.015Z" fill="black"/>
<path d="M43.4771 39.5625H42.5471L42.3546 40H42.0971L42.8896 38.25H43.1371L43.9321 40H43.6696L43.4771 39.5625ZM43.3896 39.3625L43.0121 38.505L42.6346 39.3625H43.3896Z" fill="black"/>
<path d="M44.1582 38.145H44.3982V40H44.1582V38.145Z" fill="black"/>
<path d="M44.8564 38.145H45.0964V40H44.8564V38.145Z" fill="black"/>
<path d="M46.456 38.8975C46.4977 38.8208 46.5594 38.7625 46.641 38.7225C46.7227 38.6825 46.8219 38.6625 46.9385 38.6625V38.895C46.9252 38.8933 46.9069 38.8925 46.8835 38.8925C46.7535 38.8925 46.651 38.9316 46.576 39.01C46.5027 39.0866 46.466 39.1966 46.466 39.34V40H46.226V38.675H46.456V38.8975Z" fill="black"/>
<path d="M47.2343 38.675H47.4743V40H47.2343V38.675ZM47.3543 38.42C47.3077 38.42 47.2685 38.405 47.2368 38.375C47.2068 38.345 47.1918 38.3083 47.1918 38.265C47.1918 38.2216 47.2068 38.185 47.2368 38.155C47.2685 38.1233 47.3077 38.1075 47.3543 38.1075C47.401 38.1075 47.4393 38.1225 47.4693 38.1525C47.501 38.1808 47.5168 38.2166 47.5168 38.26C47.5168 38.305 47.501 38.3433 47.4693 38.375C47.4393 38.405 47.401 38.42 47.3543 38.42Z" fill="black"/>
<path d="M49.2001 38.675V39.82C49.2001 40.0516 49.1426 40.2225 49.0276 40.3325C48.9126 40.4441 48.7409 40.5 48.5126 40.5C48.3876 40.5 48.2684 40.4825 48.1551 40.4475C48.0417 40.4141 47.9501 40.3658 47.8801 40.3025L47.9951 40.1175C48.0567 40.1708 48.1326 40.2125 48.2226 40.2425C48.3142 40.2741 48.4084 40.29 48.5051 40.29C48.6601 40.29 48.7742 40.2533 48.8476 40.18C48.9226 40.1066 48.9601 39.995 48.9601 39.845V39.74C48.9034 39.8083 48.8334 39.86 48.7501 39.895C48.6684 39.9283 48.5792 39.945 48.4826 39.945C48.3559 39.945 48.2409 39.9183 48.1376 39.865C48.0359 39.81 47.9559 39.7341 47.8976 39.6375C47.8392 39.5391 47.8101 39.4275 47.8101 39.3025C47.8101 39.1775 47.8392 39.0666 47.8976 38.97C47.9559 38.8716 48.0359 38.7958 48.1376 38.7425C48.2409 38.6891 48.3559 38.6625 48.4826 38.6625C48.5826 38.6625 48.6751 38.6808 48.7601 38.7175C48.8467 38.7541 48.9176 38.8083 48.9726 38.88V38.675H49.2001ZM48.5101 39.735C48.5967 39.735 48.6742 39.7166 48.7426 39.68C48.8126 39.6433 48.8667 39.5925 48.9051 39.5275C48.9451 39.4608 48.9651 39.3858 48.9651 39.3025C48.9651 39.1741 48.9226 39.0708 48.8376 38.9925C48.7526 38.9125 48.6434 38.8725 48.5101 38.8725C48.3751 38.8725 48.2651 38.9125 48.1801 38.9925C48.0951 39.0708 48.0526 39.1741 48.0526 39.3025C48.0526 39.3858 48.0717 39.4608 48.1101 39.5275C48.1501 39.5925 48.2042 39.6433 48.2726 39.68C48.3426 39.7166 48.4217 39.735 48.5101 39.735Z" fill="black"/>
<path d="M50.3661 38.6625C50.5345 38.6625 50.6678 38.7116 50.7661 38.81C50.8661 38.9066 50.9161 39.0491 50.9161 39.2375V40H50.6761V39.265C50.6761 39.1366 50.6453 39.04 50.5836 38.975C50.522 38.91 50.4336 38.8775 50.3186 38.8775C50.1886 38.8775 50.0862 38.9158 50.0112 38.9925C49.9362 39.0675 49.8986 39.1758 49.8986 39.3175V40H49.6586V38.145H49.8986V38.8625C49.9486 38.7991 50.0136 38.75 50.0936 38.715C50.1753 38.68 50.2661 38.6625 50.3661 38.6625Z" fill="black"/>
<path d="M52.1053 39.9225C52.0703 39.9525 52.027 39.9758 51.9753 39.9925C51.9236 40.0075 51.8703 40.015 51.8153 40.015C51.682 40.015 51.5786 39.9791 51.5053 39.9075C51.432 39.8358 51.3953 39.7333 51.3953 39.6V38.8725H51.1703V38.675H51.3953V38.385H51.6353V38.675H52.0153V38.8725H51.6353V39.59C51.6353 39.6616 51.6528 39.7166 51.6878 39.755C51.7245 39.7933 51.7761 39.8125 51.8428 39.8125C51.9161 39.8125 51.9786 39.7916 52.0303 39.75L52.1053 39.9225Z" fill="black"/>
<path d="M52.7755 40.015C52.6671 40.015 52.563 40.0008 52.463 39.9725C52.363 39.9425 52.2846 39.905 52.228 39.86L52.328 39.67C52.3863 39.7116 52.4571 39.745 52.5405 39.77C52.6238 39.795 52.708 39.8075 52.793 39.8075C53.003 39.8075 53.108 39.7475 53.108 39.6275C53.108 39.5875 53.0938 39.5558 53.0655 39.5325C53.0371 39.5091 53.0013 39.4925 52.958 39.4825C52.9163 39.4708 52.8563 39.4583 52.778 39.445C52.6713 39.4283 52.5838 39.4091 52.5155 39.3875C52.4488 39.3658 52.3913 39.3291 52.343 39.2775C52.2946 39.2258 52.2705 39.1533 52.2705 39.06C52.2705 38.94 52.3205 38.8441 52.4205 38.7725C52.5205 38.6991 52.6546 38.6625 52.823 38.6625C52.9113 38.6625 52.9996 38.6733 53.088 38.695C53.1763 38.7166 53.2488 38.7458 53.3055 38.7825L53.203 38.9725C53.0946 38.9025 52.9671 38.8675 52.8205 38.8675C52.7188 38.8675 52.6413 38.8841 52.588 38.9175C52.5346 38.9508 52.508 38.995 52.508 39.05C52.508 39.0933 52.523 39.1275 52.553 39.1525C52.583 39.1775 52.6196 39.1958 52.663 39.2075C52.708 39.2191 52.7705 39.2325 52.8505 39.2475C52.9571 39.2658 53.043 39.2858 53.108 39.3075C53.1746 39.3275 53.2313 39.3625 53.278 39.4125C53.3246 39.4625 53.348 39.5325 53.348 39.6225C53.348 39.7425 53.2963 39.8383 53.193 39.91C53.0913 39.98 52.9521 40.015 52.7755 40.015Z" fill="black"/>
<path d="M54.5493 38.8975C54.591 38.8208 54.6526 38.7625 54.7343 38.7225C54.816 38.6825 54.9151 38.6625 55.0318 38.6625V38.895C55.0185 38.8933 55.0001 38.8925 54.9768 38.8925C54.8468 38.8925 54.7443 38.9316 54.6693 39.01C54.596 39.0866 54.5593 39.1966 54.5593 39.34V40H54.3193V38.675H54.5493V38.8975Z" fill="black"/>
<path d="M56.5129 39.345C56.5129 39.3633 56.5112 39.3875 56.5079 39.4175H55.4329C55.4479 39.5341 55.4987 39.6283 55.5854 39.7C55.6737 39.77 55.7829 39.805 55.9129 39.805C56.0712 39.805 56.1987 39.7516 56.2954 39.645L56.4279 39.8C56.3679 39.87 56.2929 39.9233 56.2029 39.96C56.1146 39.9966 56.0154 40.015 55.9054 40.015C55.7654 40.015 55.6412 39.9866 55.5329 39.93C55.4246 39.8716 55.3404 39.7908 55.2804 39.6875C55.2221 39.5841 55.1929 39.4675 55.1929 39.3375C55.1929 39.2091 55.2212 39.0933 55.2779 38.99C55.3362 38.8866 55.4154 38.8066 55.5154 38.75C55.6171 38.6916 55.7312 38.6625 55.8579 38.6625C55.9846 38.6625 56.0971 38.6916 56.1954 38.75C56.2954 38.8066 56.3729 38.8866 56.4279 38.99C56.4846 39.0933 56.5129 39.2116 56.5129 39.345ZM55.8579 38.865C55.7429 38.865 55.6462 38.9 55.5679 38.97C55.4912 39.04 55.4462 39.1316 55.4329 39.245H56.2829C56.2696 39.1333 56.2237 39.0425 56.1454 38.9725C56.0687 38.9008 55.9729 38.865 55.8579 38.865Z" fill="black"/>
<path d="M57.2261 40.015C57.1178 40.015 57.0136 40.0008 56.9136 39.9725C56.8136 39.9425 56.7353 39.905 56.6786 39.86L56.7786 39.67C56.837 39.7116 56.9078 39.745 56.9911 39.77C57.0745 39.795 57.1586 39.8075 57.2436 39.8075C57.4536 39.8075 57.5586 39.7475 57.5586 39.6275C57.5586 39.5875 57.5445 39.5558 57.5161 39.5325C57.4878 39.5091 57.452 39.4925 57.4086 39.4825C57.367 39.4708 57.307 39.4583 57.2286 39.445C57.122 39.4283 57.0345 39.4091 56.9661 39.3875C56.8995 39.3658 56.842 39.3291 56.7936 39.2775C56.7453 39.2258 56.7211 39.1533 56.7211 39.06C56.7211 38.94 56.7711 38.8441 56.8711 38.7725C56.9711 38.6991 57.1053 38.6625 57.2736 38.6625C57.362 38.6625 57.4503 38.6733 57.5386 38.695C57.627 38.7166 57.6995 38.7458 57.7561 38.7825L57.6536 38.9725C57.5453 38.9025 57.4178 38.8675 57.2711 38.8675C57.1695 38.8675 57.092 38.8841 57.0386 38.9175C56.9853 38.9508 56.9586 38.995 56.9586 39.05C56.9586 39.0933 56.9736 39.1275 57.0036 39.1525C57.0336 39.1775 57.0703 39.1958 57.1136 39.2075C57.1586 39.2191 57.2211 39.2325 57.3011 39.2475C57.4078 39.2658 57.4936 39.2858 57.5586 39.3075C57.6253 39.3275 57.682 39.3625 57.7286 39.4125C57.7753 39.4625 57.7986 39.5325 57.7986 39.6225C57.7986 39.7425 57.747 39.8383 57.6437 39.91C57.542 39.98 57.4028 40.015 57.2261 40.015Z" fill="black"/>
<path d="M59.2961 39.345C59.2961 39.3633 59.2944 39.3875 59.2911 39.4175H58.2161C58.2311 39.5341 58.2819 39.6283 58.3686 39.7C58.4569 39.77 58.5661 39.805 58.6961 39.805C58.8544 39.805 58.9819 39.7516 59.0786 39.645L59.2111 39.8C59.1511 39.87 59.0761 39.9233 58.9861 39.96C58.8978 39.9966 58.7986 40.015 58.6886 40.015C58.5486 40.015 58.4244 39.9866 58.3161 39.93C58.2078 39.8716 58.1236 39.7908 58.0636 39.6875C58.0053 39.5841 57.9761 39.4675 57.9761 39.3375C57.9761 39.2091 58.0044 39.0933 58.0611 38.99C58.1194 38.8866 58.1986 38.8066 58.2986 38.75C58.4003 38.6916 58.5144 38.6625 58.6411 38.6625C58.7678 38.6625 58.8803 38.6916 58.9786 38.75C59.0786 38.8066 59.1561 38.8866 59.2111 38.99C59.2678 39.0933 59.2961 39.2116 59.2961 39.345ZM58.6411 38.865C58.5261 38.865 58.4294 38.9 58.3511 38.97C58.2744 39.04 58.2294 39.1316 58.2161 39.245H59.0661C59.0528 39.1333 59.0069 39.0425 58.9286 38.9725C58.8519 38.9008 58.7561 38.865 58.6411 38.865Z" fill="black"/>
<path d="M59.8594 38.8975C59.901 38.8208 59.9627 38.7625 60.0444 38.7225C60.126 38.6825 60.2252 38.6625 60.3419 38.6625V38.895C60.3285 38.8933 60.3102 38.8925 60.2868 38.8925C60.1569 38.8925 60.0544 38.9316 59.9794 39.01C59.906 39.0866 59.8694 39.1966 59.8694 39.34V40H59.6294V38.675H59.8594V38.8975Z" fill="black"/>
<path d="M61.8639 38.675L61.2839 40H61.0389L60.4589 38.675H60.7089L61.1639 39.7375L61.6289 38.675H61.8639Z" fill="black"/>
<path d="M63.2487 39.345C63.2487 39.3633 63.2471 39.3875 63.2437 39.4175H62.1687C62.1837 39.5341 62.2346 39.6283 62.3212 39.7C62.4096 39.77 62.5187 39.805 62.6487 39.805C62.8071 39.805 62.9346 39.7516 63.0312 39.645L63.1637 39.8C63.1037 39.87 63.0287 39.9233 62.9387 39.96C62.8504 39.9966 62.7512 40.015 62.6412 40.015C62.5012 40.015 62.3771 39.9866 62.2687 39.93C62.1604 39.8716 62.0762 39.7908 62.0162 39.6875C61.9579 39.5841 61.9287 39.4675 61.9287 39.3375C61.9287 39.2091 61.9571 39.0933 62.0137 38.99C62.0721 38.8866 62.1512 38.8066 62.2512 38.75C62.3529 38.6916 62.4671 38.6625 62.5937 38.6625C62.7204 38.6625 62.8329 38.6916 62.9312 38.75C63.0312 38.8066 63.1087 38.8866 63.1637 38.99C63.2204 39.0933 63.2487 39.2116 63.2487 39.345ZM62.5937 38.865C62.4787 38.865 62.3821 38.9 62.3037 38.97C62.2271 39.04 62.1821 39.1316 62.1687 39.245H63.0187C63.0054 39.1333 62.9596 39.0425 62.8812 38.9725C62.8046 38.9008 62.7087 38.865 62.5937 38.865Z" fill="black"/>
<path d="M64.832 38.145V40H64.602V39.79C64.5487 39.8633 64.4812 39.9191 64.3995 39.9575C64.3178 39.9958 64.2278 40.015 64.1295 40.015C64.0012 40.015 63.8862 39.9866 63.7845 39.93C63.6828 39.8733 63.6028 39.7941 63.5445 39.6925C63.4878 39.5891 63.4595 39.4708 63.4595 39.3375C63.4595 39.2041 63.4878 39.0866 63.5445 38.985C63.6028 38.8833 63.6828 38.8041 63.7845 38.7475C63.8862 38.6908 64.0012 38.6625 64.1295 38.6625C64.2245 38.6625 64.312 38.6808 64.392 38.7175C64.472 38.7525 64.5387 38.805 64.592 38.875V38.145H64.832ZM64.1495 39.805C64.2328 39.805 64.3087 39.7858 64.377 39.7475C64.4453 39.7075 64.4987 39.6525 64.537 39.5825C64.5753 39.5108 64.5945 39.4291 64.5945 39.3375C64.5945 39.2458 64.5753 39.165 64.537 39.095C64.4987 39.0233 64.4453 38.9683 64.377 38.93C64.3087 38.8916 64.2328 38.8725 64.1495 38.8725C64.0645 38.8725 63.9878 38.8916 63.9195 38.93C63.8528 38.9683 63.7995 39.0233 63.7595 39.095C63.7212 39.165 63.702 39.2458 63.702 39.3375C63.702 39.4291 63.7212 39.5108 63.7595 39.5825C63.7995 39.6525 63.8528 39.7075 63.9195 39.7475C63.9878 39.7858 64.0645 39.805 64.1495 39.805Z" fill="black"/>
<path d="M65.3436 40.015C65.2969 40.015 65.2569 39.9991 65.2236 39.9675C65.1903 39.9341 65.1736 39.8925 65.1736 39.8425C65.1736 39.7941 65.1903 39.7541 65.2236 39.7225C65.2569 39.6891 65.2969 39.6725 65.3436 39.6725C65.3903 39.6725 65.4294 39.6883 65.4611 39.72C65.4928 39.7516 65.5086 39.7925 65.5086 39.8425C65.5086 39.8925 65.4919 39.9341 65.4586 39.9675C65.4269 39.9991 65.3886 40.015 65.3436 40.015Z" fill="black"/>
<path d="M5.77198 6.59999C5.89598 6.59999 6.00332 6.62066 6.09398 6.66199C6.18598 6.70332 6.25665 6.76199 6.30598 6.83799C6.35532 6.91399 6.37998 7.00399 6.37998 7.10799C6.37998 7.21066 6.35532 7.30066 6.30598 7.37799C6.25665 7.45399 6.18598 7.51266 6.09398 7.55399C6.00332 7.59399 5.89598 7.61399 5.77198 7.61399H5.48998V7.99999H5.16598V6.59999H5.77198ZM5.75398 7.34999C5.85132 7.34999 5.92532 7.32932 5.97598 7.28799C6.02665 7.24532 6.05198 7.18532 6.05198 7.10799C6.05198 7.02932 6.02665 6.96932 5.97598 6.92799C5.92532 6.88532 5.85132 6.86399 5.75398 6.86399H5.48998V7.34999H5.75398Z" fill="black"/>
<path d="M7.50329 7.99999L7.23329 7.60999H7.21729H6.93529V7.99999H6.61129V6.59999H7.21729C7.34129 6.59999 7.44863 6.62066 7.53929 6.66199C7.63129 6.70332 7.70196 6.76199 7.75129 6.83799C7.80063 6.91399 7.82529 7.00399 7.82529 7.10799C7.82529 7.21199 7.79996 7.30199 7.74929 7.37799C7.69996 7.45266 7.62929 7.50999 7.53729 7.54999L7.85129 7.99999H7.50329ZM7.49729 7.10799C7.49729 7.02932 7.47196 6.96932 7.42129 6.92799C7.37063 6.88532 7.29663 6.86399 7.19929 6.86399H6.93529V7.35199H7.19929C7.29663 7.35199 7.37063 7.33066 7.42129 7.28799C7.47196 7.24532 7.49729 7.18532 7.49729 7.10799Z" fill="black"/>
<path d="M8.76 8.02399C8.61466 8.02399 8.48333 7.99266 8.366 7.92999C8.25 7.86732 8.15866 7.78132 8.092 7.67199C8.02666 7.56132 7.994 7.43732 7.994 7.29999C7.994 7.16266 8.02666 7.03932 8.092 6.92999C8.15866 6.81932 8.25 6.73266 8.366 6.66999C8.48333 6.60732 8.61466 6.57599 8.76 6.57599C8.90533 6.57599 9.036 6.60732 9.152 6.66999C9.268 6.73266 9.35933 6.81932 9.426 6.92999C9.49266 7.03932 9.526 7.16266 9.526 7.29999C9.526 7.43732 9.49266 7.56132 9.426 7.67199C9.35933 7.78132 9.268 7.86732 9.152 7.92999C9.036 7.99266 8.90533 8.02399 8.76 8.02399ZM8.76 7.74799C8.84266 7.74799 8.91733 7.72932 8.984 7.69199C9.05066 7.65332 9.10266 7.59999 9.14 7.53199C9.17866 7.46399 9.198 7.38666 9.198 7.29999C9.198 7.21332 9.17866 7.13599 9.14 7.06799C9.10266 6.99999 9.05066 6.94732 8.984 6.90999C8.91733 6.87132 8.84266 6.85199 8.76 6.85199C8.67733 6.85199 8.60266 6.87132 8.536 6.90999C8.46933 6.94732 8.41666 6.99999 8.378 7.06799C8.34066 7.13599 8.322 7.21332 8.322 7.29999C8.322 7.38666 8.34066 7.46399 8.378 7.53199C8.41666 7.59999 8.46933 7.65332 8.536 7.69199C8.60266 7.72932 8.67733 7.74799 8.76 7.74799Z" fill="black"/>
<path d="M9.7695 6.59999H10.4055C10.5575 6.59999 10.6915 6.62932 10.8075 6.68799C10.9248 6.74532 11.0155 6.82666 11.0795 6.93199C11.1448 7.03732 11.1775 7.15999 11.1775 7.29999C11.1775 7.43999 11.1448 7.56266 11.0795 7.66799C11.0155 7.77332 10.9248 7.85532 10.8075 7.91399C10.6915 7.97132 10.5575 7.99999 10.4055 7.99999H9.7695V6.59999ZM10.3895 7.73399C10.5295 7.73399 10.6408 7.69532 10.7235 7.61799C10.8075 7.53932 10.8495 7.43332 10.8495 7.29999C10.8495 7.16666 10.8075 7.06132 10.7235 6.98399C10.6408 6.90532 10.5295 6.86599 10.3895 6.86599H10.0935V7.73399H10.3895Z" fill="black"/>
<path d="M12.0438 8.02399C11.8438 8.02399 11.6878 7.96866 11.5758 7.85799C11.4652 7.74732 11.4098 7.58932 11.4098 7.38399V6.59999H11.7338V7.37199C11.7338 7.62266 11.8378 7.74799 12.0458 7.74799C12.1472 7.74799 12.2245 7.71799 12.2778 7.65799C12.3312 7.59666 12.3578 7.50132 12.3578 7.37199V6.59999H12.6778V7.38399C12.6778 7.58932 12.6218 7.74732 12.5098 7.85799C12.3992 7.96866 12.2438 8.02399 12.0438 8.02399Z" fill="black"/>
<path d="M13.668 8.02399C13.5253 8.02399 13.396 7.99332 13.28 7.93199C13.1653 7.86932 13.0747 7.78332 13.008 7.67399C12.9427 7.56332 12.91 7.43866 12.91 7.29999C12.91 7.16132 12.9427 7.03732 13.008 6.92799C13.0747 6.81732 13.1653 6.73132 13.28 6.66999C13.396 6.60732 13.526 6.57599 13.67 6.57599C13.7913 6.57599 13.9007 6.59732 13.998 6.63999C14.0967 6.68266 14.1793 6.74399 14.246 6.82399L14.038 7.01599C13.9433 6.90666 13.826 6.85199 13.686 6.85199C13.5993 6.85199 13.522 6.87132 13.454 6.90999C13.386 6.94732 13.3327 6.99999 13.294 7.06799C13.2567 7.13599 13.238 7.21332 13.238 7.29999C13.238 7.38666 13.2567 7.46399 13.294 7.53199C13.3327 7.59999 13.386 7.65332 13.454 7.69199C13.522 7.72932 13.5993 7.74799 13.686 7.74799C13.826 7.74799 13.9433 7.69266 14.038 7.58199L14.246 7.77399C14.1793 7.85532 14.0967 7.91732 13.998 7.95999C13.8993 8.00266 13.7893 8.02399 13.668 8.02399Z" fill="black"/>
<path d="M14.7411 6.86399H14.2931V6.59999H15.5131V6.86399H15.0651V7.99999H14.7411V6.86399Z" fill="black"/>
<path d="M5.61498 12.161V12.893H6.66798V13.151H5.61498V14H5.31498V11.9H6.79698V12.161H5.61498Z" fill="black"/>
<path d="M8.56447 13.214C8.56447 13.236 8.56247 13.265 8.55847 13.301H7.26847C7.28647 13.441 7.34747 13.554 7.45147 13.64C7.55747 13.724 7.68847 13.766 7.84447 13.766C8.03447 13.766 8.18747 13.702 8.30347 13.574L8.46247 13.76C8.39047 13.844 8.30047 13.908 8.19247 13.952C8.08647 13.996 7.96747 14.018 7.83547 14.018C7.66747 14.018 7.51847 13.984 7.38847 13.916C7.25847 13.846 7.15747 13.749 7.08547 13.625C7.01547 13.501 6.98047 13.361 6.98047 13.205C6.98047 13.051 7.01447 12.912 7.08247 12.788C7.15247 12.664 7.24747 12.568 7.36747 12.5C7.48947 12.43 7.62647 12.395 7.77847 12.395C7.93047 12.395 8.06547 12.43 8.18347 12.5C8.30347 12.568 8.39647 12.664 8.46247 12.788C8.53047 12.912 8.56447 13.054 8.56447 13.214ZM7.77847 12.638C7.64047 12.638 7.52447 12.68 7.43047 12.764C7.33847 12.848 7.28447 12.958 7.26847 13.094H8.28847C8.27247 12.96 8.21747 12.851 8.12347 12.767C8.03147 12.681 7.91647 12.638 7.77847 12.638Z" fill="black"/>
<path d="M9.49944 12.395C9.71944 12.395 9.88744 12.449 10.0034 12.557C10.1214 12.665 10.1804 12.826 10.1804 13.04V14H9.90744V13.79C9.85944 13.864 9.79044 13.921 9.70044 13.961C9.61244 13.999 9.50744 14.018 9.38544 14.018C9.20744 14.018 9.06444 13.975 8.95644 13.889C8.85044 13.803 8.79744 13.69 8.79744 13.55C8.79744 13.41 8.84844 13.298 8.95044 13.214C9.05244 13.128 9.21444 13.085 9.43644 13.085H9.89244V13.028C9.89244 12.904 9.85644 12.809 9.78444 12.743C9.71244 12.677 9.60644 12.644 9.46644 12.644C9.37244 12.644 9.28044 12.66 9.19044 12.692C9.10044 12.722 9.02444 12.763 8.96244 12.815L8.84244 12.599C8.92444 12.533 9.02244 12.483 9.13644 12.449C9.25044 12.413 9.37144 12.395 9.49944 12.395ZM9.43344 13.796C9.54344 13.796 9.63844 13.772 9.71844 13.724C9.79844 13.674 9.85644 13.604 9.89244 13.514V13.292H9.44844C9.20444 13.292 9.08244 13.374 9.08244 13.538C9.08244 13.618 9.11344 13.681 9.17544 13.727C9.23744 13.773 9.32344 13.796 9.43344 13.796Z" fill="black"/>
<path d="M11.6074 13.907C11.5654 13.943 11.5134 13.971 11.4514 13.991C11.3894 14.009 11.3254 14.018 11.2594 14.018C11.0994 14.018 10.9754 13.975 10.8874 13.889C10.7994 13.803 10.7554 13.68 10.7554 13.52V12.647H10.4854V12.41H10.7554V12.062H11.0434V12.41H11.4994V12.647H11.0434V13.508C11.0434 13.594 11.0644 13.66 11.1064 13.706C11.1504 13.752 11.2124 13.775 11.2924 13.775C11.3804 13.775 11.4554 13.75 11.5174 13.7L11.6074 13.907Z" fill="black"/>
<path d="M13.4376 12.41V14H13.1646V13.76C13.1066 13.842 13.0296 13.906 12.9336 13.952C12.8396 13.996 12.7366 14.018 12.6246 14.018C12.4126 14.018 12.2456 13.96 12.1236 13.844C12.0016 13.726 11.9406 13.553 11.9406 13.325V12.41H12.2286V13.292C12.2286 13.446 12.2656 13.563 12.3396 13.643C12.4136 13.721 12.5196 13.76 12.6576 13.76C12.8096 13.76 12.9296 13.714 13.0176 13.622C13.1056 13.53 13.1496 13.4 13.1496 13.232V12.41H13.4376Z" fill="black"/>
<path d="M14.2619 12.677C14.3119 12.585 14.3859 12.515 14.4839 12.467C14.5819 12.419 14.7009 12.395 14.8409 12.395V12.674C14.8249 12.672 14.8029 12.671 14.7749 12.671C14.6189 12.671 14.4959 12.718 14.4059 12.812C14.3179 12.904 14.2739 13.036 14.2739 13.208V14H13.9859V12.41H14.2619V12.677Z" fill="black"/>
<path d="M16.6182 13.214C16.6182 13.236 16.6162 13.265 16.6122 13.301H15.3222C15.3402 13.441 15.4012 13.554 15.5052 13.64C15.6112 13.724 15.7422 13.766 15.8982 13.766C16.0882 13.766 16.2412 13.702 16.3572 13.574L16.5162 13.76C16.4442 13.844 16.3542 13.908 16.2462 13.952C16.1402 13.996 16.0212 14.018 15.8892 14.018C15.7212 14.018 15.5722 13.984 15.4422 13.916C15.3122 13.846 15.2112 13.749 15.1392 13.625C15.0692 13.501 15.0342 13.361 15.0342 13.205C15.0342 13.051 15.0682 12.912 15.1362 12.788C15.2062 12.664 15.3012 12.568 15.4212 12.5C15.5432 12.43 15.6802 12.395 15.8322 12.395C15.9842 12.395 16.1192 12.43 16.2372 12.5C16.3572 12.568 16.4502 12.664 16.5162 12.788C16.5842 12.912 16.6182 13.054 16.6182 13.214ZM15.8322 12.638C15.6942 12.638 15.5782 12.68 15.4842 12.764C15.3922 12.848 15.3382 12.958 15.3222 13.094H16.3422C16.3262 12.96 16.2712 12.851 16.1772 12.767C16.0852 12.681 15.9702 12.638 15.8322 12.638Z" fill="black"/>
<path d="M17.4741 14.018C17.3441 14.018 17.2191 14.001 17.0991 13.967C16.9791 13.931 16.8851 13.886 16.8171 13.832L16.9371 13.604C17.0071 13.654 17.0921 13.694 17.1921 13.724C17.2921 13.754 17.3931 13.769 17.4951 13.769C17.7471 13.769 17.8731 13.697 17.8731 13.553C17.8731 13.505 17.8561 13.467 17.8221 13.439C17.7881 13.411 17.7451 13.391 17.6931 13.379C17.6431 13.365 17.5711 13.35 17.4771 13.334C17.3491 13.314 17.2441 13.291 17.1621 13.265C17.0821 13.239 17.0131 13.195 16.9551 13.133C16.8971 13.071 16.8681 12.984 16.8681 12.872C16.8681 12.728 16.9281 12.613 17.0481 12.527C17.1681 12.439 17.3291 12.395 17.5311 12.395C17.6371 12.395 17.7431 12.408 17.8491 12.434C17.9551 12.46 18.0421 12.495 18.1101 12.539L17.9871 12.767C17.8571 12.683 17.7041 12.641 17.5281 12.641C17.4061 12.641 17.3131 12.661 17.2491 12.701C17.1851 12.741 17.1531 12.794 17.1531 12.86C17.1531 12.912 17.1711 12.953 17.2071 12.983C17.2431 13.013 17.2871 13.035 17.3391 13.049C17.3931 13.063 17.4681 13.079 17.5641 13.097C17.6921 13.119 17.7951 13.143 17.8731 13.169C17.9531 13.193 18.0211 13.235 18.0771 13.295C18.1331 13.355 18.1611 13.439 18.1611 13.547C18.1611 13.691 18.0991 13.806 17.9751 13.892C17.8531 13.976 17.6861 14.018 17.4741 14.018Z" fill="black"/>
<path d="M6.25398 20.024C6.04398 20.024 5.85398 19.978 5.68398 19.886C5.51598 19.792 5.38398 19.664 5.28798 19.502C5.19198 19.338 5.14398 19.154 5.14398 18.95C5.14398 18.746 5.19198 18.563 5.28798 18.401C5.38398 18.237 5.51698 18.109 5.68698 18.017C5.85698 17.923 6.04698 17.876 6.25698 17.876C6.42098 17.876 6.57098 17.904 6.70698 17.96C6.84298 18.014 6.95898 18.095 7.05498 18.203L6.85998 18.392C6.70198 18.226 6.50498 18.143 6.26898 18.143C6.11298 18.143 5.97198 18.178 5.84598 18.248C5.71998 18.318 5.62098 18.415 5.54898 18.539C5.47898 18.661 5.44398 18.798 5.44398 18.95C5.44398 19.102 5.47898 19.24 5.54898 19.364C5.62098 19.486 5.71998 19.582 5.84598 19.652C5.97198 19.722 6.11298 19.757 6.26898 19.757C6.50298 19.757 6.69998 19.673 6.85998 19.505L7.05498 19.694C6.95898 19.802 6.84198 19.884 6.70398 19.94C6.56798 19.996 6.41798 20.024 6.25398 20.024Z" fill="black"/>
<path d="M8.05457 20.018C7.89657 20.018 7.75457 19.983 7.62857 19.913C7.50257 19.843 7.40357 19.747 7.33157 19.625C7.26157 19.501 7.22657 19.361 7.22657 19.205C7.22657 19.049 7.26157 18.91 7.33157 18.788C7.40357 18.664 7.50257 18.568 7.62857 18.5C7.75457 18.43 7.89657 18.395 8.05457 18.395C8.21257 18.395 8.35357 18.43 8.47757 18.5C8.60357 18.568 8.70157 18.664 8.77157 18.788C8.84357 18.91 8.87957 19.049 8.87957 19.205C8.87957 19.361 8.84357 19.501 8.77157 19.625C8.70157 19.747 8.60357 19.843 8.47757 19.913C8.35357 19.983 8.21257 20.018 8.05457 20.018ZM8.05457 19.766C8.15657 19.766 8.24757 19.743 8.32757 19.697C8.40957 19.649 8.47357 19.583 8.51957 19.499C8.56557 19.413 8.58857 19.315 8.58857 19.205C8.58857 19.095 8.56557 18.998 8.51957 18.914C8.47357 18.828 8.40957 18.762 8.32757 18.716C8.24757 18.67 8.15657 18.647 8.05457 18.647C7.95257 18.647 7.86057 18.67 7.77857 18.716C7.69857 18.762 7.63457 18.828 7.58657 18.914C7.54057 18.998 7.51757 19.095 7.51757 19.205C7.51757 19.315 7.54057 19.413 7.58657 19.499C7.63457 19.583 7.69857 19.649 7.77857 19.697C7.86057 19.743 7.95257 19.766 8.05457 19.766Z" fill="black"/>
<path d="M10.1269 18.395C10.3289 18.395 10.4889 18.454 10.6069 18.572C10.7269 18.688 10.7869 18.859 10.7869 19.085V20H10.4989V19.118C10.4989 18.964 10.4619 18.848 10.3879 18.77C10.3139 18.692 10.2079 18.653 10.0699 18.653C9.91386 18.653 9.79086 18.699 9.70086 18.791C9.61086 18.881 9.56586 19.011 9.56586 19.181V20H9.27786V18.41H9.55386V18.65C9.61186 18.568 9.68986 18.505 9.78786 18.461C9.88786 18.417 10.0009 18.395 10.1269 18.395Z" fill="black"/>
<path d="M12.2139 19.907C12.1719 19.943 12.1199 19.971 12.0579 19.991C11.9959 20.009 11.9319 20.018 11.8659 20.018C11.7059 20.018 11.5819 19.975 11.4939 19.889C11.4059 19.803 11.3619 19.68 11.3619 19.52V18.647H11.0919V18.41H11.3619V18.062H11.6499V18.41H12.1059V18.647H11.6499V19.508C11.6499 19.594 11.6709 19.66 11.7129 19.706C11.7569 19.752 11.8189 19.775 11.8989 19.775C11.9869 19.775 12.0619 19.75 12.1239 19.7L12.2139 19.907Z" fill="black"/>
<path d="M13.141 18.395C13.361 18.395 13.529 18.449 13.645 18.557C13.763 18.665 13.822 18.826 13.822 19.04V20H13.549V19.79C13.501 19.864 13.432 19.921 13.342 19.961C13.254 19.999 13.149 20.018 13.027 20.018C12.849 20.018 12.706 19.975 12.598 19.889C12.492 19.803 12.439 19.69 12.439 19.55C12.439 19.41 12.49 19.298 12.592 19.214C12.694 19.128 12.856 19.085 13.078 19.085H13.534V19.028C13.534 18.904 13.498 18.809 13.426 18.743C13.354 18.677 13.248 18.644 13.108 18.644C13.014 18.644 12.922 18.66 12.832 18.692C12.742 18.722 12.666 18.763 12.604 18.815L12.484 18.599C12.566 18.533 12.664 18.483 12.778 18.449C12.892 18.413 13.013 18.395 13.141 18.395ZM13.075 19.796C13.185 19.796 13.28 19.772 13.36 19.724C13.44 19.674 13.498 19.604 13.534 19.514V19.292H13.09C12.846 19.292 12.724 19.374 12.724 19.538C12.724 19.618 12.755 19.681 12.817 19.727C12.879 19.773 12.965 19.796 13.075 19.796Z" fill="black"/>
<path d="M15.0568 20.018C14.8948 20.018 14.7498 19.983 14.6218 19.913C14.4958 19.843 14.3968 19.747 14.3248 19.625C14.2528 19.501 14.2168 19.361 14.2168 19.205C14.2168 19.049 14.2528 18.91 14.3248 18.788C14.3968 18.664 14.4958 18.568 14.6218 18.5C14.7498 18.43 14.8948 18.395 15.0568 18.395C15.2008 18.395 15.3288 18.424 15.4408 18.482C15.5548 18.54 15.6428 18.624 15.7048 18.734L15.4858 18.875C15.4358 18.799 15.3738 18.742 15.2998 18.704C15.2258 18.666 15.1438 18.647 15.0538 18.647C14.9498 18.647 14.8558 18.67 14.7718 18.716C14.6898 18.762 14.6248 18.828 14.5768 18.914C14.5308 18.998 14.5078 19.095 14.5078 19.205C14.5078 19.317 14.5308 19.416 14.5768 19.502C14.6248 19.586 14.6898 19.651 14.7718 19.697C14.8558 19.743 14.9498 19.766 15.0538 19.766C15.1438 19.766 15.2258 19.747 15.2998 19.709C15.3738 19.671 15.4358 19.614 15.4858 19.538L15.7048 19.676C15.6428 19.786 15.5548 19.871 15.4408 19.931C15.3288 19.989 15.2008 20.018 15.0568 20.018Z" fill="black"/>
<path d="M16.9922 19.907C16.9502 19.943 16.8982 19.971 16.8362 19.991C16.7742 20.009 16.7102 20.018 16.6442 20.018C16.4842 20.018 16.3602 19.975 16.2722 19.889C16.1842 19.803 16.1402 19.68 16.1402 19.52V18.647H15.8702V18.41H16.1402V18.062H16.4282V18.41H16.8842V18.647H16.4282V19.508C16.4282 19.594 16.4492 19.66 16.4912 19.706C16.5352 19.752 16.5972 19.775 16.6772 19.775C16.7652 19.775 16.8402 19.75 16.9022 19.7L16.9922 19.907Z" fill="black"/>
<path d="M6.72798 24.911C6.84998 24.945 6.94598 25.007 7.01598 25.097C7.08598 25.185 7.12098 25.297 7.12098 25.433C7.12098 25.615 7.05198 25.755 6.91398 25.853C6.77798 25.951 6.57898 26 6.31698 26H5.31498V23.9H6.25698C6.49698 23.9 6.68198 23.948 6.81198 24.044C6.94398 24.14 7.00998 24.273 7.00998 24.443C7.00998 24.553 6.98398 24.648 6.93198 24.728C6.88198 24.808 6.81398 24.869 6.72798 24.911ZM5.61498 24.143V24.815H6.22998C6.38398 24.815 6.50198 24.787 6.58398 24.731C6.66798 24.673 6.70998 24.589 6.70998 24.479C6.70998 24.369 6.66798 24.286 6.58398 24.23C6.50198 24.172 6.38398 24.143 6.22998 24.143H5.61498ZM6.30498 25.757C6.47498 25.757 6.60298 25.729 6.68898 25.673C6.77498 25.617 6.81798 25.529 6.81798 25.409C6.81798 25.175 6.64698 25.058 6.30498 25.058H5.61498V25.757H6.30498Z" fill="black"/>
<path d="M7.54349 23.774H7.83149V26H7.54349V23.774Z" fill="black"/>
<path d="M9.06238 26.018C8.90438 26.018 8.76238 25.983 8.63638 25.913C8.51038 25.843 8.41138 25.747 8.33938 25.625C8.26938 25.501 8.23438 25.361 8.23438 25.205C8.23438 25.049 8.26938 24.91 8.33938 24.788C8.41138 24.664 8.51038 24.568 8.63638 24.5C8.76238 24.43 8.90438 24.395 9.06238 24.395C9.22038 24.395 9.36138 24.43 9.48538 24.5C9.61138 24.568 9.70938 24.664 9.77938 24.788C9.85138 24.91 9.88738 25.049 9.88738 25.205C9.88738 25.361 9.85138 25.501 9.77938 25.625C9.70938 25.747 9.61138 25.843 9.48538 25.913C9.36138 25.983 9.22038 26.018 9.06238 26.018ZM9.06238 25.766C9.16438 25.766 9.25538 25.743 9.33538 25.697C9.41738 25.649 9.48138 25.583 9.52738 25.499C9.57338 25.413 9.59638 25.315 9.59638 25.205C9.59638 25.095 9.57338 24.998 9.52738 24.914C9.48138 24.828 9.41738 24.762 9.33538 24.716C9.25538 24.67 9.16438 24.647 9.06238 24.647C8.96038 24.647 8.86838 24.67 8.78638 24.716C8.70638 24.762 8.64238 24.828 8.59438 24.914C8.54838 24.998 8.52538 25.095 8.52538 25.205C8.52538 25.315 8.54838 25.413 8.59438 25.499C8.64238 25.583 8.70638 25.649 8.78638 25.697C8.86838 25.743 8.96038 25.766 9.06238 25.766Z" fill="black"/>
<path d="M11.8067 24.41V25.784C11.8067 26.062 11.7377 26.267 11.5997 26.399C11.4617 26.533 11.2557 26.6 10.9817 26.6C10.8317 26.6 10.6887 26.579 10.5527 26.537C10.4167 26.497 10.3067 26.439 10.2227 26.363L10.3607 26.141C10.4347 26.205 10.5257 26.255 10.6337 26.291C10.7437 26.329 10.8567 26.348 10.9727 26.348C11.1587 26.348 11.2957 26.304 11.3837 26.216C11.4737 26.128 11.5187 25.994 11.5187 25.814V25.688C11.4507 25.77 11.3667 25.832 11.2667 25.874C11.1687 25.914 11.0617 25.934 10.9457 25.934C10.7937 25.934 10.6557 25.902 10.5317 25.838C10.4097 25.772 10.3137 25.681 10.2437 25.565C10.1737 25.447 10.1387 25.313 10.1387 25.163C10.1387 25.013 10.1737 24.88 10.2437 24.764C10.3137 24.646 10.4097 24.555 10.5317 24.491C10.6557 24.427 10.7937 24.395 10.9457 24.395C11.0657 24.395 11.1767 24.417 11.2787 24.461C11.3827 24.505 11.4677 24.57 11.5337 24.656V24.41H11.8067ZM10.9787 25.682C11.0827 25.682 11.1757 25.66 11.2577 25.616C11.3417 25.572 11.4067 25.511 11.4527 25.433C11.5007 25.353 11.5247 25.263 11.5247 25.163C11.5247 25.009 11.4737 24.885 11.3717 24.791C11.2697 24.695 11.1387 24.647 10.9787 24.647C10.8167 24.647 10.6847 24.695 10.5827 24.791C10.4807 24.885 10.4297 25.009 10.4297 25.163C10.4297 25.263 10.4527 25.353 10.4987 25.433C10.5467 25.511 10.6117 25.572 10.6937 25.616C10.7777 25.66 10.8727 25.682 10.9787 25.682Z" fill="black"/>
<path d="M35.836 8.02399C35.6934 8.02399 35.564 7.99332 35.448 7.93199C35.3334 7.86932 35.2427 7.78332 35.176 7.67399C35.1107 7.56332 35.078 7.43866 35.078 7.29999C35.078 7.16132 35.1107 7.03732 35.176 6.92799C35.2427 6.81732 35.3334 6.73132 35.448 6.66999C35.564 6.60732 35.694 6.57599 35.838 6.57599C35.9594 6.57599 36.0687 6.59732 36.166 6.63999C36.2647 6.68266 36.3474 6.74399 36.414 6.82399L36.206 7.01599C36.1114 6.90666 35.994 6.85199 35.854 6.85199C35.7674 6.85199 35.69 6.87132 35.622 6.90999C35.554 6.94732 35.5007 6.99999 35.462 7.06799C35.4247 7.13599 35.406 7.21332 35.406 7.29999C35.406 7.38666 35.4247 7.46399 35.462 7.53199C35.5007 7.59999 35.554 7.65332 35.622 7.69199C35.69 7.72932 35.7674 7.74799 35.854 7.74799C35.994 7.74799 36.1114 7.69266 36.206 7.58199L36.414 7.77399C36.3474 7.85532 36.2647 7.91732 36.166 7.95999C36.0674 8.00266 35.9574 8.02399 35.836 8.02399Z" fill="black"/>
<path d="M37.2815 8.02399C37.1362 8.02399 37.0049 7.99266 36.8875 7.92999C36.7715 7.86732 36.6802 7.78132 36.6135 7.67199C36.5482 7.56132 36.5155 7.43732 36.5155 7.29999C36.5155 7.16266 36.5482 7.03932 36.6135 6.92999C36.6802 6.81932 36.7715 6.73266 36.8875 6.66999C37.0049 6.60732 37.1362 6.57599 37.2815 6.57599C37.4269 6.57599 37.5575 6.60732 37.6735 6.66999C37.7895 6.73266 37.8809 6.81932 37.9475 6.92999C38.0142 7.03932 38.0475 7.16266 38.0475 7.29999C38.0475 7.43732 38.0142 7.56132 37.9475 7.67199C37.8809 7.78132 37.7895 7.86732 37.6735 7.92999C37.5575 7.99266 37.4269 8.02399 37.2815 8.02399ZM37.2815 7.74799C37.3642 7.74799 37.4389 7.72932 37.5055 7.69199C37.5722 7.65332 37.6242 7.59999 37.6615 7.53199C37.7002 7.46399 37.7195 7.38666 37.7195 7.29999C37.7195 7.21332 37.7002 7.13599 37.6615 7.06799C37.6242 6.99999 37.5722 6.94732 37.5055 6.90999C37.4389 6.87132 37.3642 6.85199 37.2815 6.85199C37.1989 6.85199 37.1242 6.87132 37.0575 6.90999C36.9909 6.94732 36.9382 6.99999 36.8995 7.06799C36.8622 7.13599 36.8435 7.21332 36.8435 7.29999C36.8435 7.38666 36.8622 7.46399 36.8995 7.53199C36.9382 7.59999 36.9909 7.65332 37.0575 7.69199C37.1242 7.72932 37.1989 7.74799 37.2815 7.74799Z" fill="black"/>
<path d="M39.565 7.99999L39.563 7.15999L39.151 7.85199H39.005L38.595 7.17799V7.99999H38.291V6.59999H38.559L39.083 7.46999L39.599 6.59999H39.865L39.869 7.99999H39.565Z" fill="black"/>
<path d="M40.8072 6.59999C40.9312 6.59999 41.0385 6.62066 41.1292 6.66199C41.2212 6.70332 41.2918 6.76199 41.3412 6.83799C41.3905 6.91399 41.4152 7.00399 41.4152 7.10799C41.4152 7.21066 41.3905 7.30066 41.3412 7.37799C41.2918 7.45399 41.2212 7.51266 41.1292 7.55399C41.0385 7.59399 40.9312 7.61399 40.8072 7.61399H40.5252V7.99999H40.2012V6.59999H40.8072ZM40.7892 7.34999C40.8865 7.34999 40.9605 7.32932 41.0112 7.28799C41.0618 7.24532 41.0872 7.18532 41.0872 7.10799C41.0872 7.02932 41.0618 6.96932 41.0112 6.92799C40.9605 6.88532 40.8865 6.86399 40.7892 6.86399H40.5252V7.34999H40.7892Z" fill="black"/>
<path d="M42.4982 7.69999H41.8482L41.7242 7.99999H41.3922L42.0162 6.59999H42.3362L42.9622 7.99999H42.6222L42.4982 7.69999ZM42.3962 7.45399L42.1742 6.91799L41.9522 7.45399H42.3962Z" fill="black"/>
<path d="M44.3914 6.59999V7.99999H44.1254L43.4274 7.14999V7.99999H43.1074V6.59999H43.3754L44.0714 7.44999V6.59999H44.3914Z" fill="black"/>
<path d="M45.3947 7.50399V7.99999H45.0707V7.49999L44.5287 6.59999H44.8727L45.2467 7.22199L45.6207 6.59999H45.9387L45.3947 7.50399Z" fill="black"/>
<path d="M35.732 12.161H35.012V11.9H36.749V12.161H36.029V14H35.732V12.161Z" fill="black"/>
<path d="M38.3067 13.214C38.3067 13.236 38.3047 13.265 38.3007 13.301H37.0107C37.0287 13.441 37.0897 13.554 37.1937 13.64C37.2997 13.724 37.4307 13.766 37.5867 13.766C37.7767 13.766 37.9297 13.702 38.0457 13.574L38.2047 13.76C38.1327 13.844 38.0427 13.908 37.9347 13.952C37.8287 13.996 37.7097 14.018 37.5777 14.018C37.4097 14.018 37.2607 13.984 37.1307 13.916C37.0007 13.846 36.8997 13.749 36.8277 13.625C36.7577 13.501 36.7227 13.361 36.7227 13.205C36.7227 13.051 36.7567 12.912 36.8247 12.788C36.8947 12.664 36.9897 12.568 37.1097 12.5C37.2317 12.43 37.3687 12.395 37.5207 12.395C37.6727 12.395 37.8077 12.43 37.9257 12.5C38.0457 12.568 38.1387 12.664 38.2047 12.788C38.2727 12.912 38.3067 13.054 38.3067 13.214ZM37.5207 12.638C37.3827 12.638 37.2667 12.68 37.1727 12.764C37.0807 12.848 37.0267 12.958 37.0107 13.094H38.0307C38.0147 12.96 37.9597 12.851 37.8657 12.767C37.7737 12.681 37.6587 12.638 37.5207 12.638Z" fill="black"/>
<path d="M39.2417 12.395C39.4617 12.395 39.6297 12.449 39.7457 12.557C39.8637 12.665 39.9227 12.826 39.9227 13.04V14H39.6497V13.79C39.6017 13.864 39.5327 13.921 39.4427 13.961C39.3547 13.999 39.2497 14.018 39.1277 14.018C38.9497 14.018 38.8067 13.975 38.6987 13.889C38.5927 13.803 38.5397 13.69 38.5397 13.55C38.5397 13.41 38.5907 13.298 38.6927 13.214C38.7947 13.128 38.9567 13.085 39.1787 13.085H39.6347V13.028C39.6347 12.904 39.5987 12.809 39.5267 12.743C39.4547 12.677 39.3487 12.644 39.2087 12.644C39.1147 12.644 39.0227 12.66 38.9327 12.692C38.8427 12.722 38.7667 12.763 38.7047 12.815L38.5847 12.599C38.6667 12.533 38.7647 12.483 38.8787 12.449C38.9927 12.413 39.1137 12.395 39.2417 12.395ZM39.1757 13.796C39.2857 13.796 39.3807 13.772 39.4607 13.724C39.5407 13.674 39.5987 13.604 39.6347 13.514V13.292H39.1907C38.9467 13.292 38.8247 13.374 38.8247 13.538C38.8247 13.618 38.8557 13.681 38.9177 13.727C38.9797 13.773 39.0657 13.796 39.1757 13.796Z" fill="black"/>
<path d="M42.4446 12.395C42.6446 12.395 42.8026 12.453 42.9186 12.569C43.0366 12.685 43.0956 12.857 43.0956 13.085V14H42.8076V13.118C42.8076 12.964 42.7716 12.848 42.6996 12.77C42.6296 12.692 42.5286 12.653 42.3966 12.653C42.2506 12.653 42.1346 12.699 42.0486 12.791C41.9626 12.881 41.9196 13.011 41.9196 13.181V14H41.6316V13.118C41.6316 12.964 41.5956 12.848 41.5236 12.77C41.4536 12.692 41.3526 12.653 41.2206 12.653C41.0746 12.653 40.9586 12.699 40.8726 12.791C40.7866 12.881 40.7436 13.011 40.7436 13.181V14H40.4556V12.41H40.7316V12.647C40.7896 12.565 40.8656 12.503 40.9596 12.461C41.0536 12.417 41.1606 12.395 41.2806 12.395C41.4046 12.395 41.5146 12.42 41.6106 12.47C41.7066 12.52 41.7806 12.593 41.8326 12.689C41.8926 12.597 41.9756 12.525 42.0816 12.473C42.1896 12.421 42.3106 12.395 42.4446 12.395Z" fill="black"/>
<path d="M36.134 17.9C36.406 17.9 36.62 17.965 36.776 18.095C36.932 18.225 37.01 18.404 37.01 18.632C37.01 18.86 36.932 19.039 36.776 19.169C36.62 19.299 36.406 19.364 36.134 19.364H35.615V20H35.315V17.9H36.134ZM36.125 19.103C36.315 19.103 36.46 19.063 36.56 18.983C36.66 18.901 36.71 18.784 36.71 18.632C36.71 18.48 36.66 18.364 36.56 18.284C36.46 18.202 36.315 18.161 36.125 18.161H35.615V19.103H36.125Z" fill="black"/>
<path d="M37.6584 18.677C37.7084 18.585 37.7824 18.515 37.8804 18.467C37.9784 18.419 38.0974 18.395 38.2374 18.395V18.674C38.2214 18.672 38.1994 18.671 38.1714 18.671C38.0154 18.671 37.8924 18.718 37.8024 18.812C37.7144 18.904 37.6704 19.036 37.6704 19.208V20H37.3824V18.41H37.6584V18.677Z" fill="black"/>
<path d="M38.5924 18.41H38.8804V20H38.5924V18.41ZM38.7364 18.104C38.6804 18.104 38.6334 18.086 38.5954 18.05C38.5594 18.014 38.5414 17.97 38.5414 17.918C38.5414 17.866 38.5594 17.822 38.5954 17.786C38.6334 17.748 38.6804 17.729 38.7364 17.729C38.7924 17.729 38.8384 17.747 38.8744 17.783C38.9124 17.817 38.9314 17.86 38.9314 17.912C38.9314 17.966 38.9124 18.012 38.8744 18.05C38.8384 18.086 38.7924 18.104 38.7364 18.104Z" fill="black"/>
<path d="M40.8373 18.41L40.1413 20H39.8473L39.1513 18.41H39.4513L39.9973 19.685L40.5553 18.41H40.8373Z" fill="black"/>
<path d="M41.6352 18.395C41.8552 18.395 42.0232 18.449 42.1392 18.557C42.2572 18.665 42.3162 18.826 42.3162 19.04V20H42.0432V19.79C41.9952 19.864 41.9262 19.921 41.8362 19.961C41.7482 19.999 41.6432 20.018 41.5212 20.018C41.3432 20.018 41.2002 19.975 41.0922 19.889C40.9862 19.803 40.9332 19.69 40.9332 19.55C40.9332 19.41 40.9842 19.298 41.0862 19.214C41.1882 19.128 41.3502 19.085 41.5722 19.085H42.0282V19.028C42.0282 18.904 41.9922 18.809 41.9202 18.743C41.8482 18.677 41.7422 18.644 41.6022 18.644C41.5082 18.644 41.4162 18.66 41.3262 18.692C41.2362 18.722 41.1602 18.763 41.0982 18.815L40.9782 18.599C41.0602 18.533 41.1582 18.483 41.2722 18.449C41.3862 18.413 41.5072 18.395 41.6352 18.395ZM41.5692 19.796C41.6792 19.796 41.7742 19.772 41.8542 19.724C41.9342 19.674 41.9922 19.604 42.0282 19.514V19.292H41.5842C41.3402 19.292 41.2182 19.374 41.2182 19.538C41.2182 19.618 41.2492 19.681 41.3112 19.727C41.3732 19.773 41.4592 19.796 41.5692 19.796Z" fill="black"/>
<path d="M43.551 20.018C43.389 20.018 43.244 19.983 43.116 19.913C42.99 19.843 42.891 19.747 42.819 19.625C42.747 19.501 42.711 19.361 42.711 19.205C42.711 19.049 42.747 18.91 42.819 18.788C42.891 18.664 42.99 18.568 43.116 18.5C43.244 18.43 43.389 18.395 43.551 18.395C43.695 18.395 43.823 18.424 43.935 18.482C44.049 18.54 44.137 18.624 44.199 18.734L43.98 18.875C43.93 18.799 43.868 18.742 43.794 18.704C43.72 18.666 43.638 18.647 43.548 18.647C43.444 18.647 43.35 18.67 43.266 18.716C43.184 18.762 43.119 18.828 43.071 18.914C43.025 18.998 43.002 19.095 43.002 19.205C43.002 19.317 43.025 19.416 43.071 19.502C43.119 19.586 43.184 19.651 43.266 19.697C43.35 19.743 43.444 19.766 43.548 19.766C43.638 19.766 43.72 19.747 43.794 19.709C43.868 19.671 43.93 19.614 43.98 19.538L44.199 19.676C44.137 19.786 44.049 19.871 43.935 19.931C43.823 19.989 43.695 20.018 43.551 20.018Z" fill="black"/>
<path d="M45.9583 18.41L45.1873 20.159C45.1193 20.321 45.0393 20.435 44.9473 20.501C44.8573 20.567 44.7483 20.6 44.6203 20.6C44.5423 20.6 44.4663 20.587 44.3923 20.561C44.3203 20.537 44.2603 20.501 44.2123 20.453L44.3353 20.237C44.4173 20.315 44.5123 20.354 44.6203 20.354C44.6903 20.354 44.7483 20.335 44.7943 20.297C44.8423 20.261 44.8853 20.198 44.9233 20.108L44.9743 19.997L44.2723 18.41H44.5723L45.1273 19.682L45.6763 18.41H45.9583Z" fill="black"/>
<path d="M35.732 24.161H35.012V23.9H36.749V24.161H36.029V26H35.732V24.161Z" fill="black"/>
<path d="M38.3067 25.214C38.3067 25.236 38.3047 25.265 38.3007 25.301H37.0107C37.0287 25.441 37.0897 25.554 37.1937 25.64C37.2997 25.724 37.4307 25.766 37.5867 25.766C37.7767 25.766 37.9297 25.702 38.0457 25.574L38.2047 25.76C38.1327 25.844 38.0427 25.908 37.9347 25.952C37.8287 25.996 37.7097 26.018 37.5777 26.018C37.4097 26.018 37.2607 25.984 37.1307 25.916C37.0007 25.846 36.8997 25.749 36.8277 25.625C36.7577 25.501 36.7227 25.361 36.7227 25.205C36.7227 25.051 36.7567 24.912 36.8247 24.788C36.8947 24.664 36.9897 24.568 37.1097 24.5C37.2317 24.43 37.3687 24.395 37.5207 24.395C37.6727 24.395 37.8077 24.43 37.9257 24.5C38.0457 24.568 38.1387 24.664 38.2047 24.788C38.2727 24.912 38.3067 25.054 38.3067 25.214ZM37.5207 24.638C37.3827 24.638 37.2667 24.68 37.1727 24.764C37.0807 24.848 37.0267 24.958 37.0107 25.094H38.0307C38.0147 24.96 37.9597 24.851 37.8657 24.767C37.7737 24.681 37.6587 24.638 37.5207 24.638Z" fill="black"/>
<path d="M38.9826 24.677C39.0326 24.585 39.1066 24.515 39.2046 24.467C39.3026 24.419 39.4216 24.395 39.5616 24.395V24.674C39.5456 24.672 39.5236 24.671 39.4956 24.671C39.3396 24.671 39.2166 24.718 39.1266 24.812C39.0386 24.904 38.9946 25.036 38.9946 25.208V26H38.7066V24.41H38.9826V24.677Z" fill="black"/>
<path d="M41.9056 24.395C42.1056 24.395 42.2636 24.453 42.3796 24.569C42.4976 24.685 42.5566 24.857 42.5566 25.085V26H42.2686V25.118C42.2686 24.964 42.2326 24.848 42.1606 24.77C42.0906 24.692 41.9896 24.653 41.8576 24.653C41.7116 24.653 41.5956 24.699 41.5096 24.791C41.4236 24.881 41.3806 25.011 41.3806 25.181V26H41.0926V25.118C41.0926 24.964 41.0566 24.848 40.9846 24.77C40.9146 24.692 40.8136 24.653 40.6816 24.653C40.5356 24.653 40.4196 24.699 40.3336 24.791C40.2476 24.881 40.2046 25.011 40.2046 25.181V26H39.9166V24.41H40.1926V24.647C40.2506 24.565 40.3266 24.503 40.4206 24.461C40.5146 24.417 40.6216 24.395 40.7416 24.395C40.8656 24.395 40.9756 24.42 41.0716 24.47C41.1676 24.52 41.2416 24.593 41.2936 24.689C41.3536 24.597 41.4366 24.525 41.5426 24.473C41.6506 24.421 41.7716 24.395 41.9056 24.395Z" fill="black"/>
<path d="M43.5425 26.018C43.4125 26.018 43.2875 26.001 43.1675 25.967C43.0475 25.931 42.9535 25.886 42.8855 25.832L43.0055 25.604C43.0755 25.654 43.1605 25.694 43.2605 25.724C43.3605 25.754 43.4615 25.769 43.5635 25.769C43.8155 25.769 43.9415 25.697 43.9415 25.553C43.9415 25.505 43.9245 25.467 43.8905 25.439C43.8565 25.411 43.8135 25.391 43.7615 25.379C43.7115 25.365 43.6395 25.35 43.5455 25.334C43.4175 25.314 43.3125 25.291 43.2305 25.265C43.1505 25.239 43.0815 25.195 43.0235 25.133C42.9655 25.071 42.9365 24.984 42.9365 24.872C42.9365 24.728 42.9965 24.613 43.1165 24.527C43.2365 24.439 43.3975 24.395 43.5995 24.395C43.7055 24.395 43.8115 24.408 43.9175 24.434C44.0235 24.46 44.1105 24.495 44.1785 24.539L44.0555 24.767C43.9255 24.683 43.7725 24.641 43.5965 24.641C43.4745 24.641 43.3815 24.661 43.3175 24.701C43.2535 24.741 43.2215 24.794 43.2215 24.86C43.2215 24.912 43.2395 24.953 43.2755 24.983C43.3115 25.013 43.3555 25.035 43.4075 25.049C43.4615 25.063 43.5365 25.079 43.6325 25.097C43.7605 25.119 43.8635 25.143 43.9415 25.169C44.0215 25.193 44.0895 25.235 44.1455 25.295C44.2015 25.355 44.2295 25.439 44.2295 25.547C44.2295 25.691 44.1675 25.806 44.0435 25.892C43.9215 25.976 43.7545 26.018 43.5425 26.018Z" fill="black"/>
<path d="M46.0761 26.018C45.9181 26.018 45.7761 25.983 45.6501 25.913C45.5241 25.843 45.4251 25.747 45.3531 25.625C45.2831 25.501 45.2481 25.361 45.2481 25.205C45.2481 25.049 45.2831 24.91 45.3531 24.788C45.4251 24.664 45.5241 24.568 45.6501 24.5C45.7761 24.43 45.9181 24.395 46.0761 24.395C46.2341 24.395 46.3751 24.43 46.4991 24.5C46.6251 24.568 46.7231 24.664 46.7931 24.788C46.8651 24.91 46.9011 25.049 46.9011 25.205C46.9011 25.361 46.8651 25.501 46.7931 25.625C46.7231 25.747 46.6251 25.843 46.4991 25.913C46.3751 25.983 46.2341 26.018 46.0761 26.018ZM46.0761 25.766C46.1781 25.766 46.2691 25.743 46.3491 25.697C46.4311 25.649 46.4951 25.583 46.5411 25.499C46.5871 25.413 46.6101 25.315 46.6101 25.205C46.6101 25.095 46.5871 24.998 46.5411 24.914C46.4951 24.828 46.4311 24.762 46.3491 24.716C46.2691 24.67 46.1781 24.647 46.0761 24.647C45.9741 24.647 45.8821 24.67 45.8001 24.716C45.7201 24.762 45.6561 24.828 45.6081 24.914C45.5621 24.998 45.5391 25.095 45.5391 25.205C45.5391 25.315 45.5621 25.413 45.6081 25.499C45.6561 25.583 45.7201 25.649 45.8001 25.697C45.8821 25.743 45.9741 25.766 46.0761 25.766Z" fill="black"/>
<path d="M47.8814 23.993C47.7094 23.993 47.6234 24.086 47.6234 24.272V24.41H48.0854V24.647H47.6294V26H47.3414V24.647H47.0714V24.41H47.3414V24.269C47.3414 24.111 47.3874 23.986 47.4794 23.894C47.5714 23.802 47.7004 23.756 47.8664 23.756C47.9304 23.756 47.9904 23.764 48.0464 23.78C48.1024 23.796 48.1504 23.819 48.1904 23.849L48.1034 24.068C48.0374 24.018 47.9634 23.993 47.8814 23.993Z" fill="black"/>
<path d="M49.6187 26.018C49.4887 26.018 49.3637 26.001 49.2437 25.967C49.1237 25.931 49.0297 25.886 48.9617 25.832L49.0817 25.604C49.1517 25.654 49.2367 25.694 49.3367 25.724C49.4367 25.754 49.5377 25.769 49.6397 25.769C49.8917 25.769 50.0177 25.697 50.0177 25.553C50.0177 25.505 50.0007 25.467 49.9667 25.439C49.9327 25.411 49.8897 25.391 49.8377 25.379C49.7877 25.365 49.7157 25.35 49.6217 25.334C49.4937 25.314 49.3887 25.291 49.3067 25.265C49.2267 25.239 49.1577 25.195 49.0997 25.133C49.0417 25.071 49.0127 24.984 49.0127 24.872C49.0127 24.728 49.0727 24.613 49.1927 24.527C49.3127 24.439 49.4737 24.395 49.6757 24.395C49.7817 24.395 49.8877 24.408 49.9937 24.434C50.0997 24.46 50.1867 24.495 50.2547 24.539L50.1317 24.767C50.0017 24.683 49.8487 24.641 49.6727 24.641C49.5507 24.641 49.4577 24.661 49.3937 24.701C49.3297 24.741 49.2977 24.794 49.2977 24.86C49.2977 24.912 49.3157 24.953 49.3517 24.983C49.3877 25.013 49.4317 25.035 49.4837 25.049C49.5377 25.063 49.6127 25.079 49.7087 25.097C49.8367 25.119 49.9397 25.143 50.0177 25.169C50.0977 25.193 50.1657 25.235 50.2217 25.295C50.2777 25.355 50.3057 25.439 50.3057 25.547C50.3057 25.691 50.2437 25.806 50.1197 25.892C49.9977 25.976 49.8307 26.018 49.6187 26.018Z" fill="black"/>
<path d="M52.1026 25.214C52.1026 25.236 52.1006 25.265 52.0966 25.301H50.8066C50.8246 25.441 50.8856 25.554 50.9896 25.64C51.0956 25.724 51.2266 25.766 51.3826 25.766C51.5726 25.766 51.7256 25.702 51.8416 25.574L52.0006 25.76C51.9286 25.844 51.8386 25.908 51.7306 25.952C51.6246 25.996 51.5056 26.018 51.3736 26.018C51.2056 26.018 51.0566 25.984 50.9266 25.916C50.7966 25.846 50.6956 25.749 50.6236 25.625C50.5536 25.501 50.5186 25.361 50.5186 25.205C50.5186 25.051 50.5526 24.912 50.6206 24.788C50.6906 24.664 50.7856 24.568 50.9056 24.5C51.0276 24.43 51.1646 24.395 51.3166 24.395C51.4686 24.395 51.6036 24.43 51.7216 24.5C51.8416 24.568 51.9346 24.664 52.0006 24.788C52.0686 24.912 52.1026 25.054 52.1026 25.214ZM51.3166 24.638C51.1786 24.638 51.0626 24.68 50.9686 24.764C50.8766 24.848 50.8226 24.958 50.8066 25.094H51.8266C51.8106 24.96 51.7556 24.851 51.6616 24.767C51.5696 24.681 51.4546 24.638 51.3166 24.638Z" fill="black"/>
<path d="M52.7785 24.677C52.8285 24.585 52.9025 24.515 53.0005 24.467C53.0985 24.419 53.2175 24.395 53.3575 24.395V24.674C53.3415 24.672 53.3195 24.671 53.2915 24.671C53.1355 24.671 53.0125 24.718 52.9225 24.812C52.8345 24.904 52.7905 25.036 52.7905 25.208V26H52.5025V24.41H52.7785V24.677Z" fill="black"/>
<path d="M55.1839 24.41L54.4879 26H54.1939L53.4979 24.41H53.7979L54.3439 25.685L54.9019 24.41H55.1839Z" fill="black"/>
<path d="M55.4527 24.41H55.7407V26H55.4527V24.41ZM55.5967 24.104C55.5407 24.104 55.4937 24.086 55.4557 24.05C55.4197 24.014 55.4017 23.97 55.4017 23.918C55.4017 23.866 55.4197 23.822 55.4557 23.786C55.4937 23.748 55.5407 23.729 55.5967 23.729C55.6527 23.729 55.6987 23.747 55.7347 23.783C55.7727 23.817 55.7917 23.86 55.7917 23.912C55.7917 23.966 55.7727 24.012 55.7347 24.05C55.6987 24.086 55.6527 24.104 55.5967 24.104Z" fill="black"/>
<path d="M56.9836 26.018C56.8216 26.018 56.6766 25.983 56.5486 25.913C56.4226 25.843 56.3236 25.747 56.2516 25.625C56.1796 25.501 56.1436 25.361 56.1436 25.205C56.1436 25.049 56.1796 24.91 56.2516 24.788C56.3236 24.664 56.4226 24.568 56.5486 24.5C56.6766 24.43 56.8216 24.395 56.9836 24.395C57.1276 24.395 57.2556 24.424 57.3676 24.482C57.4816 24.54 57.5696 24.624 57.6316 24.734L57.4126 24.875C57.3626 24.799 57.3006 24.742 57.2266 24.704C57.1526 24.666 57.0706 24.647 56.9806 24.647C56.8766 24.647 56.7826 24.67 56.6986 24.716C56.6166 24.762 56.5516 24.828 56.5036 24.914C56.4576 24.998 56.4346 25.095 56.4346 25.205C56.4346 25.317 56.4576 25.416 56.5036 25.502C56.5516 25.586 56.6166 25.651 56.6986 25.697C56.7826 25.743 56.8766 25.766 56.9806 25.766C57.0706 25.766 57.1526 25.747 57.2266 25.709C57.3006 25.671 57.3626 25.614 57.4126 25.538L57.6316 25.676C57.5696 25.786 57.4816 25.871 57.3676 25.931C57.2556 25.989 57.1276 26.018 56.9836 26.018Z" fill="black"/>
<path d="M59.418 25.214C59.418 25.236 59.416 25.265 59.412 25.301H58.122C58.14 25.441 58.201 25.554 58.305 25.64C58.411 25.724 58.542 25.766 58.698 25.766C58.888 25.766 59.041 25.702 59.157 25.574L59.316 25.76C59.244 25.844 59.154 25.908 59.046 25.952C58.94 25.996 58.821 26.018 58.689 26.018C58.521 26.018 58.372 25.984 58.242 25.916C58.112 25.846 58.011 25.749 57.939 25.625C57.869 25.501 57.834 25.361 57.834 25.205C57.834 25.051 57.868 24.912 57.936 24.788C58.006 24.664 58.101 24.568 58.221 24.5C58.343 24.43 58.48 24.395 58.632 24.395C58.784 24.395 58.919 24.43 59.037 24.5C59.157 24.568 59.25 24.664 59.316 24.788C59.384 24.912 59.418 25.054 59.418 25.214ZM58.632 24.638C58.494 24.638 58.378 24.68 58.284 24.764C58.192 24.848 58.138 24.958 58.122 25.094H59.142C59.126 24.96 59.071 24.851 58.977 24.767C58.885 24.681 58.77 24.638 58.632 24.638Z" fill="black"/>
<path d="M74.626 8.02399C74.5154 8.02399 74.408 8.00932 74.304 7.97999C74.2014 7.94932 74.1187 7.90999 74.056 7.86199L74.166 7.61799C74.226 7.66199 74.2974 7.69732 74.38 7.72399C74.4627 7.75066 74.5454 7.76399 74.628 7.76399C74.72 7.76399 74.788 7.75066 74.832 7.72399C74.876 7.69599 74.898 7.65932 74.898 7.61399C74.898 7.58066 74.8847 7.55332 74.858 7.53199C74.8327 7.50932 74.7994 7.49132 74.758 7.47799C74.718 7.46466 74.6634 7.44999 74.594 7.43399C74.4874 7.40866 74.4 7.38332 74.332 7.35799C74.264 7.33266 74.2054 7.29199 74.156 7.23599C74.108 7.17999 74.084 7.10532 74.084 7.01199C74.084 6.93066 74.106 6.85732 74.15 6.79199C74.194 6.72532 74.26 6.67266 74.348 6.63399C74.4374 6.59532 74.546 6.57599 74.674 6.57599C74.7634 6.57599 74.8507 6.58666 74.936 6.60799C75.0214 6.62932 75.096 6.65999 75.16 6.69999L75.06 6.94599C74.9307 6.87266 74.8014 6.83599 74.672 6.83599C74.5814 6.83599 74.514 6.85066 74.47 6.87999C74.4274 6.90932 74.406 6.94799 74.406 6.99599C74.406 7.04399 74.4307 7.07999 74.48 7.10399C74.5307 7.12666 74.6074 7.14932 74.71 7.17199C74.8167 7.19732 74.904 7.22266 74.972 7.24799C75.04 7.27332 75.098 7.31332 75.146 7.36799C75.1954 7.42266 75.22 7.49666 75.22 7.58999C75.22 7.66999 75.1974 7.74332 75.152 7.80999C75.108 7.87532 75.0414 7.92732 74.952 7.96599C74.8627 8.00466 74.754 8.02399 74.626 8.02399Z" fill="black"/>
<path d="M76.0634 8.02399C75.8634 8.02399 75.7074 7.96866 75.5954 7.85799C75.4848 7.74732 75.4294 7.58932 75.4294 7.38399V6.59999H75.7534V7.37199C75.7534 7.62266 75.8574 7.74799 76.0654 7.74799C76.1668 7.74799 76.2441 7.71799 76.2974 7.65799C76.3508 7.59666 76.3774 7.50132 76.3774 7.37199V6.59999H76.6974V7.38399C76.6974 7.58932 76.6414 7.74732 76.5294 7.85799C76.4188 7.96866 76.2634 8.02399 76.0634 8.02399Z" fill="black"/>
<path d="M77.6236 6.59999C77.7476 6.59999 77.8549 6.62066 77.9456 6.66199C78.0376 6.70332 78.1083 6.76199 78.1576 6.83799C78.2069 6.91399 78.2316 7.00399 78.2316 7.10799C78.2316 7.21066 78.2069 7.30066 78.1576 7.37799C78.1083 7.45399 78.0376 7.51266 77.9456 7.55399C77.8549 7.59399 77.7476 7.61399 77.6236 7.61399H77.3416V7.99999H77.0176V6.59999H77.6236ZM77.6056 7.34999C77.7029 7.34999 77.7769 7.32932 77.8276 7.28799C77.8783 7.24532 77.9036 7.18532 77.9036 7.10799C77.9036 7.02932 77.8783 6.96932 77.8276 6.92799C77.7769 6.88532 77.7029 6.86399 77.6056 6.86399H77.3416V7.34999H77.6056Z" fill="black"/>
<path d="M79.0689 6.59999C79.1929 6.59999 79.3002 6.62066 79.3909 6.66199C79.4829 6.70332 79.5536 6.76199 79.6029 6.83799C79.6522 6.91399 79.6769 7.00399 79.6769 7.10799C79.6769 7.21066 79.6522 7.30066 79.6029 7.37799C79.5536 7.45399 79.4829 7.51266 79.3909 7.55399C79.3002 7.59399 79.1929 7.61399 79.0689 7.61399H78.7869V7.99999H78.4629V6.59999H79.0689ZM79.0509 7.34999C79.1482 7.34999 79.2222 7.32932 79.2729 7.28799C79.3236 7.24532 79.3489 7.18532 79.3489 7.10799C79.3489 7.02932 79.3236 6.96932 79.2729 6.92799C79.2222 6.88532 79.1482 6.86399 79.0509 6.86399H78.7869V7.34999H79.0509Z" fill="black"/>
<path d="M80.6057 8.02399C80.4604 8.02399 80.3291 7.99266 80.2117 7.92999C80.0957 7.86732 80.0044 7.78132 79.9377 7.67199C79.8724 7.56132 79.8397 7.43732 79.8397 7.29999C79.8397 7.16266 79.8724 7.03932 79.9377 6.92999C80.0044 6.81932 80.0957 6.73266 80.2117 6.66999C80.3291 6.60732 80.4604 6.57599 80.6057 6.57599C80.7511 6.57599 80.8817 6.60732 80.9977 6.66999C81.1137 6.73266 81.2051 6.81932 81.2717 6.92999C81.3384 7.03932 81.3717 7.16266 81.3717 7.29999C81.3717 7.43732 81.3384 7.56132 81.2717 7.67199C81.2051 7.78132 81.1137 7.86732 80.9977 7.92999C80.8817 7.99266 80.7511 8.02399 80.6057 8.02399ZM80.6057 7.74799C80.6884 7.74799 80.7631 7.72932 80.8297 7.69199C80.8964 7.65332 80.9484 7.59999 80.9857 7.53199C81.0244 7.46399 81.0437 7.38666 81.0437 7.29999C81.0437 7.21332 81.0244 7.13599 80.9857 7.06799C80.9484 6.99999 80.8964 6.94732 80.8297 6.90999C80.7631 6.87132 80.6884 6.85199 80.6057 6.85199C80.5231 6.85199 80.4484 6.87132 80.3817 6.90999C80.3151 6.94732 80.2624 6.99999 80.2237 7.06799C80.1864 7.13599 80.1677 7.21332 80.1677 7.29999C80.1677 7.38666 80.1864 7.46399 80.2237 7.53199C80.2624 7.59999 80.3151 7.65332 80.3817 7.69199C80.4484 7.72932 80.5231 7.74799 80.6057 7.74799Z" fill="black"/>
<path d="M82.5072 7.99999L82.2372 7.60999H82.2212H81.9392V7.99999H81.6152V6.59999H82.2212C82.3452 6.59999 82.4526 6.62066 82.5432 6.66199C82.6352 6.70332 82.7059 6.76199 82.7552 6.83799C82.8046 6.91399 82.8292 7.00399 82.8292 7.10799C82.8292 7.21199 82.8039 7.30199 82.7532 7.37799C82.7039 7.45266 82.6332 7.50999 82.5412 7.54999L82.8552 7.99999H82.5072ZM82.5012 7.10799C82.5012 7.02932 82.4759 6.96932 82.4252 6.92799C82.3746 6.88532 82.3006 6.86399 82.2032 6.86399H81.9392V7.35199H82.2032C82.3006 7.35199 82.3746 7.33066 82.4252 7.28799C82.4759 7.24532 82.5012 7.18532 82.5012 7.10799Z" fill="black"/>
<path d="M83.3564 6.86399H82.9084V6.59999H84.1284V6.86399H83.6804V7.99999H83.3564V6.86399Z" fill="black"/>
<path d="M76.121 11.9V14H75.821V13.064H74.615V14H74.315V11.9H74.615V12.803H75.821V11.9H76.121Z" fill="black"/>
<path d="M78.1446 13.214C78.1446 13.236 78.1426 13.265 78.1386 13.301H76.8486C76.8666 13.441 76.9276 13.554 77.0316 13.64C77.1376 13.724 77.2686 13.766 77.4246 13.766C77.6146 13.766 77.7676 13.702 77.8836 13.574L78.0426 13.76C77.9706 13.844 77.8806 13.908 77.7726 13.952C77.6666 13.996 77.5476 14.018 77.4156 14.018C77.2476 14.018 77.0986 13.984 76.9686 13.916C76.8386 13.846 76.7376 13.749 76.6656 13.625C76.5956 13.501 76.5606 13.361 76.5606 13.205C76.5606 13.051 76.5946 12.912 76.6626 12.788C76.7326 12.664 76.8276 12.568 76.9476 12.5C77.0696 12.43 77.2066 12.395 77.3586 12.395C77.5106 12.395 77.6456 12.43 77.7636 12.5C77.8836 12.568 77.9766 12.664 78.0426 12.788C78.1106 12.912 78.1446 13.054 78.1446 13.214ZM77.3586 12.638C77.2206 12.638 77.1046 12.68 77.0106 12.764C76.9186 12.848 76.8646 12.958 76.8486 13.094H77.8686C77.8526 12.96 77.7976 12.851 77.7036 12.767C77.6116 12.681 77.4966 12.638 77.3586 12.638Z" fill="black"/>
<path d="M78.5445 11.774H78.8325V14H78.5445V11.774Z" fill="black"/>
<path d="M80.2254 12.395C80.3794 12.395 80.5174 12.429 80.6394 12.497C80.7614 12.565 80.8564 12.66 80.9244 12.782C80.9944 12.904 81.0294 13.045 81.0294 13.205C81.0294 13.365 80.9944 13.507 80.9244 13.631C80.8564 13.753 80.7614 13.848 80.6394 13.916C80.5174 13.984 80.3794 14.018 80.2254 14.018C80.1114 14.018 80.0064 13.996 79.9104 13.952C79.8164 13.908 79.7364 13.844 79.6704 13.76V14.582H79.3824V12.41H79.6584V12.662C79.7224 12.574 79.8034 12.508 79.9014 12.464C79.9994 12.418 80.1074 12.395 80.2254 12.395ZM80.2014 13.766C80.3034 13.766 80.3944 13.743 80.4744 13.697C80.5564 13.649 80.6204 13.583 80.6664 13.499C80.7144 13.413 80.7384 13.315 80.7384 13.205C80.7384 13.095 80.7144 12.998 80.6664 12.914C80.6204 12.828 80.5564 12.762 80.4744 12.716C80.3944 12.67 80.3034 12.647 80.2014 12.647C80.1014 12.647 80.0104 12.671 79.9284 12.719C79.8484 12.765 79.7844 12.83 79.7364 12.914C79.6904 12.998 79.6674 13.095 79.6674 13.205C79.6674 13.315 79.6904 13.413 79.7364 13.499C79.7824 13.583 79.8464 13.649 79.9284 13.697C80.0104 13.743 80.1014 13.766 80.2014 13.766Z" fill="black"/>
<path d="M82.926 14.018C82.764 14.018 82.619 13.983 82.491 13.913C82.365 13.843 82.266 13.747 82.194 13.625C82.122 13.501 82.086 13.361 82.086 13.205C82.086 13.049 82.122 12.91 82.194 12.788C82.266 12.664 82.365 12.568 82.491 12.5C82.619 12.43 82.764 12.395 82.926 12.395C83.07 12.395 83.198 12.424 83.31 12.482C83.424 12.54 83.512 12.624 83.574 12.734L83.355 12.875C83.305 12.799 83.243 12.742 83.169 12.704C83.095 12.666 83.013 12.647 82.923 12.647C82.819 12.647 82.725 12.67 82.641 12.716C82.559 12.762 82.494 12.828 82.446 12.914C82.4 12.998 82.377 13.095 82.377 13.205C82.377 13.317 82.4 13.416 82.446 13.502C82.494 13.586 82.559 13.651 82.641 13.697C82.725 13.743 82.819 13.766 82.923 13.766C83.013 13.766 83.095 13.747 83.169 13.709C83.243 13.671 83.305 13.614 83.355 13.538L83.574 13.676C83.512 13.786 83.424 13.871 83.31 13.931C83.198 13.989 83.07 14.018 82.926 14.018Z" fill="black"/>
<path d="M85.3604 13.214C85.3604 13.236 85.3584 13.265 85.3544 13.301H84.0644C84.0824 13.441 84.1434 13.554 84.2474 13.64C84.3534 13.724 84.4844 13.766 84.6404 13.766C84.8304 13.766 84.9834 13.702 85.0994 13.574L85.2584 13.76C85.1864 13.844 85.0964 13.908 84.9884 13.952C84.8824 13.996 84.7634 14.018 84.6314 14.018C84.4634 14.018 84.3144 13.984 84.1844 13.916C84.0544 13.846 83.9534 13.749 83.8814 13.625C83.8114 13.501 83.7764 13.361 83.7764 13.205C83.7764 13.051 83.8104 12.912 83.8784 12.788C83.9484 12.664 84.0434 12.568 84.1634 12.5C84.2854 12.43 84.4224 12.395 84.5744 12.395C84.7264 12.395 84.8614 12.43 84.9794 12.5C85.0994 12.568 85.1924 12.664 85.2584 12.788C85.3264 12.912 85.3604 13.054 85.3604 13.214ZM84.5744 12.638C84.4364 12.638 84.3204 12.68 84.2264 12.764C84.1344 12.848 84.0804 12.958 84.0644 13.094H85.0844C85.0684 12.96 85.0134 12.851 84.9194 12.767C84.8274 12.681 84.7124 12.638 84.5744 12.638Z" fill="black"/>
<path d="M86.6093 12.395C86.8113 12.395 86.9713 12.454 87.0893 12.572C87.2093 12.688 87.2693 12.859 87.2693 13.085V14H86.9813V13.118C86.9813 12.964 86.9443 12.848 86.8703 12.77C86.7963 12.692 86.6903 12.653 86.5523 12.653C86.3963 12.653 86.2733 12.699 86.1833 12.791C86.0933 12.881 86.0483 13.011 86.0483 13.181V14H85.7603V12.41H86.0363V12.65C86.0943 12.568 86.1723 12.505 86.2703 12.461C86.3703 12.417 86.4833 12.395 86.6093 12.395Z" fill="black"/>
<path d="M88.6963 13.907C88.6543 13.943 88.6023 13.971 88.5403 13.991C88.4783 14.009 88.4143 14.018 88.3483 14.018C88.1883 14.018 88.0643 13.975 87.9763 13.889C87.8883 13.803 87.8443 13.68 87.8443 13.52V12.647H87.5743V12.41H87.8443V12.062H88.1323V12.41H88.5883V12.647H88.1323V13.508C88.1323 13.594 88.1533 13.66 88.1953 13.706C88.2393 13.752 88.3013 13.775 88.3813 13.775C88.4693 13.775 88.5443 13.75 88.6063 13.7L88.6963 13.907Z" fill="black"/>
<path d="M90.4288 13.214C90.4288 13.236 90.4268 13.265 90.4228 13.301H89.1328C89.1508 13.441 89.2118 13.554 89.3158 13.64C89.4218 13.724 89.5528 13.766 89.7088 13.766C89.8988 13.766 90.0518 13.702 90.1678 13.574L90.3268 13.76C90.2548 13.844 90.1648 13.908 90.0568 13.952C89.9508 13.996 89.8318 14.018 89.6998 14.018C89.5318 14.018 89.3828 13.984 89.2528 13.916C89.1228 13.846 89.0218 13.749 88.9498 13.625C88.8798 13.501 88.8448 13.361 88.8448 13.205C88.8448 13.051 88.8788 12.912 88.9468 12.788C89.0168 12.664 89.1118 12.568 89.2318 12.5C89.3538 12.43 89.4908 12.395 89.6428 12.395C89.7948 12.395 89.9298 12.43 90.0478 12.5C90.1678 12.568 90.2608 12.664 90.3268 12.788C90.3948 12.912 90.4288 13.054 90.4288 13.214ZM89.6428 12.638C89.5048 12.638 89.3888 12.68 89.2948 12.764C89.2028 12.848 89.1488 12.958 89.1328 13.094H90.1528C90.1368 12.96 90.0818 12.851 89.9878 12.767C89.8958 12.681 89.7808 12.638 89.6428 12.638Z" fill="black"/>
<path d="M91.1047 12.677C91.1547 12.585 91.2287 12.515 91.3267 12.467C91.4247 12.419 91.5437 12.395 91.6837 12.395V12.674C91.6677 12.672 91.6457 12.671 91.6177 12.671C91.4617 12.671 91.3387 12.718 91.2487 12.812C91.1607 12.904 91.1167 13.036 91.1167 13.208V14H90.8287V12.41H91.1047V12.677Z" fill="black"/>
<path d="M75.719 20L75.266 19.355C75.21 19.359 75.166 19.361 75.134 19.361H74.615V20H74.315V17.9H75.134C75.406 17.9 75.62 17.965 75.776 18.095C75.932 18.225 76.01 18.404 76.01 18.632C76.01 18.794 75.97 18.932 75.89 19.046C75.81 19.16 75.696 19.243 75.548 19.295L76.046 20H75.719ZM75.125 19.106C75.315 19.106 75.46 19.065 75.56 18.983C75.66 18.901 75.71 18.784 75.71 18.632C75.71 18.48 75.66 18.364 75.56 18.284C75.46 18.202 75.315 18.161 75.125 18.161H74.615V19.106H75.125Z" fill="black"/>
<path d="M77.8897 19.214C77.8897 19.236 77.8877 19.265 77.8837 19.301H76.5937C76.6117 19.441 76.6727 19.554 76.7767 19.64C76.8827 19.724 77.0137 19.766 77.1697 19.766C77.3597 19.766 77.5127 19.702 77.6287 19.574L77.7877 19.76C77.7157 19.844 77.6257 19.908 77.5177 19.952C77.4117 19.996 77.2927 20.018 77.1607 20.018C76.9927 20.018 76.8437 19.984 76.7137 19.916C76.5837 19.846 76.4827 19.749 76.4107 19.625C76.3407 19.501 76.3057 19.361 76.3057 19.205C76.3057 19.051 76.3397 18.912 76.4077 18.788C76.4777 18.664 76.5727 18.568 76.6927 18.5C76.8147 18.43 76.9517 18.395 77.1037 18.395C77.2557 18.395 77.3907 18.43 77.5087 18.5C77.6287 18.568 77.7217 18.664 77.7877 18.788C77.8557 18.912 77.8897 19.054 77.8897 19.214ZM77.1037 18.638C76.9657 18.638 76.8497 18.68 76.7557 18.764C76.6637 18.848 76.6097 18.958 76.5937 19.094H77.6137C77.5977 18.96 77.5427 18.851 77.4487 18.767C77.3567 18.681 77.2417 18.638 77.1037 18.638Z" fill="black"/>
<path d="M78.7456 20.018C78.6156 20.018 78.4906 20.001 78.3706 19.967C78.2506 19.931 78.1566 19.886 78.0886 19.832L78.2086 19.604C78.2786 19.654 78.3636 19.694 78.4636 19.724C78.5636 19.754 78.6646 19.769 78.7666 19.769C79.0186 19.769 79.1446 19.697 79.1446 19.553C79.1446 19.505 79.1276 19.467 79.0936 19.439C79.0596 19.411 79.0166 19.391 78.9646 19.379C78.9146 19.365 78.8426 19.35 78.7486 19.334C78.6206 19.314 78.5156 19.291 78.4336 19.265C78.3536 19.239 78.2846 19.195 78.2266 19.133C78.1686 19.071 78.1396 18.984 78.1396 18.872C78.1396 18.728 78.1996 18.613 78.3196 18.527C78.4396 18.439 78.6006 18.395 78.8026 18.395C78.9086 18.395 79.0146 18.408 79.1206 18.434C79.2266 18.46 79.3136 18.495 79.3816 18.539L79.2586 18.767C79.1286 18.683 78.9756 18.641 78.7996 18.641C78.6776 18.641 78.5846 18.661 78.5206 18.701C78.4566 18.741 78.4246 18.794 78.4246 18.86C78.4246 18.912 78.4426 18.953 78.4786 18.983C78.5146 19.013 78.5586 19.035 78.6106 19.049C78.6646 19.063 78.7396 19.079 78.8356 19.097C78.9636 19.119 79.0666 19.143 79.1446 19.169C79.2246 19.193 79.2926 19.235 79.3486 19.295C79.4046 19.355 79.4326 19.439 79.4326 19.547C79.4326 19.691 79.3706 19.806 79.2466 19.892C79.1246 19.976 78.9576 20.018 78.7456 20.018Z" fill="black"/>
<path d="M80.4736 20.018C80.3156 20.018 80.1736 19.983 80.0476 19.913C79.9216 19.843 79.8226 19.747 79.7506 19.625C79.6806 19.501 79.6456 19.361 79.6456 19.205C79.6456 19.049 79.6806 18.91 79.7506 18.788C79.8226 18.664 79.9216 18.568 80.0476 18.5C80.1736 18.43 80.3156 18.395 80.4736 18.395C80.6316 18.395 80.7726 18.43 80.8966 18.5C81.0226 18.568 81.1206 18.664 81.1906 18.788C81.2626 18.91 81.2986 19.049 81.2986 19.205C81.2986 19.361 81.2626 19.501 81.1906 19.625C81.1206 19.747 81.0226 19.843 80.8966 19.913C80.7726 19.983 80.6316 20.018 80.4736 20.018ZM80.4736 19.766C80.5756 19.766 80.6666 19.743 80.7466 19.697C80.8286 19.649 80.8926 19.583 80.9386 19.499C80.9846 19.413 81.0076 19.315 81.0076 19.205C81.0076 19.095 80.9846 18.998 80.9386 18.914C80.8926 18.828 80.8286 18.762 80.7466 18.716C80.6666 18.67 80.5756 18.647 80.4736 18.647C80.3716 18.647 80.2796 18.67 80.1976 18.716C80.1176 18.762 80.0536 18.828 80.0056 18.914C79.9596 18.998 79.9366 19.095 79.9366 19.205C79.9366 19.315 79.9596 19.413 80.0056 19.499C80.0536 19.583 80.1176 19.649 80.1976 19.697C80.2796 19.743 80.3716 19.766 80.4736 19.766Z" fill="black"/>
<path d="M83.1789 18.41V20H82.9059V19.76C82.8479 19.842 82.7709 19.906 82.6749 19.952C82.5809 19.996 82.4779 20.018 82.3659 20.018C82.1539 20.018 81.9869 19.96 81.8649 19.844C81.7429 19.726 81.6819 19.553 81.6819 19.325V18.41H81.9699V19.292C81.9699 19.446 82.0069 19.563 82.0809 19.643C82.1549 19.721 82.2609 19.76 82.3989 19.76C82.5509 19.76 82.6709 19.714 82.7589 19.622C82.8469 19.53 82.8909 19.4 82.8909 19.232V18.41H83.1789Z" fill="black"/>
<path d="M84.0031 18.677C84.0531 18.585 84.1271 18.515 84.2251 18.467C84.3231 18.419 84.4421 18.395 84.5821 18.395V18.674C84.5661 18.672 84.5441 18.671 84.5161 18.671C84.3601 18.671 84.2371 18.718 84.1471 18.812C84.0591 18.904 84.0151 19.036 84.0151 19.208V20H83.7271V18.41H84.0031V18.677Z" fill="black"/>
<path d="M85.6154 20.018C85.4534 20.018 85.3084 19.983 85.1804 19.913C85.0544 19.843 84.9554 19.747 84.8834 19.625C84.8114 19.501 84.7754 19.361 84.7754 19.205C84.7754 19.049 84.8114 18.91 84.8834 18.788C84.9554 18.664 85.0544 18.568 85.1804 18.5C85.3084 18.43 85.4534 18.395 85.6154 18.395C85.7594 18.395 85.8874 18.424 85.9994 18.482C86.1134 18.54 86.2014 18.624 86.2634 18.734L86.0444 18.875C85.9944 18.799 85.9324 18.742 85.8584 18.704C85.7844 18.666 85.7024 18.647 85.6124 18.647C85.5084 18.647 85.4144 18.67 85.3304 18.716C85.2484 18.762 85.1834 18.828 85.1354 18.914C85.0894 18.998 85.0664 19.095 85.0664 19.205C85.0664 19.317 85.0894 19.416 85.1354 19.502C85.1834 19.586 85.2484 19.651 85.3304 19.697C85.4144 19.743 85.5084 19.766 85.6124 19.766C85.7024 19.766 85.7844 19.747 85.8584 19.709C85.9324 19.671 85.9944 19.614 86.0444 19.538L86.2634 19.676C86.2014 19.786 86.1134 19.871 85.9994 19.931C85.8874 19.989 85.7594 20.018 85.6154 20.018Z" fill="black"/>
<path d="M88.0499 19.214C88.0499 19.236 88.0479 19.265 88.0439 19.301H86.7539C86.7719 19.441 86.8329 19.554 86.9369 19.64C87.0429 19.724 87.1739 19.766 87.3299 19.766C87.5199 19.766 87.6729 19.702 87.7889 19.574L87.9479 19.76C87.8759 19.844 87.7859 19.908 87.6779 19.952C87.5719 19.996 87.4529 20.018 87.3209 20.018C87.1529 20.018 87.0039 19.984 86.8739 19.916C86.7439 19.846 86.6429 19.749 86.5709 19.625C86.5009 19.501 86.4659 19.361 86.4659 19.205C86.4659 19.051 86.4999 18.912 86.5679 18.788C86.6379 18.664 86.7329 18.568 86.8529 18.5C86.9749 18.43 87.1119 18.395 87.2639 18.395C87.4159 18.395 87.5509 18.43 87.6689 18.5C87.7889 18.568 87.8819 18.664 87.9479 18.788C88.0159 18.912 88.0499 19.054 88.0499 19.214ZM87.2639 18.638C87.1259 18.638 87.0099 18.68 86.9159 18.764C86.8239 18.848 86.7699 18.958 86.7539 19.094H87.7739C87.7579 18.96 87.7029 18.851 87.6089 18.767C87.5169 18.681 87.4019 18.638 87.2639 18.638Z" fill="black"/>
<path d="M88.9058 20.018C88.7758 20.018 88.6508 20.001 88.5308 19.967C88.4108 19.931 88.3168 19.886 88.2488 19.832L88.3688 19.604C88.4388 19.654 88.5238 19.694 88.6238 19.724C88.7238 19.754 88.8248 19.769 88.9268 19.769C89.1788 19.769 89.3048 19.697 89.3048 19.553C89.3048 19.505 89.2878 19.467 89.2538 19.439C89.2198 19.411 89.1768 19.391 89.1248 19.379C89.0748 19.365 89.0028 19.35 88.9088 19.334C88.7808 19.314 88.6758 19.291 88.5938 19.265C88.5138 19.239 88.4448 19.195 88.3868 19.133C88.3288 19.071 88.2998 18.984 88.2998 18.872C88.2998 18.728 88.3598 18.613 88.4798 18.527C88.5998 18.439 88.7608 18.395 88.9628 18.395C89.0688 18.395 89.1748 18.408 89.2808 18.434C89.3868 18.46 89.4738 18.495 89.5418 18.539L89.4188 18.767C89.2888 18.683 89.1358 18.641 88.9598 18.641C88.8378 18.641 88.7448 18.661 88.6808 18.701C88.6168 18.741 88.5848 18.794 88.5848 18.86C88.5848 18.912 88.6028 18.953 88.6388 18.983C88.6748 19.013 88.7188 19.035 88.7708 19.049C88.8248 19.063 88.8998 19.079 88.9958 19.097C89.1238 19.119 89.2268 19.143 89.3048 19.169C89.3848 19.193 89.4528 19.235 89.5088 19.295C89.5648 19.355 89.5928 19.439 89.5928 19.547C89.5928 19.691 89.5308 19.806 89.4068 19.892C89.2848 19.976 89.1178 20.018 88.9058 20.018Z" fill="black"/>
<circle cx="196" cy="9" r="3" fill="black"/>
<circle cx="188" cy="9" r="3" fill="black"/>
<circle cx="180" cy="9" r="3" fill="black"/>
</svg>
