<svg width="204" height="120" viewBox="0 0 204 120" fill="none" xmlns="http://www.w3.org/2000/svg">
<rect width="204" height="120" fill="white"/>
<path d="M11.098 54.2415H10.018V53.85H12.6235V54.2415H11.5435V57H11.098V54.2415Z" fill="black"/>
<path d="M14.3241 54.5925C14.6271 54.5925 14.8671 54.681 15.0441 54.858C15.2241 55.032 15.3141 55.2885 15.3141 55.6275V57H14.8821V55.677C14.8821 55.446 14.8266 55.272 14.7156 55.155C14.6046 55.038 14.4456 54.9795 14.2386 54.9795C14.0046 54.9795 13.8201 55.0485 13.6851 55.1865C13.5501 55.3215 13.4826 55.5165 13.4826 55.7715V57H13.0506V53.661H13.4826V54.9525C13.5726 54.8385 13.6896 54.75 13.8336 54.687C13.9806 54.624 14.1441 54.5925 14.3241 54.5925Z" fill="black"/>
<path d="M16.1136 54.615H16.5456V57H16.1136V54.615ZM16.3296 54.156C16.2456 54.156 16.1751 54.129 16.1181 54.075C16.0641 54.021 16.0371 53.955 16.0371 53.877C16.0371 53.799 16.0641 53.733 16.1181 53.679C16.1751 53.622 16.2456 53.5935 16.3296 53.5935C16.4136 53.5935 16.4826 53.6205 16.5366 53.6745C16.5936 53.7255 16.6221 53.79 16.6221 53.868C16.6221 53.949 16.5936 54.018 16.5366 54.075C16.4826 54.129 16.4136 54.156 16.3296 54.156Z" fill="black"/>
<path d="M18.0544 57.027C17.8594 57.027 17.6719 57.0015 17.4919 56.9505C17.3119 56.8965 17.1709 56.829 17.0689 56.748L17.2489 56.406C17.3539 56.481 17.4814 56.541 17.6314 56.586C17.7814 56.631 17.9329 56.6535 18.0859 56.6535C18.4639 56.6535 18.6529 56.5455 18.6529 56.3295C18.6529 56.2575 18.6274 56.2005 18.5764 56.1585C18.5254 56.1165 18.4609 56.0865 18.3829 56.0685C18.3079 56.0475 18.1999 56.025 18.0589 56.001C17.8669 55.971 17.7094 55.9365 17.5864 55.8975C17.4664 55.8585 17.3629 55.7925 17.2759 55.6995C17.1889 55.6065 17.1454 55.476 17.1454 55.308C17.1454 55.092 17.2354 54.9195 17.4154 54.7905C17.5954 54.6585 17.8369 54.5925 18.1399 54.5925C18.2989 54.5925 18.4579 54.612 18.6169 54.651C18.7759 54.69 18.9064 54.7425 19.0084 54.8085L18.8239 55.1505C18.6289 55.0245 18.3994 54.9615 18.1354 54.9615C17.9524 54.9615 17.8129 54.9915 17.7169 55.0515C17.6209 55.1115 17.5729 55.191 17.5729 55.29C17.5729 55.368 17.5999 55.4295 17.6539 55.4745C17.7079 55.5195 17.7739 55.5525 17.8519 55.5735C17.9329 55.5945 18.0454 55.6185 18.1894 55.6455C18.3814 55.6785 18.5359 55.7145 18.6529 55.7535C18.7729 55.7895 18.8749 55.8525 18.9589 55.9425C19.0429 56.0325 19.0849 56.1585 19.0849 56.3205C19.0849 56.5365 18.9919 56.709 18.8059 56.838C18.6229 56.964 18.3724 57.027 18.0544 57.027Z" fill="black"/>
<path d="M20.8333 54.615H21.2653V57H20.8333V54.615ZM21.0493 54.156C20.9653 54.156 20.8948 54.129 20.8378 54.075C20.7838 54.021 20.7568 53.955 20.7568 53.877C20.7568 53.799 20.7838 53.733 20.8378 53.679C20.8948 53.622 20.9653 53.5935 21.0493 53.5935C21.1333 53.5935 21.2023 53.6205 21.2563 53.6745C21.3133 53.7255 21.3418 53.79 21.3418 53.868C21.3418 53.949 21.3133 54.018 21.2563 54.075C21.2023 54.129 21.1333 54.156 21.0493 54.156Z" fill="black"/>
<path d="M22.7742 57.027C22.5792 57.027 22.3917 57.0015 22.2117 56.9505C22.0317 56.8965 21.8907 56.829 21.7887 56.748L21.9687 56.406C22.0737 56.481 22.2012 56.541 22.3512 56.586C22.5012 56.631 22.6527 56.6535 22.8057 56.6535C23.1837 56.6535 23.3727 56.5455 23.3727 56.3295C23.3727 56.2575 23.3472 56.2005 23.2962 56.1585C23.2452 56.1165 23.1807 56.0865 23.1027 56.0685C23.0277 56.0475 22.9197 56.025 22.7787 56.001C22.5867 55.971 22.4292 55.9365 22.3062 55.8975C22.1862 55.8585 22.0827 55.7925 21.9957 55.6995C21.9087 55.6065 21.8652 55.476 21.8652 55.308C21.8652 55.092 21.9552 54.9195 22.1352 54.7905C22.3152 54.6585 22.5567 54.5925 22.8597 54.5925C23.0187 54.5925 23.1777 54.612 23.3367 54.651C23.4957 54.69 23.6262 54.7425 23.7282 54.8085L23.5437 55.1505C23.3487 55.0245 23.1192 54.9615 22.8552 54.9615C22.6722 54.9615 22.5327 54.9915 22.4367 55.0515C22.3407 55.1115 22.2927 55.191 22.2927 55.29C22.2927 55.368 22.3197 55.4295 22.3737 55.4745C22.4277 55.5195 22.4937 55.5525 22.5717 55.5735C22.6527 55.5945 22.7652 55.6185 22.9092 55.6455C23.1012 55.6785 23.2557 55.7145 23.3727 55.7535C23.4927 55.7895 23.5947 55.8525 23.6787 55.9425C23.7627 56.0325 23.8047 56.1585 23.8047 56.3205C23.8047 56.5365 23.7117 56.709 23.5257 56.838C23.3427 56.964 23.0922 57.027 22.7742 57.027Z" fill="black"/>
<path d="M26.4216 54.5925C26.7516 54.5925 27.0036 54.6735 27.1776 54.8355C27.3546 54.9975 27.4431 55.239 27.4431 55.56V57H27.0336V56.685C26.9616 56.796 26.8581 56.8815 26.7231 56.9415C26.5911 56.9985 26.4336 57.027 26.2506 57.027C25.9836 57.027 25.7691 56.9625 25.6071 56.8335C25.4481 56.7045 25.3686 56.535 25.3686 56.325C25.3686 56.115 25.4451 55.947 25.5981 55.821C25.7511 55.692 25.9941 55.6275 26.3271 55.6275H27.0111V55.542C27.0111 55.356 26.9571 55.2135 26.8491 55.1145C26.7411 55.0155 26.5821 54.966 26.3721 54.966C26.2311 54.966 26.0931 54.99 25.9581 55.038C25.8231 55.083 25.7091 55.1445 25.6161 55.2225L25.4361 54.8985C25.5591 54.7995 25.7061 54.7245 25.8771 54.6735C26.0481 54.6195 26.2296 54.5925 26.4216 54.5925ZM26.3226 56.694C26.4876 56.694 26.6301 56.658 26.7501 56.586C26.8701 56.511 26.9571 56.406 27.0111 56.271V55.938H26.3451C25.9791 55.938 25.7961 56.061 25.7961 56.307C25.7961 56.427 25.8426 56.5215 25.9356 56.5905C26.0286 56.6595 26.1576 56.694 26.3226 56.694Z" fill="black"/>
<path d="M30.135 57.027C29.94 57.027 29.7525 57.0015 29.5725 56.9505C29.3925 56.8965 29.2515 56.829 29.1495 56.748L29.3295 56.406C29.4345 56.481 29.562 56.541 29.712 56.586C29.862 56.631 30.0135 56.6535 30.1665 56.6535C30.5445 56.6535 30.7335 56.5455 30.7335 56.3295C30.7335 56.2575 30.708 56.2005 30.657 56.1585C30.606 56.1165 30.5415 56.0865 30.4635 56.0685C30.3885 56.0475 30.2805 56.025 30.1395 56.001C29.9475 55.971 29.79 55.9365 29.667 55.8975C29.547 55.8585 29.4435 55.7925 29.3565 55.6995C29.2695 55.6065 29.226 55.476 29.226 55.308C29.226 55.092 29.316 54.9195 29.496 54.7905C29.676 54.6585 29.9175 54.5925 30.2205 54.5925C30.3795 54.5925 30.5385 54.612 30.6975 54.651C30.8565 54.69 30.987 54.7425 31.089 54.8085L30.9045 55.1505C30.7095 55.0245 30.48 54.9615 30.216 54.9615C30.033 54.9615 29.8935 54.9915 29.7975 55.0515C29.7015 55.1115 29.6535 55.191 29.6535 55.29C29.6535 55.368 29.6805 55.4295 29.7345 55.4745C29.7885 55.5195 29.8545 55.5525 29.9325 55.5735C30.0135 55.5945 30.126 55.6185 30.27 55.6455C30.462 55.6785 30.6165 55.7145 30.7335 55.7535C30.8535 55.7895 30.9555 55.8525 31.0395 55.9425C31.1235 56.0325 31.1655 56.1585 31.1655 56.3205C31.1655 56.5365 31.0725 56.709 30.8865 56.838C30.7035 56.964 30.453 57.027 30.135 57.027Z" fill="black"/>
<path d="M33.9284 54.615V57H33.5189V56.64C33.4319 56.763 33.3164 56.859 33.1724 56.928C33.0314 56.994 32.8769 57.027 32.7089 57.027C32.3909 57.027 32.1404 56.94 31.9574 56.766C31.7744 56.589 31.6829 56.3295 31.6829 55.9875V54.615H32.1149V55.938C32.1149 56.169 32.1704 56.3445 32.2814 56.4645C32.3924 56.5815 32.5514 56.64 32.7584 56.64C32.9864 56.64 33.1664 56.571 33.2984 56.433C33.4304 56.295 33.4964 56.1 33.4964 55.848V54.615H33.9284Z" fill="black"/>
<path d="M36.0153 54.5925C36.2463 54.5925 36.4533 54.6435 36.6363 54.7455C36.8193 54.8475 36.9618 54.99 37.0638 55.173C37.1688 55.356 37.2213 55.5675 37.2213 55.8075C37.2213 56.0475 37.1688 56.2605 37.0638 56.4465C36.9618 56.6295 36.8193 56.772 36.6363 56.874C36.4533 56.976 36.2463 57.027 36.0153 57.027C35.8383 57.027 35.6763 56.9925 35.5293 56.9235C35.3823 56.8545 35.2608 56.754 35.1648 56.622V57H34.7508V53.661H35.1828V54.975C35.2788 54.849 35.3988 54.7545 35.5428 54.6915C35.6868 54.6255 35.8443 54.5925 36.0153 54.5925ZM35.9793 56.649C36.1323 56.649 36.2688 56.6145 36.3888 56.5455C36.5118 56.4735 36.6078 56.3745 36.6768 56.2485C36.7488 56.1195 36.7848 55.9725 36.7848 55.8075C36.7848 55.6425 36.7488 55.497 36.6768 55.371C36.6078 55.242 36.5118 55.143 36.3888 55.074C36.2688 55.005 36.1323 54.9705 35.9793 54.9705C35.8293 54.9705 35.6928 55.005 35.5698 55.074C35.4468 55.143 35.3508 55.242 35.2818 55.371C35.2128 55.497 35.1783 55.6425 35.1783 55.8075C35.1783 55.9725 35.2128 56.1195 35.2818 56.2485C35.3508 56.3745 35.4468 56.4735 35.5698 56.5455C35.6928 56.6145 35.8293 56.649 35.9793 56.649Z" fill="black"/>
<path d="M39.0917 54.5925C39.3947 54.5925 39.6347 54.681 39.8117 54.858C39.9917 55.032 40.0817 55.2885 40.0817 55.6275V57H39.6497V55.677C39.6497 55.446 39.5942 55.272 39.4832 55.155C39.3722 55.038 39.2132 54.9795 39.0062 54.9795C38.7722 54.9795 38.5877 55.0485 38.4527 55.1865C38.3177 55.3215 38.2502 55.5165 38.2502 55.7715V57H37.8182V53.661H38.2502V54.9525C38.3402 54.8385 38.4572 54.75 38.6012 54.687C38.7482 54.624 38.9117 54.5925 39.0917 54.5925Z" fill="black"/>
<path d="M43.0499 55.821C43.0499 55.854 43.0469 55.8975 43.0409 55.9515H41.1059C41.1329 56.1615 41.2244 56.331 41.3804 56.46C41.5394 56.586 41.7359 56.649 41.9699 56.649C42.2549 56.649 42.4844 56.553 42.6584 56.361L42.8969 56.64C42.7889 56.766 42.6539 56.862 42.4919 56.928C42.3329 56.994 42.1544 57.027 41.9564 57.027C41.7044 57.027 41.4809 56.976 41.2859 56.874C41.0909 56.769 40.9394 56.6235 40.8314 56.4375C40.7264 56.2515 40.6739 56.0415 40.6739 55.8075C40.6739 55.5765 40.7249 55.368 40.8269 55.182C40.9319 54.996 41.0744 54.852 41.2544 54.75C41.4374 54.645 41.6429 54.5925 41.8709 54.5925C42.0989 54.5925 42.3014 54.645 42.4784 54.75C42.6584 54.852 42.7979 54.996 42.8969 55.182C42.9989 55.368 43.0499 55.581 43.0499 55.821ZM41.8709 54.957C41.6639 54.957 41.4899 55.02 41.3489 55.146C41.2109 55.272 41.1299 55.437 41.1059 55.641H42.6359C42.6119 55.44 42.5294 55.2765 42.3884 55.1505C42.2504 55.0215 42.0779 54.957 41.8709 54.957Z" fill="black"/>
<path d="M44.4523 54.5925C44.7823 54.5925 45.0343 54.6735 45.2083 54.8355C45.3853 54.9975 45.4738 55.239 45.4738 55.56V57H45.0643V56.685C44.9923 56.796 44.8888 56.8815 44.7538 56.9415C44.6218 56.9985 44.4643 57.027 44.2813 57.027C44.0143 57.027 43.7998 56.9625 43.6378 56.8335C43.4788 56.7045 43.3993 56.535 43.3993 56.325C43.3993 56.115 43.4758 55.947 43.6288 55.821C43.7818 55.692 44.0248 55.6275 44.3578 55.6275H45.0418V55.542C45.0418 55.356 44.9878 55.2135 44.8798 55.1145C44.7718 55.0155 44.6128 54.966 44.4028 54.966C44.2618 54.966 44.1238 54.99 43.9888 55.038C43.8538 55.083 43.7398 55.1445 43.6468 55.2225L43.4668 54.8985C43.5898 54.7995 43.7368 54.7245 43.9078 54.6735C44.0788 54.6195 44.2603 54.5925 44.4523 54.5925ZM44.3533 56.694C44.5183 56.694 44.6608 56.658 44.7808 56.586C44.9008 56.511 44.9878 56.406 45.0418 56.271V55.938H44.3758C44.0098 55.938 43.8268 56.061 43.8268 56.307C43.8268 56.427 43.8733 56.5215 43.9663 56.5905C44.0593 56.6595 44.1883 56.694 44.3533 56.694Z" fill="black"/>
<path d="M48.5365 53.661V57H48.1225V56.622C48.0265 56.754 47.905 56.8545 47.758 56.9235C47.611 56.9925 47.449 57.027 47.272 57.027C47.041 57.027 46.834 56.976 46.651 56.874C46.468 56.772 46.324 56.6295 46.219 56.4465C46.117 56.2605 46.066 56.0475 46.066 55.8075C46.066 55.5675 46.117 55.356 46.219 55.173C46.324 54.99 46.468 54.8475 46.651 54.7455C46.834 54.6435 47.041 54.5925 47.272 54.5925C47.443 54.5925 47.6005 54.6255 47.7445 54.6915C47.8885 54.7545 48.0085 54.849 48.1045 54.975V53.661H48.5365ZM47.308 56.649C47.458 56.649 47.5945 56.6145 47.7175 56.5455C47.8405 56.4735 47.9365 56.3745 48.0055 56.2485C48.0745 56.1195 48.109 55.9725 48.109 55.8075C48.109 55.6425 48.0745 55.497 48.0055 55.371C47.9365 55.242 47.8405 55.143 47.7175 55.074C47.5945 55.005 47.458 54.9705 47.308 54.9705C47.155 54.9705 47.017 55.005 46.894 55.074C46.774 55.143 46.678 55.242 46.606 55.371C46.537 55.497 46.5025 55.6425 46.5025 55.8075C46.5025 55.9725 46.537 56.1195 46.606 56.2485C46.678 56.3745 46.774 56.4735 46.894 56.5455C47.017 56.6145 47.155 56.649 47.308 56.649Z" fill="black"/>
<path d="M51.5093 55.821C51.5093 55.854 51.5063 55.8975 51.5003 55.9515H49.5653C49.5923 56.1615 49.6838 56.331 49.8398 56.46C49.9988 56.586 50.1953 56.649 50.4293 56.649C50.7143 56.649 50.9438 56.553 51.1178 56.361L51.3563 56.64C51.2483 56.766 51.1133 56.862 50.9513 56.928C50.7923 56.994 50.6138 57.027 50.4158 57.027C50.1638 57.027 49.9403 56.976 49.7453 56.874C49.5503 56.769 49.3988 56.6235 49.2908 56.4375C49.1858 56.2515 49.1333 56.0415 49.1333 55.8075C49.1333 55.5765 49.1843 55.368 49.2863 55.182C49.3913 54.996 49.5338 54.852 49.7138 54.75C49.8968 54.645 50.1023 54.5925 50.3303 54.5925C50.5583 54.5925 50.7608 54.645 50.9378 54.75C51.1178 54.852 51.2573 54.996 51.3563 55.182C51.4583 55.368 51.5093 55.581 51.5093 55.821ZM50.3303 54.957C50.1233 54.957 49.9493 55.02 49.8083 55.146C49.6703 55.272 49.5893 55.437 49.5653 55.641H51.0953C51.0713 55.44 50.9888 55.2765 50.8478 55.1505C50.7098 55.0215 50.5373 54.957 50.3303 54.957Z" fill="black"/>
<path d="M52.5232 55.0155C52.5982 54.8775 52.7092 54.7725 52.8562 54.7005C53.0032 54.6285 53.1817 54.5925 53.3917 54.5925V55.011C53.3677 55.008 53.3347 55.0065 53.2927 55.0065C53.0587 55.0065 52.8742 55.077 52.7392 55.218C52.6072 55.356 52.5412 55.554 52.5412 55.812V57H52.1092V54.615H52.5232V55.0155Z" fill="black"/>
<path d="M56.0319 54.5925C56.3619 54.5925 56.6139 54.6735 56.7879 54.8355C56.9649 54.9975 57.0534 55.239 57.0534 55.56V57H56.6439V56.685C56.5719 56.796 56.4684 56.8815 56.3334 56.9415C56.2014 56.9985 56.0439 57.027 55.8609 57.027C55.5939 57.027 55.3794 56.9625 55.2174 56.8335C55.0584 56.7045 54.9789 56.535 54.9789 56.325C54.9789 56.115 55.0554 55.947 55.2084 55.821C55.3614 55.692 55.6044 55.6275 55.9374 55.6275H56.6214V55.542C56.6214 55.356 56.5674 55.2135 56.4594 55.1145C56.3514 55.0155 56.1924 54.966 55.9824 54.966C55.8414 54.966 55.7034 54.99 55.5684 55.038C55.4334 55.083 55.3194 55.1445 55.2264 55.2225L55.0464 54.8985C55.1694 54.7995 55.3164 54.7245 55.4874 54.6735C55.6584 54.6195 55.8399 54.5925 56.0319 54.5925ZM55.9329 56.694C56.0979 56.694 56.2404 56.658 56.3604 56.586C56.4804 56.511 56.5674 56.406 56.6214 56.271V55.938H55.9554C55.5894 55.938 55.4064 56.061 55.4064 56.307C55.4064 56.427 55.4529 56.5215 55.5459 56.5905C55.6389 56.6595 55.7679 56.694 55.9329 56.694Z" fill="black"/>
<path d="M59.1174 54.5925C59.3484 54.5925 59.5554 54.6435 59.7384 54.7455C59.9214 54.8475 60.0639 54.99 60.1659 55.173C60.2709 55.356 60.3234 55.5675 60.3234 55.8075C60.3234 56.0475 60.2709 56.2605 60.1659 56.4465C60.0639 56.6295 59.9214 56.772 59.7384 56.874C59.5554 56.976 59.3484 57.027 59.1174 57.027C58.9404 57.027 58.7784 56.9925 58.6314 56.9235C58.4844 56.8545 58.3629 56.754 58.2669 56.622V57H57.8529V53.661H58.2849V54.975C58.3809 54.849 58.5009 54.7545 58.6449 54.6915C58.7889 54.6255 58.9464 54.5925 59.1174 54.5925ZM59.0814 56.649C59.2344 56.649 59.3709 56.6145 59.4909 56.5455C59.6139 56.4735 59.7099 56.3745 59.7789 56.2485C59.8509 56.1195 59.8869 55.9725 59.8869 55.8075C59.8869 55.6425 59.8509 55.497 59.7789 55.371C59.7099 55.242 59.6139 55.143 59.4909 55.074C59.3709 55.005 59.2344 54.9705 59.0814 54.9705C58.9314 54.9705 58.7949 55.005 58.6719 55.074C58.5489 55.143 58.4529 55.242 58.3839 55.371C58.3149 55.497 58.2804 55.6425 58.2804 55.8075C58.2804 55.9725 58.3149 56.1195 58.3839 56.2485C58.4529 56.3745 58.5489 56.4735 58.6719 56.5455C58.7949 56.6145 58.9314 56.649 59.0814 56.649Z" fill="black"/>
<path d="M61.9417 57.027C61.7047 57.027 61.4917 56.9745 61.3027 56.8695C61.1137 56.7645 60.9652 56.6205 60.8572 56.4375C60.7522 56.2515 60.6997 56.0415 60.6997 55.8075C60.6997 55.5735 60.7522 55.365 60.8572 55.182C60.9652 54.996 61.1137 54.852 61.3027 54.75C61.4917 54.645 61.7047 54.5925 61.9417 54.5925C62.1787 54.5925 62.3902 54.645 62.5762 54.75C62.7652 54.852 62.9122 54.996 63.0172 55.182C63.1252 55.365 63.1792 55.5735 63.1792 55.8075C63.1792 56.0415 63.1252 56.2515 63.0172 56.4375C62.9122 56.6205 62.7652 56.7645 62.5762 56.8695C62.3902 56.9745 62.1787 57.027 61.9417 57.027ZM61.9417 56.649C62.0947 56.649 62.2312 56.6145 62.3512 56.5455C62.4742 56.4735 62.5702 56.3745 62.6392 56.2485C62.7082 56.1195 62.7427 55.9725 62.7427 55.8075C62.7427 55.6425 62.7082 55.497 62.6392 55.371C62.5702 55.242 62.4742 55.143 62.3512 55.074C62.2312 55.005 62.0947 54.9705 61.9417 54.9705C61.7887 54.9705 61.6507 55.005 61.5277 55.074C61.4077 55.143 61.3117 55.242 61.2397 55.371C61.1707 55.497 61.1362 55.6425 61.1362 55.8075C61.1362 55.9725 61.1707 56.1195 61.2397 56.2485C61.3117 56.3745 61.4077 56.4735 61.5277 56.5455C61.6507 56.6145 61.7887 56.649 61.9417 56.649Z" fill="black"/>
<path d="M65.9997 54.615V57H65.5902V56.64C65.5032 56.763 65.3877 56.859 65.2437 56.928C65.1027 56.994 64.9482 57.027 64.7802 57.027C64.4622 57.027 64.2117 56.94 64.0287 56.766C63.8457 56.589 63.7542 56.3295 63.7542 55.9875V54.615H64.1862V55.938C64.1862 56.169 64.2417 56.3445 64.3527 56.4645C64.4637 56.5815 64.6227 56.64 64.8297 56.64C65.0577 56.64 65.2377 56.571 65.3697 56.433C65.5017 56.295 65.5677 56.1 65.5677 55.848V54.615H65.9997Z" fill="black"/>
<path d="M68.1631 56.8605C68.1001 56.9145 68.0221 56.9565 67.9291 56.9865C67.8361 57.0135 67.7401 57.027 67.6411 57.027C67.4011 57.027 67.2151 56.9625 67.0831 56.8335C66.9511 56.7045 66.8851 56.52 66.8851 56.28V54.9705H66.4801V54.615H66.8851V54.093H67.3171V54.615H68.0011V54.9705H67.3171V56.262C67.3171 56.391 67.3486 56.49 67.4116 56.559C67.4776 56.628 67.5706 56.6625 67.6906 56.6625C67.8226 56.6625 67.9351 56.625 68.0281 56.55L68.1631 56.8605Z" fill="black"/>
<path d="M71.2349 56.8605C71.1719 56.9145 71.0939 56.9565 71.0009 56.9865C70.9079 57.0135 70.8119 57.027 70.7129 57.027C70.4729 57.027 70.2869 56.9625 70.1549 56.8335C70.0229 56.7045 69.9569 56.52 69.9569 56.28V54.9705H69.5519V54.615H69.9569V54.093H70.3889V54.615H71.0729V54.9705H70.3889V56.262C70.3889 56.391 70.4204 56.49 70.4834 56.559C70.5494 56.628 70.6424 56.6625 70.7624 56.6625C70.8944 56.6625 71.0069 56.625 71.0999 56.55L71.2349 56.8605Z" fill="black"/>
<path d="M73.0307 54.5925C73.3337 54.5925 73.5737 54.681 73.7507 54.858C73.9307 55.032 74.0207 55.2885 74.0207 55.6275V57H73.5887V55.677C73.5887 55.446 73.5332 55.272 73.4222 55.155C73.3112 55.038 73.1522 54.9795 72.9452 54.9795C72.7112 54.9795 72.5267 55.0485 72.3917 55.1865C72.2567 55.3215 72.1892 55.5165 72.1892 55.7715V57H71.7572V53.661H72.1892V54.9525C72.2792 54.8385 72.3962 54.75 72.5402 54.687C72.6872 54.624 72.8507 54.5925 73.0307 54.5925Z" fill="black"/>
<path d="M74.8202 54.615H75.2522V57H74.8202V54.615ZM75.0362 54.156C74.9522 54.156 74.8817 54.129 74.8247 54.075C74.7707 54.021 74.7437 53.955 74.7437 53.877C74.7437 53.799 74.7707 53.733 74.8247 53.679C74.8817 53.622 74.9522 53.5935 75.0362 53.5935C75.1202 53.5935 75.1891 53.6205 75.2431 53.6745C75.3001 53.7255 75.3287 53.79 75.3287 53.868C75.3287 53.949 75.3001 54.018 75.2431 54.075C75.1891 54.129 75.1202 54.156 75.0362 54.156Z" fill="black"/>
<path d="M76.761 57.027C76.566 57.027 76.3785 57.0015 76.1985 56.9505C76.0185 56.8965 75.8775 56.829 75.7755 56.748L75.9555 56.406C76.0605 56.481 76.188 56.541 76.338 56.586C76.488 56.631 76.6395 56.6535 76.7925 56.6535C77.1705 56.6535 77.3595 56.5455 77.3595 56.3295C77.3595 56.2575 77.334 56.2005 77.283 56.1585C77.232 56.1165 77.1675 56.0865 77.0895 56.0685C77.0145 56.0475 76.9065 56.025 76.7655 56.001C76.5735 55.971 76.416 55.9365 76.293 55.8975C76.173 55.8585 76.0695 55.7925 75.9825 55.6995C75.8955 55.6065 75.852 55.476 75.852 55.308C75.852 55.092 75.942 54.9195 76.122 54.7905C76.302 54.6585 76.5435 54.5925 76.8465 54.5925C77.0055 54.5925 77.1645 54.612 77.3235 54.651C77.4825 54.69 77.613 54.7425 77.715 54.8085L77.5305 55.1505C77.3355 55.0245 77.106 54.9615 76.842 54.9615C76.659 54.9615 76.5195 54.9915 76.4235 55.0515C76.3275 55.1115 76.2795 55.191 76.2795 55.29C76.2795 55.368 76.3065 55.4295 76.3605 55.4745C76.4145 55.5195 76.4805 55.5525 76.5585 55.5735C76.6395 55.5945 76.752 55.6185 76.896 55.6455C77.088 55.6785 77.2425 55.7145 77.3595 55.7535C77.4795 55.7895 77.5815 55.8525 77.6655 55.9425C77.7495 56.0325 77.7915 56.1585 77.7915 56.3205C77.7915 56.5365 77.6985 56.709 77.5125 56.838C77.3295 56.964 77.079 57.027 76.761 57.027Z" fill="black"/>
<path d="M80.5794 57.027C80.3364 57.027 80.1189 56.9745 79.9269 56.8695C79.7379 56.7645 79.5894 56.6205 79.4814 56.4375C79.3734 56.2515 79.3194 56.0415 79.3194 55.8075C79.3194 55.5735 79.3734 55.365 79.4814 55.182C79.5894 54.996 79.7379 54.852 79.9269 54.75C80.1189 54.645 80.3364 54.5925 80.5794 54.5925C80.7954 54.5925 80.9874 54.636 81.1554 54.723C81.3264 54.81 81.4584 54.936 81.5514 55.101L81.2229 55.3125C81.1479 55.1985 81.0549 55.113 80.9439 55.056C80.8329 54.999 80.7099 54.9705 80.5749 54.9705C80.4189 54.9705 80.2779 55.005 80.1519 55.074C80.0289 55.143 79.9314 55.242 79.8594 55.371C79.7904 55.497 79.7559 55.6425 79.7559 55.8075C79.7559 55.9755 79.7904 56.124 79.8594 56.253C79.9314 56.379 80.0289 56.4765 80.1519 56.5455C80.2779 56.6145 80.4189 56.649 80.5749 56.649C80.7099 56.649 80.8329 56.6205 80.9439 56.5635C81.0549 56.5065 81.1479 56.421 81.2229 56.307L81.5514 56.514C81.4584 56.679 81.3264 56.8065 81.1554 56.8965C80.9874 56.9835 80.7954 57.027 80.5794 57.027Z" fill="black"/>
<path d="M83.097 57.027C82.86 57.027 82.647 56.9745 82.458 56.8695C82.269 56.7645 82.1205 56.6205 82.0125 56.4375C81.9075 56.2515 81.855 56.0415 81.855 55.8075C81.855 55.5735 81.9075 55.365 82.0125 55.182C82.1205 54.996 82.269 54.852 82.458 54.75C82.647 54.645 82.86 54.5925 83.097 54.5925C83.334 54.5925 83.5455 54.645 83.7315 54.75C83.9205 54.852 84.0675 54.996 84.1725 55.182C84.2805 55.365 84.3345 55.5735 84.3345 55.8075C84.3345 56.0415 84.2805 56.2515 84.1725 56.4375C84.0675 56.6205 83.9205 56.7645 83.7315 56.8695C83.5455 56.9745 83.334 57.027 83.097 57.027ZM83.097 56.649C83.25 56.649 83.3865 56.6145 83.5065 56.5455C83.6295 56.4735 83.7255 56.3745 83.7945 56.2485C83.8635 56.1195 83.898 55.9725 83.898 55.8075C83.898 55.6425 83.8635 55.497 83.7945 55.371C83.7255 55.242 83.6295 55.143 83.5065 55.074C83.3865 55.005 83.25 54.9705 83.097 54.9705C82.944 54.9705 82.806 55.005 82.683 55.074C82.563 55.143 82.467 55.242 82.395 55.371C82.326 55.497 82.2915 55.6425 82.2915 55.8075C82.2915 55.9725 82.326 56.1195 82.395 56.2485C82.467 56.3745 82.563 56.4735 82.683 56.5455C82.806 56.6145 82.944 56.649 83.097 56.649Z" fill="black"/>
<path d="M87.9155 54.5925C88.2155 54.5925 88.4525 54.6795 88.6265 54.8535C88.8035 55.0275 88.892 55.2855 88.892 55.6275V57H88.46V55.677C88.46 55.446 88.406 55.272 88.298 55.155C88.193 55.038 88.0415 54.9795 87.8435 54.9795C87.6245 54.9795 87.4505 55.0485 87.3215 55.1865C87.1925 55.3215 87.128 55.5165 87.128 55.7715V57H86.696V55.677C86.696 55.446 86.642 55.272 86.534 55.155C86.429 55.038 86.2775 54.9795 86.0795 54.9795C85.8605 54.9795 85.6865 55.0485 85.5575 55.1865C85.4285 55.3215 85.364 55.5165 85.364 55.7715V57H84.932V54.615H85.346V54.9705C85.433 54.8475 85.547 54.7545 85.688 54.6915C85.829 54.6255 85.9895 54.5925 86.1695 54.5925C86.3555 54.5925 86.5205 54.63 86.6645 54.705C86.8085 54.78 86.9195 54.8895 86.9975 55.0335C87.0875 54.8955 87.212 54.7875 87.371 54.7095C87.533 54.6315 87.7145 54.5925 87.9155 54.5925Z" fill="black"/>
<path d="M90.9514 54.5925C91.1824 54.5925 91.3893 54.6435 91.5723 54.7455C91.7553 54.8475 91.8979 54.99 91.9999 55.173C92.1049 55.356 92.1573 55.5675 92.1573 55.8075C92.1573 56.0475 92.1049 56.2605 91.9999 56.4465C91.8979 56.6295 91.7553 56.772 91.5723 56.874C91.3893 56.976 91.1824 57.027 90.9514 57.027C90.7804 57.027 90.6229 56.994 90.4789 56.928C90.3379 56.862 90.2179 56.766 90.1189 56.64V57.873H89.6869V54.615H90.1009V54.993C90.1969 54.861 90.3184 54.762 90.4654 54.696C90.6124 54.627 90.7744 54.5925 90.9514 54.5925ZM90.9154 56.649C91.0684 56.649 91.2049 56.6145 91.3249 56.5455C91.4479 56.4735 91.5439 56.3745 91.6129 56.2485C91.6849 56.1195 91.7208 55.9725 91.7208 55.8075C91.7208 55.6425 91.6849 55.497 91.6129 55.371C91.5439 55.242 91.4479 55.143 91.3249 55.074C91.2049 55.005 91.0684 54.9705 90.9154 54.9705C90.7654 54.9705 90.6289 55.0065 90.5059 55.0785C90.3859 55.1475 90.2898 55.245 90.2178 55.371C90.1488 55.497 90.1143 55.6425 90.1143 55.8075C90.1143 55.9725 90.1488 56.1195 90.2178 56.2485C90.2868 56.3745 90.3829 56.4735 90.5059 56.5455C90.6289 56.6145 90.7654 56.649 90.9154 56.649Z" fill="black"/>
<path d="M93.6008 54.5925C93.9308 54.5925 94.1828 54.6735 94.3568 54.8355C94.5338 54.9975 94.6223 55.239 94.6223 55.56V57H94.2128V56.685C94.1408 56.796 94.0373 56.8815 93.9023 56.9415C93.7703 56.9985 93.6128 57.027 93.4298 57.027C93.1628 57.027 92.9483 56.9625 92.7863 56.8335C92.6273 56.7045 92.5478 56.535 92.5478 56.325C92.5478 56.115 92.6243 55.947 92.7773 55.821C92.9303 55.692 93.1733 55.6275 93.5063 55.6275H94.1903V55.542C94.1903 55.356 94.1363 55.2135 94.0283 55.1145C93.9203 55.0155 93.7613 54.966 93.5513 54.966C93.4103 54.966 93.2723 54.99 93.1373 55.038C93.0023 55.083 92.8883 55.1445 92.7953 55.2225L92.6153 54.8985C92.7383 54.7995 92.8853 54.7245 93.0563 54.6735C93.2273 54.6195 93.4088 54.5925 93.6008 54.5925ZM93.5018 56.694C93.6668 56.694 93.8093 56.658 93.9293 56.586C94.0493 56.511 94.1363 56.406 94.1903 56.271V55.938H93.5243C93.1583 55.938 92.9753 56.061 92.9753 56.307C92.9753 56.427 93.0218 56.5215 93.1148 56.5905C93.2078 56.6595 93.3368 56.694 93.5018 56.694Z" fill="black"/>
<path d="M96.6952 54.5925C96.9982 54.5925 97.2382 54.681 97.4152 54.858C97.5952 55.032 97.6852 55.2885 97.6852 55.6275V57H97.2532V55.677C97.2532 55.446 97.1977 55.272 97.0867 55.155C96.9757 55.038 96.8167 54.9795 96.6097 54.9795C96.3757 54.9795 96.1912 55.0485 96.0562 55.1865C95.9212 55.3215 95.8537 55.5165 95.8537 55.7715V57H95.4217V54.615H95.8357V54.975C95.9227 54.852 96.0397 54.7575 96.1867 54.6915C96.3367 54.6255 96.5062 54.5925 96.6952 54.5925Z" fill="black"/>
<path d="M100.551 54.615L99.3948 57.2385C99.2928 57.4815 99.1728 57.6525 99.0348 57.7515C98.8998 57.8505 98.7363 57.9 98.5443 57.9C98.4273 57.9 98.3133 57.8805 98.2023 57.8415C98.0943 57.8055 98.0043 57.7515 97.9323 57.6795L98.1168 57.3555C98.2398 57.4725 98.3823 57.531 98.5443 57.531C98.6493 57.531 98.7363 57.5025 98.8053 57.4455C98.8773 57.3915 98.9418 57.297 98.9988 57.162L99.0753 56.9955L98.0223 54.615H98.4723L99.3048 56.523L100.128 54.615H100.551Z" fill="black"/>
<path d="M11.278 61.5925C11.608 61.5925 11.86 61.6735 12.034 61.8355C12.211 61.9975 12.2995 62.239 12.2995 62.56V64H11.89V63.685C11.818 63.796 11.7145 63.8815 11.5795 63.9415C11.4475 63.9985 11.29 64.027 11.107 64.027C10.84 64.027 10.6255 63.9625 10.4635 63.8335C10.3045 63.7045 10.225 63.535 10.225 63.325C10.225 63.115 10.3015 62.947 10.4545 62.821C10.6075 62.692 10.8505 62.6275 11.1835 62.6275H11.8675V62.542C11.8675 62.356 11.8135 62.2135 11.7055 62.1145C11.5975 62.0155 11.4385 61.966 11.2285 61.966C11.0875 61.966 10.9495 61.99 10.8145 62.038C10.6795 62.083 10.5655 62.1445 10.4725 62.2225L10.2925 61.8985C10.4155 61.7995 10.5625 61.7245 10.7335 61.6735C10.9045 61.6195 11.086 61.5925 11.278 61.5925ZM11.179 63.694C11.344 63.694 11.4865 63.658 11.6065 63.586C11.7265 63.511 11.8135 63.406 11.8675 63.271V62.938H11.2015C10.8355 62.938 10.6525 63.061 10.6525 63.307C10.6525 63.427 10.699 63.5215 10.792 63.5905C10.885 63.6595 11.014 63.694 11.179 63.694Z" fill="black"/>
<path d="M14.3725 61.5925C14.6755 61.5925 14.9155 61.681 15.0925 61.858C15.2725 62.032 15.3625 62.2885 15.3625 62.6275V64H14.9305V62.677C14.9305 62.446 14.875 62.272 14.764 62.155C14.653 62.038 14.494 61.9795 14.287 61.9795C14.053 61.9795 13.8685 62.0485 13.7335 62.1865C13.5985 62.3215 13.531 62.5165 13.531 62.7715V64H13.099V61.615H13.513V61.975C13.6 61.852 13.717 61.7575 13.864 61.6915C14.014 61.6255 14.1835 61.5925 14.3725 61.5925Z" fill="black"/>
<path d="M18.4251 60.661V64H18.0111V63.622C17.9151 63.754 17.7936 63.8545 17.6466 63.9235C17.4996 63.9925 17.3376 64.027 17.1606 64.027C16.9296 64.027 16.7226 63.976 16.5396 63.874C16.3566 63.772 16.2126 63.6295 16.1076 63.4465C16.0056 63.2605 15.9546 63.0475 15.9546 62.8075C15.9546 62.5675 16.0056 62.356 16.1076 62.173C16.2126 61.99 16.3566 61.8475 16.5396 61.7455C16.7226 61.6435 16.9296 61.5925 17.1606 61.5925C17.3316 61.5925 17.4891 61.6255 17.6331 61.6915C17.7771 61.7545 17.8971 61.849 17.9931 61.975V60.661H18.4251ZM17.1966 63.649C17.3466 63.649 17.4831 63.6145 17.6061 63.5455C17.7291 63.4735 17.8251 63.3745 17.8941 63.2485C17.9631 63.1195 17.9976 62.9725 17.9976 62.8075C17.9976 62.6425 17.9631 62.497 17.8941 62.371C17.8251 62.242 17.7291 62.143 17.6061 62.074C17.4831 62.005 17.3466 61.9705 17.1966 61.9705C17.0436 61.9705 16.9056 62.005 16.7826 62.074C16.6626 62.143 16.5666 62.242 16.4946 62.371C16.4256 62.497 16.3911 62.6425 16.3911 62.8075C16.3911 62.9725 16.4256 63.1195 16.4946 63.2485C16.5666 63.3745 16.6626 63.4735 16.7826 63.5455C16.9056 63.6145 17.0436 63.649 17.1966 63.649Z" fill="black"/>
<path d="M24.06 61.615L23.169 64H22.755L22.0665 62.191L21.369 64H20.955L20.0685 61.615H20.478L21.171 63.514L21.891 61.615H22.2555L22.962 63.523L23.673 61.615H24.06Z" fill="black"/>
<path d="M25.7719 61.5925C26.0749 61.5925 26.3149 61.681 26.4919 61.858C26.6719 62.032 26.7619 62.2885 26.7619 62.6275V64H26.3299V62.677C26.3299 62.446 26.2744 62.272 26.1634 62.155C26.0524 62.038 25.8934 61.9795 25.6864 61.9795C25.4524 61.9795 25.2679 62.0485 25.1329 62.1865C24.9979 62.3215 24.9304 62.5165 24.9304 62.7715V64H24.4984V60.661H24.9304V61.9525C25.0204 61.8385 25.1374 61.75 25.2814 61.687C25.4284 61.624 25.5919 61.5925 25.7719 61.5925Z" fill="black"/>
<path d="M28.4299 61.5925C28.7599 61.5925 29.0119 61.6735 29.1859 61.8355C29.3629 61.9975 29.4514 62.239 29.4514 62.56V64H29.0419V63.685C28.9699 63.796 28.8664 63.8815 28.7314 63.9415C28.5994 63.9985 28.4419 64.027 28.2589 64.027C27.9919 64.027 27.7774 63.9625 27.6154 63.8335C27.4564 63.7045 27.3769 63.535 27.3769 63.325C27.3769 63.115 27.4534 62.947 27.6064 62.821C27.7594 62.692 28.0024 62.6275 28.3354 62.6275H29.0194V62.542C29.0194 62.356 28.9654 62.2135 28.8574 62.1145C28.7494 62.0155 28.5904 61.966 28.3804 61.966C28.2394 61.966 28.1014 61.99 27.9664 62.038C27.8314 62.083 27.7174 62.1445 27.6244 62.2225L27.4444 61.8985C27.5674 61.7995 27.7144 61.7245 27.8854 61.6735C28.0564 61.6195 28.2379 61.5925 28.4299 61.5925ZM28.3309 63.694C28.4959 63.694 28.6384 63.658 28.7584 63.586C28.8784 63.511 28.9654 63.406 29.0194 63.271V62.938H28.3534C27.9874 62.938 27.8044 63.061 27.8044 63.307C27.8044 63.427 27.8509 63.5215 27.9439 63.5905C28.0369 63.6595 28.1659 63.694 28.3309 63.694Z" fill="black"/>
<path d="M31.5918 63.8605C31.5288 63.9145 31.4508 63.9565 31.3578 63.9865C31.2648 64.0135 31.1688 64.027 31.0698 64.027C30.8298 64.027 30.6438 63.9625 30.5118 63.8335C30.3798 63.7045 30.3138 63.52 30.3138 63.28V61.9705H29.9088V61.615H30.3138V61.093H30.7458V61.615H31.4298V61.9705H30.7458V63.262C30.7458 63.391 30.7773 63.49 30.8403 63.559C30.9063 63.628 30.9993 63.6625 31.1193 63.6625C31.2513 63.6625 31.3638 63.625 31.4568 63.55L31.5918 63.8605Z" fill="black"/>
<path d="M34.6636 63.8605C34.6006 63.9145 34.5226 63.9565 34.4296 63.9865C34.3366 64.0135 34.2406 64.027 34.1416 64.027C33.9016 64.027 33.7156 63.9625 33.5836 63.8335C33.4516 63.7045 33.3856 63.52 33.3856 63.28V61.9705H32.9806V61.615H33.3856V61.093H33.8176V61.615H34.5016V61.9705H33.8176V63.262C33.8176 63.391 33.8491 63.49 33.9121 63.559C33.9781 63.628 34.0711 63.6625 34.1911 63.6625C34.3231 63.6625 34.4356 63.625 34.5286 63.55L34.6636 63.8605Z" fill="black"/>
<path d="M36.4594 61.5925C36.7624 61.5925 37.0024 61.681 37.1794 61.858C37.3594 62.032 37.4494 62.2885 37.4494 62.6275V64H37.0174V62.677C37.0174 62.446 36.9619 62.272 36.8509 62.155C36.7399 62.038 36.5809 61.9795 36.3739 61.9795C36.1399 61.9795 35.9554 62.0485 35.8204 62.1865C35.6854 62.3215 35.6179 62.5165 35.6179 62.7715V64H35.1859V60.661H35.6179V61.9525C35.7079 61.8385 35.8249 61.75 35.9689 61.687C36.1159 61.624 36.2794 61.5925 36.4594 61.5925Z" fill="black"/>
<path d="M40.4175 62.821C40.4175 62.854 40.4145 62.8975 40.4085 62.9515H38.4735C38.5005 63.1615 38.592 63.331 38.748 63.46C38.907 63.586 39.1035 63.649 39.3375 63.649C39.6225 63.649 39.852 63.553 40.026 63.361L40.2645 63.64C40.1565 63.766 40.0215 63.862 39.8595 63.928C39.7005 63.994 39.522 64.027 39.324 64.027C39.072 64.027 38.8485 63.976 38.6535 63.874C38.4585 63.769 38.307 63.6235 38.199 63.4375C38.094 63.2515 38.0415 63.0415 38.0415 62.8075C38.0415 62.5765 38.0925 62.368 38.1945 62.182C38.2995 61.996 38.442 61.852 38.622 61.75C38.805 61.645 39.0105 61.5925 39.2385 61.5925C39.4665 61.5925 39.669 61.645 39.846 61.75C40.026 61.852 40.1655 61.996 40.2645 62.182C40.3665 62.368 40.4175 62.581 40.4175 62.821ZM39.2385 61.957C39.0315 61.957 38.8575 62.02 38.7165 62.146C38.5785 62.272 38.4975 62.437 38.4735 62.641H40.0035C39.9795 62.44 39.897 62.2765 39.756 62.1505C39.618 62.0215 39.4455 61.957 39.2385 61.957Z" fill="black"/>
<path d="M43.084 61.615L41.9275 64.2385C41.8255 64.4815 41.7055 64.6525 41.5675 64.7515C41.4325 64.8505 41.269 64.9 41.077 64.9C40.96 64.9 40.846 64.8805 40.735 64.8415C40.627 64.8055 40.537 64.7515 40.465 64.6795L40.6495 64.3555C40.7725 64.4725 40.915 64.531 41.077 64.531C41.182 64.531 41.269 64.5025 41.338 64.4455C41.41 64.3915 41.4745 64.297 41.5315 64.162L41.608 63.9955L40.555 61.615H41.005L41.8375 63.523L42.661 61.615H43.084Z" fill="black"/>
<path d="M46.9456 60.661V64H46.5316V63.622C46.4356 63.754 46.3141 63.8545 46.1671 63.9235C46.0201 63.9925 45.8581 64.027 45.6811 64.027C45.4501 64.027 45.2431 63.976 45.0601 63.874C44.8771 63.772 44.7331 63.6295 44.6281 63.4465C44.5261 63.2605 44.4751 63.0475 44.4751 62.8075C44.4751 62.5675 44.5261 62.356 44.6281 62.173C44.7331 61.99 44.8771 61.8475 45.0601 61.7455C45.2431 61.6435 45.4501 61.5925 45.6811 61.5925C45.8521 61.5925 46.0096 61.6255 46.1536 61.6915C46.2976 61.7545 46.4176 61.849 46.5136 61.975V60.661H46.9456ZM45.7171 63.649C45.8671 63.649 46.0036 63.6145 46.1266 63.5455C46.2496 63.4735 46.3456 63.3745 46.4146 63.2485C46.4836 63.1195 46.5181 62.9725 46.5181 62.8075C46.5181 62.6425 46.4836 62.497 46.4146 62.371C46.3456 62.242 46.2496 62.143 46.1266 62.074C46.0036 62.005 45.8671 61.9705 45.7171 61.9705C45.5641 61.9705 45.4261 62.005 45.3031 62.074C45.1831 62.143 45.0871 62.242 45.0151 62.371C44.9461 62.497 44.9116 62.6425 44.9116 62.8075C44.9116 62.9725 44.9461 63.1195 45.0151 63.2485C45.0871 63.3745 45.1831 63.4735 45.3031 63.5455C45.4261 63.6145 45.5641 63.649 45.7171 63.649Z" fill="black"/>
<path d="M48.7845 64.027C48.5475 64.027 48.3345 63.9745 48.1455 63.8695C47.9565 63.7645 47.808 63.6205 47.7 63.4375C47.595 63.2515 47.5425 63.0415 47.5425 62.8075C47.5425 62.5735 47.595 62.365 47.7 62.182C47.808 61.996 47.9565 61.852 48.1455 61.75C48.3345 61.645 48.5475 61.5925 48.7845 61.5925C49.0215 61.5925 49.233 61.645 49.419 61.75C49.608 61.852 49.755 61.996 49.86 62.182C49.968 62.365 50.022 62.5735 50.022 62.8075C50.022 63.0415 49.968 63.2515 49.86 63.4375C49.755 63.6205 49.608 63.7645 49.419 63.8695C49.233 63.9745 49.0215 64.027 48.7845 64.027ZM48.7845 63.649C48.9375 63.649 49.074 63.6145 49.194 63.5455C49.317 63.4735 49.413 63.3745 49.482 63.2485C49.551 63.1195 49.5855 62.9725 49.5855 62.8075C49.5855 62.6425 49.551 62.497 49.482 62.371C49.413 62.242 49.317 62.143 49.194 62.074C49.074 62.005 48.9375 61.9705 48.7845 61.9705C48.6315 61.9705 48.4935 62.005 48.3705 62.074C48.2505 62.143 48.1545 62.242 48.0825 62.371C48.0135 62.497 47.979 62.6425 47.979 62.8075C47.979 62.9725 48.0135 63.1195 48.0825 63.2485C48.1545 63.3745 48.2505 63.4735 48.3705 63.5455C48.4935 63.6145 48.6315 63.649 48.7845 63.649Z" fill="black"/>
<path d="M50.6702 64.027C50.5862 64.027 50.5142 63.9985 50.4542 63.9415C50.3942 63.8815 50.3642 63.8065 50.3642 63.7165C50.3642 63.6295 50.3942 63.5575 50.4542 63.5005C50.5142 63.4405 50.5862 63.4105 50.6702 63.4105C50.7542 63.4105 50.8247 63.439 50.8817 63.496C50.9387 63.553 50.9672 63.6265 50.9672 63.7165C50.9672 63.8065 50.9372 63.8815 50.8772 63.9415C50.8202 63.9985 50.7512 64.027 50.6702 64.027Z" fill="black"/>
<path d="M12.318 41.1765H10.038V40.35H15.5385V41.1765H13.2585V47H12.318V41.1765Z" fill="black"/>
<path d="M19.1287 41.9175C19.7684 41.9175 20.275 42.1043 20.6487 42.478C21.0287 42.8453 21.2187 43.3868 21.2187 44.1025V47H20.3067V44.207C20.3067 43.7193 20.1895 43.352 19.9552 43.105C19.7209 42.858 19.3852 42.7345 18.9482 42.7345C18.4542 42.7345 18.0647 42.8802 17.7797 43.1715C17.4947 43.4565 17.3522 43.8682 17.3522 44.4065V47H16.4402V39.951H17.3522V42.6775C17.5422 42.4368 17.7892 42.25 18.0932 42.117C18.4035 41.984 18.7487 41.9175 19.1287 41.9175Z" fill="black"/>
<path d="M22.9065 41.965H23.8185V47H22.9065V41.965ZM23.3625 40.996C23.1852 40.996 23.0364 40.939 22.916 40.825C22.802 40.711 22.745 40.5717 22.745 40.407C22.745 40.2423 22.802 40.103 22.916 39.989C23.0364 39.8687 23.1852 39.8085 23.3625 39.8085C23.5399 39.8085 23.6855 39.8655 23.7995 39.9795C23.9199 40.0872 23.98 40.2233 23.98 40.388C23.98 40.559 23.9199 40.7047 23.7995 40.825C23.6855 40.939 23.5399 40.996 23.3625 40.996Z" fill="black"/>
<path d="M27.0038 47.057C26.5922 47.057 26.1963 47.0032 25.8163 46.8955C25.4363 46.7815 25.1387 46.639 24.9233 46.468L25.3033 45.746C25.525 45.9043 25.7942 46.031 26.1108 46.126C26.4275 46.221 26.7473 46.2685 27.0703 46.2685C27.8683 46.2685 28.2673 46.0405 28.2673 45.5845C28.2673 45.4325 28.2135 45.3122 28.1058 45.2235C27.9982 45.1348 27.862 45.0715 27.6973 45.0335C27.539 44.9892 27.311 44.9417 27.0133 44.891C26.608 44.8277 26.2755 44.7548 26.0158 44.6725C25.7625 44.5902 25.544 44.4508 25.3603 44.2545C25.1767 44.0582 25.0848 43.7827 25.0848 43.428C25.0848 42.972 25.2748 42.6078 25.6548 42.3355C26.0348 42.0568 26.5447 41.9175 27.1843 41.9175C27.52 41.9175 27.8557 41.9587 28.1913 42.041C28.527 42.1233 28.8025 42.2342 29.0178 42.3735L28.6283 43.0955C28.2167 42.8295 27.7322 42.6965 27.1748 42.6965C26.7885 42.6965 26.494 42.7598 26.2913 42.8865C26.0887 43.0132 25.9873 43.181 25.9873 43.39C25.9873 43.5547 26.0443 43.6845 26.1583 43.7795C26.2723 43.8745 26.4117 43.9442 26.5763 43.9885C26.7473 44.0328 26.9848 44.0835 27.2888 44.1405C27.6942 44.2102 28.0203 44.2862 28.2673 44.3685C28.5207 44.4445 28.736 44.5775 28.9133 44.7675C29.0907 44.9575 29.1793 45.2235 29.1793 45.5655C29.1793 46.0215 28.983 46.3857 28.5903 46.658C28.204 46.924 27.6752 47.057 27.0038 47.057Z" fill="black"/>
<path d="M32.8704 41.965H33.7824V47H32.8704V41.965ZM33.3264 40.996C33.1491 40.996 33.0002 40.939 32.8799 40.825C32.7659 40.711 32.7089 40.5717 32.7089 40.407C32.7089 40.2423 32.7659 40.103 32.8799 39.989C33.0002 39.8687 33.1491 39.8085 33.3264 39.8085C33.5037 39.8085 33.6494 39.8655 33.7634 39.9795C33.8837 40.0872 33.9439 40.2233 33.9439 40.388C33.9439 40.559 33.8837 40.7047 33.7634 40.825C33.6494 40.939 33.5037 40.996 33.3264 40.996Z" fill="black"/>
<path d="M36.9677 47.057C36.556 47.057 36.1602 47.0032 35.7802 46.8955C35.4002 46.7815 35.1025 46.639 34.8872 46.468L35.2672 45.746C35.4889 45.9043 35.758 46.031 36.0747 46.126C36.3914 46.221 36.7112 46.2685 37.0342 46.2685C37.8322 46.2685 38.2312 46.0405 38.2312 45.5845C38.2312 45.4325 38.1774 45.3122 38.0697 45.2235C37.962 45.1348 37.8259 45.0715 37.6612 45.0335C37.5029 44.9892 37.2749 44.9417 36.9772 44.891C36.5719 44.8277 36.2394 44.7548 35.9797 44.6725C35.7264 44.5902 35.5079 44.4508 35.3242 44.2545C35.1405 44.0582 35.0487 43.7827 35.0487 43.428C35.0487 42.972 35.2387 42.6078 35.6187 42.3355C35.9987 42.0568 36.5085 41.9175 37.1482 41.9175C37.4839 41.9175 37.8195 41.9587 38.1552 42.041C38.4909 42.1233 38.7664 42.2342 38.9817 42.3735L38.5922 43.0955C38.1805 42.8295 37.696 42.6965 37.1387 42.6965C36.7524 42.6965 36.4579 42.7598 36.2552 42.8865C36.0525 43.0132 35.9512 43.181 35.9512 43.39C35.9512 43.5547 36.0082 43.6845 36.1222 43.7795C36.2362 43.8745 36.3755 43.9442 36.5402 43.9885C36.7112 44.0328 36.9487 44.0835 37.2527 44.1405C37.658 44.2102 37.9842 44.2862 38.2312 44.3685C38.4845 44.4445 38.6999 44.5775 38.8772 44.7675C39.0545 44.9575 39.1432 45.2235 39.1432 45.5655C39.1432 46.0215 38.9469 46.3857 38.5542 46.658C38.1679 46.924 37.639 47.057 36.9677 47.057Z" fill="black"/>
<path d="M44.6678 41.9175C45.3644 41.9175 45.8964 42.0885 46.2638 42.4305C46.6374 42.7725 46.8243 43.2823 46.8243 43.96V47H45.9598V46.335C45.8078 46.5693 45.5893 46.7498 45.3043 46.8765C45.0256 46.9968 44.6931 47.057 44.3068 47.057C43.7431 47.057 43.2903 46.9208 42.9483 46.6485C42.6126 46.3762 42.4448 46.0183 42.4448 45.575C42.4448 45.1317 42.6063 44.777 42.9293 44.511C43.2523 44.2387 43.7653 44.1025 44.4683 44.1025H45.9123V43.922C45.9123 43.5293 45.7983 43.2285 45.5703 43.0195C45.3423 42.8105 45.0066 42.706 44.5633 42.706C44.2656 42.706 43.9743 42.7567 43.6893 42.858C43.4043 42.953 43.1636 43.0828 42.9673 43.2475L42.5873 42.5635C42.8469 42.3545 43.1573 42.1962 43.5183 42.0885C43.8793 41.9745 44.2624 41.9175 44.6678 41.9175ZM44.4588 46.354C44.8071 46.354 45.1079 46.278 45.3613 46.126C45.6146 45.9677 45.7983 45.746 45.9123 45.461V44.758H44.5063C43.7336 44.758 43.3473 45.0177 43.3473 45.537C43.3473 45.7903 43.4454 45.9898 43.6418 46.1355C43.8381 46.2812 44.1104 46.354 44.4588 46.354Z" fill="black"/>
<path d="M53.7518 41.9175C54.3914 41.9175 54.8981 42.1043 55.2718 42.478C55.6518 42.8453 55.8418 43.3868 55.8418 44.1025V47H54.9298V44.207C54.9298 43.7193 54.8126 43.352 54.5783 43.105C54.3439 42.858 54.0083 42.7345 53.5713 42.7345C53.0773 42.7345 52.6878 42.8802 52.4028 43.1715C52.1178 43.4565 51.9753 43.8682 51.9753 44.4065V47H51.0633V39.951H51.9753V42.6775C52.1653 42.4368 52.4123 42.25 52.7163 42.117C53.0266 41.984 53.3718 41.9175 53.7518 41.9175Z" fill="black"/>
<path d="M62.1079 44.511C62.1079 44.5807 62.1016 44.6725 62.0889 44.7865H58.0039C58.0609 45.2298 58.2541 45.5877 58.5834 45.86C58.9191 46.126 59.3339 46.259 59.8279 46.259C60.4296 46.259 60.9141 46.0563 61.2814 45.651L61.7849 46.24C61.5569 46.506 61.2719 46.7087 60.9299 46.848C60.5942 46.9873 60.2174 47.057 59.7994 47.057C59.2674 47.057 58.7956 46.9493 58.3839 46.734C57.9722 46.5123 57.6524 46.2052 57.4244 45.8125C57.2027 45.4198 57.0919 44.9765 57.0919 44.4825C57.0919 43.9948 57.1996 43.5547 57.4149 43.162C57.6366 42.7693 57.9374 42.4653 58.3174 42.25C58.7037 42.0283 59.1376 41.9175 59.6189 41.9175C60.1002 41.9175 60.5277 42.0283 60.9014 42.25C61.2814 42.4653 61.5759 42.7693 61.7849 43.162C62.0002 43.5547 62.1079 44.0043 62.1079 44.511ZM59.6189 42.687C59.1819 42.687 58.8146 42.82 58.5169 43.086C58.2256 43.352 58.0546 43.7003 58.0039 44.131H61.2339C61.1832 43.7067 61.0091 43.3615 60.7114 43.0955C60.4201 42.8232 60.0559 42.687 59.6189 42.687Z" fill="black"/>
<path d="M65.0686 41.9175C65.7653 41.9175 66.2973 42.0885 66.6646 42.4305C67.0383 42.7725 67.2251 43.2823 67.2251 43.96V47H66.3606V46.335C66.2086 46.5693 65.9901 46.7498 65.7051 46.8765C65.4265 46.9968 65.094 47.057 64.7076 47.057C64.144 47.057 63.6911 46.9208 63.3491 46.6485C63.0135 46.3762 62.8456 46.0183 62.8456 45.575C62.8456 45.1317 63.0071 44.777 63.3301 44.511C63.6531 44.2387 64.1661 44.1025 64.8691 44.1025H66.3131V43.922C66.3131 43.5293 66.1991 43.2285 65.9711 43.0195C65.7431 42.8105 65.4075 42.706 64.9641 42.706C64.6665 42.706 64.3751 42.7567 64.0901 42.858C63.8051 42.953 63.5645 43.0828 63.3681 43.2475L62.9881 42.5635C63.2478 42.3545 63.5581 42.1962 63.9191 42.0885C64.2801 41.9745 64.6633 41.9175 65.0686 41.9175ZM64.8596 46.354C65.208 46.354 65.5088 46.278 65.7621 46.126C66.0155 45.9677 66.1991 45.746 66.3131 45.461V44.758H64.9071C64.1345 44.758 63.7481 45.0177 63.7481 45.537C63.7481 45.7903 63.8463 45.9898 64.0426 46.1355C64.239 46.2812 64.5113 46.354 64.8596 46.354Z" fill="black"/>
<path d="M73.6907 39.951V47H72.8167V46.202C72.614 46.4807 72.3575 46.6928 72.0472 46.8385C71.7369 46.9842 71.3949 47.057 71.0212 47.057C70.5335 47.057 70.0965 46.9493 69.7102 46.734C69.3239 46.5187 69.0199 46.2178 68.7982 45.8315C68.5829 45.4388 68.4752 44.9892 68.4752 44.4825C68.4752 43.9758 68.5829 43.5293 68.7982 43.143C69.0199 42.7567 69.3239 42.4558 69.7102 42.2405C70.0965 42.0252 70.5335 41.9175 71.0212 41.9175C71.3822 41.9175 71.7147 41.9872 72.0187 42.1265C72.3227 42.2595 72.576 42.459 72.7787 42.725V39.951H73.6907ZM71.0972 46.259C71.4139 46.259 71.702 46.1862 71.9617 46.0405C72.2214 45.8885 72.424 45.6795 72.5697 45.4135C72.7154 45.1412 72.7882 44.8308 72.7882 44.4825C72.7882 44.1342 72.7154 43.827 72.5697 43.561C72.424 43.2887 72.2214 43.0797 71.9617 42.934C71.702 42.7883 71.4139 42.7155 71.0972 42.7155C70.7742 42.7155 70.4829 42.7883 70.2232 42.934C69.9699 43.0797 69.7672 43.2887 69.6152 43.561C69.4695 43.827 69.3967 44.1342 69.3967 44.4825C69.3967 44.8308 69.4695 45.1412 69.6152 45.4135C69.7672 45.6795 69.9699 45.8885 70.2232 46.0405C70.4829 46.1862 70.7742 46.259 71.0972 46.259Z" fill="black"/>
<path d="M75.4163 39.951H76.3283V47H75.4163V39.951Z" fill="black"/>
<path d="M78.0696 41.965H78.9816V47H78.0696V41.965ZM78.5256 40.996C78.3483 40.996 78.1994 40.939 78.0791 40.825C77.9651 40.711 77.9081 40.5717 77.9081 40.407C77.9081 40.2423 77.9651 40.103 78.0791 39.989C78.1994 39.8687 78.3483 39.8085 78.5256 39.8085C78.7029 39.8085 78.8486 39.8655 78.9626 39.9795C79.0829 40.0872 79.1431 40.2233 79.1431 40.388C79.1431 40.559 79.0829 40.7047 78.9626 40.825C78.8486 40.939 78.7029 40.996 78.5256 40.996Z" fill="black"/>
<path d="M83.4114 41.9175C84.0511 41.9175 84.5578 42.1043 84.9314 42.478C85.3114 42.8453 85.5014 43.3868 85.5014 44.1025V47H84.5894V44.207C84.5894 43.7193 84.4723 43.352 84.2379 43.105C84.0036 42.858 83.6679 42.7345 83.2309 42.7345C82.7369 42.7345 82.3474 42.8802 82.0624 43.1715C81.7774 43.4565 81.6349 43.8682 81.6349 44.4065V47H80.7229V41.965H81.5969V42.725C81.7806 42.4653 82.0276 42.2658 82.3379 42.1265C82.6546 41.9872 83.0124 41.9175 83.4114 41.9175Z" fill="black"/>
<path d="M91.7676 44.511C91.7676 44.5807 91.7612 44.6725 91.7486 44.7865H87.6636C87.7206 45.2298 87.9137 45.5877 88.2431 45.86C88.5787 46.126 88.9936 46.259 89.4876 46.259C90.0892 46.259 90.5737 46.0563 90.9411 45.651L91.4446 46.24C91.2166 46.506 90.9316 46.7087 90.5896 46.848C90.2539 46.9873 89.8771 47.057 89.4591 47.057C88.9271 47.057 88.4552 46.9493 88.0436 46.734C87.6319 46.5123 87.3121 46.2052 87.0841 45.8125C86.8624 45.4198 86.7516 44.9765 86.7516 44.4825C86.7516 43.9948 86.8592 43.5547 87.0746 43.162C87.2962 42.7693 87.5971 42.4653 87.9771 42.25C88.3634 42.0283 88.7972 41.9175 89.2786 41.9175C89.7599 41.9175 90.1874 42.0283 90.5611 42.25C90.9411 42.4653 91.2356 42.7693 91.4446 43.162C91.6599 43.5547 91.7676 44.0043 91.7676 44.511ZM89.2786 42.687C88.8416 42.687 88.4742 42.82 88.1766 43.086C87.8852 43.352 87.7142 43.7003 87.6636 44.131H90.8936C90.8429 43.7067 90.6687 43.3615 90.3711 43.0955C90.0797 42.8232 89.7156 42.687 89.2786 42.687Z" fill="black"/>
<path d="M93.2525 47.057C93.0751 47.057 92.9231 46.9968 92.7965 46.8765C92.6698 46.7498 92.6065 46.5915 92.6065 46.4015C92.6065 46.2178 92.6698 46.0658 92.7965 45.9455C92.9231 45.8188 93.0751 45.7555 93.2525 45.7555C93.4298 45.7555 93.5786 45.8157 93.699 45.936C93.8193 46.0563 93.8795 46.2115 93.8795 46.4015C93.8795 46.5915 93.8161 46.7498 93.6895 46.8765C93.5691 46.9968 93.4235 47.057 93.2525 47.057Z" fill="black"/>
<rect x="11.6984" y="73" width="31.6032" height="9.828" rx="1" fill="black"/>
<path d="M17.6824 77.844C17.8371 77.8947 17.9598 77.98 18.0504 78.1C18.1411 78.2173 18.1864 78.364 18.1864 78.54C18.1864 78.7827 18.0931 78.9707 17.9064 79.104C17.7198 79.2347 17.4478 79.3 17.0904 79.3H15.6984V76.5H17.0104C17.3411 76.5 17.5958 76.5653 17.7744 76.696C17.9531 76.824 18.0424 77.0013 18.0424 77.228C18.0424 77.3667 18.0104 77.4893 17.9464 77.596C17.8824 77.7027 17.7944 77.7853 17.6824 77.844ZM16.2184 76.908V77.68H16.9544C17.1358 77.68 17.2744 77.648 17.3704 77.584C17.4691 77.5173 17.5184 77.4213 17.5184 77.296C17.5184 77.168 17.4691 77.072 17.3704 77.008C17.2744 76.9413 17.1358 76.908 16.9544 76.908H16.2184ZM17.0584 78.892C17.4611 78.892 17.6624 78.7573 17.6624 78.488C17.6624 78.2187 17.4611 78.084 17.0584 78.084H16.2184V78.892H17.0584Z" fill="white"/>
<path d="M20.7614 77.164V79.3H20.2854V79.028C20.2054 79.124 20.1054 79.1987 19.9854 79.252C19.8654 79.3027 19.7361 79.328 19.5974 79.328C19.3121 79.328 19.0867 79.2493 18.9214 79.092C18.7587 78.932 18.6774 78.696 18.6774 78.384V77.164H19.1774V78.316C19.1774 78.508 19.2201 78.652 19.3054 78.748C19.3934 78.8413 19.5174 78.888 19.6774 78.888C19.8561 78.888 19.9974 78.8333 20.1014 78.724C20.2081 78.612 20.2614 78.452 20.2614 78.244V77.164H20.7614Z" fill="white"/>
<path d="M22.7001 79.184C22.6414 79.232 22.5694 79.268 22.4841 79.292C22.4014 79.316 22.3134 79.328 22.2201 79.328C21.9854 79.328 21.8041 79.2667 21.6761 79.144C21.5481 79.0213 21.4841 78.8427 21.4841 78.608V77.58H21.1321V77.18H21.4841V76.692H21.9841V77.18H22.5561V77.58H21.9841V78.596C21.9841 78.7 22.0094 78.78 22.0601 78.836C22.1107 78.8893 22.1841 78.916 22.2801 78.916C22.3921 78.916 22.4854 78.8867 22.5601 78.828L22.7001 79.184Z" fill="white"/>
<path d="M24.3446 79.184C24.2859 79.232 24.2139 79.268 24.1286 79.292C24.0459 79.316 23.9579 79.328 23.8646 79.328C23.6299 79.328 23.4486 79.2667 23.3206 79.144C23.1926 79.0213 23.1286 78.8427 23.1286 78.608V77.58H22.7766V77.18H23.1286V76.692H23.6286V77.18H24.2006V77.58H23.6286V78.596C23.6286 78.7 23.6539 78.78 23.7046 78.836C23.7552 78.8893 23.8286 78.916 23.9246 78.916C24.0366 78.916 24.1299 78.8867 24.2046 78.828L24.3446 79.184Z" fill="white"/>
<path d="M25.6456 79.328C25.4296 79.328 25.2349 79.2813 25.0616 79.188C24.8882 79.0947 24.7522 78.9653 24.6536 78.8C24.5576 78.632 24.5096 78.4427 24.5096 78.232C24.5096 78.0213 24.5576 77.8333 24.6536 77.668C24.7522 77.5027 24.8882 77.3733 25.0616 77.28C25.2349 77.1867 25.4296 77.14 25.6456 77.14C25.8642 77.14 26.0602 77.1867 26.2336 77.28C26.4069 77.3733 26.5416 77.5027 26.6376 77.668C26.7362 77.8333 26.7856 78.0213 26.7856 78.232C26.7856 78.4427 26.7362 78.632 26.6376 78.8C26.5416 78.9653 26.4069 79.0947 26.2336 79.188C26.0602 79.2813 25.8642 79.328 25.6456 79.328ZM25.6456 78.9C25.8296 78.9 25.9816 78.8387 26.1016 78.716C26.2216 78.5933 26.2816 78.432 26.2816 78.232C26.2816 78.032 26.2216 77.8707 26.1016 77.748C25.9816 77.6253 25.8296 77.564 25.6456 77.564C25.4616 77.564 25.3096 77.6253 25.1896 77.748C25.0722 77.8707 25.0136 78.032 25.0136 78.232C25.0136 78.432 25.0722 78.5933 25.1896 78.716C25.3096 78.8387 25.4616 78.9 25.6456 78.9Z" fill="white"/>
<path d="M28.4757 77.14C28.745 77.14 28.961 77.2187 29.1237 77.376C29.2864 77.5333 29.3677 77.7667 29.3677 78.076V79.3H28.8677V78.14C28.8677 77.9533 28.8237 77.8133 28.7357 77.72C28.6477 77.624 28.5224 77.576 28.3597 77.576C28.1757 77.576 28.0304 77.632 27.9237 77.744C27.817 77.8533 27.7637 78.012 27.7637 78.22V79.3H27.2637V77.164H27.7397V77.44C27.8224 77.3413 27.9264 77.2667 28.0517 77.216C28.177 77.1653 28.3184 77.14 28.4757 77.14Z" fill="white"/>
<path d="M31.7235 76.94H30.7955V76.5H33.1715V76.94H32.2435V79.3H31.7235V76.94Z" fill="white"/>
<path d="M35.303 78.244C35.303 78.2787 35.3003 78.328 35.295 78.392H33.619C33.6483 78.5493 33.7243 78.6747 33.847 78.768C33.9723 78.8587 34.127 78.904 34.311 78.904C34.5456 78.904 34.739 78.8267 34.891 78.672L35.159 78.98C35.063 79.0947 34.9416 79.1813 34.795 79.24C34.6483 79.2987 34.483 79.328 34.299 79.328C34.0643 79.328 33.8576 79.2813 33.679 79.188C33.5003 79.0947 33.3616 78.9653 33.263 78.8C33.167 78.632 33.119 78.4427 33.119 78.232C33.119 78.024 33.1656 77.8373 33.259 77.672C33.355 77.504 33.487 77.3733 33.655 77.28C33.823 77.1867 34.0123 77.14 34.223 77.14C34.431 77.14 34.6163 77.1867 34.779 77.28C34.9443 77.3707 35.0723 77.5 35.163 77.668C35.2563 77.8333 35.303 78.0253 35.303 78.244ZM34.223 77.54C34.063 77.54 33.927 77.588 33.815 77.684C33.7056 77.7773 33.639 77.9027 33.615 78.06H34.827C34.8056 77.9053 34.7403 77.78 34.631 77.684C34.5216 77.588 34.3856 77.54 34.223 77.54Z" fill="white"/>
<path d="M37.0846 79.3L36.5366 78.56L35.9846 79.3H35.4326L36.2646 78.216L35.4686 77.164H36.0246L36.5486 77.864L37.0726 77.164H37.6126L36.8126 78.208L37.6486 79.3H37.0846Z" fill="white"/>
<path d="M39.3016 79.184C39.2429 79.232 39.1709 79.268 39.0856 79.292C39.0029 79.316 38.9149 79.328 38.8216 79.328C38.5869 79.328 38.4056 79.2667 38.2776 79.144C38.1496 79.0213 38.0856 78.8427 38.0856 78.608V77.58H37.7336V77.18H38.0856V76.692H38.5856V77.18H39.1576V77.58H38.5856V78.596C38.5856 78.7 38.6109 78.78 38.6616 78.836C38.7123 78.8893 38.7856 78.916 38.8816 78.916C38.9936 78.916 39.0869 78.8867 39.1616 78.828L39.3016 79.184Z" fill="white"/>
<g clip-path="url(#clip0)">
<path d="M113 33H194V87H113V33Z" fill="#A1A8C2" fill-opacity="0.18"/>
<path d="M171.5 46.275C171.5 50.6242 167.974 54.15 163.625 54.15C159.276 54.15 155.75 50.6242 155.75 46.275C155.75 41.9258 159.276 38.4 163.625 38.4C167.974 38.4 171.5 41.9258 171.5 46.275Z" fill="#A1A8C2" fill-opacity="0.25"/>
<path fill-rule="evenodd" clip-rule="evenodd" d="M184.775 89.25H206.825L178.584 61.0092C177.53 59.9548 175.82 59.9548 174.766 61.0092L165.65 70.125L184.775 89.25Z" fill="#A1A8C2" fill-opacity="0.25"/>
<path d="M182.975 89.25H92.975L136.066 46.1592C137.12 45.1048 138.83 45.1048 139.884 46.1592L182.975 89.25Z" fill="#A1A8C2" fill-opacity="0.25"/>
</g>
<defs>
<clipPath id="clip0">
<path d="M113 33H194V87H113V33Z" fill="white"/>
</clipPath>
</defs>
</svg>
