<svg width="20" height="20" xmlns="http://www.w3.org/2000/svg"><path fill-rule="evenodd" clip-rule="evenodd" d="M3 0a3 3 0 00-3 3v7a3 3 0 003 3h14a3 3 0 003-3V3a3 3 0 00-3-3H3zM2 3a1 1 0 011-1h14a1 1 0 011 1v5l-2.586-2.586a2 2 0 00-2.828 0L9.06 8.94a1.5 1.5 0 01-2.122 0l-.525-.525a2 2 0 00-2.828 0L2 10V3z"/><circle opacity=".5" cx="7" cy="5" r="2"/><path opacity=".4" fill-rule="evenodd" clip-rule="evenodd" d="M11 15.5a.5.5 0 01.5-.5h8a.5.5 0 010 1h-8a.5.5 0 01-.5-.5zm0 2a.5.5 0 01.5-.5h8a.5.5 0 010 1h-8a.5.5 0 01-.5-.5zm.5 1.5a.5.5 0 000 1h8a.5.5 0 000-1h-8z"/><rect y="15" width="9" height="5" rx="1.5"/></svg>