<svg width="204" height="40" viewBox="0 0 204 40" fill="none" xmlns="http://www.w3.org/2000/svg">
<rect width="204" height="40" fill="white"/>
<path d="M10.976 23.548H10.016V23.2H12.332V23.548H11.372V26H10.976V23.548Z" fill="black"/>
<path d="M13.8436 23.86C14.113 23.86 14.3263 23.9387 14.4836 24.096C14.6436 24.2507 14.7236 24.4787 14.7236 24.78V26H14.3396V24.824C14.3396 24.6187 14.2903 24.464 14.1916 24.36C14.093 24.256 13.9516 24.204 13.7676 24.204C13.5596 24.204 13.3956 24.2653 13.2756 24.388C13.1556 24.508 13.0956 24.6813 13.0956 24.908V26H12.7116V23.032H13.0956V24.18C13.1756 24.0787 13.2796 24 13.4076 23.944C13.5383 23.888 13.6836 23.86 13.8436 23.86Z" fill="black"/>
<path d="M15.4343 23.88H15.8183V26H15.4343V23.88ZM15.6263 23.472C15.5516 23.472 15.489 23.448 15.4383 23.4C15.3903 23.352 15.3663 23.2933 15.3663 23.224C15.3663 23.1547 15.3903 23.096 15.4383 23.048C15.489 22.9973 15.5516 22.972 15.6263 22.972C15.701 22.972 15.7623 22.996 15.8103 23.044C15.861 23.0893 15.8863 23.1467 15.8863 23.216C15.8863 23.288 15.861 23.3493 15.8103 23.4C15.7623 23.448 15.701 23.472 15.6263 23.472Z" fill="black"/>
<path d="M17.1595 26.024C16.9862 26.024 16.8195 26.0013 16.6595 25.956C16.4995 25.908 16.3742 25.848 16.2835 25.776L16.4435 25.472C16.5368 25.5387 16.6502 25.592 16.7835 25.632C16.9168 25.672 17.0515 25.692 17.1875 25.692C17.5235 25.692 17.6915 25.596 17.6915 25.404C17.6915 25.34 17.6688 25.2893 17.6235 25.252C17.5782 25.2147 17.5208 25.188 17.4515 25.172C17.3848 25.1533 17.2888 25.1333 17.1635 25.112C16.9928 25.0853 16.8528 25.0547 16.7435 25.02C16.6368 24.9853 16.5448 24.9267 16.4675 24.844C16.3902 24.7613 16.3515 24.6453 16.3515 24.496C16.3515 24.304 16.4315 24.1507 16.5915 24.036C16.7515 23.9187 16.9662 23.86 17.2355 23.86C17.3768 23.86 17.5182 23.8773 17.6595 23.912C17.8008 23.9467 17.9168 23.9933 18.0075 24.052L17.8435 24.356C17.6702 24.244 17.4662 24.188 17.2315 24.188C17.0688 24.188 16.9448 24.2147 16.8595 24.268C16.7742 24.3213 16.7315 24.392 16.7315 24.48C16.7315 24.5493 16.7555 24.604 16.8035 24.644C16.8515 24.684 16.9102 24.7133 16.9795 24.732C17.0515 24.7507 17.1515 24.772 17.2795 24.796C17.4502 24.8253 17.5875 24.8573 17.6915 24.892C17.7982 24.924 17.8888 24.98 17.9635 25.06C18.0382 25.14 18.0755 25.252 18.0755 25.396C18.0755 25.588 17.9928 25.7413 17.8275 25.856C17.6648 25.968 17.4422 26.024 17.1595 26.024Z" fill="black"/>
<path d="M19.6296 23.88H20.0136V26H19.6296V23.88ZM19.8216 23.472C19.7469 23.472 19.6843 23.448 19.6336 23.4C19.5856 23.352 19.5616 23.2933 19.5616 23.224C19.5616 23.1547 19.5856 23.096 19.6336 23.048C19.6843 22.9973 19.7469 22.972 19.8216 22.972C19.8963 22.972 19.9576 22.996 20.0056 23.044C20.0563 23.0893 20.0816 23.1467 20.0816 23.216C20.0816 23.288 20.0563 23.3493 20.0056 23.4C19.9576 23.448 19.8963 23.472 19.8216 23.472Z" fill="black"/>
<path d="M21.3548 26.024C21.1815 26.024 21.0148 26.0013 20.8548 25.956C20.6948 25.908 20.5695 25.848 20.4788 25.776L20.6388 25.472C20.7321 25.5387 20.8455 25.592 20.9788 25.632C21.1121 25.672 21.2468 25.692 21.3828 25.692C21.7188 25.692 21.8868 25.596 21.8868 25.404C21.8868 25.34 21.8641 25.2893 21.8188 25.252C21.7735 25.2147 21.7161 25.188 21.6468 25.172C21.5801 25.1533 21.4841 25.1333 21.3588 25.112C21.1881 25.0853 21.0481 25.0547 20.9388 25.02C20.8321 24.9853 20.7401 24.9267 20.6628 24.844C20.5855 24.7613 20.5468 24.6453 20.5468 24.496C20.5468 24.304 20.6268 24.1507 20.7868 24.036C20.9468 23.9187 21.1615 23.86 21.4308 23.86C21.5721 23.86 21.7135 23.8773 21.8548 23.912C21.9961 23.9467 22.1121 23.9933 22.2028 24.052L22.0388 24.356C21.8655 24.244 21.6615 24.188 21.4268 24.188C21.2641 24.188 21.1401 24.2147 21.0548 24.268C20.9695 24.3213 20.9268 24.392 20.9268 24.48C20.9268 24.5493 20.9508 24.604 20.9988 24.644C21.0468 24.684 21.1055 24.7133 21.1748 24.732C21.2468 24.7507 21.3468 24.772 21.4748 24.796C21.6455 24.8253 21.7828 24.8573 21.8868 24.892C21.9935 24.924 22.0841 24.98 22.1588 25.06C22.2335 25.14 22.2708 25.252 22.2708 25.396C22.2708 25.588 22.1881 25.7413 22.0228 25.856C21.8601 25.968 21.6375 26.024 21.3548 26.024Z" fill="black"/>
<path d="M24.5969 23.86C24.8903 23.86 25.1143 23.932 25.2689 24.076C25.4263 24.22 25.5049 24.4347 25.5049 24.72V26H25.1409V25.72C25.0769 25.8187 24.9849 25.8947 24.8649 25.948C24.7476 25.9987 24.6076 26.024 24.4449 26.024C24.2076 26.024 24.0169 25.9667 23.8729 25.852C23.7316 25.7373 23.6609 25.5867 23.6609 25.4C23.6609 25.2133 23.7289 25.064 23.8649 24.952C24.0009 24.8373 24.2169 24.78 24.5129 24.78H25.1209V24.704C25.1209 24.5387 25.0729 24.412 24.9769 24.324C24.8809 24.236 24.7396 24.192 24.5529 24.192C24.4276 24.192 24.3049 24.2133 24.1849 24.256C24.0649 24.296 23.9636 24.3507 23.8809 24.42L23.7209 24.132C23.8303 24.044 23.9609 23.9773 24.1129 23.932C24.2649 23.884 24.4263 23.86 24.5969 23.86ZM24.5089 25.728C24.6556 25.728 24.7823 25.696 24.8889 25.632C24.9956 25.5653 25.0729 25.472 25.1209 25.352V25.056H24.5289C24.2036 25.056 24.0409 25.1653 24.0409 25.384C24.0409 25.4907 24.0823 25.5747 24.1649 25.636C24.2476 25.6973 24.3623 25.728 24.5089 25.728Z" fill="black"/>
<path d="M27.8978 26.024C27.7244 26.024 27.5578 26.0013 27.3978 25.956C27.2378 25.908 27.1124 25.848 27.0218 25.776L27.1818 25.472C27.2751 25.5387 27.3884 25.592 27.5218 25.632C27.6551 25.672 27.7898 25.692 27.9258 25.692C28.2618 25.692 28.4298 25.596 28.4298 25.404C28.4298 25.34 28.4071 25.2893 28.3618 25.252C28.3164 25.2147 28.2591 25.188 28.1898 25.172C28.1231 25.1533 28.0271 25.1333 27.9018 25.112C27.7311 25.0853 27.5911 25.0547 27.4818 25.02C27.3751 24.9853 27.2831 24.9267 27.2058 24.844C27.1284 24.7613 27.0898 24.6453 27.0898 24.496C27.0898 24.304 27.1698 24.1507 27.3298 24.036C27.4898 23.9187 27.7044 23.86 27.9738 23.86C28.1151 23.86 28.2564 23.8773 28.3978 23.912C28.5391 23.9467 28.6551 23.9933 28.7458 24.052L28.5818 24.356C28.4084 24.244 28.2044 24.188 27.9698 24.188C27.8071 24.188 27.6831 24.2147 27.5978 24.268C27.5124 24.3213 27.4698 24.392 27.4698 24.48C27.4698 24.5493 27.4938 24.604 27.5418 24.644C27.5898 24.684 27.6484 24.7133 27.7178 24.732C27.7898 24.7507 27.8898 24.772 28.0178 24.796C28.1884 24.8253 28.3258 24.8573 28.4298 24.892C28.5364 24.924 28.6271 24.98 28.7018 25.06C28.7764 25.14 28.8138 25.252 28.8138 25.396C28.8138 25.588 28.7311 25.7413 28.5658 25.856C28.4031 25.968 28.1804 26.024 27.8978 26.024Z" fill="black"/>
<path d="M31.2697 23.88V26H30.9057V25.68C30.8283 25.7893 30.7257 25.8747 30.5977 25.936C30.4723 25.9947 30.335 26.024 30.1857 26.024C29.903 26.024 29.6803 25.9467 29.5177 25.792C29.355 25.6347 29.2737 25.404 29.2737 25.1V23.88H29.6577V25.056C29.6577 25.2613 29.707 25.4173 29.8057 25.524C29.9043 25.628 30.0457 25.68 30.2297 25.68C30.4323 25.68 30.5923 25.6187 30.7097 25.496C30.827 25.3733 30.8857 25.2 30.8857 24.976V23.88H31.2697Z" fill="black"/>
<path d="M33.1247 23.86C33.33 23.86 33.514 23.9053 33.6767 23.996C33.8394 24.0867 33.966 24.2133 34.0567 24.376C34.15 24.5387 34.1967 24.7267 34.1967 24.94C34.1967 25.1533 34.15 25.3427 34.0567 25.508C33.966 25.6707 33.8394 25.7973 33.6767 25.888C33.514 25.9787 33.33 26.024 33.1247 26.024C32.9674 26.024 32.8234 25.9933 32.6927 25.932C32.562 25.8707 32.454 25.7813 32.3687 25.664V26H32.0007V23.032H32.3847V24.2C32.47 24.088 32.5767 24.004 32.7047 23.948C32.8327 23.8893 32.9727 23.86 33.1247 23.86ZM33.0927 25.688C33.2287 25.688 33.35 25.6573 33.4567 25.596C33.566 25.532 33.6514 25.444 33.7127 25.332C33.7767 25.2173 33.8087 25.0867 33.8087 24.94C33.8087 24.7933 33.7767 24.664 33.7127 24.552C33.6514 24.4373 33.566 24.3493 33.4567 24.288C33.35 24.2267 33.2287 24.196 33.0927 24.196C32.9594 24.196 32.838 24.2267 32.7287 24.288C32.6194 24.3493 32.534 24.4373 32.4727 24.552C32.4114 24.664 32.3807 24.7933 32.3807 24.94C32.3807 25.0867 32.4114 25.2173 32.4727 25.332C32.534 25.444 32.6194 25.532 32.7287 25.596C32.838 25.6573 32.9594 25.688 33.0927 25.688Z" fill="black"/>
<path d="M35.8593 23.86C36.1286 23.86 36.3419 23.9387 36.4993 24.096C36.6593 24.2507 36.7393 24.4787 36.7393 24.78V26H36.3553V24.824C36.3553 24.6187 36.3059 24.464 36.2073 24.36C36.1086 24.256 35.9673 24.204 35.7833 24.204C35.5753 24.204 35.4113 24.2653 35.2913 24.388C35.1713 24.508 35.1113 24.6813 35.1113 24.908V26H34.7273V23.032H35.1113V24.18C35.1913 24.0787 35.2953 24 35.4233 23.944C35.5539 23.888 35.6993 23.86 35.8593 23.86Z" fill="black"/>
<path d="M39.3776 24.952C39.3776 24.9813 39.375 25.02 39.3696 25.068H37.6496C37.6736 25.2547 37.755 25.4053 37.8936 25.52C38.035 25.632 38.2096 25.688 38.4176 25.688C38.671 25.688 38.875 25.6027 39.0296 25.432L39.2416 25.68C39.1456 25.792 39.0256 25.8773 38.8816 25.936C38.7403 25.9947 38.5816 26.024 38.4056 26.024C38.1816 26.024 37.983 25.9787 37.8096 25.888C37.6363 25.7947 37.5016 25.6653 37.4056 25.5C37.3123 25.3347 37.2656 25.148 37.2656 24.94C37.2656 24.7347 37.311 24.5493 37.4016 24.384C37.495 24.2187 37.6216 24.0907 37.7816 24C37.9443 23.9067 38.127 23.86 38.3296 23.86C38.5323 23.86 38.7123 23.9067 38.8696 24C39.0296 24.0907 39.1536 24.2187 39.2416 24.384C39.3323 24.5493 39.3776 24.7387 39.3776 24.952ZM38.3296 24.184C38.1456 24.184 37.991 24.24 37.8656 24.352C37.743 24.464 37.671 24.6107 37.6496 24.792H39.0096C38.9883 24.6133 38.915 24.468 38.7896 24.356C38.667 24.2413 38.5136 24.184 38.3296 24.184Z" fill="black"/>
<path d="M40.6243 23.86C40.9176 23.86 41.1416 23.932 41.2963 24.076C41.4536 24.22 41.5323 24.4347 41.5323 24.72V26H41.1683V25.72C41.1043 25.8187 41.0123 25.8947 40.8923 25.948C40.7749 25.9987 40.6349 26.024 40.4723 26.024C40.2349 26.024 40.0443 25.9667 39.9003 25.852C39.7589 25.7373 39.6883 25.5867 39.6883 25.4C39.6883 25.2133 39.7563 25.064 39.8923 24.952C40.0283 24.8373 40.2443 24.78 40.5403 24.78H41.1483V24.704C41.1483 24.5387 41.1003 24.412 41.0043 24.324C40.9083 24.236 40.7669 24.192 40.5803 24.192C40.4549 24.192 40.3323 24.2133 40.2123 24.256C40.0923 24.296 39.9909 24.3507 39.9083 24.42L39.7483 24.132C39.8576 24.044 39.9883 23.9773 40.1403 23.932C40.2923 23.884 40.4536 23.86 40.6243 23.86ZM40.5363 25.728C40.6829 25.728 40.8096 25.696 40.9163 25.632C41.0229 25.5653 41.1003 25.472 41.1483 25.352V25.056H40.5563C40.2309 25.056 40.0683 25.1653 40.0683 25.384C40.0683 25.4907 40.1096 25.5747 40.1923 25.636C40.2749 25.6973 40.3896 25.728 40.5363 25.728Z" fill="black"/>
<path d="M44.2546 23.032V26H43.8866V25.664C43.8013 25.7813 43.6933 25.8707 43.5626 25.932C43.432 25.9933 43.288 26.024 43.1306 26.024C42.9253 26.024 42.7413 25.9787 42.5786 25.888C42.416 25.7973 42.288 25.6707 42.1946 25.508C42.104 25.3427 42.0586 25.1533 42.0586 24.94C42.0586 24.7267 42.104 24.5387 42.1946 24.376C42.288 24.2133 42.416 24.0867 42.5786 23.996C42.7413 23.9053 42.9253 23.86 43.1306 23.86C43.2826 23.86 43.4226 23.8893 43.5506 23.948C43.6786 24.004 43.7853 24.088 43.8706 24.2V23.032H44.2546ZM43.1626 25.688C43.296 25.688 43.4173 25.6573 43.5266 25.596C43.636 25.532 43.7213 25.444 43.7826 25.332C43.8439 25.2173 43.8746 25.0867 43.8746 24.94C43.8746 24.7933 43.8439 24.664 43.7826 24.552C43.7213 24.4373 43.636 24.3493 43.5266 24.288C43.4173 24.2267 43.296 24.196 43.1626 24.196C43.0266 24.196 42.904 24.2267 42.7946 24.288C42.688 24.3493 42.6026 24.4373 42.5386 24.552C42.4773 24.664 42.4466 24.7933 42.4466 24.94C42.4466 25.0867 42.4773 25.2173 42.5386 25.332C42.6026 25.444 42.688 25.532 42.7946 25.596C42.904 25.6573 43.0266 25.688 43.1626 25.688Z" fill="black"/>
<path d="M46.8972 24.952C46.8972 24.9813 46.8945 25.02 46.8892 25.068H45.1692C45.1932 25.2547 45.2745 25.4053 45.4132 25.52C45.5545 25.632 45.7292 25.688 45.9372 25.688C46.1905 25.688 46.3945 25.6027 46.5492 25.432L46.7612 25.68C46.6652 25.792 46.5452 25.8773 46.4012 25.936C46.2598 25.9947 46.1012 26.024 45.9252 26.024C45.7012 26.024 45.5025 25.9787 45.3292 25.888C45.1558 25.7947 45.0212 25.6653 44.9252 25.5C44.8318 25.3347 44.7852 25.148 44.7852 24.94C44.7852 24.7347 44.8305 24.5493 44.9212 24.384C45.0145 24.2187 45.1412 24.0907 45.3012 24C45.4638 23.9067 45.6465 23.86 45.8492 23.86C46.0518 23.86 46.2318 23.9067 46.3892 24C46.5492 24.0907 46.6732 24.2187 46.7612 24.384C46.8518 24.5493 46.8972 24.7387 46.8972 24.952ZM45.8492 24.184C45.6652 24.184 45.5105 24.24 45.3852 24.352C45.2625 24.464 45.1905 24.6107 45.1692 24.792H46.5292C46.5078 24.6133 46.4345 24.468 46.3092 24.356C46.1865 24.2413 46.0332 24.184 45.8492 24.184Z" fill="black"/>
<path d="M47.7984 24.236C47.8651 24.1133 47.9637 24.02 48.0944 23.956C48.2251 23.892 48.3837 23.86 48.5704 23.86V24.232C48.5491 24.2293 48.5197 24.228 48.4824 24.228C48.2744 24.228 48.1104 24.2907 47.9904 24.416C47.8731 24.5387 47.8144 24.7147 47.8144 24.944V26H47.4304V23.88H47.7984V24.236Z" fill="black"/>
<path d="M50.9172 23.86C51.2106 23.86 51.4346 23.932 51.5892 24.076C51.7466 24.22 51.8252 24.4347 51.8252 24.72V26H51.4612V25.72C51.3972 25.8187 51.3052 25.8947 51.1852 25.948C51.0679 25.9987 50.9279 26.024 50.7652 26.024C50.5279 26.024 50.3372 25.9667 50.1932 25.852C50.0519 25.7373 49.9812 25.5867 49.9812 25.4C49.9812 25.2133 50.0492 25.064 50.1852 24.952C50.3212 24.8373 50.5372 24.78 50.8332 24.78H51.4412V24.704C51.4412 24.5387 51.3932 24.412 51.2972 24.324C51.2012 24.236 51.0599 24.192 50.8732 24.192C50.7479 24.192 50.6252 24.2133 50.5052 24.256C50.3852 24.296 50.2839 24.3507 50.2012 24.42L50.0412 24.132C50.1506 24.044 50.2812 23.9773 50.4332 23.932C50.5852 23.884 50.7466 23.86 50.9172 23.86ZM50.8292 25.728C50.9759 25.728 51.1026 25.696 51.2092 25.632C51.3159 25.5653 51.3932 25.472 51.4412 25.352V25.056H50.8492C50.5239 25.056 50.3612 25.1653 50.3612 25.384C50.3612 25.4907 50.4026 25.5747 50.4852 25.636C50.5679 25.6973 50.6826 25.728 50.8292 25.728Z" fill="black"/>
<path d="M53.6599 23.86C53.8652 23.86 54.0492 23.9053 54.2119 23.996C54.3745 24.0867 54.5012 24.2133 54.5919 24.376C54.6852 24.5387 54.7319 24.7267 54.7319 24.94C54.7319 25.1533 54.6852 25.3427 54.5919 25.508C54.5012 25.6707 54.3745 25.7973 54.2119 25.888C54.0492 25.9787 53.8652 26.024 53.6599 26.024C53.5025 26.024 53.3585 25.9933 53.2279 25.932C53.0972 25.8707 52.9892 25.7813 52.9039 25.664V26H52.5359V23.032H52.9199V24.2C53.0052 24.088 53.1119 24.004 53.2399 23.948C53.3679 23.8893 53.5079 23.86 53.6599 23.86ZM53.6279 25.688C53.7639 25.688 53.8852 25.6573 53.9919 25.596C54.1012 25.532 54.1865 25.444 54.2479 25.332C54.3119 25.2173 54.3439 25.0867 54.3439 24.94C54.3439 24.7933 54.3119 24.664 54.2479 24.552C54.1865 24.4373 54.1012 24.3493 53.9919 24.288C53.8852 24.2267 53.7639 24.196 53.6279 24.196C53.4945 24.196 53.3732 24.2267 53.2639 24.288C53.1545 24.3493 53.0692 24.4373 53.0079 24.552C52.9465 24.664 52.9159 24.7933 52.9159 24.94C52.9159 25.0867 52.9465 25.2173 53.0079 25.332C53.0692 25.444 53.1545 25.532 53.2639 25.596C53.3732 25.6573 53.4945 25.688 53.6279 25.688Z" fill="black"/>
<path d="M56.1704 26.024C55.9598 26.024 55.7704 25.9773 55.6024 25.884C55.4344 25.7907 55.3024 25.6627 55.2064 25.5C55.1131 25.3347 55.0664 25.148 55.0664 24.94C55.0664 24.732 55.1131 24.5467 55.2064 24.384C55.3024 24.2187 55.4344 24.0907 55.6024 24C55.7704 23.9067 55.9598 23.86 56.1704 23.86C56.3811 23.86 56.5691 23.9067 56.7344 24C56.9024 24.0907 57.0331 24.2187 57.1264 24.384C57.2224 24.5467 57.2704 24.732 57.2704 24.94C57.2704 25.148 57.2224 25.3347 57.1264 25.5C57.0331 25.6627 56.9024 25.7907 56.7344 25.884C56.5691 25.9773 56.3811 26.024 56.1704 26.024ZM56.1704 25.688C56.3064 25.688 56.4278 25.6573 56.5344 25.596C56.6438 25.532 56.7291 25.444 56.7904 25.332C56.8518 25.2173 56.8824 25.0867 56.8824 24.94C56.8824 24.7933 56.8518 24.664 56.7904 24.552C56.7291 24.4373 56.6438 24.3493 56.5344 24.288C56.4278 24.2267 56.3064 24.196 56.1704 24.196C56.0344 24.196 55.9118 24.2267 55.8024 24.288C55.6958 24.3493 55.6104 24.4373 55.5464 24.552C55.4851 24.664 55.4544 24.7933 55.4544 24.94C55.4544 25.0867 55.4851 25.2173 55.5464 25.332C55.6104 25.444 55.6958 25.532 55.8024 25.596C55.9118 25.6573 56.0344 25.688 56.1704 25.688Z" fill="black"/>
<path d="M59.7775 23.88V26H59.4135V25.68C59.3362 25.7893 59.2335 25.8747 59.1055 25.936C58.9802 25.9947 58.8428 26.024 58.6935 26.024C58.4108 26.024 58.1882 25.9467 58.0255 25.792C57.8628 25.6347 57.7815 25.404 57.7815 25.1V23.88H58.1655V25.056C58.1655 25.2613 58.2148 25.4173 58.3135 25.524C58.4122 25.628 58.5535 25.68 58.7375 25.68C58.9402 25.68 59.1002 25.6187 59.2175 25.496C59.3348 25.3733 59.3935 25.2 59.3935 24.976V23.88H59.7775Z" fill="black"/>
<path d="M61.7005 25.876C61.6445 25.924 61.5752 25.9613 61.4925 25.988C61.4099 26.012 61.3245 26.024 61.2365 26.024C61.0232 26.024 60.8579 25.9667 60.7405 25.852C60.6232 25.7373 60.5645 25.5733 60.5645 25.36V24.196H60.2045V23.88H60.5645V23.416H60.9485V23.88H61.5565V24.196H60.9485V25.344C60.9485 25.4587 60.9765 25.5467 61.0325 25.608C61.0912 25.6693 61.1739 25.7 61.2805 25.7C61.3979 25.7 61.4979 25.6667 61.5805 25.6L61.7005 25.876Z" fill="black"/>
<path d="M64.431 25.876C64.375 25.924 64.3057 25.9613 64.223 25.988C64.1403 26.012 64.055 26.024 63.967 26.024C63.7537 26.024 63.5883 25.9667 63.471 25.852C63.3537 25.7373 63.295 25.5733 63.295 25.36V24.196H62.935V23.88H63.295V23.416H63.679V23.88H64.287V24.196H63.679V25.344C63.679 25.4587 63.707 25.5467 63.763 25.608C63.8217 25.6693 63.9043 25.7 64.011 25.7C64.1283 25.7 64.2283 25.6667 64.311 25.6L64.431 25.876Z" fill="black"/>
<path d="M66.0272 23.86C66.2966 23.86 66.5099 23.9387 66.6672 24.096C66.8272 24.2507 66.9072 24.4787 66.9072 24.78V26H66.5232V24.824C66.5232 24.6187 66.4739 24.464 66.3752 24.36C66.2766 24.256 66.1352 24.204 65.9512 24.204C65.7432 24.204 65.5792 24.2653 65.4592 24.388C65.3392 24.508 65.2792 24.6813 65.2792 24.908V26H64.8952V23.032H65.2792V24.18C65.3592 24.0787 65.4632 24 65.5912 23.944C65.7219 23.888 65.8672 23.86 66.0272 23.86Z" fill="black"/>
<path d="M67.6179 23.88H68.0019V26H67.6179V23.88ZM67.8099 23.472C67.7352 23.472 67.6726 23.448 67.6219 23.4C67.5739 23.352 67.5499 23.2933 67.5499 23.224C67.5499 23.1547 67.5739 23.096 67.6219 23.048C67.6726 22.9973 67.7352 22.972 67.8099 22.972C67.8846 22.972 67.9459 22.996 67.9939 23.044C68.0446 23.0893 68.0699 23.1467 68.0699 23.216C68.0699 23.288 68.0446 23.3493 67.9939 23.4C67.9459 23.448 67.8846 23.472 67.8099 23.472Z" fill="black"/>
<path d="M69.3431 26.024C69.1698 26.024 69.0031 26.0013 68.8431 25.956C68.6831 25.908 68.5578 25.848 68.4671 25.776L68.6271 25.472C68.7204 25.5387 68.8338 25.592 68.9671 25.632C69.1004 25.672 69.2351 25.692 69.3711 25.692C69.7071 25.692 69.8751 25.596 69.8751 25.404C69.8751 25.34 69.8524 25.2893 69.8071 25.252C69.7618 25.2147 69.7044 25.188 69.6351 25.172C69.5684 25.1533 69.4724 25.1333 69.3471 25.112C69.1764 25.0853 69.0364 25.0547 68.9271 25.02C68.8204 24.9853 68.7284 24.9267 68.6511 24.844C68.5738 24.7613 68.5351 24.6453 68.5351 24.496C68.5351 24.304 68.6151 24.1507 68.7751 24.036C68.9351 23.9187 69.1498 23.86 69.4191 23.86C69.5604 23.86 69.7018 23.8773 69.8431 23.912C69.9844 23.9467 70.1004 23.9933 70.1911 24.052L70.0271 24.356C69.8538 24.244 69.6498 24.188 69.4151 24.188C69.2524 24.188 69.1284 24.2147 69.0431 24.268C68.9578 24.3213 68.9151 24.392 68.9151 24.48C68.9151 24.5493 68.9391 24.604 68.9871 24.644C69.0351 24.684 69.0938 24.7133 69.1631 24.732C69.2351 24.7507 69.3351 24.772 69.4631 24.796C69.6338 24.8253 69.7711 24.8573 69.8751 24.892C69.9818 24.924 70.0724 24.98 70.1471 25.06C70.2218 25.14 70.2591 25.252 70.2591 25.396C70.2591 25.588 70.1764 25.7413 70.0111 25.856C69.8484 25.968 69.6258 26.024 69.3431 26.024Z" fill="black"/>
<path d="M72.7372 26.024C72.5212 26.024 72.3279 25.9773 72.1572 25.884C71.9892 25.7907 71.8572 25.6627 71.7612 25.5C71.6652 25.3347 71.6172 25.148 71.6172 24.94C71.6172 24.732 71.6652 24.5467 71.7612 24.384C71.8572 24.2187 71.9892 24.0907 72.1572 24C72.3279 23.9067 72.5212 23.86 72.7372 23.86C72.9292 23.86 73.0999 23.8987 73.2492 23.976C73.4012 24.0533 73.5185 24.1653 73.6012 24.312L73.3092 24.5C73.2425 24.3987 73.1599 24.3227 73.0612 24.272C72.9625 24.2213 72.8532 24.196 72.7332 24.196C72.5945 24.196 72.4692 24.2267 72.3572 24.288C72.2479 24.3493 72.1612 24.4373 72.0972 24.552C72.0359 24.664 72.0052 24.7933 72.0052 24.94C72.0052 25.0893 72.0359 25.2213 72.0972 25.336C72.1612 25.448 72.2479 25.5347 72.3572 25.596C72.4692 25.6573 72.5945 25.688 72.7332 25.688C72.8532 25.688 72.9625 25.6627 73.0612 25.612C73.1599 25.5613 73.2425 25.4853 73.3092 25.384L73.6012 25.568C73.5185 25.7147 73.4012 25.828 73.2492 25.908C73.0999 25.9853 72.9292 26.024 72.7372 26.024Z" fill="black"/>
<path d="M74.9751 26.024C74.7645 26.024 74.5751 25.9773 74.4071 25.884C74.2391 25.7907 74.1071 25.6627 74.0111 25.5C73.9178 25.3347 73.8711 25.148 73.8711 24.94C73.8711 24.732 73.9178 24.5467 74.0111 24.384C74.1071 24.2187 74.2391 24.0907 74.4071 24C74.5751 23.9067 74.7645 23.86 74.9751 23.86C75.1858 23.86 75.3738 23.9067 75.5391 24C75.7071 24.0907 75.8378 24.2187 75.9311 24.384C76.0271 24.5467 76.0751 24.732 76.0751 24.94C76.0751 25.148 76.0271 25.3347 75.9311 25.5C75.8378 25.6627 75.7071 25.7907 75.5391 25.884C75.3738 25.9773 75.1858 26.024 74.9751 26.024ZM74.9751 25.688C75.1111 25.688 75.2325 25.6573 75.3391 25.596C75.4485 25.532 75.5338 25.444 75.5951 25.332C75.6564 25.2173 75.6871 25.0867 75.6871 24.94C75.6871 24.7933 75.6564 24.664 75.5951 24.552C75.5338 24.4373 75.4485 24.3493 75.3391 24.288C75.2325 24.2267 75.1111 24.196 74.9751 24.196C74.8391 24.196 74.7165 24.2267 74.6071 24.288C74.5005 24.3493 74.4151 24.4373 74.3511 24.552C74.2898 24.664 74.2591 24.7933 74.2591 24.94C74.2591 25.0867 74.2898 25.2173 74.3511 25.332C74.4151 25.444 74.5005 25.532 74.6071 25.596C74.7165 25.6573 74.8391 25.688 74.9751 25.688Z" fill="black"/>
<path d="M79.2582 23.86C79.5248 23.86 79.7355 23.9373 79.8902 24.092C80.0475 24.2467 80.1262 24.476 80.1262 24.78V26H79.7422V24.824C79.7422 24.6187 79.6942 24.464 79.5982 24.36C79.5048 24.256 79.3702 24.204 79.1942 24.204C78.9995 24.204 78.8448 24.2653 78.7302 24.388C78.6155 24.508 78.5582 24.6813 78.5582 24.908V26H78.1742V24.824C78.1742 24.6187 78.1262 24.464 78.0302 24.36C77.9368 24.256 77.8022 24.204 77.6262 24.204C77.4315 24.204 77.2768 24.2653 77.1622 24.388C77.0475 24.508 76.9902 24.6813 76.9902 24.908V26H76.6062V23.88H76.9742V24.196C77.0515 24.0867 77.1528 24.004 77.2782 23.948C77.4035 23.8893 77.5462 23.86 77.7062 23.86C77.8715 23.86 78.0182 23.8933 78.1462 23.96C78.2742 24.0267 78.3728 24.124 78.4422 24.252C78.5222 24.1293 78.6328 24.0333 78.7742 23.964C78.9182 23.8947 79.0795 23.86 79.2582 23.86Z" fill="black"/>
<path d="M81.9567 23.86C82.1621 23.86 82.3461 23.9053 82.5087 23.996C82.6714 24.0867 82.7981 24.2133 82.8887 24.376C82.9821 24.5387 83.0287 24.7267 83.0287 24.94C83.0287 25.1533 82.9821 25.3427 82.8887 25.508C82.7981 25.6707 82.6714 25.7973 82.5087 25.888C82.3461 25.9787 82.1621 26.024 81.9567 26.024C81.8047 26.024 81.6647 25.9947 81.5367 25.936C81.4114 25.8773 81.3047 25.792 81.2167 25.68V26.776H80.8327V23.88H81.2007V24.216C81.2861 24.0987 81.3941 24.0107 81.5247 23.952C81.6554 23.8907 81.7994 23.86 81.9567 23.86ZM81.9247 25.688C82.0607 25.688 82.1821 25.6573 82.2887 25.596C82.3981 25.532 82.4834 25.444 82.5447 25.332C82.6087 25.2173 82.6407 25.0867 82.6407 24.94C82.6407 24.7933 82.6087 24.664 82.5447 24.552C82.4834 24.4373 82.3981 24.3493 82.2887 24.288C82.1821 24.2267 82.0607 24.196 81.9247 24.196C81.7914 24.196 81.6701 24.228 81.5607 24.292C81.4541 24.3533 81.3687 24.44 81.3047 24.552C81.2434 24.664 81.2127 24.7933 81.2127 24.94C81.2127 25.0867 81.2434 25.2173 81.3047 25.332C81.3661 25.444 81.4514 25.532 81.5607 25.596C81.6701 25.6573 81.7914 25.688 81.9247 25.688Z" fill="black"/>
<path d="M84.3118 23.86C84.6051 23.86 84.8291 23.932 84.9838 24.076C85.1411 24.22 85.2198 24.4347 85.2198 24.72V26H84.8558V25.72C84.7918 25.8187 84.6998 25.8947 84.5798 25.948C84.4624 25.9987 84.3224 26.024 84.1598 26.024C83.9224 26.024 83.7318 25.9667 83.5878 25.852C83.4464 25.7373 83.3758 25.5867 83.3758 25.4C83.3758 25.2133 83.4438 25.064 83.5798 24.952C83.7158 24.8373 83.9318 24.78 84.2278 24.78H84.8358V24.704C84.8358 24.5387 84.7878 24.412 84.6918 24.324C84.5958 24.236 84.4544 24.192 84.2678 24.192C84.1424 24.192 84.0198 24.2133 83.8998 24.256C83.7798 24.296 83.6784 24.3507 83.5958 24.42L83.4358 24.132C83.5451 24.044 83.6758 23.9773 83.8278 23.932C83.9798 23.884 84.1411 23.86 84.3118 23.86ZM84.2238 25.728C84.3704 25.728 84.4971 25.696 84.6038 25.632C84.7104 25.5653 84.7878 25.472 84.8358 25.352V25.056H84.2438C83.9184 25.056 83.7558 25.1653 83.7558 25.384C83.7558 25.4907 83.7971 25.5747 83.8798 25.636C83.9624 25.6973 84.0771 25.728 84.2238 25.728Z" fill="black"/>
<path d="M87.0624 23.86C87.3317 23.86 87.5451 23.9387 87.7024 24.096C87.8624 24.2507 87.9424 24.4787 87.9424 24.78V26H87.5584V24.824C87.5584 24.6187 87.5091 24.464 87.4104 24.36C87.3117 24.256 87.1704 24.204 86.9864 24.204C86.7784 24.204 86.6144 24.2653 86.4944 24.388C86.3744 24.508 86.3144 24.6813 86.3144 24.908V26H85.9304V23.88H86.2984V24.2C86.3757 24.0907 86.4797 24.0067 86.6104 23.948C86.7437 23.8893 86.8944 23.86 87.0624 23.86Z" fill="black"/>
<path d="M90.49 23.88L89.462 26.212C89.3713 26.428 89.2647 26.58 89.142 26.668C89.022 26.756 88.8767 26.8 88.706 26.8C88.602 26.8 88.5007 26.7827 88.402 26.748C88.306 26.716 88.226 26.668 88.162 26.604L88.326 26.316C88.4353 26.42 88.562 26.472 88.706 26.472C88.7993 26.472 88.8767 26.4467 88.938 26.396C89.002 26.348 89.0593 26.264 89.11 26.144L89.178 25.996L88.242 23.88H88.642L89.382 25.576L90.114 23.88H90.49Z" fill="black"/>
<path d="M92.6946 23.86C92.9879 23.86 93.2119 23.932 93.3666 24.076C93.5239 24.22 93.6026 24.4347 93.6026 24.72V26H93.2386V25.72C93.1746 25.8187 93.0826 25.8947 92.9626 25.948C92.8453 25.9987 92.7053 26.024 92.5426 26.024C92.3053 26.024 92.1146 25.9667 91.9706 25.852C91.8293 25.7373 91.7586 25.5867 91.7586 25.4C91.7586 25.2133 91.8266 25.064 91.9626 24.952C92.0986 24.8373 92.3146 24.78 92.6106 24.78H93.2186V24.704C93.2186 24.5387 93.1706 24.412 93.0746 24.324C92.9786 24.236 92.8373 24.192 92.6506 24.192C92.5253 24.192 92.4026 24.2133 92.2826 24.256C92.1626 24.296 92.0613 24.3507 91.9786 24.42L91.8186 24.132C91.9279 24.044 92.0586 23.9773 92.2106 23.932C92.3626 23.884 92.5239 23.86 92.6946 23.86ZM92.6066 25.728C92.7532 25.728 92.8799 25.696 92.9866 25.632C93.0933 25.5653 93.1706 25.472 93.2186 25.352V25.056H92.6266C92.3013 25.056 92.1386 25.1653 92.1386 25.384C92.1386 25.4907 92.1799 25.5747 92.2626 25.636C92.3453 25.6973 92.4599 25.728 92.6066 25.728Z" fill="black"/>
<path d="M95.4452 23.86C95.7145 23.86 95.9279 23.9387 96.0852 24.096C96.2452 24.2507 96.3252 24.4787 96.3252 24.78V26H95.9412V24.824C95.9412 24.6187 95.8919 24.464 95.7932 24.36C95.6945 24.256 95.5532 24.204 95.3692 24.204C95.1612 24.204 94.9972 24.2653 94.8772 24.388C94.7572 24.508 94.6972 24.6813 94.6972 24.908V26H94.3132V23.88H94.6812V24.2C94.7585 24.0907 94.8625 24.0067 94.9932 23.948C95.1265 23.8893 95.2772 23.86 95.4452 23.86Z" fill="black"/>
<path d="M99.0476 23.032V26H98.6796V25.664C98.5943 25.7813 98.4862 25.8707 98.3556 25.932C98.2249 25.9933 98.0809 26.024 97.9236 26.024C97.7183 26.024 97.5343 25.9787 97.3716 25.888C97.2089 25.7973 97.0809 25.6707 96.9876 25.508C96.8969 25.3427 96.8516 25.1533 96.8516 24.94C96.8516 24.7267 96.8969 24.5387 96.9876 24.376C97.0809 24.2133 97.2089 24.0867 97.3716 23.996C97.5343 23.9053 97.7183 23.86 97.9236 23.86C98.0756 23.86 98.2156 23.8893 98.3436 23.948C98.4716 24.004 98.5783 24.088 98.6636 24.2V23.032H99.0476ZM97.9556 25.688C98.0889 25.688 98.2103 25.6573 98.3196 25.596C98.4289 25.532 98.5143 25.444 98.5756 25.332C98.6369 25.2173 98.6676 25.0867 98.6676 24.94C98.6676 24.7933 98.6369 24.664 98.5756 24.552C98.5143 24.4373 98.4289 24.3493 98.3196 24.288C98.2103 24.2267 98.0889 24.196 97.9556 24.196C97.8196 24.196 97.6969 24.2267 97.5876 24.288C97.4809 24.3493 97.3956 24.4373 97.3316 24.552C97.2703 24.664 97.2396 24.7933 97.2396 24.94C97.2396 25.0867 97.2703 25.2173 97.3316 25.332C97.3956 25.444 97.4809 25.532 97.5876 25.596C97.6969 25.6573 97.8196 25.688 97.9556 25.688Z" fill="black"/>
<path d="M104.056 23.88L103.264 26H102.896L102.284 24.392L101.664 26H101.296L100.508 23.88H100.872L101.488 25.568L102.128 23.88H102.452L103.08 25.576L103.712 23.88H104.056Z" fill="black"/>
<path d="M105.578 23.86C105.847 23.86 106.061 23.9387 106.218 24.096C106.378 24.2507 106.458 24.4787 106.458 24.78V26H106.074V24.824C106.074 24.6187 106.025 24.464 105.926 24.36C105.827 24.256 105.686 24.204 105.502 24.204C105.294 24.204 105.13 24.2653 105.01 24.388C104.89 24.508 104.83 24.6813 104.83 24.908V26H104.446V23.032H104.83V24.18C104.91 24.0787 105.014 24 105.142 23.944C105.273 23.888 105.418 23.86 105.578 23.86Z" fill="black"/>
<path d="M107.941 23.86C108.234 23.86 108.458 23.932 108.613 24.076C108.77 24.22 108.849 24.4347 108.849 24.72V26H108.485V25.72C108.421 25.8187 108.329 25.8947 108.209 25.948C108.091 25.9987 107.951 26.024 107.789 26.024C107.551 26.024 107.361 25.9667 107.217 25.852C107.075 25.7373 107.005 25.5867 107.005 25.4C107.005 25.2133 107.073 25.064 107.209 24.952C107.345 24.8373 107.561 24.78 107.857 24.78H108.465V24.704C108.465 24.5387 108.417 24.412 108.321 24.324C108.225 24.236 108.083 24.192 107.897 24.192C107.771 24.192 107.649 24.2133 107.529 24.256C107.409 24.296 107.307 24.3507 107.225 24.42L107.065 24.132C107.174 24.044 107.305 23.9773 107.457 23.932C107.609 23.884 107.77 23.86 107.941 23.86ZM107.853 25.728C107.999 25.728 108.126 25.696 108.233 25.632C108.339 25.5653 108.417 25.472 108.465 25.352V25.056H107.873C107.547 25.056 107.385 25.1653 107.385 25.384C107.385 25.4907 107.426 25.5747 107.509 25.636C107.591 25.6973 107.706 25.728 107.853 25.728Z" fill="black"/>
<path d="M110.751 25.876C110.695 25.924 110.626 25.9613 110.543 25.988C110.461 26.012 110.375 26.024 110.287 26.024C110.074 26.024 109.909 25.9667 109.791 25.852C109.674 25.7373 109.615 25.5733 109.615 25.36V24.196H109.255V23.88H109.615V23.416H109.999V23.88H110.607V24.196H109.999V25.344C109.999 25.4587 110.027 25.5467 110.083 25.608C110.142 25.6693 110.225 25.7 110.331 25.7C110.449 25.7 110.549 25.6667 110.631 25.6L110.751 25.876Z" fill="black"/>
<path d="M113.482 25.876C113.426 25.924 113.356 25.9613 113.274 25.988C113.191 26.012 113.106 26.024 113.018 26.024C112.804 26.024 112.639 25.9667 112.522 25.852C112.404 25.7373 112.346 25.5733 112.346 25.36V24.196H111.986V23.88H112.346V23.416H112.73V23.88H113.338V24.196H112.73V25.344C112.73 25.4587 112.758 25.5467 112.814 25.608C112.872 25.6693 112.955 25.7 113.062 25.7C113.179 25.7 113.279 25.6667 113.362 25.6L113.482 25.876Z" fill="black"/>
<path d="M115.078 23.86C115.347 23.86 115.561 23.9387 115.718 24.096C115.878 24.2507 115.958 24.4787 115.958 24.78V26H115.574V24.824C115.574 24.6187 115.525 24.464 115.426 24.36C115.327 24.256 115.186 24.204 115.002 24.204C114.794 24.204 114.63 24.2653 114.51 24.388C114.39 24.508 114.33 24.6813 114.33 24.908V26H113.946V23.032H114.33V24.18C114.41 24.0787 114.514 24 114.642 23.944C114.773 23.888 114.918 23.86 115.078 23.86Z" fill="black"/>
<path d="M118.596 24.952C118.596 24.9813 118.594 25.02 118.588 25.068H116.868C116.892 25.2547 116.974 25.4053 117.112 25.52C117.254 25.632 117.428 25.688 117.636 25.688C117.89 25.688 118.094 25.6027 118.248 25.432L118.46 25.68C118.364 25.792 118.244 25.8773 118.1 25.936C117.959 25.9947 117.8 26.024 117.624 26.024C117.4 26.024 117.202 25.9787 117.028 25.888C116.855 25.7947 116.72 25.6653 116.624 25.5C116.531 25.3347 116.484 25.148 116.484 24.94C116.484 24.7347 116.53 24.5493 116.62 24.384C116.714 24.2187 116.84 24.0907 117 24C117.163 23.9067 117.346 23.86 117.548 23.86C117.751 23.86 117.931 23.9067 118.088 24C118.248 24.0907 118.372 24.2187 118.46 24.384C118.551 24.5493 118.596 24.7387 118.596 24.952ZM117.548 24.184C117.364 24.184 117.21 24.24 117.084 24.352C116.962 24.464 116.89 24.6107 116.868 24.792H118.228C118.207 24.6133 118.134 24.468 118.008 24.356C117.886 24.2413 117.732 24.184 117.548 24.184Z" fill="black"/>
<path d="M120.967 23.88L119.939 26.212C119.848 26.428 119.741 26.58 119.619 26.668C119.499 26.756 119.353 26.8 119.183 26.8C119.079 26.8 118.977 26.7827 118.879 26.748C118.783 26.716 118.703 26.668 118.639 26.604L118.803 26.316C118.912 26.42 119.039 26.472 119.183 26.472C119.276 26.472 119.353 26.4467 119.415 26.396C119.479 26.348 119.536 26.264 119.587 26.144L119.655 25.996L118.719 23.88H119.119L119.859 25.576L120.591 23.88H120.967Z" fill="black"/>
<path d="M124.399 23.032V26H124.031V25.664C123.946 25.7813 123.838 25.8707 123.707 25.932C123.576 25.9933 123.432 26.024 123.275 26.024C123.07 26.024 122.886 25.9787 122.723 25.888C122.56 25.7973 122.432 25.6707 122.339 25.508C122.248 25.3427 122.203 25.1533 122.203 24.94C122.203 24.7267 122.248 24.5387 122.339 24.376C122.432 24.2133 122.56 24.0867 122.723 23.996C122.886 23.9053 123.07 23.86 123.275 23.86C123.427 23.86 123.567 23.8893 123.695 23.948C123.823 24.004 123.93 24.088 124.015 24.2V23.032H124.399ZM123.307 25.688C123.44 25.688 123.562 25.6573 123.671 25.596C123.78 25.532 123.866 25.444 123.927 25.332C123.988 25.2173 124.019 25.0867 124.019 24.94C124.019 24.7933 123.988 24.664 123.927 24.552C123.866 24.4373 123.78 24.3493 123.671 24.288C123.562 24.2267 123.44 24.196 123.307 24.196C123.171 24.196 123.048 24.2267 122.939 24.288C122.832 24.3493 122.747 24.4373 122.683 24.552C122.622 24.664 122.591 24.7933 122.591 24.94C122.591 25.0867 122.622 25.2173 122.683 25.332C122.747 25.444 122.832 25.532 122.939 25.596C123.048 25.6573 123.171 25.688 123.307 25.688Z" fill="black"/>
<path d="M126.034 26.024C125.823 26.024 125.634 25.9773 125.466 25.884C125.298 25.7907 125.166 25.6627 125.07 25.5C124.976 25.3347 124.93 25.148 124.93 24.94C124.93 24.732 124.976 24.5467 125.07 24.384C125.166 24.2187 125.298 24.0907 125.466 24C125.634 23.9067 125.823 23.86 126.034 23.86C126.244 23.86 126.432 23.9067 126.598 24C126.766 24.0907 126.896 24.2187 126.99 24.384C127.086 24.5467 127.134 24.732 127.134 24.94C127.134 25.148 127.086 25.3347 126.99 25.5C126.896 25.6627 126.766 25.7907 126.598 25.884C126.432 25.9773 126.244 26.024 126.034 26.024ZM126.034 25.688C126.17 25.688 126.291 25.6573 126.398 25.596C126.507 25.532 126.592 25.444 126.654 25.332C126.715 25.2173 126.746 25.0867 126.746 24.94C126.746 24.7933 126.715 24.664 126.654 24.552C126.592 24.4373 126.507 24.3493 126.398 24.288C126.291 24.2267 126.17 24.196 126.034 24.196C125.898 24.196 125.775 24.2267 125.666 24.288C125.559 24.3493 125.474 24.4373 125.41 24.552C125.348 24.664 125.318 24.7933 125.318 24.94C125.318 25.0867 125.348 25.2173 125.41 25.332C125.474 25.444 125.559 25.532 125.666 25.596C125.775 25.6573 125.898 25.688 126.034 25.688Z" fill="black"/>
<path d="M127.71 26.024C127.635 26.024 127.571 25.9987 127.518 25.948C127.465 25.8947 127.438 25.828 127.438 25.748C127.438 25.6707 127.465 25.6067 127.518 25.556C127.571 25.5027 127.635 25.476 127.71 25.476C127.785 25.476 127.847 25.5013 127.898 25.552C127.949 25.6027 127.974 25.668 127.974 25.748C127.974 25.828 127.947 25.8947 127.894 25.948C127.843 25.9987 127.782 26.024 127.71 26.024Z" fill="black"/>
<path d="M11.708 14.709H10.028V14.1H14.081V14.709H12.401V19H11.708V14.709Z" fill="black"/>
<path d="M16.7264 15.255C17.1977 15.255 17.5711 15.3927 17.8464 15.668C18.1264 15.9387 18.2664 16.3377 18.2664 16.865V19H17.5944V16.942C17.5944 16.5827 17.5081 16.312 17.3354 16.13C17.1627 15.948 16.9154 15.857 16.5934 15.857C16.2294 15.857 15.9424 15.9643 15.7324 16.179C15.5224 16.389 15.4174 16.6923 15.4174 17.089V19H14.7454V13.806H15.4174V15.815C15.5574 15.6377 15.7394 15.5 15.9634 15.402C16.1921 15.304 16.4464 15.255 16.7264 15.255Z" fill="black"/>
<path d="M19.5101 15.29H20.1821V19H19.5101V15.29ZM19.8461 14.576C19.7154 14.576 19.6057 14.534 19.5171 14.45C19.4331 14.366 19.3911 14.2633 19.3911 14.142C19.3911 14.0207 19.4331 13.918 19.5171 13.834C19.6057 13.7453 19.7154 13.701 19.8461 13.701C19.9767 13.701 20.0841 13.743 20.1681 13.827C20.2567 13.9063 20.3011 14.0067 20.3011 14.128C20.3011 14.254 20.2567 14.3613 20.1681 14.45C20.0841 14.534 19.9767 14.576 19.8461 14.576Z" fill="black"/>
<path d="M22.5291 19.042C22.2258 19.042 21.9341 19.0023 21.6541 18.923C21.3741 18.839 21.1548 18.734 20.9961 18.608L21.2761 18.076C21.4395 18.1927 21.6378 18.286 21.8711 18.356C22.1045 18.426 22.3401 18.461 22.5781 18.461C23.1661 18.461 23.4601 18.293 23.4601 17.957C23.4601 17.845 23.4205 17.7563 23.3411 17.691C23.2618 17.6257 23.1615 17.579 23.0401 17.551C22.9235 17.5183 22.7555 17.4833 22.5361 17.446C22.2375 17.3993 21.9925 17.3457 21.8011 17.285C21.6145 17.2243 21.4535 17.1217 21.3181 16.977C21.1828 16.8323 21.1151 16.6293 21.1151 16.368C21.1151 16.032 21.2551 15.7637 21.5351 15.563C21.8151 15.3577 22.1908 15.255 22.6621 15.255C22.9095 15.255 23.1568 15.2853 23.4041 15.346C23.6515 15.4067 23.8545 15.4883 24.0131 15.591L23.7261 16.123C23.4228 15.927 23.0658 15.829 22.6551 15.829C22.3705 15.829 22.1535 15.8757 22.0041 15.969C21.8548 16.0623 21.7801 16.186 21.7801 16.34C21.7801 16.4613 21.8221 16.557 21.9061 16.627C21.9901 16.697 22.0928 16.7483 22.2141 16.781C22.3401 16.8137 22.5151 16.851 22.7391 16.893C23.0378 16.9443 23.2781 17.0003 23.4601 17.061C23.6468 17.117 23.8055 17.215 23.9361 17.355C24.0668 17.495 24.1321 17.691 24.1321 17.943C24.1321 18.279 23.9875 18.5473 23.6981 18.748C23.4135 18.944 23.0238 19.042 22.5291 19.042Z" fill="black"/>
<path d="M26.8519 15.29H27.5239V19H26.8519V15.29ZM27.1879 14.576C27.0572 14.576 26.9475 14.534 26.8589 14.45C26.7749 14.366 26.7329 14.2633 26.7329 14.142C26.7329 14.0207 26.7749 13.918 26.8589 13.834C26.9475 13.7453 27.0572 13.701 27.1879 13.701C27.3185 13.701 27.4259 13.743 27.5099 13.827C27.5985 13.9063 27.6429 14.0067 27.6429 14.128C27.6429 14.254 27.5985 14.3613 27.5099 14.45C27.4259 14.534 27.3185 14.576 27.1879 14.576Z" fill="black"/>
<path d="M29.8709 19.042C29.5676 19.042 29.2759 19.0023 28.9959 18.923C28.7159 18.839 28.4966 18.734 28.3379 18.608L28.6179 18.076C28.7813 18.1927 28.9796 18.286 29.2129 18.356C29.4463 18.426 29.6819 18.461 29.9199 18.461C30.5079 18.461 30.8019 18.293 30.8019 17.957C30.8019 17.845 30.7623 17.7563 30.6829 17.691C30.6036 17.6257 30.5033 17.579 30.3819 17.551C30.2653 17.5183 30.0973 17.4833 29.8779 17.446C29.5793 17.3993 29.3343 17.3457 29.1429 17.285C28.9563 17.2243 28.7953 17.1217 28.6599 16.977C28.5246 16.8323 28.4569 16.6293 28.4569 16.368C28.4569 16.032 28.5969 15.7637 28.8769 15.563C29.1569 15.3577 29.5326 15.255 30.0039 15.255C30.2513 15.255 30.4986 15.2853 30.7459 15.346C30.9933 15.4067 31.1963 15.4883 31.3549 15.591L31.0679 16.123C30.7646 15.927 30.4076 15.829 29.9969 15.829C29.7123 15.829 29.4953 15.8757 29.3459 15.969C29.1966 16.0623 29.1219 16.186 29.1219 16.34C29.1219 16.4613 29.1639 16.557 29.2479 16.627C29.3319 16.697 29.4346 16.7483 29.5559 16.781C29.6819 16.8137 29.8569 16.851 30.0809 16.893C30.3796 16.9443 30.6199 17.0003 30.8019 17.061C30.9886 17.117 31.1473 17.215 31.2779 17.355C31.4086 17.495 31.4739 17.691 31.4739 17.943C31.4739 18.279 31.3293 18.5473 31.0399 18.748C30.7553 18.944 30.3656 19.042 29.8709 19.042Z" fill="black"/>
<path d="M35.5447 15.255C36.058 15.255 36.45 15.381 36.7207 15.633C36.996 15.885 37.1337 16.2607 37.1337 16.76V19H36.4967V18.51C36.3847 18.6827 36.2237 18.8157 36.0137 18.909C35.8083 18.9977 35.5633 19.042 35.2787 19.042C34.8633 19.042 34.5297 18.9417 34.2777 18.741C34.0303 18.5403 33.9067 18.2767 33.9067 17.95C33.9067 17.6233 34.0257 17.362 34.2637 17.166C34.5017 16.9653 34.8797 16.865 35.3977 16.865H36.4617V16.732C36.4617 16.4427 36.3777 16.221 36.2097 16.067C36.0417 15.913 35.7943 15.836 35.4677 15.836C35.2483 15.836 35.0337 15.8733 34.8237 15.948C34.6137 16.018 34.4363 16.1137 34.2917 16.235L34.0117 15.731C34.203 15.577 34.4317 15.4603 34.6977 15.381C34.9637 15.297 35.246 15.255 35.5447 15.255ZM35.3907 18.524C35.6473 18.524 35.869 18.468 36.0557 18.356C36.2423 18.2393 36.3777 18.076 36.4617 17.866V17.348H35.4257C34.8563 17.348 34.5717 17.5393 34.5717 17.922C34.5717 18.1087 34.644 18.2557 34.7887 18.363C34.9333 18.4703 35.134 18.524 35.3907 18.524Z" fill="black"/>
<path d="M41.6151 14.317C41.2138 14.317 41.0131 14.534 41.0131 14.968V15.29H42.0911V15.843H41.0271V19H40.3551V15.843H39.7251V15.29H40.3551V14.961C40.3551 14.5923 40.4625 14.3007 40.6771 14.086C40.8918 13.8713 41.1928 13.764 41.5801 13.764C41.7295 13.764 41.8695 13.7827 42.0001 13.82C42.1308 13.8573 42.2428 13.911 42.3361 13.981L42.1331 14.492C41.9791 14.3753 41.8065 14.317 41.6151 14.317ZM43.2881 15.29H43.9601V19H43.2881V15.29ZM43.6241 14.576C43.4935 14.576 43.3838 14.534 43.2951 14.45C43.2111 14.366 43.1691 14.2633 43.1691 14.142C43.1691 14.0207 43.2111 13.918 43.2951 13.834C43.3838 13.7453 43.4935 13.701 43.6241 13.701C43.7548 13.701 43.8621 13.743 43.9461 13.827C44.0348 13.9063 44.0791 14.0067 44.0791 14.128C44.0791 14.254 44.0348 14.3613 43.9461 14.45C43.8621 14.534 43.7548 14.576 43.6241 14.576Z" fill="black"/>
<path d="M47.2215 15.255C47.6929 15.255 48.0662 15.3927 48.3415 15.668C48.6215 15.9387 48.7615 16.3377 48.7615 16.865V19H48.0895V16.942C48.0895 16.5827 48.0032 16.312 47.8305 16.13C47.6579 15.948 47.4105 15.857 47.0885 15.857C46.7245 15.857 46.4375 15.9643 46.2275 16.179C46.0175 16.389 45.9125 16.6923 45.9125 17.089V19H45.2405V15.29H45.8845V15.85C46.0199 15.6587 46.2019 15.5117 46.4305 15.409C46.6639 15.3063 46.9275 15.255 47.2215 15.255Z" fill="black"/>
<path d="M51.3562 15.255C51.8695 15.255 52.2615 15.381 52.5322 15.633C52.8075 15.885 52.9452 16.2607 52.9452 16.76V19H52.3082V18.51C52.1962 18.6827 52.0352 18.8157 51.8252 18.909C51.6198 18.9977 51.3748 19.042 51.0902 19.042C50.6748 19.042 50.3412 18.9417 50.0892 18.741C49.8418 18.5403 49.7182 18.2767 49.7182 17.95C49.7182 17.6233 49.8372 17.362 50.0752 17.166C50.3132 16.9653 50.6912 16.865 51.2092 16.865H52.2732V16.732C52.2732 16.4427 52.1892 16.221 52.0212 16.067C51.8532 15.913 51.6058 15.836 51.2792 15.836C51.0598 15.836 50.8452 15.8733 50.6352 15.948C50.4252 16.018 50.2478 16.1137 50.1032 16.235L49.8232 15.731C50.0145 15.577 50.2432 15.4603 50.5092 15.381C50.7752 15.297 51.0575 15.255 51.3562 15.255ZM51.2022 18.524C51.4588 18.524 51.6805 18.468 51.8672 18.356C52.0538 18.2393 52.1892 18.076 52.2732 17.866V17.348H51.2372C50.6678 17.348 50.3832 17.5393 50.3832 17.922C50.3832 18.1087 50.4555 18.2557 50.6002 18.363C50.7448 18.4703 50.9455 18.524 51.2022 18.524Z" fill="black"/>
<path d="M54.1888 13.806H54.8608V19H54.1888V13.806Z" fill="black"/>
<path d="M59.6407 19.042C59.2627 19.042 58.9244 18.9603 58.6257 18.797C58.3317 18.6337 58.1007 18.4097 57.9327 18.125C57.7647 17.8357 57.6807 17.509 57.6807 17.145C57.6807 16.781 57.7647 16.4567 57.9327 16.172C58.1007 15.8827 58.3317 15.6587 58.6257 15.5C58.9244 15.3367 59.2627 15.255 59.6407 15.255C59.9767 15.255 60.2754 15.3227 60.5367 15.458C60.8027 15.5933 61.0081 15.7893 61.1527 16.046L60.6417 16.375C60.5251 16.1977 60.3804 16.0647 60.2077 15.976C60.0351 15.8873 59.8437 15.843 59.6337 15.843C59.3911 15.843 59.1717 15.8967 58.9757 16.004C58.7844 16.1113 58.6327 16.2653 58.5207 16.466C58.4134 16.662 58.3597 16.8883 58.3597 17.145C58.3597 17.4063 58.4134 17.6373 58.5207 17.838C58.6327 18.034 58.7844 18.1857 58.9757 18.293C59.1717 18.4003 59.3911 18.454 59.6337 18.454C59.8437 18.454 60.0351 18.4097 60.2077 18.321C60.3804 18.2323 60.5251 18.0993 60.6417 17.922L61.1527 18.244C61.0081 18.5007 60.8027 18.699 60.5367 18.839C60.2754 18.9743 59.9767 19.042 59.6407 19.042Z" fill="black"/>
<path d="M63.3738 15.255C63.8871 15.255 64.2791 15.381 64.5498 15.633C64.8251 15.885 64.9628 16.2607 64.9628 16.76V19H64.3258V18.51C64.2138 18.6827 64.0528 18.8157 63.8428 18.909C63.6374 18.9977 63.3924 19.042 63.1078 19.042C62.6924 19.042 62.3588 18.9417 62.1068 18.741C61.8594 18.5403 61.7358 18.2767 61.7358 17.95C61.7358 17.6233 61.8548 17.362 62.0928 17.166C62.3308 16.9653 62.7088 16.865 63.2268 16.865H64.2908V16.732C64.2908 16.4427 64.2068 16.221 64.0388 16.067C63.8708 15.913 63.6234 15.836 63.2968 15.836C63.0774 15.836 62.8628 15.8733 62.6528 15.948C62.4428 16.018 62.2654 16.1137 62.1208 16.235L61.8408 15.731C62.0321 15.577 62.2608 15.4603 62.5268 15.381C62.7928 15.297 63.0751 15.255 63.3738 15.255ZM63.2198 18.524C63.4764 18.524 63.6981 18.468 63.8848 18.356C64.0714 18.2393 64.2068 18.076 64.2908 17.866V17.348H63.2548C62.6854 17.348 62.4008 17.5393 62.4008 17.922C62.4008 18.1087 62.4731 18.2557 62.6178 18.363C62.7624 18.4703 62.9631 18.524 63.2198 18.524Z" fill="black"/>
<path d="M66.2064 13.806H66.8784V19H66.2064V13.806Z" fill="black"/>
<path d="M68.1614 13.806H68.8334V19H68.1614V13.806Z" fill="black"/>
<path d="M74.0824 18.783C73.9844 18.867 73.8631 18.9323 73.7184 18.979C73.5737 19.021 73.4244 19.042 73.2704 19.042C72.8971 19.042 72.6077 18.9417 72.4024 18.741C72.1971 18.5403 72.0944 18.2533 72.0944 17.88V15.843H71.4644V15.29H72.0944V14.478H72.7664V15.29H73.8304V15.843H72.7664V17.852C72.7664 18.0527 72.8154 18.2067 72.9134 18.314C73.0161 18.4213 73.1607 18.475 73.3474 18.475C73.5527 18.475 73.7277 18.4167 73.8724 18.3L74.0824 18.783Z" fill="black"/>
<path d="M76.3608 19.042C75.9921 19.042 75.6608 18.9603 75.3668 18.797C75.0728 18.6337 74.8418 18.4097 74.6738 18.125C74.5104 17.8357 74.4288 17.509 74.4288 17.145C74.4288 16.781 74.5104 16.4567 74.6738 16.172C74.8418 15.8827 75.0728 15.6587 75.3668 15.5C75.6608 15.3367 75.9921 15.255 76.3608 15.255C76.7294 15.255 77.0584 15.3367 77.3478 15.5C77.6418 15.6587 77.8704 15.8827 78.0338 16.172C78.2018 16.4567 78.2858 16.781 78.2858 17.145C78.2858 17.509 78.2018 17.8357 78.0338 18.125C77.8704 18.4097 77.6418 18.6337 77.3478 18.797C77.0584 18.9603 76.7294 19.042 76.3608 19.042ZM76.3608 18.454C76.5988 18.454 76.8111 18.4003 76.9978 18.293C77.1891 18.181 77.3384 18.027 77.4458 17.831C77.5531 17.6303 77.6068 17.4017 77.6068 17.145C77.6068 16.8883 77.5531 16.662 77.4458 16.466C77.3384 16.2653 77.1891 16.1113 76.9978 16.004C76.8111 15.8967 76.5988 15.843 76.3608 15.843C76.1228 15.843 75.9081 15.8967 75.7168 16.004C75.5301 16.1113 75.3808 16.2653 75.2688 16.466C75.1615 16.662 75.1078 16.8883 75.1078 17.145C75.1078 17.4017 75.1615 17.6303 75.2688 17.831C75.3808 18.027 75.5301 18.181 75.7168 18.293C75.9081 18.4003 76.1228 18.454 76.3608 18.454Z" fill="black"/>
<path d="M82.446 15.255C82.9594 15.255 83.3514 15.381 83.622 15.633C83.8974 15.885 84.035 16.2607 84.035 16.76V19H83.398V18.51C83.286 18.6827 83.125 18.8157 82.915 18.909C82.7097 18.9977 82.4647 19.042 82.18 19.042C81.7647 19.042 81.431 18.9417 81.179 18.741C80.9317 18.5403 80.808 18.2767 80.808 17.95C80.808 17.6233 80.927 17.362 81.165 17.166C81.403 16.9653 81.781 16.865 82.299 16.865H83.363V16.732C83.363 16.4427 83.279 16.221 83.111 16.067C82.943 15.913 82.6957 15.836 82.369 15.836C82.1497 15.836 81.935 15.8733 81.725 15.948C81.515 16.018 81.3377 16.1137 81.193 16.235L80.913 15.731C81.1044 15.577 81.333 15.4603 81.599 15.381C81.865 15.297 82.1474 15.255 82.446 15.255ZM82.292 18.524C82.5487 18.524 82.7704 18.468 82.957 18.356C83.1437 18.2393 83.279 18.076 83.363 17.866V17.348H82.327C81.7577 17.348 81.473 17.5393 81.473 17.922C81.473 18.1087 81.5454 18.2557 81.69 18.363C81.8347 18.4703 82.0354 18.524 82.292 18.524Z" fill="black"/>
<path d="M86.9161 19.042C86.5381 19.042 86.1998 18.9603 85.9011 18.797C85.6071 18.6337 85.3761 18.4097 85.2081 18.125C85.0401 17.8357 84.9561 17.509 84.9561 17.145C84.9561 16.781 85.0401 16.4567 85.2081 16.172C85.3761 15.8827 85.6071 15.6587 85.9011 15.5C86.1998 15.3367 86.5381 15.255 86.9161 15.255C87.2521 15.255 87.5508 15.3227 87.8121 15.458C88.0781 15.5933 88.2835 15.7893 88.4281 16.046L87.9171 16.375C87.8005 16.1977 87.6558 16.0647 87.4831 15.976C87.3105 15.8873 87.1191 15.843 86.9091 15.843C86.6665 15.843 86.4471 15.8967 86.2511 16.004C86.0598 16.1113 85.9081 16.2653 85.7961 16.466C85.6888 16.662 85.6351 16.8883 85.6351 17.145C85.6351 17.4063 85.6888 17.6373 85.7961 17.838C85.9081 18.034 86.0598 18.1857 86.2511 18.293C86.4471 18.4003 86.6665 18.454 86.9091 18.454C87.1191 18.454 87.3105 18.4097 87.4831 18.321C87.6558 18.2323 87.8005 18.0993 87.9171 17.922L88.4281 18.244C88.2835 18.5007 88.0781 18.699 87.8121 18.839C87.5508 18.9743 87.2521 19.042 86.9161 19.042Z" fill="black"/>
<path d="M91.432 18.783C91.334 18.867 91.2127 18.9323 91.068 18.979C90.9233 19.021 90.774 19.042 90.62 19.042C90.2467 19.042 89.9573 18.9417 89.752 18.741C89.5467 18.5403 89.444 18.2533 89.444 17.88V15.843H88.814V15.29H89.444V14.478H90.116V15.29H91.18V15.843H90.116V17.852C90.116 18.0527 90.165 18.2067 90.263 18.314C90.3657 18.4213 90.5103 18.475 90.697 18.475C90.9023 18.475 91.0773 18.4167 91.222 18.3L91.432 18.783Z" fill="black"/>
<path d="M92.2444 15.29H92.9164V19H92.2444V15.29ZM92.5804 14.576C92.4498 14.576 92.3401 14.534 92.2514 14.45C92.1674 14.366 92.1254 14.2633 92.1254 14.142C92.1254 14.0207 92.1674 13.918 92.2514 13.834C92.3401 13.7453 92.4498 13.701 92.5804 13.701C92.7111 13.701 92.8184 13.743 92.9024 13.827C92.9911 13.9063 93.0354 14.0067 93.0354 14.128C93.0354 14.254 92.9911 14.3613 92.9024 14.45C92.8184 14.534 92.7111 14.576 92.5804 14.576Z" fill="black"/>
<path d="M95.7885 19.042C95.4198 19.042 95.0885 18.9603 94.7945 18.797C94.5005 18.6337 94.2695 18.4097 94.1015 18.125C93.9382 17.8357 93.8565 17.509 93.8565 17.145C93.8565 16.781 93.9382 16.4567 94.1015 16.172C94.2695 15.8827 94.5005 15.6587 94.7945 15.5C95.0885 15.3367 95.4198 15.255 95.7885 15.255C96.1572 15.255 96.4862 15.3367 96.7755 15.5C97.0695 15.6587 97.2982 15.8827 97.4615 16.172C97.6295 16.4567 97.7135 16.781 97.7135 17.145C97.7135 17.509 97.6295 17.8357 97.4615 18.125C97.2982 18.4097 97.0695 18.6337 96.7755 18.797C96.4862 18.9603 96.1572 19.042 95.7885 19.042ZM95.7885 18.454C96.0265 18.454 96.2388 18.4003 96.4255 18.293C96.6168 18.181 96.7662 18.027 96.8735 17.831C96.9808 17.6303 97.0345 17.4017 97.0345 17.145C97.0345 16.8883 96.9808 16.662 96.8735 16.466C96.7662 16.2653 96.6168 16.1113 96.4255 16.004C96.2388 15.8967 96.0265 15.843 95.7885 15.843C95.5505 15.843 95.3358 15.8967 95.1445 16.004C94.9578 16.1113 94.8085 16.2653 94.6965 16.466C94.5892 16.662 94.5355 16.8883 94.5355 17.145C94.5355 17.4017 94.5892 17.6303 94.6965 17.831C94.8085 18.027 94.9578 18.181 95.1445 18.293C95.3358 18.4003 95.5505 18.454 95.7885 18.454Z" fill="black"/>
<path d="M100.624 15.255C101.095 15.255 101.469 15.3927 101.744 15.668C102.024 15.9387 102.164 16.3377 102.164 16.865V19H101.492V16.942C101.492 16.5827 101.406 16.312 101.233 16.13C101.06 15.948 100.813 15.857 100.491 15.857C100.127 15.857 99.8399 15.9643 99.6299 16.179C99.4199 16.389 99.3149 16.6923 99.3149 17.089V19H98.6429V15.29H99.2869V15.85C99.4222 15.6587 99.6042 15.5117 99.8329 15.409C100.066 15.3063 100.33 15.255 100.624 15.255Z" fill="black"/>
<rect x="164.674" y="15.2628" width="28.6528" height="9.4745" rx="1" fill="black"/>
<path d="M170.41 19.9388C170.545 19.9831 170.652 20.0578 170.732 20.1628C170.811 20.2654 170.851 20.3938 170.851 20.5478C170.851 20.7601 170.769 20.9246 170.606 21.0413C170.442 21.1556 170.204 21.2128 169.892 21.2128H168.674V18.7628H169.822C170.111 18.7628 170.334 18.8199 170.49 18.9343C170.646 19.0463 170.725 19.2014 170.725 19.3998C170.725 19.5211 170.697 19.6284 170.641 19.7218C170.585 19.8151 170.508 19.8874 170.41 19.9388ZM169.129 19.1198V19.7953H169.773C169.931 19.7953 170.053 19.7673 170.137 19.7113C170.223 19.6529 170.266 19.5689 170.266 19.4593C170.266 19.3473 170.223 19.2633 170.137 19.2073C170.053 19.1489 169.931 19.1198 169.773 19.1198H169.129ZM169.864 20.8558C170.216 20.8558 170.392 20.7379 170.392 20.5023C170.392 20.2666 170.216 20.1488 169.864 20.1488H169.129V20.8558H169.864Z" fill="white"/>
<path d="M173.104 19.3438V21.2128H172.687V20.9748C172.617 21.0588 172.53 21.1241 172.425 21.1708C172.32 21.2151 172.207 21.2373 172.085 21.2373C171.836 21.2373 171.638 21.1684 171.494 21.0308C171.351 20.8908 171.28 20.6843 171.28 20.4113V19.3438H171.718V20.3518C171.718 20.5198 171.755 20.6458 171.83 20.7298C171.907 20.8114 172.015 20.8523 172.155 20.8523C172.312 20.8523 172.435 20.8044 172.526 20.7088C172.62 20.6108 172.666 20.4708 172.666 20.2888V19.3438H173.104Z" fill="white"/>
<path d="M174.8 21.1113C174.749 21.1533 174.686 21.1848 174.611 21.2058C174.539 21.2268 174.462 21.2373 174.38 21.2373C174.175 21.2373 174.016 21.1836 173.904 21.0763C173.792 20.9689 173.736 20.8126 173.736 20.6073V19.7078H173.428V19.3578H173.736V18.9308H174.174V19.3578H174.674V19.7078H174.174V20.5968C174.174 20.6878 174.196 20.7578 174.24 20.8068C174.284 20.8534 174.349 20.8768 174.433 20.8768C174.531 20.8768 174.612 20.8511 174.678 20.7998L174.8 21.1113Z" fill="white"/>
<path d="M176.239 21.1113C176.188 21.1533 176.125 21.1848 176.05 21.2058C175.978 21.2268 175.901 21.2373 175.819 21.2373C175.614 21.2373 175.455 21.1836 175.343 21.0763C175.231 20.9689 175.175 20.8126 175.175 20.6073V19.7078H174.867V19.3578H175.175V18.9308H175.612V19.3578H176.113V19.7078H175.612V20.5968C175.612 20.6878 175.635 20.7578 175.679 20.8068C175.723 20.8534 175.787 20.8768 175.871 20.8768C175.969 20.8768 176.051 20.8511 176.116 20.7998L176.239 21.1113Z" fill="white"/>
<path d="M177.377 21.2373C177.188 21.2373 177.018 21.1964 176.866 21.1148C176.715 21.0331 176.596 20.9199 176.509 20.7753C176.425 20.6283 176.383 20.4626 176.383 20.2783C176.383 20.0939 176.425 19.9294 176.509 19.7848C176.596 19.6401 176.715 19.5269 176.866 19.4453C177.018 19.3636 177.188 19.3228 177.377 19.3228C177.569 19.3228 177.74 19.3636 177.892 19.4453C178.044 19.5269 178.161 19.6401 178.245 19.7848C178.332 19.9294 178.375 20.0939 178.375 20.2783C178.375 20.4626 178.332 20.6283 178.245 20.7753C178.161 20.9199 178.044 21.0331 177.892 21.1148C177.74 21.1964 177.569 21.2373 177.377 21.2373ZM177.377 20.8628C177.538 20.8628 177.671 20.8091 177.776 20.7018C177.881 20.5944 177.934 20.4533 177.934 20.2783C177.934 20.1033 177.881 19.9621 177.776 19.8548C177.671 19.7474 177.538 19.6938 177.377 19.6938C177.216 19.6938 177.083 19.7474 176.978 19.8548C176.876 19.9621 176.824 20.1033 176.824 20.2783C176.824 20.4533 176.876 20.5944 176.978 20.7018C177.083 20.8091 177.216 20.8628 177.377 20.8628Z" fill="white"/>
<path d="M179.854 19.3228C180.089 19.3228 180.278 19.3916 180.421 19.5293C180.563 19.6669 180.634 19.8711 180.634 20.1418V21.2128H180.197V20.1978C180.197 20.0344 180.158 19.9119 180.081 19.8303C180.004 19.7463 179.895 19.7043 179.752 19.7043C179.591 19.7043 179.464 19.7533 179.371 19.8513C179.277 19.9469 179.231 20.0858 179.231 20.2678V21.2128H178.793V19.3438H179.21V19.5853C179.282 19.4989 179.373 19.4336 179.483 19.3893C179.592 19.3449 179.716 19.3228 179.854 19.3228Z" fill="white"/>
<path d="M182.695 19.1478H181.883V18.7628H183.962V19.1478H183.15V21.2128H182.695V19.1478Z" fill="white"/>
<path d="M185.828 20.2888C185.828 20.3191 185.825 20.3623 185.821 20.4183H184.354C184.38 20.5559 184.446 20.6656 184.554 20.7473C184.663 20.8266 184.799 20.8663 184.96 20.8663C185.165 20.8663 185.334 20.7986 185.467 20.6633L185.702 20.9328C185.618 21.0331 185.511 21.1089 185.383 21.1603C185.255 21.2116 185.11 21.2373 184.949 21.2373C184.744 21.2373 184.563 21.1964 184.407 21.1148C184.25 21.0331 184.129 20.9199 184.043 20.7753C183.959 20.6283 183.917 20.4626 183.917 20.2783C183.917 20.0963 183.957 19.9329 184.039 19.7883C184.123 19.6413 184.239 19.5269 184.386 19.4453C184.533 19.3636 184.698 19.3228 184.883 19.3228C185.065 19.3228 185.227 19.3636 185.369 19.4453C185.514 19.5246 185.626 19.6378 185.705 19.7848C185.787 19.9294 185.828 20.0974 185.828 20.2888ZM184.883 19.6728C184.743 19.6728 184.624 19.7148 184.526 19.7988C184.43 19.8804 184.372 19.9901 184.351 20.1278H185.411C185.392 19.9924 185.335 19.8828 185.24 19.7988C185.144 19.7148 185.025 19.6728 184.883 19.6728Z" fill="white"/>
<path d="M187.387 21.2128L186.907 20.5653L186.424 21.2128H185.941L186.669 20.2643L185.973 19.3438H186.459L186.918 19.9563L187.376 19.3438H187.849L187.149 20.2573L187.88 21.2128H187.387Z" fill="white"/>
<path d="M189.326 21.1113C189.275 21.1533 189.212 21.1848 189.137 21.2058C189.065 21.2268 188.988 21.2373 188.906 21.2373C188.701 21.2373 188.542 21.1836 188.43 21.0763C188.318 20.9689 188.262 20.8126 188.262 20.6073V19.7078H187.954V19.3578H188.262V18.9308H188.7V19.3578H189.2V19.7078H188.7V20.5968C188.7 20.6878 188.722 20.7578 188.766 20.8068C188.811 20.8534 188.875 20.8768 188.959 20.8768C189.057 20.8768 189.139 20.8511 189.204 20.7998L189.326 21.1113Z" fill="white"/>
</svg>
