<svg width="204" height="20" viewBox="0 0 204 20" fill="none" xmlns="http://www.w3.org/2000/svg">
<rect width="204" height="20" fill="black"/>
<g clip-path="url(#clip0)">
<path d="M120.15 8.803H119.07V8.4115H121.676V8.803H120.596V11.5615H120.15V8.803Z" fill="white"/>
<path d="M124.012 10.3825C124.012 10.4155 124.009 10.459 124.003 10.513H122.068C122.095 10.723 122.187 10.8925 122.343 11.0215C122.502 11.1475 122.698 11.2105 122.932 11.2105C123.217 11.2105 123.447 11.1145 123.621 10.9225L123.859 11.2015C123.751 11.3275 123.616 11.4235 123.454 11.4895C123.295 11.5555 123.117 11.5885 122.919 11.5885C122.667 11.5885 122.443 11.5375 122.248 11.4355C122.053 11.3305 121.902 11.185 121.794 10.999C121.689 10.813 121.636 10.603 121.636 10.369C121.636 10.138 121.687 9.9295 121.789 9.7435C121.894 9.5575 122.037 9.4135 122.217 9.3115C122.4 9.2065 122.605 9.154 122.833 9.154C123.061 9.154 123.264 9.2065 123.441 9.3115C123.621 9.4135 123.76 9.5575 123.859 9.7435C123.961 9.9295 124.012 10.1425 124.012 10.3825ZM122.833 9.5185C122.626 9.5185 122.452 9.5815 122.311 9.7075C122.173 9.8335 122.092 9.9985 122.068 10.2025H123.598C123.574 10.0015 123.492 9.838 123.351 9.712C123.213 9.583 123.04 9.5185 122.833 9.5185Z" fill="white"/>
<path d="M125.415 9.154C125.745 9.154 125.997 9.235 126.171 9.397C126.348 9.559 126.436 9.8005 126.436 10.1215V11.5615H126.027V11.2465C125.955 11.3575 125.851 11.443 125.716 11.503C125.584 11.56 125.427 11.5885 125.244 11.5885C124.977 11.5885 124.762 11.524 124.6 11.395C124.441 11.266 124.362 11.0965 124.362 10.8865C124.362 10.6765 124.438 10.5085 124.591 10.3825C124.744 10.2535 124.987 10.189 125.32 10.189H126.004V10.1035C126.004 9.9175 125.95 9.775 125.842 9.676C125.734 9.577 125.575 9.5275 125.365 9.5275C125.224 9.5275 125.086 9.5515 124.951 9.5995C124.816 9.6445 124.702 9.706 124.609 9.784L124.429 9.46C124.552 9.361 124.699 9.286 124.87 9.235C125.041 9.181 125.223 9.154 125.415 9.154ZM125.316 11.2555C125.481 11.2555 125.623 11.2195 125.743 11.1475C125.863 11.0725 125.95 10.9675 126.004 10.8325V10.4995H125.338C124.972 10.4995 124.789 10.6225 124.789 10.8685C124.789 10.9885 124.836 11.083 124.929 11.152C125.022 11.221 125.151 11.2555 125.316 11.2555Z" fill="white"/>
<path d="M130.219 9.154C130.519 9.154 130.756 9.241 130.93 9.415C131.107 9.589 131.196 9.847 131.196 10.189V11.5615H130.764V10.2385C130.764 10.0075 130.71 9.8335 130.602 9.7165C130.497 9.5995 130.345 9.541 130.147 9.541C129.928 9.541 129.754 9.61 129.625 9.748C129.496 9.883 129.432 10.078 129.432 10.333V11.5615H129V10.2385C129 10.0075 128.946 9.8335 128.838 9.7165C128.733 9.5995 128.581 9.541 128.383 9.541C128.164 9.541 127.99 9.61 127.861 9.748C127.732 9.883 127.668 10.078 127.668 10.333V11.5615H127.236V9.1765H127.65V9.532C127.737 9.409 127.851 9.316 127.992 9.253C128.133 9.187 128.293 9.154 128.473 9.154C128.659 9.154 128.824 9.1915 128.968 9.2665C129.112 9.3415 129.223 9.451 129.301 9.595C129.391 9.457 129.516 9.349 129.675 9.271C129.837 9.193 130.018 9.154 130.219 9.154Z" fill="white"/>
<path d="M137.646 8.803V9.901H139.225V10.288H137.646V11.5615H137.196V8.4115H139.419V8.803H137.646Z" fill="white"/>
<path d="M142.07 10.3825C142.07 10.4155 142.067 10.459 142.061 10.513H140.126C140.153 10.723 140.245 10.8925 140.401 11.0215C140.56 11.1475 140.756 11.2105 140.99 11.2105C141.275 11.2105 141.505 11.1145 141.679 10.9225L141.917 11.2015C141.809 11.3275 141.674 11.4235 141.512 11.4895C141.353 11.5555 141.175 11.5885 140.977 11.5885C140.725 11.5885 140.501 11.5375 140.306 11.4355C140.111 11.3305 139.96 11.185 139.852 10.999C139.747 10.813 139.694 10.603 139.694 10.369C139.694 10.138 139.745 9.9295 139.847 9.7435C139.952 9.5575 140.095 9.4135 140.275 9.3115C140.458 9.2065 140.663 9.154 140.891 9.154C141.119 9.154 141.322 9.2065 141.499 9.3115C141.679 9.4135 141.818 9.5575 141.917 9.7435C142.019 9.9295 142.07 10.1425 142.07 10.3825ZM140.891 9.5185C140.684 9.5185 140.51 9.5815 140.369 9.7075C140.231 9.8335 140.15 9.9985 140.126 10.2025H141.656C141.632 10.0015 141.55 9.838 141.409 9.712C141.271 9.583 141.098 9.5185 140.891 9.5185Z" fill="white"/>
<path d="M143.472 9.154C143.802 9.154 144.054 9.235 144.228 9.397C144.405 9.559 144.494 9.8005 144.494 10.1215V11.5615H144.084V11.2465C144.012 11.3575 143.909 11.443 143.774 11.503C143.642 11.56 143.484 11.5885 143.301 11.5885C143.034 11.5885 142.82 11.524 142.658 11.395C142.499 11.266 142.419 11.0965 142.419 10.8865C142.419 10.6765 142.496 10.5085 142.649 10.3825C142.802 10.2535 143.045 10.189 143.378 10.189H144.062V10.1035C144.062 9.9175 144.008 9.775 143.9 9.676C143.792 9.577 143.633 9.5275 143.423 9.5275C143.282 9.5275 143.144 9.5515 143.009 9.5995C142.874 9.6445 142.76 9.706 142.667 9.784L142.487 9.46C142.61 9.361 142.757 9.286 142.928 9.235C143.099 9.181 143.28 9.154 143.472 9.154ZM143.373 11.2555C143.538 11.2555 143.681 11.2195 143.801 11.1475C143.921 11.0725 144.008 10.9675 144.062 10.8325V10.4995H143.396C143.03 10.4995 142.847 10.6225 142.847 10.8685C142.847 10.9885 142.893 11.083 142.986 11.152C143.079 11.221 143.208 11.2555 143.373 11.2555Z" fill="white"/>
<path d="M146.634 11.422C146.571 11.476 146.493 11.518 146.4 11.548C146.307 11.575 146.211 11.5885 146.112 11.5885C145.872 11.5885 145.686 11.524 145.554 11.395C145.422 11.266 145.356 11.0815 145.356 10.8415V9.532H144.951V9.1765H145.356V8.6545H145.788V9.1765H146.472V9.532H145.788V10.8235C145.788 10.9525 145.82 11.0515 145.883 11.1205C145.949 11.1895 146.042 11.224 146.162 11.224C146.294 11.224 146.406 11.1865 146.499 11.1115L146.634 11.422Z" fill="white"/>
<path d="M149.38 9.1765V11.5615H148.97V11.2015C148.883 11.3245 148.768 11.4205 148.624 11.4895C148.483 11.5555 148.328 11.5885 148.16 11.5885C147.842 11.5885 147.592 11.5015 147.409 11.3275C147.226 11.1505 147.134 10.891 147.134 10.549V9.1765H147.566V10.4995C147.566 10.7305 147.622 10.906 147.733 11.026C147.844 11.143 148.003 11.2015 148.21 11.2015C148.438 11.2015 148.618 11.1325 148.75 10.9945C148.882 10.8565 148.948 10.6615 148.948 10.4095V9.1765H149.38Z" fill="white"/>
<path d="M150.616 9.577C150.691 9.439 150.802 9.334 150.949 9.262C151.096 9.19 151.275 9.154 151.485 9.154V9.5725C151.461 9.5695 151.428 9.568 151.386 9.568C151.152 9.568 150.967 9.6385 150.832 9.7795C150.7 9.9175 150.634 10.1155 150.634 10.3735V11.5615H150.202V9.1765H150.616V9.577Z" fill="white"/>
<path d="M154.151 10.3825C154.151 10.4155 154.148 10.459 154.142 10.513H152.207C152.234 10.723 152.325 10.8925 152.481 11.0215C152.64 11.1475 152.837 11.2105 153.071 11.2105C153.356 11.2105 153.585 11.1145 153.759 10.9225L153.998 11.2015C153.89 11.3275 153.755 11.4235 153.593 11.4895C153.434 11.5555 153.255 11.5885 153.057 11.5885C152.805 11.5885 152.582 11.5375 152.387 11.4355C152.192 11.3305 152.04 11.185 151.932 10.999C151.827 10.813 151.775 10.603 151.775 10.369C151.775 10.138 151.826 9.9295 151.928 9.7435C152.033 9.5575 152.175 9.4135 152.355 9.3115C152.538 9.2065 152.744 9.154 152.972 9.154C153.2 9.154 153.402 9.2065 153.579 9.3115C153.759 9.4135 153.899 9.5575 153.998 9.7435C154.1 9.9295 154.151 10.1425 154.151 10.3825ZM152.972 9.5185C152.765 9.5185 152.591 9.5815 152.45 9.7075C152.312 9.8335 152.231 9.9985 152.207 10.2025H153.737C153.713 10.0015 153.63 9.838 153.489 9.712C153.351 9.583 153.179 9.5185 152.972 9.5185Z" fill="white"/>
<path d="M155.434 11.5885C155.239 11.5885 155.052 11.563 154.872 11.512C154.692 11.458 154.551 11.3905 154.449 11.3095L154.629 10.9675C154.734 11.0425 154.861 11.1025 155.011 11.1475C155.161 11.1925 155.313 11.215 155.466 11.215C155.844 11.215 156.033 11.107 156.033 10.891C156.033 10.819 156.007 10.762 155.956 10.72C155.905 10.678 155.841 10.648 155.763 10.63C155.688 10.609 155.58 10.5865 155.439 10.5625C155.247 10.5325 155.089 10.498 154.966 10.459C154.846 10.42 154.743 10.354 154.656 10.261C154.569 10.168 154.525 10.0375 154.525 9.8695C154.525 9.6535 154.615 9.481 154.795 9.352C154.975 9.22 155.217 9.154 155.52 9.154C155.679 9.154 155.838 9.1735 155.997 9.2125C156.156 9.2515 156.286 9.304 156.388 9.37L156.204 9.712C156.009 9.586 155.779 9.523 155.515 9.523C155.332 9.523 155.193 9.553 155.097 9.613C155.001 9.673 154.953 9.7525 154.953 9.8515C154.953 9.9295 154.98 9.991 155.034 10.036C155.088 10.081 155.154 10.114 155.232 10.135C155.313 10.156 155.425 10.18 155.569 10.207C155.761 10.24 155.916 10.276 156.033 10.315C156.153 10.351 156.255 10.414 156.339 10.504C156.423 10.594 156.465 10.72 156.465 10.882C156.465 11.098 156.372 11.2705 156.186 11.3995C156.003 11.5255 155.752 11.5885 155.434 11.5885Z" fill="white"/>
<path d="M164.584 9.58599C164.767 9.63699 164.911 9.72999 165.016 9.86499C165.121 9.99699 165.174 10.165 165.174 10.369C165.174 10.642 165.07 10.852 164.863 10.999C164.659 11.146 164.361 11.2195 163.968 11.2195H162.465V8.06949H163.878C164.238 8.06949 164.515 8.14149 164.71 8.28549C164.908 8.42949 165.007 8.62899 165.007 8.88399C165.007 9.04899 164.968 9.19149 164.89 9.31149C164.815 9.43149 164.713 9.52299 164.584 9.58599ZM162.915 8.43399V9.44199H163.837C164.068 9.44199 164.245 9.39999 164.368 9.31599C164.494 9.22899 164.557 9.10299 164.557 8.93799C164.557 8.77299 164.494 8.64849 164.368 8.56449C164.245 8.47749 164.068 8.43399 163.837 8.43399H162.915ZM163.95 10.855C164.205 10.855 164.397 10.813 164.526 10.729C164.655 10.645 164.719 10.513 164.719 10.333C164.719 9.98199 164.463 9.80649 163.95 9.80649H162.915V10.855H163.95Z" fill="white"/>
<path d="M165.808 7.88049H166.24V11.2195H165.808V7.88049Z" fill="white"/>
<path d="M168.086 11.2465C167.849 11.2465 167.636 11.194 167.447 11.089C167.258 10.984 167.11 10.84 167.002 10.657C166.897 10.471 166.844 10.261 166.844 10.027C166.844 9.79299 166.897 9.58449 167.002 9.40149C167.11 9.21549 167.258 9.07149 167.447 8.96949C167.636 8.86449 167.849 8.81199 168.086 8.81199C168.323 8.81199 168.535 8.86449 168.721 8.96949C168.91 9.07149 169.057 9.21549 169.162 9.40149C169.27 9.58449 169.324 9.79299 169.324 10.027C169.324 10.261 169.27 10.471 169.162 10.657C169.057 10.84 168.91 10.984 168.721 11.089C168.535 11.194 168.323 11.2465 168.086 11.2465ZM168.086 10.8685C168.239 10.8685 168.376 10.834 168.496 10.765C168.619 10.693 168.715 10.594 168.784 10.468C168.853 10.339 168.887 10.192 168.887 10.027C168.887 9.86199 168.853 9.71649 168.784 9.59049C168.715 9.46149 168.619 9.36249 168.496 9.29349C168.376 9.22449 168.239 9.18999 168.086 9.18999C167.933 9.18999 167.795 9.22449 167.672 9.29349C167.552 9.36249 167.456 9.46149 167.384 9.59049C167.315 9.71649 167.281 9.86199 167.281 10.027C167.281 10.192 167.315 10.339 167.384 10.468C167.456 10.594 167.552 10.693 167.672 10.765C167.795 10.834 167.933 10.8685 168.086 10.8685Z" fill="white"/>
<path d="M172.203 8.83449V10.8955C172.203 11.3125 172.099 11.62 171.892 11.818C171.685 12.019 171.376 12.1195 170.965 12.1195C170.74 12.1195 170.526 12.088 170.322 12.025C170.118 11.965 169.953 11.878 169.827 11.764L170.034 11.431C170.145 11.527 170.281 11.602 170.443 11.656C170.608 11.713 170.778 11.7415 170.952 11.7415C171.231 11.7415 171.436 11.6755 171.568 11.5435C171.703 11.4115 171.771 11.2105 171.771 10.9405V10.7515C171.669 10.8745 171.543 10.9675 171.393 11.0305C171.246 11.0905 171.085 11.1205 170.911 11.1205C170.683 11.1205 170.476 11.0725 170.29 10.9765C170.107 10.8775 169.963 10.741 169.858 10.567C169.753 10.39 169.701 10.189 169.701 9.96399C169.701 9.73899 169.753 9.53949 169.858 9.36549C169.963 9.18849 170.107 9.05199 170.29 8.95599C170.476 8.85999 170.683 8.81199 170.911 8.81199C171.091 8.81199 171.258 8.84499 171.411 8.91099C171.567 8.97699 171.694 9.07449 171.793 9.20349V8.83449H172.203ZM170.961 10.7425C171.117 10.7425 171.256 10.7095 171.379 10.6435C171.505 10.5775 171.603 10.486 171.672 10.369C171.744 10.249 171.78 10.114 171.78 9.96399C171.78 9.73299 171.703 9.54699 171.55 9.40599C171.397 9.26199 171.201 9.18999 170.961 9.18999C170.718 9.18999 170.52 9.26199 170.367 9.40599C170.214 9.54699 170.137 9.73299 170.137 9.96399C170.137 10.114 170.172 10.249 170.241 10.369C170.313 10.486 170.41 10.5775 170.533 10.6435C170.659 10.7095 170.802 10.7425 170.961 10.7425Z" fill="white"/>
<rect x="178.203" y="6.56799" width="20.7976" height="6.864" rx="1" fill="white"/>
<path d="M182.183 11.432C181.903 11.432 181.649 11.3707 181.423 11.248C181.199 11.1227 181.023 10.952 180.895 10.736C180.767 10.5173 180.703 10.272 180.703 9.99999C180.703 9.72799 180.767 9.48399 180.895 9.26799C181.023 9.04933 181.2 8.87866 181.427 8.75599C181.653 8.63066 181.907 8.56799 182.187 8.56799C182.405 8.56799 182.605 8.60533 182.787 8.67999C182.968 8.75199 183.123 8.85999 183.251 9.00399L182.991 9.25599C182.78 9.03466 182.517 8.92399 182.203 8.92399C181.995 8.92399 181.807 8.97066 181.639 9.06399C181.471 9.15733 181.339 9.28666 181.243 9.45199C181.149 9.61466 181.103 9.79733 181.103 9.99999C181.103 10.2027 181.149 10.3867 181.243 10.552C181.339 10.7147 181.471 10.8427 181.639 10.936C181.807 11.0293 181.995 11.076 182.203 11.076C182.515 11.076 182.777 10.964 182.991 10.74L183.251 10.992C183.123 11.136 182.967 11.2453 182.783 11.32C182.601 11.3947 182.401 11.432 182.183 11.432Z" fill="black"/>
<path d="M184.583 11.424C184.373 11.424 184.183 11.3773 184.015 11.284C183.847 11.1907 183.715 11.0627 183.619 10.9C183.526 10.7347 183.479 10.548 183.479 10.34C183.479 10.132 183.526 9.94666 183.619 9.78399C183.715 9.61866 183.847 9.49066 184.015 9.39999C184.183 9.30666 184.373 9.25999 184.583 9.25999C184.794 9.25999 184.982 9.30666 185.147 9.39999C185.315 9.49066 185.446 9.61866 185.539 9.78399C185.635 9.94666 185.683 10.132 185.683 10.34C185.683 10.548 185.635 10.7347 185.539 10.9C185.446 11.0627 185.315 11.1907 185.147 11.284C184.982 11.3773 184.794 11.424 184.583 11.424ZM184.583 11.088C184.719 11.088 184.841 11.0573 184.947 10.996C185.057 10.932 185.142 10.844 185.203 10.732C185.265 10.6173 185.295 10.4867 185.295 10.34C185.295 10.1933 185.265 10.064 185.203 9.95199C185.142 9.83733 185.057 9.74933 184.947 9.68799C184.841 9.62666 184.719 9.59599 184.583 9.59599C184.447 9.59599 184.325 9.62666 184.215 9.68799C184.109 9.74933 184.023 9.83733 183.959 9.95199C183.898 10.064 183.867 10.1933 183.867 10.34C183.867 10.4867 183.898 10.6173 183.959 10.732C184.023 10.844 184.109 10.932 184.215 10.996C184.325 11.0573 184.447 11.088 184.583 11.088Z" fill="black"/>
<path d="M187.346 9.25999C187.616 9.25999 187.829 9.33866 187.986 9.49599C188.146 9.65066 188.226 9.87866 188.226 10.18V11.4H187.842V10.224C187.842 10.0187 187.793 9.86399 187.694 9.75999C187.596 9.65599 187.454 9.60399 187.27 9.60399C187.062 9.60399 186.898 9.66533 186.778 9.78799C186.658 9.90799 186.598 10.0813 186.598 10.308V11.4H186.214V9.27999H186.582V9.59999C186.66 9.49066 186.764 9.40666 186.894 9.34799C187.028 9.28933 187.178 9.25999 187.346 9.25999Z" fill="black"/>
<path d="M190.129 11.276C190.073 11.324 190.004 11.3613 189.921 11.388C189.838 11.412 189.753 11.424 189.665 11.424C189.452 11.424 189.286 11.3667 189.169 11.252C189.052 11.1373 188.993 10.9733 188.993 10.76V9.59599H188.633V9.27999H188.993V8.81599H189.377V9.27999H189.985V9.59599H189.377V10.744C189.377 10.8587 189.405 10.9467 189.461 11.008C189.52 11.0693 189.602 11.1 189.709 11.1C189.826 11.1 189.926 11.0667 190.009 11L190.129 11.276Z" fill="black"/>
<path d="M191.365 9.25999C191.659 9.25999 191.883 9.33199 192.037 9.47599C192.195 9.61999 192.273 9.83466 192.273 10.12V11.4H191.909V11.12C191.845 11.2187 191.753 11.2947 191.633 11.348C191.516 11.3987 191.376 11.424 191.213 11.424C190.976 11.424 190.785 11.3667 190.641 11.252C190.5 11.1373 190.429 10.9867 190.429 10.8C190.429 10.6133 190.497 10.464 190.633 10.352C190.769 10.2373 190.985 10.18 191.281 10.18H191.889V10.104C191.889 9.93866 191.841 9.81199 191.745 9.72399C191.649 9.63599 191.508 9.59199 191.321 9.59199C191.196 9.59199 191.073 9.61333 190.953 9.65599C190.833 9.69599 190.732 9.75066 190.649 9.81999L190.489 9.53199C190.599 9.44399 190.729 9.37733 190.881 9.33199C191.033 9.28399 191.195 9.25999 191.365 9.25999ZM191.277 11.128C191.424 11.128 191.551 11.096 191.657 11.032C191.764 10.9653 191.841 10.872 191.889 10.752V10.456H191.297C190.972 10.456 190.809 10.5653 190.809 10.784C190.809 10.8907 190.851 10.9747 190.933 11.036C191.016 11.0973 191.131 11.128 191.277 11.128Z" fill="black"/>
<path d="M193.92 11.424C193.704 11.424 193.51 11.3773 193.34 11.284C193.172 11.1907 193.04 11.0627 192.944 10.9C192.848 10.7347 192.8 10.548 192.8 10.34C192.8 10.132 192.848 9.94666 192.944 9.78399C193.04 9.61866 193.172 9.49066 193.34 9.39999C193.51 9.30666 193.704 9.25999 193.92 9.25999C194.112 9.25999 194.282 9.29866 194.432 9.37599C194.584 9.45333 194.701 9.56533 194.784 9.71199L194.492 9.89999C194.425 9.79866 194.342 9.72266 194.244 9.67199C194.145 9.62133 194.036 9.59599 193.916 9.59599C193.777 9.59599 193.652 9.62666 193.54 9.68799C193.43 9.74933 193.344 9.83733 193.28 9.95199C193.218 10.064 193.188 10.1933 193.188 10.34C193.188 10.4893 193.218 10.6213 193.28 10.736C193.344 10.848 193.43 10.9347 193.54 10.996C193.652 11.0573 193.777 11.088 193.916 11.088C194.036 11.088 194.145 11.0627 194.244 11.012C194.342 10.9613 194.425 10.8853 194.492 10.784L194.784 10.968C194.701 11.1147 194.584 11.228 194.432 11.308C194.282 11.3853 194.112 11.424 193.92 11.424Z" fill="black"/>
<path d="M196.5 11.276C196.444 11.324 196.375 11.3613 196.292 11.388C196.209 11.412 196.124 11.424 196.036 11.424C195.823 11.424 195.657 11.3667 195.54 11.252C195.423 11.1373 195.364 10.9733 195.364 10.76V9.59599H195.004V9.27999H195.364V8.81599H195.748V9.27999H196.356V9.59599H195.748V10.744C195.748 10.8587 195.776 10.9467 195.832 11.008C195.891 11.0693 195.973 11.1 196.08 11.1C196.197 11.1 196.297 11.0667 196.38 11L196.5 11.276Z" fill="black"/>
</g>
<path d="M10.024 5C12.7871 5 15.0479 7.25 15.0479 10C15.0479 12.75 12.7871 15 10.024 15C7.26078 15 5 12.75 5 10C5 7.25 7.26078 5 10.024 5ZM18.8159 11.0833H20.5743V11.6667H18.0902V7.77778H18.8159V11.0833ZM21.2999 11.3056C20.9929 11.0556 20.8254 10.6667 20.8534 10.2778C20.8534 9.88889 21.0208 9.5 21.2999 9.25C21.914 8.66667 22.835 8.66667 23.4491 9.25C24.0352 9.77778 24.0631 10.6667 23.5328 11.25C23.5049 11.2778 23.477 11.3056 23.4491 11.3333C23.17 11.6111 22.7792 11.7778 22.3605 11.7778C21.9698 11.7222 21.579 11.5833 21.2999 11.3056ZM21.7744 9.63889C21.4674 10 21.4674 10.5278 21.7744 10.8889C22.0814 11.2222 22.6117 11.2222 22.9467 10.9167L22.9746 10.8889C23.2816 10.5278 23.2816 10 22.9746 9.63889C22.6676 9.30556 22.1373 9.27778 21.7744 9.63889C21.8023 9.61111 21.7744 9.61111 21.7744 9.63889ZM24.5655 12.5833L24.8446 12.0556C24.9563 12.1667 25.1237 12.25 25.2633 12.3056C25.4307 12.3611 25.5982 12.3889 25.7657 12.3889C25.989 12.3889 26.2402 12.3333 26.4076 12.1944C26.5751 12.0278 26.6867 11.8056 26.6588 11.5556V11.2222C26.5472 11.3611 26.4076 11.5 26.2681 11.5833C26.1006 11.6667 25.9052 11.7222 25.7098 11.7222C25.3191 11.7222 24.9563 11.5833 24.7051 11.3056C24.4539 11.0278 24.3143 10.6389 24.3143 10.25C24.3143 9.86111 24.4539 9.5 24.7051 9.22222C24.9563 8.94444 25.347 8.77778 25.7098 8.80556C26.1006 8.77778 26.4634 8.97222 26.6588 9.27778V8.86111H27.3566V11.3611C27.3845 11.8056 27.2449 12.25 26.9658 12.6111C26.6588 12.8889 26.2681 13.0278 25.8494 13C25.3749 13 24.9283 12.8611 24.5655 12.5833ZM24.9842 10.25C24.9842 10.4722 25.0679 10.7222 25.2075 10.8889C25.347 11.0556 25.5703 11.1667 25.8215 11.1389C25.9331 11.1389 26.0448 11.1111 26.1564 11.0833C26.2681 11.0556 26.3518 11 26.4355 10.9167C26.5193 10.8333 26.5751 10.75 26.603 10.6389C26.6309 10.5278 26.6588 10.3889 26.6588 10.2778C26.6588 10.1389 26.6309 10.0278 26.603 9.91667C26.5751 9.80556 26.4914 9.72222 26.4355 9.63889C26.3518 9.55556 26.2681 9.5 26.1564 9.44444C26.0448 9.38889 25.9331 9.38889 25.8215 9.38889C25.7098 9.38889 25.5982 9.41667 25.4866 9.44444C25.3749 9.5 25.2912 9.55556 25.2354 9.63889C25.1516 9.72222 25.0958 9.80556 25.0679 9.91667C25.0121 10 24.9842 10.1389 24.9842 10.25ZM28.3893 11.3056C28.0823 11.0556 27.9148 10.6667 27.9427 10.2778C27.9427 9.88889 28.1102 9.5 28.3893 9.25C29.0033 8.66667 29.9244 8.66667 30.5384 9.25C31.1246 9.77778 31.1525 10.6667 30.6222 11.25C30.5942 11.2778 30.5663 11.3056 30.5384 11.3333C30.2593 11.6111 29.8686 11.7778 29.4499 11.7778C29.0591 11.7222 28.6684 11.5833 28.3893 11.3056ZM28.8638 9.63889C28.5568 10 28.5568 10.5278 28.8638 10.8889C29.1708 11.2222 29.7011 11.2222 30.036 10.9167L30.0639 10.8889C30.371 10.5278 30.371 10 30.0639 9.63889C29.7569 9.30556 29.2266 9.27778 28.8638 9.63889C28.8638 9.61111 28.8638 9.61111 28.8638 9.63889Z" fill="#A1A8C2" fill-opacity="0.6"/>
<defs>
<clipPath id="clip0">
<rect x="119.07" y="6.56799" width="79.9297" height="6.864" fill="white"/>
</clipPath>
</defs>
</svg>
