<svg width="204" height="76" viewBox="0 0 204 76" fill="none" xmlns="http://www.w3.org/2000/svg">
<rect width="204" height="76" fill="white"/>
<path d="M10.42 39.2H10.82V41.652H12.336V42H10.42V39.2Z" fill="black"/>
<path d="M13.6197 42.024C13.409 42.024 13.2197 41.9773 13.0517 41.884C12.8837 41.7907 12.7517 41.6627 12.6557 41.5C12.5624 41.3347 12.5157 41.148 12.5157 40.94C12.5157 40.732 12.5624 40.5467 12.6557 40.384C12.7517 40.2187 12.8837 40.0907 13.0517 40C13.2197 39.9067 13.409 39.86 13.6197 39.86C13.8304 39.86 14.0184 39.9067 14.1837 40C14.3517 40.0907 14.4824 40.2187 14.5757 40.384C14.6717 40.5467 14.7197 40.732 14.7197 40.94C14.7197 41.148 14.6717 41.3347 14.5757 41.5C14.4824 41.6627 14.3517 41.7907 14.1837 41.884C14.0184 41.9773 13.8304 42.024 13.6197 42.024ZM13.6197 41.688C13.7557 41.688 13.877 41.6573 13.9837 41.596C14.093 41.532 14.1784 41.444 14.2397 41.332C14.301 41.2173 14.3317 41.0867 14.3317 40.94C14.3317 40.7933 14.301 40.664 14.2397 40.552C14.1784 40.4373 14.093 40.3493 13.9837 40.288C13.877 40.2267 13.7557 40.196 13.6197 40.196C13.4837 40.196 13.361 40.2267 13.2517 40.288C13.145 40.3493 13.0597 40.4373 12.9957 40.552C12.9344 40.664 12.9037 40.7933 12.9037 40.94C12.9037 41.0867 12.9344 41.2173 12.9957 41.332C13.0597 41.444 13.145 41.532 13.2517 41.596C13.361 41.6573 13.4837 41.688 13.6197 41.688Z" fill="black"/>
<path d="M15.6187 40.236C15.6854 40.1133 15.7841 40.02 15.9147 39.956C16.0454 39.892 16.2041 39.86 16.3907 39.86V40.232C16.3694 40.2293 16.3401 40.228 16.3027 40.228C16.0947 40.228 15.9307 40.2907 15.8107 40.416C15.6934 40.5387 15.6347 40.7147 15.6347 40.944V42H15.2507V39.88H15.6187V40.236Z" fill="black"/>
<path d="M18.7605 40.952C18.7605 40.9813 18.7578 41.02 18.7525 41.068H17.0325C17.0565 41.2547 17.1378 41.4053 17.2765 41.52C17.4178 41.632 17.5925 41.688 17.8005 41.688C18.0538 41.688 18.2578 41.6027 18.4125 41.432L18.6245 41.68C18.5285 41.792 18.4085 41.8773 18.2645 41.936C18.1232 41.9947 17.9645 42.024 17.7885 42.024C17.5645 42.024 17.3658 41.9787 17.1925 41.888C17.0192 41.7947 16.8845 41.6653 16.7885 41.5C16.6952 41.3347 16.6485 41.148 16.6485 40.94C16.6485 40.7347 16.6938 40.5493 16.7845 40.384C16.8778 40.2187 17.0045 40.0907 17.1645 40C17.3272 39.9067 17.5098 39.86 17.7125 39.86C17.9152 39.86 18.0952 39.9067 18.2525 40C18.4125 40.0907 18.5365 40.2187 18.6245 40.384C18.7152 40.5493 18.7605 40.7387 18.7605 40.952ZM17.7125 40.184C17.5285 40.184 17.3738 40.24 17.2485 40.352C17.1258 40.464 17.0538 40.6107 17.0325 40.792H18.3925C18.3712 40.6133 18.2978 40.468 18.1725 40.356C18.0498 40.2413 17.8965 40.184 17.7125 40.184Z" fill="black"/>
<path d="M21.9457 39.86C22.2124 39.86 22.4231 39.9373 22.5777 40.092C22.7351 40.2467 22.8137 40.476 22.8137 40.78V42H22.4297V40.824C22.4297 40.6187 22.3817 40.464 22.2857 40.36C22.1924 40.256 22.0577 40.204 21.8817 40.204C21.6871 40.204 21.5324 40.2653 21.4177 40.388C21.3031 40.508 21.2457 40.6813 21.2457 40.908V42H20.8617V40.824C20.8617 40.6187 20.8137 40.464 20.7177 40.36C20.6244 40.256 20.4897 40.204 20.3137 40.204C20.1191 40.204 19.9644 40.2653 19.8497 40.388C19.7351 40.508 19.6777 40.6813 19.6777 40.908V42H19.2937V39.88H19.6617V40.196C19.7391 40.0867 19.8404 40.004 19.9657 39.948C20.0911 39.8893 20.2337 39.86 20.3937 39.86C20.5591 39.86 20.7057 39.8933 20.8337 39.96C20.9617 40.0267 21.0604 40.124 21.1297 40.252C21.2097 40.1293 21.3204 40.0333 21.4617 39.964C21.6057 39.8947 21.7671 39.86 21.9457 39.86Z" fill="black"/>
<path d="M24.5945 39.88H24.9785V42H24.5945V39.88ZM24.7865 39.472C24.7118 39.472 24.6492 39.448 24.5985 39.4C24.5505 39.352 24.5265 39.2933 24.5265 39.224C24.5265 39.1547 24.5505 39.096 24.5985 39.048C24.6492 38.9973 24.7118 38.972 24.7865 38.972C24.8612 38.972 24.9225 38.996 24.9705 39.044C25.0212 39.0893 25.0465 39.1467 25.0465 39.216C25.0465 39.288 25.0212 39.3493 24.9705 39.4C24.9225 39.448 24.8612 39.472 24.7865 39.472Z" fill="black"/>
<path d="M26.8357 39.86C27.041 39.86 27.225 39.9053 27.3877 39.996C27.5504 40.0867 27.677 40.2133 27.7677 40.376C27.861 40.5387 27.9077 40.7267 27.9077 40.94C27.9077 41.1533 27.861 41.3427 27.7677 41.508C27.677 41.6707 27.5504 41.7973 27.3877 41.888C27.225 41.9787 27.041 42.024 26.8357 42.024C26.6837 42.024 26.5437 41.9947 26.4157 41.936C26.2904 41.8773 26.1837 41.792 26.0957 41.68V42.776H25.7117V39.88H26.0797V40.216C26.165 40.0987 26.273 40.0107 26.4037 39.952C26.5344 39.8907 26.6784 39.86 26.8357 39.86ZM26.8037 41.688C26.9397 41.688 27.061 41.6573 27.1677 41.596C27.277 41.532 27.3624 41.444 27.4237 41.332C27.4877 41.2173 27.5197 41.0867 27.5197 40.94C27.5197 40.7933 27.4877 40.664 27.4237 40.552C27.3624 40.4373 27.277 40.3493 27.1677 40.288C27.061 40.2267 26.9397 40.196 26.8037 40.196C26.6704 40.196 26.549 40.228 26.4397 40.292C26.333 40.3533 26.2477 40.44 26.1837 40.552C26.1224 40.664 26.0917 40.7933 26.0917 40.94C26.0917 41.0867 26.1224 41.2173 26.1837 41.332C26.245 41.444 26.3304 41.532 26.4397 41.596C26.549 41.6573 26.6704 41.688 26.8037 41.688Z" fill="black"/>
<path d="M29.0462 42.024C28.8729 42.024 28.7062 42.0013 28.5462 41.956C28.3862 41.908 28.2609 41.848 28.1702 41.776L28.3302 41.472C28.4236 41.5387 28.5369 41.592 28.6702 41.632C28.8036 41.672 28.9382 41.692 29.0742 41.692C29.4102 41.692 29.5782 41.596 29.5782 41.404C29.5782 41.34 29.5556 41.2893 29.5103 41.252C29.4649 41.2147 29.4076 41.188 29.3382 41.172C29.2716 41.1533 29.1756 41.1333 29.0502 41.112C28.8796 41.0853 28.7396 41.0547 28.6302 41.02C28.5236 40.9853 28.4316 40.9267 28.3542 40.844C28.2769 40.7613 28.2382 40.6453 28.2382 40.496C28.2382 40.304 28.3182 40.1507 28.4782 40.036C28.6382 39.9187 28.8529 39.86 29.1222 39.86C29.2636 39.86 29.4049 39.8773 29.5462 39.912C29.6876 39.9467 29.8036 39.9933 29.8942 40.052L29.7302 40.356C29.5569 40.244 29.3529 40.188 29.1182 40.188C28.9556 40.188 28.8316 40.2147 28.7463 40.268C28.6609 40.3213 28.6182 40.392 28.6182 40.48C28.6182 40.5493 28.6422 40.604 28.6902 40.644C28.7382 40.684 28.7969 40.7133 28.8662 40.732C28.9382 40.7507 29.0382 40.772 29.1662 40.796C29.3369 40.8253 29.4742 40.8573 29.5782 40.892C29.6849 40.924 29.7756 40.98 29.8503 41.06C29.9249 41.14 29.9622 41.252 29.9622 41.396C29.9622 41.588 29.8796 41.7413 29.7142 41.856C29.5516 41.968 29.3289 42.024 29.0462 42.024Z" fill="black"/>
<path d="M32.4182 39.88V42H32.0542V41.68C31.9768 41.7893 31.8742 41.8747 31.7462 41.936C31.6208 41.9947 31.4835 42.024 31.3342 42.024C31.0515 42.024 30.8288 41.9467 30.6662 41.792C30.5035 41.6347 30.4222 41.404 30.4222 41.1V39.88H30.8062V41.056C30.8062 41.2613 30.8555 41.4173 30.9542 41.524C31.0528 41.628 31.1942 41.68 31.3782 41.68C31.5808 41.68 31.7408 41.6187 31.8582 41.496C31.9755 41.3733 32.0342 41.2 32.0342 40.976V39.88H32.4182Z" fill="black"/>
<path d="M35.8012 39.86C36.0679 39.86 36.2785 39.9373 36.4332 40.092C36.5905 40.2467 36.6692 40.476 36.6692 40.78V42H36.2852V40.824C36.2852 40.6187 36.2372 40.464 36.1412 40.36C36.0479 40.256 35.9132 40.204 35.7372 40.204C35.5425 40.204 35.3879 40.2653 35.2732 40.388C35.1585 40.508 35.1012 40.6813 35.1012 40.908V42H34.7172V40.824C34.7172 40.6187 34.6692 40.464 34.5732 40.36C34.4799 40.256 34.3452 40.204 34.1692 40.204C33.9745 40.204 33.8199 40.2653 33.7052 40.388C33.5905 40.508 33.5332 40.6813 33.5332 40.908V42H33.1492V39.88H33.5172V40.196C33.5945 40.0867 33.6959 40.004 33.8212 39.948C33.9465 39.8893 34.0892 39.86 34.2492 39.86C34.4145 39.86 34.5612 39.8933 34.6892 39.96C34.8172 40.0267 34.9159 40.124 34.9852 40.252C35.0652 40.1293 35.1759 40.0333 35.3172 39.964C35.4612 39.8947 35.6225 39.86 35.8012 39.86Z" fill="black"/>
<path d="M40.45 39.032V42H40.082V41.664C39.9966 41.7813 39.8886 41.8707 39.758 41.932C39.6273 41.9933 39.4833 42.024 39.326 42.024C39.1206 42.024 38.9366 41.9787 38.774 41.888C38.6113 41.7973 38.4833 41.6707 38.39 41.508C38.2993 41.3427 38.254 41.1533 38.254 40.94C38.254 40.7267 38.2993 40.5387 38.39 40.376C38.4833 40.2133 38.6113 40.0867 38.774 39.996C38.9366 39.9053 39.1206 39.86 39.326 39.86C39.478 39.86 39.618 39.8893 39.746 39.948C39.874 40.004 39.9806 40.088 40.066 40.2V39.032H40.45ZM39.358 41.688C39.4913 41.688 39.6126 41.6573 39.722 41.596C39.8313 41.532 39.9166 41.444 39.978 41.332C40.0393 41.2173 40.07 41.0867 40.07 40.94C40.07 40.7933 40.0393 40.664 39.978 40.552C39.9166 40.4373 39.8313 40.3493 39.722 40.288C39.6126 40.2267 39.4913 40.196 39.358 40.196C39.222 40.196 39.0993 40.2267 38.99 40.288C38.8833 40.3493 38.798 40.4373 38.734 40.552C38.6726 40.664 38.642 40.7933 38.642 40.94C38.642 41.0867 38.6726 41.2173 38.734 41.332C38.798 41.444 38.8833 41.532 38.99 41.596C39.0993 41.6573 39.222 41.688 39.358 41.688Z" fill="black"/>
<path d="M42.0845 42.024C41.8739 42.024 41.6845 41.9773 41.5165 41.884C41.3485 41.7907 41.2165 41.6627 41.1205 41.5C41.0272 41.3347 40.9805 41.148 40.9805 40.94C40.9805 40.732 41.0272 40.5467 41.1205 40.384C41.2165 40.2187 41.3485 40.0907 41.5165 40C41.6845 39.9067 41.8739 39.86 42.0845 39.86C42.2952 39.86 42.4832 39.9067 42.6485 40C42.8165 40.0907 42.9472 40.2187 43.0405 40.384C43.1365 40.5467 43.1845 40.732 43.1845 40.94C43.1845 41.148 43.1365 41.3347 43.0405 41.5C42.9472 41.6627 42.8165 41.7907 42.6485 41.884C42.4832 41.9773 42.2952 42.024 42.0845 42.024ZM42.0845 41.688C42.2205 41.688 42.3419 41.6573 42.4485 41.596C42.5579 41.532 42.6432 41.444 42.7045 41.332C42.7659 41.2173 42.7965 41.0867 42.7965 40.94C42.7965 40.7933 42.7659 40.664 42.7045 40.552C42.6432 40.4373 42.5579 40.3493 42.4485 40.288C42.3419 40.2267 42.2205 40.196 42.0845 40.196C41.9485 40.196 41.8259 40.2267 41.7165 40.288C41.6099 40.3493 41.5245 40.4373 41.4605 40.552C41.3992 40.664 41.3685 40.7933 41.3685 40.94C41.3685 41.0867 41.3992 41.2173 41.4605 41.332C41.5245 41.444 41.6099 41.532 41.7165 41.596C41.8259 41.6573 41.9485 41.688 42.0845 41.688Z" fill="black"/>
<path d="M43.7156 39.032H44.0996V42H43.7156V39.032Z" fill="black"/>
<path d="M45.7408 42.024C45.5301 42.024 45.3408 41.9773 45.1728 41.884C45.0048 41.7907 44.8728 41.6627 44.7768 41.5C44.6834 41.3347 44.6368 41.148 44.6368 40.94C44.6368 40.732 44.6834 40.5467 44.7768 40.384C44.8728 40.2187 45.0048 40.0907 45.1728 40C45.3408 39.9067 45.5301 39.86 45.7408 39.86C45.9514 39.86 46.1394 39.9067 46.3048 40C46.4728 40.0907 46.6034 40.2187 46.6968 40.384C46.7928 40.5467 46.8408 40.732 46.8408 40.94C46.8408 41.148 46.7928 41.3347 46.6968 41.5C46.6034 41.6627 46.4728 41.7907 46.3048 41.884C46.1394 41.9773 45.9514 42.024 45.7408 42.024ZM45.7408 41.688C45.8768 41.688 45.9981 41.6573 46.1048 41.596C46.2141 41.532 46.2994 41.444 46.3608 41.332C46.4221 41.2173 46.4528 41.0867 46.4528 40.94C46.4528 40.7933 46.4221 40.664 46.3608 40.552C46.2994 40.4373 46.2141 40.3493 46.1048 40.288C45.9981 40.2267 45.8768 40.196 45.7408 40.196C45.6048 40.196 45.4821 40.2267 45.3728 40.288C45.2661 40.3493 45.1808 40.4373 45.1168 40.552C45.0554 40.664 45.0248 40.7933 45.0248 40.94C45.0248 41.0867 45.0554 41.2173 45.1168 41.332C45.1808 41.444 45.2661 41.532 45.3728 41.596C45.4821 41.6573 45.6048 41.688 45.7408 41.688Z" fill="black"/>
<path d="M47.7398 40.236C47.8065 40.1133 47.9052 40.02 48.0358 39.956C48.1665 39.892 48.3252 39.86 48.5118 39.86V40.232C48.4905 40.2293 48.4612 40.228 48.4238 40.228C48.2158 40.228 48.0518 40.2907 47.9318 40.416C47.8145 40.5387 47.7558 40.7147 47.7558 40.944V42H47.3718V39.88H47.7398V40.236Z" fill="black"/>
<path d="M50.6947 42.024C50.5214 42.024 50.3547 42.0013 50.1947 41.956C50.0347 41.908 49.9094 41.848 49.8187 41.776L49.9787 41.472C50.072 41.5387 50.1854 41.592 50.3187 41.632C50.452 41.672 50.5867 41.692 50.7227 41.692C51.0587 41.692 51.2267 41.596 51.2267 41.404C51.2267 41.34 51.204 41.2893 51.1587 41.252C51.1134 41.2147 51.056 41.188 50.9867 41.172C50.92 41.1533 50.824 41.1333 50.6987 41.112C50.528 41.0853 50.388 41.0547 50.2787 41.02C50.172 40.9853 50.08 40.9267 50.0027 40.844C49.9254 40.7613 49.8867 40.6453 49.8867 40.496C49.8867 40.304 49.9667 40.1507 50.1267 40.036C50.2867 39.9187 50.5014 39.86 50.7707 39.86C50.912 39.86 51.0534 39.8773 51.1947 39.912C51.336 39.9467 51.452 39.9933 51.5427 40.052L51.3787 40.356C51.2054 40.244 51.0014 40.188 50.7667 40.188C50.604 40.188 50.48 40.2147 50.3947 40.268C50.3094 40.3213 50.2667 40.392 50.2667 40.48C50.2667 40.5493 50.2907 40.604 50.3387 40.644C50.3867 40.684 50.4454 40.7133 50.5147 40.732C50.5867 40.7507 50.6867 40.772 50.8147 40.796C50.9854 40.8253 51.1227 40.8573 51.2267 40.892C51.3334 40.924 51.424 40.98 51.4987 41.06C51.5734 41.14 51.6107 41.252 51.6107 41.396C51.6107 41.588 51.528 41.7413 51.3627 41.856C51.2 41.968 50.9774 42.024 50.6947 42.024Z" fill="black"/>
<path d="M52.0906 39.88H52.4746V42H52.0906V39.88ZM52.2826 39.472C52.2079 39.472 52.1453 39.448 52.0946 39.4C52.0466 39.352 52.0226 39.2933 52.0226 39.224C52.0226 39.1547 52.0466 39.096 52.0946 39.048C52.1453 38.9973 52.2079 38.972 52.2826 38.972C52.3573 38.972 52.4186 38.996 52.4666 39.044C52.5173 39.0893 52.5426 39.1467 52.5426 39.216C52.5426 39.288 52.5173 39.3493 52.4666 39.4C52.4186 39.448 52.3573 39.472 52.2826 39.472Z" fill="black"/>
<path d="M54.3998 41.876C54.3438 41.924 54.2744 41.9613 54.1918 41.988C54.1091 42.012 54.0238 42.024 53.9358 42.024C53.7224 42.024 53.5571 41.9667 53.4398 41.852C53.3224 41.7373 53.2638 41.5733 53.2638 41.36V40.196H52.9038V39.88H53.2638V39.416H53.6478V39.88H54.2558V40.196H53.6478V41.344C53.6478 41.4587 53.6758 41.5467 53.7318 41.608C53.7904 41.6693 53.8731 41.7 53.9798 41.7C54.0971 41.7 54.1971 41.6667 54.2798 41.6L54.3998 41.876Z" fill="black"/>
<path d="M56.7103 39.86C57.0036 39.86 57.2276 39.932 57.3822 40.076C57.5396 40.22 57.6182 40.4347 57.6182 40.72V42H57.2542V41.72C57.1902 41.8187 57.0982 41.8947 56.9782 41.948C56.8609 41.9987 56.7209 42.024 56.5583 42.024C56.3209 42.024 56.1302 41.9667 55.9862 41.852C55.8449 41.7373 55.7743 41.5867 55.7743 41.4C55.7743 41.2133 55.8422 41.064 55.9782 40.952C56.1142 40.8373 56.3303 40.78 56.6263 40.78H57.2342V40.704C57.2342 40.5387 57.1862 40.412 57.0902 40.324C56.9942 40.236 56.8529 40.192 56.6662 40.192C56.5409 40.192 56.4182 40.2133 56.2982 40.256C56.1782 40.296 56.0769 40.3507 55.9942 40.42L55.8342 40.132C55.9436 40.044 56.0742 39.9773 56.2262 39.932C56.3782 39.884 56.5396 39.86 56.7103 39.86ZM56.6222 41.728C56.7689 41.728 56.8956 41.696 57.0023 41.632C57.1089 41.5653 57.1862 41.472 57.2342 41.352V41.056H56.6423C56.3169 41.056 56.1543 41.1653 56.1543 41.384C56.1543 41.4907 56.1956 41.5747 56.2782 41.636C56.3609 41.6973 56.4756 41.728 56.6222 41.728Z" fill="black"/>
<path d="M60.9809 39.86C61.2475 39.86 61.4582 39.9373 61.6129 40.092C61.7702 40.2467 61.8489 40.476 61.8489 40.78V42H61.4649V40.824C61.4649 40.6187 61.4169 40.464 61.3209 40.36C61.2275 40.256 61.0929 40.204 60.9169 40.204C60.7222 40.204 60.5675 40.2653 60.4529 40.388C60.3382 40.508 60.2809 40.6813 60.2809 40.908V42H59.8969V40.824C59.8969 40.6187 59.8489 40.464 59.7529 40.36C59.6595 40.256 59.5249 40.204 59.3489 40.204C59.1542 40.204 58.9995 40.2653 58.8849 40.388C58.7702 40.508 58.7129 40.6813 58.7129 40.908V42H58.3289V39.88H58.6969V40.196C58.7742 40.0867 58.8755 40.004 59.0009 39.948C59.1262 39.8893 59.2689 39.86 59.4289 39.86C59.5942 39.86 59.7409 39.8933 59.8689 39.96C59.9969 40.0267 60.0955 40.124 60.1649 40.252C60.2449 40.1293 60.3555 40.0333 60.4969 39.964C60.6409 39.8947 60.8022 39.86 60.9809 39.86Z" fill="black"/>
<path d="M64.4832 40.952C64.4832 40.9813 64.4805 41.02 64.4752 41.068H62.7552C62.7792 41.2547 62.8605 41.4053 62.9992 41.52C63.1405 41.632 63.3152 41.688 63.5232 41.688C63.7765 41.688 63.9805 41.6027 64.1352 41.432L64.3472 41.68C64.2512 41.792 64.1312 41.8773 63.9872 41.936C63.8458 41.9947 63.6872 42.024 63.5112 42.024C63.2872 42.024 63.0885 41.9787 62.9152 41.888C62.7418 41.7947 62.6072 41.6653 62.5112 41.5C62.4178 41.3347 62.3712 41.148 62.3712 40.94C62.3712 40.7347 62.4165 40.5493 62.5072 40.384C62.6005 40.2187 62.7272 40.0907 62.8872 40C63.0498 39.9067 63.2325 39.86 63.4352 39.86C63.6378 39.86 63.8178 39.9067 63.9752 40C64.1352 40.0907 64.2592 40.2187 64.3472 40.384C64.4378 40.5493 64.4832 40.7387 64.4832 40.952ZM63.4352 40.184C63.2512 40.184 63.0965 40.24 62.9712 40.352C62.8485 40.464 62.7765 40.6107 62.7552 40.792H64.1152C64.0938 40.6133 64.0205 40.468 63.8952 40.356C63.7725 40.2413 63.6192 40.184 63.4352 40.184Z" fill="black"/>
<path d="M66.2084 41.876C66.1524 41.924 66.083 41.9613 66.0004 41.988C65.9177 42.012 65.8324 42.024 65.7444 42.024C65.531 42.024 65.3657 41.9667 65.2484 41.852C65.131 41.7373 65.0724 41.5733 65.0724 41.36V40.196H64.7124V39.88H65.0724V39.416H65.4564V39.88H66.0644V40.196H65.4564V41.344C65.4564 41.4587 65.4844 41.5467 65.5404 41.608C65.599 41.6693 65.6817 41.7 65.7884 41.7C65.9057 41.7 66.0057 41.6667 66.0884 41.6L66.2084 41.876Z" fill="black"/>
<path d="M66.8077 41.476C66.8824 41.476 66.9437 41.5027 66.9917 41.556C67.0424 41.6067 67.0677 41.6707 67.0677 41.748C67.0677 41.788 67.0624 41.8267 67.0517 41.864C67.0437 41.9013 67.0264 41.9587 66.9997 42.036L66.8117 42.592H66.5597L66.7077 41.996C66.657 41.9773 66.6157 41.9467 66.5837 41.904C66.5544 41.8587 66.5397 41.8067 66.5397 41.748C66.5397 41.668 66.565 41.6027 66.6157 41.552C66.6664 41.5013 66.7304 41.476 66.8077 41.476Z" fill="black"/>
<path d="M11.288 49.024C11.072 49.024 10.8787 48.9773 10.708 48.884C10.54 48.7907 10.408 48.6627 10.312 48.5C10.216 48.3347 10.168 48.148 10.168 47.94C10.168 47.732 10.216 47.5467 10.312 47.384C10.408 47.2187 10.54 47.0907 10.708 47C10.8787 46.9067 11.072 46.86 11.288 46.86C11.48 46.86 11.6507 46.8987 11.8 46.976C11.952 47.0533 12.0694 47.1653 12.152 47.312L11.86 47.5C11.7934 47.3987 11.7107 47.3227 11.612 47.272C11.5134 47.2213 11.404 47.196 11.284 47.196C11.1454 47.196 11.02 47.2267 10.908 47.288C10.7987 47.3493 10.712 47.4373 10.648 47.552C10.5867 47.664 10.556 47.7933 10.556 47.94C10.556 48.0893 10.5867 48.2213 10.648 48.336C10.712 48.448 10.7987 48.5347 10.908 48.596C11.02 48.6573 11.1454 48.688 11.284 48.688C11.404 48.688 11.5134 48.6627 11.612 48.612C11.7107 48.5613 11.7934 48.4853 11.86 48.384L12.152 48.568C12.0694 48.7147 11.952 48.828 11.8 48.908C11.6507 48.9853 11.48 49.024 11.288 49.024Z" fill="black"/>
<path d="M13.5259 49.024C13.3153 49.024 13.1259 48.9773 12.9579 48.884C12.7899 48.7907 12.6579 48.6627 12.5619 48.5C12.4686 48.3347 12.4219 48.148 12.4219 47.94C12.4219 47.732 12.4686 47.5467 12.5619 47.384C12.6579 47.2187 12.7899 47.0907 12.9579 47C13.1259 46.9067 13.3153 46.86 13.5259 46.86C13.7366 46.86 13.9246 46.9067 14.0899 47C14.2579 47.0907 14.3886 47.2187 14.4819 47.384C14.5779 47.5467 14.6259 47.732 14.6259 47.94C14.6259 48.148 14.5779 48.3347 14.4819 48.5C14.3886 48.6627 14.2579 48.7907 14.0899 48.884C13.9246 48.9773 13.7366 49.024 13.5259 49.024ZM13.5259 48.688C13.6619 48.688 13.7833 48.6573 13.8899 48.596C13.9993 48.532 14.0846 48.444 14.1459 48.332C14.2073 48.2173 14.2379 48.0867 14.2379 47.94C14.2379 47.7933 14.2073 47.664 14.1459 47.552C14.0846 47.4373 13.9993 47.3493 13.8899 47.288C13.7833 47.2267 13.6619 47.196 13.5259 47.196C13.3899 47.196 13.2673 47.2267 13.1579 47.288C13.0513 47.3493 12.9659 47.4373 12.9019 47.552C12.8406 47.664 12.8099 47.7933 12.8099 47.94C12.8099 48.0867 12.8406 48.2173 12.9019 48.332C12.9659 48.444 13.0513 48.532 13.1579 48.596C13.2673 48.6573 13.3899 48.688 13.5259 48.688Z" fill="black"/>
<path d="M16.289 46.86C16.5583 46.86 16.7717 46.9387 16.929 47.096C17.089 47.2507 17.169 47.4787 17.169 47.78V49H16.785V47.824C16.785 47.6187 16.7357 47.464 16.637 47.36C16.5383 47.256 16.397 47.204 16.213 47.204C16.005 47.204 15.841 47.2653 15.721 47.388C15.601 47.508 15.541 47.6813 15.541 47.908V49H15.157V46.88H15.525V47.2C15.6023 47.0907 15.7063 47.0067 15.837 46.948C15.9703 46.8893 16.121 46.86 16.289 46.86Z" fill="black"/>
<path d="M18.4877 49.024C18.3143 49.024 18.1477 49.0013 17.9877 48.956C17.8277 48.908 17.7023 48.848 17.6117 48.776L17.7717 48.472C17.865 48.5387 17.9783 48.592 18.1117 48.632C18.245 48.672 18.3797 48.692 18.5157 48.692C18.8517 48.692 19.0197 48.596 19.0197 48.404C19.0197 48.34 18.997 48.2893 18.9517 48.252C18.9063 48.2147 18.849 48.188 18.7797 48.172C18.713 48.1533 18.617 48.1333 18.4917 48.112C18.321 48.0853 18.181 48.0547 18.0717 48.02C17.965 47.9853 17.873 47.9267 17.7957 47.844C17.7183 47.7613 17.6797 47.6453 17.6797 47.496C17.6797 47.304 17.7597 47.1507 17.9197 47.036C18.0797 46.9187 18.2943 46.86 18.5637 46.86C18.705 46.86 18.8463 46.8773 18.9877 46.912C19.129 46.9467 19.245 46.9933 19.3357 47.052L19.1717 47.356C18.9983 47.244 18.7943 47.188 18.5597 47.188C18.397 47.188 18.273 47.2147 18.1877 47.268C18.1023 47.3213 18.0597 47.392 18.0597 47.48C18.0597 47.5493 18.0837 47.604 18.1317 47.644C18.1797 47.684 18.2383 47.7133 18.3077 47.732C18.3797 47.7507 18.4797 47.772 18.6077 47.796C18.7783 47.8253 18.9157 47.8573 19.0197 47.892C19.1263 47.924 19.217 47.98 19.2917 48.06C19.3663 48.14 19.4037 48.252 19.4037 48.396C19.4037 48.588 19.321 48.7413 19.1557 48.856C18.993 48.968 18.7703 49.024 18.4877 49.024Z" fill="black"/>
<path d="M21.7996 47.952C21.7996 47.9813 21.7969 48.02 21.7916 48.068H20.0716C20.0956 48.2547 20.1769 48.4053 20.3156 48.52C20.4569 48.632 20.6316 48.688 20.8396 48.688C21.0929 48.688 21.2969 48.6027 21.4516 48.432L21.6636 48.68C21.5676 48.792 21.4476 48.8773 21.3036 48.936C21.1622 48.9947 21.0036 49.024 20.8276 49.024C20.6036 49.024 20.4049 48.9787 20.2316 48.888C20.0582 48.7947 19.9236 48.6653 19.8276 48.5C19.7342 48.3347 19.6876 48.148 19.6876 47.94C19.6876 47.7347 19.7329 47.5493 19.8236 47.384C19.9169 47.2187 20.0436 47.0907 20.2036 47C20.3662 46.9067 20.5489 46.86 20.7516 46.86C20.9542 46.86 21.1342 46.9067 21.2916 47C21.4516 47.0907 21.5756 47.2187 21.6636 47.384C21.7542 47.5493 21.7996 47.7387 21.7996 47.952ZM20.7516 47.184C20.5676 47.184 20.4129 47.24 20.2876 47.352C20.1649 47.464 20.0929 47.6107 20.0716 47.792H21.4316C21.4102 47.6133 21.3369 47.468 21.2116 47.356C21.0889 47.2413 20.9356 47.184 20.7516 47.184Z" fill="black"/>
<path d="M23.2568 49.024C23.0408 49.024 22.8474 48.9773 22.6768 48.884C22.5088 48.7907 22.3768 48.6627 22.2808 48.5C22.1848 48.3347 22.1368 48.148 22.1368 47.94C22.1368 47.732 22.1848 47.5467 22.2808 47.384C22.3768 47.2187 22.5088 47.0907 22.6768 47C22.8474 46.9067 23.0408 46.86 23.2568 46.86C23.4488 46.86 23.6194 46.8987 23.7688 46.976C23.9208 47.0533 24.0381 47.1653 24.1208 47.312L23.8288 47.5C23.7621 47.3987 23.6794 47.3227 23.5808 47.272C23.4821 47.2213 23.3728 47.196 23.2528 47.196C23.1141 47.196 22.9888 47.2267 22.8768 47.288C22.7674 47.3493 22.6808 47.4373 22.6168 47.552C22.5554 47.664 22.5248 47.7933 22.5248 47.94C22.5248 48.0893 22.5554 48.2213 22.6168 48.336C22.6808 48.448 22.7674 48.5347 22.8768 48.596C22.9888 48.6573 23.1141 48.688 23.2528 48.688C23.3728 48.688 23.4821 48.6627 23.5808 48.612C23.6794 48.5613 23.7621 48.4853 23.8288 48.384L24.1208 48.568C24.0381 48.7147 23.9208 48.828 23.7688 48.908C23.6194 48.9853 23.4488 49.024 23.2568 49.024Z" fill="black"/>
<path d="M25.8373 48.876C25.7813 48.924 25.7119 48.9613 25.6293 48.988C25.5466 49.012 25.4613 49.024 25.3733 49.024C25.1599 49.024 24.9946 48.9667 24.8773 48.852C24.7599 48.7373 24.7013 48.5733 24.7013 48.36V47.196H24.3413V46.88H24.7013V46.416H25.0853V46.88H25.6933V47.196H25.0853V48.344C25.0853 48.4587 25.1133 48.5467 25.1693 48.608C25.2279 48.6693 25.3106 48.7 25.4173 48.7C25.5346 48.7 25.6346 48.6667 25.7173 48.6L25.8373 48.876Z" fill="black"/>
<path d="M28.1472 47.952C28.1472 47.9813 28.1446 48.02 28.1392 48.068H26.4192C26.4432 48.2547 26.5246 48.4053 26.6632 48.52C26.8046 48.632 26.9792 48.688 27.1872 48.688C27.4406 48.688 27.6446 48.6027 27.7992 48.432L28.0112 48.68C27.9152 48.792 27.7952 48.8773 27.6512 48.936C27.5099 48.9947 27.3512 49.024 27.1752 49.024C26.9512 49.024 26.7526 48.9787 26.5792 48.888C26.4059 48.7947 26.2712 48.6653 26.1752 48.5C26.0819 48.3347 26.0352 48.148 26.0352 47.94C26.0352 47.7347 26.0806 47.5493 26.1712 47.384C26.2646 47.2187 26.3912 47.0907 26.5512 47C26.7139 46.9067 26.8966 46.86 27.0992 46.86C27.3019 46.86 27.4819 46.9067 27.6392 47C27.7992 47.0907 27.9232 47.2187 28.0112 47.384C28.1019 47.5493 28.1472 47.7387 28.1472 47.952ZM27.0992 47.184C26.9152 47.184 26.7606 47.24 26.6352 47.352C26.5126 47.464 26.4406 47.6107 26.4192 47.792H27.7792C27.7579 47.6133 27.6846 47.468 27.5592 47.356C27.4366 47.2413 27.2832 47.184 27.0992 47.184Z" fill="black"/>
<path d="M29.8724 48.876C29.8164 48.924 29.7471 48.9613 29.6644 48.988C29.5818 49.012 29.4964 49.024 29.4084 49.024C29.1951 49.024 29.0298 48.9667 28.9124 48.852C28.7951 48.7373 28.7364 48.5733 28.7364 48.36V47.196H28.3764V46.88H28.7364V46.416H29.1204V46.88H29.7284V47.196H29.1204V48.344C29.1204 48.4587 29.1484 48.5467 29.2044 48.608C29.2631 48.6693 29.3458 48.7 29.4524 48.7C29.5698 48.7 29.6698 48.6667 29.7524 48.6L29.8724 48.876Z" fill="black"/>
<path d="M32.3127 46.88V49H31.9487V48.68C31.8714 48.7893 31.7687 48.8747 31.6407 48.936C31.5154 48.9947 31.378 49.024 31.2287 49.024C30.946 49.024 30.7234 48.9467 30.5607 48.792C30.398 48.6347 30.3167 48.404 30.3167 48.1V46.88H30.7007V48.056C30.7007 48.2613 30.75 48.4173 30.8487 48.524C30.9474 48.628 31.0887 48.68 31.2727 48.68C31.4754 48.68 31.6354 48.6187 31.7527 48.496C31.87 48.3733 31.9287 48.2 31.9287 47.976V46.88H32.3127Z" fill="black"/>
<path d="M34.9597 47.952C34.9597 47.9813 34.9571 48.02 34.9517 48.068H33.2317C33.2557 48.2547 33.3371 48.4053 33.4757 48.52C33.6171 48.632 33.7917 48.688 33.9997 48.688C34.2531 48.688 34.4571 48.6027 34.6117 48.432L34.8237 48.68C34.7277 48.792 34.6077 48.8773 34.4637 48.936C34.3224 48.9947 34.1637 49.024 33.9877 49.024C33.7637 49.024 33.5651 48.9787 33.3917 48.888C33.2184 48.7947 33.0837 48.6653 32.9877 48.5C32.8944 48.3347 32.8477 48.148 32.8477 47.94C32.8477 47.7347 32.8931 47.5493 32.9837 47.384C33.0771 47.2187 33.2037 47.0907 33.3637 47C33.5264 46.9067 33.7091 46.86 33.9117 46.86C34.1144 46.86 34.2944 46.9067 34.4517 47C34.6117 47.0907 34.7357 47.2187 34.8237 47.384C34.9144 47.5493 34.9597 47.7387 34.9597 47.952ZM33.9117 47.184C33.7277 47.184 33.5731 47.24 33.4477 47.352C33.3251 47.464 33.2531 47.6107 33.2317 47.792H34.5917C34.5704 47.6133 34.4971 47.468 34.3717 47.356C34.2491 47.2413 34.0957 47.184 33.9117 47.184Z" fill="black"/>
<path d="M35.8609 47.236C35.9276 47.1133 36.0263 47.02 36.1569 46.956C36.2876 46.892 36.4463 46.86 36.6329 46.86V47.232C36.6116 47.2293 36.5823 47.228 36.5449 47.228C36.3369 47.228 36.1729 47.2907 36.0529 47.416C35.9356 47.5387 35.8769 47.7147 35.8769 47.944V49H35.4929V46.88H35.8609V47.236Z" fill="black"/>
<path d="M38.9798 46.86C39.2731 46.86 39.4971 46.932 39.6518 47.076C39.8091 47.22 39.8878 47.4347 39.8878 47.72V49H39.5238V48.72C39.4598 48.8187 39.3678 48.8947 39.2478 48.948C39.1304 48.9987 38.9904 49.024 38.8278 49.024C38.5904 49.024 38.3998 48.9667 38.2558 48.852C38.1144 48.7373 38.0438 48.5867 38.0438 48.4C38.0438 48.2133 38.1118 48.064 38.2478 47.952C38.3838 47.8373 38.5998 47.78 38.8958 47.78H39.5038V47.704C39.5038 47.5387 39.4558 47.412 39.3598 47.324C39.2638 47.236 39.1224 47.192 38.9358 47.192C38.8104 47.192 38.6878 47.2133 38.5678 47.256C38.4478 47.296 38.3464 47.3507 38.2638 47.42L38.1038 47.132C38.2131 47.044 38.3438 46.9773 38.4958 46.932C38.6478 46.884 38.8091 46.86 38.9798 46.86ZM38.8918 48.728C39.0384 48.728 39.1651 48.696 39.2718 48.632C39.3784 48.5653 39.4558 48.472 39.5038 48.352V48.056H38.9118C38.5864 48.056 38.4238 48.1653 38.4238 48.384C38.4238 48.4907 38.4651 48.5747 38.5478 48.636C38.6304 48.6973 38.7451 48.728 38.8918 48.728Z" fill="black"/>
<path d="M42.6101 46.032V49H42.2421V48.664C42.1568 48.7813 42.0488 48.8707 41.9181 48.932C41.7875 48.9933 41.6435 49.024 41.4861 49.024C41.2808 49.024 41.0968 48.9787 40.9341 48.888C40.7715 48.7973 40.6435 48.6707 40.5501 48.508C40.4595 48.3427 40.4141 48.1533 40.4141 47.94C40.4141 47.7267 40.4595 47.5387 40.5501 47.376C40.6435 47.2133 40.7715 47.0867 40.9341 46.996C41.0968 46.9053 41.2808 46.86 41.4861 46.86C41.6381 46.86 41.7781 46.8893 41.9061 46.948C42.0341 47.004 42.1408 47.088 42.2261 47.2V46.032H42.6101ZM41.5181 48.688C41.6515 48.688 41.7728 48.6573 41.8821 48.596C41.9915 48.532 42.0768 48.444 42.1381 48.332C42.1995 48.2173 42.2301 48.0867 42.2301 47.94C42.2301 47.7933 42.1995 47.664 42.1381 47.552C42.0768 47.4373 41.9915 47.3493 41.8821 47.288C41.7728 47.2267 41.6515 47.196 41.5181 47.196C41.3821 47.196 41.2595 47.2267 41.1501 47.288C41.0435 47.3493 40.9581 47.4373 40.8941 47.552C40.8328 47.664 40.8021 47.7933 40.8021 47.94C40.8021 48.0867 40.8328 48.2173 40.8941 48.332C40.9581 48.444 41.0435 48.532 41.1501 48.596C41.2595 48.6573 41.3821 48.688 41.5181 48.688Z" fill="black"/>
<path d="M43.3367 46.88H43.7207V49H43.3367V46.88ZM43.5287 46.472C43.454 46.472 43.3914 46.448 43.3407 46.4C43.2927 46.352 43.2687 46.2933 43.2687 46.224C43.2687 46.1547 43.2927 46.096 43.3407 46.048C43.3914 45.9973 43.454 45.972 43.5287 45.972C43.6034 45.972 43.6647 45.996 43.7127 46.044C43.7634 46.0893 43.7887 46.1467 43.7887 46.216C43.7887 46.288 43.7634 46.3493 43.7127 46.4C43.6647 46.448 43.6034 46.472 43.5287 46.472Z" fill="black"/>
<path d="M45.5779 46.86C45.7832 46.86 45.9672 46.9053 46.1299 46.996C46.2925 47.0867 46.4192 47.2133 46.5099 47.376C46.6032 47.5387 46.6499 47.7267 46.6499 47.94C46.6499 48.1533 46.6032 48.3427 46.5099 48.508C46.4192 48.6707 46.2925 48.7973 46.1299 48.888C45.9672 48.9787 45.7832 49.024 45.5779 49.024C45.4259 49.024 45.2859 48.9947 45.1579 48.936C45.0325 48.8773 44.9259 48.792 44.8379 48.68V49.776H44.4539V46.88H44.8219V47.216C44.9072 47.0987 45.0152 47.0107 45.1459 46.952C45.2765 46.8907 45.4205 46.86 45.5779 46.86ZM45.5459 48.688C45.6819 48.688 45.8032 48.6573 45.9099 48.596C46.0192 48.532 46.1045 48.444 46.1659 48.332C46.2299 48.2173 46.2619 48.0867 46.2619 47.94C46.2619 47.7933 46.2299 47.664 46.1659 47.552C46.1045 47.4373 46.0192 47.3493 45.9099 47.288C45.8032 47.2267 45.6819 47.196 45.5459 47.196C45.4125 47.196 45.2912 47.228 45.1819 47.292C45.0752 47.3533 44.9899 47.44 44.9259 47.552C44.8645 47.664 44.8339 47.7933 44.8339 47.94C44.8339 48.0867 44.8645 48.2173 44.9259 48.332C44.9872 48.444 45.0725 48.532 45.1819 48.596C45.2912 48.6573 45.4125 48.688 45.5459 48.688Z" fill="black"/>
<path d="M47.1804 46.88H47.5644V49H47.1804V46.88ZM47.3724 46.472C47.2978 46.472 47.2351 46.448 47.1844 46.4C47.1364 46.352 47.1124 46.2933 47.1124 46.224C47.1124 46.1547 47.1364 46.096 47.1844 46.048C47.2351 45.9973 47.2978 45.972 47.3724 45.972C47.4471 45.972 47.5084 45.996 47.5564 46.044C47.6071 46.0893 47.6324 46.1467 47.6324 46.216C47.6324 46.288 47.6071 46.3493 47.5564 46.4C47.5084 46.448 47.4471 46.472 47.3724 46.472Z" fill="black"/>
<path d="M48.9056 49.024C48.7323 49.024 48.5656 49.0013 48.4056 48.956C48.2456 48.908 48.1203 48.848 48.0296 48.776L48.1896 48.472C48.283 48.5387 48.3963 48.592 48.5296 48.632C48.663 48.672 48.7976 48.692 48.9336 48.692C49.2696 48.692 49.4376 48.596 49.4376 48.404C49.4376 48.34 49.415 48.2893 49.3696 48.252C49.3243 48.2147 49.267 48.188 49.1976 48.172C49.131 48.1533 49.035 48.1333 48.9096 48.112C48.739 48.0853 48.599 48.0547 48.4896 48.02C48.383 47.9853 48.291 47.9267 48.2136 47.844C48.1363 47.7613 48.0976 47.6453 48.0976 47.496C48.0976 47.304 48.1776 47.1507 48.3376 47.036C48.4976 46.9187 48.7123 46.86 48.9816 46.86C49.123 46.86 49.2643 46.8773 49.4056 46.912C49.547 46.9467 49.663 46.9933 49.7536 47.052L49.5896 47.356C49.4163 47.244 49.2123 47.188 48.9776 47.188C48.815 47.188 48.691 47.2147 48.6056 47.268C48.5203 47.3213 48.4776 47.392 48.4776 47.48C48.4776 47.5493 48.5016 47.604 48.5496 47.644C48.5976 47.684 48.6563 47.7133 48.7256 47.732C48.7976 47.7507 48.8976 47.772 49.0256 47.796C49.1963 47.8253 49.3336 47.8573 49.4376 47.892C49.5443 47.924 49.635 47.98 49.7096 48.06C49.7843 48.14 49.8216 48.252 49.8216 48.396C49.8216 48.588 49.739 48.7413 49.5736 48.856C49.411 48.968 49.1883 49.024 48.9056 49.024Z" fill="black"/>
<path d="M51.2255 49.024C51.0095 49.024 50.8162 48.9773 50.6455 48.884C50.4775 48.7907 50.3455 48.6627 50.2495 48.5C50.1535 48.3347 50.1055 48.148 50.1055 47.94C50.1055 47.732 50.1535 47.5467 50.2495 47.384C50.3455 47.2187 50.4775 47.0907 50.6455 47C50.8162 46.9067 51.0095 46.86 51.2255 46.86C51.4175 46.86 51.5882 46.8987 51.7375 46.976C51.8895 47.0533 52.0069 47.1653 52.0895 47.312L51.7975 47.5C51.7309 47.3987 51.6482 47.3227 51.5495 47.272C51.4509 47.2213 51.3415 47.196 51.2215 47.196C51.0829 47.196 50.9575 47.2267 50.8455 47.288C50.7362 47.3493 50.6495 47.4373 50.5855 47.552C50.5242 47.664 50.4935 47.7933 50.4935 47.94C50.4935 48.0893 50.5242 48.2213 50.5855 48.336C50.6495 48.448 50.7362 48.5347 50.8455 48.596C50.9575 48.6573 51.0829 48.688 51.2215 48.688C51.3415 48.688 51.4509 48.6627 51.5495 48.612C51.6482 48.5613 51.7309 48.4853 51.7975 48.384L52.0895 48.568C52.0069 48.7147 51.8895 48.828 51.7375 48.908C51.5882 48.9853 51.4175 49.024 51.2255 49.024Z" fill="black"/>
<path d="M52.5867 46.88H52.9707V49H52.5867V46.88ZM52.7787 46.472C52.704 46.472 52.6414 46.448 52.5907 46.4C52.5427 46.352 52.5187 46.2933 52.5187 46.224C52.5187 46.1547 52.5427 46.096 52.5907 46.048C52.6414 45.9973 52.704 45.972 52.7787 45.972C52.8534 45.972 52.9147 45.996 52.9627 46.044C53.0134 46.0893 53.0387 46.1467 53.0387 46.216C53.0387 46.288 53.0134 46.3493 52.9627 46.4C52.9147 46.448 52.8534 46.472 52.7787 46.472Z" fill="black"/>
<path d="M54.8359 46.86C55.1052 46.86 55.3185 46.9387 55.4759 47.096C55.6359 47.2507 55.7159 47.4787 55.7159 47.78V49H55.3319V47.824C55.3319 47.6187 55.2825 47.464 55.1839 47.36C55.0852 47.256 54.9439 47.204 54.7599 47.204C54.5519 47.204 54.3879 47.2653 54.2679 47.388C54.1479 47.508 54.0879 47.6813 54.0879 47.908V49H53.7039V46.88H54.0719V47.2C54.1492 47.0907 54.2532 47.0067 54.3839 46.948C54.5172 46.8893 54.6679 46.86 54.8359 46.86Z" fill="black"/>
<path d="M58.4662 46.88V48.712C58.4662 49.0827 58.3743 49.356 58.1903 49.532C58.0063 49.7107 57.7316 49.8 57.3662 49.8C57.1662 49.8 56.9756 49.772 56.7943 49.716C56.6129 49.6627 56.4662 49.5853 56.3542 49.484L56.5382 49.188C56.6369 49.2733 56.7582 49.34 56.9022 49.388C57.0489 49.4387 57.1996 49.464 57.3542 49.464C57.6022 49.464 57.7849 49.4053 57.9022 49.288C58.0222 49.1707 58.0822 48.992 58.0822 48.752V48.584C57.9916 48.6933 57.8796 48.776 57.7463 48.832C57.6156 48.8853 57.4729 48.912 57.3182 48.912C57.1156 48.912 56.9316 48.8693 56.7663 48.784C56.6036 48.696 56.4756 48.5747 56.3822 48.42C56.2889 48.2627 56.2422 48.084 56.2422 47.884C56.2422 47.684 56.2889 47.5067 56.3822 47.352C56.4756 47.1947 56.6036 47.0733 56.7663 46.988C56.9316 46.9027 57.1156 46.86 57.3182 46.86C57.4782 46.86 57.6262 46.8893 57.7622 46.948C57.9009 47.0067 58.0142 47.0933 58.1022 47.208V46.88H58.4662ZM57.3623 48.576C57.5009 48.576 57.6249 48.5467 57.7342 48.488C57.8462 48.4293 57.9329 48.348 57.9942 48.244C58.0582 48.1373 58.0902 48.0173 58.0902 47.884C58.0902 47.6787 58.0222 47.5133 57.8862 47.388C57.7502 47.26 57.5756 47.196 57.3623 47.196C57.1463 47.196 56.9702 47.26 56.8342 47.388C56.6982 47.5133 56.6302 47.6787 56.6302 47.884C56.6302 48.0173 56.6609 48.1373 56.7222 48.244C56.7862 48.348 56.8729 48.4293 56.9823 48.488C57.0943 48.5467 57.2209 48.576 57.3623 48.576Z" fill="black"/>
<path d="M62.1902 47.952C62.1902 47.9813 62.1875 48.02 62.1822 48.068H60.4622C60.4862 48.2547 60.5675 48.4053 60.7062 48.52C60.8475 48.632 61.0222 48.688 61.2302 48.688C61.4835 48.688 61.6875 48.6027 61.8422 48.432L62.0542 48.68C61.9582 48.792 61.8382 48.8773 61.6942 48.936C61.5529 48.9947 61.3942 49.024 61.2182 49.024C60.9942 49.024 60.7955 48.9787 60.6222 48.888C60.4489 48.7947 60.3142 48.6653 60.2182 48.5C60.1249 48.3347 60.0782 48.148 60.0782 47.94C60.0782 47.7347 60.1235 47.5493 60.2142 47.384C60.3075 47.2187 60.4342 47.0907 60.5942 47C60.7569 46.9067 60.9395 46.86 61.1422 46.86C61.3449 46.86 61.5249 46.9067 61.6822 47C61.8422 47.0907 61.9662 47.2187 62.0542 47.384C62.1449 47.5493 62.1902 47.7387 62.1902 47.952ZM61.1422 47.184C60.9582 47.184 60.8035 47.24 60.6782 47.352C60.5555 47.464 60.4835 47.6107 60.4622 47.792H61.8222C61.8009 47.6133 61.7275 47.468 61.6022 47.356C61.4795 47.2413 61.3262 47.184 61.1422 47.184Z" fill="black"/>
<path d="M62.7234 46.032H63.1074V49H62.7234V46.032Z" fill="black"/>
<path d="M63.8406 46.88H64.2246V49H63.8406V46.88ZM64.0326 46.472C63.9579 46.472 63.8953 46.448 63.8446 46.4C63.7966 46.352 63.7726 46.2933 63.7726 46.224C63.7726 46.1547 63.7966 46.096 63.8446 46.048C63.8953 45.9973 63.9579 45.972 64.0326 45.972C64.1073 45.972 64.1686 45.996 64.2166 46.044C64.2673 46.0893 64.2926 46.1467 64.2926 46.216C64.2926 46.288 64.2673 46.3493 64.2166 46.4C64.1686 46.448 64.1073 46.472 64.0326 46.472Z" fill="black"/>
<path d="M66.1498 48.876C66.0938 48.924 66.0244 48.9613 65.9418 48.988C65.8591 49.012 65.7738 49.024 65.6858 49.024C65.4724 49.024 65.3071 48.9667 65.1898 48.852C65.0724 48.7373 65.0138 48.5733 65.0138 48.36V47.196H64.6538V46.88H65.0138V46.416H65.3978V46.88H66.0058V47.196H65.3978V48.344C65.3978 48.4587 65.4258 48.5467 65.4818 48.608C65.5404 48.6693 65.6231 48.7 65.7298 48.7C65.8471 48.7 65.9471 48.6667 66.0298 48.6L66.1498 48.876Z" fill="black"/>
<path d="M66.7451 49.024C66.6704 49.024 66.6064 48.9987 66.5531 48.948C66.4998 48.8947 66.4731 48.828 66.4731 48.748C66.4731 48.6707 66.4998 48.6067 66.5531 48.556C66.6064 48.5027 66.6704 48.476 66.7451 48.476C66.8198 48.476 66.8824 48.5013 66.9331 48.552C66.9838 48.6027 67.0091 48.668 67.0091 48.748C67.0091 48.828 66.9824 48.8947 66.9291 48.948C66.8784 48.9987 66.8171 49.024 66.7451 49.024Z" fill="black"/>
<path d="M68.6896 46.2H69.8696C70.1656 46.2 70.4282 46.2587 70.6576 46.376C70.8869 46.4933 71.0642 46.6587 71.1896 46.872C71.3176 47.0827 71.3816 47.3253 71.3816 47.6C71.3816 47.8747 71.3176 48.1187 71.1896 48.332C71.0642 48.5427 70.8869 48.7067 70.6576 48.824C70.4282 48.9413 70.1656 49 69.8696 49H68.6896V46.2ZM69.8456 48.652C70.0722 48.652 70.2709 48.608 70.4416 48.52C70.6149 48.432 70.7482 48.3093 70.8416 48.152C70.9349 47.992 70.9816 47.808 70.9816 47.6C70.9816 47.392 70.9349 47.2093 70.8416 47.052C70.7482 46.892 70.6149 46.768 70.4416 46.68C70.2709 46.592 70.0722 46.548 69.8456 46.548H69.0896V48.652H69.8456Z" fill="black"/>
<path d="M72.8462 49.024C72.6356 49.024 72.4462 48.9773 72.2782 48.884C72.1102 48.7907 71.9782 48.6627 71.8822 48.5C71.7889 48.3347 71.7422 48.148 71.7422 47.94C71.7422 47.732 71.7889 47.5467 71.8822 47.384C71.9782 47.2187 72.1102 47.0907 72.2782 47C72.4462 46.9067 72.6356 46.86 72.8462 46.86C73.0569 46.86 73.2449 46.9067 73.4102 47C73.5782 47.0907 73.7089 47.2187 73.8022 47.384C73.8982 47.5467 73.9463 47.732 73.9463 47.94C73.9463 48.148 73.8982 48.3347 73.8022 48.5C73.7089 48.6627 73.5782 48.7907 73.4102 48.884C73.2449 48.9773 73.0569 49.024 72.8462 49.024ZM72.8462 48.688C72.9822 48.688 73.1036 48.6573 73.2103 48.596C73.3196 48.532 73.4049 48.444 73.4662 48.332C73.5276 48.2173 73.5583 48.0867 73.5583 47.94C73.5583 47.7933 73.5276 47.664 73.4662 47.552C73.4049 47.4373 73.3196 47.3493 73.2103 47.288C73.1036 47.2267 72.9822 47.196 72.8462 47.196C72.7102 47.196 72.5876 47.2267 72.4782 47.288C72.3716 47.3493 72.2862 47.4373 72.2222 47.552C72.1609 47.664 72.1302 47.7933 72.1302 47.94C72.1302 48.0867 72.1609 48.2173 72.2222 48.332C72.2862 48.444 72.3716 48.532 72.4782 48.596C72.5876 48.6573 72.7102 48.688 72.8462 48.688Z" fill="black"/>
<path d="M75.6093 46.86C75.8786 46.86 76.092 46.9387 76.2493 47.096C76.4093 47.2507 76.4893 47.4787 76.4893 47.78V49H76.1053V47.824C76.1053 47.6187 76.056 47.464 75.9573 47.36C75.8586 47.256 75.7173 47.204 75.5333 47.204C75.3253 47.204 75.1613 47.2653 75.0413 47.388C74.9213 47.508 74.8613 47.6813 74.8613 47.908V49H74.4773V46.88H74.8453V47.2C74.9226 47.0907 75.0266 47.0067 75.1573 46.948C75.2906 46.8893 75.4413 46.86 75.6093 46.86Z" fill="black"/>
<path d="M79.1277 47.952C79.1277 47.9813 79.125 48.02 79.1197 48.068H77.3997C77.4237 48.2547 77.505 48.4053 77.6437 48.52C77.785 48.632 77.9597 48.688 78.1677 48.688C78.421 48.688 78.625 48.6027 78.7797 48.432L78.9917 48.68C78.8957 48.792 78.7757 48.8773 78.6317 48.936C78.4904 48.9947 78.3317 49.024 78.1557 49.024C77.9317 49.024 77.733 48.9787 77.5597 48.888C77.3864 48.7947 77.2517 48.6653 77.1557 48.5C77.0624 48.3347 77.0157 48.148 77.0157 47.94C77.0157 47.7347 77.061 47.5493 77.1517 47.384C77.245 47.2187 77.3717 47.0907 77.5317 47C77.6944 46.9067 77.877 46.86 78.0797 46.86C78.2824 46.86 78.4624 46.9067 78.6197 47C78.7797 47.0907 78.9037 47.2187 78.9917 47.384C79.0824 47.5493 79.1277 47.7387 79.1277 47.952ZM78.0797 47.184C77.8957 47.184 77.741 47.24 77.6157 47.352C77.493 47.464 77.421 47.6107 77.3997 47.792H78.7597C78.7384 47.6133 78.665 47.468 78.5397 47.356C78.417 47.2413 78.2637 47.184 78.0797 47.184Z" fill="black"/>
<path d="M80.5849 49.024C80.3689 49.024 80.1756 48.9773 80.0049 48.884C79.8369 48.7907 79.7049 48.6627 79.6089 48.5C79.5129 48.3347 79.4649 48.148 79.4649 47.94C79.4649 47.732 79.5129 47.5467 79.6089 47.384C79.7049 47.2187 79.8369 47.0907 80.0049 47C80.1756 46.9067 80.3689 46.86 80.5849 46.86C80.7769 46.86 80.9476 46.8987 81.0969 46.976C81.2489 47.0533 81.3662 47.1653 81.4489 47.312L81.1569 47.5C81.0902 47.3987 81.0076 47.3227 80.9089 47.272C80.8102 47.2213 80.7009 47.196 80.5809 47.196C80.4422 47.196 80.3169 47.2267 80.2049 47.288C80.0956 47.3493 80.0089 47.4373 79.9449 47.552C79.8836 47.664 79.8529 47.7933 79.8529 47.94C79.8529 48.0893 79.8836 48.2213 79.9449 48.336C80.0089 48.448 80.0956 48.5347 80.2049 48.596C80.3169 48.6573 80.4422 48.688 80.5809 48.688C80.7009 48.688 80.8102 48.6627 80.9089 48.612C81.0076 48.5613 81.0902 48.4853 81.1569 48.384L81.4489 48.568C81.3662 48.7147 81.2489 48.828 81.0969 48.908C80.9476 48.9853 80.7769 49.024 80.5849 49.024Z" fill="black"/>
<path d="M11.272 56.024C11.0614 56.024 10.872 55.9773 10.704 55.884C10.536 55.7907 10.404 55.6627 10.308 55.5C10.2147 55.3347 10.168 55.148 10.168 54.94C10.168 54.732 10.2147 54.5467 10.308 54.384C10.404 54.2187 10.536 54.0907 10.704 54C10.872 53.9067 11.0614 53.86 11.272 53.86C11.4827 53.86 11.6707 53.9067 11.836 54C12.004 54.0907 12.1347 54.2187 12.228 54.384C12.324 54.5467 12.372 54.732 12.372 54.94C12.372 55.148 12.324 55.3347 12.228 55.5C12.1347 55.6627 12.004 55.7907 11.836 55.884C11.6707 55.9773 11.4827 56.024 11.272 56.024ZM11.272 55.688C11.408 55.688 11.5294 55.6573 11.636 55.596C11.7454 55.532 11.8307 55.444 11.892 55.332C11.9534 55.2173 11.984 55.0867 11.984 54.94C11.984 54.7933 11.9534 54.664 11.892 54.552C11.8307 54.4373 11.7454 54.3493 11.636 54.288C11.5294 54.2267 11.408 54.196 11.272 54.196C11.136 54.196 11.0134 54.2267 10.904 54.288C10.7974 54.3493 10.712 54.4373 10.648 54.552C10.5867 54.664 10.556 54.7933 10.556 54.94C10.556 55.0867 10.5867 55.2173 10.648 55.332C10.712 55.444 10.7974 55.532 10.904 55.596C11.0134 55.6573 11.136 55.688 11.272 55.688Z" fill="black"/>
<path d="M14.9031 53.032V56H14.5351V55.664C14.4498 55.7813 14.3418 55.8707 14.2111 55.932C14.0804 55.9933 13.9364 56.024 13.7791 56.024C13.5738 56.024 13.3898 55.9787 13.2271 55.888C13.0644 55.7973 12.9364 55.6707 12.8431 55.508C12.7524 55.3427 12.7071 55.1533 12.7071 54.94C12.7071 54.7267 12.7524 54.5387 12.8431 54.376C12.9364 54.2133 13.0644 54.0867 13.2271 53.996C13.3898 53.9053 13.5738 53.86 13.7791 53.86C13.9311 53.86 14.0711 53.8893 14.1991 53.948C14.3271 54.004 14.4338 54.088 14.5191 54.2V53.032H14.9031ZM13.8111 55.688C13.9444 55.688 14.0658 55.6573 14.1751 55.596C14.2844 55.532 14.3698 55.444 14.4311 55.332C14.4924 55.2173 14.5231 55.0867 14.5231 54.94C14.5231 54.7933 14.4924 54.664 14.4311 54.552C14.3698 54.4373 14.2844 54.3493 14.1751 54.288C14.0658 54.2267 13.9444 54.196 13.8111 54.196C13.6751 54.196 13.5524 54.2267 13.4431 54.288C13.3364 54.3493 13.2511 54.4373 13.1871 54.552C13.1258 54.664 13.0951 54.7933 13.0951 54.94C13.0951 55.0867 13.1258 55.2173 13.1871 55.332C13.2511 55.444 13.3364 55.532 13.4431 55.596C13.5524 55.6573 13.6751 55.688 13.8111 55.688Z" fill="black"/>
<path d="M15.6297 53.88H16.0137V56H15.6297V53.88ZM15.8217 53.472C15.747 53.472 15.6843 53.448 15.6337 53.4C15.5857 53.352 15.5617 53.2933 15.5617 53.224C15.5617 53.1547 15.5857 53.096 15.6337 53.048C15.6843 52.9973 15.747 52.972 15.8217 52.972C15.8963 52.972 15.9577 52.996 16.0057 53.044C16.0563 53.0893 16.0817 53.1467 16.0817 53.216C16.0817 53.288 16.0563 53.3493 16.0057 53.4C15.9577 53.448 15.8963 53.472 15.8217 53.472Z" fill="black"/>
<path d="M17.6548 56.024C17.4442 56.024 17.2548 55.9773 17.0868 55.884C16.9188 55.7907 16.7868 55.6627 16.6908 55.5C16.5975 55.3347 16.5508 55.148 16.5508 54.94C16.5508 54.732 16.5975 54.5467 16.6908 54.384C16.7868 54.2187 16.9188 54.0907 17.0868 54C17.2548 53.9067 17.4442 53.86 17.6548 53.86C17.8655 53.86 18.0535 53.9067 18.2188 54C18.3868 54.0907 18.5175 54.2187 18.6108 54.384C18.7068 54.5467 18.7548 54.732 18.7548 54.94C18.7548 55.148 18.7068 55.3347 18.6108 55.5C18.5175 55.6627 18.3868 55.7907 18.2188 55.884C18.0535 55.9773 17.8655 56.024 17.6548 56.024ZM17.6548 55.688C17.7908 55.688 17.9122 55.6573 18.0188 55.596C18.1282 55.532 18.2135 55.444 18.2748 55.332C18.3362 55.2173 18.3668 55.0867 18.3668 54.94C18.3668 54.7933 18.3362 54.664 18.2748 54.552C18.2135 54.4373 18.1282 54.3493 18.0188 54.288C17.9122 54.2267 17.7908 54.196 17.6548 54.196C17.5188 54.196 17.3962 54.2267 17.2868 54.288C17.1802 54.3493 17.0948 54.4373 17.0308 54.552C16.9695 54.664 16.9388 54.7933 16.9388 54.94C16.9388 55.0867 16.9695 55.2173 17.0308 55.332C17.0948 55.444 17.1802 55.532 17.2868 55.596C17.3962 55.6573 17.5188 55.688 17.6548 55.688Z" fill="black"/>
<path d="M19.331 56.024C19.2564 56.024 19.1924 55.9987 19.139 55.948C19.0857 55.8947 19.059 55.828 19.059 55.748C19.059 55.6707 19.0857 55.6067 19.139 55.556C19.1924 55.5027 19.2564 55.476 19.331 55.476C19.4057 55.476 19.4684 55.5013 19.519 55.552C19.5697 55.6027 19.595 55.668 19.595 55.748C19.595 55.828 19.5684 55.8947 19.515 55.948C19.4644 55.9987 19.403 56.024 19.331 56.024Z" fill="black"/>
<path d="M24.1595 56.256C24.0688 56.3627 23.9635 56.444 23.8435 56.5C23.7235 56.556 23.5942 56.584 23.4555 56.584C23.2795 56.584 23.1142 56.5413 22.9595 56.456C22.8075 56.3733 22.6328 56.2307 22.4355 56.028C22.1715 56.0147 21.9328 55.944 21.7195 55.816C21.5088 55.688 21.3435 55.5187 21.2235 55.308C21.1062 55.0947 21.0475 54.8587 21.0475 54.6C21.0475 54.3307 21.1115 54.0867 21.2395 53.868C21.3702 53.6493 21.5488 53.4787 21.7755 53.356C22.0022 53.2307 22.2568 53.168 22.5395 53.168C22.8195 53.168 23.0728 53.2307 23.2995 53.356C23.5262 53.4787 23.7035 53.6493 23.8315 53.868C23.9595 54.084 24.0235 54.328 24.0235 54.6C24.0235 54.8293 23.9768 55.04 23.8835 55.232C23.7928 55.424 23.6635 55.5853 23.4955 55.716C23.3302 55.8467 23.1395 55.9373 22.9235 55.988C23.0168 56.0867 23.1062 56.1573 23.1915 56.2C23.2795 56.2453 23.3688 56.268 23.4595 56.268C23.6568 56.268 23.8275 56.188 23.9715 56.028L24.1595 56.256ZM21.4475 54.6C21.4475 54.8027 21.4942 54.9867 21.5875 55.152C21.6835 55.3147 21.8142 55.4427 21.9795 55.536C22.1475 55.6293 22.3342 55.676 22.5395 55.676C22.7422 55.676 22.9262 55.6293 23.0915 55.536C23.2568 55.4427 23.3862 55.3147 23.4795 55.152C23.5755 54.9867 23.6235 54.8027 23.6235 54.6C23.6235 54.3973 23.5755 54.2147 23.4795 54.052C23.3862 53.8867 23.2568 53.7573 23.0915 53.664C22.9262 53.5707 22.7422 53.524 22.5395 53.524C22.3342 53.524 22.1475 53.5707 21.9795 53.664C21.8142 53.7573 21.6835 53.8867 21.5875 54.052C21.4942 54.2147 21.4475 54.3973 21.4475 54.6Z" fill="black"/>
<path d="M26.5549 53.88V56H26.1909V55.68C26.1135 55.7893 26.0109 55.8747 25.8829 55.936C25.7575 55.9947 25.6202 56.024 25.4709 56.024C25.1882 56.024 24.9655 55.9467 24.8029 55.792C24.6402 55.6347 24.5589 55.404 24.5589 55.1V53.88H24.9429V55.056C24.9429 55.2613 24.9922 55.4173 25.0909 55.524C25.1895 55.628 25.3309 55.68 25.5149 55.68C25.7175 55.68 25.8775 55.6187 25.9949 55.496C26.1122 55.3733 26.1709 55.2 26.1709 54.976V53.88H26.5549Z" fill="black"/>
<path d="M27.2859 53.88H27.6699V56H27.2859V53.88ZM27.4779 53.472C27.4032 53.472 27.3406 53.448 27.2899 53.4C27.2419 53.352 27.2179 53.2933 27.2179 53.224C27.2179 53.1547 27.2419 53.096 27.2899 53.048C27.3406 52.9973 27.4032 52.972 27.4779 52.972C27.5526 52.972 27.6139 52.996 27.6619 53.044C27.7126 53.0893 27.7379 53.1467 27.7379 53.216C27.7379 53.288 27.7126 53.3493 27.6619 53.4C27.6139 53.448 27.5526 53.472 27.4779 53.472Z" fill="black"/>
<path d="M29.0111 56.024C28.8378 56.024 28.6711 56.0013 28.5111 55.956C28.3511 55.908 28.2258 55.848 28.1351 55.776L28.2951 55.472C28.3884 55.5387 28.5018 55.592 28.6351 55.632C28.7684 55.672 28.9031 55.692 29.0391 55.692C29.3751 55.692 29.5431 55.596 29.5431 55.404C29.5431 55.34 29.5204 55.2893 29.4751 55.252C29.4298 55.2147 29.3724 55.188 29.3031 55.172C29.2364 55.1533 29.1404 55.1333 29.0151 55.112C28.8444 55.0853 28.7044 55.0547 28.5951 55.02C28.4884 54.9853 28.3964 54.9267 28.3191 54.844C28.2418 54.7613 28.2031 54.6453 28.2031 54.496C28.2031 54.304 28.2831 54.1507 28.4431 54.036C28.6031 53.9187 28.8178 53.86 29.0871 53.86C29.2284 53.86 29.3698 53.8773 29.5111 53.912C29.6524 53.9467 29.7684 53.9933 29.8591 54.052L29.6951 54.356C29.5218 54.244 29.3178 54.188 29.0831 54.188C28.9204 54.188 28.7964 54.2147 28.7111 54.268C28.6258 54.3213 28.5831 54.392 28.5831 54.48C28.5831 54.5493 28.6071 54.604 28.6551 54.644C28.7031 54.684 28.7618 54.7133 28.8311 54.732C28.9031 54.7507 29.0031 54.772 29.1311 54.796C29.3018 54.8253 29.4391 54.8573 29.5431 54.892C29.6498 54.924 29.7404 54.98 29.8151 55.06C29.8898 55.14 29.9271 55.252 29.9271 55.396C29.9271 55.588 29.8444 55.7413 29.6791 55.856C29.5164 55.968 29.2938 56.024 29.0111 56.024Z" fill="black"/>
<path d="M32.407 53.88V56.776H32.023V55.68C31.935 55.792 31.827 55.8773 31.699 55.936C31.5737 55.9947 31.435 56.024 31.283 56.024C31.0777 56.024 30.8937 55.9787 30.731 55.888C30.5683 55.7973 30.4403 55.6707 30.347 55.508C30.2563 55.3427 30.211 55.1533 30.211 54.94C30.211 54.7267 30.2563 54.5387 30.347 54.376C30.4403 54.2133 30.5683 54.0867 30.731 53.996C30.8937 53.9053 31.0777 53.86 31.283 53.86C31.4403 53.86 31.5843 53.8907 31.715 53.952C31.8457 54.0107 31.9537 54.0987 32.039 54.216V53.88H32.407ZM31.315 55.688C31.4483 55.688 31.5697 55.6573 31.679 55.596C31.7883 55.532 31.8737 55.444 31.935 55.332C31.9963 55.2173 32.027 55.0867 32.027 54.94C32.027 54.7933 31.995 54.664 31.931 54.552C31.8697 54.44 31.7843 54.3533 31.675 54.292C31.5683 54.228 31.4483 54.196 31.315 54.196C31.179 54.196 31.0563 54.2267 30.947 54.288C30.8403 54.3493 30.755 54.4373 30.691 54.552C30.6297 54.664 30.599 54.7933 30.599 54.94C30.599 55.0867 30.6297 55.2173 30.691 55.332C30.755 55.444 30.8403 55.532 30.947 55.596C31.0563 55.6573 31.179 55.688 31.315 55.688Z" fill="black"/>
<path d="M35.1096 53.88V56H34.7456V55.68C34.6682 55.7893 34.5656 55.8747 34.4376 55.936C34.3122 55.9947 34.1749 56.024 34.0256 56.024C33.7429 56.024 33.5202 55.9467 33.3576 55.792C33.1949 55.6347 33.1136 55.404 33.1136 55.1V53.88H33.4976V55.056C33.4976 55.2613 33.5469 55.4173 33.6456 55.524C33.7442 55.628 33.8856 55.68 34.0696 55.68C34.2722 55.68 34.4322 55.6187 34.5496 55.496C34.6669 55.3733 34.7256 55.2 34.7256 54.976V53.88H35.1096Z" fill="black"/>
<path d="M37.7566 54.952C37.7566 54.9813 37.7539 55.02 37.7486 55.068H36.0286C36.0526 55.2547 36.1339 55.4053 36.2726 55.52C36.4139 55.632 36.5886 55.688 36.7966 55.688C37.0499 55.688 37.2539 55.6027 37.4086 55.432L37.6206 55.68C37.5246 55.792 37.4046 55.8773 37.2606 55.936C37.1193 55.9947 36.9606 56.024 36.7846 56.024C36.5606 56.024 36.3619 55.9787 36.1886 55.888C36.0153 55.7947 35.8806 55.6653 35.7846 55.5C35.6913 55.3347 35.6446 55.148 35.6446 54.94C35.6446 54.7347 35.6899 54.5493 35.7806 54.384C35.8739 54.2187 36.0006 54.0907 36.1606 54C36.3233 53.9067 36.5059 53.86 36.7086 53.86C36.9113 53.86 37.0913 53.9067 37.2486 54C37.4086 54.0907 37.5326 54.2187 37.6206 54.384C37.7113 54.5493 37.7566 54.7387 37.7566 54.952ZM36.7086 54.184C36.5246 54.184 36.3699 54.24 36.2446 54.352C36.1219 54.464 36.0499 54.6107 36.0286 54.792H37.3886C37.3673 54.6133 37.2939 54.468 37.1686 54.356C37.0459 54.2413 36.8926 54.184 36.7086 54.184Z" fill="black"/>
<path d="M41.24 53.88L40.312 56H39.92L38.992 53.88H39.392L40.12 55.58L40.864 53.88H41.24Z" fill="black"/>
<path d="M42.4478 56.024C42.2371 56.024 42.0478 55.9773 41.8798 55.884C41.7118 55.7907 41.5798 55.6627 41.4838 55.5C41.3905 55.3347 41.3438 55.148 41.3438 54.94C41.3438 54.732 41.3905 54.5467 41.4838 54.384C41.5798 54.2187 41.7118 54.0907 41.8798 54C42.0478 53.9067 42.2371 53.86 42.4478 53.86C42.6585 53.86 42.8465 53.9067 43.0118 54C43.1798 54.0907 43.3105 54.2187 43.4038 54.384C43.4998 54.5467 43.5478 54.732 43.5478 54.94C43.5478 55.148 43.4998 55.3347 43.4038 55.5C43.3105 55.6627 43.1798 55.7907 43.0118 55.884C42.8465 55.9773 42.6585 56.024 42.4478 56.024ZM42.4478 55.688C42.5838 55.688 42.7051 55.6573 42.8118 55.596C42.9211 55.532 43.0065 55.444 43.0678 55.332C43.1291 55.2173 43.1598 55.0867 43.1598 54.94C43.1598 54.7933 43.1291 54.664 43.0678 54.552C43.0065 54.4373 42.9211 54.3493 42.8118 54.288C42.7051 54.2267 42.5838 54.196 42.4478 54.196C42.3118 54.196 42.1891 54.2267 42.0798 54.288C41.9731 54.3493 41.8878 54.4373 41.8238 54.552C41.7625 54.664 41.7318 54.7933 41.7318 54.94C41.7318 55.0867 41.7625 55.2173 41.8238 55.332C41.8878 55.444 41.9731 55.532 42.0798 55.596C42.1891 55.6573 42.3118 55.688 42.4478 55.688Z" fill="black"/>
<path d="M44.0789 53.032H44.4629V56H44.0789V53.032Z" fill="black"/>
<path d="M47.1721 53.88V56H46.8081V55.68C46.7307 55.7893 46.6281 55.8747 46.5001 55.936C46.3747 55.9947 46.2374 56.024 46.0881 56.024C45.8054 56.024 45.5827 55.9467 45.4201 55.792C45.2574 55.6347 45.1761 55.404 45.1761 55.1V53.88H45.5601V55.056C45.5601 55.2613 45.6094 55.4173 45.7081 55.524C45.8067 55.628 45.9481 55.68 46.1321 55.68C46.3347 55.68 46.4947 55.6187 46.6121 55.496C46.7294 55.3733 46.7881 55.2 46.7881 54.976V53.88H47.1721Z" fill="black"/>
<path d="M49.0951 55.876C49.0391 55.924 48.9698 55.9613 48.8871 55.988C48.8044 56.012 48.7191 56.024 48.6311 56.024C48.4178 56.024 48.2524 55.9667 48.1351 55.852C48.0178 55.7373 47.9591 55.5733 47.9591 55.36V54.196H47.5991V53.88H47.9591V53.416H48.3431V53.88H48.9511V54.196H48.3431V55.344C48.3431 55.4587 48.3711 55.5467 48.4271 55.608C48.4858 55.6693 48.5684 55.7 48.6751 55.7C48.7924 55.7 48.8924 55.6667 48.9751 55.6L49.0951 55.876Z" fill="black"/>
<path d="M50.6833 53.86C50.8887 53.86 51.0727 53.9053 51.2353 53.996C51.398 54.0867 51.5247 54.2133 51.6153 54.376C51.7087 54.5387 51.7553 54.7267 51.7553 54.94C51.7553 55.1533 51.7087 55.3427 51.6153 55.508C51.5247 55.6707 51.398 55.7973 51.2353 55.888C51.0727 55.9787 50.8887 56.024 50.6833 56.024C50.5313 56.024 50.3913 55.9947 50.2633 55.936C50.138 55.8773 50.0313 55.792 49.9433 55.68V56.776H49.5593V53.88H49.9273V54.216C50.0127 54.0987 50.1207 54.0107 50.2513 53.952C50.382 53.8907 50.526 53.86 50.6833 53.86ZM50.6513 55.688C50.7873 55.688 50.9087 55.6573 51.0153 55.596C51.1247 55.532 51.21 55.444 51.2713 55.332C51.3353 55.2173 51.3673 55.0867 51.3673 54.94C51.3673 54.7933 51.3353 54.664 51.2713 54.552C51.21 54.4373 51.1247 54.3493 51.0153 54.288C50.9087 54.2267 50.7873 54.196 50.6513 54.196C50.518 54.196 50.3967 54.228 50.2873 54.292C50.1807 54.3533 50.0953 54.44 50.0313 54.552C49.97 54.664 49.9393 54.7933 49.9393 54.94C49.9393 55.0867 49.97 55.2173 50.0313 55.332C50.0927 55.444 50.178 55.532 50.2873 55.596C50.3967 55.6573 50.518 55.688 50.6513 55.688Z" fill="black"/>
<path d="M53.0384 53.86C53.3317 53.86 53.5557 53.932 53.7104 54.076C53.8677 54.22 53.9464 54.4347 53.9464 54.72V56H53.5824V55.72C53.5184 55.8187 53.4264 55.8947 53.3064 55.948C53.189 55.9987 53.049 56.024 52.8864 56.024C52.649 56.024 52.4584 55.9667 52.3144 55.852C52.173 55.7373 52.1024 55.5867 52.1024 55.4C52.1024 55.2133 52.1704 55.064 52.3064 54.952C52.4424 54.8373 52.6584 54.78 52.9544 54.78H53.5624V54.704C53.5624 54.5387 53.5144 54.412 53.4184 54.324C53.3224 54.236 53.181 54.192 52.9944 54.192C52.869 54.192 52.7464 54.2133 52.6264 54.256C52.5064 54.296 52.405 54.3507 52.3224 54.42L52.1624 54.132C52.2717 54.044 52.4024 53.9773 52.5544 53.932C52.7064 53.884 52.8677 53.86 53.0384 53.86ZM52.9504 55.728C53.097 55.728 53.2237 55.696 53.3304 55.632C53.437 55.5653 53.5144 55.472 53.5624 55.352V55.056H52.9704C52.645 55.056 52.4824 55.1653 52.4824 55.384C52.4824 55.4907 52.5237 55.5747 52.6064 55.636C52.689 55.6973 52.8037 55.728 52.9504 55.728Z" fill="black"/>
<path d="M54.749 56.024C54.6743 56.024 54.6103 55.9987 54.557 55.948C54.5037 55.8947 54.477 55.828 54.477 55.748C54.477 55.6707 54.5037 55.6067 54.557 55.556C54.6103 55.5027 54.6743 55.476 54.749 55.476C54.8237 55.476 54.8863 55.5013 54.937 55.552C54.9877 55.6027 55.013 55.668 55.013 55.748C55.013 55.828 54.9863 55.8947 54.933 55.948C54.8823 55.9987 54.821 56.024 54.749 56.024Z" fill="black"/>
<path d="M11.708 19.709H10.028V19.1H14.081V19.709H12.401V24H11.708V19.709Z" fill="black"/>
<path d="M16.7264 20.255C17.1977 20.255 17.5711 20.3927 17.8464 20.668C18.1264 20.9387 18.2664 21.3377 18.2664 21.865V24H17.5944V21.942C17.5944 21.5827 17.5081 21.312 17.3354 21.13C17.1627 20.948 16.9154 20.857 16.5934 20.857C16.2294 20.857 15.9424 20.9643 15.7324 21.179C15.5224 21.389 15.4174 21.6923 15.4174 22.089V24H14.7454V18.806H15.4174V20.815C15.5574 20.6377 15.7394 20.5 15.9634 20.402C16.1921 20.304 16.4464 20.255 16.7264 20.255Z" fill="black"/>
<path d="M19.5101 20.29H20.1821V24H19.5101V20.29ZM19.8461 19.576C19.7154 19.576 19.6057 19.534 19.5171 19.45C19.4331 19.366 19.3911 19.2633 19.3911 19.142C19.3911 19.0207 19.4331 18.918 19.5171 18.834C19.6057 18.7453 19.7154 18.701 19.8461 18.701C19.9767 18.701 20.0841 18.743 20.1681 18.827C20.2567 18.9063 20.3011 19.0067 20.3011 19.128C20.3011 19.254 20.2567 19.3613 20.1681 19.45C20.0841 19.534 19.9767 19.576 19.8461 19.576Z" fill="black"/>
<path d="M22.5291 24.042C22.2258 24.042 21.9341 24.0023 21.6541 23.923C21.3741 23.839 21.1548 23.734 20.9961 23.608L21.2761 23.076C21.4395 23.1927 21.6378 23.286 21.8711 23.356C22.1045 23.426 22.3401 23.461 22.5781 23.461C23.1661 23.461 23.4601 23.293 23.4601 22.957C23.4601 22.845 23.4205 22.7563 23.3411 22.691C23.2618 22.6257 23.1615 22.579 23.0401 22.551C22.9235 22.5183 22.7555 22.4833 22.5361 22.446C22.2375 22.3993 21.9925 22.3457 21.8011 22.285C21.6145 22.2243 21.4535 22.1217 21.3181 21.977C21.1828 21.8323 21.1151 21.6293 21.1151 21.368C21.1151 21.032 21.2551 20.7637 21.5351 20.563C21.8151 20.3577 22.1908 20.255 22.6621 20.255C22.9095 20.255 23.1568 20.2853 23.4041 20.346C23.6515 20.4067 23.8545 20.4883 24.0131 20.591L23.7261 21.123C23.4228 20.927 23.0658 20.829 22.6551 20.829C22.3705 20.829 22.1535 20.8757 22.0041 20.969C21.8548 21.0623 21.7801 21.186 21.7801 21.34C21.7801 21.4613 21.8221 21.557 21.9061 21.627C21.9901 21.697 22.0928 21.7483 22.2141 21.781C22.3401 21.8137 22.5151 21.851 22.7391 21.893C23.0378 21.9443 23.2781 22.0003 23.4601 22.061C23.6468 22.117 23.8055 22.215 23.9361 22.355C24.0668 22.495 24.1321 22.691 24.1321 22.943C24.1321 23.279 23.9875 23.5473 23.6981 23.748C23.4135 23.944 23.0238 24.042 22.5291 24.042Z" fill="black"/>
<path d="M26.8519 20.29H27.5239V24H26.8519V20.29ZM27.1879 19.576C27.0572 19.576 26.9475 19.534 26.8589 19.45C26.7749 19.366 26.7329 19.2633 26.7329 19.142C26.7329 19.0207 26.7749 18.918 26.8589 18.834C26.9475 18.7453 27.0572 18.701 27.1879 18.701C27.3185 18.701 27.4259 18.743 27.5099 18.827C27.5985 18.9063 27.6429 19.0067 27.6429 19.128C27.6429 19.254 27.5985 19.3613 27.5099 19.45C27.4259 19.534 27.3185 19.576 27.1879 19.576Z" fill="black"/>
<path d="M29.8709 24.042C29.5676 24.042 29.2759 24.0023 28.9959 23.923C28.7159 23.839 28.4966 23.734 28.3379 23.608L28.6179 23.076C28.7813 23.1927 28.9796 23.286 29.2129 23.356C29.4463 23.426 29.6819 23.461 29.9199 23.461C30.5079 23.461 30.8019 23.293 30.8019 22.957C30.8019 22.845 30.7623 22.7563 30.6829 22.691C30.6036 22.6257 30.5033 22.579 30.3819 22.551C30.2653 22.5183 30.0973 22.4833 29.8779 22.446C29.5793 22.3993 29.3343 22.3457 29.1429 22.285C28.9563 22.2243 28.7953 22.1217 28.6599 21.977C28.5246 21.8323 28.4569 21.6293 28.4569 21.368C28.4569 21.032 28.5969 20.7637 28.8769 20.563C29.1569 20.3577 29.5326 20.255 30.0039 20.255C30.2513 20.255 30.4986 20.2853 30.7459 20.346C30.9933 20.4067 31.1963 20.4883 31.3549 20.591L31.0679 21.123C30.7646 20.927 30.4076 20.829 29.9969 20.829C29.7123 20.829 29.4953 20.8757 29.3459 20.969C29.1966 21.0623 29.1219 21.186 29.1219 21.34C29.1219 21.4613 29.1639 21.557 29.2479 21.627C29.3319 21.697 29.4346 21.7483 29.5559 21.781C29.6819 21.8137 29.8569 21.851 30.0809 21.893C30.3796 21.9443 30.6199 22.0003 30.8019 22.061C30.9886 22.117 31.1473 22.215 31.2779 22.355C31.4086 22.495 31.4739 22.691 31.4739 22.943C31.4739 23.279 31.3293 23.5473 31.0399 23.748C30.7553 23.944 30.3656 24.042 29.8709 24.042Z" fill="black"/>
<path d="M35.5447 20.255C36.058 20.255 36.45 20.381 36.7207 20.633C36.996 20.885 37.1337 21.2607 37.1337 21.76V24H36.4967V23.51C36.3847 23.6827 36.2237 23.8157 36.0137 23.909C35.8083 23.9977 35.5633 24.042 35.2787 24.042C34.8633 24.042 34.5297 23.9417 34.2777 23.741C34.0303 23.5403 33.9067 23.2767 33.9067 22.95C33.9067 22.6233 34.0257 22.362 34.2637 22.166C34.5017 21.9653 34.8797 21.865 35.3977 21.865H36.4617V21.732C36.4617 21.4427 36.3777 21.221 36.2097 21.067C36.0417 20.913 35.7943 20.836 35.4677 20.836C35.2483 20.836 35.0337 20.8733 34.8237 20.948C34.6137 21.018 34.4363 21.1137 34.2917 21.235L34.0117 20.731C34.203 20.577 34.4317 20.4603 34.6977 20.381C34.9637 20.297 35.246 20.255 35.5447 20.255ZM35.3907 23.524C35.6473 23.524 35.869 23.468 36.0557 23.356C36.2423 23.2393 36.3777 23.076 36.4617 22.866V22.348H35.4257C34.8563 22.348 34.5717 22.5393 34.5717 22.922C34.5717 23.1087 34.644 23.2557 34.7887 23.363C34.9333 23.4703 35.134 23.524 35.3907 23.524Z" fill="black"/>
<path d="M42.2381 20.255C42.7095 20.255 43.0828 20.3927 43.3581 20.668C43.6381 20.9387 43.7781 21.3377 43.7781 21.865V24H43.1061V21.942C43.1061 21.5827 43.0198 21.312 42.8471 21.13C42.6745 20.948 42.4271 20.857 42.1051 20.857C41.7411 20.857 41.4541 20.9643 41.2441 21.179C41.0341 21.389 40.9291 21.6923 40.9291 22.089V24H40.2571V18.806H40.9291V20.815C41.0691 20.6377 41.2511 20.5 41.4751 20.402C41.7038 20.304 41.9581 20.255 42.2381 20.255Z" fill="black"/>
<path d="M48.3953 22.166C48.3953 22.2173 48.3906 22.285 48.3813 22.369H45.3713C45.4133 22.6957 45.5556 22.9593 45.7983 23.16C46.0456 23.356 46.3513 23.454 46.7153 23.454C47.1586 23.454 47.5156 23.3047 47.7863 23.006L48.1573 23.44C47.9893 23.636 47.7793 23.7853 47.5273 23.888C47.28 23.9907 47.0023 24.042 46.6943 24.042C46.3023 24.042 45.9546 23.9627 45.6513 23.804C45.348 23.6407 45.1123 23.4143 44.9443 23.125C44.781 22.8357 44.6993 22.509 44.6993 22.145C44.6993 21.7857 44.7786 21.4613 44.9373 21.172C45.1006 20.8827 45.3223 20.6587 45.6023 20.5C45.887 20.3367 46.2066 20.255 46.5613 20.255C46.916 20.255 47.231 20.3367 47.5063 20.5C47.7863 20.6587 48.0033 20.8827 48.1573 21.172C48.316 21.4613 48.3953 21.7927 48.3953 22.166ZM46.5613 20.822C46.2393 20.822 45.9686 20.92 45.7493 21.116C45.5346 21.312 45.4086 21.5687 45.3713 21.886H47.7513C47.714 21.5733 47.5856 21.319 47.3663 21.123C47.1516 20.9223 46.8833 20.822 46.5613 20.822Z" fill="black"/>
<path d="M50.5769 20.255C51.0902 20.255 51.4822 20.381 51.7529 20.633C52.0282 20.885 52.1659 21.2607 52.1659 21.76V24H51.5289V23.51C51.4169 23.6827 51.2559 23.8157 51.0459 23.909C50.8405 23.9977 50.5955 24.042 50.3109 24.042C49.8955 24.042 49.5619 23.9417 49.3099 23.741C49.0625 23.5403 48.9389 23.2767 48.9389 22.95C48.9389 22.6233 49.0579 22.362 49.2959 22.166C49.5339 21.9653 49.9119 21.865 50.4299 21.865H51.4939V21.732C51.4939 21.4427 51.4099 21.221 51.2419 21.067C51.0739 20.913 50.8265 20.836 50.4999 20.836C50.2805 20.836 50.0659 20.8733 49.8559 20.948C49.6459 21.018 49.4685 21.1137 49.3239 21.235L49.0439 20.731C49.2352 20.577 49.4639 20.4603 49.7299 20.381C49.9959 20.297 50.2782 20.255 50.5769 20.255ZM50.4229 23.524C50.6795 23.524 50.9012 23.468 51.0879 23.356C51.2745 23.2393 51.4099 23.076 51.4939 22.866V22.348H50.4579C49.8885 22.348 49.6039 22.5393 49.6039 22.922C49.6039 23.1087 49.6762 23.2557 49.8209 23.363C49.9655 23.4703 50.1662 23.524 50.4229 23.524Z" fill="black"/>
<path d="M56.93 18.806V24H56.286V23.412C56.1367 23.6173 55.9476 23.7737 55.719 23.881C55.4903 23.9883 55.2383 24.042 54.963 24.042C54.6036 24.042 54.2816 23.9627 53.997 23.804C53.7123 23.6453 53.4883 23.4237 53.325 23.139C53.1663 22.8497 53.087 22.5183 53.087 22.145C53.087 21.7717 53.1663 21.4427 53.325 21.158C53.4883 20.8733 53.7123 20.6517 53.997 20.493C54.2816 20.3343 54.6036 20.255 54.963 20.255C55.229 20.255 55.474 20.3063 55.698 20.409C55.922 20.507 56.1087 20.654 56.258 20.85V18.806H56.93ZM55.019 23.454C55.2523 23.454 55.4646 23.4003 55.656 23.293C55.8473 23.181 55.9967 23.027 56.104 22.831C56.2113 22.6303 56.265 22.4017 56.265 22.145C56.265 21.8883 56.2113 21.662 56.104 21.466C55.9967 21.2653 55.8473 21.1113 55.656 21.004C55.4646 20.8967 55.2523 20.843 55.019 20.843C54.781 20.843 54.5663 20.8967 54.375 21.004C54.1883 21.1113 54.039 21.2653 53.927 21.466C53.8196 21.662 53.766 21.8883 53.766 22.145C53.766 22.4017 53.8196 22.6303 53.927 22.831C54.039 23.027 54.1883 23.181 54.375 23.293C54.5663 23.4003 54.781 23.454 55.019 23.454Z" fill="black"/>
<path d="M61.5545 22.166C61.5545 22.2173 61.5498 22.285 61.5405 22.369H58.5305C58.5725 22.6957 58.7148 22.9593 58.9575 23.16C59.2048 23.356 59.5105 23.454 59.8745 23.454C60.3178 23.454 60.6748 23.3047 60.9455 23.006L61.3165 23.44C61.1485 23.636 60.9385 23.7853 60.6865 23.888C60.4391 23.9907 60.1615 24.042 59.8535 24.042C59.4615 24.042 59.1138 23.9627 58.8105 23.804C58.5071 23.6407 58.2715 23.4143 58.1035 23.125C57.9401 22.8357 57.8585 22.509 57.8585 22.145C57.8585 21.7857 57.9378 21.4613 58.0965 21.172C58.2598 20.8827 58.4815 20.6587 58.7615 20.5C59.0461 20.3367 59.3658 20.255 59.7205 20.255C60.0751 20.255 60.3901 20.3367 60.6655 20.5C60.9455 20.6587 61.1625 20.8827 61.3165 21.172C61.4751 21.4613 61.5545 21.7927 61.5545 22.166ZM59.7205 20.822C59.3985 20.822 59.1278 20.92 58.9085 21.116C58.6938 21.312 58.5678 21.5687 58.5305 21.886H60.9105C60.8731 21.5733 60.7448 21.319 60.5255 21.123C60.3108 20.9223 60.0425 20.822 59.7205 20.822Z" fill="black"/>
<path d="M63.1316 20.913C63.2483 20.6983 63.4209 20.535 63.6496 20.423C63.8783 20.311 64.1559 20.255 64.4826 20.255V20.906C64.4453 20.9013 64.3939 20.899 64.3286 20.899C63.9646 20.899 63.6776 21.0087 63.4676 21.228C63.2623 21.4427 63.1596 21.7507 63.1596 22.152V24H62.4876V20.29H63.1316V20.913Z" fill="black"/>
<path d="M68.5896 20.255C69.1029 20.255 69.4949 20.381 69.7656 20.633C70.0409 20.885 70.1786 21.2607 70.1786 21.76V24H69.5416V23.51C69.4296 23.6827 69.2686 23.8157 69.0586 23.909C68.8532 23.9977 68.6082 24.042 68.3236 24.042C67.9082 24.042 67.5746 23.9417 67.3226 23.741C67.0752 23.5403 66.9516 23.2767 66.9516 22.95C66.9516 22.6233 67.0706 22.362 67.3086 22.166C67.5466 21.9653 67.9246 21.865 68.4426 21.865H69.5066V21.732C69.5066 21.4427 69.4226 21.221 69.2546 21.067C69.0866 20.913 68.8392 20.836 68.5126 20.836C68.2932 20.836 68.0786 20.8733 67.8686 20.948C67.6586 21.018 67.4812 21.1137 67.3366 21.235L67.0566 20.731C67.2479 20.577 67.4766 20.4603 67.7426 20.381C68.0086 20.297 68.2909 20.255 68.5896 20.255ZM68.4356 23.524C68.6922 23.524 68.9139 23.468 69.1006 23.356C69.2872 23.2393 69.4226 23.076 69.5066 22.866V22.348H68.4706C67.9012 22.348 67.6166 22.5393 67.6166 22.922C67.6166 23.1087 67.6889 23.2557 67.8336 23.363C67.9782 23.4703 68.1789 23.524 68.4356 23.524Z" fill="black"/>
<path d="M73.3892 20.255C73.7485 20.255 74.0705 20.3343 74.3552 20.493C74.6398 20.6517 74.8615 20.8733 75.0202 21.158C75.1835 21.4427 75.2652 21.7717 75.2652 22.145C75.2652 22.5183 75.1835 22.8497 75.0202 23.139C74.8615 23.4237 74.6398 23.6453 74.3552 23.804C74.0705 23.9627 73.7485 24.042 73.3892 24.042C73.1138 24.042 72.8618 23.9883 72.6332 23.881C72.4045 23.7737 72.2155 23.6173 72.0662 23.412V24H71.4222V18.806H72.0942V20.85C72.2435 20.654 72.4302 20.507 72.6542 20.409C72.8782 20.3063 73.1232 20.255 73.3892 20.255ZM73.3332 23.454C73.5712 23.454 73.7835 23.4003 73.9702 23.293C74.1615 23.181 74.3108 23.027 74.4182 22.831C74.5302 22.6303 74.5862 22.4017 74.5862 22.145C74.5862 21.8883 74.5302 21.662 74.4182 21.466C74.3108 21.2653 74.1615 21.1113 73.9702 21.004C73.7835 20.8967 73.5712 20.843 73.3332 20.843C73.0998 20.843 72.8875 20.8967 72.6962 21.004C72.5048 21.1113 72.3555 21.2653 72.2482 21.466C72.1408 21.662 72.0872 21.8883 72.0872 22.145C72.0872 22.4017 72.1408 22.6303 72.2482 22.831C72.3555 23.027 72.5048 23.181 72.6962 23.293C72.8875 23.4003 73.0998 23.454 73.3332 23.454Z" fill="black"/>
<path d="M77.7827 24.042C77.414 24.042 77.0827 23.9603 76.7887 23.797C76.4947 23.6337 76.2637 23.4097 76.0957 23.125C75.9323 22.8357 75.8507 22.509 75.8507 22.145C75.8507 21.781 75.9323 21.4567 76.0957 21.172C76.2637 20.8827 76.4947 20.6587 76.7887 20.5C77.0827 20.3367 77.414 20.255 77.7827 20.255C78.1513 20.255 78.4803 20.3367 78.7697 20.5C79.0637 20.6587 79.2923 20.8827 79.4557 21.172C79.6237 21.4567 79.7077 21.781 79.7077 22.145C79.7077 22.509 79.6237 22.8357 79.4557 23.125C79.2923 23.4097 79.0637 23.6337 78.7697 23.797C78.4803 23.9603 78.1513 24.042 77.7827 24.042ZM77.7827 23.454C78.0207 23.454 78.233 23.4003 78.4197 23.293C78.611 23.181 78.7603 23.027 78.8677 22.831C78.975 22.6303 79.0287 22.4017 79.0287 22.145C79.0287 21.8883 78.975 21.662 78.8677 21.466C78.7603 21.2653 78.611 21.1113 78.4197 21.004C78.233 20.8967 78.0207 20.843 77.7827 20.843C77.5447 20.843 77.33 20.8967 77.1387 21.004C76.952 21.1113 76.8027 21.2653 76.6907 21.466C76.5833 21.662 76.5297 21.8883 76.5297 22.145C76.5297 22.4017 76.5833 22.6303 76.6907 22.831C76.8027 23.027 76.952 23.181 77.1387 23.293C77.33 23.4003 77.5447 23.454 77.7827 23.454Z" fill="black"/>
<path d="M84.095 20.29V24H83.458V23.44C83.3227 23.6313 83.143 23.7807 82.919 23.888C82.6997 23.9907 82.4593 24.042 82.198 24.042C81.7033 24.042 81.3137 23.9067 81.029 23.636C80.7443 23.3607 80.602 22.957 80.602 22.425V20.29H81.274V22.348C81.274 22.7073 81.3603 22.9803 81.533 23.167C81.7057 23.349 81.953 23.44 82.275 23.44C82.6297 23.44 82.9097 23.3327 83.115 23.118C83.3203 22.9033 83.423 22.6 83.423 22.208V20.29H84.095Z" fill="black"/>
<path d="M87.4603 23.783C87.3623 23.867 87.241 23.9323 87.0963 23.979C86.9517 24.021 86.8023 24.042 86.6483 24.042C86.275 24.042 85.9857 23.9417 85.7803 23.741C85.575 23.5403 85.4723 23.2533 85.4723 22.88V20.843H84.8423V20.29H85.4723V19.478H86.1443V20.29H87.2083V20.843H86.1443V22.852C86.1443 23.0527 86.1933 23.2067 86.2913 23.314C86.394 23.4213 86.5387 23.475 86.7253 23.475C86.9307 23.475 87.1057 23.4167 87.2503 23.3L87.4603 23.783Z" fill="black"/>
<path d="M11.995 28.317C11.5937 28.317 11.393 28.534 11.393 28.968V29.29H12.471V29.843H11.407V33H10.735V29.843H10.105V29.29H10.735V28.961C10.735 28.5923 10.8423 28.3007 11.057 28.086C11.2717 27.8713 11.5727 27.764 11.96 27.764C12.1093 27.764 12.2493 27.7827 12.38 27.82C12.5107 27.8573 12.6227 27.911 12.716 27.981L12.513 28.492C12.359 28.3753 12.1863 28.317 11.995 28.317ZM13.668 29.29H14.34V33H13.668V29.29ZM14.004 28.576C13.8733 28.576 13.7637 28.534 13.675 28.45C13.591 28.366 13.549 28.2633 13.549 28.142C13.549 28.0207 13.591 27.918 13.675 27.834C13.7637 27.7453 13.8733 27.701 14.004 27.701C14.1347 27.701 14.242 27.743 14.326 27.827C14.4147 27.9063 14.459 28.0067 14.459 28.128C14.459 28.254 14.4147 28.3613 14.326 28.45C14.242 28.534 14.1347 28.576 14.004 28.576Z" fill="black"/>
<path d="M15.6204 27.806H16.2924V33H15.6204V27.806Z" fill="black"/>
<path d="M17.5755 27.806H18.2475V33H17.5755V27.806Z" fill="black"/>
<path d="M19.5306 29.29H20.2026V33H19.5306V29.29ZM19.8666 28.576C19.7359 28.576 19.6262 28.534 19.5376 28.45C19.4536 28.366 19.4116 28.2633 19.4116 28.142C19.4116 28.0207 19.4536 27.918 19.5376 27.834C19.6262 27.7453 19.7359 27.701 19.8666 27.701C19.9972 27.701 20.1046 27.743 20.1886 27.827C20.2772 27.9063 20.3216 28.0067 20.3216 28.128C20.3216 28.254 20.2772 28.3613 20.1886 28.45C20.1046 28.534 19.9972 28.576 19.8666 28.576Z" fill="black"/>
<path d="M23.4666 29.255C23.938 29.255 24.3113 29.3927 24.5866 29.668C24.8666 29.9387 25.0066 30.3377 25.0066 30.865V33H24.3346V30.942C24.3346 30.5827 24.2483 30.312 24.0756 30.13C23.903 29.948 23.6556 29.857 23.3336 29.857C22.9696 29.857 22.6826 29.9643 22.4726 30.179C22.2626 30.389 22.1576 30.6923 22.1576 31.089V33H21.4856V29.29H22.1296V29.85C22.265 29.6587 22.447 29.5117 22.6756 29.409C22.909 29.3063 23.1726 29.255 23.4666 29.255Z" fill="black"/>
<path d="M29.8198 29.29V32.496C29.8198 33.1447 29.6588 33.623 29.3368 33.931C29.0148 34.2437 28.5341 34.4 27.8948 34.4C27.5448 34.4 27.2111 34.351 26.8938 34.253C26.5765 34.1597 26.3198 34.0243 26.1238 33.847L26.4458 33.329C26.6185 33.4783 26.8308 33.595 27.0828 33.679C27.3395 33.7677 27.6031 33.812 27.8738 33.812C28.3078 33.812 28.6275 33.7093 28.8328 33.504C29.0428 33.2987 29.1478 32.986 29.1478 32.566V32.272C28.9891 32.4633 28.7931 32.608 28.5598 32.706C28.3311 32.7993 28.0815 32.846 27.8108 32.846C27.4561 32.846 27.1341 32.7713 26.8448 32.622C26.5601 32.468 26.3361 32.2557 26.1728 31.985C26.0095 31.7097 25.9278 31.397 25.9278 31.047C25.9278 30.697 26.0095 30.3867 26.1728 30.116C26.3361 29.8407 26.5601 29.6283 26.8448 29.479C27.1341 29.3297 27.4561 29.255 27.8108 29.255C28.0908 29.255 28.3498 29.3063 28.5878 29.409C28.8305 29.5117 29.0288 29.6633 29.1828 29.864V29.29H29.8198ZM27.8878 32.258C28.1305 32.258 28.3475 32.2067 28.5388 32.104C28.7348 32.0013 28.8865 31.859 28.9938 31.677C29.1058 31.4903 29.1618 31.2803 29.1618 31.047C29.1618 30.6877 29.0428 30.3983 28.8048 30.179C28.5668 29.955 28.2611 29.843 27.8878 29.843C27.5098 29.843 27.2018 29.955 26.9638 30.179C26.7258 30.3983 26.6068 30.6877 26.6068 31.047C26.6068 31.2803 26.6605 31.4903 26.7678 31.677C26.8798 31.859 27.0315 32.0013 27.2228 32.104C27.4188 32.2067 27.6405 32.258 27.8878 32.258Z" fill="black"/>
<path d="M34.5727 33.042C34.204 33.042 33.8727 32.9603 33.5787 32.797C33.2847 32.6337 33.0537 32.4097 32.8857 32.125C32.7224 31.8357 32.6407 31.509 32.6407 31.145C32.6407 30.781 32.7224 30.4567 32.8857 30.172C33.0537 29.8827 33.2847 29.6587 33.5787 29.5C33.8727 29.3367 34.204 29.255 34.5727 29.255C34.9414 29.255 35.2704 29.3367 35.5597 29.5C35.8537 29.6587 36.0824 29.8827 36.2457 30.172C36.4137 30.4567 36.4977 30.781 36.4977 31.145C36.4977 31.509 36.4137 31.8357 36.2457 32.125C36.0824 32.4097 35.8537 32.6337 35.5597 32.797C35.2704 32.9603 34.9414 33.042 34.5727 33.042ZM34.5727 32.454C34.8107 32.454 35.023 32.4003 35.2097 32.293C35.401 32.181 35.5504 32.027 35.6577 31.831C35.765 31.6303 35.8187 31.4017 35.8187 31.145C35.8187 30.8883 35.765 30.662 35.6577 30.466C35.5504 30.2653 35.401 30.1113 35.2097 30.004C35.023 29.8967 34.8107 29.843 34.5727 29.843C34.3347 29.843 34.12 29.8967 33.9287 30.004C33.742 30.1113 33.5927 30.2653 33.4807 30.466C33.3734 30.662 33.3197 30.8883 33.3197 31.145C33.3197 31.4017 33.3734 31.6303 33.4807 31.831C33.5927 32.027 33.742 32.181 33.9287 32.293C34.12 32.4003 34.3347 32.454 34.5727 32.454Z" fill="black"/>
<path d="M40.8851 29.29V33H40.2481V32.44C40.1127 32.6313 39.9331 32.7807 39.7091 32.888C39.4897 32.9907 39.2494 33.042 38.9881 33.042C38.4934 33.042 38.1037 32.9067 37.8191 32.636C37.5344 32.3607 37.3921 31.957 37.3921 31.425V29.29H38.0641V31.348C38.0641 31.7073 38.1504 31.9803 38.3231 32.167C38.4957 32.349 38.7431 32.44 39.0651 32.44C39.4197 32.44 39.6997 32.3327 39.9051 32.118C40.1104 31.9033 40.2131 31.6 40.2131 31.208V29.29H40.8851Z" fill="black"/>
<path d="M44.2504 32.783C44.1524 32.867 44.031 32.9323 43.8864 32.979C43.7417 33.021 43.5924 33.042 43.4384 33.042C43.065 33.042 42.7757 32.9417 42.5704 32.741C42.365 32.5403 42.2624 32.2533 42.2624 31.88V29.843H41.6324V29.29H42.2624V28.478H42.9344V29.29H43.9984V29.843H42.9344V31.852C42.9344 32.0527 42.9834 32.2067 43.0814 32.314C43.184 32.4213 43.3287 32.475 43.5154 32.475C43.7207 32.475 43.8957 32.4167 44.0404 32.3L44.2504 32.783Z" fill="black"/>
<path d="M49.0287 32.783C48.9307 32.867 48.8093 32.9323 48.6647 32.979C48.52 33.021 48.3707 33.042 48.2167 33.042C47.8433 33.042 47.554 32.9417 47.3487 32.741C47.1433 32.5403 47.0407 32.2533 47.0407 31.88V29.843H46.4107V29.29H47.0407V28.478H47.7127V29.29H48.7767V29.843H47.7127V31.852C47.7127 32.0527 47.7617 32.2067 47.8597 32.314C47.9623 32.4213 48.107 32.475 48.2937 32.475C48.499 32.475 48.674 32.4167 48.8187 32.3L49.0287 32.783Z" fill="black"/>
<path d="M51.8221 29.255C52.2935 29.255 52.6668 29.3927 52.9421 29.668C53.2221 29.9387 53.3621 30.3377 53.3621 30.865V33H52.6901V30.942C52.6901 30.5827 52.6038 30.312 52.4311 30.13C52.2585 29.948 52.0111 29.857 51.6891 29.857C51.3251 29.857 51.0381 29.9643 50.8281 30.179C50.6181 30.389 50.5131 30.6923 50.5131 31.089V33H49.8411V27.806H50.5131V29.815C50.6531 29.6377 50.8351 29.5 51.0591 29.402C51.2878 29.304 51.5421 29.255 51.8221 29.255Z" fill="black"/>
<path d="M54.6058 29.29H55.2778V33H54.6058V29.29ZM54.9418 28.576C54.8111 28.576 54.7014 28.534 54.6128 28.45C54.5288 28.366 54.4868 28.2633 54.4868 28.142C54.4868 28.0207 54.5288 27.918 54.6128 27.834C54.7014 27.7453 54.8111 27.701 54.9418 27.701C55.0724 27.701 55.1798 27.743 55.2638 27.827C55.3524 27.9063 55.3968 28.0067 55.3968 28.128C55.3968 28.254 55.3524 28.3613 55.2638 28.45C55.1798 28.534 55.0724 28.576 54.9418 28.576Z" fill="black"/>
<path d="M57.6248 33.042C57.3215 33.042 57.0298 33.0023 56.7498 32.923C56.4698 32.839 56.2505 32.734 56.0918 32.608L56.3718 32.076C56.5352 32.1927 56.7335 32.286 56.9668 32.356C57.2002 32.426 57.4358 32.461 57.6738 32.461C58.2618 32.461 58.5558 32.293 58.5558 31.957C58.5558 31.845 58.5162 31.7563 58.4368 31.691C58.3575 31.6257 58.2572 31.579 58.1358 31.551C58.0192 31.5183 57.8512 31.4833 57.6318 31.446C57.3332 31.3993 57.0882 31.3457 56.8968 31.285C56.7102 31.2243 56.5492 31.1217 56.4138 30.977C56.2785 30.8323 56.2108 30.6293 56.2108 30.368C56.2108 30.032 56.3508 29.7637 56.6308 29.563C56.9108 29.3577 57.2865 29.255 57.7578 29.255C58.0052 29.255 58.2525 29.2853 58.4998 29.346C58.7472 29.4067 58.9502 29.4883 59.1088 29.591L58.8218 30.123C58.5185 29.927 58.1615 29.829 57.7508 29.829C57.4662 29.829 57.2492 29.8757 57.0998 29.969C56.9505 30.0623 56.8758 30.186 56.8758 30.34C56.8758 30.4613 56.9178 30.557 57.0018 30.627C57.0858 30.697 57.1885 30.7483 57.3098 30.781C57.4358 30.8137 57.6108 30.851 57.8348 30.893C58.1335 30.9443 58.3738 31.0003 58.5558 31.061C58.7425 31.117 58.9012 31.215 59.0318 31.355C59.1625 31.495 59.2278 31.691 59.2278 31.943C59.2278 32.279 59.0832 32.5473 58.7938 32.748C58.5092 32.944 58.1195 33.042 57.6248 33.042Z" fill="black"/>
<path d="M63.3056 28.317C62.9042 28.317 62.7036 28.534 62.7036 28.968V29.29H63.7816V29.843H62.7176V33H62.0456V29.843H61.4156V29.29H62.0456V28.961C62.0456 28.5923 62.1529 28.3007 62.3676 28.086C62.5822 27.8713 62.8832 27.764 63.2706 27.764C63.4199 27.764 63.5599 27.7827 63.6906 27.82C63.8212 27.8573 63.9332 27.911 64.0266 27.981L63.8236 28.492C63.6696 28.3753 63.4969 28.317 63.3056 28.317Z" fill="black"/>
<path d="M65.9496 33.042C65.581 33.042 65.2496 32.9603 64.9556 32.797C64.6616 32.6337 64.4306 32.4097 64.2626 32.125C64.0993 31.8357 64.0176 31.509 64.0176 31.145C64.0176 30.781 64.0993 30.4567 64.2626 30.172C64.4306 29.8827 64.6616 29.6587 64.9556 29.5C65.2496 29.3367 65.581 29.255 65.9496 29.255C66.3183 29.255 66.6473 29.3367 66.9366 29.5C67.2306 29.6587 67.4593 29.8827 67.6227 30.172C67.7907 30.4567 67.8746 30.781 67.8746 31.145C67.8746 31.509 67.7907 31.8357 67.6227 32.125C67.4593 32.4097 67.2306 32.6337 66.9366 32.797C66.6473 32.9603 66.3183 33.042 65.9496 33.042ZM65.9496 32.454C66.1876 32.454 66.4 32.4003 66.5866 32.293C66.778 32.181 66.9273 32.027 67.0346 31.831C67.142 31.6303 67.1956 31.4017 67.1956 31.145C67.1956 30.8883 67.142 30.662 67.0346 30.466C66.9273 30.2653 66.778 30.1113 66.5866 30.004C66.4 29.8967 66.1876 29.843 65.9496 29.843C65.7116 29.843 65.497 29.8967 65.3056 30.004C65.119 30.1113 64.9696 30.2653 64.8576 30.466C64.7503 30.662 64.6966 30.8883 64.6966 31.145C64.6966 31.4017 64.7503 31.6303 64.8576 31.831C64.9696 32.027 65.119 32.181 65.3056 32.293C65.497 32.4003 65.7116 32.454 65.9496 32.454Z" fill="black"/>
<path d="M69.448 29.913C69.5647 29.6983 69.7373 29.535 69.966 29.423C70.1947 29.311 70.4723 29.255 70.799 29.255V29.906C70.7617 29.9013 70.7103 29.899 70.645 29.899C70.281 29.899 69.994 30.0087 69.784 30.228C69.5787 30.4427 69.476 30.7507 69.476 31.152V33H68.804V29.29H69.448V29.913Z" fill="black"/>
<path d="M76.2682 29.255C76.7349 29.255 77.1036 29.3903 77.3743 29.661C77.6496 29.9317 77.7872 30.333 77.7872 30.865V33H77.1152V30.942C77.1152 30.5827 77.0313 30.312 76.8633 30.13C76.6999 29.948 76.4642 29.857 76.1562 29.857C75.8156 29.857 75.5449 29.9643 75.3443 30.179C75.1436 30.389 75.0433 30.6923 75.0433 31.089V33H74.3712V30.942C74.3712 30.5827 74.2872 30.312 74.1192 30.13C73.9559 29.948 73.7203 29.857 73.4123 29.857C73.0716 29.857 72.8009 29.9643 72.6003 30.179C72.3996 30.389 72.2993 30.6923 72.2993 31.089V33H71.6273V29.29H72.2712V29.843C72.4066 29.6517 72.5839 29.507 72.8032 29.409C73.0226 29.3063 73.2722 29.255 73.5522 29.255C73.8416 29.255 74.0983 29.3133 74.3223 29.43C74.5463 29.5467 74.7189 29.717 74.8402 29.941C74.9802 29.7263 75.1739 29.5583 75.4212 29.437C75.6732 29.3157 75.9556 29.255 76.2682 29.255Z" fill="black"/>
<g clip-path="url(#clip0)">
<g clip-path="url(#clip1)">
<rect x="109" y="17" width="30" height="2" rx="0.5" fill="#A1A8C2" fill-opacity="0.45"/>
<rect x="109.25" y="21.25" width="84.5" height="7.5" rx="0.75" stroke="#A1A8C2" stroke-opacity="0.45" stroke-width="0.5"/>
</g>
<g clip-path="url(#clip2)">
<rect x="109" y="34" width="30" height="2" rx="0.5" fill="#A1A8C2" fill-opacity="0.45"/>
<rect x="109.25" y="38.25" width="84.5" height="7.5" rx="0.75" stroke="#A1A8C2" stroke-opacity="0.45" stroke-width="0.5"/>
</g>
<rect x="159" y="51" width="35" height="8" rx="1" fill="#A1A8C2" fill-opacity="0.45"/>
</g>
<defs>
<clipPath id="clip0">
<path d="M109 17H194V59H109V17Z" fill="white"/>
</clipPath>
<clipPath id="clip1">
<rect x="109" y="17" width="85" height="12" fill="white"/>
</clipPath>
<clipPath id="clip2">
<rect x="109" y="34" width="85" height="12" fill="white"/>
</clipPath>
</defs>
</svg>
