<svg width="12" height="12" viewBox="0 0 12 12" xmlns="http://www.w3.org/2000/svg">
<path opacity="0.5" fill-rule="evenodd" clip-rule="evenodd" d="M7.5 8.5C7.22386 8.5 7 8.72386 7 9C7 9.27614 7.22386 9.5 7.5 9.5H11.5C11.7761 9.5 12 9.27614 12 9C12 8.72386 11.7761 8.5 11.5 8.5H7.5ZM7.5 10.5C7.22386 10.5 7 10.7239 7 11C7 11.2761 7.22386 11.5 7.5 11.5H11.5C11.7761 11.5 12 11.2761 12 11C12 10.7239 11.7761 10.5 11.5 10.5H7.5Z" />
<rect y="8" width="6" height="4" rx="1" />
<path fill-rule="evenodd" clip-rule="evenodd" d="M2 1.5H10C10.2761 1.5 10.5 1.72386 10.5 2V4.58836C10.452 4.48363 10.3836 4.38363 10.2929 4.2929L8.70711 2.70712C8.31658 2.31659 7.68342 2.31659 7.29289 2.70712L6.01968 3.98033C5.64528 4.35473 5.04394 4.3724 4.64821 4.02064L4.16436 3.59055C3.78548 3.25377 3.21452 3.25377 2.83564 3.59055L1.5 4.77779V2C1.5 1.72386 1.72386 1.5 2 1.5ZM0.865851 6.64756C0.342806 6.28682 0 5.68344 0 5V2C0 0.89543 0.895431 0 2 0H10C11.1046 0 12 0.895431 12 2V5C12 6.10457 11.1046 7 10 7H7.24961C7.24887 7.00001 7.24814 7.00001 7.2474 7.00001H1.99721C1.57715 6.99943 1.18745 6.86936 0.86587 6.64758C0.865864 6.64757 0.865857 6.64756 0.865851 6.64756Z" />
</svg>
