<svg width="204" height="64" viewBox="0 0 204 64" fill="none" xmlns="http://www.w3.org/2000/svg">
<rect width="204" height="64" fill="white"/>
<path d="M42.8959 29.548H41.9359V29.2H44.2519V29.548H43.2919V32H42.8959V29.548Z" fill="black"/>
<path d="M45.7636 29.86C46.0329 29.86 46.2462 29.9387 46.4036 30.096C46.5636 30.2507 46.6436 30.4787 46.6436 30.78V32H46.2596V30.824C46.2596 30.6187 46.2102 30.464 46.1116 30.36C46.0129 30.256 45.8716 30.204 45.6876 30.204C45.4796 30.204 45.3156 30.2653 45.1956 30.388C45.0756 30.508 45.0156 30.6813 45.0156 30.908V32H44.6316V29.032H45.0156V30.18C45.0956 30.0787 45.1996 30 45.3276 29.944C45.4582 29.888 45.6036 29.86 45.7636 29.86Z" fill="black"/>
<path d="M47.3542 29.88H47.7382V32H47.3542V29.88ZM47.5462 29.472C47.4716 29.472 47.4089 29.448 47.3582 29.4C47.3102 29.352 47.2862 29.2933 47.2862 29.224C47.2862 29.1547 47.3102 29.096 47.3582 29.048C47.4089 28.9973 47.4716 28.972 47.5462 28.972C47.6209 28.972 47.6822 28.996 47.7302 29.044C47.7809 29.0893 47.8062 29.1467 47.8062 29.216C47.8062 29.288 47.7809 29.3493 47.7302 29.4C47.6822 29.448 47.6209 29.472 47.5462 29.472Z" fill="black"/>
<path d="M49.0794 32.024C48.9061 32.024 48.7394 32.0013 48.5794 31.956C48.4194 31.908 48.2941 31.848 48.2034 31.776L48.3634 31.472C48.4567 31.5387 48.5701 31.592 48.7034 31.632C48.8367 31.672 48.9714 31.692 49.1074 31.692C49.4434 31.692 49.6114 31.596 49.6114 31.404C49.6114 31.34 49.5887 31.2893 49.5434 31.252C49.4981 31.2147 49.4407 31.188 49.3714 31.172C49.3047 31.1533 49.2087 31.1333 49.0834 31.112C48.9127 31.0853 48.7727 31.0547 48.6634 31.02C48.5567 30.9853 48.4647 30.9267 48.3874 30.844C48.3101 30.7613 48.2714 30.6453 48.2714 30.496C48.2714 30.304 48.3514 30.1507 48.5114 30.036C48.6714 29.9187 48.8861 29.86 49.1554 29.86C49.2967 29.86 49.4381 29.8773 49.5794 29.912C49.7207 29.9467 49.8367 29.9933 49.9274 30.052L49.7634 30.356C49.5901 30.244 49.3861 30.188 49.1514 30.188C48.9887 30.188 48.8647 30.2147 48.7794 30.268C48.6941 30.3213 48.6514 30.392 48.6514 30.48C48.6514 30.5493 48.6754 30.604 48.7234 30.644C48.7714 30.684 48.8301 30.7133 48.8994 30.732C48.9714 30.7507 49.0714 30.772 49.1994 30.796C49.3701 30.8253 49.5074 30.8573 49.6114 30.892C49.7181 30.924 49.8087 30.98 49.8834 31.06C49.9581 31.14 49.9954 31.252 49.9954 31.396C49.9954 31.588 49.9127 31.7413 49.7474 31.856C49.5847 31.968 49.3621 32.024 49.0794 32.024Z" fill="black"/>
<path d="M51.5495 29.88H51.9335V32H51.5495V29.88ZM51.7415 29.472C51.6669 29.472 51.6042 29.448 51.5535 29.4C51.5055 29.352 51.4815 29.2933 51.4815 29.224C51.4815 29.1547 51.5055 29.096 51.5535 29.048C51.6042 28.9973 51.6669 28.972 51.7415 28.972C51.8162 28.972 51.8775 28.996 51.9255 29.044C51.9762 29.0893 52.0015 29.1467 52.0015 29.216C52.0015 29.288 51.9762 29.3493 51.9255 29.4C51.8775 29.448 51.8162 29.472 51.7415 29.472Z" fill="black"/>
<path d="M53.2747 32.024C53.1014 32.024 52.9347 32.0013 52.7747 31.956C52.6147 31.908 52.4894 31.848 52.3987 31.776L52.5587 31.472C52.6521 31.5387 52.7654 31.592 52.8987 31.632C53.0321 31.672 53.1667 31.692 53.3027 31.692C53.6387 31.692 53.8067 31.596 53.8067 31.404C53.8067 31.34 53.7841 31.2893 53.7387 31.252C53.6934 31.2147 53.6361 31.188 53.5667 31.172C53.5001 31.1533 53.4041 31.1333 53.2787 31.112C53.1081 31.0853 52.9681 31.0547 52.8587 31.02C52.7521 30.9853 52.6601 30.9267 52.5827 30.844C52.5054 30.7613 52.4667 30.6453 52.4667 30.496C52.4667 30.304 52.5467 30.1507 52.7067 30.036C52.8667 29.9187 53.0814 29.86 53.3507 29.86C53.4921 29.86 53.6334 29.8773 53.7747 29.912C53.9161 29.9467 54.0321 29.9933 54.1227 30.052L53.9587 30.356C53.7854 30.244 53.5814 30.188 53.3467 30.188C53.1841 30.188 53.0601 30.2147 52.9747 30.268C52.8894 30.3213 52.8467 30.392 52.8467 30.48C52.8467 30.5493 52.8707 30.604 52.9187 30.644C52.9667 30.684 53.0254 30.7133 53.0947 30.732C53.1667 30.7507 53.2667 30.772 53.3947 30.796C53.5654 30.8253 53.7027 30.8573 53.8067 30.892C53.9134 30.924 54.0041 30.98 54.0787 31.06C54.1534 31.14 54.1907 31.252 54.1907 31.396C54.1907 31.588 54.1081 31.7413 53.9427 31.856C53.7801 31.968 53.5574 32.024 53.2747 32.024Z" fill="black"/>
<path d="M56.5169 29.86C56.8102 29.86 57.0342 29.932 57.1889 30.076C57.3462 30.22 57.4249 30.4347 57.4249 30.72V32H57.0609V31.72C56.9969 31.8187 56.9049 31.8947 56.7849 31.948C56.6675 31.9987 56.5275 32.024 56.3649 32.024C56.1275 32.024 55.9369 31.9667 55.7929 31.852C55.6515 31.7373 55.5809 31.5867 55.5809 31.4C55.5809 31.2133 55.6489 31.064 55.7849 30.952C55.9209 30.8373 56.1369 30.78 56.4329 30.78H57.0409V30.704C57.0409 30.5387 56.9929 30.412 56.8969 30.324C56.8009 30.236 56.6595 30.192 56.4728 30.192C56.3475 30.192 56.2249 30.2133 56.1049 30.256C55.9849 30.296 55.8835 30.3507 55.8009 30.42L55.6409 30.132C55.7502 30.044 55.8809 29.9773 56.0329 29.932C56.1849 29.884 56.3462 29.86 56.5169 29.86ZM56.4289 31.728C56.5755 31.728 56.7022 31.696 56.8089 31.632C56.9155 31.5653 56.9929 31.472 57.0409 31.352V31.056H56.4489C56.1235 31.056 55.9609 31.1653 55.9609 31.384C55.9609 31.4907 56.0022 31.5747 56.0849 31.636C56.1675 31.6973 56.2822 31.728 56.4289 31.728Z" fill="black"/>
<path d="M59.8177 32.024C59.6444 32.024 59.4777 32.0013 59.3177 31.956C59.1577 31.908 59.0324 31.848 58.9417 31.776L59.1017 31.472C59.195 31.5387 59.3084 31.592 59.4417 31.632C59.575 31.672 59.7097 31.692 59.8457 31.692C60.1817 31.692 60.3497 31.596 60.3497 31.404C60.3497 31.34 60.327 31.2893 60.2817 31.252C60.2364 31.2147 60.179 31.188 60.1097 31.172C60.043 31.1533 59.947 31.1333 59.8217 31.112C59.651 31.0853 59.511 31.0547 59.4017 31.02C59.295 30.9853 59.203 30.9267 59.1257 30.844C59.0484 30.7613 59.0097 30.6453 59.0097 30.496C59.0097 30.304 59.0897 30.1507 59.2497 30.036C59.4097 29.9187 59.6244 29.86 59.8937 29.86C60.035 29.86 60.1764 29.8773 60.3177 29.912C60.459 29.9467 60.575 29.9933 60.6657 30.052L60.5017 30.356C60.3284 30.244 60.1244 30.188 59.8897 30.188C59.727 30.188 59.603 30.2147 59.5177 30.268C59.4324 30.3213 59.3897 30.392 59.3897 30.48C59.3897 30.5493 59.4137 30.604 59.4617 30.644C59.5097 30.684 59.5684 30.7133 59.6377 30.732C59.7097 30.7507 59.8097 30.772 59.9377 30.796C60.1084 30.8253 60.2457 30.8573 60.3497 30.892C60.4564 30.924 60.547 30.98 60.6217 31.06C60.6964 31.14 60.7337 31.252 60.7337 31.396C60.7337 31.588 60.651 31.7413 60.4857 31.856C60.323 31.968 60.1004 32.024 59.8177 32.024Z" fill="black"/>
<path d="M63.1896 29.88V32H62.8256V31.68C62.7483 31.7893 62.6456 31.8747 62.5176 31.936C62.3923 31.9947 62.2549 32.024 62.1056 32.024C61.8229 32.024 61.6003 31.9467 61.4376 31.792C61.2749 31.6347 61.1936 31.404 61.1936 31.1V29.88H61.5776V31.056C61.5776 31.2613 61.6269 31.4173 61.7256 31.524C61.8243 31.628 61.9656 31.68 62.1496 31.68C62.3523 31.68 62.5123 31.6187 62.6296 31.496C62.7469 31.3733 62.8056 31.2 62.8056 30.976V29.88H63.1896Z" fill="black"/>
<path d="M65.0446 29.86C65.25 29.86 65.434 29.9053 65.5966 29.996C65.7593 30.0867 65.886 30.2133 65.9766 30.376C66.07 30.5387 66.1166 30.7267 66.1166 30.94C66.1166 31.1533 66.07 31.3427 65.9766 31.508C65.886 31.6707 65.7593 31.7973 65.5966 31.888C65.434 31.9787 65.25 32.024 65.0446 32.024C64.8873 32.024 64.7433 31.9933 64.6126 31.932C64.482 31.8707 64.374 31.7813 64.2886 31.664V32H63.9206V29.032H64.3046V30.2C64.39 30.088 64.4966 30.004 64.6246 29.948C64.7526 29.8893 64.8926 29.86 65.0446 29.86ZM65.0126 31.688C65.1486 31.688 65.27 31.6573 65.3766 31.596C65.486 31.532 65.5713 31.444 65.6326 31.332C65.6966 31.2173 65.7286 31.0867 65.7286 30.94C65.7286 30.7933 65.6966 30.664 65.6326 30.552C65.5713 30.4373 65.486 30.3493 65.3766 30.288C65.27 30.2267 65.1486 30.196 65.0126 30.196C64.8793 30.196 64.758 30.2267 64.6486 30.288C64.5393 30.3493 64.454 30.4373 64.3926 30.552C64.3313 30.664 64.3006 30.7933 64.3006 30.94C64.3006 31.0867 64.3313 31.2173 64.3926 31.332C64.454 31.444 64.5393 31.532 64.6486 31.596C64.758 31.6573 64.8793 31.688 65.0126 31.688Z" fill="black"/>
<path d="M67.7792 29.86C68.0485 29.86 68.2619 29.9387 68.4192 30.096C68.5792 30.2507 68.6592 30.4787 68.6592 30.78V32H68.2752V30.824C68.2752 30.6187 68.2259 30.464 68.1272 30.36C68.0285 30.256 67.8872 30.204 67.7032 30.204C67.4952 30.204 67.3312 30.2653 67.2112 30.388C67.0912 30.508 67.0312 30.6813 67.0312 30.908V32H66.6472V29.032H67.0312V30.18C67.1112 30.0787 67.2152 30 67.3432 29.944C67.4739 29.888 67.6192 29.86 67.7792 29.86Z" fill="black"/>
<path d="M71.2976 30.952C71.2976 30.9813 71.2949 31.02 71.2896 31.068H69.5696C69.5936 31.2547 69.6749 31.4053 69.8136 31.52C69.9549 31.632 70.1296 31.688 70.3376 31.688C70.5909 31.688 70.7949 31.6027 70.9496 31.432L71.1616 31.68C71.0656 31.792 70.9456 31.8773 70.8016 31.936C70.6602 31.9947 70.5016 32.024 70.3256 32.024C70.1016 32.024 69.9029 31.9787 69.7296 31.888C69.5562 31.7947 69.4216 31.6653 69.3256 31.5C69.2322 31.3347 69.1856 31.148 69.1856 30.94C69.1856 30.7347 69.2309 30.5493 69.3216 30.384C69.4149 30.2187 69.5416 30.0907 69.7016 30C69.8642 29.9067 70.0469 29.86 70.2496 29.86C70.4522 29.86 70.6322 29.9067 70.7896 30C70.9496 30.0907 71.0736 30.2187 71.1616 30.384C71.2522 30.5493 71.2976 30.7387 71.2976 30.952ZM70.2496 30.184C70.0656 30.184 69.9109 30.24 69.7856 30.352C69.6629 30.464 69.5909 30.6107 69.5696 30.792H70.9296C70.9082 30.6133 70.8349 30.468 70.7096 30.356C70.5869 30.2413 70.4336 30.184 70.2496 30.184Z" fill="black"/>
<path d="M72.5442 29.86C72.8375 29.86 73.0615 29.932 73.2162 30.076C73.3735 30.22 73.4522 30.4347 73.4522 30.72V32H73.0882V31.72C73.0242 31.8187 72.9322 31.8947 72.8122 31.948C72.6949 31.9987 72.5549 32.024 72.3922 32.024C72.1549 32.024 71.9642 31.9667 71.8202 31.852C71.6789 31.7373 71.6082 31.5867 71.6082 31.4C71.6082 31.2133 71.6762 31.064 71.8122 30.952C71.9482 30.8373 72.1642 30.78 72.4602 30.78H73.0682V30.704C73.0682 30.5387 73.0202 30.412 72.9242 30.324C72.8282 30.236 72.6869 30.192 72.5002 30.192C72.3749 30.192 72.2522 30.2133 72.1322 30.256C72.0122 30.296 71.9109 30.3507 71.8282 30.42L71.6682 30.132C71.7775 30.044 71.9082 29.9773 72.0602 29.932C72.2122 29.884 72.3735 29.86 72.5442 29.86ZM72.4562 31.728C72.6029 31.728 72.7295 31.696 72.8362 31.632C72.9429 31.5653 73.0202 31.472 73.0682 31.352V31.056H72.4762C72.1509 31.056 71.9882 31.1653 71.9882 31.384C71.9882 31.4907 72.0295 31.5747 72.1122 31.636C72.1949 31.6973 72.3095 31.728 72.4562 31.728Z" fill="black"/>
<path d="M76.1745 29.032V32H75.8065V31.664C75.7212 31.7813 75.6132 31.8707 75.4825 31.932C75.3519 31.9933 75.2079 32.024 75.0505 32.024C74.8452 32.024 74.6612 31.9787 74.4985 31.888C74.3359 31.7973 74.2079 31.6707 74.1145 31.508C74.0239 31.3427 73.9785 31.1533 73.9785 30.94C73.9785 30.7267 74.0239 30.5387 74.1145 30.376C74.2079 30.2133 74.3359 30.0867 74.4985 29.996C74.6612 29.9053 74.8452 29.86 75.0505 29.86C75.2025 29.86 75.3425 29.8893 75.4705 29.948C75.5985 30.004 75.7052 30.088 75.7905 30.2V29.032H76.1745ZM75.0825 31.688C75.2159 31.688 75.3372 31.6573 75.4465 31.596C75.5559 31.532 75.6412 31.444 75.7025 31.332C75.7639 31.2173 75.7945 31.0867 75.7945 30.94C75.7945 30.7933 75.7639 30.664 75.7025 30.552C75.6412 30.4373 75.5559 30.3493 75.4465 30.288C75.3372 30.2267 75.2159 30.196 75.0825 30.196C74.9465 30.196 74.8239 30.2267 74.7145 30.288C74.6079 30.3493 74.5225 30.4373 74.4585 30.552C74.3972 30.664 74.3665 30.7933 74.3665 30.94C74.3665 31.0867 74.3972 31.2173 74.4585 31.332C74.5225 31.444 74.6079 31.532 74.7145 31.596C74.8239 31.6573 74.9465 31.688 75.0825 31.688Z" fill="black"/>
<path d="M78.8171 30.952C78.8171 30.9813 78.8144 31.02 78.8091 31.068H77.0891C77.1131 31.2547 77.1944 31.4053 77.3331 31.52C77.4744 31.632 77.6491 31.688 77.8571 31.688C78.1104 31.688 78.3144 31.6027 78.4691 31.432L78.6811 31.68C78.5851 31.792 78.4651 31.8773 78.3211 31.936C78.1798 31.9947 78.0211 32.024 77.8451 32.024C77.6211 32.024 77.4224 31.9787 77.2491 31.888C77.0758 31.7947 76.9411 31.6653 76.8451 31.5C76.7518 31.3347 76.7051 31.148 76.7051 30.94C76.7051 30.7347 76.7504 30.5493 76.8411 30.384C76.9344 30.2187 77.0611 30.0907 77.2211 30C77.3838 29.9067 77.5664 29.86 77.7691 29.86C77.9718 29.86 78.1518 29.9067 78.3091 30C78.4691 30.0907 78.5931 30.2187 78.6811 30.384C78.7718 30.5493 78.8171 30.7387 78.8171 30.952ZM77.7691 30.184C77.5851 30.184 77.4304 30.24 77.3051 30.352C77.1824 30.464 77.1104 30.6107 77.0891 30.792H78.4491C78.4278 30.6133 78.3544 30.468 78.2291 30.356C78.1064 30.2413 77.9531 30.184 77.7691 30.184Z" fill="black"/>
<path d="M79.7183 30.236C79.785 30.1133 79.8837 30.02 80.0143 29.956C80.145 29.892 80.3037 29.86 80.4903 29.86V30.232C80.469 30.2293 80.4397 30.228 80.4023 30.228C80.1943 30.228 80.0303 30.2907 79.9103 30.416C79.793 30.5387 79.7343 30.7147 79.7343 30.944V32H79.3503V29.88H79.7183V30.236Z" fill="black"/>
<path d="M82.8372 29.86C83.1305 29.86 83.3545 29.932 83.5092 30.076C83.6665 30.22 83.7452 30.4347 83.7452 30.72V32H83.3812V31.72C83.3172 31.8187 83.2252 31.8947 83.1052 31.948C82.9878 31.9987 82.8478 32.024 82.6852 32.024C82.4478 32.024 82.2572 31.9667 82.1132 31.852C81.9718 31.7373 81.9012 31.5867 81.9012 31.4C81.9012 31.2133 81.9692 31.064 82.1052 30.952C82.2412 30.8373 82.4572 30.78 82.7532 30.78H83.3612V30.704C83.3612 30.5387 83.3132 30.412 83.2172 30.324C83.1212 30.236 82.9798 30.192 82.7932 30.192C82.6678 30.192 82.5452 30.2133 82.4252 30.256C82.3052 30.296 82.2038 30.3507 82.1212 30.42L81.9612 30.132C82.0705 30.044 82.2012 29.9773 82.3532 29.932C82.5052 29.884 82.6665 29.86 82.8372 29.86ZM82.7492 31.728C82.8958 31.728 83.0225 31.696 83.1292 31.632C83.2358 31.5653 83.3132 31.472 83.3612 31.352V31.056H82.7692C82.4438 31.056 82.2812 31.1653 82.2812 31.384C82.2812 31.4907 82.3225 31.5747 82.4052 31.636C82.4878 31.6973 82.6025 31.728 82.7492 31.728Z" fill="black"/>
<path d="M85.5798 29.86C85.7851 29.86 85.9691 29.9053 86.1318 29.996C86.2945 30.0867 86.4211 30.2133 86.5118 30.376C86.6051 30.5387 86.6518 30.7267 86.6518 30.94C86.6518 31.1533 86.6051 31.3427 86.5118 31.508C86.4211 31.6707 86.2945 31.7973 86.1318 31.888C85.9691 31.9787 85.7851 32.024 85.5798 32.024C85.4225 32.024 85.2785 31.9933 85.1478 31.932C85.0171 31.8707 84.9091 31.7813 84.8238 31.664V32H84.4558V29.032H84.8398V30.2C84.9251 30.088 85.0318 30.004 85.1598 29.948C85.2878 29.8893 85.4278 29.86 85.5798 29.86ZM85.5478 31.688C85.6838 31.688 85.8051 31.6573 85.9118 31.596C86.0211 31.532 86.1065 31.444 86.1678 31.332C86.2318 31.2173 86.2638 31.0867 86.2638 30.94C86.2638 30.7933 86.2318 30.664 86.1678 30.552C86.1065 30.4373 86.0211 30.3493 85.9118 30.288C85.8051 30.2267 85.6838 30.196 85.5478 30.196C85.4145 30.196 85.2931 30.2267 85.1838 30.288C85.0745 30.3493 84.9891 30.4373 84.9278 30.552C84.8665 30.664 84.8358 30.7933 84.8358 30.94C84.8358 31.0867 84.8665 31.2173 84.9278 31.332C84.9891 31.444 85.0745 31.532 85.1838 31.596C85.2931 31.6573 85.4145 31.688 85.5478 31.688Z" fill="black"/>
<path d="M88.0904 32.024C87.8797 32.024 87.6904 31.9773 87.5224 31.884C87.3544 31.7907 87.2224 31.6627 87.1264 31.5C87.033 31.3347 86.9864 31.148 86.9864 30.94C86.9864 30.732 87.033 30.5467 87.1264 30.384C87.2224 30.2187 87.3544 30.0907 87.5224 30C87.6904 29.9067 87.8797 29.86 88.0904 29.86C88.301 29.86 88.489 29.9067 88.6544 30C88.8224 30.0907 88.953 30.2187 89.0464 30.384C89.1424 30.5467 89.1904 30.732 89.1904 30.94C89.1904 31.148 89.1424 31.3347 89.0464 31.5C88.953 31.6627 88.8224 31.7907 88.6544 31.884C88.489 31.9773 88.301 32.024 88.0904 32.024ZM88.0904 31.688C88.2264 31.688 88.3477 31.6573 88.4544 31.596C88.5637 31.532 88.649 31.444 88.7104 31.332C88.7717 31.2173 88.8024 31.0867 88.8024 30.94C88.8024 30.7933 88.7717 30.664 88.7104 30.552C88.649 30.4373 88.5637 30.3493 88.4544 30.288C88.3477 30.2267 88.2264 30.196 88.0904 30.196C87.9544 30.196 87.8317 30.2267 87.7224 30.288C87.6157 30.3493 87.5304 30.4373 87.4664 30.552C87.405 30.664 87.3744 30.7933 87.3744 30.94C87.3744 31.0867 87.405 31.2173 87.4664 31.332C87.5304 31.444 87.6157 31.532 87.7224 31.596C87.8317 31.6573 87.9544 31.688 88.0904 31.688Z" fill="black"/>
<path d="M91.6974 29.88V32H91.3334V31.68C91.2561 31.7893 91.1534 31.8747 91.0254 31.936C90.9001 31.9947 90.7627 32.024 90.6134 32.024C90.3307 32.024 90.1081 31.9467 89.9454 31.792C89.7827 31.6347 89.7014 31.404 89.7014 31.1V29.88H90.0854V31.056C90.0854 31.2613 90.1347 31.4173 90.2334 31.524C90.3321 31.628 90.4734 31.68 90.6574 31.68C90.8601 31.68 91.0201 31.6187 91.1374 31.496C91.2547 31.3733 91.3134 31.2 91.3134 30.976V29.88H91.6974Z" fill="black"/>
<path d="M93.6204 31.876C93.5644 31.924 93.4951 31.9613 93.4124 31.988C93.3298 32.012 93.2444 32.024 93.1564 32.024C92.9431 32.024 92.7778 31.9667 92.6604 31.852C92.5431 31.7373 92.4844 31.5733 92.4844 31.36V30.196H92.1244V29.88H92.4844V29.416H92.8684V29.88H93.4764V30.196H92.8684V31.344C92.8684 31.4587 92.8964 31.5467 92.9524 31.608C93.0111 31.6693 93.0938 31.7 93.2004 31.7C93.3178 31.7 93.4178 31.6667 93.5004 31.6L93.6204 31.876Z" fill="black"/>
<path d="M96.3509 31.876C96.2949 31.924 96.2256 31.9613 96.1429 31.988C96.0602 32.012 95.9749 32.024 95.8869 32.024C95.6736 32.024 95.5082 31.9667 95.3909 31.852C95.2736 31.7373 95.2149 31.5733 95.2149 31.36V30.196H94.8549V29.88H95.2149V29.416H95.5989V29.88H96.2069V30.196H95.5989V31.344C95.5989 31.4587 95.6269 31.5467 95.6829 31.608C95.7416 31.6693 95.8242 31.7 95.9309 31.7C96.0482 31.7 96.1482 31.6667 96.2309 31.6L96.3509 31.876Z" fill="black"/>
<path d="M97.9472 29.86C98.2165 29.86 98.4298 29.9387 98.5872 30.096C98.7472 30.2507 98.8272 30.4787 98.8272 30.78V32H98.4432V30.824C98.4432 30.6187 98.3938 30.464 98.2952 30.36C98.1965 30.256 98.0552 30.204 97.8712 30.204C97.6632 30.204 97.4992 30.2653 97.3792 30.388C97.2592 30.508 97.1992 30.6813 97.1992 30.908V32H96.8152V29.032H97.1992V30.18C97.2792 30.0787 97.3832 30 97.5112 29.944C97.6418 29.888 97.7872 29.86 97.9472 29.86Z" fill="black"/>
<path d="M99.5378 29.88H99.9218V32H99.5378V29.88ZM99.7298 29.472C99.6552 29.472 99.5925 29.448 99.5418 29.4C99.4938 29.352 99.4698 29.2933 99.4698 29.224C99.4698 29.1547 99.4938 29.096 99.5418 29.048C99.5925 28.9973 99.6552 28.972 99.7298 28.972C99.8045 28.972 99.8658 28.996 99.9138 29.044C99.9645 29.0893 99.9898 29.1467 99.9898 29.216C99.9898 29.288 99.9645 29.3493 99.9138 29.4C99.8658 29.448 99.8045 29.472 99.7298 29.472Z" fill="black"/>
<path d="M101.263 32.024C101.09 32.024 100.923 32.0013 100.763 31.956C100.603 31.908 100.478 31.848 100.387 31.776L100.547 31.472C100.64 31.5387 100.754 31.592 100.887 31.632C101.02 31.672 101.155 31.692 101.291 31.692C101.627 31.692 101.795 31.596 101.795 31.404C101.795 31.34 101.772 31.2893 101.727 31.252C101.682 31.2147 101.624 31.188 101.555 31.172C101.488 31.1533 101.392 31.1333 101.267 31.112C101.096 31.0853 100.956 31.0547 100.847 31.02C100.74 30.9853 100.648 30.9267 100.571 30.844C100.494 30.7613 100.455 30.6453 100.455 30.496C100.455 30.304 100.535 30.1507 100.695 30.036C100.855 29.9187 101.07 29.86 101.339 29.86C101.48 29.86 101.622 29.8773 101.763 29.912C101.904 29.9467 102.02 29.9933 102.111 30.052L101.947 30.356C101.774 30.244 101.57 30.188 101.335 30.188C101.172 30.188 101.048 30.2147 100.963 30.268C100.878 30.3213 100.835 30.392 100.835 30.48C100.835 30.5493 100.859 30.604 100.907 30.644C100.955 30.684 101.014 30.7133 101.083 30.732C101.155 30.7507 101.255 30.772 101.383 30.796C101.554 30.8253 101.691 30.8573 101.795 30.892C101.902 30.924 101.992 30.98 102.067 31.06C102.142 31.14 102.179 31.252 102.179 31.396C102.179 31.588 102.096 31.7413 101.931 31.856C101.768 31.968 101.546 32.024 101.263 32.024Z" fill="black"/>
<path d="M104.657 32.024C104.441 32.024 104.248 31.9773 104.077 31.884C103.909 31.7907 103.777 31.6627 103.681 31.5C103.585 31.3347 103.537 31.148 103.537 30.94C103.537 30.732 103.585 30.5467 103.681 30.384C103.777 30.2187 103.909 30.0907 104.077 30C104.248 29.9067 104.441 29.86 104.657 29.86C104.849 29.86 105.02 29.8987 105.169 29.976C105.321 30.0533 105.438 30.1653 105.521 30.312L105.229 30.5C105.162 30.3987 105.08 30.3227 104.981 30.272C104.882 30.2213 104.773 30.196 104.653 30.196C104.514 30.196 104.389 30.2267 104.277 30.288C104.168 30.3493 104.081 30.4373 104.017 30.552C103.956 30.664 103.925 30.7933 103.925 30.94C103.925 31.0893 103.956 31.2213 104.017 31.336C104.081 31.448 104.168 31.5347 104.277 31.596C104.389 31.6573 104.514 31.688 104.653 31.688C104.773 31.688 104.882 31.6627 104.981 31.612C105.08 31.5613 105.162 31.4853 105.229 31.384L105.521 31.568C105.438 31.7147 105.321 31.828 105.169 31.908C105.02 31.9853 104.849 32.024 104.657 32.024Z" fill="black"/>
<path d="M106.895 32.024C106.684 32.024 106.495 31.9773 106.327 31.884C106.159 31.7907 106.027 31.6627 105.931 31.5C105.838 31.3347 105.791 31.148 105.791 30.94C105.791 30.732 105.838 30.5467 105.931 30.384C106.027 30.2187 106.159 30.0907 106.327 30C106.495 29.9067 106.684 29.86 106.895 29.86C107.106 29.86 107.294 29.9067 107.459 30C107.627 30.0907 107.758 30.2187 107.851 30.384C107.947 30.5467 107.995 30.732 107.995 30.94C107.995 31.148 107.947 31.3347 107.851 31.5C107.758 31.6627 107.627 31.7907 107.459 31.884C107.294 31.9773 107.106 32.024 106.895 32.024ZM106.895 31.688C107.031 31.688 107.152 31.6573 107.259 31.596C107.368 31.532 107.454 31.444 107.515 31.332C107.576 31.2173 107.607 31.0867 107.607 30.94C107.607 30.7933 107.576 30.664 107.515 30.552C107.454 30.4373 107.368 30.3493 107.259 30.288C107.152 30.2267 107.031 30.196 106.895 30.196C106.759 30.196 106.636 30.2267 106.527 30.288C106.42 30.3493 106.335 30.4373 106.271 30.552C106.21 30.664 106.179 30.7933 106.179 30.94C106.179 31.0867 106.21 31.2173 106.271 31.332C106.335 31.444 106.42 31.532 106.527 31.596C106.636 31.6573 106.759 31.688 106.895 31.688Z" fill="black"/>
<path d="M111.178 29.86C111.445 29.86 111.655 29.9373 111.81 30.092C111.967 30.2467 112.046 30.476 112.046 30.78V32H111.662V30.824C111.662 30.6187 111.614 30.464 111.518 30.36C111.425 30.256 111.29 30.204 111.114 30.204C110.919 30.204 110.765 30.2653 110.65 30.388C110.535 30.508 110.478 30.6813 110.478 30.908V32H110.094V30.824C110.094 30.6187 110.046 30.464 109.95 30.36C109.857 30.256 109.722 30.204 109.546 30.204C109.351 30.204 109.197 30.2653 109.082 30.388C108.967 30.508 108.91 30.6813 108.91 30.908V32H108.526V29.88H108.894V30.196C108.971 30.0867 109.073 30.004 109.198 29.948C109.323 29.8893 109.466 29.86 109.626 29.86C109.791 29.86 109.938 29.8933 110.066 29.96C110.194 30.0267 110.293 30.124 110.362 30.252C110.442 30.1293 110.553 30.0333 110.694 29.964C110.838 29.8947 110.999 29.86 111.178 29.86Z" fill="black"/>
<path d="M113.877 29.86C114.082 29.86 114.266 29.9053 114.429 29.996C114.591 30.0867 114.718 30.2133 114.809 30.376C114.902 30.5387 114.949 30.7267 114.949 30.94C114.949 31.1533 114.902 31.3427 114.809 31.508C114.718 31.6707 114.591 31.7973 114.429 31.888C114.266 31.9787 114.082 32.024 113.877 32.024C113.725 32.024 113.585 31.9947 113.457 31.936C113.331 31.8773 113.225 31.792 113.137 31.68V32.776H112.753V29.88H113.121V30.216C113.206 30.0987 113.314 30.0107 113.445 29.952C113.575 29.8907 113.719 29.86 113.877 29.86ZM113.845 31.688C113.981 31.688 114.102 31.6573 114.209 31.596C114.318 31.532 114.403 31.444 114.465 31.332C114.529 31.2173 114.561 31.0867 114.561 30.94C114.561 30.7933 114.529 30.664 114.465 30.552C114.403 30.4373 114.318 30.3493 114.209 30.288C114.102 30.2267 113.981 30.196 113.845 30.196C113.711 30.196 113.59 30.228 113.481 30.292C113.374 30.3533 113.289 30.44 113.225 30.552C113.163 30.664 113.133 30.7933 113.133 30.94C113.133 31.0867 113.163 31.2173 113.225 31.332C113.286 31.444 113.371 31.532 113.481 31.596C113.59 31.6573 113.711 31.688 113.845 31.688Z" fill="black"/>
<path d="M116.232 29.86C116.525 29.86 116.749 29.932 116.904 30.076C117.061 30.22 117.14 30.4347 117.14 30.72V32H116.776V31.72C116.712 31.8187 116.62 31.8947 116.5 31.948C116.382 31.9987 116.242 32.024 116.08 32.024C115.842 32.024 115.652 31.9667 115.508 31.852C115.366 31.7373 115.296 31.5867 115.296 31.4C115.296 31.2133 115.364 31.064 115.5 30.952C115.636 30.8373 115.852 30.78 116.148 30.78H116.756V30.704C116.756 30.5387 116.708 30.412 116.612 30.324C116.516 30.236 116.374 30.192 116.188 30.192C116.062 30.192 115.94 30.2133 115.82 30.256C115.7 30.296 115.598 30.3507 115.516 30.42L115.356 30.132C115.465 30.044 115.596 29.9773 115.748 29.932C115.9 29.884 116.061 29.86 116.232 29.86ZM116.144 31.728C116.29 31.728 116.417 31.696 116.524 31.632C116.63 31.5653 116.708 31.472 116.756 31.352V31.056H116.164C115.838 31.056 115.676 31.1653 115.676 31.384C115.676 31.4907 115.717 31.5747 115.8 31.636C115.882 31.6973 115.997 31.728 116.144 31.728Z" fill="black"/>
<path d="M118.982 29.86C119.252 29.86 119.465 29.9387 119.622 30.096C119.782 30.2507 119.862 30.4787 119.862 30.78V32H119.478V30.824C119.478 30.6187 119.429 30.464 119.33 30.36C119.232 30.256 119.09 30.204 118.906 30.204C118.698 30.204 118.534 30.2653 118.414 30.388C118.294 30.508 118.234 30.6813 118.234 30.908V32H117.85V29.88H118.218V30.2C118.296 30.0907 118.4 30.0067 118.53 29.948C118.664 29.8893 118.814 29.86 118.982 29.86Z" fill="black"/>
<path d="M122.41 29.88L121.382 32.212C121.291 32.428 121.185 32.58 121.062 32.668C120.942 32.756 120.797 32.8 120.626 32.8C120.522 32.8 120.421 32.7827 120.322 32.748C120.226 32.716 120.146 32.668 120.082 32.604L120.246 32.316C120.355 32.42 120.482 32.472 120.626 32.472C120.719 32.472 120.797 32.4467 120.858 32.396C120.922 32.348 120.979 32.264 121.03 32.144L121.098 31.996L120.162 29.88H120.562L121.302 31.576L122.034 29.88H122.41Z" fill="black"/>
<path d="M124.615 29.86C124.908 29.86 125.132 29.932 125.287 30.076C125.444 30.22 125.523 30.4347 125.523 30.72V32H125.159V31.72C125.095 31.8187 125.003 31.8947 124.883 31.948C124.765 31.9987 124.625 32.024 124.463 32.024C124.225 32.024 124.035 31.9667 123.891 31.852C123.749 31.7373 123.679 31.5867 123.679 31.4C123.679 31.2133 123.747 31.064 123.883 30.952C124.019 30.8373 124.235 30.78 124.531 30.78H125.139V30.704C125.139 30.5387 125.091 30.412 124.995 30.324C124.899 30.236 124.757 30.192 124.571 30.192C124.445 30.192 124.323 30.2133 124.203 30.256C124.083 30.296 123.981 30.3507 123.899 30.42L123.739 30.132C123.848 30.044 123.979 29.9773 124.131 29.932C124.283 29.884 124.444 29.86 124.615 29.86ZM124.527 31.728C124.673 31.728 124.8 31.696 124.907 31.632C125.013 31.5653 125.091 31.472 125.139 31.352V31.056H124.547C124.221 31.056 124.059 31.1653 124.059 31.384C124.059 31.4907 124.1 31.5747 124.183 31.636C124.265 31.6973 124.38 31.728 124.527 31.728Z" fill="black"/>
<path d="M127.365 29.86C127.634 29.86 127.848 29.9387 128.005 30.096C128.165 30.2507 128.245 30.4787 128.245 30.78V32H127.861V30.824C127.861 30.6187 127.812 30.464 127.713 30.36C127.614 30.256 127.473 30.204 127.289 30.204C127.081 30.204 126.917 30.2653 126.797 30.388C126.677 30.508 126.617 30.6813 126.617 30.908V32H126.233V29.88H126.601V30.2C126.678 30.0907 126.782 30.0067 126.913 29.948C127.046 29.8893 127.197 29.86 127.365 29.86Z" fill="black"/>
<path d="M130.968 29.032V32H130.6V31.664C130.514 31.7813 130.406 31.8707 130.276 31.932C130.145 31.9933 130.001 32.024 129.844 32.024C129.638 32.024 129.454 31.9787 129.292 31.888C129.129 31.7973 129.001 31.6707 128.908 31.508C128.817 31.3427 128.772 31.1533 128.772 30.94C128.772 30.7267 128.817 30.5387 128.908 30.376C129.001 30.2133 129.129 30.0867 129.292 29.996C129.454 29.9053 129.638 29.86 129.844 29.86C129.996 29.86 130.136 29.8893 130.264 29.948C130.392 30.004 130.498 30.088 130.584 30.2V29.032H130.968ZM129.876 31.688C130.009 31.688 130.13 31.6573 130.24 31.596C130.349 31.532 130.434 31.444 130.496 31.332C130.557 31.2173 130.588 31.0867 130.588 30.94C130.588 30.7933 130.557 30.664 130.496 30.552C130.434 30.4373 130.349 30.3493 130.24 30.288C130.13 30.2267 130.009 30.196 129.876 30.196C129.74 30.196 129.617 30.2267 129.508 30.288C129.401 30.3493 129.316 30.4373 129.252 30.552C129.19 30.664 129.16 30.7933 129.16 30.94C129.16 31.0867 129.19 31.2173 129.252 31.332C129.316 31.444 129.401 31.532 129.508 31.596C129.617 31.6573 129.74 31.688 129.876 31.688Z" fill="black"/>
<path d="M135.976 29.88L135.184 32H134.816L134.204 30.392L133.584 32H133.216L132.428 29.88H132.792L133.408 31.568L134.048 29.88H134.372L135 31.576L135.632 29.88H135.976Z" fill="black"/>
<path d="M137.498 29.86C137.767 29.86 137.981 29.9387 138.138 30.096C138.298 30.2507 138.378 30.4787 138.378 30.78V32H137.994V30.824C137.994 30.6187 137.945 30.464 137.846 30.36C137.747 30.256 137.606 30.204 137.422 30.204C137.214 30.204 137.05 30.2653 136.93 30.388C136.81 30.508 136.75 30.6813 136.75 30.908V32H136.366V29.032H136.75V30.18C136.83 30.0787 136.934 30 137.062 29.944C137.193 29.888 137.338 29.86 137.498 29.86Z" fill="black"/>
<path d="M139.861 29.86C140.154 29.86 140.378 29.932 140.533 30.076C140.69 30.22 140.769 30.4347 140.769 30.72V32H140.405V31.72C140.341 31.8187 140.249 31.8947 140.129 31.948C140.011 31.9987 139.871 32.024 139.709 32.024C139.471 32.024 139.281 31.9667 139.137 31.852C138.995 31.7373 138.925 31.5867 138.925 31.4C138.925 31.2133 138.993 31.064 139.129 30.952C139.265 30.8373 139.481 30.78 139.777 30.78H140.385V30.704C140.385 30.5387 140.337 30.412 140.241 30.324C140.145 30.236 140.003 30.192 139.817 30.192C139.691 30.192 139.569 30.2133 139.449 30.256C139.329 30.296 139.227 30.3507 139.145 30.42L138.985 30.132C139.094 30.044 139.225 29.9773 139.377 29.932C139.529 29.884 139.69 29.86 139.861 29.86ZM139.773 31.728C139.919 31.728 140.046 31.696 140.153 31.632C140.259 31.5653 140.337 31.472 140.385 31.352V31.056H139.793C139.467 31.056 139.305 31.1653 139.305 31.384C139.305 31.4907 139.346 31.5747 139.429 31.636C139.511 31.6973 139.626 31.728 139.773 31.728Z" fill="black"/>
<path d="M142.671 31.876C142.615 31.924 142.546 31.9613 142.463 31.988C142.381 32.012 142.295 32.024 142.207 32.024C141.994 32.024 141.829 31.9667 141.711 31.852C141.594 31.7373 141.535 31.5733 141.535 31.36V30.196H141.175V29.88H141.535V29.416H141.919V29.88H142.527V30.196H141.919V31.344C141.919 31.4587 141.947 31.5467 142.003 31.608C142.062 31.6693 142.145 31.7 142.251 31.7C142.369 31.7 142.469 31.6667 142.551 31.6L142.671 31.876Z" fill="black"/>
<path d="M145.402 31.876C145.346 31.924 145.276 31.9613 145.194 31.988C145.111 32.012 145.026 32.024 144.938 32.024C144.724 32.024 144.559 31.9667 144.442 31.852C144.324 31.7373 144.266 31.5733 144.266 31.36V30.196H143.906V29.88H144.266V29.416H144.65V29.88H145.258V30.196H144.65V31.344C144.65 31.4587 144.678 31.5467 144.734 31.608C144.792 31.6693 144.875 31.7 144.982 31.7C145.099 31.7 145.199 31.6667 145.282 31.6L145.402 31.876Z" fill="black"/>
<path d="M146.998 29.86C147.267 29.86 147.481 29.9387 147.638 30.096C147.798 30.2507 147.878 30.4787 147.878 30.78V32H147.494V30.824C147.494 30.6187 147.445 30.464 147.346 30.36C147.247 30.256 147.106 30.204 146.922 30.204C146.714 30.204 146.55 30.2653 146.43 30.388C146.31 30.508 146.25 30.6813 146.25 30.908V32H145.866V29.032H146.25V30.18C146.33 30.0787 146.434 30 146.562 29.944C146.693 29.888 146.838 29.86 146.998 29.86Z" fill="black"/>
<path d="M150.516 30.952C150.516 30.9813 150.514 31.02 150.508 31.068H148.788C148.812 31.2547 148.894 31.4053 149.032 31.52C149.174 31.632 149.348 31.688 149.556 31.688C149.81 31.688 150.014 31.6027 150.168 31.432L150.38 31.68C150.284 31.792 150.164 31.8773 150.02 31.936C149.879 31.9947 149.72 32.024 149.544 32.024C149.32 32.024 149.122 31.9787 148.948 31.888C148.775 31.7947 148.64 31.6653 148.544 31.5C148.451 31.3347 148.404 31.148 148.404 30.94C148.404 30.7347 148.45 30.5493 148.54 30.384C148.634 30.2187 148.76 30.0907 148.92 30C149.083 29.9067 149.266 29.86 149.468 29.86C149.671 29.86 149.851 29.9067 150.008 30C150.168 30.0907 150.292 30.2187 150.38 30.384C150.471 30.5493 150.516 30.7387 150.516 30.952ZM149.468 30.184C149.284 30.184 149.13 30.24 149.004 30.352C148.882 30.464 148.81 30.6107 148.788 30.792H150.148C150.127 30.6133 150.054 30.468 149.928 30.356C149.806 30.2413 149.652 30.184 149.468 30.184Z" fill="black"/>
<path d="M152.886 29.88L151.858 32.212C151.768 32.428 151.661 32.58 151.538 32.668C151.418 32.756 151.273 32.8 151.102 32.8C150.998 32.8 150.897 32.7827 150.798 32.748C150.702 32.716 150.622 32.668 150.558 32.604L150.722 32.316C150.832 32.42 150.958 32.472 151.102 32.472C151.196 32.472 151.273 32.4467 151.334 32.396C151.398 32.348 151.456 32.264 151.506 32.144L151.574 31.996L150.638 29.88H151.038L151.778 31.576L152.51 29.88H152.886Z" fill="black"/>
<path d="M156.319 29.032V32H155.951V31.664C155.866 31.7813 155.758 31.8707 155.627 31.932C155.496 31.9933 155.352 32.024 155.195 32.024C154.99 32.024 154.806 31.9787 154.643 31.888C154.48 31.7973 154.352 31.6707 154.259 31.508C154.168 31.3427 154.123 31.1533 154.123 30.94C154.123 30.7267 154.168 30.5387 154.259 30.376C154.352 30.2133 154.48 30.0867 154.643 29.996C154.806 29.9053 154.99 29.86 155.195 29.86C155.347 29.86 155.487 29.8893 155.615 29.948C155.743 30.004 155.85 30.088 155.935 30.2V29.032H156.319ZM155.227 31.688C155.36 31.688 155.482 31.6573 155.591 31.596C155.7 31.532 155.786 31.444 155.847 31.332C155.908 31.2173 155.939 31.0867 155.939 30.94C155.939 30.7933 155.908 30.664 155.847 30.552C155.786 30.4373 155.7 30.3493 155.591 30.288C155.482 30.2267 155.36 30.196 155.227 30.196C155.091 30.196 154.968 30.2267 154.859 30.288C154.752 30.3493 154.667 30.4373 154.603 30.552C154.542 30.664 154.511 30.7933 154.511 30.94C154.511 31.0867 154.542 31.2173 154.603 31.332C154.667 31.444 154.752 31.532 154.859 31.596C154.968 31.6573 155.091 31.688 155.227 31.688Z" fill="black"/>
<path d="M157.954 32.024C157.743 32.024 157.554 31.9773 157.386 31.884C157.218 31.7907 157.086 31.6627 156.99 31.5C156.896 31.3347 156.85 31.148 156.85 30.94C156.85 30.732 156.896 30.5467 156.99 30.384C157.086 30.2187 157.218 30.0907 157.386 30C157.554 29.9067 157.743 29.86 157.954 29.86C158.164 29.86 158.352 29.9067 158.518 30C158.686 30.0907 158.816 30.2187 158.91 30.384C159.006 30.5467 159.054 30.732 159.054 30.94C159.054 31.148 159.006 31.3347 158.91 31.5C158.816 31.6627 158.686 31.7907 158.518 31.884C158.352 31.9773 158.164 32.024 157.954 32.024ZM157.954 31.688C158.09 31.688 158.211 31.6573 158.318 31.596C158.427 31.532 158.512 31.444 158.574 31.332C158.635 31.2173 158.666 31.0867 158.666 30.94C158.666 30.7933 158.635 30.664 158.574 30.552C158.512 30.4373 158.427 30.3493 158.318 30.288C158.211 30.2267 158.09 30.196 157.954 30.196C157.818 30.196 157.695 30.2267 157.586 30.288C157.479 30.3493 157.394 30.4373 157.33 30.552C157.268 30.664 157.238 30.7933 157.238 30.94C157.238 31.0867 157.268 31.2173 157.33 31.332C157.394 31.444 157.479 31.532 157.586 31.596C157.695 31.6573 157.818 31.688 157.954 31.688Z" fill="black"/>
<path d="M159.63 32.024C159.555 32.024 159.491 31.9987 159.438 31.948C159.384 31.8947 159.358 31.828 159.358 31.748C159.358 31.6707 159.384 31.6067 159.438 31.556C159.491 31.5027 159.555 31.476 159.63 31.476C159.704 31.476 159.767 31.5013 159.818 31.552C159.868 31.6027 159.894 31.668 159.894 31.748C159.894 31.828 159.867 31.8947 159.814 31.948C159.763 31.9987 159.702 32.024 159.63 32.024Z" fill="black"/>
<path d="M57.8228 18.709H56.1428V18.1H60.1958V18.709H58.5158V23H57.8228V18.709Z" fill="black"/>
<path d="M62.8412 19.255C63.3125 19.255 63.6858 19.3927 63.9612 19.668C64.2412 19.9387 64.3812 20.3377 64.3812 20.865V23H63.7092V20.942C63.7092 20.5827 63.6228 20.312 63.4502 20.13C63.2775 19.948 63.0302 19.857 62.7082 19.857C62.3442 19.857 62.0572 19.9643 61.8472 20.179C61.6372 20.389 61.5322 20.6923 61.5322 21.089V23H60.8602V17.806H61.5322V19.815C61.6722 19.6377 61.8542 19.5 62.0782 19.402C62.3068 19.304 62.5612 19.255 62.8412 19.255Z" fill="black"/>
<path d="M65.6248 19.29H66.2968V23H65.6248V19.29ZM65.9608 18.576C65.8301 18.576 65.7205 18.534 65.6318 18.45C65.5478 18.366 65.5058 18.2633 65.5058 18.142C65.5058 18.0207 65.5478 17.918 65.6318 17.834C65.7205 17.7453 65.8301 17.701 65.9608 17.701C66.0915 17.701 66.1988 17.743 66.2828 17.827C66.3715 17.9063 66.4158 18.0067 66.4158 18.128C66.4158 18.254 66.3715 18.3613 66.2828 18.45C66.1988 18.534 66.0915 18.576 65.9608 18.576Z" fill="black"/>
<path d="M68.6439 23.042C68.3406 23.042 68.0489 23.0023 67.7689 22.923C67.4889 22.839 67.2696 22.734 67.1109 22.608L67.3909 22.076C67.5542 22.1927 67.7526 22.286 67.9859 22.356C68.2192 22.426 68.4549 22.461 68.6929 22.461C69.2809 22.461 69.5749 22.293 69.5749 21.957C69.5749 21.845 69.5352 21.7563 69.4559 21.691C69.3766 21.6257 69.2762 21.579 69.1549 21.551C69.0382 21.5183 68.8702 21.4833 68.6509 21.446C68.3522 21.3993 68.1072 21.3457 67.9159 21.285C67.7292 21.2243 67.5682 21.1217 67.4329 20.977C67.2976 20.8323 67.2299 20.6293 67.2299 20.368C67.2299 20.032 67.3699 19.7637 67.6499 19.563C67.9299 19.3577 68.3056 19.255 68.7769 19.255C69.0242 19.255 69.2716 19.2853 69.5189 19.346C69.7662 19.4067 69.9692 19.4883 70.1279 19.591L69.8409 20.123C69.5376 19.927 69.1806 19.829 68.7699 19.829C68.4852 19.829 68.2682 19.8757 68.1189 19.969C67.9696 20.0623 67.8949 20.186 67.8949 20.34C67.8949 20.4613 67.9369 20.557 68.0209 20.627C68.1049 20.697 68.2076 20.7483 68.3289 20.781C68.4549 20.8137 68.6299 20.851 68.8539 20.893C69.1526 20.9443 69.3929 21.0003 69.5749 21.061C69.7616 21.117 69.9202 21.215 70.0509 21.355C70.1816 21.495 70.2469 21.691 70.2469 21.943C70.2469 22.279 70.1022 22.5473 69.8129 22.748C69.5282 22.944 69.1386 23.042 68.6439 23.042Z" fill="black"/>
<path d="M72.9666 19.29H73.6386V23H72.9666V19.29ZM73.3026 18.576C73.1719 18.576 73.0623 18.534 72.9736 18.45C72.8896 18.366 72.8476 18.2633 72.8476 18.142C72.8476 18.0207 72.8896 17.918 72.9736 17.834C73.0623 17.7453 73.1719 17.701 73.3026 17.701C73.4333 17.701 73.5406 17.743 73.6246 17.827C73.7133 17.9063 73.7576 18.0067 73.7576 18.128C73.7576 18.254 73.7133 18.3613 73.6246 18.45C73.5406 18.534 73.4333 18.576 73.3026 18.576Z" fill="black"/>
<path d="M75.9857 23.042C75.6824 23.042 75.3907 23.0023 75.1107 22.923C74.8307 22.839 74.6113 22.734 74.4527 22.608L74.7327 22.076C74.896 22.1927 75.0943 22.286 75.3277 22.356C75.561 22.426 75.7967 22.461 76.0347 22.461C76.6227 22.461 76.9167 22.293 76.9167 21.957C76.9167 21.845 76.877 21.7563 76.7977 21.691C76.7184 21.6257 76.618 21.579 76.4967 21.551C76.38 21.5183 76.212 21.4833 75.9927 21.446C75.694 21.3993 75.449 21.3457 75.2577 21.285C75.071 21.2243 74.91 21.1217 74.7747 20.977C74.6393 20.8323 74.5717 20.6293 74.5717 20.368C74.5717 20.032 74.7117 19.7637 74.9917 19.563C75.2717 19.3577 75.6473 19.255 76.1187 19.255C76.366 19.255 76.6134 19.2853 76.8607 19.346C77.108 19.4067 77.311 19.4883 77.4697 19.591L77.1827 20.123C76.8794 19.927 76.5223 19.829 76.1117 19.829C75.827 19.829 75.61 19.8757 75.4607 19.969C75.3114 20.0623 75.2367 20.186 75.2367 20.34C75.2367 20.4613 75.2787 20.557 75.3627 20.627C75.4467 20.697 75.5493 20.7483 75.6707 20.781C75.7967 20.8137 75.9717 20.851 76.1957 20.893C76.4943 20.9443 76.7347 21.0003 76.9167 21.061C77.1033 21.117 77.262 21.215 77.3927 21.355C77.5233 21.495 77.5887 21.691 77.5887 21.943C77.5887 22.279 77.444 22.5473 77.1547 22.748C76.87 22.944 76.4804 23.042 75.9857 23.042Z" fill="black"/>
<path d="M81.6594 19.255C82.1727 19.255 82.5647 19.381 82.8354 19.633C83.1107 19.885 83.2484 20.2607 83.2484 20.76V23H82.6114V22.51C82.4994 22.6827 82.3384 22.8157 82.1284 22.909C81.9231 22.9977 81.6781 23.042 81.3934 23.042C80.9781 23.042 80.6444 22.9417 80.3924 22.741C80.1451 22.5403 80.0214 22.2767 80.0214 21.95C80.0214 21.6233 80.1404 21.362 80.3784 21.166C80.6164 20.9653 80.9944 20.865 81.5124 20.865H82.5764V20.732C82.5764 20.4427 82.4924 20.221 82.3244 20.067C82.1564 19.913 81.9091 19.836 81.5824 19.836C81.3631 19.836 81.1484 19.8733 80.9384 19.948C80.7284 20.018 80.5511 20.1137 80.4064 20.235L80.1264 19.731C80.3177 19.577 80.5464 19.4603 80.8124 19.381C81.0784 19.297 81.3607 19.255 81.6594 19.255ZM81.5054 22.524C81.7621 22.524 81.9837 22.468 82.1704 22.356C82.3571 22.2393 82.4924 22.076 82.5764 21.866V21.348H81.5404C80.9711 21.348 80.6864 21.5393 80.6864 21.922C80.6864 22.1087 80.7587 22.2557 80.9034 22.363C81.0481 22.4703 81.2487 22.524 81.5054 22.524Z" fill="black"/>
<path d="M87.7299 18.317C87.3285 18.317 87.1279 18.534 87.1279 18.968V19.29H88.2059V19.843H87.1419V23H86.4699V19.843H85.8399V19.29H86.4699V18.961C86.4699 18.5923 86.5772 18.3007 86.7919 18.086C87.0065 17.8713 87.3075 17.764 87.6949 17.764C87.8442 17.764 87.9842 17.7827 88.1149 17.82C88.2455 17.8573 88.3575 17.911 88.4509 17.981L88.2479 18.492C88.0939 18.3753 87.9212 18.317 87.7299 18.317ZM89.4029 19.29H90.0749V23H89.4029V19.29ZM89.7389 18.576C89.6082 18.576 89.4985 18.534 89.4099 18.45C89.3259 18.366 89.2839 18.2633 89.2839 18.142C89.2839 18.0207 89.3259 17.918 89.4099 17.834C89.4985 17.7453 89.6082 17.701 89.7389 17.701C89.8695 17.701 89.9769 17.743 90.0609 17.827C90.1495 17.9063 90.1939 18.0067 90.1939 18.128C90.1939 18.254 90.1495 18.3613 90.0609 18.45C89.9769 18.534 89.8695 18.576 89.7389 18.576Z" fill="black"/>
<path d="M93.3363 19.255C93.8076 19.255 94.1809 19.3927 94.4563 19.668C94.7363 19.9387 94.8763 20.3377 94.8763 20.865V23H94.2043V20.942C94.2043 20.5827 94.1179 20.312 93.9453 20.13C93.7726 19.948 93.5253 19.857 93.2033 19.857C92.8393 19.857 92.5523 19.9643 92.3423 20.179C92.1323 20.389 92.0273 20.6923 92.0273 21.089V23H91.3553V19.29H91.9993V19.85C92.1346 19.6587 92.3166 19.5117 92.5453 19.409C92.7786 19.3063 93.0423 19.255 93.3363 19.255Z" fill="black"/>
<path d="M97.4709 19.255C97.9843 19.255 98.3763 19.381 98.6469 19.633C98.9223 19.885 99.0599 20.2607 99.0599 20.76V23H98.4229V22.51C98.3109 22.6827 98.1499 22.8157 97.9399 22.909C97.7346 22.9977 97.4896 23.042 97.2049 23.042C96.7896 23.042 96.4559 22.9417 96.2039 22.741C95.9566 22.5403 95.8329 22.2767 95.8329 21.95C95.8329 21.6233 95.9519 21.362 96.1899 21.166C96.4279 20.9653 96.8059 20.865 97.3239 20.865H98.3879V20.732C98.3879 20.4427 98.3039 20.221 98.1359 20.067C97.9679 19.913 97.7206 19.836 97.3939 19.836C97.1746 19.836 96.9599 19.8733 96.7499 19.948C96.5399 20.018 96.3626 20.1137 96.2179 20.235L95.9379 19.731C96.1293 19.577 96.3579 19.4603 96.6239 19.381C96.8899 19.297 97.1723 19.255 97.4709 19.255ZM97.3169 22.524C97.5736 22.524 97.7953 22.468 97.9819 22.356C98.1686 22.2393 98.3039 22.076 98.3879 21.866V21.348H97.3519C96.7826 21.348 96.4979 21.5393 96.4979 21.922C96.4979 22.1087 96.5703 22.2557 96.7149 22.363C96.8596 22.4703 97.0603 22.524 97.3169 22.524Z" fill="black"/>
<path d="M100.304 17.806H100.976V23H100.304V17.806Z" fill="black"/>
<path d="M105.755 23.042C105.377 23.042 105.039 22.9603 104.74 22.797C104.446 22.6337 104.215 22.4097 104.047 22.125C103.879 21.8357 103.795 21.509 103.795 21.145C103.795 20.781 103.879 20.4567 104.047 20.172C104.215 19.8827 104.446 19.6587 104.74 19.5C105.039 19.3367 105.377 19.255 105.755 19.255C106.091 19.255 106.39 19.3227 106.651 19.458C106.917 19.5933 107.123 19.7893 107.267 20.046L106.756 20.375C106.64 20.1977 106.495 20.0647 106.322 19.976C106.15 19.8873 105.958 19.843 105.748 19.843C105.506 19.843 105.286 19.8967 105.09 20.004C104.899 20.1113 104.747 20.2653 104.635 20.466C104.528 20.662 104.474 20.8883 104.474 21.145C104.474 21.4063 104.528 21.6373 104.635 21.838C104.747 22.034 104.899 22.1857 105.09 22.293C105.286 22.4003 105.506 22.454 105.748 22.454C105.958 22.454 106.15 22.4097 106.322 22.321C106.495 22.2323 106.64 22.0993 106.756 21.922L107.267 22.244C107.123 22.5007 106.917 22.699 106.651 22.839C106.39 22.9743 106.091 23.042 105.755 23.042Z" fill="black"/>
<path d="M109.489 19.255C110.002 19.255 110.394 19.381 110.665 19.633C110.94 19.885 111.078 20.2607 111.078 20.76V23H110.441V22.51C110.329 22.6827 110.168 22.8157 109.958 22.909C109.752 22.9977 109.507 23.042 109.223 23.042C108.807 23.042 108.474 22.9417 108.222 22.741C107.974 22.5403 107.851 22.2767 107.851 21.95C107.851 21.6233 107.97 21.362 108.208 21.166C108.446 20.9653 108.824 20.865 109.342 20.865H110.406V20.732C110.406 20.4427 110.322 20.221 110.154 20.067C109.986 19.913 109.738 19.836 109.412 19.836C109.192 19.836 108.978 19.8733 108.768 19.948C108.558 20.018 108.38 20.1137 108.236 20.235L107.956 19.731C108.147 19.577 108.376 19.4603 108.642 19.381C108.908 19.297 109.19 19.255 109.489 19.255ZM109.335 22.524C109.591 22.524 109.813 22.468 110 22.356C110.186 22.2393 110.322 22.076 110.406 21.866V21.348H109.37C108.8 21.348 108.516 21.5393 108.516 21.922C108.516 22.1087 108.588 22.2557 108.733 22.363C108.877 22.4703 109.078 22.524 109.335 22.524Z" fill="black"/>
<path d="M112.321 17.806H112.993V23H112.321V17.806Z" fill="black"/>
<path d="M114.276 17.806H114.948V23H114.276V17.806Z" fill="black"/>
<path d="M120.197 22.783C120.099 22.867 119.978 22.9323 119.833 22.979C119.688 23.021 119.539 23.042 119.385 23.042C119.012 23.042 118.722 22.9417 118.517 22.741C118.312 22.5403 118.209 22.2533 118.209 21.88V19.843H117.579V19.29H118.209V18.478H118.881V19.29H119.945V19.843H118.881V21.852C118.881 22.0527 118.93 22.2067 119.028 22.314C119.131 22.4213 119.275 22.475 119.462 22.475C119.667 22.475 119.842 22.4167 119.987 22.3L120.197 22.783Z" fill="black"/>
<path d="M122.476 23.042C122.107 23.042 121.776 22.9603 121.482 22.797C121.188 22.6337 120.957 22.4097 120.789 22.125C120.625 21.8357 120.544 21.509 120.544 21.145C120.544 20.781 120.625 20.4567 120.789 20.172C120.957 19.8827 121.188 19.6587 121.482 19.5C121.776 19.3367 122.107 19.255 122.476 19.255C122.844 19.255 123.173 19.3367 123.463 19.5C123.757 19.6587 123.985 19.8827 124.149 20.172C124.317 20.4567 124.401 20.781 124.401 21.145C124.401 21.509 124.317 21.8357 124.149 22.125C123.985 22.4097 123.757 22.6337 123.463 22.797C123.173 22.9603 122.844 23.042 122.476 23.042ZM122.476 22.454C122.714 22.454 122.926 22.4003 123.113 22.293C123.304 22.181 123.453 22.027 123.561 21.831C123.668 21.6303 123.722 21.4017 123.722 21.145C123.722 20.8883 123.668 20.662 123.561 20.466C123.453 20.2653 123.304 20.1113 123.113 20.004C122.926 19.8967 122.714 19.843 122.476 19.843C122.238 19.843 122.023 19.8967 121.832 20.004C121.645 20.1113 121.496 20.2653 121.384 20.466C121.276 20.662 121.223 20.8883 121.223 21.145C121.223 21.4017 121.276 21.6303 121.384 21.831C121.496 22.027 121.645 22.181 121.832 22.293C122.023 22.4003 122.238 22.454 122.476 22.454Z" fill="black"/>
<path d="M128.561 19.255C129.074 19.255 129.466 19.381 129.737 19.633C130.012 19.885 130.15 20.2607 130.15 20.76V23H129.513V22.51C129.401 22.6827 129.24 22.8157 129.03 22.909C128.824 22.9977 128.579 23.042 128.295 23.042C127.879 23.042 127.546 22.9417 127.294 22.741C127.046 22.5403 126.923 22.2767 126.923 21.95C126.923 21.6233 127.042 21.362 127.28 21.166C127.518 20.9653 127.896 20.865 128.414 20.865H129.478V20.732C129.478 20.4427 129.394 20.221 129.226 20.067C129.058 19.913 128.81 19.836 128.484 19.836C128.264 19.836 128.05 19.8733 127.84 19.948C127.63 20.018 127.452 20.1137 127.308 20.235L127.028 19.731C127.219 19.577 127.448 19.4603 127.714 19.381C127.98 19.297 128.262 19.255 128.561 19.255ZM128.407 22.524C128.663 22.524 128.885 22.468 129.072 22.356C129.258 22.2393 129.394 22.076 129.478 21.866V21.348H128.442C127.872 21.348 127.588 21.5393 127.588 21.922C127.588 22.1087 127.66 22.2557 127.805 22.363C127.949 22.4703 128.15 22.524 128.407 22.524Z" fill="black"/>
<path d="M133.031 23.042C132.653 23.042 132.315 22.9603 132.016 22.797C131.722 22.6337 131.491 22.4097 131.323 22.125C131.155 21.8357 131.071 21.509 131.071 21.145C131.071 20.781 131.155 20.4567 131.323 20.172C131.491 19.8827 131.722 19.6587 132.016 19.5C132.315 19.3367 132.653 19.255 133.031 19.255C133.367 19.255 133.666 19.3227 133.927 19.458C134.193 19.5933 134.398 19.7893 134.543 20.046L134.032 20.375C133.915 20.1977 133.771 20.0647 133.598 19.976C133.425 19.8873 133.234 19.843 133.024 19.843C132.781 19.843 132.562 19.8967 132.366 20.004C132.175 20.1113 132.023 20.2653 131.911 20.466C131.804 20.662 131.75 20.8883 131.75 21.145C131.75 21.4063 131.804 21.6373 131.911 21.838C132.023 22.034 132.175 22.1857 132.366 22.293C132.562 22.4003 132.781 22.454 133.024 22.454C133.234 22.454 133.425 22.4097 133.598 22.321C133.771 22.2323 133.915 22.0993 134.032 21.922L134.543 22.244C134.398 22.5007 134.193 22.699 133.927 22.839C133.666 22.9743 133.367 23.042 133.031 23.042Z" fill="black"/>
<path d="M137.547 22.783C137.449 22.867 137.327 22.9323 137.183 22.979C137.038 23.021 136.889 23.042 136.735 23.042C136.361 23.042 136.072 22.9417 135.867 22.741C135.661 22.5403 135.559 22.2533 135.559 21.88V19.843H134.929V19.29H135.559V18.478H136.231V19.29H137.295V19.843H136.231V21.852C136.231 22.0527 136.28 22.2067 136.378 22.314C136.48 22.4213 136.625 22.475 136.812 22.475C137.017 22.475 137.192 22.4167 137.337 22.3L137.547 22.783Z" fill="black"/>
<path d="M138.359 19.29H139.031V23H138.359V19.29ZM138.695 18.576C138.565 18.576 138.455 18.534 138.366 18.45C138.282 18.366 138.24 18.2633 138.24 18.142C138.24 18.0207 138.282 17.918 138.366 17.834C138.455 17.7453 138.565 17.701 138.695 17.701C138.826 17.701 138.933 17.743 139.017 17.827C139.106 17.9063 139.15 18.0067 139.15 18.128C139.15 18.254 139.106 18.3613 139.017 18.45C138.933 18.534 138.826 18.576 138.695 18.576Z" fill="black"/>
<path d="M141.903 23.042C141.535 23.042 141.203 22.9603 140.909 22.797C140.615 22.6337 140.384 22.4097 140.216 22.125C140.053 21.8357 139.971 21.509 139.971 21.145C139.971 20.781 140.053 20.4567 140.216 20.172C140.384 19.8827 140.615 19.6587 140.909 19.5C141.203 19.3367 141.535 19.255 141.903 19.255C142.272 19.255 142.601 19.3367 142.89 19.5C143.184 19.6587 143.413 19.8827 143.576 20.172C143.744 20.4567 143.828 20.781 143.828 21.145C143.828 21.509 143.744 21.8357 143.576 22.125C143.413 22.4097 143.184 22.6337 142.89 22.797C142.601 22.9603 142.272 23.042 141.903 23.042ZM141.903 22.454C142.141 22.454 142.354 22.4003 142.54 22.293C142.732 22.181 142.881 22.027 142.988 21.831C143.096 21.6303 143.149 21.4017 143.149 21.145C143.149 20.8883 143.096 20.662 142.988 20.466C142.881 20.2653 142.732 20.1113 142.54 20.004C142.354 19.8967 142.141 19.843 141.903 19.843C141.665 19.843 141.451 19.8967 141.259 20.004C141.073 20.1113 140.923 20.2653 140.811 20.466C140.704 20.662 140.65 20.8883 140.65 21.145C140.65 21.4017 140.704 21.6303 140.811 21.831C140.923 22.027 141.073 22.181 141.259 22.293C141.451 22.4003 141.665 22.454 141.903 22.454Z" fill="black"/>
<path d="M146.739 19.255C147.21 19.255 147.583 19.3927 147.859 19.668C148.139 19.9387 148.279 20.3377 148.279 20.865V23H147.607V20.942C147.607 20.5827 147.52 20.312 147.348 20.13C147.175 19.948 146.928 19.857 146.606 19.857C146.242 19.857 145.955 19.9643 145.745 20.179C145.535 20.389 145.43 20.6923 145.43 21.089V23H144.758V19.29H145.402V19.85C145.537 19.6587 145.719 19.5117 145.948 19.409C146.181 19.3063 146.445 19.255 146.739 19.255Z" fill="black"/>
<rect x="88.1736" y="39.7627" width="28.6528" height="9.4745" rx="1" fill="black"/>
<path d="M93.9096 44.4387C94.0449 44.4831 94.1523 44.5577 94.2316 44.6627C94.3109 44.7654 94.3506 44.8937 94.3506 45.0477C94.3506 45.2601 94.2689 45.4246 94.1056 45.5412C93.9423 45.6556 93.7043 45.7127 93.3916 45.7127H92.1736V43.2627H93.3216C93.6109 43.2627 93.8338 43.3199 93.9901 43.4342C94.1464 43.5462 94.2246 43.7014 94.2246 43.8997C94.2246 44.0211 94.1966 44.1284 94.1406 44.2217C94.0846 44.3151 94.0076 44.3874 93.9096 44.4387ZM92.6286 43.6197V44.2952H93.2726C93.4313 44.2952 93.5526 44.2672 93.6366 44.2112C93.7229 44.1529 93.7661 44.0689 93.7661 43.9592C93.7661 43.8472 93.7229 43.7632 93.6366 43.7072C93.5526 43.6489 93.4313 43.6197 93.2726 43.6197H92.6286ZM93.3636 45.3557C93.7159 45.3557 93.8921 45.2379 93.8921 45.0022C93.8921 44.7666 93.7159 44.6487 93.3636 44.6487H92.6286V45.3557H93.3636Z" fill="white"/>
<path d="M96.6037 43.8437V45.7127H96.1872V45.4747C96.1172 45.5587 96.0297 45.6241 95.9247 45.6707C95.8197 45.7151 95.7065 45.7372 95.5852 45.7372C95.3355 45.7372 95.1383 45.6684 94.9937 45.5307C94.8513 45.3907 94.7802 45.1842 94.7802 44.9112V43.8437H95.2177V44.8517C95.2177 45.0197 95.255 45.1457 95.3297 45.2297C95.4067 45.3114 95.5152 45.3522 95.6552 45.3522C95.8115 45.3522 95.9352 45.3044 96.0262 45.2087C96.1195 45.1107 96.1662 44.9707 96.1662 44.7887V43.8437H96.6037Z" fill="white"/>
<path d="M98.3 45.6112C98.2487 45.6532 98.1857 45.6847 98.111 45.7057C98.0387 45.7267 97.9617 45.7372 97.88 45.7372C97.6747 45.7372 97.516 45.6836 97.404 45.5762C97.292 45.4689 97.236 45.3126 97.236 45.1072V44.2077H96.928V43.8577H97.236V43.4307H97.6735V43.8577H98.174V44.2077H97.6735V45.0967C97.6735 45.1877 97.6957 45.2577 97.74 45.3067C97.7843 45.3534 97.8485 45.3767 97.9325 45.3767C98.0305 45.3767 98.1122 45.3511 98.1775 45.2997L98.3 45.6112Z" fill="white"/>
<path d="M99.739 45.6112C99.6876 45.6532 99.6246 45.6847 99.55 45.7057C99.4776 45.7267 99.4006 45.7372 99.319 45.7372C99.1136 45.7372 98.955 45.6836 98.843 45.5762C98.731 45.4689 98.675 45.3126 98.675 45.1072V44.2077H98.367V43.8577H98.675V43.4307H99.1125V43.8577H99.613V44.2077H99.1125V45.0967C99.1125 45.1877 99.1346 45.2577 99.179 45.3067C99.2233 45.3534 99.2875 45.3767 99.3715 45.3767C99.4695 45.3767 99.5511 45.3511 99.6165 45.2997L99.739 45.6112Z" fill="white"/>
<path d="M100.877 45.7372C100.688 45.7372 100.518 45.6964 100.366 45.6147C100.215 45.5331 100.096 45.4199 100.009 45.2752C99.9253 45.1282 99.8833 44.9626 99.8833 44.7782C99.8833 44.5939 99.9253 44.4294 100.009 44.2847C100.096 44.1401 100.215 44.0269 100.366 43.9452C100.518 43.8636 100.688 43.8227 100.877 43.8227C101.069 43.8227 101.24 43.8636 101.392 43.9452C101.544 44.0269 101.661 44.1401 101.745 44.2847C101.832 44.4294 101.875 44.5939 101.875 44.7782C101.875 44.9626 101.832 45.1282 101.745 45.2752C101.661 45.4199 101.544 45.5331 101.392 45.6147C101.24 45.6964 101.069 45.7372 100.877 45.7372ZM100.877 45.3627C101.038 45.3627 101.171 45.3091 101.276 45.2017C101.381 45.0944 101.434 44.9532 101.434 44.7782C101.434 44.6032 101.381 44.4621 101.276 44.3547C101.171 44.2474 101.038 44.1937 100.877 44.1937C100.716 44.1937 100.583 44.2474 100.478 44.3547C100.376 44.4621 100.324 44.6032 100.324 44.7782C100.324 44.9532 100.376 45.0944 100.478 45.2017C100.583 45.3091 100.716 45.3627 100.877 45.3627Z" fill="white"/>
<path d="M103.354 43.8227C103.589 43.8227 103.778 43.8916 103.921 44.0292C104.063 44.1669 104.134 44.3711 104.134 44.6417V45.7127H103.697V44.6977C103.697 44.5344 103.658 44.4119 103.581 44.3302C103.504 44.2462 103.395 44.2042 103.252 44.2042C103.091 44.2042 102.964 44.2532 102.871 44.3512C102.777 44.4469 102.731 44.5857 102.731 44.7677V45.7127H102.293V43.8437H102.71V44.0852C102.782 43.9989 102.873 43.9336 102.983 43.8892C103.092 43.8449 103.216 43.8227 103.354 43.8227Z" fill="white"/>
<path d="M106.195 43.6477H105.383V43.2627H107.462V43.6477H106.65V45.7127H106.195V43.6477Z" fill="white"/>
<path d="M109.328 44.7887C109.328 44.8191 109.325 44.8622 109.321 44.9182H107.854C107.88 45.0559 107.946 45.1656 108.054 45.2472C108.163 45.3266 108.299 45.3662 108.46 45.3662C108.665 45.3662 108.834 45.2986 108.967 45.1632L109.202 45.4327C109.118 45.5331 109.011 45.6089 108.883 45.6602C108.755 45.7116 108.61 45.7372 108.449 45.7372C108.244 45.7372 108.063 45.6964 107.907 45.6147C107.75 45.5331 107.629 45.4199 107.543 45.2752C107.459 45.1282 107.417 44.9626 107.417 44.7782C107.417 44.5962 107.457 44.4329 107.539 44.2882C107.623 44.1412 107.739 44.0269 107.886 43.9452C108.033 43.8636 108.198 43.8227 108.383 43.8227C108.565 43.8227 108.727 43.8636 108.869 43.9452C109.014 44.0246 109.126 44.1377 109.205 44.2847C109.287 44.4294 109.328 44.5974 109.328 44.7887ZM108.383 44.1727C108.243 44.1727 108.124 44.2147 108.026 44.2987C107.93 44.3804 107.872 44.4901 107.851 44.6277H108.911C108.892 44.4924 108.835 44.3827 108.74 44.2987C108.644 44.2147 108.525 44.1727 108.383 44.1727Z" fill="white"/>
<path d="M110.887 45.7127L110.407 45.0652L109.924 45.7127H109.441L110.169 44.7642L109.473 43.8437H109.959L110.418 44.4562L110.876 43.8437H111.349L110.649 44.7572L111.38 45.7127H110.887Z" fill="white"/>
<path d="M112.826 45.6112C112.775 45.6532 112.712 45.6847 112.637 45.7057C112.565 45.7267 112.488 45.7372 112.406 45.7372C112.201 45.7372 112.042 45.6836 111.93 45.5762C111.818 45.4689 111.762 45.3126 111.762 45.1072V44.2077H111.454V43.8577H111.762V43.4307H112.2V43.8577H112.7V44.2077H112.2V45.0967C112.2 45.1877 112.222 45.2577 112.266 45.3067C112.311 45.3534 112.375 45.3767 112.459 45.3767C112.557 45.3767 112.639 45.3511 112.704 45.2997L112.826 45.6112Z" fill="white"/>
</svg>
