<svg width="204" height="120" viewBox="0 0 204 120" fill="none" xmlns="http://www.w3.org/2000/svg">
<rect width="204" height="120" fill="white"/>
<path d="M35.6329 58.2415H34.5529V57.85H37.1584V58.2415H36.0784V61H35.6329V58.2415Z" fill="black"/>
<path d="M38.859 58.5925C39.162 58.5925 39.402 58.681 39.579 58.858C39.759 59.032 39.849 59.2885 39.849 59.6275V61H39.417V59.677C39.417 59.446 39.3615 59.272 39.2505 59.155C39.1395 59.038 38.9805 58.9795 38.7735 58.9795C38.5395 58.9795 38.355 59.0485 38.22 59.1865C38.085 59.3215 38.0175 59.5165 38.0175 59.7715V61H37.5855V57.661H38.0175V58.9525C38.1075 58.8385 38.2245 58.75 38.3685 58.687C38.5155 58.624 38.679 58.5925 38.859 58.5925Z" fill="black"/>
<path d="M40.6485 58.615H41.0805V61H40.6485V58.615ZM40.8645 58.156C40.7805 58.156 40.71 58.129 40.653 58.075C40.599 58.021 40.572 57.955 40.572 57.877C40.572 57.799 40.599 57.733 40.653 57.679C40.71 57.622 40.7805 57.5935 40.8645 57.5935C40.9485 57.5935 41.0175 57.6205 41.0715 57.6745C41.1285 57.7255 41.157 57.79 41.157 57.868C41.157 57.949 41.1285 58.018 41.0715 58.075C41.0175 58.129 40.9485 58.156 40.8645 58.156Z" fill="black"/>
<path d="M42.5894 61.027C42.3944 61.027 42.2069 61.0015 42.0269 60.9505C41.8469 60.8965 41.7059 60.829 41.6039 60.748L41.7839 60.406C41.8889 60.481 42.0164 60.541 42.1664 60.586C42.3164 60.631 42.4679 60.6535 42.6209 60.6535C42.9989 60.6535 43.1879 60.5455 43.1879 60.3295C43.1879 60.2575 43.1624 60.2005 43.1114 60.1585C43.0604 60.1165 42.9959 60.0865 42.9179 60.0685C42.8429 60.0475 42.7349 60.025 42.5939 60.001C42.4019 59.971 42.2444 59.9365 42.1214 59.8975C42.0014 59.8585 41.8979 59.7925 41.8109 59.6995C41.7239 59.6065 41.6804 59.476 41.6804 59.308C41.6804 59.092 41.7704 58.9195 41.9504 58.7905C42.1304 58.6585 42.3719 58.5925 42.6749 58.5925C42.8339 58.5925 42.9929 58.612 43.1519 58.651C43.3109 58.69 43.4414 58.7425 43.5434 58.8085L43.3589 59.1505C43.1639 59.0245 42.9344 58.9615 42.6704 58.9615C42.4874 58.9615 42.3479 58.9915 42.2519 59.0515C42.1559 59.1115 42.1079 59.191 42.1079 59.29C42.1079 59.368 42.1349 59.4295 42.1889 59.4745C42.2429 59.5195 42.3089 59.5525 42.3869 59.5735C42.4679 59.5945 42.5804 59.6185 42.7244 59.6455C42.9164 59.6785 43.0709 59.7145 43.1879 59.7535C43.3079 59.7895 43.4099 59.8525 43.4939 59.9425C43.5779 60.0325 43.6199 60.1585 43.6199 60.3205C43.6199 60.5365 43.5269 60.709 43.3409 60.838C43.1579 60.964 42.9074 61.027 42.5894 61.027Z" fill="black"/>
<path d="M45.3682 58.615H45.8002V61H45.3682V58.615ZM45.5842 58.156C45.5002 58.156 45.4297 58.129 45.3727 58.075C45.3187 58.021 45.2917 57.955 45.2917 57.877C45.2917 57.799 45.3187 57.733 45.3727 57.679C45.4297 57.622 45.5002 57.5935 45.5842 57.5935C45.6682 57.5935 45.7372 57.6205 45.7912 57.6745C45.8482 57.7255 45.8767 57.79 45.8767 57.868C45.8767 57.949 45.8482 58.018 45.7912 58.075C45.7372 58.129 45.6682 58.156 45.5842 58.156Z" fill="black"/>
<path d="M47.3091 61.027C47.1141 61.027 46.9266 61.0015 46.7466 60.9505C46.5666 60.8965 46.4256 60.829 46.3236 60.748L46.5036 60.406C46.6086 60.481 46.7361 60.541 46.8861 60.586C47.0361 60.631 47.1876 60.6535 47.3406 60.6535C47.7186 60.6535 47.9076 60.5455 47.9076 60.3295C47.9076 60.2575 47.8821 60.2005 47.8311 60.1585C47.7801 60.1165 47.7156 60.0865 47.6376 60.0685C47.5626 60.0475 47.4546 60.025 47.3136 60.001C47.1216 59.971 46.9641 59.9365 46.8411 59.8975C46.7211 59.8585 46.6176 59.7925 46.5306 59.6995C46.4436 59.6065 46.4001 59.476 46.4001 59.308C46.4001 59.092 46.4901 58.9195 46.6701 58.7905C46.8501 58.6585 47.0916 58.5925 47.3946 58.5925C47.5536 58.5925 47.7126 58.612 47.8716 58.651C48.0306 58.69 48.1611 58.7425 48.2631 58.8085L48.0786 59.1505C47.8836 59.0245 47.6541 58.9615 47.3901 58.9615C47.2071 58.9615 47.0676 58.9915 46.9716 59.0515C46.8756 59.1115 46.8276 59.191 46.8276 59.29C46.8276 59.368 46.8546 59.4295 46.9086 59.4745C46.9626 59.5195 47.0286 59.5525 47.1066 59.5735C47.1876 59.5945 47.3001 59.6185 47.4441 59.6455C47.6361 59.6785 47.7906 59.7145 47.9076 59.7535C48.0276 59.7895 48.1296 59.8525 48.2136 59.9425C48.2976 60.0325 48.3396 60.1585 48.3396 60.3205C48.3396 60.5365 48.2466 60.709 48.0606 60.838C47.8776 60.964 47.6271 61.027 47.3091 61.027Z" fill="black"/>
<path d="M50.9565 58.5925C51.2865 58.5925 51.5385 58.6735 51.7125 58.8355C51.8895 58.9975 51.978 59.239 51.978 59.56V61H51.5685V60.685C51.4965 60.796 51.393 60.8815 51.258 60.9415C51.126 60.9985 50.9685 61.027 50.7855 61.027C50.5185 61.027 50.304 60.9625 50.142 60.8335C49.983 60.7045 49.9035 60.535 49.9035 60.325C49.9035 60.115 49.98 59.947 50.133 59.821C50.286 59.692 50.529 59.6275 50.862 59.6275H51.546V59.542C51.546 59.356 51.492 59.2135 51.384 59.1145C51.276 59.0155 51.117 58.966 50.907 58.966C50.766 58.966 50.628 58.99 50.493 59.038C50.358 59.083 50.244 59.1445 50.151 59.2225L49.971 58.8985C50.094 58.7995 50.241 58.7245 50.412 58.6735C50.583 58.6195 50.7645 58.5925 50.9565 58.5925ZM50.8575 60.694C51.0225 60.694 51.165 60.658 51.285 60.586C51.405 60.511 51.492 60.406 51.546 60.271V59.938H50.88C50.514 59.938 50.331 60.061 50.331 60.307C50.331 60.427 50.3775 60.5215 50.4705 60.5905C50.5635 60.6595 50.6925 60.694 50.8575 60.694Z" fill="black"/>
<path d="M54.6699 61.027C54.4749 61.027 54.2874 61.0015 54.1074 60.9505C53.9274 60.8965 53.7864 60.829 53.6844 60.748L53.8644 60.406C53.9694 60.481 54.0969 60.541 54.2469 60.586C54.3969 60.631 54.5484 60.6535 54.7014 60.6535C55.0794 60.6535 55.2684 60.5455 55.2684 60.3295C55.2684 60.2575 55.2429 60.2005 55.1919 60.1585C55.1409 60.1165 55.0764 60.0865 54.9984 60.0685C54.9234 60.0475 54.8154 60.025 54.6744 60.001C54.4824 59.971 54.3249 59.9365 54.2019 59.8975C54.0819 59.8585 53.9784 59.7925 53.8914 59.6995C53.8044 59.6065 53.7609 59.476 53.7609 59.308C53.7609 59.092 53.8509 58.9195 54.0309 58.7905C54.2109 58.6585 54.4524 58.5925 54.7554 58.5925C54.9144 58.5925 55.0734 58.612 55.2324 58.651C55.3914 58.69 55.5219 58.7425 55.6239 58.8085L55.4394 59.1505C55.2444 59.0245 55.0149 58.9615 54.7509 58.9615C54.5679 58.9615 54.4284 58.9915 54.3324 59.0515C54.2364 59.1115 54.1884 59.191 54.1884 59.29C54.1884 59.368 54.2154 59.4295 54.2694 59.4745C54.3234 59.5195 54.3894 59.5525 54.4674 59.5735C54.5484 59.5945 54.6609 59.6185 54.8049 59.6455C54.9969 59.6785 55.1514 59.7145 55.2684 59.7535C55.3884 59.7895 55.4904 59.8525 55.5744 59.9425C55.6584 60.0325 55.7004 60.1585 55.7004 60.3205C55.7004 60.5365 55.6074 60.709 55.4214 60.838C55.2384 60.964 54.9879 61.027 54.6699 61.027Z" fill="black"/>
<path d="M58.4633 58.615V61H58.0538V60.64C57.9668 60.763 57.8513 60.859 57.7073 60.928C57.5663 60.994 57.4118 61.027 57.2438 61.027C56.9258 61.027 56.6753 60.94 56.4923 60.766C56.3093 60.589 56.2178 60.3295 56.2178 59.9875V58.615H56.6498V59.938C56.6498 60.169 56.7053 60.3445 56.8163 60.4645C56.9273 60.5815 57.0863 60.64 57.2933 60.64C57.5213 60.64 57.7013 60.571 57.8333 60.433C57.9653 60.295 58.0313 60.1 58.0313 59.848V58.615H58.4633Z" fill="black"/>
<path d="M60.5502 58.5925C60.7812 58.5925 60.9882 58.6435 61.1712 58.7455C61.3542 58.8475 61.4967 58.99 61.5987 59.173C61.7037 59.356 61.7562 59.5675 61.7562 59.8075C61.7562 60.0475 61.7037 60.2605 61.5987 60.4465C61.4967 60.6295 61.3542 60.772 61.1712 60.874C60.9882 60.976 60.7812 61.027 60.5502 61.027C60.3732 61.027 60.2112 60.9925 60.0642 60.9235C59.9172 60.8545 59.7957 60.754 59.6997 60.622V61H59.2857V57.661H59.7177V58.975C59.8137 58.849 59.9337 58.7545 60.0777 58.6915C60.2217 58.6255 60.3792 58.5925 60.5502 58.5925ZM60.5142 60.649C60.6672 60.649 60.8037 60.6145 60.9237 60.5455C61.0467 60.4735 61.1427 60.3745 61.2117 60.2485C61.2837 60.1195 61.3197 59.9725 61.3197 59.8075C61.3197 59.6425 61.2837 59.497 61.2117 59.371C61.1427 59.242 61.0467 59.143 60.9237 59.074C60.8037 59.005 60.6672 58.9705 60.5142 58.9705C60.3642 58.9705 60.2277 59.005 60.1047 59.074C59.9817 59.143 59.8857 59.242 59.8167 59.371C59.7477 59.497 59.7132 59.6425 59.7132 59.8075C59.7132 59.9725 59.7477 60.1195 59.8167 60.2485C59.8857 60.3745 59.9817 60.4735 60.1047 60.5455C60.2277 60.6145 60.3642 60.649 60.5142 60.649Z" fill="black"/>
<path d="M63.6266 58.5925C63.9296 58.5925 64.1696 58.681 64.3466 58.858C64.5266 59.032 64.6166 59.2885 64.6166 59.6275V61H64.1846V59.677C64.1846 59.446 64.1291 59.272 64.0181 59.155C63.9071 59.038 63.7481 58.9795 63.5411 58.9795C63.3071 58.9795 63.1226 59.0485 62.9876 59.1865C62.8526 59.3215 62.7851 59.5165 62.7851 59.7715V61H62.3531V57.661H62.7851V58.9525C62.8751 58.8385 62.9921 58.75 63.1361 58.687C63.2831 58.624 63.4466 58.5925 63.6266 58.5925Z" fill="black"/>
<path d="M67.5848 59.821C67.5848 59.854 67.5818 59.8975 67.5758 59.9515H65.6408C65.6678 60.1615 65.7593 60.331 65.9153 60.46C66.0743 60.586 66.2708 60.649 66.5048 60.649C66.7898 60.649 67.0193 60.553 67.1933 60.361L67.4318 60.64C67.3238 60.766 67.1888 60.862 67.0268 60.928C66.8678 60.994 66.6893 61.027 66.4913 61.027C66.2393 61.027 66.0158 60.976 65.8208 60.874C65.6258 60.769 65.4743 60.6235 65.3663 60.4375C65.2613 60.2515 65.2088 60.0415 65.2088 59.8075C65.2088 59.5765 65.2598 59.368 65.3618 59.182C65.4668 58.996 65.6093 58.852 65.7893 58.75C65.9723 58.645 66.1778 58.5925 66.4058 58.5925C66.6338 58.5925 66.8363 58.645 67.0133 58.75C67.1933 58.852 67.3328 58.996 67.4318 59.182C67.5338 59.368 67.5848 59.581 67.5848 59.821ZM66.4058 58.957C66.1988 58.957 66.0248 59.02 65.8838 59.146C65.7458 59.272 65.6648 59.437 65.6408 59.641H67.1708C67.1468 59.44 67.0643 59.2765 66.9233 59.1505C66.7853 59.0215 66.6128 58.957 66.4058 58.957Z" fill="black"/>
<path d="M68.9872 58.5925C69.3172 58.5925 69.5692 58.6735 69.7432 58.8355C69.9202 58.9975 70.0087 59.239 70.0087 59.56V61H69.5992V60.685C69.5272 60.796 69.4237 60.8815 69.2887 60.9415C69.1567 60.9985 68.9992 61.027 68.8162 61.027C68.5492 61.027 68.3347 60.9625 68.1727 60.8335C68.0137 60.7045 67.9342 60.535 67.9342 60.325C67.9342 60.115 68.0107 59.947 68.1637 59.821C68.3167 59.692 68.5597 59.6275 68.8927 59.6275H69.5767V59.542C69.5767 59.356 69.5227 59.2135 69.4147 59.1145C69.3067 59.0155 69.1477 58.966 68.9377 58.966C68.7967 58.966 68.6587 58.99 68.5237 59.038C68.3887 59.083 68.2747 59.1445 68.1817 59.2225L68.0017 58.8985C68.1247 58.7995 68.2717 58.7245 68.4427 58.6735C68.6137 58.6195 68.7952 58.5925 68.9872 58.5925ZM68.8882 60.694C69.0532 60.694 69.1957 60.658 69.3157 60.586C69.4357 60.511 69.5227 60.406 69.5767 60.271V59.938H68.9107C68.5447 59.938 68.3617 60.061 68.3617 60.307C68.3617 60.427 68.4082 60.5215 68.5012 60.5905C68.5942 60.6595 68.7232 60.694 68.8882 60.694Z" fill="black"/>
<path d="M73.0714 57.661V61H72.6574V60.622C72.5614 60.754 72.4399 60.8545 72.2929 60.9235C72.1459 60.9925 71.9839 61.027 71.8069 61.027C71.5759 61.027 71.3689 60.976 71.1859 60.874C71.0029 60.772 70.8589 60.6295 70.7539 60.4465C70.6519 60.2605 70.6009 60.0475 70.6009 59.8075C70.6009 59.5675 70.6519 59.356 70.7539 59.173C70.8589 58.99 71.0029 58.8475 71.1859 58.7455C71.3689 58.6435 71.5759 58.5925 71.8069 58.5925C71.9779 58.5925 72.1354 58.6255 72.2794 58.6915C72.4234 58.7545 72.5434 58.849 72.6394 58.975V57.661H73.0714ZM71.8429 60.649C71.9929 60.649 72.1294 60.6145 72.2524 60.5455C72.3754 60.4735 72.4714 60.3745 72.5404 60.2485C72.6094 60.1195 72.6439 59.9725 72.6439 59.8075C72.6439 59.6425 72.6094 59.497 72.5404 59.371C72.4714 59.242 72.3754 59.143 72.2524 59.074C72.1294 59.005 71.9929 58.9705 71.8429 58.9705C71.6899 58.9705 71.5519 59.005 71.4289 59.074C71.3089 59.143 71.2129 59.242 71.1409 59.371C71.0719 59.497 71.0374 59.6425 71.0374 59.8075C71.0374 59.9725 71.0719 60.1195 71.1409 60.2485C71.2129 60.3745 71.3089 60.4735 71.4289 60.5455C71.5519 60.6145 71.6899 60.649 71.8429 60.649Z" fill="black"/>
<path d="M76.0443 59.821C76.0443 59.854 76.0413 59.8975 76.0353 59.9515H74.1003C74.1273 60.1615 74.2188 60.331 74.3748 60.46C74.5338 60.586 74.7303 60.649 74.9643 60.649C75.2493 60.649 75.4788 60.553 75.6528 60.361L75.8913 60.64C75.7833 60.766 75.6483 60.862 75.4863 60.928C75.3273 60.994 75.1488 61.027 74.9508 61.027C74.6988 61.027 74.4753 60.976 74.2803 60.874C74.0853 60.769 73.9338 60.6235 73.8258 60.4375C73.7208 60.2515 73.6683 60.0415 73.6683 59.8075C73.6683 59.5765 73.7193 59.368 73.8213 59.182C73.9263 58.996 74.0688 58.852 74.2488 58.75C74.4318 58.645 74.6373 58.5925 74.8653 58.5925C75.0933 58.5925 75.2958 58.645 75.4728 58.75C75.6528 58.852 75.7923 58.996 75.8913 59.182C75.9933 59.368 76.0443 59.581 76.0443 59.821ZM74.8653 58.957C74.6583 58.957 74.4843 59.02 74.3433 59.146C74.2053 59.272 74.1243 59.437 74.1003 59.641H75.6303C75.6063 59.44 75.5238 59.2765 75.3828 59.1505C75.2448 59.0215 75.0723 58.957 74.8653 58.957Z" fill="black"/>
<path d="M77.0581 59.0155C77.1331 58.8775 77.2441 58.7725 77.3911 58.7005C77.5381 58.6285 77.7166 58.5925 77.9266 58.5925V59.011C77.9026 59.008 77.8696 59.0065 77.8276 59.0065C77.5936 59.0065 77.4091 59.077 77.2741 59.218C77.1421 59.356 77.0761 59.554 77.0761 59.812V61H76.6441V58.615H77.0581V59.0155Z" fill="black"/>
<path d="M80.5668 58.5925C80.8968 58.5925 81.1488 58.6735 81.3228 58.8355C81.4998 58.9975 81.5883 59.239 81.5883 59.56V61H81.1788V60.685C81.1068 60.796 81.0033 60.8815 80.8683 60.9415C80.7363 60.9985 80.5788 61.027 80.3958 61.027C80.1288 61.027 79.9143 60.9625 79.7523 60.8335C79.5933 60.7045 79.5138 60.535 79.5138 60.325C79.5138 60.115 79.5903 59.947 79.7433 59.821C79.8963 59.692 80.1393 59.6275 80.4723 59.6275H81.1563V59.542C81.1563 59.356 81.1023 59.2135 80.9943 59.1145C80.8863 59.0155 80.7273 58.966 80.5173 58.966C80.3763 58.966 80.2383 58.99 80.1033 59.038C79.9683 59.083 79.8543 59.1445 79.7613 59.2225L79.5813 58.8985C79.7043 58.7995 79.8513 58.7245 80.0223 58.6735C80.1933 58.6195 80.3748 58.5925 80.5668 58.5925ZM80.4678 60.694C80.6328 60.694 80.7753 60.658 80.8953 60.586C81.0153 60.511 81.1023 60.406 81.1563 60.271V59.938H80.4903C80.1243 59.938 79.9413 60.061 79.9413 60.307C79.9413 60.427 79.9878 60.5215 80.0808 60.5905C80.1738 60.6595 80.3028 60.694 80.4678 60.694Z" fill="black"/>
<path d="M83.6523 58.5925C83.8833 58.5925 84.0903 58.6435 84.2733 58.7455C84.4563 58.8475 84.5988 58.99 84.7008 59.173C84.8058 59.356 84.8583 59.5675 84.8583 59.8075C84.8583 60.0475 84.8058 60.2605 84.7008 60.4465C84.5988 60.6295 84.4563 60.772 84.2733 60.874C84.0903 60.976 83.8833 61.027 83.6523 61.027C83.4753 61.027 83.3133 60.9925 83.1663 60.9235C83.0193 60.8545 82.8978 60.754 82.8018 60.622V61H82.3878V57.661H82.8198V58.975C82.9158 58.849 83.0358 58.7545 83.1798 58.6915C83.3238 58.6255 83.4813 58.5925 83.6523 58.5925ZM83.6163 60.649C83.7693 60.649 83.9058 60.6145 84.0258 60.5455C84.1488 60.4735 84.2448 60.3745 84.3138 60.2485C84.3858 60.1195 84.4218 59.9725 84.4218 59.8075C84.4218 59.6425 84.3858 59.497 84.3138 59.371C84.2448 59.242 84.1488 59.143 84.0258 59.074C83.9058 59.005 83.7693 58.9705 83.6163 58.9705C83.4663 58.9705 83.3298 59.005 83.2068 59.074C83.0838 59.143 82.9878 59.242 82.9188 59.371C82.8498 59.497 82.8153 59.6425 82.8153 59.8075C82.8153 59.9725 82.8498 60.1195 82.9188 60.2485C82.9878 60.3745 83.0838 60.4735 83.2068 60.5455C83.3298 60.6145 83.4663 60.649 83.6163 60.649Z" fill="black"/>
<path d="M86.4767 61.027C86.2397 61.027 86.0267 60.9745 85.8377 60.8695C85.6487 60.7645 85.5002 60.6205 85.3922 60.4375C85.2872 60.2515 85.2347 60.0415 85.2347 59.8075C85.2347 59.5735 85.2872 59.365 85.3922 59.182C85.5002 58.996 85.6487 58.852 85.8377 58.75C86.0267 58.645 86.2397 58.5925 86.4767 58.5925C86.7137 58.5925 86.9252 58.645 87.1112 58.75C87.3002 58.852 87.4472 58.996 87.5522 59.182C87.6602 59.365 87.7142 59.5735 87.7142 59.8075C87.7142 60.0415 87.6602 60.2515 87.5522 60.4375C87.4472 60.6205 87.3002 60.7645 87.1112 60.8695C86.9252 60.9745 86.7137 61.027 86.4767 61.027ZM86.4767 60.649C86.6297 60.649 86.7662 60.6145 86.8862 60.5455C87.0092 60.4735 87.1052 60.3745 87.1742 60.2485C87.2432 60.1195 87.2777 59.9725 87.2777 59.8075C87.2777 59.6425 87.2432 59.497 87.1742 59.371C87.1052 59.242 87.0092 59.143 86.8862 59.074C86.7662 59.005 86.6297 58.9705 86.4767 58.9705C86.3237 58.9705 86.1857 59.005 86.0627 59.074C85.9427 59.143 85.8467 59.242 85.7747 59.371C85.7057 59.497 85.6712 59.6425 85.6712 59.8075C85.6712 59.9725 85.7057 60.1195 85.7747 60.2485C85.8467 60.3745 85.9427 60.4735 86.0627 60.5455C86.1857 60.6145 86.3237 60.649 86.4767 60.649Z" fill="black"/>
<path d="M90.5346 58.615V61H90.1251V60.64C90.0381 60.763 89.9226 60.859 89.7786 60.928C89.6376 60.994 89.4831 61.027 89.3151 61.027C88.9971 61.027 88.7466 60.94 88.5636 60.766C88.3806 60.589 88.2891 60.3295 88.2891 59.9875V58.615H88.7211V59.938C88.7211 60.169 88.7766 60.3445 88.8876 60.4645C88.9986 60.5815 89.1576 60.64 89.3646 60.64C89.5926 60.64 89.7726 60.571 89.9046 60.433C90.0366 60.295 90.1026 60.1 90.1026 59.848V58.615H90.5346Z" fill="black"/>
<path d="M92.698 60.8605C92.635 60.9145 92.557 60.9565 92.464 60.9865C92.371 61.0135 92.275 61.027 92.176 61.027C91.936 61.027 91.75 60.9625 91.618 60.8335C91.486 60.7045 91.42 60.52 91.42 60.28V58.9705H91.015V58.615H91.42V58.093H91.852V58.615H92.536V58.9705H91.852V60.262C91.852 60.391 91.8835 60.49 91.9465 60.559C92.0125 60.628 92.1055 60.6625 92.2255 60.6625C92.3575 60.6625 92.47 60.625 92.563 60.55L92.698 60.8605Z" fill="black"/>
<path d="M95.7698 60.8605C95.7068 60.9145 95.6288 60.9565 95.5358 60.9865C95.4428 61.0135 95.3468 61.027 95.2478 61.027C95.0078 61.027 94.8218 60.9625 94.6898 60.8335C94.5578 60.7045 94.4918 60.52 94.4918 60.28V58.9705H94.0868V58.615H94.4918V58.093H94.9238V58.615H95.6078V58.9705H94.9238V60.262C94.9238 60.391 94.9553 60.49 95.0183 60.559C95.0843 60.628 95.1773 60.6625 95.2973 60.6625C95.4293 60.6625 95.5418 60.625 95.6348 60.55L95.7698 60.8605Z" fill="black"/>
<path d="M97.5656 58.5925C97.8686 58.5925 98.1086 58.681 98.2856 58.858C98.4656 59.032 98.5556 59.2885 98.5556 59.6275V61H98.1236V59.677C98.1236 59.446 98.0681 59.272 97.9571 59.155C97.8461 59.038 97.6871 58.9795 97.4801 58.9795C97.2461 58.9795 97.0616 59.0485 96.9266 59.1865C96.7916 59.3215 96.7241 59.5165 96.7241 59.7715V61H96.2921V57.661H96.7241V58.9525C96.8141 58.8385 96.9311 58.75 97.0751 58.687C97.2221 58.624 97.3856 58.5925 97.5656 58.5925Z" fill="black"/>
<path d="M99.3551 58.615H99.7871V61H99.3551V58.615ZM99.5711 58.156C99.4871 58.156 99.4166 58.129 99.3596 58.075C99.3056 58.021 99.2786 57.955 99.2786 57.877C99.2786 57.799 99.3056 57.733 99.3596 57.679C99.4166 57.622 99.4871 57.5935 99.5711 57.5935C99.6551 57.5935 99.7241 57.6205 99.7781 57.6745C99.8351 57.7255 99.8636 57.79 99.8636 57.868C99.8636 57.949 99.8351 58.018 99.7781 58.075C99.7241 58.129 99.6551 58.156 99.5711 58.156Z" fill="black"/>
<path d="M101.296 61.027C101.101 61.027 100.913 61.0015 100.733 60.9505C100.553 60.8965 100.412 60.829 100.31 60.748L100.49 60.406C100.595 60.481 100.723 60.541 100.873 60.586C101.023 60.631 101.174 60.6535 101.327 60.6535C101.705 60.6535 101.894 60.5455 101.894 60.3295C101.894 60.2575 101.869 60.2005 101.818 60.1585C101.767 60.1165 101.702 60.0865 101.624 60.0685C101.549 60.0475 101.441 60.025 101.3 60.001C101.108 59.971 100.951 59.9365 100.828 59.8975C100.708 59.8585 100.604 59.7925 100.517 59.6995C100.43 59.6065 100.387 59.476 100.387 59.308C100.387 59.092 100.477 58.9195 100.657 58.7905C100.837 58.6585 101.078 58.5925 101.381 58.5925C101.54 58.5925 101.699 58.612 101.858 58.651C102.017 58.69 102.148 58.7425 102.25 58.8085L102.065 59.1505C101.87 59.0245 101.641 58.9615 101.377 58.9615C101.194 58.9615 101.054 58.9915 100.958 59.0515C100.862 59.1115 100.814 59.191 100.814 59.29C100.814 59.368 100.841 59.4295 100.895 59.4745C100.949 59.5195 101.015 59.5525 101.093 59.5735C101.174 59.5945 101.287 59.6185 101.431 59.6455C101.623 59.6785 101.777 59.7145 101.894 59.7535C102.014 59.7895 102.116 59.8525 102.2 59.9425C102.284 60.0325 102.326 60.1585 102.326 60.3205C102.326 60.5365 102.233 60.709 102.047 60.838C101.864 60.964 101.614 61.027 101.296 61.027Z" fill="black"/>
<path d="M105.114 61.027C104.871 61.027 104.654 60.9745 104.462 60.8695C104.273 60.7645 104.124 60.6205 104.016 60.4375C103.908 60.2515 103.854 60.0415 103.854 59.8075C103.854 59.5735 103.908 59.365 104.016 59.182C104.124 58.996 104.273 58.852 104.462 58.75C104.654 58.645 104.871 58.5925 105.114 58.5925C105.33 58.5925 105.522 58.636 105.69 58.723C105.861 58.81 105.993 58.936 106.086 59.101L105.758 59.3125C105.683 59.1985 105.59 59.113 105.479 59.056C105.368 58.999 105.245 58.9705 105.11 58.9705C104.954 58.9705 104.813 59.005 104.687 59.074C104.564 59.143 104.466 59.242 104.394 59.371C104.325 59.497 104.291 59.6425 104.291 59.8075C104.291 59.9755 104.325 60.124 104.394 60.253C104.466 60.379 104.564 60.4765 104.687 60.5455C104.813 60.6145 104.954 60.649 105.11 60.649C105.245 60.649 105.368 60.6205 105.479 60.5635C105.59 60.5065 105.683 60.421 105.758 60.307L106.086 60.514C105.993 60.679 105.861 60.8065 105.69 60.8965C105.522 60.9835 105.33 61.027 105.114 61.027Z" fill="black"/>
<path d="M107.632 61.027C107.395 61.027 107.182 60.9745 106.993 60.8695C106.804 60.7645 106.655 60.6205 106.547 60.4375C106.442 60.2515 106.39 60.0415 106.39 59.8075C106.39 59.5735 106.442 59.365 106.547 59.182C106.655 58.996 106.804 58.852 106.993 58.75C107.182 58.645 107.395 58.5925 107.632 58.5925C107.869 58.5925 108.08 58.645 108.266 58.75C108.455 58.852 108.602 58.996 108.707 59.182C108.815 59.365 108.869 59.5735 108.869 59.8075C108.869 60.0415 108.815 60.2515 108.707 60.4375C108.602 60.6205 108.455 60.7645 108.266 60.8695C108.08 60.9745 107.869 61.027 107.632 61.027ZM107.632 60.649C107.785 60.649 107.921 60.6145 108.041 60.5455C108.164 60.4735 108.26 60.3745 108.329 60.2485C108.398 60.1195 108.433 59.9725 108.433 59.8075C108.433 59.6425 108.398 59.497 108.329 59.371C108.26 59.242 108.164 59.143 108.041 59.074C107.921 59.005 107.785 58.9705 107.632 58.9705C107.479 58.9705 107.341 59.005 107.218 59.074C107.098 59.143 107.002 59.242 106.93 59.371C106.861 59.497 106.826 59.6425 106.826 59.8075C106.826 59.9725 106.861 60.1195 106.93 60.2485C107.002 60.3745 107.098 60.4735 107.218 60.5455C107.341 60.6145 107.479 60.649 107.632 60.649Z" fill="black"/>
<path d="M112.45 58.5925C112.75 58.5925 112.987 58.6795 113.161 58.8535C113.338 59.0275 113.427 59.2855 113.427 59.6275V61H112.995V59.677C112.995 59.446 112.941 59.272 112.833 59.155C112.728 59.038 112.576 58.9795 112.378 58.9795C112.159 58.9795 111.985 59.0485 111.856 59.1865C111.727 59.3215 111.663 59.5165 111.663 59.7715V61H111.231V59.677C111.231 59.446 111.177 59.272 111.069 59.155C110.964 59.038 110.812 58.9795 110.614 58.9795C110.395 58.9795 110.221 59.0485 110.092 59.1865C109.963 59.3215 109.899 59.5165 109.899 59.7715V61H109.467V58.615H109.881V58.9705C109.968 58.8475 110.082 58.7545 110.223 58.6915C110.364 58.6255 110.524 58.5925 110.704 58.5925C110.89 58.5925 111.055 58.63 111.199 58.705C111.343 58.78 111.454 58.8895 111.532 59.0335C111.622 58.8955 111.747 58.7875 111.906 58.7095C112.068 58.6315 112.249 58.5925 112.45 58.5925Z" fill="black"/>
<path d="M115.486 58.5925C115.717 58.5925 115.924 58.6435 116.107 58.7455C116.29 58.8475 116.433 58.99 116.535 59.173C116.64 59.356 116.692 59.5675 116.692 59.8075C116.692 60.0475 116.64 60.2605 116.535 60.4465C116.433 60.6295 116.29 60.772 116.107 60.874C115.924 60.976 115.717 61.027 115.486 61.027C115.315 61.027 115.158 60.994 115.014 60.928C114.873 60.862 114.753 60.766 114.654 60.64V61.873H114.222V58.615H114.636V58.993C114.732 58.861 114.853 58.762 115 58.696C115.147 58.627 115.309 58.5925 115.486 58.5925ZM115.45 60.649C115.603 60.649 115.74 60.6145 115.86 60.5455C115.983 60.4735 116.079 60.3745 116.148 60.2485C116.22 60.1195 116.256 59.9725 116.256 59.8075C116.256 59.6425 116.22 59.497 116.148 59.371C116.079 59.242 115.983 59.143 115.86 59.074C115.74 59.005 115.603 58.9705 115.45 58.9705C115.3 58.9705 115.164 59.0065 115.041 59.0785C114.921 59.1475 114.825 59.245 114.753 59.371C114.684 59.497 114.649 59.6425 114.649 59.8075C114.649 59.9725 114.684 60.1195 114.753 60.2485C114.822 60.3745 114.918 60.4735 115.041 60.5455C115.164 60.6145 115.3 60.649 115.45 60.649Z" fill="black"/>
<path d="M118.136 58.5925C118.466 58.5925 118.718 58.6735 118.892 58.8355C119.069 58.9975 119.157 59.239 119.157 59.56V61H118.748V60.685C118.676 60.796 118.572 60.8815 118.437 60.9415C118.305 60.9985 118.148 61.027 117.965 61.027C117.698 61.027 117.483 60.9625 117.321 60.8335C117.162 60.7045 117.083 60.535 117.083 60.325C117.083 60.115 117.159 59.947 117.312 59.821C117.465 59.692 117.708 59.6275 118.041 59.6275H118.725V59.542C118.725 59.356 118.671 59.2135 118.563 59.1145C118.455 59.0155 118.296 58.966 118.086 58.966C117.945 58.966 117.807 58.99 117.672 59.038C117.537 59.083 117.423 59.1445 117.33 59.2225L117.15 58.8985C117.273 58.7995 117.42 58.7245 117.591 58.6735C117.762 58.6195 117.944 58.5925 118.136 58.5925ZM118.037 60.694C118.202 60.694 118.344 60.658 118.464 60.586C118.584 60.511 118.671 60.406 118.725 60.271V59.938H118.059C117.693 59.938 117.51 60.061 117.51 60.307C117.51 60.427 117.557 60.5215 117.65 60.5905C117.743 60.6595 117.872 60.694 118.037 60.694Z" fill="black"/>
<path d="M121.23 58.5925C121.533 58.5925 121.773 58.681 121.95 58.858C122.13 59.032 122.22 59.2885 122.22 59.6275V61H121.788V59.677C121.788 59.446 121.733 59.272 121.622 59.155C121.511 59.038 121.352 58.9795 121.145 58.9795C120.911 58.9795 120.726 59.0485 120.591 59.1865C120.456 59.3215 120.389 59.5165 120.389 59.7715V61H119.957V58.615H120.371V58.975C120.458 58.852 120.575 58.7575 120.722 58.6915C120.872 58.6255 121.041 58.5925 121.23 58.5925Z" fill="black"/>
<path d="M125.086 58.615L123.93 61.2385C123.828 61.4815 123.708 61.6525 123.57 61.7515C123.435 61.8505 123.271 61.9 123.079 61.9C122.962 61.9 122.848 61.8805 122.737 61.8415C122.629 61.8055 122.539 61.7515 122.467 61.6795L122.652 61.3555C122.775 61.4725 122.917 61.531 123.079 61.531C123.184 61.531 123.271 61.5025 123.34 61.4455C123.412 61.3915 123.477 61.297 123.534 61.162L123.61 60.9955L122.557 58.615H123.007L123.84 60.523L124.663 58.615H125.086Z" fill="black"/>
<path d="M127.566 58.5925C127.896 58.5925 128.148 58.6735 128.322 58.8355C128.499 58.9975 128.588 59.239 128.588 59.56V61H128.178V60.685C128.106 60.796 128.003 60.8815 127.868 60.9415C127.736 60.9985 127.578 61.027 127.395 61.027C127.128 61.027 126.914 60.9625 126.752 60.8335C126.593 60.7045 126.513 60.535 126.513 60.325C126.513 60.115 126.59 59.947 126.743 59.821C126.896 59.692 127.139 59.6275 127.472 59.6275H128.156V59.542C128.156 59.356 128.102 59.2135 127.994 59.1145C127.886 59.0155 127.727 58.966 127.517 58.966C127.376 58.966 127.238 58.99 127.103 59.038C126.968 59.083 126.854 59.1445 126.761 59.2225L126.581 58.8985C126.704 58.7995 126.851 58.7245 127.022 58.6735C127.193 58.6195 127.374 58.5925 127.566 58.5925ZM127.467 60.694C127.632 60.694 127.775 60.658 127.895 60.586C128.015 60.511 128.102 60.406 128.156 60.271V59.938H127.49C127.124 59.938 126.941 60.061 126.941 60.307C126.941 60.427 126.987 60.5215 127.08 60.5905C127.173 60.6595 127.302 60.694 127.467 60.694Z" fill="black"/>
<path d="M130.661 58.5925C130.964 58.5925 131.204 58.681 131.381 58.858C131.561 59.032 131.651 59.2885 131.651 59.6275V61H131.219V59.677C131.219 59.446 131.163 59.272 131.052 59.155C130.941 59.038 130.782 58.9795 130.575 58.9795C130.341 58.9795 130.157 59.0485 130.022 59.1865C129.887 59.3215 129.819 59.5165 129.819 59.7715V61H129.387V58.615H129.801V58.975C129.888 58.852 130.005 58.7575 130.152 58.6915C130.302 58.6255 130.472 58.5925 130.661 58.5925Z" fill="black"/>
<path d="M134.713 57.661V61H134.299V60.622C134.203 60.754 134.082 60.8545 133.935 60.9235C133.788 60.9925 133.626 61.027 133.449 61.027C133.218 61.027 133.011 60.976 132.828 60.874C132.645 60.772 132.501 60.6295 132.396 60.4465C132.294 60.2605 132.243 60.0475 132.243 59.8075C132.243 59.5675 132.294 59.356 132.396 59.173C132.501 58.99 132.645 58.8475 132.828 58.7455C133.011 58.6435 133.218 58.5925 133.449 58.5925C133.62 58.5925 133.777 58.6255 133.921 58.6915C134.065 58.7545 134.185 58.849 134.281 58.975V57.661H134.713ZM133.485 60.649C133.635 60.649 133.771 60.6145 133.894 60.5455C134.017 60.4735 134.113 60.3745 134.182 60.2485C134.251 60.1195 134.286 59.9725 134.286 59.8075C134.286 59.6425 134.251 59.497 134.182 59.371C134.113 59.242 134.017 59.143 133.894 59.074C133.771 59.005 133.635 58.9705 133.485 58.9705C133.332 58.9705 133.194 59.005 133.071 59.074C132.951 59.143 132.855 59.242 132.783 59.371C132.714 59.497 132.679 59.6425 132.679 59.8075C132.679 59.9725 132.714 60.1195 132.783 60.2485C132.855 60.3745 132.951 60.4735 133.071 60.5455C133.194 60.6145 133.332 60.649 133.485 60.649Z" fill="black"/>
<path d="M140.348 58.615L139.457 61H139.043L138.355 59.191L137.657 61H137.243L136.357 58.615H136.766L137.459 60.514L138.179 58.615H138.544L139.25 60.523L139.961 58.615H140.348Z" fill="black"/>
<path d="M142.06 58.5925C142.363 58.5925 142.603 58.681 142.78 58.858C142.96 59.032 143.05 59.2885 143.05 59.6275V61H142.618V59.677C142.618 59.446 142.563 59.272 142.452 59.155C142.341 59.038 142.182 58.9795 141.975 58.9795C141.741 58.9795 141.556 59.0485 141.421 59.1865C141.286 59.3215 141.219 59.5165 141.219 59.7715V61H140.787V57.661H141.219V58.9525C141.309 58.8385 141.426 58.75 141.57 58.687C141.717 58.624 141.88 58.5925 142.06 58.5925Z" fill="black"/>
<path d="M144.718 58.5925C145.048 58.5925 145.3 58.6735 145.474 58.8355C145.651 58.9975 145.74 59.239 145.74 59.56V61H145.33V60.685C145.258 60.796 145.155 60.8815 145.02 60.9415C144.888 60.9985 144.73 61.027 144.547 61.027C144.28 61.027 144.066 60.9625 143.904 60.8335C143.745 60.7045 143.665 60.535 143.665 60.325C143.665 60.115 143.742 59.947 143.895 59.821C144.048 59.692 144.291 59.6275 144.624 59.6275H145.308V59.542C145.308 59.356 145.254 59.2135 145.146 59.1145C145.038 59.0155 144.879 58.966 144.669 58.966C144.528 58.966 144.39 58.99 144.255 59.038C144.12 59.083 144.006 59.1445 143.913 59.2225L143.733 58.8985C143.856 58.7995 144.003 58.7245 144.174 58.6735C144.345 58.6195 144.526 58.5925 144.718 58.5925ZM144.619 60.694C144.784 60.694 144.927 60.658 145.047 60.586C145.167 60.511 145.254 60.406 145.308 60.271V59.938H144.642C144.276 59.938 144.093 60.061 144.093 60.307C144.093 60.427 144.139 60.5215 144.232 60.5905C144.325 60.6595 144.454 60.694 144.619 60.694Z" fill="black"/>
<path d="M147.88 60.8605C147.817 60.9145 147.739 60.9565 147.646 60.9865C147.553 61.0135 147.457 61.027 147.358 61.027C147.118 61.027 146.932 60.9625 146.8 60.8335C146.668 60.7045 146.602 60.52 146.602 60.28V58.9705H146.197V58.615H146.602V58.093H147.034V58.615H147.718V58.9705H147.034V60.262C147.034 60.391 147.066 60.49 147.129 60.559C147.195 60.628 147.288 60.6625 147.408 60.6625C147.54 60.6625 147.652 60.625 147.745 60.55L147.88 60.8605Z" fill="black"/>
<path d="M150.952 60.8605C150.889 60.9145 150.811 60.9565 150.718 60.9865C150.625 61.0135 150.529 61.027 150.43 61.027C150.19 61.027 150.004 60.9625 149.872 60.8335C149.74 60.7045 149.674 60.52 149.674 60.28V58.9705H149.269V58.615H149.674V58.093H150.106V58.615H150.79V58.9705H150.106V60.262C150.106 60.391 150.137 60.49 150.2 60.559C150.266 60.628 150.359 60.6625 150.479 60.6625C150.611 60.6625 150.724 60.625 150.817 60.55L150.952 60.8605Z" fill="black"/>
<path d="M152.748 58.5925C153.051 58.5925 153.291 58.681 153.468 58.858C153.648 59.032 153.738 59.2885 153.738 59.6275V61H153.306V59.677C153.306 59.446 153.25 59.272 153.139 59.155C153.028 59.038 152.869 58.9795 152.662 58.9795C152.428 58.9795 152.244 59.0485 152.109 59.1865C151.974 59.3215 151.906 59.5165 151.906 59.7715V61H151.474V57.661H151.906V58.9525C151.996 58.8385 152.113 58.75 152.257 58.687C152.404 58.624 152.568 58.5925 152.748 58.5925Z" fill="black"/>
<path d="M156.706 59.821C156.706 59.854 156.703 59.8975 156.697 59.9515H154.762C154.789 60.1615 154.88 60.331 155.036 60.46C155.195 60.586 155.392 60.649 155.626 60.649C155.911 60.649 156.14 60.553 156.314 60.361L156.553 60.64C156.445 60.766 156.31 60.862 156.148 60.928C155.989 60.994 155.81 61.027 155.612 61.027C155.36 61.027 155.137 60.976 154.942 60.874C154.747 60.769 154.595 60.6235 154.487 60.4375C154.382 60.2515 154.33 60.0415 154.33 59.8075C154.33 59.5765 154.381 59.368 154.483 59.182C154.588 58.996 154.73 58.852 154.91 58.75C155.093 58.645 155.299 58.5925 155.527 58.5925C155.755 58.5925 155.957 58.645 156.134 58.75C156.314 58.852 156.454 58.996 156.553 59.182C156.655 59.368 156.706 59.581 156.706 59.821ZM155.527 58.957C155.32 58.957 155.146 59.02 155.005 59.146C154.867 59.272 154.786 59.437 154.762 59.641H156.292C156.268 59.44 156.185 59.2765 156.044 59.1505C155.906 59.0215 155.734 58.957 155.527 58.957Z" fill="black"/>
<path d="M159.372 58.615L158.216 61.2385C158.114 61.4815 157.994 61.6525 157.856 61.7515C157.721 61.8505 157.557 61.9 157.365 61.9C157.248 61.9 157.134 61.8805 157.023 61.8415C156.915 61.8055 156.825 61.7515 156.753 61.6795L156.938 61.3555C157.061 61.4725 157.203 61.531 157.365 61.531C157.47 61.531 157.557 61.5025 157.626 61.4455C157.698 61.3915 157.763 61.297 157.82 61.162L157.896 60.9955L156.843 58.615H157.293L158.126 60.523L158.949 58.615H159.372Z" fill="black"/>
<path d="M163.234 57.661V61H162.82V60.622C162.724 60.754 162.602 60.8545 162.455 60.9235C162.308 60.9925 162.146 61.027 161.969 61.027C161.738 61.027 161.531 60.976 161.348 60.874C161.165 60.772 161.021 60.6295 160.916 60.4465C160.814 60.2605 160.763 60.0475 160.763 59.8075C160.763 59.5675 160.814 59.356 160.916 59.173C161.021 58.99 161.165 58.8475 161.348 58.7455C161.531 58.6435 161.738 58.5925 161.969 58.5925C162.14 58.5925 162.298 58.6255 162.442 58.6915C162.586 58.7545 162.706 58.849 162.802 58.975V57.661H163.234ZM162.005 60.649C162.155 60.649 162.292 60.6145 162.415 60.5455C162.538 60.4735 162.634 60.3745 162.703 60.2485C162.772 60.1195 162.806 59.9725 162.806 59.8075C162.806 59.6425 162.772 59.497 162.703 59.371C162.634 59.242 162.538 59.143 162.415 59.074C162.292 59.005 162.155 58.9705 162.005 58.9705C161.852 58.9705 161.714 59.005 161.591 59.074C161.471 59.143 161.375 59.242 161.303 59.371C161.234 59.497 161.2 59.6425 161.2 59.8075C161.2 59.9725 161.234 60.1195 161.303 60.2485C161.375 60.3745 161.471 60.4735 161.591 60.5455C161.714 60.6145 161.852 60.649 162.005 60.649Z" fill="black"/>
<path d="M165.073 61.027C164.836 61.027 164.623 60.9745 164.434 60.8695C164.245 60.7645 164.096 60.6205 163.988 60.4375C163.883 60.2515 163.831 60.0415 163.831 59.8075C163.831 59.5735 163.883 59.365 163.988 59.182C164.096 58.996 164.245 58.852 164.434 58.75C164.623 58.645 164.836 58.5925 165.073 58.5925C165.31 58.5925 165.521 58.645 165.707 58.75C165.896 58.852 166.043 58.996 166.148 59.182C166.256 59.365 166.31 59.5735 166.31 59.8075C166.31 60.0415 166.256 60.2515 166.148 60.4375C166.043 60.6205 165.896 60.7645 165.707 60.8695C165.521 60.9745 165.31 61.027 165.073 61.027ZM165.073 60.649C165.226 60.649 165.362 60.6145 165.482 60.5455C165.605 60.4735 165.701 60.3745 165.77 60.2485C165.839 60.1195 165.874 59.9725 165.874 59.8075C165.874 59.6425 165.839 59.497 165.77 59.371C165.701 59.242 165.605 59.143 165.482 59.074C165.362 59.005 165.226 58.9705 165.073 58.9705C164.92 58.9705 164.782 59.005 164.659 59.074C164.539 59.143 164.443 59.242 164.371 59.371C164.302 59.497 164.267 59.6425 164.267 59.8075C164.267 59.9725 164.302 60.1195 164.371 60.2485C164.443 60.3745 164.539 60.4735 164.659 60.5455C164.782 60.6145 164.92 60.649 165.073 60.649Z" fill="black"/>
<path d="M166.959 61.027C166.875 61.027 166.803 60.9985 166.743 60.9415C166.683 60.8815 166.653 60.8065 166.653 60.7165C166.653 60.6295 166.683 60.5575 166.743 60.5005C166.803 60.4405 166.875 60.4105 166.959 60.4105C167.043 60.4105 167.113 60.439 167.17 60.496C167.227 60.553 167.256 60.6265 167.256 60.7165C167.256 60.8065 167.226 60.8815 167.166 60.9415C167.109 60.9985 167.04 61.027 166.959 61.027Z" fill="black"/>
<path d="M60.5601 43.87H58.1601V43H63.9501V43.87H61.5501V50H60.5601V43.87Z" fill="black"/>
<path d="M67.7292 44.65C68.4026 44.65 68.9359 44.8467 69.3292 45.24C69.7292 45.6267 69.9292 46.1967 69.9292 46.95V50H68.9692V47.06C68.9692 46.5467 68.8459 46.16 68.5992 45.9C68.3526 45.64 67.9992 45.51 67.5392 45.51C67.0192 45.51 66.6092 45.6633 66.3092 45.97C66.0092 46.27 65.8592 46.7033 65.8592 47.27V50H64.8992V42.58H65.8592V45.45C66.0592 45.1967 66.3192 45 66.6392 44.86C66.9659 44.72 67.3292 44.65 67.7292 44.65Z" fill="black"/>
<path d="M71.7059 44.7H72.6659V50H71.7059V44.7ZM72.1859 43.68C71.9992 43.68 71.8425 43.62 71.7159 43.5C71.5959 43.38 71.5359 43.2333 71.5359 43.06C71.5359 42.8867 71.5959 42.74 71.7159 42.62C71.8425 42.4933 71.9992 42.43 72.1859 42.43C72.3725 42.43 72.5259 42.49 72.6459 42.61C72.7725 42.7233 72.8359 42.8667 72.8359 43.04C72.8359 43.22 72.7725 43.3733 72.6459 43.5C72.5259 43.62 72.3725 43.68 72.1859 43.68Z" fill="black"/>
<path d="M76.0188 50.06C75.5855 50.06 75.1688 50.0033 74.7688 49.89C74.3688 49.77 74.0555 49.62 73.8288 49.44L74.2288 48.68C74.4622 48.8467 74.7455 48.98 75.0788 49.08C75.4122 49.18 75.7488 49.23 76.0888 49.23C76.9288 49.23 77.3488 48.99 77.3488 48.51C77.3488 48.35 77.2922 48.2233 77.1788 48.13C77.0655 48.0367 76.9222 47.97 76.7488 47.93C76.5822 47.8833 76.3422 47.8333 76.0288 47.78C75.6022 47.7133 75.2522 47.6367 74.9788 47.55C74.7122 47.4633 74.4822 47.3167 74.2888 47.11C74.0955 46.9033 73.9988 46.6133 73.9988 46.24C73.9988 45.76 74.1988 45.3767 74.5988 45.09C74.9988 44.7967 75.5355 44.65 76.2088 44.65C76.5622 44.65 76.9155 44.6933 77.2688 44.78C77.6222 44.8667 77.9122 44.9833 78.1388 45.13L77.7288 45.89C77.2955 45.61 76.7855 45.47 76.1988 45.47C75.7922 45.47 75.4822 45.5367 75.2688 45.67C75.0555 45.8033 74.9488 45.98 74.9488 46.2C74.9488 46.3733 75.0088 46.51 75.1288 46.61C75.2488 46.71 75.3955 46.7833 75.5688 46.83C75.7488 46.8767 75.9988 46.93 76.3188 46.99C76.7455 47.0633 77.0888 47.1433 77.3488 47.23C77.6155 47.31 77.8422 47.45 78.0288 47.65C78.2155 47.85 78.3088 48.13 78.3088 48.49C78.3088 48.97 78.1022 49.3533 77.6888 49.64C77.2822 49.92 76.7255 50.06 76.0188 50.06Z" fill="black"/>
<path d="M82.1942 44.7H83.1542V50H82.1942V44.7ZM82.6742 43.68C82.4875 43.68 82.3308 43.62 82.2042 43.5C82.0842 43.38 82.0242 43.2333 82.0242 43.06C82.0242 42.8867 82.0842 42.74 82.2042 42.62C82.3308 42.4933 82.4875 42.43 82.6742 42.43C82.8608 42.43 83.0142 42.49 83.1342 42.61C83.2608 42.7233 83.3242 42.8667 83.3242 43.04C83.3242 43.22 83.2608 43.3733 83.1342 43.5C83.0142 43.62 82.8608 43.68 82.6742 43.68Z" fill="black"/>
<path d="M86.5071 50.06C86.0738 50.06 85.6571 50.0033 85.2571 49.89C84.8571 49.77 84.5438 49.62 84.3171 49.44L84.7171 48.68C84.9505 48.8467 85.2338 48.98 85.5671 49.08C85.9005 49.18 86.2371 49.23 86.5771 49.23C87.4171 49.23 87.8371 48.99 87.8371 48.51C87.8371 48.35 87.7805 48.2233 87.6671 48.13C87.5538 48.0367 87.4105 47.97 87.2371 47.93C87.0705 47.8833 86.8305 47.8333 86.5171 47.78C86.0905 47.7133 85.7405 47.6367 85.4671 47.55C85.2005 47.4633 84.9705 47.3167 84.7771 47.11C84.5838 46.9033 84.4871 46.6133 84.4871 46.24C84.4871 45.76 84.6871 45.3767 85.0871 45.09C85.4871 44.7967 86.0238 44.65 86.6971 44.65C87.0505 44.65 87.4038 44.6933 87.7571 44.78C88.1105 44.8667 88.4005 44.9833 88.6271 45.13L88.2171 45.89C87.7838 45.61 87.2738 45.47 86.6871 45.47C86.2805 45.47 85.9705 45.5367 85.7571 45.67C85.5438 45.8033 85.4371 45.98 85.4371 46.2C85.4371 46.3733 85.4971 46.51 85.6171 46.61C85.7371 46.71 85.8838 46.7833 86.0571 46.83C86.2371 46.8767 86.4871 46.93 86.8071 46.99C87.2338 47.0633 87.5771 47.1433 87.8371 47.23C88.1038 47.31 88.3305 47.45 88.5171 47.65C88.7038 47.85 88.7971 48.13 88.7971 48.49C88.7971 48.97 88.5905 49.3533 88.1771 49.64C87.7705 49.92 87.2138 50.06 86.5071 50.06Z" fill="black"/>
<path d="M94.6124 44.65C95.3458 44.65 95.9058 44.83 96.2924 45.19C96.6858 45.55 96.8824 46.0867 96.8824 46.8V50H95.9724V49.3C95.8124 49.5467 95.5824 49.7367 95.2824 49.87C94.9891 49.9967 94.6391 50.06 94.2324 50.06C93.6391 50.06 93.1624 49.9167 92.8024 49.63C92.4491 49.3433 92.2724 48.9667 92.2724 48.5C92.2724 48.0333 92.4424 47.66 92.7824 47.38C93.1224 47.0933 93.6624 46.95 94.4024 46.95H95.9224V46.76C95.9224 46.3467 95.8024 46.03 95.5624 45.81C95.3224 45.59 94.9691 45.48 94.5024 45.48C94.1891 45.48 93.8824 45.5333 93.5824 45.64C93.2824 45.74 93.0291 45.8767 92.8224 46.05L92.4224 45.33C92.6958 45.11 93.0224 44.9433 93.4024 44.83C93.7824 44.71 94.1858 44.65 94.6124 44.65ZM94.3924 49.32C94.7591 49.32 95.0758 49.24 95.3424 49.08C95.6091 48.9133 95.8024 48.68 95.9224 48.38V47.64H94.4424C93.6291 47.64 93.2224 47.9133 93.2224 48.46C93.2224 48.7267 93.3258 48.9367 93.5324 49.09C93.7391 49.2433 94.0258 49.32 94.3924 49.32Z" fill="black"/>
<path d="M104.175 44.65C104.848 44.65 105.381 44.8467 105.775 45.24C106.175 45.6267 106.375 46.1967 106.375 46.95V50H105.415V47.06C105.415 46.5467 105.291 46.16 105.045 45.9C104.798 45.64 104.445 45.51 103.985 45.51C103.465 45.51 103.055 45.6633 102.755 45.97C102.455 46.27 102.305 46.7033 102.305 47.27V50H101.345V42.58H102.305V45.45C102.505 45.1967 102.765 45 103.085 44.86C103.411 44.72 103.775 44.65 104.175 44.65Z" fill="black"/>
<path d="M112.97 47.38C112.97 47.4533 112.964 47.55 112.95 47.67H108.65C108.71 48.1367 108.914 48.5133 109.26 48.8C109.614 49.08 110.05 49.22 110.57 49.22C111.204 49.22 111.714 49.0067 112.1 48.58L112.63 49.2C112.39 49.48 112.09 49.6933 111.73 49.84C111.377 49.9867 110.98 50.06 110.54 50.06C109.98 50.06 109.484 49.9467 109.05 49.72C108.617 49.4867 108.28 49.1633 108.04 48.75C107.807 48.3367 107.69 47.87 107.69 47.35C107.69 46.8367 107.804 46.3733 108.03 45.96C108.264 45.5467 108.58 45.2267 108.98 45C109.387 44.7667 109.844 44.65 110.35 44.65C110.857 44.65 111.307 44.7667 111.7 45C112.1 45.2267 112.41 45.5467 112.63 45.96C112.857 46.3733 112.97 46.8467 112.97 47.38ZM110.35 45.46C109.89 45.46 109.504 45.6 109.19 45.88C108.884 46.16 108.704 46.5267 108.65 46.98H112.05C111.997 46.5333 111.814 46.17 111.5 45.89C111.194 45.6033 110.81 45.46 110.35 45.46Z" fill="black"/>
<path d="M116.087 44.65C116.82 44.65 117.38 44.83 117.767 45.19C118.16 45.55 118.357 46.0867 118.357 46.8V50H117.447V49.3C117.287 49.5467 117.057 49.7367 116.757 49.87C116.464 49.9967 116.114 50.06 115.707 50.06C115.114 50.06 114.637 49.9167 114.277 49.63C113.924 49.3433 113.747 48.9667 113.747 48.5C113.747 48.0333 113.917 47.66 114.257 47.38C114.597 47.0933 115.137 46.95 115.877 46.95H117.397V46.76C117.397 46.3467 117.277 46.03 117.037 45.81C116.797 45.59 116.444 45.48 115.977 45.48C115.664 45.48 115.357 45.5333 115.057 45.64C114.757 45.74 114.504 45.8767 114.297 46.05L113.897 45.33C114.17 45.11 114.497 44.9433 114.877 44.83C115.257 44.71 115.66 44.65 116.087 44.65ZM115.867 49.32C116.234 49.32 116.55 49.24 116.817 49.08C117.084 48.9133 117.277 48.68 117.397 48.38V47.64H115.917C115.104 47.64 114.697 47.9133 114.697 48.46C114.697 48.7267 114.8 48.9367 115.007 49.09C115.214 49.2433 115.5 49.32 115.867 49.32Z" fill="black"/>
<path d="M125.163 42.58V50H124.243V49.16C124.03 49.4533 123.76 49.6767 123.433 49.83C123.106 49.9833 122.746 50.06 122.353 50.06C121.84 50.06 121.38 49.9467 120.973 49.72C120.566 49.4933 120.246 49.1767 120.013 48.77C119.786 48.3567 119.673 47.8833 119.673 47.35C119.673 46.8167 119.786 46.3467 120.013 45.94C120.246 45.5333 120.566 45.2167 120.973 44.99C121.38 44.7633 121.84 44.65 122.353 44.65C122.733 44.65 123.083 44.7233 123.403 44.87C123.723 45.01 123.99 45.22 124.203 45.5V42.58H125.163ZM122.433 49.22C122.766 49.22 123.07 49.1433 123.343 48.99C123.616 48.83 123.83 48.61 123.983 48.33C124.136 48.0433 124.213 47.7167 124.213 47.35C124.213 46.9833 124.136 46.66 123.983 46.38C123.83 46.0933 123.616 45.8733 123.343 45.72C123.07 45.5667 122.766 45.49 122.433 45.49C122.093 45.49 121.786 45.5667 121.513 45.72C121.246 45.8733 121.033 46.0933 120.873 46.38C120.72 46.66 120.643 46.9833 120.643 47.35C120.643 47.7167 120.72 48.0433 120.873 48.33C121.033 48.61 121.246 48.83 121.513 48.99C121.786 49.1433 122.093 49.22 122.433 49.22Z" fill="black"/>
<path d="M126.979 42.58H127.939V50H126.979V42.58Z" fill="black"/>
<path d="M129.772 44.7H130.732V50H129.772V44.7ZM130.252 43.68C130.066 43.68 129.909 43.62 129.782 43.5C129.662 43.38 129.602 43.2333 129.602 43.06C129.602 42.8867 129.662 42.74 129.782 42.62C129.909 42.4933 130.066 42.43 130.252 42.43C130.439 42.43 130.592 42.49 130.712 42.61C130.839 42.7233 130.902 42.8667 130.902 43.04C130.902 43.22 130.839 43.3733 130.712 43.5C130.592 43.62 130.439 43.68 130.252 43.68Z" fill="black"/>
<path d="M135.395 44.65C136.069 44.65 136.602 44.8467 136.995 45.24C137.395 45.6267 137.595 46.1967 137.595 46.95V50H136.635V47.06C136.635 46.5467 136.512 46.16 136.265 45.9C136.019 45.64 135.665 45.51 135.205 45.51C134.685 45.51 134.275 45.6633 133.975 45.97C133.675 46.27 133.525 46.7033 133.525 47.27V50H132.565V44.7H133.485V45.5C133.679 45.2267 133.939 45.0167 134.265 44.87C134.599 44.7233 134.975 44.65 135.395 44.65Z" fill="black"/>
<path d="M144.191 47.38C144.191 47.4533 144.185 47.55 144.171 47.67H139.871C139.931 48.1367 140.135 48.5133 140.481 48.8C140.835 49.08 141.271 49.22 141.791 49.22C142.425 49.22 142.935 49.0067 143.321 48.58L143.851 49.2C143.611 49.48 143.311 49.6933 142.951 49.84C142.598 49.9867 142.201 50.06 141.761 50.06C141.201 50.06 140.705 49.9467 140.271 49.72C139.838 49.4867 139.501 49.1633 139.261 48.75C139.028 48.3367 138.911 47.87 138.911 47.35C138.911 46.8367 139.025 46.3733 139.251 45.96C139.485 45.5467 139.801 45.2267 140.201 45C140.608 44.7667 141.065 44.65 141.571 44.65C142.078 44.65 142.528 44.7667 142.921 45C143.321 45.2267 143.631 45.5467 143.851 45.96C144.078 46.3733 144.191 46.8467 144.191 47.38ZM141.571 45.46C141.111 45.46 140.725 45.6 140.411 45.88C140.105 46.16 139.925 46.5267 139.871 46.98H143.271C143.218 46.5333 143.035 46.17 142.721 45.89C142.415 45.6033 142.031 45.46 141.571 45.46Z" fill="black"/>
<path d="M145.754 50.06C145.568 50.06 145.408 49.9967 145.274 49.87C145.141 49.7367 145.074 49.57 145.074 49.37C145.074 49.1767 145.141 49.0167 145.274 48.89C145.408 48.7567 145.568 48.69 145.754 48.69C145.941 48.69 146.098 48.7533 146.224 48.88C146.351 49.0067 146.414 49.17 146.414 49.37C146.414 49.57 146.348 49.7367 146.214 49.87C146.088 49.9967 145.934 50.06 145.754 50.06Z" fill="black"/>
<rect x="86.6984" y="73" width="31.6032" height="9.828" rx="1" fill="black"/>
<path d="M92.6824 77.844C92.8371 77.8947 92.9598 77.98 93.0504 78.1C93.1411 78.2173 93.1864 78.364 93.1864 78.54C93.1864 78.7827 93.0931 78.9707 92.9064 79.104C92.7198 79.2347 92.4478 79.3 92.0904 79.3H90.6984V76.5H92.0104C92.3411 76.5 92.5958 76.5653 92.7744 76.696C92.9531 76.824 93.0424 77.0013 93.0424 77.228C93.0424 77.3667 93.0104 77.4893 92.9464 77.596C92.8824 77.7027 92.7944 77.7853 92.6824 77.844ZM91.2184 76.908V77.68H91.9544C92.1358 77.68 92.2744 77.648 92.3704 77.584C92.4691 77.5173 92.5184 77.4213 92.5184 77.296C92.5184 77.168 92.4691 77.072 92.3704 77.008C92.2744 76.9413 92.1358 76.908 91.9544 76.908H91.2184ZM92.0584 78.892C92.4611 78.892 92.6624 78.7573 92.6624 78.488C92.6624 78.2187 92.4611 78.084 92.0584 78.084H91.2184V78.892H92.0584Z" fill="white"/>
<path d="M95.7614 77.164V79.3H95.2854V79.028C95.2054 79.124 95.1054 79.1987 94.9854 79.252C94.8654 79.3027 94.7361 79.328 94.5974 79.328C94.3121 79.328 94.0867 79.2493 93.9214 79.092C93.7587 78.932 93.6774 78.696 93.6774 78.384V77.164H94.1774V78.316C94.1774 78.508 94.2201 78.652 94.3054 78.748C94.3934 78.8413 94.5174 78.888 94.6774 78.888C94.8561 78.888 94.9974 78.8333 95.1014 78.724C95.2081 78.612 95.2614 78.452 95.2614 78.244V77.164H95.7614Z" fill="white"/>
<path d="M97.7001 79.184C97.6414 79.232 97.5694 79.268 97.4841 79.292C97.4014 79.316 97.3134 79.328 97.2201 79.328C96.9854 79.328 96.8041 79.2667 96.6761 79.144C96.5481 79.0213 96.4841 78.8427 96.4841 78.608V77.58H96.1321V77.18H96.4841V76.692H96.9841V77.18H97.5561V77.58H96.9841V78.596C96.9841 78.7 97.0094 78.78 97.0601 78.836C97.1107 78.8893 97.1841 78.916 97.2801 78.916C97.3921 78.916 97.4854 78.8867 97.5601 78.828L97.7001 79.184Z" fill="white"/>
<path d="M99.3446 79.184C99.2859 79.232 99.2139 79.268 99.1286 79.292C99.0459 79.316 98.9579 79.328 98.8646 79.328C98.6299 79.328 98.4486 79.2667 98.3206 79.144C98.1926 79.0213 98.1286 78.8427 98.1286 78.608V77.58H97.7766V77.18H98.1286V76.692H98.6286V77.18H99.2006V77.58H98.6286V78.596C98.6286 78.7 98.6539 78.78 98.7046 78.836C98.7552 78.8893 98.8286 78.916 98.9246 78.916C99.0366 78.916 99.1299 78.8867 99.2046 78.828L99.3446 79.184Z" fill="white"/>
<path d="M100.646 79.328C100.43 79.328 100.235 79.2813 100.062 79.188C99.8882 79.0947 99.7522 78.9653 99.6536 78.8C99.5576 78.632 99.5096 78.4427 99.5096 78.232C99.5096 78.0213 99.5576 77.8333 99.6536 77.668C99.7522 77.5027 99.8882 77.3733 100.062 77.28C100.235 77.1867 100.43 77.14 100.646 77.14C100.864 77.14 101.06 77.1867 101.234 77.28C101.407 77.3733 101.542 77.5027 101.638 77.668C101.736 77.8333 101.786 78.0213 101.786 78.232C101.786 78.4427 101.736 78.632 101.638 78.8C101.542 78.9653 101.407 79.0947 101.234 79.188C101.06 79.2813 100.864 79.328 100.646 79.328ZM100.646 78.9C100.83 78.9 100.982 78.8387 101.102 78.716C101.222 78.5933 101.282 78.432 101.282 78.232C101.282 78.032 101.222 77.8707 101.102 77.748C100.982 77.6253 100.83 77.564 100.646 77.564C100.462 77.564 100.31 77.6253 100.19 77.748C100.072 77.8707 100.014 78.032 100.014 78.232C100.014 78.432 100.072 78.5933 100.19 78.716C100.31 78.8387 100.462 78.9 100.646 78.9Z" fill="white"/>
<path d="M103.476 77.14C103.745 77.14 103.961 77.2187 104.124 77.376C104.286 77.5333 104.368 77.7667 104.368 78.076V79.3H103.868V78.14C103.868 77.9533 103.824 77.8133 103.736 77.72C103.648 77.624 103.522 77.576 103.36 77.576C103.176 77.576 103.03 77.632 102.924 77.744C102.817 77.8533 102.764 78.012 102.764 78.22V79.3H102.264V77.164H102.74V77.44C102.822 77.3413 102.926 77.2667 103.052 77.216C103.177 77.1653 103.318 77.14 103.476 77.14Z" fill="white"/>
<path d="M106.723 76.94H105.795V76.5H108.171V76.94H107.243V79.3H106.723V76.94Z" fill="white"/>
<path d="M110.303 78.244C110.303 78.2787 110.3 78.328 110.295 78.392H108.619C108.648 78.5493 108.724 78.6747 108.847 78.768C108.972 78.8587 109.127 78.904 109.311 78.904C109.546 78.904 109.739 78.8267 109.891 78.672L110.159 78.98C110.063 79.0947 109.942 79.1813 109.795 79.24C109.648 79.2987 109.483 79.328 109.299 79.328C109.064 79.328 108.858 79.2813 108.679 79.188C108.5 79.0947 108.362 78.9653 108.263 78.8C108.167 78.632 108.119 78.4427 108.119 78.232C108.119 78.024 108.166 77.8373 108.259 77.672C108.355 77.504 108.487 77.3733 108.655 77.28C108.823 77.1867 109.012 77.14 109.223 77.14C109.431 77.14 109.616 77.1867 109.779 77.28C109.944 77.3707 110.072 77.5 110.163 77.668C110.256 77.8333 110.303 78.0253 110.303 78.244ZM109.223 77.54C109.063 77.54 108.927 77.588 108.815 77.684C108.706 77.7773 108.639 77.9027 108.615 78.06H109.827C109.806 77.9053 109.74 77.78 109.631 77.684C109.522 77.588 109.386 77.54 109.223 77.54Z" fill="white"/>
<path d="M112.085 79.3L111.537 78.56L110.985 79.3H110.433L111.265 78.216L110.469 77.164H111.025L111.549 77.864L112.073 77.164H112.613L111.813 78.208L112.649 79.3H112.085Z" fill="white"/>
<path d="M114.302 79.184C114.243 79.232 114.171 79.268 114.086 79.292C114.003 79.316 113.915 79.328 113.822 79.328C113.587 79.328 113.406 79.2667 113.278 79.144C113.15 79.0213 113.086 78.8427 113.086 78.608V77.58H112.734V77.18H113.086V76.692H113.586V77.18H114.158V77.58H113.586V78.596C113.586 78.7 113.611 78.78 113.662 78.836C113.712 78.8893 113.786 78.916 113.882 78.916C113.994 78.916 114.087 78.8867 114.162 78.828L114.302 79.184Z" fill="white"/>
</svg>
