<svg width="20" height="20" xmlns="http://www.w3.org/2000/svg"><path fill-rule="evenodd" clip-rule="evenodd" d="M9.69 11.617a.997.997 0 0 1-1.415 0 4.474 4.474 0 0 1-1.318-3.184c0-1.203.468-2.334 1.318-3.184l2.935-2.937c1.756-1.757 4.618-1.748 6.384.02l.086.087a4.465 4.465 0 0 1 1.318 3.236 4.468 4.468 0 0 1-1.39 3.203l-2.526 2.414a1.001 1.001 0 0 1-1.381-1.447l2.525-2.414A2.48 2.48 0 0 0 17 5.632a2.485 2.485 0 0 0-.735-1.8l-.087-.087c-.983-.986-2.578-.993-3.553-.018L9.69 6.664a2.486 2.486 0 0 0-.732 1.769c0 .668.26 1.296.732 1.769a1 1 0 0 1 0 1.415zm-7.373 5.965.09.09A4.52 4.52 0 0 0 5.612 19a4.473 4.473 0 0 0 3.175-1.31l2.934-2.938a4.471 4.471 0 0 0 1.32-3.183 4.471 4.471 0 0 0-1.32-3.184A1 1 0 0 0 10.308 9.8c.473.472.733 1.1.733 1.769 0 .667-.26 1.295-.733 1.769l-2.934 2.936c-.976.975-2.569.967-3.554-.018l-.089-.089A2.489 2.489 0 0 1 3 14.37c.008-.678.282-1.31.772-1.779l2.526-2.414a1.001 1.001 0 0 0-1.38-1.448L2.39 11.143A4.464 4.464 0 0 0 1 14.347a4.466 4.466 0 0 0 1.317 3.235z"/></svg>