<svg width="12" height="12" viewBox="0 0 12 12" xmlns="http://www.w3.org/2000/svg">
<path d="M6.9758 2.47394C6.21799 2.11192 5.37983 1.9741 4.56084 2.06047L5.56066 1.06065C6.92749 -0.306185 9.14357 -0.306187 10.5104 1.06065L10.9749 1.52511C12.3417 2.89195 12.3417 5.10802 10.9749 6.47486L9.51041 7.93933C8.14357 9.30616 5.92749 9.30616 4.56066 7.93933L4.32843 7.7071L5.74264 6.29288L5.97487 6.52512C6.56066 7.1109 7.51041 7.1109 8.09619 6.52512L9.56066 5.06065C10.1464 4.47486 10.1464 3.52512 9.56066 2.93933L9.09619 2.47486C8.51072 1.88939 7.56166 1.88908 6.9758 2.47394Z" />
<path d="M5.05973 9.56159C5.81755 9.9236 6.6557 10.0614 7.47469 9.97505L6.47487 10.9749C5.10804 12.3417 2.89196 12.3417 1.52513 10.9749L1.06066 10.5104C-0.306174 9.14357 -0.30618 6.9275 1.06066 5.56066L2.52513 4.09619C3.89196 2.72936 6.10804 2.72936 7.47487 4.09619L7.70711 4.32843L6.29289 5.74264L6.06066 5.51041C5.47487 4.92462 4.52513 4.92462 3.93934 5.51041L2.47487 6.97488C1.88909 7.56066 1.88909 8.51041 2.47487 9.09619L2.93934 9.56066C3.52482 10.1461 4.47387 10.1464 5.05973 9.56159Z" />
</svg>
