<svg width="16" height="16" viewBox="0 0 16 16" xmlns="http://www.w3.org/2000/svg">
<path d="M7.72076 9.7074C7.52676 9.9024 7.27076 10.0004 7.01476 10.0004C6.75876 10.0004 6.50176 9.9024 6.30676 9.7064C4.79276 8.1904 4.79276 5.7224 6.30676 4.2054L9.36576 1.1404C10.0998 0.405397 11.0748 0.000396729 12.1128 0.000396729C13.1508 0.000396729 14.1268 0.404397 14.8618 1.1404C16.3738 2.6574 16.3738 5.1244 14.8618 6.6404L12.8218 8.6844C12.4308 9.0764 11.7958 9.0754 11.4068 8.6864C11.0158 8.2964 11.0158 7.6624 11.4058 7.2714L13.4458 5.2274C14.1808 4.4904 14.1808 3.2904 13.4458 2.5534C13.0898 2.1964 12.6158 2.0004 12.1138 2.0004C11.6108 2.0004 11.1378 2.1964 10.7818 2.5534L7.72276 5.6184C6.98676 6.3564 6.98676 7.5564 7.72276 8.2934C8.11276 8.6844 8.11276 9.3174 7.72076 9.7074Z"/>
<path d="M1.13475 9.35939C-0.37825 10.8754 -0.37825 13.3424 1.13475 14.8594C1.86875 15.5944 2.84575 16.0004 3.88375 16.0004C4.92075 16.0004 5.89675 15.5944 6.62975 14.8594L9.68975 11.7944C11.2027 10.2774 11.2027 7.81039 9.68975 6.29339C9.29875 5.90139 8.66375 5.90139 8.27575 6.29239C7.88375 6.68239 7.88375 7.31539 8.27375 7.70639C9.00975 8.44339 9.00975 9.64439 8.27375 10.3814L5.21375 13.4474C4.85875 13.8034 4.38575 14.0004 3.88275 14.0004C3.37975 14.0004 2.90575 13.8034 2.55075 13.4474C1.81575 12.7094 1.81575 11.5094 2.55075 10.7724L4.59075 8.72839C4.98075 8.33739 4.98075 7.70439 4.58875 7.31439C4.19975 6.92439 3.56575 6.92339 3.17475 7.31539L1.13475 9.35939Z"/>
</svg>
