<svg width="20" height="20" viewBox="0 0 20 20" xmlns="http://www.w3.org/2000/svg">
<path opacity="0.5" fill-rule="evenodd" clip-rule="evenodd" d="M10 2C7.79086 2 6 3.79086 6 6L6 10L4 10L4 6C4 2.68629 6.68629 0 10 0C13.3137 0 16 2.68629 16 6L16 10L14 10L14 6C14 3.79086 12.2091 2 10 2Z"/>
<path fill-rule="evenodd" clip-rule="evenodd" d="M4 9C2.89543 9 2 9.89543 2 11L2 18C2 19.1046 2.89543 20 4 20L16 20C17.1046 20 18 19.1046 18 18V11C18 9.89543 17.1046 9 16 9L4 9ZM12 13C12 13.7403 11.5978 14.3866 11 14.7324V17C11 17.5523 10.5523 18 10 18C9.44771 18 9 17.5523 9 17L9 14.7324C8.4022 14.3866 8 13.7403 8 13C8 11.8954 8.89543 11 10 11C11.1046 11 12 11.8954 12 13Z"/>
</svg>
