<svg width="40" height="40" viewBox="0 0 40 40" fill="none" xmlns="http://www.w3.org/2000/svg">
<path opacity="0.5" fill-rule="evenodd" clip-rule="evenodd" d="M20 4C15.5817 4 12 7.58172 12 12L12 16L8 16L8 12C8 5.37258 13.3726 0 20 0C26.6274 0 32 5.37258 32 12L32 16L28 16L28 12C28 7.58172 24.4183 4 20 4Z" fill="#9498A3"/>
<path fill-rule="evenodd" clip-rule="evenodd" d="M8 16C5.79086 16 4 17.7909 4 20V36C4 38.2091 5.79086 40 8 40H32C34.2091 40 36 38.2091 36 36V20C36 17.7909 34.2091 16 32 16H8ZM24 26C24 27.6283 23.027 29.0294 21.6307 29.6536L22.3206 33.1029C22.4134 33.567 22.0584 34 21.5851 34H18.4149C17.9416 34 17.5866 33.567 17.6794 33.1029L18.3693 29.6536C16.973 29.0294 16 27.6283 16 26C16 23.7909 17.7909 22 20 22C22.2091 22 24 23.7909 24 26Z" fill="#9498A3"/>
</svg>
