<svg width="16" height="16" viewBox="0 0 16 16" xmlns="http://www.w3.org/2000/svg">
<path opacity="0.5" fill-rule="evenodd" clip-rule="evenodd" d="M0 3C0 1.34315 1.34315 0 3 0H9C9.55229 0 10 0.447715 10 1C10 1.55228 9.55229 2 9 2H3C2.44772 2 2 2.44772 2 3V13C2 13.5523 2.44772 14 3 14H9C9.55229 14 10 14.4477 10 15C10 15.5523 9.55229 16 9 16H3C1.34315 16 0 14.6569 0 13V3Z" />
<path d="M12.7071 4.29289C12.3166 3.90237 11.6834 3.90237 11.2929 4.29289C10.9024 4.68342 10.9024 5.31658 11.2929 5.70711L12.5858 7H5C4.44772 7 4 7.44772 4 8C4 8.55228 4.44772 9 5 9H12.5858L11.2929 10.2929C10.9024 10.6834 10.9024 11.3166 11.2929 11.7071C11.6834 12.0976 12.3166 12.0976 12.7071 11.7071L15.7071 8.70711C16.0976 8.31658 16.0976 7.68342 15.7071 7.29289L12.7071 4.29289Z" />
</svg>
