<svg xmlns="http://www.w3.org/2000/svg" width="20" height="20">
  <path d="M19.739 5.383C20.168 2.736 18.714 2 18.714 2s.07 2.157-3.79 2.623c-3.433.417-14.9.098-14.9.098l3.695 4.364c1 1.177 1.526 1.324 2.646 1.398 1.12.073 3.6.048 5.292-.074 1.836-.147 4.458-.76 6.223-2.182.88-.736 1.668-1.74 1.859-2.844"/>
  <path d="M19.977 8.13s-.453.955-2.765 2.451c-.978.637-3.028 1.323-5.65 1.568-1.43.147-4.029.025-5.149.025-1.121 0-1.645.246-2.646 1.422L0 17.911h2.265c.977 0 7.08.368 9.774-.393 8.796-2.5 7.938-9.389 7.938-9.389"/>
</svg>