<svg xmlns="http://www.w3.org/2000/svg" viewBox="0 0 145 24" width="145">
  <path d="M20.388 6.056c.12.148.153.36.097.629l-2.859 16.243c-.11.536-.434.818-.937.818H13.98c-.298 0-.513-.077-.638-.232-.12-.147-.153-.358-.097-.628l1.679-9.564-4.82 6.17a.809.809 0 0 1-.714.393c-.29 0-.515-.143-.65-.412l-.003-.006L6.1 13.291l-1.692 9.636c-.112.537-.436.819-.937.819H.762c-.3 0-.514-.077-.638-.23-.12-.148-.153-.36-.098-.63l2.86-16.243c.073-.534.398-.818.936-.818H6.38c.485 0 .79.168.908.5l3.084 7.315 5.704-7.346c.257-.312.581-.47.964-.47h2.71c.298 0 .513.078.638.232zm5.936 10.5h3.883l-.824-6.093-3.06 6.092zm6.425-9.968l2.709 16.177c.038.282-.011.516-.144.698-.14.187-.355.283-.64.283h-2.911c-.54 0-.856-.268-.913-.775l-.41-2.61h-5.657l-1.35 2.647c-.235.49-.589.738-1.051.738h-3.06c-.294 0-.496-.1-.6-.297-.1-.192-.076-.434.076-.718l8.426-16.17c.124-.265.259-.451.408-.563.154-.116.379-.173.67-.173h3.511c.5 0 .824.264.936.763zm13.223 7.616l4.849 8.45c.153.246.171.494.052.73-.083.165-.263.362-.65.362h-2.985c-.479 0-.841-.249-1.078-.74l-3.907-6.702-1.177 6.624c-.073.533-.398.818-.937.818h-2.833c-.3 0-.515-.078-.64-.231-.12-.148-.152-.36-.096-.629l2.859-16.242c.073-.535.397-.82.937-.82H43.2c.298 0 .514.078.638.232.12.148.153.36.097.63l-.918 5.151 5.546-5.327c.421-.455.836-.686 1.234-.686h3.36c.404 0 .54.21.585.385.06.238-.025.483-.252.73l-7.518 7.265zm19.03-1.199c.131.146.183.36.154.639l-.378 2.013c-.092.535-.415.819-.936.819H57.64l-.614 3.439h6.591c.286 0 .497.075.627.224.126.146.172.357.135.628l-.377 2.136c-.13.553-.461.843-.962.843H52.805c-.299 0-.513-.078-.638-.23-.12-.148-.153-.36-.098-.63l2.86-16.242c.073-.535.39-.82.911-.82h10.133c.287 0 .497.076.627.225.128.145.172.357.136.629l-.402 2.16c-.074.55-.398.843-.937.843h-6.554l-.539 3.113h6.115c.26 0 .457.071.583.211zm14.87-6.444c.423.25.524.612.296 1.05L79.163 9.42c-.35.654-.828.62-1.169.475-.931-.344-2.024-.518-3.242-.518-1.934 0-2.874.53-2.874 1.62 0 .399.18.713.552.96.394.263 1.071.597 2.014.994.713.3 1.299.57 1.74.808.437.235.906.547 1.394.925.498.386.871.842 1.111 1.358.24.513.363 1.112.363 1.777 0 2.02-.742 3.572-2.204 4.618C75.398 23.474 73.536 24 71.316 24c-1.19 0-2.324-.106-3.372-.316-1.05-.21-1.868-.48-2.428-.802-.436-.228-.548-.59-.32-1.048l1.056-1.91c.35-.632.814-.607 1.141-.477 1.057.495 2.281.745 3.646.745.885 0 1.694-.146 2.405-.431.687-.277 1.021-.723 1.021-1.365 0-.4-.205-.73-.627-1.012-.443-.294-1.136-.62-2.06-.966-1.378-.521-2.48-1.153-3.272-1.878-.806-.738-1.214-1.76-1.214-3.042 0-2 .69-3.512 2.052-4.492 1.35-.97 3.17-1.462 5.408-1.462 2.183 0 3.905.342 5.12 1.017zm25.404-.736c.293 0 .495.094.599.283.101.182.087.427-.045.746l-7.3 16.15c-.257.494-.627.742-1.104.742h-3.111c-.707 0-.887-.424-.913-.78l-.752-7.141-.234-3.353-1.41 3.384-3.263 7.149c-.218.49-.581.74-1.079.74H83.53c-.54 0-.856-.267-.912-.774L81.012 6.824c-.021-.36.048-.625.206-.791.13-.139.317-.208.556-.208h2.884c.703 0 .898.42.938.775l.502 7.476.162 3.996 1.632-4.055 3.236-7.474c.202-.476.565-.718 1.08-.718h2.533c.747 0 .936.41.964.753l.576 7.472.231 4.028 1.588-4.036 3.136-7.472c.183-.494.539-.745 1.056-.745h2.984zm23.808 0c.287 0 .498.075.628.224.126.146.172.357.134.629l-.377 2.16c-.073.534-.397.818-.936.818h-6.454l-.638 3.54h6.09c.285 0 .493.075.62.224.123.147.161.36.115.632l-.377 2.107c-.093.519-.417.793-.937.793h-6.177l-1.038 5.975c-.11.537-.434.819-.937.819h-2.81c-.298 0-.512-.077-.638-.23-.119-.148-.152-.36-.096-.63l2.859-16.243c.073-.534.397-.818.936-.818h10.033zm15.061.231c.12.148.153.36.097.629l-.401 2.353c-.11.553-.443.844-.962.844h-3.644l-2.292 13.045c-.11.537-.434.819-.936.819h-2.835c-.299 0-.513-.077-.638-.23-.12-.148-.153-.36-.098-.63l2.285-13.004h-3.556c-.282 0-.488-.076-.615-.225-.127-.15-.168-.371-.121-.656l.426-2.356c.076-.537.39-.82.912-.82h11.739c.299 0 .513.077.639.231zm-36.184 3.8a.672.672 0 0 1-.649-.849L109.59.66c.106-.39.46-.66.865-.66h5.219c.538 0 .858.602.557 1.048l-3.226 4.777h2.07c.524 0 .846.571.576 1.019l-5.685 9.409a.67.67 0 0 1-.575.324h-.83a.448.448 0 0 1-.433-.563l1.642-6.157h-1.808zm2.291 9.41c.441 0 .762.416.65.843l-.78 2.97a.895.895 0 0 1-.866.667h-2.92a.672.672 0 0 1-.65-.841l.772-2.97a.898.898 0 0 1 .867-.67h2.927z"/>
</svg>
