<svg width="84" height="14" viewBox="0 0 84 14" xmlns="http://www.w3.org/2000/svg">
<path d="M11.8801 3.48548C11.9383 3.54357 11.9966 3.71784 11.9383 3.83402L10.2495 13.2448C10.1912 13.5353 10.0165 13.7095 9.72536 13.7095H8.153C7.97829 13.7095 7.86182 13.6515 7.80358 13.5934C7.74535 13.5353 7.68711 13.361 7.74535 13.2448L8.73535 7.66805L5.94004 11.2697C5.82357 11.444 5.7071 11.5021 5.53239 11.5021C5.35768 11.5021 5.24121 11.444 5.12474 11.2697L3.61061 7.66805L2.62061 13.2448C2.56237 13.5353 2.38766 13.7095 2.09649 13.7095H0.465886C0.291178 13.7095 0.174707 13.6515 0.116471 13.5934C0 13.5353 0 13.4191 0 13.2448L1.68884 3.77593C1.74707 3.48548 1.92178 3.3112 2.21296 3.3112H3.72708C4.01826 3.3112 4.19297 3.42739 4.25121 3.60166L6.05651 7.84232L9.37595 3.60166C9.55065 3.42739 9.72536 3.3112 9.9583 3.3112H11.5307C11.6471 3.3112 11.8218 3.36929 11.8801 3.48548ZM15.316 9.58506H17.5872L17.1213 6.04149L15.316 9.58506ZM19.0431 3.77593L20.6154 13.1867C20.6154 13.361 20.6154 13.4772 20.5572 13.5934C20.499 13.7095 20.3243 13.7676 20.2078 13.7676H18.519C18.2278 13.7676 17.9948 13.5934 17.9948 13.3029L17.7619 11.7925H14.4425L13.6272 13.3029C13.5107 13.5934 13.2777 13.7095 12.9866 13.7095H11.1813C11.0065 13.7095 10.8901 13.6515 10.8318 13.5353C10.7736 13.4191 10.7736 13.3029 10.8901 13.1286L15.7819 3.71784C15.8401 3.54357 15.9566 3.42739 16.0148 3.36929C16.1313 3.3112 16.2478 3.25311 16.4225 3.25311H18.4607C18.8101 3.3112 18.9848 3.48548 19.0431 3.77593ZM26.7884 8.19087L29.5837 13.0705C29.7002 13.1867 29.7002 13.361 29.642 13.4772C29.5837 13.5934 29.4673 13.7095 29.2926 13.7095H27.5455C27.2543 13.7095 27.0796 13.5934 26.9049 13.3029L24.6337 9.41079L23.9349 13.2448C23.8766 13.5353 23.7019 13.7095 23.4108 13.7095H21.7802C21.6054 13.7095 21.489 13.6515 21.4307 13.5934C21.3725 13.5353 21.3143 13.361 21.3725 13.2448L23.0613 3.83402C23.1196 3.54357 23.2943 3.36929 23.5855 3.36929H25.2161C25.3908 3.36929 25.5072 3.42739 25.5655 3.48548C25.6237 3.54357 25.6237 3.65975 25.5655 3.83402L25.0414 6.79668L28.2443 3.71784C28.4773 3.42739 28.7102 3.3112 28.9431 3.3112H30.9232C31.1561 3.3112 31.2143 3.42739 31.2726 3.54357C31.3308 3.65975 31.2726 3.83402 31.0979 3.95021L26.7884 8.19087ZM37.8532 7.49378C37.9114 7.55187 37.9697 7.72614 37.9697 7.84232L37.7367 9.00415C37.6785 9.29461 37.5038 9.46888 37.2126 9.46888H33.602L33.1943 11.5021H37.0379C37.2126 11.5021 37.3291 11.5602 37.3873 11.6183C37.4456 11.6763 37.5038 11.8506 37.4456 11.9668L37.2708 13.2448C37.2126 13.5934 36.9797 13.7095 36.6885 13.7095H30.7484C30.5737 13.7095 30.4573 13.6515 30.399 13.5934C30.3408 13.5353 30.2826 13.361 30.3408 13.2448L32.0296 3.83402C32.0879 3.54357 32.2626 3.36929 32.5538 3.36929H38.4356C38.6103 3.36929 38.7267 3.42739 38.785 3.48548C38.8432 3.54357 38.9014 3.71784 38.8432 3.83402L38.6103 5.11203C38.552 5.40249 38.3773 5.57676 38.0861 5.57676H34.2426L33.9514 7.37759H37.5038C37.6785 7.37759 37.795 7.43568 37.8532 7.49378ZM46.5303 3.77593C46.7633 3.89212 46.8215 4.12448 46.705 4.41494L46.1227 5.46058C45.948 5.86722 45.6568 5.80913 45.4238 5.75104C44.8997 5.57676 44.2591 5.46058 43.5603 5.46058C42.4538 5.46058 41.8715 5.75104 41.8715 6.39004C41.8715 6.62241 41.9879 6.79668 42.2209 6.97095C42.4538 7.14523 42.8615 7.3195 43.3856 7.55187C43.7932 7.72614 44.1427 7.90041 44.3756 8.0166C44.6085 8.13278 44.8997 8.30705 45.1909 8.53942C45.4821 8.77178 45.715 9.00415 45.8315 9.3527C45.948 9.64315 46.0644 9.9917 46.0644 10.3983C46.0644 11.5602 45.6568 12.4896 44.7833 13.0705C43.968 13.6515 42.8615 14 41.5803 14C40.8815 14 40.2409 13.9419 39.6003 13.8257C38.9597 13.7095 38.4938 13.5353 38.2026 13.361C37.9697 13.2448 37.9114 13.0124 38.0279 12.7801L38.6685 11.6763C38.9014 11.3278 39.1344 11.3278 39.3091 11.3859C39.9497 11.6763 40.6485 11.7925 41.4056 11.7925C41.9297 11.7925 42.3956 11.7344 42.8032 11.5602C43.2109 11.3859 43.3856 11.1535 43.3856 10.7469C43.3856 10.5145 43.2691 10.3402 43.0362 10.166C42.8032 9.9917 42.3956 9.81743 41.8132 9.58506C40.9979 9.29461 40.3573 8.88797 39.8915 8.48133C39.4256 8.07469 39.1926 7.43568 39.1926 6.73859C39.1926 5.57676 39.6003 4.70539 40.4156 4.12448C41.2309 3.54357 42.2791 3.25311 43.5603 3.25311C44.7833 3.13693 45.8315 3.36929 46.5303 3.77593ZM61.3222 3.3112C61.4969 3.3112 61.6134 3.36929 61.6716 3.48548C61.7298 3.60166 61.7298 3.71784 61.6716 3.89212L57.3622 13.3029C57.1875 13.5934 57.0127 13.7095 56.7216 13.7095H54.9163C54.5086 13.7095 54.3921 13.4772 54.3921 13.2448L53.9263 9.12033L53.8098 7.14523L52.9945 9.17842L51.0727 13.3029C50.9562 13.5934 50.7233 13.7095 50.4321 13.7095H48.6268C48.3356 13.7095 48.1027 13.5353 48.1027 13.2448L47.1709 3.89212C47.1709 3.65975 47.1709 3.54357 47.2874 3.42739C47.3456 3.36929 47.4621 3.3112 47.6368 3.3112H49.3256C49.7333 3.3112 49.8498 3.54357 49.8498 3.77593L50.1409 8.13278L50.2574 10.4564L51.1892 8.07469L53.0527 3.71784C53.1692 3.42739 53.4021 3.3112 53.6933 3.3112H55.1492C55.5569 3.3112 55.6733 3.54357 55.7316 3.77593L56.081 8.13278L56.1974 10.4564L57.1292 8.13278L58.9345 3.77593C59.051 3.48548 59.2257 3.36929 59.5751 3.36929H61.3222V3.3112ZM75.1823 3.3112C75.357 3.3112 75.4735 3.36929 75.5317 3.42739C75.5899 3.48548 75.6482 3.65975 75.5899 3.77593L75.357 5.05394C75.2988 5.3444 75.1241 5.51867 74.8329 5.51867H71.0476L70.6981 7.55187H74.2505C74.4252 7.55187 74.5417 7.60996 74.5999 7.66805C74.6582 7.72614 74.7164 7.90041 74.6582 8.0166L74.4252 9.23651C74.367 9.52697 74.1923 9.70124 73.9011 9.70124H70.2905L69.7081 13.1867C69.6499 13.4772 69.4752 13.6515 69.184 13.6515H67.5534C67.3787 13.6515 67.2622 13.5934 67.204 13.5353C67.1458 13.4772 67.0875 13.3029 67.1458 13.1867L68.8346 3.77593C68.8928 3.48548 69.0675 3.3112 69.3587 3.3112H75.1823ZM83.9176 3.48548C83.9759 3.54357 84.0341 3.71784 83.9759 3.83402L83.7429 5.17012C83.6847 5.51867 83.51 5.63485 83.1606 5.63485H81.0641L79.7247 13.1867C79.6664 13.4772 79.4917 13.6515 79.2006 13.6515H77.5699C77.3952 13.6515 77.2788 13.5934 77.2205 13.5353C77.1623 13.4772 77.1041 13.3029 77.1623 13.1867L78.5017 5.63485H76.4052C76.2305 5.63485 76.1141 5.57676 76.0558 5.51867C75.9976 5.40249 75.9394 5.28631 75.9976 5.11203L76.2305 3.71784C76.2888 3.42739 76.4635 3.25311 76.7547 3.25311H83.5682C83.7429 3.3112 83.8594 3.36929 83.9176 3.48548ZM62.8946 5.69295C62.6616 5.69295 62.4287 5.46058 62.5451 5.22822L63.8846 0.406639C63.9428 0.174274 64.1757 0 64.4087 0H67.4369C67.7281 0 67.9611 0.348548 67.7864 0.580913L65.8063 3.3112H67.0293C67.3205 3.3112 67.4952 3.65975 67.3787 3.89212L64.0593 9.3527C64.001 9.46888 63.8846 9.52697 63.7099 9.52697H63.244C63.0693 9.52697 62.9528 9.3527 63.011 9.17842L63.9428 5.57676H62.8946V5.69295ZM64.234 11.1535C64.4669 11.1535 64.6999 11.3859 64.5834 11.6183L64.1175 13.361C64.0593 13.5934 63.8263 13.7676 63.5934 13.7676H61.9045C61.6716 13.7676 61.4387 13.5353 61.4969 13.3029L61.9628 11.5602C62.021 11.3278 62.254 11.1535 62.4869 11.1535H64.234Z" />
</svg>
