<svg xmlns="http://www.w3.org/2000/svg" width="16" height="16"><path d="M15.935 3.542C15.69 1.823 14.092.468 12.2.206 11.88.16 10.67 0 7.868 0h-.02C5.043 0 4.441.161 4.122.206 2.283.46.603 1.678.195 3.418 0 4.275-.022 5.224.015 6.095c.052 1.25.062 2.497.183 3.741.083.827.229 1.647.436 2.454.387 1.49 1.956 2.731 3.493 3.237a9.955 9.955 0 0 0 5.11.254c.187-.041.372-.088.554-.142.412-.123.894-.26 1.25-.502a.039.039 0 0 0 .011-.013.036.036 0 0 0 .005-.016v-1.206a.034.034 0 0 0-.015-.027.04.04 0 0 0-.032-.007c-1.086.243-2.2.365-3.316.364-1.922 0-2.44-.856-2.587-1.213a3.562 3.562 0 0 1-.225-.955.033.033 0 0 1 .014-.03.039.039 0 0 1 .033-.007c1.068.243 2.163.365 3.262.365.264 0 .527 0 .792-.007 1.105-.029 2.27-.082 3.357-.281.027-.005.054-.01.078-.016 1.715-.31 3.347-1.28 3.513-3.736a65.93 65.93 0 0 0 .022-1.113c0-.341.117-2.42-.018-3.697Zm-2.64 6.13h-1.803V5.527c0-.873-.387-1.318-1.176-1.318-.866 0-1.3.527-1.3 1.567v2.268H7.223V5.775c0-1.04-.434-1.566-1.301-1.566-.784 0-1.175.445-1.176 1.318v4.145H2.944V5.4c0-.873.238-1.566.713-2.08.49-.513 1.132-.776 1.93-.776.922 0 1.62.333 2.085.999l.449.707.45-.707c.464-.666 1.162-.999 2.083-.999.797 0 1.44.263 1.931.776.475.514.712 1.207.712 2.08l-.001 4.27Z"/></svg>