<svg xmlns="http://www.w3.org/2000/svg" width="20" height="20"><path d="M19.92 4.428c-.309-2.15-2.305-3.843-4.67-4.17C14.85.201 13.338 0 9.835 0H9.81C6.305 0 5.553.202 5.154.257c-2.3.32-4.4 1.841-4.91 4.015C0 5.343-.027 6.53.018 7.62c.065 1.562.078 3.121.229 4.676.105 1.034.287 2.058.545 3.067.485 1.864 2.446 3.415 4.367 4.047 2.057.66 4.269.77 6.388.317.233-.051.464-.11.692-.178.514-.153 1.118-.325 1.561-.627a.048.048 0 0 0 .02-.036v-1.507a.043.043 0 0 0-.017-.035.049.049 0 0 0-.04-.008 18.81 18.81 0 0 1-4.146.454c-2.402 0-3.049-1.07-3.234-1.515a4.452 4.452 0 0 1-.28-1.194c-.001-.007 0-.014.003-.02a.045.045 0 0 1 .013-.017.049.049 0 0 1 .042-.008c1.335.302 2.704.455 4.077.455.33 0 .66 0 .99-.009 1.382-.036 2.838-.102 4.197-.351.034-.007.068-.012.097-.02 2.144-.387 4.184-1.6 4.391-4.67.008-.12.028-1.266.028-1.392 0-.426.146-3.024-.022-4.62Zm-3.3 7.662h-2.255V6.909c0-1.091-.484-1.648-1.47-1.648-1.082 0-1.625.659-1.625 1.958v2.837H9.03V7.219c0-1.3-.544-1.958-1.627-1.958-.98 0-1.47.557-1.47 1.648v5.18H3.68V6.752c0-1.09.297-1.957.89-2.6.613-.64 1.416-.97 2.413-.97 1.154 0 2.026.417 2.607 1.249l.561.883.562-.883c.581-.832 1.453-1.248 2.605-1.248.996 0 1.799.329 2.413.97.594.641.89 1.508.89 2.6l-.001 5.338Z"/></svg>