<svg width="16" height="16" xmlns="http://www.w3.org/2000/svg"><path opacity=".5" fill-rule="evenodd" clip-rule="evenodd" d="M7 2a1 1 0 0 1 1-1h7a1 1 0 1 1 0 2H8a1 1 0 0 1-1-1zm0 6a1 1 0 0 1 1-1h7a1 1 0 1 1 0 2H8a1 1 0 0 1-1-1zm1 5a1 1 0 1 0 0 2h7a1 1 0 1 0 0-2H8z"/><path fill-rule="evenodd" clip-rule="evenodd" d="m2 1.586-.293-.293A1 1 0 0 0 .293 2.707l1 1a1 1 0 0 0 1.414 0l2-2A1 1 0 0 0 3.293.293L2 1.586zm0 6-.293-.293A1 1 0 0 0 .293 8.707l1 1a1 1 0 0 0 1.414 0l2-2a1 1 0 0 0-1.414-1.414L2 7.586zM.293 13.293a1 1 0 0 1 1.414 0l.293.293 1.293-1.293a1 1 0 0 1 1.414 1.414l-2 2a1 1 0 0 1-1.414 0l-1-1a1 1 0 0 1 0-1.414z"/></svg>