<svg width="16" height="16" xmlns="http://www.w3.org/2000/svg"><path d="M2.773 2.829c.534.399.747.399 1.707.299l9.173-.499c.214 0 0-.2 0-.2L12.16 1.333c-.427-.2-.747-.499-1.493-.4l-8.96.6c-.32 0-.427.2-.214.299l1.28.998zm.534 2.095v9.28c0 .499.213.698.853.698l10.133-.598c.534 0 .64-.4.64-.799v-9.28c0-.398-.213-.598-.533-.598l-10.56.599c-.427.1-.533.299-.533.698zm9.92.499c.106.3 0 .599-.32.599h-.427v6.785c-.427.2-.853.3-1.173.3-.534 0-.64-.2-1.067-.6l-3.2-4.789v4.59l.96.2s0 .598-.853.598l-2.24.1c-.107-.1 0-.399.213-.499l.533-.2V6.62l-.533-.1a.537.537 0 01.533-.698l2.454-.2 3.306 4.89v-4.29l-.853-.1a.443.443 0 01.427-.6l2.24-.099zM.96.733l9.28-.698c1.173-.1 1.387 0 2.133.499l2.987 1.995c.427.3.64.4.64.799v10.876c0 .698-.213 1.098-1.173 1.197L4.053 16c-.64 0-.96-.1-1.386-.499L.533 12.807C.213 12.308 0 11.909 0 11.51V1.83C0 1.233.213.834.96.734z"/></svg>