<svg width="16" height="16" viewBox="0 0 16 16" xmlns="http://www.w3.org/2000/svg">
<path opacity="0.3" fill-rule="evenodd" clip-rule="evenodd" d="M3 13L3.86564 9.53743C3.95356 9.18576 4.1354 8.8646 4.39171 8.60829L11 2H3C1.34315 2 0 3.34315 0 5V13C0 14.6569 1.34315 16 3 16H11C12.6569 16 14 14.6569 14 13V5L7.39171 11.6083C7.1354 11.8646 6.81424 12.0464 6.46257 12.1344L3 13Z" />
<path d="M3.86564 9.53743L3 13L6.46257 12.1344C6.81424 12.0464 7.1354 11.8646 7.39171 11.6083L15.4393 3.56066C16.0251 2.97487 16.0251 2.02513 15.4393 1.43934L14.5607 0.56066C13.9749 -0.0251264 13.0251 -0.0251262 12.4393 0.56066L4.39171 8.60829C4.1354 8.8646 3.95356 9.18576 3.86564 9.53743Z" />
</svg>
