<svg width="16" height="16" xmlns="http://www.w3.org/2000/svg"><path d="M7.996 0a7.997 7.997 0 00-3.209 15.32 7.079 7.079 0 01.138-1.836l1.029-4.356a3.09 3.09 0 01-.256-1.266c0-1.185.688-2.07 1.542-2.07a1.071 1.071 0 011.08 1.2c-.155.964-.391 1.912-.707 2.836a1.237 1.237 0 001.262 1.54c1.515 0 2.536-1.946 2.536-4.251 0-1.752-1.18-3.064-3.328-3.064A3.786 3.786 0 004.15 7.685c-.003.065-.004.13-.003.196-.025.57.163 1.13.527 1.57a.388.388 0 01.115.446c-.038.145-.126.502-.163.641a.274.274 0 01-.4.2C3.11 10.283 2.59 9.06 2.59 7.686c0-2.272 1.915-4.997 5.714-4.997 3.053 0 5.063 2.21 5.063 4.58 0 3.136-1.745 5.48-4.315 5.48a2.298 2.298 0 01-1.953-.995s-.464 1.842-.563 2.197a6.665 6.665 0 01-.805 1.713A7.997 7.997 0 107.996 0z"/></svg>