<svg width="20" height="20" viewBox="0 0 20 20" xmlns="http://www.w3.org/2000/svg">
<path fill-rule="evenodd" clip-rule="evenodd" d="M7.5 0C6.67157 0 6 0.671573 6 1.5L6 12.3964C6 12.6192 5.73071 12.7307 5.57322 12.5732L2.82403 9.82403C2.3512 9.3512 1.60265 9.29801 1.06771 9.69921C0.476871 10.1423 0.354432 10.9793 0.793575 11.5731L5.8263 18.3784C6.58055 19.3983 7.77388 20 9.04239 20H15.4384C16.3562 20 17.1561 19.3754 17.3787 18.4851L17.3935 18.426C17.4643 18.1428 17.5658 17.8683 17.6964 17.6073L18.1554 16.6892C18.7108 15.5783 19 14.3534 19 13.1115V12L19 9.96577C19 9.09321 18.4343 8.32136 17.6023 8.05861L11.9312 6.26774C10.6333 5.85789 9.26692 6.66539 9 8V1.5C9 0.671573 8.32842 0 7.5 0Z"/>
</svg>
