<svg width="16" height="16" viewBox="0 0 16 16" xmlns="http://www.w3.org/2000/svg">
<path d="M8.70711 6.29289C8.31658 5.90237 7.68342 5.90237 7.29289 6.29289L4.29289 9.29289C3.90237 9.68342 3.90237 10.3166 4.29289 10.7071C4.68342 11.0976 5.31658 11.0976 5.70711 10.7071L7 9.41421L7 15C7 15.5523 7.44772 16 8 16C8.55229 16 9 15.5523 9 15L9 9.41421L10.2929 10.7071C10.6834 11.0976 11.3166 11.0976 11.7071 10.7071C12.0976 10.3166 12.0976 9.68342 11.7071 9.29289L8.70711 6.29289Z"/>
<path opacity="0.5" d="M8 1C9.63572 1 11.088 1.78546 12.0002 2.99979C12.2412 3.32054 12.4444 3.67121 12.6034 4.04523C12.9254 4.09394 13.2348 4.18103 13.5267 4.30169C14.9785 4.90166 16 6.33153 16 8C16 10.2091 14.2091 12 12 12L11 12C11.5118 12 12.0237 11.8047 12.4142 11.4142C13.1953 10.6332 13.1953 9.36683 12.4142 8.58579L9.41421 5.58579C8.63317 4.80474 7.36683 4.80474 6.58579 5.58579L3.58579 8.58579C2.80474 9.36683 2.80474 10.6332 3.58579 11.4142C3.97631 11.8047 4.48816 12 5 12H3C1.34315 12 0 10.6569 0 9C0 7.34315 1.34315 6 3 6C3 3.23858 5.23858 1 8 1Z"/>
</svg>
