<svg width="16" height="16" xmlns="http://www.w3.org/2000/svg"><path fill-rule="evenodd" clip-rule="evenodd" d="M14.184 6.328A1.753 1.753 0 0116 8.016a1.755 1.755 0 01-.973 1.597c.013.175.013.353 0 .529 0 2.69-3.135 4.876-7.003 4.876-3.868 0-7.003-2.186-7.003-4.876a3.646 3.646 0 010-.529 1.754 1.754 0 111.934-2.87A8.567 8.567 0 017.64 5.265l.89-4.168v-.002-.003a.372.372 0 01.443-.284l2.942.59a1.2 1.2 0 11-.155.732l-2.57-.54-.782 3.747a8.545 8.545 0 014.625 1.478 1.75 1.75 0 011.15-.487zM3.988 9.216a1.2 1.2 0 112.402 0 1.2 1.2 0 01-2.402 0zm5.562.048a1.2 1.2 0 001.2 1.202l-.011.048h.061a1.202 1.202 0 001.152-1.25 1.201 1.201 0 00-2.402 0zM8 13.445a4.62 4.62 0 002.967-.925v.048a.336.336 0 00-.468-.48 3.933 3.933 0 01-2.51.732 3.922 3.922 0 01-2.5-.756.323.323 0 00-.455.456c.851.642 1.9.968 2.966.925z"/></svg>