<svg width="16" height="16" viewBox="0 0 16 16" xmlns="http://www.w3.org/2000/svg">
<path d="M10.6173 0.0761192C10.2436 0.2309 10 0.595536 10 0.999999V4H9C4.02944 4 0 8.02944 0 13V15C0 15.5523 0.447715 16 1 16C1.55229 16 2 15.5523 2 15V13C2 9.13401 5.13401 6 9 6H10V9C10 9.40446 10.2436 9.7691 10.6173 9.92388C10.991 10.0787 11.4211 9.9931 11.7071 9.70711L15.7071 5.70711C16.0976 5.31658 16.0976 4.68342 15.7071 4.29289L11.7071 0.292892C11.4211 0.00689393 10.991 -0.0786618 10.6173 0.0761192Z"/>
</svg>
