<svg width="16" height="16" xmlns="http://www.w3.org/2000/svg">
  <path d="M2.874 0H2a2 2 0 00-2 2v.874A4.007 4.007 0 002.874 0zM2.874 16H2a2 2 0 01-2-2v-.874A4.007 4.007 0 012.874 16zM16 14v-.874A4.007 4.007 0 0013.126 16H14a2 2 0 002-2zM13.126 0H14a2 2 0 012 2v.874A4.007 4.007 0 0113.126 0zM8 3a4.002 4.002 0 003.874-3H4.126C4.57 1.725 6.136 3 8 3zM4 8a4 4 0 108 0 4 4 0 00-8 0zM11.874 16a4.002 4.002 0 00-7.748 0h7.748zM3 8a4.002 4.002 0 00-3-3.874v7.748C1.725 11.43 3 9.864 3 8zM13 8a4.002 4.002 0 013-3.874v7.748A4.002 4.002 0 0113 8z"/>
</svg>