<svg width="16" height="16" viewBox="0 0 16 16" xmlns="http://www.w3.org/2000/svg">
<path fill-rule="evenodd" clip-rule="evenodd" d="M3 7C3 4.79086 4.79086 3 7 3C9.20914 3 11 4.79086 11 7C11 9.20914 9.20914 11 7 11C4.79086 11 3 9.20914 3 7ZM7 1C3.68629 1 1 3.68629 1 7C1 10.3137 3.68629 13 7 13C8.29583 13 9.49572 12.5892 10.4765 11.8907L13.2929 14.7071C13.6834 15.0976 14.3166 15.0976 14.7071 14.7071C15.0976 14.3166 15.0976 13.6834 14.7071 13.2929L11.8907 10.4765C12.5892 9.49572 13 8.29583 13 7C13 3.68629 10.3137 1 7 1Z" />
</svg>
