<svg width="16" height="16" viewBox="0 0 16 16" xmlns="http://www.w3.org/2000/svg">
<path d="M3.4 10.1C3.4 11 2.6 11.8 1.7 11.8C0.8 11.8 0 11 0 10.1C0 9.2 0.8 8.4 1.7 8.4H3.4V10.1ZM4.2 10.1C4.2 9.2 5 8.4 5.9 8.4C6.8 8.4 7.6 9.2 7.6 10.1V14.3C7.6 15.2 6.8 16 5.9 16C5 16 4.2 15.2 4.2 14.3V10.1ZM5.9 3.4C5 3.4 4.2 2.6 4.2 1.7C4.2 0.8 5 0 5.9 0C6.8 0 7.6 0.8 7.6 1.7V3.4H5.9ZM5.9 4.2C6.8 4.2 7.6 5 7.6 5.9C7.6 6.8 6.8 7.6 5.9 7.6H1.7C0.8 7.6 0 6.8 0 5.9C0 5 0.8 4.2 1.7 4.2H5.9ZM12.6 5.9C12.6 5 13.4 4.2 14.3 4.2C15.2 4.2 16 5 16 5.9C16 6.8 15.2 7.6 14.3 7.6H12.6V5.9ZM11.8 5.9C11.8 6.8 11 7.6 10.1 7.6C9.2 7.6 8.4 6.8 8.4 5.9V1.7C8.4 0.8 9.2 0 10.1 0C11 0 11.8 0.8 11.8 1.7V5.9ZM10.1 12.6C11 12.6 11.8 13.4 11.8 14.3C11.8 15.2 11 16 10.1 16C9.2 16 8.4 15.2 8.4 14.3V12.6H10.1ZM10.1 11.8C9.2 11.8 8.4 11 8.4 10.1C8.4 9.2 9.2 8.4 10.1 8.4H14.3C15.2 8.4 16 9.2 16 10.1C16 11 15.2 11.8 14.3 11.8H10.1Z"/>
</svg>
