<svg width="24" height="24" viewBox="0 0 24 24" fill="none" xmlns="http://www.w3.org/2000/svg">
<g clip-path="url(#clip0_16626_5302)">
<path d="M9.83422 18.509C7.4331 18.509 5.47893 16.5548 5.47893 14.1537C5.47893 11.7526 7.4331 9.7984 9.83422 9.7984C12.2353 9.7984 14.1895 11.7526 14.1895 14.1537C14.1895 16.5548 12.2353 18.509 9.83422 18.509ZM9.83422 11.3207C8.27188 11.3207 7.00017 12.5914 7.00017 14.1547C7.00017 15.718 8.27088 16.9887 9.83422 16.9887C11.3976 16.9887 12.6683 15.718 12.6683 14.1547C12.6683 12.5914 11.3966 11.3207 9.83422 11.3207ZM10.6758 15.0144C10.2097 15.4805 9.45401 15.4805 8.98791 15.0144C8.5218 14.5483 8.5218 13.7926 8.98791 13.3265C9.45401 12.8604 10.2097 12.8604 10.6758 13.3265C11.1419 13.7926 11.1419 14.5483 10.6758 15.0144ZM9.83422 21.78C9.05756 21.78 8.29193 21.6637 7.55836 21.4342C7.1535 21.308 6.92802 20.877 7.05429 20.4722C7.18056 20.0673 7.61148 19.8408 8.01634 19.9681C8.60159 20.1515 9.21389 20.2437 9.83422 20.2437C13.1914 20.2437 15.9232 17.5119 15.9232 14.1547C15.9232 10.7975 13.1914 8.06571 9.83422 8.06571C6.47706 8.06571 3.74523 10.7975 3.74523 14.1547C3.74523 14.776 3.83843 15.3893 4.02182 15.9756C4.14809 16.3804 3.92261 16.8114 3.51774 16.9386C3.11288 17.0649 2.68196 16.8394 2.55469 16.4346C2.32419 15.699 2.20795 14.9324 2.20795 14.1547C2.20795 9.94973 5.62925 6.52842 9.83422 6.52842C14.0392 6.52842 17.4595 9.94973 17.4595 14.1547C17.4595 18.3597 14.0382 21.78 9.83422 21.78ZM14.4751 23.9757C14.1965 23.9757 13.927 23.8233 13.7907 23.5578C13.5972 23.18 13.7456 22.717 14.1234 22.5236C17.2771 20.9031 19.2363 17.6963 19.2363 14.1537C19.2363 8.96863 15.0183 4.75063 9.83322 4.75063C6.27963 4.75063 3.06878 6.71883 1.45233 9.88659C1.25892 10.2644 0.796936 10.4147 0.41913 10.2213C0.0413237 10.0289 -0.108997 9.56591 0.0844157 9.1881C1.96443 5.50324 5.7004 3.21435 9.83422 3.21435C15.8661 3.21435 20.7736 8.12182 20.7736 14.1537C20.7736 18.2745 18.4947 22.0054 14.8259 23.8905C14.7136 23.9486 14.5934 23.9757 14.4751 23.9757ZM21.8408 20.8059C21.7266 20.8059 21.6113 20.7798 21.5021 20.7257C21.1263 20.5383 20.973 20.0823 21.1604 19.7055C23.5705 14.8632 22.6175 9.03878 18.7903 5.21162C14.9491 1.37042 9.10867 0.425404 4.25732 2.8616C3.88152 3.05 3.42454 2.89868 3.23614 2.52288C3.04774 2.14708 3.19906 1.6901 3.57486 1.5017C9.01247 -1.22812 15.5594 -0.169866 19.8656 4.13632C24.1558 8.42647 25.2231 14.9564 22.5213 20.384C22.389 20.6516 22.1204 20.8059 21.8408 20.8059Z" fill="#ED6C5C"/>
</g>
<defs>
<clipPath id="clip0_16626_5302">
<rect width="24" height="24" fill="white"/>
</clipPath>
</defs>
</svg>
