<svg width="16" height="16" xmlns="http://www.w3.org/2000/svg"><path d="M8.1 15.2l-.122-.003a1.285 1.285 0 01-.079.003c-.948 0-1.557-.413-2.144-.812-.407-.275-.79-.534-1.242-.607a4.216 4.216 0 00-.651-.052c-.383 0-.684.056-.904.097-.134.025-.249.048-.336.048-.092 0-.191-.02-.235-.16-.036-.124-.064-.242-.09-.357-.067-.295-.114-.476-.244-.496C.55 12.64.119 12.336.023 12.12A.26.26 0 010 12.027a.164.164 0 01.142-.168c2.311-.366 3.347-2.63 3.39-2.726l.004-.008c.142-.275.169-.514.083-.71-.159-.358-.676-.515-1.018-.62-.084-.025-.164-.049-.226-.073-.684-.259-.74-.524-.713-.66.045-.23.367-.391.627-.391.071 0 .134.011.187.035.307.138.584.208.823.208.33 0 .475-.133.492-.15a30.29 30.29 0 00-.03-.469c-.068-1.047-.153-2.35.193-3.092C4.99.976 7.186.803 7.835.803L8.12.8h.039c.65 0 2.852.173 3.888 2.401.346.744.26 2.047.192 3.094l-.004.045c-.008.147-.018.288-.026.423.017.016.15.14.449.15a2.12 2.12 0 00.777-.207.604.604 0 01.24-.045c.097 0 .196.018.277.05l.006.003c.232.078.384.234.387.397.003.153-.12.384-.718.611-.063.023-.142.048-.226.074-.343.103-.86.26-1.018.619-.088.196-.06.435.082.71l.003.008c.043.096 1.08 2.36 3.391 2.726a.164.164 0 01.142.168.285.285 0 01-.024.093c-.095.214-.525.517-2.029.74-.123.019-.171.172-.244.494a4.504 4.504 0 01-.091.353c-.032.104-.1.154-.214.154h-.02c-.079 0-.193-.014-.337-.041a4.753 4.753 0 00-.903-.091c-.212 0-.43.017-.652.052-.45.073-.834.332-1.239.607-.59.4-1.197.812-2.146.812z"/></svg>