<svg xmlns="http://www.w3.org/2000/svg" width="20" height="20"><path fill-rule="evenodd" d="M2.404 9.483a8.01 8.01 0 0 1 6.372-5.39A4.502 4.502 0 0 0 0 5.5a4.5 4.5 0 0 0 2.404 3.983Zm15.192 0a4.5 4.5 0 1 0-6.372-5.39 8.01 8.01 0 0 1 6.372 5.39Z" clip-rule="evenodd" opacity=".5"/><path fill-rule="evenodd" d="M17 12a6.974 6.974 0 0 1-1.782 4.666A6.982 6.982 0 0 1 10 19a6.983 6.983 0 0 1-5.218-2.334A7 7 0 1 1 17 12Zm-2.39 3.841A6.11 6.11 0 0 0 10 13.75a6.11 6.11 0 0 0-4.61 2.091A5.987 5.987 0 0 0 10 18c1.852 0 3.509-.84 4.61-2.159ZM10 12.625a2.5 2.5 0 1 0 0-5 2.5 2.5 0 0 0 0 5Z" clip-rule="evenodd"/></svg>