<svg width="40" height="40" xmlns="http://www.w3.org/2000/svg"><path opacity=".5" fill-rule="evenodd" clip-rule="evenodd" d="M31 6c4.97 0 9 4.054 9 9.055 0 4.52-3.291 8.265-7.594 8.945v-6.328h2.098l.398-2.617h-2.496v-1.698c0-.717.349-1.414 1.467-1.414h1.135v-2.23s-1.03-.176-2.015-.176c-2.055 0-3.4 1.254-3.4 3.523v1.995h-.6a11.995 11.995 0 00-6.198-3.728C24.208 8.186 27.35 6 31 6zM8.037 23.95a9.001 9.001 0 119.18-12.626 11.922 11.922 0 00-3.129 1.231 3.47 3.47 0 00-.215-.924 2.52 2.52 0 00-.594-.91 2.525 2.525 0 00-.91-.594c-.328-.127-.7-.214-1.249-.239-.548-.025-.723-.03-2.12-.03-1.397 0-1.572.005-2.12.03-.548.025-.921.112-1.249.24a2.53 2.53 0 00-.91.592 2.523 2.523 0 00-.594.911c-.127.328-.214.701-.239 1.249-.025.548-.03.723-.03 2.12 0 1.397.005 1.572.03 2.12.025.548.112.921.24 1.25.13.337.307.624.592.91.286.286.573.462.911.593.328.127.701.214 1.249.239.447.02.646.028 1.462.03a12.029 12.029 0 00-.305 3.807zm5.158-10.835l-.009-.193c-.023-.502-.106-.774-.177-.955a1.59 1.59 0 00-.385-.591 1.593 1.593 0 00-.59-.385c-.182-.071-.454-.154-.956-.177-.542-.025-.705-.03-2.078-.03-1.373 0-1.536.005-2.078.03-.502.023-.774.106-.955.177a1.59 1.59 0 00-.592.385c-.18.18-.29.351-.384.59-.07.182-.155.454-.177.956-.025.542-.03.705-.03 2.078 0 1.373.005 1.535.03 2.078.022.502.106.774.177.955.093.24.205.411.384.592.18.18.352.29.592.384.181.07.453.154.955.177.485.023.667.029 1.687.03.182-.548.402-1.079.658-1.589a2.64 2.64 0 112.316-3.18c.497-.489 1.036-.935 1.612-1.332zm-2.55 2.369A1.716 1.716 0 009 13.286a1.714 1.714 0 10.966 3.13c.211-.322.438-.633.679-.932zm1.1-3.847a.617.617 0 100 1.234.617.617 0 000-1.234z"/><path fill-rule="evenodd" clip-rule="evenodd" d="M20 34c6.075 0 11-4.925 11-11s-4.925-11-11-11S9 16.925 9 23s4.925 11 11 11zm4.779-13.183c0 3.336-2.477 7.183-7.005 7.183A6.843 6.843 0 0114 26.866a4.871 4.871 0 003.645-1.046c-1.078-.02-1.987-.75-2.3-1.753a2.392 2.392 0 001.112-.043c-1.127-.232-1.975-1.252-1.975-2.475v-.032c.332.19.711.303 1.115.315a2.54 2.54 0 01-1.095-2.1c0-.463.121-.896.333-1.27 1.214 1.528 3.028 2.532 5.075 2.638a2.565 2.565 0 01-.064-.576c0-1.394 1.103-2.524 2.462-2.524.708 0 1.348.307 1.797.797a4.847 4.847 0 001.564-.612 2.524 2.524 0 01-1.083 1.396c.498-.06.973-.196 1.414-.397-.33.506-.748.95-1.228 1.307.005.108.007.217.007.326z"/></svg>