<svg width="16" height="16" xmlns="http://www.w3.org/2000/svg"><path fill-rule="evenodd" clip-rule="evenodd" d="M6.872 3.789v8.214c0 .03.011.066.034.107.022.04.056.068.1.083l6.477.008c.69 0 1.283-.25 1.776-.748.494-.499.741-1.1.741-1.805 0-.7-.247-1.298-.74-1.797a2.42 2.42 0 00-1.784-.748c-.342 0-.666.066-.968.197a4.464 4.464 0 00-.704-2.073 4.39 4.39 0 00-1.589-1.483 4.314 4.314 0 00-3.113-.423c-.153.05-.23.206-.23.468zM5.13 11.785c0 .277.184.415.55.415.368 0 .552-.138.552-.415v-7.55c0-.424-.136-.712-.383-.743-.167-.022-.322-.022-.481.114-.158.136-.238.382-.238.628v7.55zm-3.417-.264c0 .146.05.255.152.328a.65.65 0 00.391.11.667.667 0 00.398-.11c.102-.073.153-.182.153-.328V6.417a.536.536 0 00-.16-.39.53.53 0 00-.391-.161.519.519 0 00-.383.161.533.533 0 00-.16.39v5.104zM0 10.584c0 .202.072.354.216.457.144.103.298.14.462.11.153-.031.261-.086.324-.167.061-.08.092-.214.092-.4V8.395a.544.544 0 00-.16-.397.529.529 0 00-.39-.163.52.52 0 00-.384.163.544.544 0 00-.16.397v2.189zm3.574 1.506c-.104-.072-.157-.182-.157-.328V7.103a.55.55 0 01.165-.4.534.534 0 01.394-.166c.149 0 .276.056.383.166.107.111.16.244.16.4v4.66c0 .145-.051.255-.153.327a.65.65 0 01-.39.11.683.683 0 01-.402-.11z"/></svg>