<svg width="16" height="16" xmlns="http://www.w3.org/2000/svg"><path fill-rule="evenodd" clip-rule="evenodd" d="M0 8a8 8 0 018-8 8.023 8.023 0 018 8A8 8 0 010 8zm11.032 3.743c.228.13.518.049.648-.18l.006-.01.016-.029a.48.48 0 00-.222-.64c-2.08-1.28-4.72-1.56-7.76-.88a.494.494 0 10.24.96c2.8-.64 5.16-.404 7.04.76.01.006.02.014.032.02zm1.612-2.383a.603.603 0 01-.827.208l-.013-.008a10.367 10.367 0 00-7.964-.92.607.607 0 11-.364-1.16 11.7 11.7 0 019.004 1.08.564.564 0 01.164.794l-.004.006h.004zM3.44 6.2c2.44-.76 6.72-.6 9.28.92h.003a.838.838 0 001.04-.2.771.771 0 00-.28-1.04c-2.96-1.76-7.639-1.92-10.48-1.08-.017.004-.033.01-.05.015l-.007.003A.734.734 0 003.44 6.2z"/></svg>