<svg width="20" height="20" xmlns="http://www.w3.org/2000/svg">
<path d="M9.53601 0.655425C9.70397 0.23719 10.296 0.23719 10.464 0.655425L12.7279 6.29306C12.7994 6.47116 12.9666 6.59261 13.1581 6.60559L19.2194 7.01658C19.669 7.04707 19.852 7.61016 19.5061 7.89914L14.844 11.7944C14.6967 11.9174 14.6329 12.1139 14.6797 12.3001L16.1619 18.1917C16.2718 18.6288 15.7928 18.9768 15.4111 18.7372L10.2659 15.5069C10.1033 15.4049 9.89669 15.4049 9.73415 15.5069L4.58888 18.7372C4.20717 18.9768 3.72817 18.6288 3.83813 18.1917L5.3203 12.3001C5.36713 12.1139 5.30328 11.9174 5.156 11.7944L0.493873 7.89914C0.148008 7.61016 0.330968 7.04707 0.780633 7.01658L6.84193 6.60559C7.03342 6.59261 7.20057 6.47116 7.27209 6.29306L9.53601 0.655425Z"/>
</svg>
