<svg width="16" height="16" xmlns="http://www.w3.org/2000/svg"><path fill-rule="evenodd" clip-rule="evenodd" d="M8 16A8 8 0 1 0 8 0a8 8 0 0 0 0 16ZM9.42 5.64 8.298 2.71a.316.316 0 0 0-.596 0L6.58 5.64a.323.323 0 0 1-.276.21L3.3 6.063c-.289.02-.406.4-.184.594l2.31 2.023a.346.346 0 0 1 .106.34l-.735 3.06c-.07.294.237.529.482.367l2.55-1.677a.309.309 0 0 1 .342 0l2.55 1.677c.245.162.553-.073.482-.367l-.735-3.06a.346.346 0 0 1 .106-.34l2.31-2.023c.222-.195.105-.574-.184-.594l-3.004-.214a.323.323 0 0 1-.276-.21Z"/></svg>