<svg width="12" height="12" viewBox="0 0 12 12" xmlns="http://www.w3.org/2000/svg">
<g clip-path="url(#clip0_3770_10)">
<path d="M5.53834 0.359964C5.70914 -0.0506818 6.29086 -0.0506821 6.46166 0.359964L7.73424 3.41962C7.80624 3.59273 7.96905 3.71102 8.15594 3.726L11.4591 3.99081C11.9024 4.02635 12.0822 4.57961 11.7444 4.86894L9.22777 7.02472C9.08537 7.1467 9.02318 7.33809 9.06669 7.52047L9.83557 10.7438C9.93876 11.1764 9.46813 11.5183 9.08858 11.2865L6.26063 9.55919C6.10062 9.46146 5.89938 9.46146 5.73937 9.55919L2.91142 11.2865C2.53187 11.5183 2.06124 11.1764 2.16443 10.7438L2.93331 7.52047C2.97682 7.33809 2.91463 7.1467 2.77224 7.02472L0.255583 4.86894C-0.0821859 4.57961 0.0975766 4.02635 0.540904 3.99081L3.84406 3.726C4.03095 3.71102 4.19376 3.59273 4.26576 3.41962L5.53834 0.359964Z" />
</g>
<defs>
<clipPath id="clip0_3770_10">
<rect width="12" height="12" fill="white"/>
</clipPath>
</defs>
</svg>
