<svg width="16" height="16" xmlns="http://www.w3.org/2000/svg"><path d="M15 7H8.123l-1.608-.402A1.997 1.997 0 0 1 5 4.658 2.66 2.66 0 0 1 7.657 2H8c1.067 0 2.063.575 2.6 1.501a1 1 0 1 0 1.73-1.003A5.021 5.021 0 0 0 8 0h-.343A4.662 4.662 0 0 0 3 4.658c0 .868.285 1.677.767 2.342H1a1 1 0 1 0 0 2h6.877l1.608.402A1.997 1.997 0 0 1 11 11.343 2.66 2.66 0 0 1 8.343 14H7a3.016 3.016 0 0 1-2.584-1.475 1 1 0 0 0-1.721 1.02A5.024 5.024 0 0 0 7 16h1.343A4.662 4.662 0 0 0 13 11.343c0-.869-.285-1.678-.767-2.343H15a1 1 0 1 0 0-2z"/></svg>