<svg width="16" height="16" xmlns="http://www.w3.org/2000/svg"><path fill-rule="evenodd" clip-rule="evenodd" d="M7 1a1 1 0 0 1 2 0v1a1 1 0 1 1-2 0V1Zm5 7a4 4 0 1 1-8 0 4 4 0 0 1 8 0ZM2.343 2.343a1 1 0 0 0 0 1.414l.707.707A1 1 0 1 0 4.464 3.05l-.707-.707a1 1 0 0 0-1.414 0ZM15 7a1 1 0 1 1 0 2h-1a1 1 0 1 1 0-2h1Zm-1.343-4.657a1 1 0 0 0-1.414 0l-.707.707a1 1 0 0 0 1.414 1.414l.707-.707a1 1 0 0 0 0-1.414ZM7 14a1 1 0 1 1 2 0v1a1 1 0 1 1-2 0v-1Zm4.536-2.464a1 1 0 0 0 0 1.414l.707.707a1 1 0 0 0 1.414-1.414l-.707-.707a1 1 0 0 0-1.414 0ZM2 7a1 1 0 0 1 0 2H1a1 1 0 0 1 0-2h1Zm2.464 4.536a1 1 0 0 0-1.414 0l-.707.707a1 1 0 0 0 1.414 1.414l.707-.707a1 1 0 0 0 0-1.414Z"/></svg>