<svg width="16" height="16" viewBox="0 0 16 16" fill="none" xmlns="http://www.w3.org/2000/svg">
<path d="M16 5.5V1.20711C16 0.761654 15.4614 0.538571 15.1464 0.853554L10.8536 5.14645C10.5386 5.46143 10.7617 6 11.2071 6H15.5C15.7761 6 16 5.77614 16 5.5Z" fill="currentColor"/>
<path d="M-4.80825e-07 10.5L-1.05529e-07 14.7929C-6.65859e-08 15.2383 0.538571 15.4614 0.853554 15.1464L5.14645 10.8536C5.46143 10.5386 5.23835 10 4.79289 10L0.5 10C0.223857 10 -5.04966e-07 10.2239 -4.80825e-07 10.5Z" fill="currentColor"/>
<path d="M14.9291 9C14.4439 12.3923 11.5265 15 8 15C5.62125 15 3.51963 13.8135 2.25469 12M13.7453 4C12.4804 2.18652 10.3787 1 8 1C4.47352 1 1.55611 3.60771 1.07088 7" stroke="currentColor" stroke-width="2" stroke-linecap="round"/>
</svg>
