<svg width="12" height="12" viewBox="0 0 12 12" xmlns="http://www.w3.org/2000/svg">
<path fill-rule="evenodd" clip-rule="evenodd" d="M2 0.75C1.58579 0.75 1.25 1.08579 1.25 1.5V3C1.25 3.41421 1.58579 3.75 2 3.75C2.41421 3.75 2.75 3.41421 2.75 3V2.25H5.25V9.75H4.5C4.08579 9.75 3.75 10.0858 3.75 10.5C3.75 10.9142 4.08579 11.25 4.5 11.25H7.5C7.91421 11.25 8.25 10.9142 8.25 10.5C8.25 10.0858 7.91421 9.75 7.5 9.75H6.75V2.25H9.25V3C9.25 3.41421 9.58579 3.75 10 3.75C10.4142 3.75 10.75 3.41421 10.75 3V1.5C10.75 1.08579 10.4142 0.75 10 0.75H6H2Z" />
</svg>

