<svg width="16" height="16" xmlns="http://www.w3.org/2000/svg"><path d="M14.99 4.006c-.91 0-1.75-.303-2.424-.814A4.049 4.049 0 0110.96 0H8.358v7.14l-.003 3.909c0 1.045-.68 1.93-1.617 2.244a2.359 2.359 0 01-1.951-.216 2.364 2.364 0 011.951-4.275V6.153a4.964 4.964 0 00-.751-.057c-1.44 0-2.787.601-3.75 1.684a4.939 4.939 0 00-1.228 2.955 4.909 4.909 0 001.453 3.812A4.98 4.98 0 005.99 16a5.002 5.002 0 003.528-1.452 4.9 4.9 0 001.461-3.48l-.012-5.841a6.51 6.51 0 001.462.854c.816.348 1.683.52 2.571.52V4.006h-.01z"/></svg>