<svg width="40" height="40" viewBox="0 0 40 40" fill="none" xmlns="http://www.w3.org/2000/svg">
<g clip-path="url(#clip0_10517_41203)">
<path opacity="0.25" fill-rule="evenodd" clip-rule="evenodd" d="M22.1707 32H15C15 30.3431 13.6569 29 12 29C10.3431 29 9 30.3431 9 32C9 32.0424 9.00088 32.0847 9.00263 32.1267C8.68222 32.044 8.34625 32 8 32C5.79086 32 4 33.7909 4 36C4 38.2091 5.79086 40 8 40H21H23H30C32.2091 40 34 38.2091 34 36C34 33.7909 32.2091 32 30 32C29.2578 32 28.5628 32.2021 27.9671 32.5544C27.7519 31.1088 26.5054 30 25 30C23.6938 30 22.5825 30.8348 22.1707 32Z" />
<path fill-rule="evenodd" clip-rule="evenodd" d="M6.95585 1.80868C10.3401 0.680582 14.9519 0 20 0C25.0481 0 29.6599 0.680582 33.0442 1.80868C34.7311 2.37098 36.1683 3.06258 37.2044 3.87912C38.2293 4.68677 39 5.73384 39 7C39 11.1799 37.9507 14.2568 36.3247 16.628C34.7103 18.9824 32.575 20.5699 30.53 21.848C29.8302 22.2854 29.1203 22.6986 28.4476 23.0902L28.4472 23.0905L28.447 23.0906C28.1464 23.2656 27.8532 23.4363 27.5717 23.6028C26.6406 24.1537 25.8146 24.6722 25.1207 25.2215C23.757 26.3011 23 27.4167 23 29C23 29.8206 23.2019 30.4955 23.4827 31.1553C23.6029 31.4379 23.7322 31.7059 23.8703 31.9924L23.9562 32.1708C24.1214 32.515 24.2965 32.8893 24.4398 33.2833C24.7356 34.0966 24.9027 35.0123 24.6645 36.1038C24.4325 37.1674 23.8355 38.3064 22.7809 39.6247C22.5156 39.9563 22.0697 40.0842 21.669 39.9436C21.2682 39.8031 21 39.4247 21 39C21 37.1384 20.6062 36.0814 20.1176 35.421C19.6248 34.7551 18.9413 34.3612 18.0742 34.0019C17.806 33.8908 17.564 33.7994 17.3087 33.703L17.3082 33.7028L17.3078 33.7026L17.3077 33.7026L17.3075 33.7025C17.1174 33.6307 16.9199 33.5561 16.6986 33.4685C16.224 33.2806 15.719 33.0609 15.242 32.7688C14.2442 32.158 13.4069 31.2507 13.0299 29.7425C12.7543 28.6404 12.7054 27.7351 12.8033 26.9335C12.9005 26.137 13.1375 25.4927 13.362 24.9376C13.3994 24.8452 13.4363 24.7551 13.4727 24.6667C13.8633 23.7154 14.1744 22.9577 14.0077 21.624C13.8721 20.5387 13.2338 19.764 12.1068 19.0277C11.3019 18.5019 10.3753 18.0703 9.33806 17.5872C8.84215 17.3562 8.32094 17.1135 7.77561 16.843C6.16537 16.0443 4.45698 15.0455 3.15975 13.4974C1.83738 11.9193 1 9.84196 1 7C1 5.73384 1.77073 4.68677 2.79556 3.87912C3.83165 3.06258 5.26894 2.37098 6.95585 1.80868ZM20 12.5C29.3888 12.5 37 10.0376 37 7C37 3.96243 29.3888 1.5 20 1.5C10.6112 1.5 3 3.96243 3 7C3 10.0376 10.6112 12.5 20 12.5Z" />
<path opacity="0.5" d="M13 7.12881C11.3895 7.44608 10.0213 7.86962 9 8.36727M28 7.34687C29.1345 7.61976 30.1179 7.94934 30.9052 8.32178" stroke="#6B717B" stroke-linecap="round"/>
<path opacity="0.5" d="M5.09073 6.99999C6.81914 5.47862 10.4613 4.28668 15 3.77388M28.5 4.33945C31.3867 4.96289 33.6533 5.89447 34.9093 6.99999" stroke="#6B717B" stroke-linecap="round"/>
<path fill-rule="evenodd" clip-rule="evenodd" d="M17.581 10.9498C16.5308 10.9058 15.5116 10.8335 14.5325 10.7358L15.5189 7.05439C15.1087 6.94447 14.8126 6.58743 14.7806 6.16396C14.7485 5.74048 14.9874 5.34294 15.3764 5.17251L21.2413 2.60291C21.6697 2.41521 22.171 2.54953 22.4481 2.92627L26.2425 8.08407C26.4941 8.42616 26.5023 8.8899 26.2628 9.24061C26.0233 9.59132 25.5884 9.75249 25.1781 9.64257L24.8702 10.7918C23.8552 10.8809 22.8003 10.9429 21.7153 10.9749L21.7627 10.798C22.0486 9.73104 21.4155 8.63436 20.3485 8.34848C19.2816 8.0626 18.1849 8.69576 17.899 9.76269L17.581 10.9498ZM26.0686 6.31948L26.5369 4.57146C26.6442 4.17136 26.4067 3.76011 26.0066 3.6529L24.5577 3.26467C24.3262 3.20264 24.091 3.25599 23.9131 3.38947L26.0686 6.31948Z" />
</g>
<defs>
<clipPath id="clip0_10517_41203">
<rect width="40" height="40" fill="white"/>
</clipPath>
</defs>
</svg>
