<svg width="16" height="16" xmlns="http://www.w3.org/2000/svg"><path d="M5.032 14.603c6.038 0 9.34-5.002 9.34-9.34 0-.142-.003-.283-.01-.424A6.671 6.671 0 0016 3.14a6.532 6.532 0 01-1.885.517 3.296 3.296 0 001.443-1.816 6.558 6.558 0 01-2.084.797A3.283 3.283 0 007.88 5.63a9.322 9.322 0 01-6.766-3.43A3.28 3.28 0 002.13 6.584a3.246 3.246 0 01-1.487-.41v.041a3.283 3.283 0 002.633 3.219 3.285 3.285 0 01-1.482.056 3.286 3.286 0 003.066 2.28A6.586 6.586 0 010 13.129a9.291 9.291 0 005.032 1.474z"/></svg>