<svg width="16" height="16" viewBox="0 0 16 16" xmlns="http://www.w3.org/2000/svg">
<path d="M5.38268 0.0761192C5.75636 0.2309 6 0.595536 6 0.999999V4H7C11.9706 4 16 8.02944 16 13V15C16 15.5523 15.5523 16 15 16C14.4477 16 14 15.5523 14 15V13C14 9.13401 10.866 6 7 6H6V9C6 9.40446 5.75636 9.7691 5.38268 9.92388C5.00901 10.0787 4.57889 9.9931 4.29289 9.70711L0.292893 5.70711C-0.0976311 5.31658 -0.0976311 4.68342 0.292893 4.29289L4.29289 0.292892C4.57889 0.00689393 5.00901 -0.0786618 5.38268 0.0761192Z"/>
</svg>
