<svg width="16" height="16" viewBox="0 0 16 16" fill="none" xmlns="http://www.w3.org/2000/svg">
<path opacity="0.5" d="M0 15C0 14.4477 0.447715 14 1 14L15 14C15.5523 14 16 14.4477 16 15C16 15.5523 15.5523 16 15 16L1 16C0.447715 16 0 15.5523 0 15Z" fill="#9498A3"/>
<path d="M7 11C7 11.5523 7.44772 12 8 12C8.55228 12 9 11.5523 9 11L9 3.41421L11.2929 5.70711C11.6834 6.09763 12.3166 6.09763 12.7071 5.70711C13.0976 5.31658 13.0976 4.68342 12.7071 4.29289L8.70711 0.292892C8.31658 -0.0976319 7.68342 -0.0976319 7.29289 0.292892L3.29289 4.29289C2.90237 4.68342 2.90237 5.31658 3.29289 5.70711C3.68342 6.09763 4.31658 6.09763 4.70711 5.70711L7 3.41421L7 11Z" fill="#9498A3"/>
</svg>
