<svg width="20" height="20" viewBox="0 0 20 20" xmlns="http://www.w3.org/2000/svg">
<path opacity="0.4" fill-rule="evenodd" clip-rule="evenodd" d="M10.6669 7.10901C11.1914 6.3731 11.5 5.47258 11.5 4.5C11.5 3.52742 11.1914 2.6269 10.6669 1.89099C11.2861 1.33691 12.1037 1 13 1C14.933 1 16.5 2.567 16.5 4.5C16.5 6.433 14.933 8 13 8C12.1037 8 11.2861 7.66309 10.6669 7.10901ZM14.3448 18C14.7537 17.5133 15 16.8854 15 16.2V16C15 13.143 13.5024 10.6359 11.2494 9.22068C11.8089 9.07662 12.3955 9 13 9C16.866 9 20 12.134 20 16V16.2C20 17.1941 19.1941 18 18.2 18H14.3448Z"/>
<path fill-rule="evenodd" clip-rule="evenodd" d="M7 8C8.933 8 10.5 6.433 10.5 4.5C10.5 2.567 8.933 1 7 1C5.067 1 3.5 2.567 3.5 4.5C3.5 6.433 5.067 8 7 8ZM7 9C3.13401 9 0 12.134 0 16V16.2C0 17.1941 0.805888 18 1.8 18H12.2C13.1941 18 14 17.1941 14 16.2V16C14 12.134 10.866 9 7 9Z"/>
</svg>
