<svg width="12" height="12" viewBox="0 0 12 12" xmlns="http://www.w3.org/2000/svg">
<path opacity="0.5" fill-rule="evenodd" clip-rule="evenodd" d="M6.91628 4.42354C7.43457 3.84774 7.75 3.08571 7.75 2.25C7.75 1.41429 7.43457 0.65226 6.91628 0.0764582C7.10243 0.0265897 7.29811 0 7.5 0C8.74264 0 9.75 1.00736 9.75 2.25C9.75 3.49264 8.74264 4.5 7.5 4.5C7.29811 4.5 7.10243 4.47341 6.91628 4.42354ZM9.64421 11.25C9.86923 10.9049 10 10.4927 10 10.05V9.75C10 7.89174 9.07844 6.24873 7.66741 5.25306C10.0751 5.34111 12 7.32077 12 9.75V10.05C12 10.7127 11.4627 11.25 10.8 11.25H9.64421Z" />
<path fill-rule="evenodd" clip-rule="evenodd" d="M4.5 4.5C5.74264 4.5 6.75 3.49264 6.75 2.25C6.75 1.00736 5.74264 0 4.5 0C3.25736 0 2.25 1.00736 2.25 2.25C2.25 3.49264 3.25736 4.5 4.5 4.5ZM4.5 5.25C2.01472 5.25 0 7.26472 0 9.75V10.05C0 10.7127 0.537259 11.25 1.2 11.25H7.8C8.46274 11.25 9 10.7127 9 10.05V9.75C9 7.26472 6.98528 5.25 4.5 5.25Z" />
</svg>

