<svg width="16" height="16" xmlns="http://www.w3.org/2000/svg"><path opacity=".5" fill-rule="evenodd" clip-rule="evenodd" d="M8.874 6.782A3.987 3.987 0 0 0 10 4a3.987 3.987 0 0 0-1.126-2.782 3 3 0 1 1 0 5.563ZM12.45 16c.345-.441.551-.997.551-1.6V14a6.996 6.996 0 0 0-3.374-5.989A6 6 0 0 1 16 14v.4a1.6 1.6 0 0 1-1.6 1.6h-1.95Z"/><path fill-rule="evenodd" clip-rule="evenodd" d="M6 7a3 3 0 1 0 0-6 3 3 0 0 0 0 6Zm0 1a6 6 0 0 0-6 6v.4A1.6 1.6 0 0 0 1.6 16h8.8a1.6 1.6 0 0 0 1.6-1.6V14a6 6 0 0 0-6-6Z"/></svg>