<svg width="16" height="16" xmlns="http://www.w3.org/2000/svg"><path d="M15.994 4.125c-.07 1.624-1.157 3.844-3.26 6.659-2.176 2.944-4.018 4.416-5.526 4.416-.932 0-1.72-.897-2.365-2.691a4169.97 4169.97 0 01-1.292-4.94c-.48-1.796-.995-2.696-1.543-2.695-.457.198-.88.463-1.256.787L0 4.653a185.93 185.93 0 002.332-2.168C3.382 1.537 4.172 1.038 4.7.988 5.94.86 6.707 1.746 6.996 3.643c.308 2.046.522 3.318.643 3.818.36 1.696.754 2.544 1.183 2.542.334 0 .837-.548 1.507-1.644a6.624 6.624 0 001.075-2.507c.096-.949-.262-1.42-1.075-1.42a2.96 2.96 0 00-1.184.26c.79-2.668 2.298-3.965 4.52-3.889 1.648.048 2.423 1.157 2.327 3.327"/></svg>