<svg width="16" height="16" xmlns="http://www.w3.org/2000/svg"><path fill-rule="evenodd" clip-rule="evenodd" d="M.29 7.794C.29 3.489 3.809 0 8.146 0 12.484 0 16 3.49 16 7.794c0 4.304-3.516 7.794-7.855 7.794a7.87 7.87 0 01-3.797-.97L0 16l1.418-4.182A7.71 7.71 0 01.291 7.794zm7.855 6.488a6.545 6.545 0 01-3.597-1.072l-2.513.798.817-2.41a6.42 6.42 0 01-1.245-3.804c0-3.578 2.933-6.489 6.538-6.489 3.606 0 6.539 2.91 6.539 6.489 0 3.578-2.933 6.488-6.539 6.488zm3.683-4.717c-.196-.107-1.164-.625-1.346-.698-.18-.073-.313-.111-.454.083-.142.194-.544.628-.664.756-.122.129-.24.14-.437.034a2.994 2.994 0 00-.13-.065c-.279-.132-.826-.393-1.445-.983-.576-.55-.954-1.216-1.064-1.419-.11-.204 0-.308.104-.403.061-.057.133-.136.205-.216.036-.042.073-.083.109-.12.089-.097.128-.17.183-.27l.03-.056c.072-.13.043-.247-.004-.348-.03-.065-.19-.495-.34-.903l-.223-.597c-.133-.356-.28-.352-.393-.35h-.045c-.057-.001-.117-.007-.18-.014-.066-.006-.135-.013-.203-.016a.74.74 0 00-.544.23 5.498 5.498 0 01-.04.038c-.216.212-.69.676-.725 1.595-.037.976.643 1.947.74 2.086v.001c.008.01.022.033.043.066.245.391 1.417 2.26 3.27 3.065 1.663.723 1.956.665 2.217.612.054-.01.107-.021.17-.025.369-.02 1.204-.437 1.389-.896.184-.457.199-.856.152-.94-.038-.07-.132-.119-.272-.192l-.103-.055z"/></svg>