<svg width="16" height="16" xmlns="http://www.w3.org/2000/svg"><path fill-rule="evenodd" clip-rule="evenodd" d="M5.489.312c-.644.16-1.258.373-1.838.63-.404.18-.555.642-.332 1.002L6.814 7.58c.392.633 1.43.374 1.43-.356V.714c0-.415-.38-.745-.825-.712-.641.047-1.286.15-1.93.31zm8.847 7.108a6.189 6.189 0 00-1.692-2.168.802.802 0 00-1.141.138L9.422 8.262c-.4.552.159 1.268.847 1.085l3.575-.955c.447-.119.676-.576.492-.972zm-3.004 7.07L9.36 11.55c-.379-.564.207-1.262.887-1.056l3.538 1.07c.44.133.654.598.455.987a6.28 6.28 0 01-1.768 2.11c-.358.275-.894.195-1.14-.172zm-6.851.496a6.945 6.945 0 002.666 1.004c.457.071.878-.248.894-.68l.13-3.462c.025-.667-.857-.998-1.336-.503l-2.49 2.575a.685.685 0 00.136 1.066zm1.87-5.958L3.007 7.51c-.415-.188-.915.005-1.062.413a5.742 5.742 0 00-.302 2.664c.054.43.498.719.948.614l3.61-.838c.694-.162.794-1.042.15-1.334z"/></svg>