<svg width="16" height="16" xmlns="http://www.w3.org/2000/svg"><path fill-rule="evenodd" clip-rule="evenodd" d="M10 8.003c0 .595-.109 1.164-.308 1.69A4.772 4.772 0 018.003 10h-.006c-.595 0-1.164-.11-1.689-.308A4.754 4.754 0 016 8.003v-.007c0-.595.109-1.163.307-1.689A4.786 4.786 0 017.997 6h.006c.595 0 1.165.11 1.689.307.199.526.308 1.094.308 1.69v.006zm5.889-1.337h-4.67l3.302-3.302a8.033 8.033 0 00-1.885-1.885L9.333 4.781V.111a7.972 7.972 0 00-1.329-.11h-.008c-.453 0-.897.037-1.329.11v4.67L3.365 1.48a7.957 7.957 0 00-1.022.864l-.001.001a8.012 8.012 0 00-.863 1.02l3.302 3.302H.111S0 7.544 0 7.997v.006c0 .453.039.897.111 1.33h4.67l-3.302 3.302a8.017 8.017 0 001.886 1.885l3.302-3.302v4.67c.432.073.875.112 1.327.112h.012c.452 0 .895-.039 1.327-.112v-4.67l3.303 3.302a8.012 8.012 0 001.02-.863h.001c.316-.317.605-.657.864-1.022l-3.302-3.302h4.67c.072-.432.111-.875.111-1.328v-.01c0-.453-.039-.897-.111-1.329z"/></svg>