<svg width="12" height="12" xmlns="http://www.w3.org/2000/svg"><path fill-rule="evenodd" clip-rule="evenodd" d="M7.5 6.003c0 .446-.082.873-.231 1.266a3.58 3.58 0 0 1-1.267.231h-.004c-.447 0-.873-.082-1.267-.23A3.566 3.566 0 0 1 4.5 6.002v-.006c0-.446.082-.872.23-1.266a3.59 3.59 0 0 1 1.268-.23h.004c.447 0 .874.081 1.267.23.15.394.231.82.231 1.266v.006zM11.917 5H8.414l2.477-2.477A6.02 6.02 0 0 0 9.477 1.11L7 3.586V.084A5.979 5.979 0 0 0 6.003 0h-.006C5.657 0 5.324.03 5 .084v3.502L2.524 1.11a6.009 6.009 0 0 0-1.415 1.414L3.586 5H.083S0 5.658 0 5.998v.005c0 .34.03.672.083.997h3.503L1.109 9.477c.39.546.868 1.025 1.415 1.413L5 8.414v3.502c.324.055.657.084.995.084h.01c.338 0 .67-.029.995-.084V8.414l2.477 2.476a5.957 5.957 0 0 0 1.414-1.414L8.414 7h3.503A6.05 6.05 0 0 0 12 6.004v-.008c0-.34-.03-.672-.083-.996z" fill="#FF4A00"/></svg>