<svg xmlns="http://www.w3.org/2000/svg" width="300" height="300.66" viewBox="0 0 300 300.66"><g id="Layer_2" data-name="Layer 2"><g id="Layer_3" data-name="Layer 3"><path d="M270,239.57,298.5,133a43.87,43.87,0,0,0-11.32-42.35L209.59,12.89A43.89,43.89,0,0,0,167.11,1.51L61,30.07a43.86,43.86,0,0,0-31,31L1.5,167.63A43.88,43.88,0,0,0,12.82,210l77.59,77.78a43.91,43.91,0,0,0,42.48,11.38L239,270.58A43.87,43.87,0,0,0,270,239.57Z" fill="#ea3ba7"/><path d="M127.65,135.2h16.6l-13.14,49.26a3.59,3.59,0,0,0,3.47,4.51h6.64a5.38,5.38,0,0,0,4.6-2.6l45.48-75.28a5.38,5.38,0,0,0-4.6-8.16H168l25.81-38.21a5.38,5.38,0,0,0-4.46-8.39H147.59a7.17,7.17,0,0,0-6.92,5.28L122.46,128.4A5.38,5.38,0,0,0,127.65,135.2Z" fill="#fff"/><path d="M146,210.48H122.56a7.18,7.18,0,0,0-6.94,5.36l-6.18,23.76a5.37,5.37,0,0,0,5.2,6.73H138a7.18,7.18,0,0,0,6.94-5.35l6.24-23.76A5.37,5.37,0,0,0,146,210.48Z" fill="#fff"/></g></g></svg>